<?xml version="1.0" encoding="UTF-8" standalone="no"?>
<!-- This is a Stata 16.1 generated SVG file (http://www.stata.com) -->

<svg version="1.1" width="5.50in" height="8.00in" viewBox="0 0 3960 5760" xmlns="http://www.w3.org/2000/svg" xmlns:xlink="http://www.w3.org/1999/xlink">
	<desc>Stata Graph - Graph</desc>
	<rect x="0" y="0" width="3960" height="5760" style="fill:#EAF2F3;stroke:none"/>
	<rect x="0.00" y="0.00" width="3960.00" height="5760.00" style="fill:#EAF2F3"/>
	<rect x="3.96" y="3.96" width="3952.08" height="5752.08" style="fill:none;stroke:#EAF2F3;stroke-width:7.92"/>
	<rect x="179.82" y="138.60" width="3641.58" height="5084.10" style="fill:#FFFFFF"/>
	<rect x="183.78" y="142.56" width="3633.66" height="5076.18" style="fill:none;stroke:#FFFFFF;stroke-width:7.92"/>
	<line x1="2125.26" y1="5222.70" x2="2125.26" y2="5143.50" style="stroke:#C10534;stroke-width:11.88"/>
	<line x1="2125.26" y1="5103.90" x2="2125.26" y2="5024.70" style="stroke:#C10534;stroke-width:11.88"/>
	<line x1="2125.26" y1="4985.10" x2="2125.26" y2="4905.90" style="stroke:#C10534;stroke-width:11.88"/>
	<line x1="2125.26" y1="4866.30" x2="2125.26" y2="4786.92" style="stroke:#C10534;stroke-width:11.88"/>
	<line x1="2125.26" y1="4747.32" x2="2125.26" y2="4668.12" style="stroke:#C10534;stroke-width:11.88"/>
	<line x1="2125.26" y1="4628.52" x2="2125.26" y2="4549.32" style="stroke:#C10534;stroke-width:11.88"/>
	<line x1="2125.26" y1="4509.72" x2="2125.26" y2="4430.52" style="stroke:#C10534;stroke-width:11.88"/>
	<line x1="2125.26" y1="4390.92" x2="2125.26" y2="4311.72" style="stroke:#C10534;stroke-width:11.88"/>
	<line x1="2125.26" y1="4272.12" x2="2125.26" y2="4192.92" style="stroke:#C10534;stroke-width:11.88"/>
	<line x1="2125.26" y1="4153.14" x2="2125.26" y2="4073.94" style="stroke:#C10534;stroke-width:11.88"/>
	<line x1="2125.26" y1="4034.34" x2="2125.26" y2="3955.14" style="stroke:#C10534;stroke-width:11.88"/>
	<line x1="2125.26" y1="3915.54" x2="2125.26" y2="3836.34" style="stroke:#C10534;stroke-width:11.88"/>
	<line x1="2125.26" y1="3796.74" x2="2125.26" y2="3717.54" style="stroke:#C10534;stroke-width:11.88"/>
	<line x1="2125.26" y1="3677.94" x2="2125.26" y2="3598.74" style="stroke:#C10534;stroke-width:11.88"/>
	<line x1="2125.26" y1="3559.14" x2="2125.26" y2="3479.76" style="stroke:#C10534;stroke-width:11.88"/>
	<line x1="2125.26" y1="3440.16" x2="2125.26" y2="3360.96" style="stroke:#C10534;stroke-width:11.88"/>
	<line x1="2125.26" y1="3321.36" x2="2125.26" y2="3242.16" style="stroke:#C10534;stroke-width:11.88"/>
	<line x1="2125.26" y1="3202.56" x2="2125.26" y2="3123.36" style="stroke:#C10534;stroke-width:11.88"/>
	<line x1="2125.26" y1="3083.76" x2="2125.26" y2="3004.56" style="stroke:#C10534;stroke-width:11.88"/>
	<line x1="2125.26" y1="2964.96" x2="2125.26" y2="2885.76" style="stroke:#C10534;stroke-width:11.88"/>
	<line x1="2125.26" y1="2845.98" x2="2125.26" y2="2766.78" style="stroke:#C10534;stroke-width:11.88"/>
	<line x1="2125.26" y1="2727.18" x2="2125.26" y2="2647.98" style="stroke:#C10534;stroke-width:11.88"/>
	<line x1="2125.26" y1="2608.38" x2="2125.26" y2="2529.18" style="stroke:#C10534;stroke-width:11.88"/>
	<line x1="2125.26" y1="2489.58" x2="2125.26" y2="2410.38" style="stroke:#C10534;stroke-width:11.88"/>
	<line x1="2125.26" y1="2370.78" x2="2125.26" y2="2291.58" style="stroke:#C10534;stroke-width:11.88"/>
	<line x1="2125.26" y1="2251.98" x2="2125.26" y2="2172.60" style="stroke:#C10534;stroke-width:11.88"/>
	<line x1="2125.26" y1="2133.00" x2="2125.26" y2="2053.80" style="stroke:#C10534;stroke-width:11.88"/>
	<line x1="2125.26" y1="2014.20" x2="2125.26" y2="1935.00" style="stroke:#C10534;stroke-width:11.88"/>
	<line x1="2125.26" y1="1895.40" x2="2125.26" y2="1816.20" style="stroke:#C10534;stroke-width:11.88"/>
	<line x1="2125.26" y1="1776.60" x2="2125.26" y2="1697.40" style="stroke:#C10534;stroke-width:11.88"/>
	<line x1="2125.26" y1="1657.80" x2="2125.26" y2="1578.42" style="stroke:#C10534;stroke-width:11.88"/>
	<line x1="2125.26" y1="1538.82" x2="2125.26" y2="1459.62" style="stroke:#C10534;stroke-width:11.88"/>
	<line x1="2125.26" y1="1420.02" x2="2125.26" y2="1340.82" style="stroke:#C10534;stroke-width:11.88"/>
	<line x1="2125.26" y1="1301.22" x2="2125.26" y2="1222.02" style="stroke:#C10534;stroke-width:11.88"/>
	<line x1="2125.26" y1="1182.42" x2="2125.26" y2="1103.22" style="stroke:#C10534;stroke-width:11.88"/>
	<line x1="2125.26" y1="1063.62" x2="2125.26" y2="984.42" style="stroke:#C10534;stroke-width:11.88"/>
	<line x1="2125.26" y1="944.64" x2="2125.26" y2="865.44" style="stroke:#C10534;stroke-width:11.88"/>
	<line x1="2125.26" y1="825.84" x2="2125.26" y2="746.64" style="stroke:#C10534;stroke-width:11.88"/>
	<line x1="2125.26" y1="707.04" x2="2125.26" y2="627.84" style="stroke:#C10534;stroke-width:11.88"/>
	<line x1="2125.26" y1="588.24" x2="2125.26" y2="509.04" style="stroke:#C10534;stroke-width:11.88"/>
	<line x1="2125.26" y1="469.44" x2="2125.26" y2="390.24" style="stroke:#C10534;stroke-width:11.88"/>
	<line x1="2125.26" y1="350.64" x2="2125.26" y2="271.26" style="stroke:#C10534;stroke-width:11.88"/>
	<line x1="2125.26" y1="231.66" x2="2125.26" y2="152.46" style="stroke:#C10534;stroke-width:11.88"/>
	<circle cx="2213.10" cy="1278.00" r="26.64" style="fill:#000000"/>
	<circle cx="2213.10" cy="1278.00" r="20.70" style="fill:none;stroke:#000000;stroke-width:11.88"/>
	<circle cx="2372.94" cy="1628.64" r="26.64" style="fill:#000000"/>
	<circle cx="2372.94" cy="1628.64" r="20.70" style="fill:none;stroke:#000000;stroke-width:11.88"/>
	<circle cx="2137.14" cy="1979.28" r="26.64" style="fill:#000000"/>
	<circle cx="2137.14" cy="1979.28" r="20.70" style="fill:none;stroke:#000000;stroke-width:11.88"/>
	<circle cx="2218.86" cy="2330.10" r="26.64" style="fill:#000000"/>
	<circle cx="2218.86" cy="2330.10" r="20.70" style="fill:none;stroke:#000000;stroke-width:11.88"/>
	<circle cx="2200.32" cy="2680.74" r="26.64" style="fill:#000000"/>
	<circle cx="2200.32" cy="2680.74" r="20.70" style="fill:none;stroke:#000000;stroke-width:11.88"/>
	<circle cx="2330.64" cy="3732.84" r="26.64" style="fill:#000000"/>
	<circle cx="2330.64" cy="3732.84" r="20.70" style="fill:none;stroke:#000000;stroke-width:11.88"/>
	<circle cx="2308.68" cy="4083.48" r="26.64" style="fill:#000000"/>
	<circle cx="2308.68" cy="4083.48" r="20.70" style="fill:none;stroke:#000000;stroke-width:11.88"/>
	<circle cx="2337.66" cy="4434.30" r="26.64" style="fill:#000000"/>
	<circle cx="2337.66" cy="4434.30" r="20.70" style="fill:none;stroke:#000000;stroke-width:11.88"/>
	<circle cx="2229.12" cy="4784.94" r="26.64" style="fill:#000000"/>
	<circle cx="2229.12" cy="4784.94" r="20.70" style="fill:none;stroke:#000000;stroke-width:11.88"/>
	<circle cx="2465.64" cy="5135.58" r="26.64" style="fill:#000000"/>
	<circle cx="2465.64" cy="5135.58" r="20.70" style="fill:none;stroke:#000000;stroke-width:11.88"/>
	<line x1="1936.44" y1="1277.82" x2="2489.94" y2="1277.82" style="stroke:#000000;stroke-width:11.88"/>
	<line x1="2489.94" y1="1308.06" x2="2489.94" y2="1247.58" stroke-linecap="round" style="stroke:#000000;stroke-width:11.88"/>
	<line x1="1936.44" y1="1308.06" x2="1936.44" y2="1247.58" stroke-linecap="round" style="stroke:#000000;stroke-width:11.88"/>
	<line x1="1920.60" y1="1628.46" x2="2825.46" y2="1628.46" style="stroke:#000000;stroke-width:11.88"/>
	<line x1="2825.46" y1="1658.70" x2="2825.46" y2="1598.22" stroke-linecap="round" style="stroke:#000000;stroke-width:11.88"/>
	<line x1="1920.60" y1="1658.70" x2="1920.60" y2="1598.22" stroke-linecap="round" style="stroke:#000000;stroke-width:11.88"/>
	<line x1="1799.10" y1="1979.28" x2="2475.36" y2="1979.28" style="stroke:#000000;stroke-width:11.88"/>
	<line x1="2475.36" y1="2009.52" x2="2475.36" y2="1949.04" stroke-linecap="round" style="stroke:#000000;stroke-width:11.88"/>
	<line x1="1799.10" y1="2009.52" x2="1799.10" y2="1949.04" stroke-linecap="round" style="stroke:#000000;stroke-width:11.88"/>
	<line x1="1880.28" y1="2329.92" x2="2557.44" y2="2329.92" style="stroke:#000000;stroke-width:11.88"/>
	<line x1="2557.44" y1="2360.16" x2="2557.44" y2="2299.68" stroke-linecap="round" style="stroke:#000000;stroke-width:11.88"/>
	<line x1="1880.28" y1="2360.16" x2="1880.28" y2="2299.68" stroke-linecap="round" style="stroke:#000000;stroke-width:11.88"/>
	<line x1="1752.84" y1="2680.56" x2="2647.98" y2="2680.56" style="stroke:#000000;stroke-width:11.88"/>
	<line x1="2647.98" y1="2710.80" x2="2647.98" y2="2650.32" stroke-linecap="round" style="stroke:#000000;stroke-width:11.88"/>
	<line x1="1752.84" y1="2710.80" x2="1752.84" y2="2650.32" stroke-linecap="round" style="stroke:#000000;stroke-width:11.88"/>
	<line x1="1963.08" y1="3732.66" x2="2698.20" y2="3732.66" style="stroke:#000000;stroke-width:11.88"/>
	<line x1="2698.20" y1="3762.90" x2="2698.20" y2="3702.42" stroke-linecap="round" style="stroke:#000000;stroke-width:11.88"/>
	<line x1="1963.08" y1="3762.90" x2="1963.08" y2="3702.42" stroke-linecap="round" style="stroke:#000000;stroke-width:11.88"/>
	<line x1="1608.84" y1="4083.48" x2="3008.52" y2="4083.48" style="stroke:#000000;stroke-width:11.88"/>
	<line x1="3008.52" y1="4113.72" x2="3008.52" y2="4053.24" stroke-linecap="round" style="stroke:#000000;stroke-width:11.88"/>
	<line x1="1608.84" y1="4113.72" x2="1608.84" y2="4053.24" stroke-linecap="round" style="stroke:#000000;stroke-width:11.88"/>
	<line x1="1913.40" y1="4434.12" x2="2762.28" y2="4434.12" style="stroke:#000000;stroke-width:11.88"/>
	<line x1="2762.28" y1="4464.36" x2="2762.28" y2="4403.88" stroke-linecap="round" style="stroke:#000000;stroke-width:11.88"/>
	<line x1="1913.40" y1="4464.36" x2="1913.40" y2="4403.88" stroke-linecap="round" style="stroke:#000000;stroke-width:11.88"/>
	<line x1="1736.10" y1="4784.76" x2="2722.32" y2="4784.76" style="stroke:#000000;stroke-width:11.88"/>
	<line x1="2722.32" y1="4815.00" x2="2722.32" y2="4754.52" stroke-linecap="round" style="stroke:#000000;stroke-width:11.88"/>
	<line x1="1736.10" y1="4815.00" x2="1736.10" y2="4754.52" stroke-linecap="round" style="stroke:#000000;stroke-width:11.88"/>
	<line x1="1933.38" y1="5135.58" x2="2998.08" y2="5135.58" style="stroke:#000000;stroke-width:11.88"/>
	<line x1="2998.08" y1="5165.82" x2="2998.08" y2="5105.34" stroke-linecap="round" style="stroke:#000000;stroke-width:11.88"/>
	<line x1="1933.38" y1="5165.82" x2="1933.38" y2="5105.34" stroke-linecap="round" style="stroke:#000000;stroke-width:11.88"/>
	<text x="857.34" y="946.50" style="font-family:'Helvetica';font-size:55.08px;fill:#000000">&lt;&lt;&lt; HR = 0.00 (0.00-0.00)</text>
	<text x="857.34" y="3401.34" style="font-family:'Helvetica';font-size:55.08px;fill:#000000">&lt;&lt;&lt; HR = 0.00 (0.00-0.00)</text>
	<text x="324.72" y="245.04" style="font-family:'Helvetica';font-size:55.08px;fill:#000000">Presence of children or young people in household</text>
	<text x="354.06" y="595.68" style="font-family:'Helvetica';font-size:55.08px;fill:#808080">Children under 12 years</text>
	<text x="354.06" y="3050.70" style="font-family:'Helvetica';font-size:55.08px;fill:#808080">Children/young people aged 11-&lt;18 years</text>
	<text x="418.14" y="946.50" style="font-family:'Helvetica';font-size:55.08px;fill:#808080">Time before 3rd April 2020</text>
	<text x="418.14" y="1297.14" style="font-family:'Helvetica';font-size:55.08px;fill:#808080">Time on/after 3rd April 2020</text>
	<text x="418.14" y="1647.78" style="font-family:'Helvetica';font-size:55.08px;fill:#808080">Female</text>
	<text x="418.14" y="1998.60" style="font-family:'Helvetica';font-size:55.08px;fill:#808080">Male</text>
	<text x="418.14" y="2349.24" style="font-family:'Helvetica';font-size:55.08px;fill:#808080">Unlikely to be shielding</text>
	<text x="418.14" y="2699.88" style="font-family:'Helvetica';font-size:55.08px;fill:#808080">Probable shielding</text>
	<text x="418.14" y="3401.34" style="font-family:'Helvetica';font-size:55.08px;fill:#808080">Time before 3rd April 2020</text>
	<text x="418.14" y="3751.98" style="font-family:'Helvetica';font-size:55.08px;fill:#808080">Time on/after 3rd April 2020</text>
	<text x="418.14" y="4102.80" style="font-family:'Helvetica';font-size:55.08px;fill:#808080">Female</text>
	<text x="418.14" y="4453.44" style="font-family:'Helvetica';font-size:55.08px;fill:#808080">Male</text>
	<text x="418.14" y="4804.08" style="font-family:'Helvetica';font-size:55.08px;fill:#808080">Unlikely to be shielding</text>
	<text x="418.14" y="5154.90" style="font-family:'Helvetica';font-size:55.08px;fill:#808080">Probable shielding</text>
	<line x1="179.82" y1="5222.70" x2="179.82" y2="138.60" style="stroke:#000000;stroke-width:7.92"/>
	<line x1="179.82" y1="5222.70" x2="3821.40" y2="5222.70" style="stroke:#000000;stroke-width:7.92"/>
	<line x1="1156.50" y1="5222.70" x2="1156.50" y2="5277.60" style="stroke:#000000;stroke-width:7.92"/>
	<text x="1156.50" y="5401.31" style="font-family:'Helvetica';font-size:137.52px;fill:#000000" text-anchor="middle">.25</text>
	<line x1="1640.88" y1="5222.70" x2="1640.88" y2="5277.60" style="stroke:#000000;stroke-width:7.92"/>
	<text x="1640.88" y="5401.31" style="font-family:'Helvetica';font-size:137.52px;fill:#000000" text-anchor="middle">.5</text>
	<line x1="2125.26" y1="5222.70" x2="2125.26" y2="5277.60" style="stroke:#000000;stroke-width:7.92"/>
	<text x="2125.26" y="5401.31" style="font-family:'Helvetica';font-size:137.52px;fill:#000000" text-anchor="middle">1</text>
	<line x1="2609.64" y1="5222.70" x2="2609.64" y2="5277.60" style="stroke:#000000;stroke-width:7.92"/>
	<text x="2609.64" y="5401.31" style="font-family:'Helvetica';font-size:137.52px;fill:#000000" text-anchor="middle">2</text>
	<line x1="3249.90" y1="5222.70" x2="3249.90" y2="5277.60" style="stroke:#000000;stroke-width:7.92"/>
	<text x="3249.90" y="5401.31" style="font-family:'Helvetica';font-size:137.52px;fill:#000000" text-anchor="middle">5</text>
	<line x1="3734.28" y1="5222.70" x2="3734.28" y2="5277.60" style="stroke:#000000;stroke-width:7.92"/>
	<text x="3734.28" y="5401.31" style="font-family:'Helvetica';font-size:137.52px;fill:#000000" text-anchor="middle">10</text>
	<text x="2000.70" y="5552.51" style="font-family:'Helvetica';font-size:137.52px;fill:#000000" text-anchor="middle">Hazard Ratio &amp; 95% CI</text>
</svg>
