<?xml version="1.0" encoding="UTF-8" standalone="no"?>
<!-- This is a Stata 16.1 generated SVG file (http://www.stata.com) -->

<svg version="1.1" width="5.50in" height="8.00in" viewBox="0 0 3960 5760" xmlns="http://www.w3.org/2000/svg" xmlns:xlink="http://www.w3.org/1999/xlink">
	<desc>Stata Graph - Graph</desc>
	<rect x="0" y="0" width="3960" height="5760" style="fill:#EAF2F3;stroke:none"/>
	<rect x="0.00" y="0.00" width="3960.00" height="5760.00" style="fill:#EAF2F3"/>
	<rect x="3.96" y="3.96" width="3952.08" height="5752.08" style="fill:none;stroke:#EAF2F3;stroke-width:7.92"/>
	<rect x="179.82" y="138.60" width="3641.58" height="5084.10" style="fill:#FFFFFF"/>
	<rect x="183.78" y="142.56" width="3633.66" height="5076.18" style="fill:none;stroke:#FFFFFF;stroke-width:7.92"/>
	<line x1="1498.86" y1="5222.70" x2="1498.86" y2="5143.50" style="stroke:#C10534;stroke-width:11.88"/>
	<line x1="1498.86" y1="5103.90" x2="1498.86" y2="5024.70" style="stroke:#C10534;stroke-width:11.88"/>
	<line x1="1498.86" y1="4985.10" x2="1498.86" y2="4905.90" style="stroke:#C10534;stroke-width:11.88"/>
	<line x1="1498.86" y1="4866.30" x2="1498.86" y2="4786.92" style="stroke:#C10534;stroke-width:11.88"/>
	<line x1="1498.86" y1="4747.32" x2="1498.86" y2="4668.12" style="stroke:#C10534;stroke-width:11.88"/>
	<line x1="1498.86" y1="4628.52" x2="1498.86" y2="4549.32" style="stroke:#C10534;stroke-width:11.88"/>
	<line x1="1498.86" y1="4509.72" x2="1498.86" y2="4430.52" style="stroke:#C10534;stroke-width:11.88"/>
	<line x1="1498.86" y1="4390.92" x2="1498.86" y2="4311.72" style="stroke:#C10534;stroke-width:11.88"/>
	<line x1="1498.86" y1="4272.12" x2="1498.86" y2="4192.92" style="stroke:#C10534;stroke-width:11.88"/>
	<line x1="1498.86" y1="4153.14" x2="1498.86" y2="4073.94" style="stroke:#C10534;stroke-width:11.88"/>
	<line x1="1498.86" y1="4034.34" x2="1498.86" y2="3955.14" style="stroke:#C10534;stroke-width:11.88"/>
	<line x1="1498.86" y1="3915.54" x2="1498.86" y2="3836.34" style="stroke:#C10534;stroke-width:11.88"/>
	<line x1="1498.86" y1="3796.74" x2="1498.86" y2="3717.54" style="stroke:#C10534;stroke-width:11.88"/>
	<line x1="1498.86" y1="3677.94" x2="1498.86" y2="3598.74" style="stroke:#C10534;stroke-width:11.88"/>
	<line x1="1498.86" y1="3559.14" x2="1498.86" y2="3479.76" style="stroke:#C10534;stroke-width:11.88"/>
	<line x1="1498.86" y1="3440.16" x2="1498.86" y2="3360.96" style="stroke:#C10534;stroke-width:11.88"/>
	<line x1="1498.86" y1="3321.36" x2="1498.86" y2="3242.16" style="stroke:#C10534;stroke-width:11.88"/>
	<line x1="1498.86" y1="3202.56" x2="1498.86" y2="3123.36" style="stroke:#C10534;stroke-width:11.88"/>
	<line x1="1498.86" y1="3083.76" x2="1498.86" y2="3004.56" style="stroke:#C10534;stroke-width:11.88"/>
	<line x1="1498.86" y1="2964.96" x2="1498.86" y2="2885.76" style="stroke:#C10534;stroke-width:11.88"/>
	<line x1="1498.86" y1="2845.98" x2="1498.86" y2="2766.78" style="stroke:#C10534;stroke-width:11.88"/>
	<line x1="1498.86" y1="2727.18" x2="1498.86" y2="2647.98" style="stroke:#C10534;stroke-width:11.88"/>
	<line x1="1498.86" y1="2608.38" x2="1498.86" y2="2529.18" style="stroke:#C10534;stroke-width:11.88"/>
	<line x1="1498.86" y1="2489.58" x2="1498.86" y2="2410.38" style="stroke:#C10534;stroke-width:11.88"/>
	<line x1="1498.86" y1="2370.78" x2="1498.86" y2="2291.58" style="stroke:#C10534;stroke-width:11.88"/>
	<line x1="1498.86" y1="2251.98" x2="1498.86" y2="2172.60" style="stroke:#C10534;stroke-width:11.88"/>
	<line x1="1498.86" y1="2133.00" x2="1498.86" y2="2053.80" style="stroke:#C10534;stroke-width:11.88"/>
	<line x1="1498.86" y1="2014.20" x2="1498.86" y2="1935.00" style="stroke:#C10534;stroke-width:11.88"/>
	<line x1="1498.86" y1="1895.40" x2="1498.86" y2="1816.20" style="stroke:#C10534;stroke-width:11.88"/>
	<line x1="1498.86" y1="1776.60" x2="1498.86" y2="1697.40" style="stroke:#C10534;stroke-width:11.88"/>
	<line x1="1498.86" y1="1657.80" x2="1498.86" y2="1578.42" style="stroke:#C10534;stroke-width:11.88"/>
	<line x1="1498.86" y1="1538.82" x2="1498.86" y2="1459.62" style="stroke:#C10534;stroke-width:11.88"/>
	<line x1="1498.86" y1="1420.02" x2="1498.86" y2="1340.82" style="stroke:#C10534;stroke-width:11.88"/>
	<line x1="1498.86" y1="1301.22" x2="1498.86" y2="1222.02" style="stroke:#C10534;stroke-width:11.88"/>
	<line x1="1498.86" y1="1182.42" x2="1498.86" y2="1103.22" style="stroke:#C10534;stroke-width:11.88"/>
	<line x1="1498.86" y1="1063.62" x2="1498.86" y2="984.42" style="stroke:#C10534;stroke-width:11.88"/>
	<line x1="1498.86" y1="944.64" x2="1498.86" y2="865.44" style="stroke:#C10534;stroke-width:11.88"/>
	<line x1="1498.86" y1="825.84" x2="1498.86" y2="746.64" style="stroke:#C10534;stroke-width:11.88"/>
	<line x1="1498.86" y1="707.04" x2="1498.86" y2="627.84" style="stroke:#C10534;stroke-width:11.88"/>
	<line x1="1498.86" y1="588.24" x2="1498.86" y2="509.04" style="stroke:#C10534;stroke-width:11.88"/>
	<line x1="1498.86" y1="469.44" x2="1498.86" y2="390.24" style="stroke:#C10534;stroke-width:11.88"/>
	<line x1="1498.86" y1="350.64" x2="1498.86" y2="271.26" style="stroke:#C10534;stroke-width:11.88"/>
	<line x1="1498.86" y1="231.66" x2="1498.86" y2="152.46" style="stroke:#C10534;stroke-width:11.88"/>
	<circle cx="1569.42" cy="1278.00" r="26.64" style="fill:#000000"/>
	<circle cx="1569.42" cy="1278.00" r="20.70" style="fill:none;stroke:#000000;stroke-width:11.88"/>
	<circle cx="1467.00" cy="1628.64" r="26.64" style="fill:#000000"/>
	<circle cx="1467.00" cy="1628.64" r="20.70" style="fill:none;stroke:#000000;stroke-width:11.88"/>
	<circle cx="1613.52" cy="1979.28" r="26.64" style="fill:#000000"/>
	<circle cx="1613.52" cy="1979.28" r="20.70" style="fill:none;stroke:#000000;stroke-width:11.88"/>
	<circle cx="1553.04" cy="2330.10" r="26.64" style="fill:#000000"/>
	<circle cx="1553.04" cy="2330.10" r="20.70" style="fill:none;stroke:#000000;stroke-width:11.88"/>
	<circle cx="1607.04" cy="2680.74" r="26.64" style="fill:#000000"/>
	<circle cx="1607.04" cy="2680.74" r="20.70" style="fill:none;stroke:#000000;stroke-width:11.88"/>
	<circle cx="2429.64" cy="3382.20" r="26.64" style="fill:#000000"/>
	<circle cx="2429.64" cy="3382.20" r="20.70" style="fill:none;stroke:#000000;stroke-width:11.88"/>
	<circle cx="1584.54" cy="3732.84" r="26.64" style="fill:#000000"/>
	<circle cx="1584.54" cy="3732.84" r="20.70" style="fill:none;stroke:#000000;stroke-width:11.88"/>
	<circle cx="1520.10" cy="4083.48" r="26.64" style="fill:#000000"/>
	<circle cx="1520.10" cy="4083.48" r="20.70" style="fill:none;stroke:#000000;stroke-width:11.88"/>
	<circle cx="1619.64" cy="4434.30" r="26.64" style="fill:#000000"/>
	<circle cx="1619.64" cy="4434.30" r="20.70" style="fill:none;stroke:#000000;stroke-width:11.88"/>
	<circle cx="1578.60" cy="4784.94" r="26.64" style="fill:#000000"/>
	<circle cx="1578.60" cy="4784.94" r="20.70" style="fill:none;stroke:#000000;stroke-width:11.88"/>
	<circle cx="1604.16" cy="5135.58" r="26.64" style="fill:#000000"/>
	<circle cx="1604.16" cy="5135.58" r="20.70" style="fill:none;stroke:#000000;stroke-width:11.88"/>
	<line x1="1504.98" y1="1277.82" x2="1634.04" y2="1277.82" style="stroke:#000000;stroke-width:11.88"/>
	<line x1="1634.04" y1="1308.06" x2="1634.04" y2="1247.58" stroke-linecap="round" style="stroke:#000000;stroke-width:11.88"/>
	<line x1="1504.98" y1="1308.06" x2="1504.98" y2="1247.58" stroke-linecap="round" style="stroke:#000000;stroke-width:11.88"/>
	<line x1="1355.22" y1="1628.46" x2="1578.96" y2="1628.46" style="stroke:#000000;stroke-width:11.88"/>
	<line x1="1578.96" y1="1658.70" x2="1578.96" y2="1598.22" stroke-linecap="round" style="stroke:#000000;stroke-width:11.88"/>
	<line x1="1355.22" y1="1658.70" x2="1355.22" y2="1598.22" stroke-linecap="round" style="stroke:#000000;stroke-width:11.88"/>
	<line x1="1540.08" y1="1979.28" x2="1687.14" y2="1979.28" style="stroke:#000000;stroke-width:11.88"/>
	<line x1="1687.14" y1="2009.52" x2="1687.14" y2="1949.04" stroke-linecap="round" style="stroke:#000000;stroke-width:11.88"/>
	<line x1="1540.08" y1="2009.52" x2="1540.08" y2="1949.04" stroke-linecap="round" style="stroke:#000000;stroke-width:11.88"/>
	<line x1="1479.06" y1="2329.92" x2="1627.38" y2="2329.92" style="stroke:#000000;stroke-width:11.88"/>
	<line x1="1627.38" y1="2360.16" x2="1627.38" y2="2299.68" stroke-linecap="round" style="stroke:#000000;stroke-width:11.88"/>
	<line x1="1479.06" y1="2360.16" x2="1479.06" y2="2299.68" stroke-linecap="round" style="stroke:#000000;stroke-width:11.88"/>
	<line x1="1497.42" y1="2680.56" x2="1716.84" y2="2680.56" style="stroke:#000000;stroke-width:11.88"/>
	<line x1="1716.84" y1="2710.80" x2="1716.84" y2="2650.32" stroke-linecap="round" style="stroke:#000000;stroke-width:11.88"/>
	<line x1="1497.42" y1="2710.80" x2="1497.42" y2="2650.32" stroke-linecap="round" style="stroke:#000000;stroke-width:11.88"/>
	<line x1="1125.18" y1="3382.02" x2="3734.28" y2="3382.02" style="stroke:#000000;stroke-width:11.88"/>
	<line x1="3734.28" y1="3412.26" x2="3734.28" y2="3351.78" stroke-linecap="round" style="stroke:#000000;stroke-width:11.88"/>
	<line x1="1125.18" y1="3412.26" x2="1125.18" y2="3351.78" stroke-linecap="round" style="stroke:#000000;stroke-width:11.88"/>
	<line x1="1508.94" y1="3732.66" x2="1660.32" y2="3732.66" style="stroke:#000000;stroke-width:11.88"/>
	<line x1="1660.32" y1="3762.90" x2="1660.32" y2="3702.42" stroke-linecap="round" style="stroke:#000000;stroke-width:11.88"/>
	<line x1="1508.94" y1="3762.90" x2="1508.94" y2="3702.42" stroke-linecap="round" style="stroke:#000000;stroke-width:11.88"/>
	<line x1="1389.24" y1="4083.48" x2="1650.96" y2="4083.48" style="stroke:#000000;stroke-width:11.88"/>
	<line x1="1650.96" y1="4113.72" x2="1650.96" y2="4053.24" stroke-linecap="round" style="stroke:#000000;stroke-width:11.88"/>
	<line x1="1389.24" y1="4113.72" x2="1389.24" y2="4053.24" stroke-linecap="round" style="stroke:#000000;stroke-width:11.88"/>
	<line x1="1530.18" y1="4434.12" x2="1709.10" y2="4434.12" style="stroke:#000000;stroke-width:11.88"/>
	<line x1="1709.10" y1="4464.36" x2="1709.10" y2="4403.88" stroke-linecap="round" style="stroke:#000000;stroke-width:11.88"/>
	<line x1="1530.18" y1="4464.36" x2="1530.18" y2="4403.88" stroke-linecap="round" style="stroke:#000000;stroke-width:11.88"/>
	<line x1="1490.40" y1="4784.76" x2="1666.98" y2="4784.76" style="stroke:#000000;stroke-width:11.88"/>
	<line x1="1666.98" y1="4815.00" x2="1666.98" y2="4754.52" stroke-linecap="round" style="stroke:#000000;stroke-width:11.88"/>
	<line x1="1490.40" y1="4815.00" x2="1490.40" y2="4754.52" stroke-linecap="round" style="stroke:#000000;stroke-width:11.88"/>
	<line x1="1473.12" y1="5135.58" x2="1735.38" y2="5135.58" style="stroke:#000000;stroke-width:11.88"/>
	<line x1="1735.38" y1="5165.82" x2="1735.38" y2="5105.34" stroke-linecap="round" style="stroke:#000000;stroke-width:11.88"/>
	<line x1="1473.12" y1="5165.82" x2="1473.12" y2="5105.34" stroke-linecap="round" style="stroke:#000000;stroke-width:11.88"/>
	<text x="677.70" y="946.50" style="font-family:'Helvetica';font-size:55.08px;fill:#000000">&lt;&lt;&lt; HR = 0.00 (0.00-0.00)</text>
	<text x="324.72" y="245.04" style="font-family:'Helvetica';font-size:55.08px;fill:#000000">Presence of children or young people in household</text>
	<text x="344.16" y="595.68" style="font-family:'Helvetica';font-size:55.08px;fill:#808080">Children under 12 years</text>
	<text x="344.16" y="3050.70" style="font-family:'Helvetica';font-size:55.08px;fill:#808080">Children/young people aged 11-&lt;18 years</text>
	<text x="386.64" y="946.50" style="font-family:'Helvetica';font-size:55.08px;fill:#808080">Time before 3rd April 2020</text>
	<text x="386.64" y="1297.14" style="font-family:'Helvetica';font-size:55.08px;fill:#808080">Time on/after 3rd April 2020</text>
	<text x="386.64" y="1647.78" style="font-family:'Helvetica';font-size:55.08px;fill:#808080">Female</text>
	<text x="386.64" y="1998.60" style="font-family:'Helvetica';font-size:55.08px;fill:#808080">Male</text>
	<text x="386.64" y="2349.24" style="font-family:'Helvetica';font-size:55.08px;fill:#808080">Unlikely to be shielding</text>
	<text x="386.64" y="2699.88" style="font-family:'Helvetica';font-size:55.08px;fill:#808080">Probable shielding</text>
	<text x="386.64" y="3401.34" style="font-family:'Helvetica';font-size:55.08px;fill:#808080">Time before 3rd April 2020</text>
	<text x="386.64" y="3751.98" style="font-family:'Helvetica';font-size:55.08px;fill:#808080">Time on/after 3rd April 2020</text>
	<text x="386.64" y="4102.80" style="font-family:'Helvetica';font-size:55.08px;fill:#808080">Female</text>
	<text x="386.64" y="4453.44" style="font-family:'Helvetica';font-size:55.08px;fill:#808080">Male</text>
	<text x="386.64" y="4804.08" style="font-family:'Helvetica';font-size:55.08px;fill:#808080">Unlikely to be shielding</text>
	<text x="386.64" y="5154.90" style="font-family:'Helvetica';font-size:55.08px;fill:#808080">Probable shielding</text>
	<line x1="179.82" y1="5222.70" x2="179.82" y2="138.60" style="stroke:#000000;stroke-width:7.92"/>
	<line x1="179.82" y1="5222.70" x2="3821.40" y2="5222.70" style="stroke:#000000;stroke-width:7.92"/>
	<line x1="856.62" y1="5222.70" x2="856.62" y2="5277.60" style="stroke:#000000;stroke-width:7.92"/>
	<text x="856.62" y="5401.31" style="font-family:'Helvetica';font-size:137.52px;fill:#000000" text-anchor="middle">.25</text>
	<line x1="1177.74" y1="5222.70" x2="1177.74" y2="5277.60" style="stroke:#000000;stroke-width:7.92"/>
	<text x="1177.74" y="5401.31" style="font-family:'Helvetica';font-size:137.52px;fill:#000000" text-anchor="middle">.5</text>
	<line x1="1498.86" y1="5222.70" x2="1498.86" y2="5277.60" style="stroke:#000000;stroke-width:7.92"/>
	<text x="1498.86" y="5401.31" style="font-family:'Helvetica';font-size:137.52px;fill:#000000" text-anchor="middle">1</text>
	<line x1="1819.80" y1="5222.70" x2="1819.80" y2="5277.60" style="stroke:#000000;stroke-width:7.92"/>
	<text x="1819.80" y="5401.31" style="font-family:'Helvetica';font-size:137.52px;fill:#000000" text-anchor="middle">2</text>
	<line x1="2244.24" y1="5222.70" x2="2244.24" y2="5277.60" style="stroke:#000000;stroke-width:7.92"/>
	<text x="2244.24" y="5401.31" style="font-family:'Helvetica';font-size:137.52px;fill:#000000" text-anchor="middle">5</text>
	<line x1="2565.36" y1="5222.70" x2="2565.36" y2="5277.60" style="stroke:#000000;stroke-width:7.92"/>
	<text x="2565.36" y="5401.31" style="font-family:'Helvetica';font-size:137.52px;fill:#000000" text-anchor="middle">10</text>
	<text x="2000.70" y="5552.51" style="font-family:'Helvetica';font-size:137.52px;fill:#000000" text-anchor="middle">Hazard Ratio &amp; 95% CI</text>
</svg>
