<?xml version="1.0" encoding="UTF-8" standalone="no"?>
<!-- This is a Stata 15.1 generated SVG file (http://www.stata.com) -->

<svg version="1.1" width="5.50in" height="4.00in" viewBox="0 0 3960 2880" xmlns="http://www.w3.org/2000/svg" xmlns:xlink="http://www.w3.org/1999/xlink">
	<desc>Stata Graph - Graph</desc>
	<rect x="0" y="0" width="3960" height="2880" style="fill:#EAF2F3;stroke:none"/>
	<rect x="0.00" y="0.00" width="3959.88" height="2880.00" style="fill:#EAF2F3"/>
	<rect x="2.88" y="2.88" width="3954.12" height="2874.24" style="fill:none;stroke:#EAF2F3;stroke-width:5.76"/>
	<rect x="390.80" y="100.86" width="3468.22" height="2388.33" style="fill:#FFFFFF"/>
	<rect x="393.68" y="103.74" width="3462.46" height="2382.57" style="fill:none;stroke:#FFFFFF;stroke-width:5.76"/>
	<line x1="390.80" y1="4027.57" x2="3859.02" y2="4027.57" style="stroke:#EAF2F3;stroke-width:8.64"/>
	<line x1="390.80" y1="3061.79" x2="3859.02" y2="3061.79" style="stroke:#EAF2F3;stroke-width:8.64"/>
	<line x1="390.80" y1="2095.90" x2="3859.02" y2="2095.90" style="stroke:#EAF2F3;stroke-width:8.64"/>
	<line x1="390.80" y1="1130.00" x2="3859.02" y2="1130.00" style="stroke:#EAF2F3;stroke-width:8.64"/>
	<line x1="390.80" y1="164.22" x2="3859.02" y2="164.22" style="stroke:#EAF2F3;stroke-width:8.64"/>
	<line x1="390.80" y1="839.30" x2="3859.02" y2="839.30" style="stroke:#EAF2F3;stroke-width:8.64"/>
	<line x1="390.80" y1="186.13" x2="448.35" y2="186.13" style="stroke:#C10534;stroke-width:8.64"/>
	<line x1="477.18" y1="186.13" x2="534.72" y2="186.13" style="stroke:#C10534;stroke-width:8.64"/>
	<line x1="563.56" y1="186.13" x2="621.23" y2="186.13" style="stroke:#C10534;stroke-width:8.64"/>
	<line x1="649.93" y1="186.13" x2="707.60" y2="186.13" style="stroke:#C10534;stroke-width:8.64"/>
	<line x1="736.44" y1="186.13" x2="793.98" y2="186.13" style="stroke:#C10534;stroke-width:8.64"/>
	<line x1="822.81" y1="186.13" x2="880.36" y2="186.13" style="stroke:#C10534;stroke-width:8.64"/>
	<line x1="909.19" y1="186.13" x2="966.74" y2="186.13" style="stroke:#C10534;stroke-width:8.64"/>
	<line x1="995.57" y1="186.13" x2="1053.11" y2="186.13" style="stroke:#C10534;stroke-width:8.64"/>
	<line x1="1081.95" y1="186.13" x2="1139.49" y2="186.13" style="stroke:#C10534;stroke-width:8.64"/>
	<line x1="1168.32" y1="186.13" x2="1225.87" y2="186.13" style="stroke:#C10534;stroke-width:8.64"/>
	<line x1="1254.70" y1="186.13" x2="1312.24" y2="186.13" style="stroke:#C10534;stroke-width:8.64"/>
	<line x1="1341.08" y1="186.13" x2="1398.62" y2="186.13" style="stroke:#C10534;stroke-width:8.64"/>
	<line x1="1427.46" y1="186.13" x2="1485.00" y2="186.13" style="stroke:#C10534;stroke-width:8.64"/>
	<line x1="1513.83" y1="186.13" x2="1571.50" y2="186.13" style="stroke:#C10534;stroke-width:8.64"/>
	<line x1="1600.21" y1="186.13" x2="1657.88" y2="186.13" style="stroke:#C10534;stroke-width:8.64"/>
	<line x1="1686.71" y1="186.13" x2="1744.26" y2="186.13" style="stroke:#C10534;stroke-width:8.64"/>
	<line x1="1773.09" y1="186.13" x2="1830.63" y2="186.13" style="stroke:#C10534;stroke-width:8.64"/>
	<line x1="1859.47" y1="186.13" x2="1917.01" y2="186.13" style="stroke:#C10534;stroke-width:8.64"/>
	<line x1="1945.85" y1="186.13" x2="2003.39" y2="186.13" style="stroke:#C10534;stroke-width:8.64"/>
	<line x1="2032.22" y1="186.13" x2="2089.77" y2="186.13" style="stroke:#C10534;stroke-width:8.64"/>
	<line x1="2118.60" y1="186.13" x2="2176.14" y2="186.13" style="stroke:#C10534;stroke-width:8.64"/>
	<line x1="2204.98" y1="186.13" x2="2262.52" y2="186.13" style="stroke:#C10534;stroke-width:8.64"/>
	<line x1="2291.36" y1="186.13" x2="2348.90" y2="186.13" style="stroke:#C10534;stroke-width:8.64"/>
	<line x1="2377.73" y1="186.13" x2="2435.40" y2="186.13" style="stroke:#C10534;stroke-width:8.64"/>
	<line x1="2464.11" y1="186.13" x2="2521.78" y2="186.13" style="stroke:#C10534;stroke-width:8.64"/>
	<line x1="2550.49" y1="186.13" x2="2608.16" y2="186.13" style="stroke:#C10534;stroke-width:8.64"/>
	<line x1="2636.99" y1="186.13" x2="2694.53" y2="186.13" style="stroke:#C10534;stroke-width:8.64"/>
	<line x1="2723.37" y1="186.13" x2="2780.91" y2="186.13" style="stroke:#C10534;stroke-width:8.64"/>
	<line x1="2809.74" y1="186.13" x2="2867.29" y2="186.13" style="stroke:#C10534;stroke-width:8.64"/>
	<line x1="2896.12" y1="186.13" x2="2953.66" y2="186.13" style="stroke:#C10534;stroke-width:8.64"/>
	<line x1="2982.50" y1="186.13" x2="3040.04" y2="186.13" style="stroke:#C10534;stroke-width:8.64"/>
	<line x1="3068.88" y1="186.13" x2="3126.42" y2="186.13" style="stroke:#C10534;stroke-width:8.64"/>
	<line x1="3155.25" y1="186.13" x2="3212.80" y2="186.13" style="stroke:#C10534;stroke-width:8.64"/>
	<line x1="3241.63" y1="186.13" x2="3299.18" y2="186.13" style="stroke:#C10534;stroke-width:8.64"/>
	<line x1="3328.01" y1="186.13" x2="3385.68" y2="186.13" style="stroke:#C10534;stroke-width:8.64"/>
	<line x1="3414.39" y1="186.13" x2="3472.05" y2="186.13" style="stroke:#C10534;stroke-width:8.64"/>
	<line x1="3500.76" y1="186.13" x2="3558.43" y2="186.13" style="stroke:#C10534;stroke-width:8.64"/>
	<line x1="3587.26" y1="186.13" x2="3644.81" y2="186.13" style="stroke:#C10534;stroke-width:8.64"/>
	<line x1="3673.64" y1="186.13" x2="3731.19" y2="186.13" style="stroke:#C10534;stroke-width:8.64"/>
	<line x1="3760.02" y1="186.13" x2="3817.56" y2="186.13" style="stroke:#C10534;stroke-width:8.64"/>
	<line x1="3846.40" y1="186.13" x2="3859.02" y2="186.13" style="stroke:#C10534;stroke-width:8.64"/>
	<path d=" M454.04 2048.50 L491.66 2055.80 L529.15 2062.73 L566.77 2069.41 L604.27 2075.60 L641.77 2081.42 L679.39 2086.86 L716.88 2081.29 L754.50 2096.27 L792.00 2100.23 L829.50 2107.90 L867.12 2398.10 L904.61 2109.01 L942.23 2115.20 L979.73 2112.48 L1017.23 2113.59 L1054.85 2114.21 L1092.34 2114.58 L1129.96 2114.58 L1167.46 2114.33 L1204.95 2113.84 L1242.57 2113.10 L1280.07 2112.23 L1317.69 2111.12 L1355.19 2060.13 L1392.68 2048.37 L1430.30 2096.64 L1467.80 2075.48 L1505.42 2104.31 L1542.91 2102.83 L1580.41 2101.46 L1618.03 2100.23 L1655.53 2088.72 L1693.15 2098.12 L1730.64 2086.86 L1768.14 2096.64 L1805.76 2096.27 L1843.26 2095.90 L1880.88 2095.77 L1918.37 2095.90 L1955.87 2096.02 L1993.49 2096.27 L2030.98 2096.76 L2068.61 2097.38 L2106.10 2087.60 L2143.60 2098.87 L2181.22 2099.73 L2218.71 2100.72 L2256.33 2101.84 L2293.83 2102.95 L2331.33 2104.31 L2368.95 2105.55 L2406.44 2107.03 L2444.06 2108.39 L2481.56 2169.16 L2519.05 2111.49 L2556.68 2113.10 L2594.17 2118.91 L2631.79 2120.65 L2669.29 2118.05 L2706.78 2425.95 L2744.40 2121.51 L2781.90 2425.08 L2819.52 2124.85 L2857.02 2126.59 L2894.51 2128.32 L2932.13 2129.93 L2969.63 2131.66 L3007.25 2133.39 L3044.74 2135.13 L3082.24 2140.94 L3119.86 2138.47 L3157.36 2144.41 L3194.98 2141.81 L3232.47 2133.15 L3269.97 2145.27 L3307.59 2147.01 L3345.09 2148.61 L3382.71 2150.35 L3420.20 2152.08 L3457.70 2153.81 L3495.32 2155.42 L3683.05 2168.17 L3795.66 2169.03" stroke-linecap="round" stroke-linejoin="round" style="fill:none;stroke:#1A476F;stroke-width:8.64"/>
	<line x1="390.80" y1="2489.19" x2="390.80" y2="100.86" style="stroke:#000000;stroke-width:5.76"/>
	<line x1="390.80" y1="4027.57" x2="350.83" y2="4027.57" style="stroke:#000000;stroke-width:5.76"/>
	<text x="300.72" y="4027.57" style="font-family:'Helvetica';font-size:99.99px;fill:#000000" transform="rotate(-90 300.72,4027.57)" text-anchor="middle">.01</text>
	<line x1="390.80" y1="3061.79" x2="350.83" y2="3061.79" style="stroke:#000000;stroke-width:5.76"/>
	<text x="300.72" y="3061.79" style="font-family:'Helvetica';font-size:99.99px;fill:#000000" transform="rotate(-90 300.72,3061.79)" text-anchor="middle">.1</text>
	<line x1="390.80" y1="2095.90" x2="350.83" y2="2095.90" style="stroke:#000000;stroke-width:5.76"/>
	<text x="300.72" y="2095.90" style="font-family:'Helvetica';font-size:99.99px;fill:#000000" transform="rotate(-90 300.72,2095.90)" text-anchor="middle">1</text>
	<line x1="390.80" y1="1130.00" x2="350.83" y2="1130.00" style="stroke:#000000;stroke-width:5.76"/>
	<text x="300.72" y="1130.00" style="font-family:'Helvetica';font-size:99.99px;fill:#000000" transform="rotate(-90 300.72,1130.00)" text-anchor="middle">10</text>
	<line x1="390.80" y1="164.22" x2="350.83" y2="164.22" style="stroke:#000000;stroke-width:5.76"/>
	<text x="300.72" y="164.22" style="font-family:'Helvetica';font-size:99.99px;fill:#000000" transform="rotate(-90 300.72,164.22)" text-anchor="middle">100</text>
	<line x1="390.80" y1="839.30" x2="350.83" y2="839.30" style="stroke:#000000;stroke-width:5.76"/>
	<text x="300.72" y="839.30" style="font-family:'Helvetica';font-size:99.99px;fill:#000000" transform="rotate(-90 300.72,839.30)" text-anchor="middle">20</text>
	<text x="190.71" y="1294.96" style="font-family:'Helvetica';font-size:99.99px;fill:#000000" transform="rotate(-90 190.71,1294.96)" text-anchor="middle">Hazard ratio compared to age 55 years (log scale)</text>
	<line x1="390.80" y1="2489.19" x2="3859.02" y2="2489.19" style="stroke:#000000;stroke-width:5.76"/>
	<line x1="529.28" y1="2489.19" x2="529.28" y2="2529.16" style="stroke:#000000;stroke-width:5.76"/>
	<text x="529.28" y="2619.14" style="font-family:'Helvetica';font-size:99.99px;fill:#000000" text-anchor="middle">20</text>
	<line x1="1280.19" y1="2489.19" x2="1280.19" y2="2529.16" style="stroke:#000000;stroke-width:5.76"/>
	<text x="1280.19" y="2619.14" style="font-family:'Helvetica';font-size:99.99px;fill:#000000" text-anchor="middle">40</text>
	<line x1="2031.11" y1="2489.19" x2="2031.11" y2="2529.16" style="stroke:#000000;stroke-width:5.76"/>
	<text x="2031.11" y="2619.14" style="font-family:'Helvetica';font-size:99.99px;fill:#000000" text-anchor="middle">60</text>
	<line x1="2782.02" y1="2489.19" x2="2782.02" y2="2529.16" style="stroke:#000000;stroke-width:5.76"/>
	<text x="2782.02" y="2619.14" style="font-family:'Helvetica';font-size:99.99px;fill:#000000" text-anchor="middle">80</text>
	<line x1="3532.94" y1="2489.19" x2="3532.94" y2="2529.16" style="stroke:#000000;stroke-width:5.76"/>
	<text x="3532.94" y="2619.14" style="font-family:'Helvetica';font-size:99.99px;fill:#000000" text-anchor="middle">100</text>
	<text x="2124.91" y="2729.16" style="font-family:'Helvetica';font-size:99.99px;fill:#000000" text-anchor="middle">Age in years</text>
</svg>
