<?xml version="1.0" encoding="UTF-8" standalone="no"?>
<!-- This is a Stata 15.1 generated SVG file (http://www.stata.com) -->

<svg version="1.1" width="5.50in" height="4.00in" viewBox="0 0 3960 2880" xmlns="http://www.w3.org/2000/svg" xmlns:xlink="http://www.w3.org/1999/xlink">
	<desc>Stata Graph - Graph</desc>
	<rect x="0" y="0" width="3960" height="2880" style="fill:#EAF2F3;stroke:none"/>
	<rect x="0.00" y="0.00" width="3959.88" height="2880.00" style="fill:#EAF2F3"/>
	<rect x="2.88" y="2.88" width="3954.12" height="2874.24" style="fill:none;stroke:#EAF2F3;stroke-width:5.76"/>
	<rect x="390.80" y="100.86" width="3468.22" height="2388.33" style="fill:#FFFFFF"/>
	<rect x="393.68" y="103.74" width="3462.46" height="2382.57" style="fill:none;stroke:#FFFFFF;stroke-width:5.76"/>
	<line x1="390.80" y1="4517.26" x2="3859.02" y2="4517.26" style="stroke:#EAF2F3;stroke-width:8.64"/>
	<line x1="390.80" y1="3428.97" x2="3859.02" y2="3428.97" style="stroke:#EAF2F3;stroke-width:8.64"/>
	<line x1="390.80" y1="2340.68" x2="3859.02" y2="2340.68" style="stroke:#EAF2F3;stroke-width:8.64"/>
	<line x1="390.80" y1="1252.39" x2="3859.02" y2="1252.39" style="stroke:#EAF2F3;stroke-width:8.64"/>
	<line x1="390.80" y1="164.22" x2="3859.02" y2="164.22" style="stroke:#EAF2F3;stroke-width:8.64"/>
	<line x1="390.80" y1="924.81" x2="3859.02" y2="924.81" style="stroke:#EAF2F3;stroke-width:8.64"/>
	<line x1="390.80" y1="-280.43" x2="448.35" y2="-280.43" style="stroke:#C10534;stroke-width:8.64"/>
	<line x1="477.18" y1="-280.43" x2="534.72" y2="-280.43" style="stroke:#C10534;stroke-width:8.64"/>
	<line x1="563.56" y1="-280.43" x2="621.23" y2="-280.43" style="stroke:#C10534;stroke-width:8.64"/>
	<line x1="649.93" y1="-280.43" x2="707.60" y2="-280.43" style="stroke:#C10534;stroke-width:8.64"/>
	<line x1="736.44" y1="-280.43" x2="793.98" y2="-280.43" style="stroke:#C10534;stroke-width:8.64"/>
	<line x1="822.81" y1="-280.43" x2="880.36" y2="-280.43" style="stroke:#C10534;stroke-width:8.64"/>
	<line x1="909.19" y1="-280.43" x2="966.74" y2="-280.43" style="stroke:#C10534;stroke-width:8.64"/>
	<line x1="995.57" y1="-280.43" x2="1053.11" y2="-280.43" style="stroke:#C10534;stroke-width:8.64"/>
	<line x1="1081.95" y1="-280.43" x2="1139.49" y2="-280.43" style="stroke:#C10534;stroke-width:8.64"/>
	<line x1="1168.32" y1="-280.43" x2="1225.87" y2="-280.43" style="stroke:#C10534;stroke-width:8.64"/>
	<line x1="1254.70" y1="-280.43" x2="1312.24" y2="-280.43" style="stroke:#C10534;stroke-width:8.64"/>
	<line x1="1341.08" y1="-280.43" x2="1398.62" y2="-280.43" style="stroke:#C10534;stroke-width:8.64"/>
	<line x1="1427.46" y1="-280.43" x2="1485.00" y2="-280.43" style="stroke:#C10534;stroke-width:8.64"/>
	<line x1="1513.83" y1="-280.43" x2="1571.50" y2="-280.43" style="stroke:#C10534;stroke-width:8.64"/>
	<line x1="1600.21" y1="-280.43" x2="1657.88" y2="-280.43" style="stroke:#C10534;stroke-width:8.64"/>
	<line x1="1686.71" y1="-280.43" x2="1744.26" y2="-280.43" style="stroke:#C10534;stroke-width:8.64"/>
	<line x1="1773.09" y1="-280.43" x2="1830.63" y2="-280.43" style="stroke:#C10534;stroke-width:8.64"/>
	<line x1="1859.47" y1="-280.43" x2="1917.01" y2="-280.43" style="stroke:#C10534;stroke-width:8.64"/>
	<line x1="1945.85" y1="-280.43" x2="2003.39" y2="-280.43" style="stroke:#C10534;stroke-width:8.64"/>
	<line x1="2032.22" y1="-280.43" x2="2089.77" y2="-280.43" style="stroke:#C10534;stroke-width:8.64"/>
	<line x1="2118.60" y1="-280.43" x2="2176.14" y2="-280.43" style="stroke:#C10534;stroke-width:8.64"/>
	<line x1="2204.98" y1="-280.43" x2="2262.52" y2="-280.43" style="stroke:#C10534;stroke-width:8.64"/>
	<line x1="2291.36" y1="-280.43" x2="2348.90" y2="-280.43" style="stroke:#C10534;stroke-width:8.64"/>
	<line x1="2377.73" y1="-280.43" x2="2435.40" y2="-280.43" style="stroke:#C10534;stroke-width:8.64"/>
	<line x1="2464.11" y1="-280.43" x2="2521.78" y2="-280.43" style="stroke:#C10534;stroke-width:8.64"/>
	<line x1="2550.49" y1="-280.43" x2="2608.16" y2="-280.43" style="stroke:#C10534;stroke-width:8.64"/>
	<line x1="2636.99" y1="-280.43" x2="2694.53" y2="-280.43" style="stroke:#C10534;stroke-width:8.64"/>
	<line x1="2723.37" y1="-280.43" x2="2780.91" y2="-280.43" style="stroke:#C10534;stroke-width:8.64"/>
	<line x1="2809.74" y1="-280.43" x2="2867.29" y2="-280.43" style="stroke:#C10534;stroke-width:8.64"/>
	<line x1="2896.12" y1="-280.43" x2="2953.66" y2="-280.43" style="stroke:#C10534;stroke-width:8.64"/>
	<line x1="2982.50" y1="-280.43" x2="3040.04" y2="-280.43" style="stroke:#C10534;stroke-width:8.64"/>
	<line x1="3068.88" y1="-280.43" x2="3126.42" y2="-280.43" style="stroke:#C10534;stroke-width:8.64"/>
	<line x1="3155.25" y1="-280.43" x2="3212.80" y2="-280.43" style="stroke:#C10534;stroke-width:8.64"/>
	<line x1="3241.63" y1="-280.43" x2="3299.18" y2="-280.43" style="stroke:#C10534;stroke-width:8.64"/>
	<line x1="3328.01" y1="-280.43" x2="3385.68" y2="-280.43" style="stroke:#C10534;stroke-width:8.64"/>
	<line x1="3414.39" y1="-280.43" x2="3472.05" y2="-280.43" style="stroke:#C10534;stroke-width:8.64"/>
	<line x1="3500.76" y1="-280.43" x2="3558.43" y2="-280.43" style="stroke:#C10534;stroke-width:8.64"/>
	<line x1="3587.26" y1="-280.43" x2="3644.81" y2="-280.43" style="stroke:#C10534;stroke-width:8.64"/>
	<line x1="3673.64" y1="-280.43" x2="3731.19" y2="-280.43" style="stroke:#C10534;stroke-width:8.64"/>
	<line x1="3760.02" y1="-280.43" x2="3817.56" y2="-280.43" style="stroke:#C10534;stroke-width:8.64"/>
	<line x1="3846.40" y1="-280.43" x2="3859.02" y2="-280.43" style="stroke:#C10534;stroke-width:8.64"/>
	<path d=" M454.04 2282.27 L491.66 2284.99 L529.15 2287.71 L566.77 2290.31 L604.27 2292.91 L641.77 2295.39 L679.39 2132.40 L716.88 2300.21 L754.50 2302.56 L792.00 2304.79 L829.50 2307.02 L867.12 2309.12 L904.61 2311.23 L942.23 2313.21 L979.73 2315.19 L1017.23 2317.04 L1054.85 2251.45 L1092.34 2320.51 L1129.96 2322.24 L1167.46 2299.84 L1204.95 2325.34 L1242.57 2161.36 L1280.07 2328.18 L1317.69 2305.53 L1355.19 2330.66 L1392.68 2331.89 L1430.30 2333.01 L1467.80 2334.00 L1505.42 2334.99 L1542.91 2335.85 L1580.41 2266.06 L1618.03 2337.46 L1655.53 2338.21 L1693.15 2338.82 L1730.64 2339.44 L1768.14 2339.94 L1805.76 2340.31 L1843.26 2340.80 L1880.88 2273.73 L1918.37 2341.30 L1955.87 2341.55 L1993.49 2341.67 L2030.98 2274.47 L2068.61 2341.92 L2106.10 2341.92 L2143.60 2176.46 L2181.22 2341.79 L2218.71 2341.79 L2256.33 2341.67 L2293.83 2341.42 L2331.33 2341.30 L2368.95 2341.05 L2406.44 2313.58 L2444.06 2273.23 L2481.56 2340.31 L2519.05 2340.06 L2556.68 2339.69 L2594.17 2339.44 L2631.79 2339.07 L2669.29 2338.70 L2706.78 2425.95 L2744.40 2338.08 L2781.90 2337.71 L2819.52 2337.34 L2857.02 2313.08 L2894.51 2336.60 L2932.13 2336.35 L2969.63 2335.98 L3007.25 2335.61 L3044.74 2335.24 L3082.24 2267.54 L3119.86 2334.62 L3157.36 2310.36 L3194.98 2333.87 L3232.47 2266.18 L3269.97 2333.26 L3307.59 2332.88 L3345.09 2332.51 L3382.71 2332.14 L3420.20 2331.89 L3457.70 2331.52 L3495.32 2331.15 L3683.05 2305.53 L3795.66 2328.43" stroke-linecap="round" stroke-linejoin="round" style="fill:none;stroke:#1A476F;stroke-width:8.64"/>
	<line x1="390.80" y1="2489.19" x2="390.80" y2="100.86" style="stroke:#000000;stroke-width:5.76"/>
	<line x1="390.80" y1="4517.26" x2="350.83" y2="4517.26" style="stroke:#000000;stroke-width:5.76"/>
	<text x="300.72" y="4517.26" style="font-family:'Helvetica';font-size:99.99px;fill:#000000" transform="rotate(-90 300.72,4517.26)" text-anchor="middle">.01</text>
	<line x1="390.80" y1="3428.97" x2="350.83" y2="3428.97" style="stroke:#000000;stroke-width:5.76"/>
	<text x="300.72" y="3428.97" style="font-family:'Helvetica';font-size:99.99px;fill:#000000" transform="rotate(-90 300.72,3428.97)" text-anchor="middle">.1</text>
	<line x1="390.80" y1="2340.68" x2="350.83" y2="2340.68" style="stroke:#000000;stroke-width:5.76"/>
	<text x="300.72" y="2340.68" style="font-family:'Helvetica';font-size:99.99px;fill:#000000" transform="rotate(-90 300.72,2340.68)" text-anchor="middle">1</text>
	<line x1="390.80" y1="1252.39" x2="350.83" y2="1252.39" style="stroke:#000000;stroke-width:5.76"/>
	<text x="300.72" y="1252.39" style="font-family:'Helvetica';font-size:99.99px;fill:#000000" transform="rotate(-90 300.72,1252.39)" text-anchor="middle">10</text>
	<line x1="390.80" y1="164.22" x2="350.83" y2="164.22" style="stroke:#000000;stroke-width:5.76"/>
	<text x="300.72" y="164.22" style="font-family:'Helvetica';font-size:99.99px;fill:#000000" transform="rotate(-90 300.72,164.22)" text-anchor="middle">100</text>
	<line x1="390.80" y1="924.81" x2="350.83" y2="924.81" style="stroke:#000000;stroke-width:5.76"/>
	<text x="300.72" y="924.81" style="font-family:'Helvetica';font-size:99.99px;fill:#000000" transform="rotate(-90 300.72,924.81)" text-anchor="middle">20</text>
	<text x="190.71" y="1294.96" style="font-family:'Helvetica';font-size:99.99px;fill:#000000" transform="rotate(-90 190.71,1294.96)" text-anchor="middle">Hazard ratio compared to age 55 years (log scale)</text>
	<line x1="390.80" y1="2489.19" x2="3859.02" y2="2489.19" style="stroke:#000000;stroke-width:5.76"/>
	<line x1="529.28" y1="2489.19" x2="529.28" y2="2529.16" style="stroke:#000000;stroke-width:5.76"/>
	<text x="529.28" y="2619.14" style="font-family:'Helvetica';font-size:99.99px;fill:#000000" text-anchor="middle">20</text>
	<line x1="1280.19" y1="2489.19" x2="1280.19" y2="2529.16" style="stroke:#000000;stroke-width:5.76"/>
	<text x="1280.19" y="2619.14" style="font-family:'Helvetica';font-size:99.99px;fill:#000000" text-anchor="middle">40</text>
	<line x1="2031.11" y1="2489.19" x2="2031.11" y2="2529.16" style="stroke:#000000;stroke-width:5.76"/>
	<text x="2031.11" y="2619.14" style="font-family:'Helvetica';font-size:99.99px;fill:#000000" text-anchor="middle">60</text>
	<line x1="2782.02" y1="2489.19" x2="2782.02" y2="2529.16" style="stroke:#000000;stroke-width:5.76"/>
	<text x="2782.02" y="2619.14" style="font-family:'Helvetica';font-size:99.99px;fill:#000000" text-anchor="middle">80</text>
	<line x1="3532.94" y1="2489.19" x2="3532.94" y2="2529.16" style="stroke:#000000;stroke-width:5.76"/>
	<text x="3532.94" y="2619.14" style="font-family:'Helvetica';font-size:99.99px;fill:#000000" text-anchor="middle">100</text>
	<text x="2124.91" y="2729.16" style="font-family:'Helvetica';font-size:99.99px;fill:#000000" text-anchor="middle">Age in years</text>
</svg>
