<?xml version="1.0" encoding="UTF-8" standalone="no"?>
<!-- This is a Stata 15.1 generated SVG file (http://www.stata.com) -->

<svg version="1.1" width="5.50in" height="4.00in" viewBox="0 0 3960 2880" xmlns="http://www.w3.org/2000/svg" xmlns:xlink="http://www.w3.org/1999/xlink">
	<desc>Stata Graph - Graph</desc>
	<rect x="0" y="0" width="3960" height="2880" style="fill:#EAF2F3;stroke:none"/>
	<rect x="0.00" y="0.00" width="3959.88" height="2880.00" style="fill:#EAF2F3"/>
	<rect x="2.88" y="2.88" width="3954.12" height="2874.24" style="fill:none;stroke:#EAF2F3;stroke-width:5.76"/>
	<rect x="297.87" y="207.91" width="1799.32" height="2098.62" style="fill:#EAF2F3"/>
	<rect x="300.03" y="210.07" width="1795.01" height="2094.30" style="fill:none;stroke:#EAF2F3;stroke-width:4.32"/>
	<rect x="659.71" y="414.45" width="1361.87" height="1599.02" style="fill:#FFFFFF"/>
	<rect x="661.87" y="416.61" width="1357.55" height="1594.70" style="fill:none;stroke:#FFFFFF;stroke-width:4.32"/>
	<line x1="659.71" y1="1965.95" x2="2021.58" y2="1965.95" style="stroke:#EAF2F3;stroke-width:6.48"/>
	<line x1="659.71" y1="1589.99" x2="2021.58" y2="1589.99" style="stroke:#EAF2F3;stroke-width:6.48"/>
	<line x1="659.71" y1="1214.03" x2="2021.58" y2="1214.03" style="stroke:#EAF2F3;stroke-width:6.48"/>
	<line x1="659.71" y1="837.94" x2="2021.58" y2="837.94" style="stroke:#EAF2F3;stroke-width:6.48"/>
	<line x1="659.71" y1="461.97" x2="2021.58" y2="461.97" style="stroke:#EAF2F3;stroke-width:6.48"/>
	<line x1="1815.66" y1="1571.06" x2="1818.51" y2="1571.06" style="stroke:#B0B0B0;stroke-width:6.48"/>
	<line x1="1838.68" y1="1571.06" x2="1841.52" y2="1571.06" style="stroke:#B0B0B0;stroke-width:6.48"/>
	<line x1="1861.69" y1="1571.06" x2="1864.66" y2="1571.06" style="stroke:#B0B0B0;stroke-width:6.48"/>
	<line x1="1884.84" y1="1571.06" x2="1887.68" y2="1571.06" style="stroke:#B0B0B0;stroke-width:6.48"/>
	<line x1="1907.85" y1="1571.06" x2="1910.70" y2="1571.06" style="stroke:#B0B0B0;stroke-width:6.48"/>
	<line x1="1930.87" y1="1571.06" x2="1933.72" y2="1571.06" style="stroke:#B0B0B0;stroke-width:6.48"/>
	<line x1="1953.89" y1="1571.06" x2="1956.73" y2="1571.06" style="stroke:#B0B0B0;stroke-width:6.48"/>
	<path d="" stroke-linecap="round" stroke-linejoin="round" style="fill:none;stroke:#B0B0B0;stroke-width:6.48"/>
	<line x1="1182.31" y1="1525.76" x2="1205.33" y2="1525.76" style="stroke:#B0B0B0;stroke-width:6.48"/>
	<line x1="1225.50" y1="1525.76" x2="1248.51" y2="1525.76" style="stroke:#B0B0B0;stroke-width:6.48"/>
	<line x1="1268.68" y1="1525.76" x2="1291.70" y2="1525.76" style="stroke:#B0B0B0;stroke-width:6.48"/>
	<line x1="1311.87" y1="1525.76" x2="1334.89" y2="1525.76" style="stroke:#B0B0B0;stroke-width:6.48"/>
	<line x1="1355.06" y1="1525.76" x2="1378.08" y2="1525.76" style="stroke:#B0B0B0;stroke-width:6.48"/>
	<line x1="1398.25" y1="1525.76" x2="1421.39" y2="1525.76" style="stroke:#B0B0B0;stroke-width:6.48"/>
	<line x1="1441.44" y1="1525.76" x2="1464.58" y2="1525.76" style="stroke:#B0B0B0;stroke-width:6.48"/>
	<line x1="1484.75" y1="1525.76" x2="1507.77" y2="1525.76" style="stroke:#B0B0B0;stroke-width:6.48"/>
	<line x1="1527.94" y1="1525.76" x2="1550.96" y2="1525.76" style="stroke:#B0B0B0;stroke-width:6.48"/>
	<line x1="1571.13" y1="1525.76" x2="1594.15" y2="1525.76" style="stroke:#B0B0B0;stroke-width:6.48"/>
	<line x1="1614.32" y1="1525.76" x2="1637.34" y2="1525.76" style="stroke:#B0B0B0;stroke-width:6.48"/>
	<line x1="1657.51" y1="1525.76" x2="1680.53" y2="1525.76" style="stroke:#B0B0B0;stroke-width:6.48"/>
	<line x1="1700.70" y1="1525.76" x2="1723.71" y2="1525.76" style="stroke:#B0B0B0;stroke-width:6.48"/>
	<line x1="1743.88" y1="1525.76" x2="1766.90" y2="1525.76" style="stroke:#B0B0B0;stroke-width:6.48"/>
	<line x1="1787.07" y1="1525.76" x2="1810.09" y2="1525.76" style="stroke:#B0B0B0;stroke-width:6.48"/>
	<line x1="1830.26" y1="1525.76" x2="1853.28" y2="1525.76" style="stroke:#B0B0B0;stroke-width:6.48"/>
	<line x1="1873.45" y1="1525.76" x2="1896.47" y2="1525.76" style="stroke:#B0B0B0;stroke-width:6.48"/>
	<line x1="1916.64" y1="1525.76" x2="1939.66" y2="1525.76" style="stroke:#B0B0B0;stroke-width:6.48"/>
	<line x1="1959.83" y1="1525.76" x2="1974.06" y2="1525.76" style="stroke:#B0B0B0;stroke-width:6.48"/>
	<line x1="1974.06" y1="1525.76" x2="1974.06" y2="1525.76" style="stroke:#B0B0B0;stroke-width:6.48"/>
	<path d="" stroke-linecap="round" stroke-linejoin="round" style="fill:none;stroke:#B0B0B0;stroke-width:6.48"/>
	<line x1="1685.23" y1="1496.06" x2="1708.24" y2="1496.06" style="stroke:#909090;stroke-width:6.48"/>
	<line x1="1731.26" y1="1496.06" x2="1734.23" y2="1496.06" style="stroke:#909090;stroke-width:6.48"/>
	<line x1="1757.25" y1="1496.06" x2="1780.27" y2="1496.06" style="stroke:#909090;stroke-width:6.48"/>
	<line x1="1803.29" y1="1496.06" x2="1806.26" y2="1496.06" style="stroke:#909090;stroke-width:6.48"/>
	<line x1="1829.27" y1="1496.06" x2="1852.29" y2="1496.06" style="stroke:#909090;stroke-width:6.48"/>
	<line x1="1875.31" y1="1496.06" x2="1878.28" y2="1496.06" style="stroke:#909090;stroke-width:6.48"/>
	<line x1="1901.30" y1="1496.06" x2="1924.31" y2="1496.06" style="stroke:#909090;stroke-width:6.48"/>
	<line x1="1947.33" y1="1496.06" x2="1950.30" y2="1496.06" style="stroke:#909090;stroke-width:6.48"/>
	<line x1="1973.32" y1="1496.06" x2="1974.06" y2="1496.06" style="stroke:#909090;stroke-width:6.48"/>
	<line x1="1974.06" y1="1496.06" x2="1974.06" y2="1496.06" style="stroke:#909090;stroke-width:6.48"/>
	<path d="" stroke-linecap="round" stroke-linejoin="round" style="fill:none;stroke:#909090;stroke-width:6.48"/>
	<line x1="725.79" y1="1525.76" x2="841.00" y2="1525.76" style="stroke:#606060;stroke-width:6.48"/>
	<line x1="869.84" y1="1525.76" x2="985.05" y2="1525.76" style="stroke:#606060;stroke-width:6.48"/>
	<line x1="1013.76" y1="1525.76" x2="1128.97" y2="1525.76" style="stroke:#606060;stroke-width:6.48"/>
	<line x1="1157.81" y1="1525.76" x2="1273.02" y2="1525.76" style="stroke:#606060;stroke-width:6.48"/>
	<line x1="1301.85" y1="1525.76" x2="1417.06" y2="1525.76" style="stroke:#606060;stroke-width:6.48"/>
	<line x1="1445.89" y1="1525.76" x2="1561.11" y2="1525.76" style="stroke:#606060;stroke-width:6.48"/>
	<line x1="1589.94" y1="1525.76" x2="1705.15" y2="1525.76" style="stroke:#606060;stroke-width:6.48"/>
	<line x1="1733.98" y1="1525.76" x2="1849.20" y2="1525.76" style="stroke:#606060;stroke-width:6.48"/>
	<line x1="1877.91" y1="1525.76" x2="1974.06" y2="1525.76" style="stroke:#606060;stroke-width:6.48"/>
	<line x1="1974.06" y1="1525.76" x2="1974.06" y2="1525.76" style="stroke:#606060;stroke-width:6.48"/>
	<path d="" stroke-linecap="round" stroke-linejoin="round" style="fill:none;stroke:#606060;stroke-width:6.48"/>
	<line x1="837.66" y1="1416.36" x2="952.88" y2="1416.36" style="stroke:#303030;stroke-width:6.48"/>
	<line x1="981.71" y1="1416.36" x2="984.55" y2="1416.36" style="stroke:#303030;stroke-width:6.48"/>
	<line x1="1013.39" y1="1416.36" x2="1128.60" y2="1416.36" style="stroke:#303030;stroke-width:6.48"/>
	<line x1="1157.43" y1="1416.36" x2="1160.28" y2="1416.36" style="stroke:#303030;stroke-width:6.48"/>
	<line x1="1189.11" y1="1416.36" x2="1304.33" y2="1416.36" style="stroke:#303030;stroke-width:6.48"/>
	<line x1="1333.16" y1="1416.36" x2="1336.01" y2="1416.36" style="stroke:#303030;stroke-width:6.48"/>
	<line x1="1364.84" y1="1416.36" x2="1480.05" y2="1416.36" style="stroke:#303030;stroke-width:6.48"/>
	<line x1="1508.76" y1="1416.36" x2="1511.73" y2="1416.36" style="stroke:#303030;stroke-width:6.48"/>
	<line x1="1540.44" y1="1416.36" x2="1655.65" y2="1416.36" style="stroke:#303030;stroke-width:6.48"/>
	<line x1="1684.48" y1="1416.36" x2="1687.33" y2="1416.36" style="stroke:#303030;stroke-width:6.48"/>
	<line x1="1716.16" y1="1416.36" x2="1831.38" y2="1416.36" style="stroke:#303030;stroke-width:6.48"/>
	<line x1="1860.21" y1="1416.36" x2="1863.06" y2="1416.36" style="stroke:#303030;stroke-width:6.48"/>
	<line x1="1891.89" y1="1416.36" x2="1974.06" y2="1416.36" style="stroke:#303030;stroke-width:6.48"/>
	<line x1="1974.06" y1="1416.36" x2="1974.06" y2="1416.36" style="stroke:#303030;stroke-width:6.48"/>
	<path d="" stroke-linecap="round" stroke-linejoin="round" style="fill:none;stroke:#303030;stroke-width:6.48"/>
	<path d=" M1433.77 1179.37 L1974.06 1179.37 L1974.06 1179.37" stroke-linecap="round" stroke-linejoin="round" style="fill:none;stroke:#000000;stroke-width:6.48"/>
	<path d=" M1974.06 1966.08" stroke-linecap="round" stroke-linejoin="round" style="fill:none;stroke:#938DD2;stroke-width:6.48"/>
	<line x1="659.71" y1="2013.48" x2="659.71" y2="414.45" style="stroke:#000000;stroke-width:4.32"/>
	<line x1="659.71" y1="1965.95" x2="629.76" y2="1965.95" style="stroke:#000000;stroke-width:4.32"/>
	<text x="614.79" y="1992.23" style="font-family:'Helvetica';font-size:74.99px;fill:#000000" text-anchor="end">0.000</text>
	<line x1="659.71" y1="1589.99" x2="629.76" y2="1589.99" style="stroke:#000000;stroke-width:4.32"/>
	<text x="614.79" y="1616.27" style="font-family:'Helvetica';font-size:74.99px;fill:#000000" text-anchor="end">0.002</text>
	<line x1="659.71" y1="1214.03" x2="629.76" y2="1214.03" style="stroke:#000000;stroke-width:4.32"/>
	<text x="614.79" y="1240.30" style="font-family:'Helvetica';font-size:74.99px;fill:#000000" text-anchor="end">0.004</text>
	<line x1="659.71" y1="837.94" x2="629.76" y2="837.94" style="stroke:#000000;stroke-width:4.32"/>
	<text x="614.79" y="864.22" style="font-family:'Helvetica';font-size:74.99px;fill:#000000" text-anchor="end">0.006</text>
	<line x1="659.71" y1="461.97" x2="629.76" y2="461.97" style="stroke:#000000;stroke-width:4.32"/>
	<text x="614.79" y="488.25" style="font-family:'Helvetica';font-size:74.99px;fill:#000000" text-anchor="end">0.008</text>
	<line x1="659.71" y1="2013.48" x2="2021.58" y2="2013.48" style="stroke:#000000;stroke-width:4.32"/>
	<line x1="707.23" y1="2013.48" x2="707.23" y2="2043.55" style="stroke:#000000;stroke-width:4.32"/>
	<text x="707.23" y="2110.96" style="font-family:'Helvetica';font-size:74.99px;fill:#000000" text-anchor="middle">1 Feb 20</text>
	<line x1="977.38" y1="2013.48" x2="977.38" y2="2043.55" style="stroke:#000000;stroke-width:4.32"/>
	<text x="977.38" y="2110.96" style="font-family:'Helvetica';font-size:74.99px;fill:#000000" text-anchor="middle">1 Mar 20</text>
	<line x1="1266.21" y1="2013.48" x2="1266.21" y2="2043.55" style="stroke:#000000;stroke-width:4.32"/>
	<text x="1266.21" y="2110.96" style="font-family:'Helvetica';font-size:74.99px;fill:#000000" text-anchor="middle">1 Apr 20</text>
	<line x1="1554.92" y1="2013.48" x2="1554.92" y2="2043.55" style="stroke:#000000;stroke-width:4.32"/>
	<text x="1554.92" y="2110.96" style="font-family:'Helvetica';font-size:74.99px;fill:#000000" text-anchor="middle">1 May 20</text>
	<text x="1340.71" y="2193.38" style="font-family:'Helvetica';font-size:74.99px;fill:#000000" text-anchor="middle"> </text>
	<text x="1340.71" y="369.91" style="font-family:'Helvetica';font-size:104.94px;fill:#1E2D53" text-anchor="middle">Female</text>
	<rect x="2097.19" y="207.91" width="1799.33" height="2098.62" style="fill:#EAF2F3"/>
	<rect x="2099.35" y="210.07" width="1795.01" height="2094.30" style="fill:none;stroke:#EAF2F3;stroke-width:4.32"/>
	<rect x="2459.04" y="414.45" width="1361.87" height="1599.02" style="fill:#FFFFFF"/>
	<rect x="2461.20" y="416.61" width="1357.55" height="1594.70" style="fill:none;stroke:#FFFFFF;stroke-width:4.32"/>
	<line x1="2459.04" y1="1965.95" x2="3820.91" y2="1965.95" style="stroke:#EAF2F3;stroke-width:6.48"/>
	<line x1="2459.04" y1="1589.99" x2="3820.91" y2="1589.99" style="stroke:#EAF2F3;stroke-width:6.48"/>
	<line x1="2459.04" y1="1214.03" x2="3820.91" y2="1214.03" style="stroke:#EAF2F3;stroke-width:6.48"/>
	<line x1="2459.04" y1="837.94" x2="3820.91" y2="837.94" style="stroke:#EAF2F3;stroke-width:6.48"/>
	<line x1="2459.04" y1="461.97" x2="3820.91" y2="461.97" style="stroke:#EAF2F3;stroke-width:6.48"/>
	<line x1="3484.55" y1="1551.01" x2="3487.40" y2="1551.01" style="stroke:#B0B0B0;stroke-width:6.48"/>
	<line x1="3507.57" y1="1551.01" x2="3510.42" y2="1551.01" style="stroke:#B0B0B0;stroke-width:6.48"/>
	<line x1="3530.59" y1="1551.01" x2="3533.43" y2="1551.01" style="stroke:#B0B0B0;stroke-width:6.48"/>
	<line x1="3553.61" y1="1551.01" x2="3556.45" y2="1551.01" style="stroke:#B0B0B0;stroke-width:6.48"/>
	<line x1="3576.62" y1="1551.01" x2="3579.59" y2="1551.01" style="stroke:#B0B0B0;stroke-width:6.48"/>
	<line x1="3599.64" y1="1551.01" x2="3602.61" y2="1551.01" style="stroke:#B0B0B0;stroke-width:6.48"/>
	<line x1="3622.78" y1="1551.01" x2="3625.63" y2="1551.01" style="stroke:#B0B0B0;stroke-width:6.48"/>
	<line x1="3645.80" y1="1551.01" x2="3648.64" y2="1551.01" style="stroke:#B0B0B0;stroke-width:6.48"/>
	<line x1="3668.82" y1="1551.01" x2="3671.66" y2="1551.01" style="stroke:#B0B0B0;stroke-width:6.48"/>
	<line x1="3691.83" y1="1551.01" x2="3694.68" y2="1551.01" style="stroke:#B0B0B0;stroke-width:6.48"/>
	<line x1="3714.85" y1="1551.01" x2="3717.70" y2="1551.01" style="stroke:#B0B0B0;stroke-width:6.48"/>
	<line x1="3737.87" y1="1551.01" x2="3740.72" y2="1551.01" style="stroke:#B0B0B0;stroke-width:6.48"/>
	<line x1="3760.89" y1="1551.01" x2="3763.73" y2="1551.01" style="stroke:#B0B0B0;stroke-width:6.48"/>
	<path d="" stroke-linecap="round" stroke-linejoin="round" style="fill:none;stroke:#B0B0B0;stroke-width:6.48"/>
	<line x1="2934.98" y1="1507.45" x2="2958.00" y2="1507.45" style="stroke:#B0B0B0;stroke-width:6.48"/>
	<line x1="2978.17" y1="1507.45" x2="3001.18" y2="1507.45" style="stroke:#B0B0B0;stroke-width:6.48"/>
	<line x1="3021.36" y1="1507.45" x2="3044.37" y2="1507.45" style="stroke:#B0B0B0;stroke-width:6.48"/>
	<line x1="3064.55" y1="1507.45" x2="3087.56" y2="1507.45" style="stroke:#B0B0B0;stroke-width:6.48"/>
	<line x1="3107.73" y1="1507.45" x2="3130.75" y2="1507.45" style="stroke:#B0B0B0;stroke-width:6.48"/>
	<line x1="3150.92" y1="1507.45" x2="3173.94" y2="1507.45" style="stroke:#B0B0B0;stroke-width:6.48"/>
	<line x1="3194.11" y1="1507.45" x2="3217.13" y2="1507.45" style="stroke:#B0B0B0;stroke-width:6.48"/>
	<line x1="3237.30" y1="1507.45" x2="3260.32" y2="1507.45" style="stroke:#B0B0B0;stroke-width:6.48"/>
	<line x1="3280.49" y1="1507.45" x2="3303.51" y2="1507.45" style="stroke:#B0B0B0;stroke-width:6.48"/>
	<line x1="3323.68" y1="1507.45" x2="3346.70" y2="1507.45" style="stroke:#B0B0B0;stroke-width:6.48"/>
	<line x1="3366.87" y1="1507.45" x2="3389.88" y2="1507.45" style="stroke:#B0B0B0;stroke-width:6.48"/>
	<line x1="3410.05" y1="1507.45" x2="3433.20" y2="1507.45" style="stroke:#B0B0B0;stroke-width:6.48"/>
	<line x1="3453.24" y1="1507.45" x2="3465.99" y2="1507.45" style="stroke:#B0B0B0;stroke-width:6.48"/>
	<line x1="3465.99" y1="1507.45" x2="3465.99" y2="1497.05" style="stroke:#B0B0B0;stroke-width:6.48"/>
	<line x1="3465.99" y1="1476.88" x2="3465.99" y2="1453.86" style="stroke:#B0B0B0;stroke-width:6.48"/>
	<line x1="3465.99" y1="1433.69" x2="3465.99" y2="1410.67" style="stroke:#B0B0B0;stroke-width:6.48"/>
	<line x1="3465.99" y1="1390.50" x2="3465.99" y2="1367.48" style="stroke:#B0B0B0;stroke-width:6.48"/>
	<line x1="3465.99" y1="1347.31" x2="3465.99" y2="1324.29" style="stroke:#B0B0B0;stroke-width:6.48"/>
	<line x1="3465.99" y1="1304.12" x2="3465.99" y2="1281.10" style="stroke:#B0B0B0;stroke-width:6.48"/>
	<line x1="3465.99" y1="1260.93" x2="3465.99" y2="1237.91" style="stroke:#B0B0B0;stroke-width:6.48"/>
	<line x1="3465.99" y1="1217.74" x2="3465.99" y2="1194.72" style="stroke:#B0B0B0;stroke-width:6.48"/>
	<line x1="3465.99" y1="1174.55" x2="3465.99" y2="1151.53" style="stroke:#B0B0B0;stroke-width:6.48"/>
	<line x1="3465.99" y1="1131.36" x2="3465.99" y2="1108.34" style="stroke:#B0B0B0;stroke-width:6.48"/>
	<line x1="3465.99" y1="1088.17" x2="3465.99" y2="1065.15" style="stroke:#B0B0B0;stroke-width:6.48"/>
	<line x1="3469.95" y1="1048.94" x2="3492.97" y2="1048.94" style="stroke:#B0B0B0;stroke-width:6.48"/>
	<line x1="3513.14" y1="1048.94" x2="3536.28" y2="1048.94" style="stroke:#B0B0B0;stroke-width:6.48"/>
	<line x1="3556.33" y1="1048.94" x2="3579.47" y2="1048.94" style="stroke:#B0B0B0;stroke-width:6.48"/>
	<line x1="3599.64" y1="1048.94" x2="3622.66" y2="1048.94" style="stroke:#B0B0B0;stroke-width:6.48"/>
	<line x1="3633.67" y1="1039.90" x2="3633.67" y2="1016.89" style="stroke:#B0B0B0;stroke-width:6.48"/>
	<line x1="3633.67" y1="996.71" x2="3633.67" y2="973.70" style="stroke:#B0B0B0;stroke-width:6.48"/>
	<line x1="3633.67" y1="953.52" x2="3633.67" y2="930.51" style="stroke:#B0B0B0;stroke-width:6.48"/>
	<line x1="3633.67" y1="910.33" x2="3633.67" y2="887.32" style="stroke:#B0B0B0;stroke-width:6.48"/>
	<line x1="3633.67" y1="867.14" x2="3633.67" y2="844.13" style="stroke:#B0B0B0;stroke-width:6.48"/>
	<line x1="3633.67" y1="823.95" x2="3633.67" y2="800.94" style="stroke:#B0B0B0;stroke-width:6.48"/>
	<line x1="3633.67" y1="780.76" x2="3633.67" y2="757.62" style="stroke:#B0B0B0;stroke-width:6.48"/>
	<line x1="3633.67" y1="737.57" x2="3633.67" y2="714.43" style="stroke:#B0B0B0;stroke-width:6.48"/>
	<line x1="3633.67" y1="694.26" x2="3633.67" y2="671.24" style="stroke:#B0B0B0;stroke-width:6.48"/>
	<line x1="3633.67" y1="651.07" x2="3633.67" y2="628.05" style="stroke:#B0B0B0;stroke-width:6.48"/>
	<line x1="3633.67" y1="607.88" x2="3633.67" y2="590.43" style="stroke:#B0B0B0;stroke-width:6.48"/>
	<line x1="3633.67" y1="590.43" x2="3639.24" y2="590.43" style="stroke:#B0B0B0;stroke-width:6.48"/>
	<line x1="3659.41" y1="590.43" x2="3682.43" y2="590.43" style="stroke:#B0B0B0;stroke-width:6.48"/>
	<line x1="3702.60" y1="590.43" x2="3725.62" y2="590.43" style="stroke:#B0B0B0;stroke-width:6.48"/>
	<line x1="3745.79" y1="590.43" x2="3768.81" y2="590.43" style="stroke:#B0B0B0;stroke-width:6.48"/>
	<path d="" stroke-linecap="round" stroke-linejoin="round" style="fill:none;stroke:#B0B0B0;stroke-width:6.48"/>
	<line x1="2599.62" y1="1478.98" x2="2622.63" y2="1478.98" style="stroke:#909090;stroke-width:6.48"/>
	<line x1="2645.65" y1="1478.98" x2="2648.62" y2="1478.98" style="stroke:#909090;stroke-width:6.48"/>
	<line x1="2671.64" y1="1478.98" x2="2694.66" y2="1478.98" style="stroke:#909090;stroke-width:6.48"/>
	<line x1="2717.67" y1="1478.98" x2="2720.52" y2="1478.98" style="stroke:#909090;stroke-width:6.48"/>
	<line x1="2739.33" y1="1474.65" x2="2739.33" y2="1451.63" style="stroke:#909090;stroke-width:6.48"/>
	<line x1="2739.33" y1="1428.61" x2="2739.33" y2="1425.77" style="stroke:#909090;stroke-width:6.48"/>
	<line x1="2739.33" y1="1402.75" x2="2739.33" y2="1379.61" style="stroke:#909090;stroke-width:6.48"/>
	<line x1="2739.33" y1="1356.59" x2="2739.33" y2="1353.74" style="stroke:#909090;stroke-width:6.48"/>
	<line x1="2739.33" y1="1330.73" x2="2739.33" y2="1307.71" style="stroke:#909090;stroke-width:6.48"/>
	<line x1="2739.33" y1="1284.57" x2="2739.33" y2="1281.72" style="stroke:#909090;stroke-width:6.48"/>
	<line x1="2739.33" y1="1258.70" x2="2739.33" y2="1235.68" style="stroke:#909090;stroke-width:6.48"/>
	<line x1="2739.33" y1="1212.66" x2="2739.33" y2="1209.69" style="stroke:#909090;stroke-width:6.48"/>
	<line x1="2739.33" y1="1186.68" x2="2739.33" y2="1163.66" style="stroke:#909090;stroke-width:6.48"/>
	<line x1="2739.33" y1="1140.64" x2="2739.33" y2="1137.67" style="stroke:#909090;stroke-width:6.48"/>
	<line x1="2739.33" y1="1114.65" x2="2739.33" y2="1091.63" style="stroke:#909090;stroke-width:6.48"/>
	<line x1="2739.33" y1="1068.61" x2="2739.33" y2="1065.64" style="stroke:#909090;stroke-width:6.48"/>
	<line x1="2739.33" y1="1042.63" x2="2739.33" y2="1019.61" style="stroke:#909090;stroke-width:6.48"/>
	<line x1="2739.33" y1="996.59" x2="2739.33" y2="993.62" style="stroke:#909090;stroke-width:6.48"/>
	<line x1="2760.61" y1="991.89" x2="2783.63" y2="991.89" style="stroke:#909090;stroke-width:6.48"/>
	<line x1="2806.65" y1="991.89" x2="2809.62" y2="991.89" style="stroke:#909090;stroke-width:6.48"/>
	<line x1="2832.64" y1="991.89" x2="2855.66" y2="991.89" style="stroke:#909090;stroke-width:6.48"/>
	<line x1="2878.67" y1="991.89" x2="2881.64" y2="991.89" style="stroke:#909090;stroke-width:6.48"/>
	<line x1="2904.66" y1="991.89" x2="2927.68" y2="991.89" style="stroke:#909090;stroke-width:6.48"/>
	<line x1="2950.70" y1="991.89" x2="2953.66" y2="991.89" style="stroke:#909090;stroke-width:6.48"/>
	<line x1="2976.68" y1="991.89" x2="2999.70" y2="991.89" style="stroke:#909090;stroke-width:6.48"/>
	<line x1="3022.72" y1="991.89" x2="3025.56" y2="991.89" style="stroke:#909090;stroke-width:6.48"/>
	<line x1="3048.70" y1="991.89" x2="3071.72" y2="991.89" style="stroke:#909090;stroke-width:6.48"/>
	<line x1="3094.74" y1="991.89" x2="3097.59" y2="991.89" style="stroke:#909090;stroke-width:6.48"/>
	<line x1="3120.60" y1="991.89" x2="3143.74" y2="991.89" style="stroke:#909090;stroke-width:6.48"/>
	<line x1="3166.76" y1="991.89" x2="3169.61" y2="991.89" style="stroke:#909090;stroke-width:6.48"/>
	<line x1="3192.63" y1="991.89" x2="3215.64" y2="991.89" style="stroke:#909090;stroke-width:6.48"/>
	<line x1="3238.78" y1="991.89" x2="3241.63" y2="991.89" style="stroke:#909090;stroke-width:6.48"/>
	<line x1="3264.65" y1="991.89" x2="3287.67" y2="991.89" style="stroke:#909090;stroke-width:6.48"/>
	<line x1="3310.68" y1="991.89" x2="3313.65" y2="991.89" style="stroke:#909090;stroke-width:6.48"/>
	<line x1="3336.67" y1="991.89" x2="3359.69" y2="991.89" style="stroke:#909090;stroke-width:6.48"/>
	<line x1="3382.71" y1="991.89" x2="3385.68" y2="991.89" style="stroke:#909090;stroke-width:6.48"/>
	<line x1="3408.69" y1="991.89" x2="3431.71" y2="991.89" style="stroke:#909090;stroke-width:6.48"/>
	<line x1="3454.73" y1="991.89" x2="3457.70" y2="991.89" style="stroke:#909090;stroke-width:6.48"/>
	<line x1="3480.72" y1="991.89" x2="3503.73" y2="991.89" style="stroke:#909090;stroke-width:6.48"/>
	<line x1="3526.75" y1="991.89" x2="3529.72" y2="991.89" style="stroke:#909090;stroke-width:6.48"/>
	<line x1="3552.74" y1="991.89" x2="3575.76" y2="991.89" style="stroke:#909090;stroke-width:6.48"/>
	<line x1="3598.77" y1="991.89" x2="3601.74" y2="991.89" style="stroke:#909090;stroke-width:6.48"/>
	<line x1="3624.76" y1="991.89" x2="3647.78" y2="991.89" style="stroke:#909090;stroke-width:6.48"/>
	<line x1="3670.80" y1="991.89" x2="3673.77" y2="991.89" style="stroke:#909090;stroke-width:6.48"/>
	<line x1="3696.78" y1="991.89" x2="3719.80" y2="991.89" style="stroke:#909090;stroke-width:6.48"/>
	<line x1="3742.82" y1="991.89" x2="3745.79" y2="991.89" style="stroke:#909090;stroke-width:6.48"/>
	<line x1="3768.81" y1="991.89" x2="3773.39" y2="991.89" style="stroke:#909090;stroke-width:6.48"/>
	<line x1="3773.39" y1="991.89" x2="3773.39" y2="991.89" style="stroke:#909090;stroke-width:6.48"/>
	<path d="" stroke-linecap="round" stroke-linejoin="round" style="fill:none;stroke:#909090;stroke-width:6.48"/>
	<line x1="3195.84" y1="1520.56" x2="3311.05" y2="1520.56" style="stroke:#606060;stroke-width:6.48"/>
	<line x1="3339.89" y1="1520.56" x2="3455.10" y2="1520.56" style="stroke:#606060;stroke-width:6.48"/>
	<line x1="3483.93" y1="1520.56" x2="3521.80" y2="1520.56" style="stroke:#606060;stroke-width:6.48"/>
	<line x1="3521.80" y1="1520.56" x2="3521.80" y2="1443.22" style="stroke:#606060;stroke-width:6.48"/>
	<line x1="3521.80" y1="1414.51" x2="3521.80" y2="1299.29" style="stroke:#606060;stroke-width:6.48"/>
	<line x1="3521.80" y1="1270.46" x2="3521.80" y2="1155.24" style="stroke:#606060;stroke-width:6.48"/>
	<line x1="3521.80" y1="1126.41" x2="3521.80" y2="1075.05" style="stroke:#606060;stroke-width:6.48"/>
	<line x1="3521.80" y1="1075.05" x2="3585.66" y2="1075.05" style="stroke:#606060;stroke-width:6.48"/>
	<line x1="3614.49" y1="1075.05" x2="3729.70" y2="1075.05" style="stroke:#606060;stroke-width:6.48"/>
	<line x1="3758.41" y1="1075.05" x2="3773.39" y2="1075.05" style="stroke:#606060;stroke-width:6.48"/>
	<line x1="3773.39" y1="1075.05" x2="3773.39" y2="1075.05" style="stroke:#606060;stroke-width:6.48"/>
	<path d="" stroke-linecap="round" stroke-linejoin="round" style="fill:none;stroke:#606060;stroke-width:6.48"/>
	<path d="" stroke-linecap="round" stroke-linejoin="round" style="fill:none;stroke:#303030;stroke-width:6.48"/>
	<path d=" M3773.39 1966.08" stroke-linecap="round" stroke-linejoin="round" style="fill:none;stroke:#000000;stroke-width:6.48"/>
	<path d=" M3773.39 1966.08" stroke-linecap="round" stroke-linejoin="round" style="fill:none;stroke:#938DD2;stroke-width:6.48"/>
	<line x1="2459.04" y1="2013.48" x2="2459.04" y2="414.45" style="stroke:#000000;stroke-width:4.32"/>
	<line x1="2459.04" y1="1965.95" x2="2429.09" y2="1965.95" style="stroke:#000000;stroke-width:4.32"/>
	<text x="2413.99" y="1992.23" style="font-family:'Helvetica';font-size:74.99px;fill:#000000" text-anchor="end">0.000</text>
	<line x1="2459.04" y1="1589.99" x2="2429.09" y2="1589.99" style="stroke:#000000;stroke-width:4.32"/>
	<text x="2413.99" y="1616.27" style="font-family:'Helvetica';font-size:74.99px;fill:#000000" text-anchor="end">0.002</text>
	<line x1="2459.04" y1="1214.03" x2="2429.09" y2="1214.03" style="stroke:#000000;stroke-width:4.32"/>
	<text x="2413.99" y="1240.30" style="font-family:'Helvetica';font-size:74.99px;fill:#000000" text-anchor="end">0.004</text>
	<line x1="2459.04" y1="837.94" x2="2429.09" y2="837.94" style="stroke:#000000;stroke-width:4.32"/>
	<text x="2413.99" y="864.22" style="font-family:'Helvetica';font-size:74.99px;fill:#000000" text-anchor="end">0.006</text>
	<line x1="2459.04" y1="461.97" x2="2429.09" y2="461.97" style="stroke:#000000;stroke-width:4.32"/>
	<text x="2413.99" y="488.25" style="font-family:'Helvetica';font-size:74.99px;fill:#000000" text-anchor="end">0.008</text>
	<line x1="2459.04" y1="2013.48" x2="3820.91" y2="2013.48" style="stroke:#000000;stroke-width:4.32"/>
	<line x1="2506.56" y1="2013.48" x2="2506.56" y2="2043.55" style="stroke:#000000;stroke-width:4.32"/>
	<text x="2506.56" y="2110.96" style="font-family:'Helvetica';font-size:74.99px;fill:#000000" text-anchor="middle">1 Feb 20</text>
	<line x1="2776.70" y1="2013.48" x2="2776.70" y2="2043.55" style="stroke:#000000;stroke-width:4.32"/>
	<text x="2776.70" y="2110.96" style="font-family:'Helvetica';font-size:74.99px;fill:#000000" text-anchor="middle">1 Mar 20</text>
	<line x1="3065.41" y1="2013.48" x2="3065.41" y2="2043.55" style="stroke:#000000;stroke-width:4.32"/>
	<text x="3065.41" y="2110.96" style="font-family:'Helvetica';font-size:74.99px;fill:#000000" text-anchor="middle">1 Apr 20</text>
	<line x1="3354.24" y1="2013.48" x2="3354.24" y2="2043.55" style="stroke:#000000;stroke-width:4.32"/>
	<text x="3354.24" y="2110.96" style="font-family:'Helvetica';font-size:74.99px;fill:#000000" text-anchor="middle">1 May 20</text>
	<text x="3140.03" y="2193.38" style="font-family:'Helvetica';font-size:74.99px;fill:#000000" text-anchor="middle"> </text>
	<text x="3140.03" y="369.91" style="font-family:'Helvetica';font-size:104.94px;fill:#1E2D53" text-anchor="middle">Male</text>
	<text x="150.62" y="1257.22" style="font-family:'Helvetica';font-size:99.99px;fill:#000000" transform="rotate(-90 150.62,1257.22)" text-anchor="middle">Cumulative probability</text>
	<text x="250.61" y="1257.22" style="font-family:'Helvetica';font-size:99.99px;fill:#000000" transform="rotate(-90 250.61,1257.22)" text-anchor="middle">of COVID-19 death/ICU admi.</text>
	<text x="2097.19" y="157.51" style="font-family:'Helvetica';font-size:110.01px;fill:#000000" text-anchor="middle"> </text>
	<rect x="867.12" y="2341.18" width="2460.27" height="440.94" style="fill:#FFFFFF"/>
	<rect x="870.00" y="2344.06" width="2454.51" height="435.18" style="fill:none;stroke:#000000;stroke-width:5.76"/>
	<line x1="910.30" y1="2548.83" x2="913.15" y2="2548.83" style="stroke:#B0B0B0;stroke-width:8.64"/>
	<line x1="933.32" y1="2548.83" x2="936.17" y2="2548.83" style="stroke:#B0B0B0;stroke-width:8.64"/>
	<line x1="956.34" y1="2548.83" x2="959.19" y2="2548.83" style="stroke:#B0B0B0;stroke-width:8.64"/>
	<line x1="979.36" y1="2548.83" x2="982.20" y2="2548.83" style="stroke:#B0B0B0;stroke-width:8.64"/>
	<line x1="1002.38" y1="2548.83" x2="1005.35" y2="2548.83" style="stroke:#B0B0B0;stroke-width:8.64"/>
	<line x1="1025.52" y1="2548.83" x2="1028.36" y2="2548.83" style="stroke:#B0B0B0;stroke-width:8.64"/>
	<line x1="1048.53" y1="2548.83" x2="1051.38" y2="2548.83" style="stroke:#B0B0B0;stroke-width:8.64"/>
	<line x1="1071.55" y1="2548.83" x2="1074.40" y2="2548.83" style="stroke:#B0B0B0;stroke-width:8.64"/>
	<line x1="1094.57" y1="2548.83" x2="1097.41" y2="2548.83" style="stroke:#B0B0B0;stroke-width:8.64"/>
	<line x1="1117.59" y1="2548.83" x2="1120.43" y2="2548.83" style="stroke:#B0B0B0;stroke-width:8.64"/>
	<line x1="1140.60" y1="2548.83" x2="1143.45" y2="2548.83" style="stroke:#B0B0B0;stroke-width:8.64"/>
	<line x1="1163.62" y1="2548.83" x2="1166.47" y2="2548.83" style="stroke:#B0B0B0;stroke-width:8.64"/>
	<line x1="1186.64" y1="2548.83" x2="1189.48" y2="2548.83" style="stroke:#B0B0B0;stroke-width:8.64"/>
	<line x1="1209.66" y1="2548.83" x2="1212.50" y2="2548.83" style="stroke:#B0B0B0;stroke-width:8.64"/>
	<line x1="1232.67" y1="2548.83" x2="1235.52" y2="2548.83" style="stroke:#B0B0B0;stroke-width:8.64"/>
	<line x1="1255.69" y1="2548.83" x2="1258.66" y2="2548.83" style="stroke:#B0B0B0;stroke-width:8.64"/>
	<line x1="1278.83" y1="2548.83" x2="1281.68" y2="2548.83" style="stroke:#B0B0B0;stroke-width:8.64"/>
	<line x1="910.30" y1="2688.92" x2="933.32" y2="2688.92" style="stroke:#B0B0B0;stroke-width:8.64"/>
	<line x1="953.49" y1="2688.92" x2="976.51" y2="2688.92" style="stroke:#B0B0B0;stroke-width:8.64"/>
	<line x1="996.68" y1="2688.92" x2="1019.70" y2="2688.92" style="stroke:#B0B0B0;stroke-width:8.64"/>
	<line x1="1039.87" y1="2688.92" x2="1062.89" y2="2688.92" style="stroke:#B0B0B0;stroke-width:8.64"/>
	<line x1="1083.06" y1="2688.92" x2="1106.08" y2="2688.92" style="stroke:#B0B0B0;stroke-width:8.64"/>
	<line x1="1126.25" y1="2688.92" x2="1149.27" y2="2688.92" style="stroke:#B0B0B0;stroke-width:8.64"/>
	<line x1="1169.44" y1="2688.92" x2="1192.45" y2="2688.92" style="stroke:#B0B0B0;stroke-width:8.64"/>
	<line x1="1212.63" y1="2688.92" x2="1235.64" y2="2688.92" style="stroke:#B0B0B0;stroke-width:8.64"/>
	<line x1="1255.82" y1="2688.92" x2="1278.96" y2="2688.92" style="stroke:#B0B0B0;stroke-width:8.64"/>
	<line x1="1748.22" y1="2548.83" x2="1771.23" y2="2548.83" style="stroke:#909090;stroke-width:8.64"/>
	<line x1="1794.25" y1="2548.83" x2="1797.22" y2="2548.83" style="stroke:#909090;stroke-width:8.64"/>
	<line x1="1820.24" y1="2548.83" x2="1843.26" y2="2548.83" style="stroke:#909090;stroke-width:8.64"/>
	<line x1="1866.27" y1="2548.83" x2="1869.12" y2="2548.83" style="stroke:#909090;stroke-width:8.64"/>
	<line x1="1892.26" y1="2548.83" x2="1915.28" y2="2548.83" style="stroke:#909090;stroke-width:8.64"/>
	<line x1="1938.30" y1="2548.83" x2="1941.14" y2="2548.83" style="stroke:#909090;stroke-width:8.64"/>
	<line x1="1964.16" y1="2548.83" x2="1987.30" y2="2548.83" style="stroke:#909090;stroke-width:8.64"/>
	<line x1="2010.32" y1="2548.83" x2="2013.16" y2="2548.83" style="stroke:#909090;stroke-width:8.64"/>
	<line x1="2036.18" y1="2548.83" x2="2059.20" y2="2548.83" style="stroke:#909090;stroke-width:8.64"/>
	<line x1="2082.34" y1="2548.83" x2="2085.19" y2="2548.83" style="stroke:#909090;stroke-width:8.64"/>
	<line x1="2108.20" y1="2548.83" x2="2122.56" y2="2548.83" style="stroke:#909090;stroke-width:8.64"/>
	<line x1="1748.22" y1="2688.92" x2="1863.43" y2="2688.92" style="stroke:#606060;stroke-width:8.64"/>
	<line x1="1892.26" y1="2688.92" x2="2007.47" y2="2688.92" style="stroke:#606060;stroke-width:8.64"/>
	<line x1="2036.18" y1="2688.92" x2="2122.56" y2="2688.92" style="stroke:#606060;stroke-width:8.64"/>
	<line x1="2586.25" y1="2548.83" x2="2701.46" y2="2548.83" style="stroke:#303030;stroke-width:8.64"/>
	<line x1="2730.30" y1="2548.83" x2="2733.14" y2="2548.83" style="stroke:#303030;stroke-width:8.64"/>
	<line x1="2761.98" y1="2548.83" x2="2877.19" y2="2548.83" style="stroke:#303030;stroke-width:8.64"/>
	<line x1="2906.02" y1="2548.83" x2="2908.87" y2="2548.83" style="stroke:#303030;stroke-width:8.64"/>
	<line x1="2937.70" y1="2548.83" x2="2960.59" y2="2548.83" style="stroke:#303030;stroke-width:8.64"/>
	<line x1="2586.25" y1="2688.92" x2="2960.59" y2="2688.92" style="stroke:#000000;stroke-width:8.64"/>
	<text x="1344.67" y="2576.85" style="font-family:'Helvetica';font-size:79.94px;fill:#000000">18-&lt;40</text>
	<text x="1344.67" y="2716.94" style="font-family:'Helvetica';font-size:79.94px;fill:#000000">40-&lt;50</text>
	<text x="2182.58" y="2576.85" style="font-family:'Helvetica';font-size:79.94px;fill:#000000">50-&lt;60</text>
	<text x="2182.58" y="2716.94" style="font-family:'Helvetica';font-size:79.94px;fill:#000000">60-&lt;70</text>
	<text x="3020.61" y="2576.85" style="font-family:'Helvetica';font-size:79.94px;fill:#000000">70-&lt;80</text>
	<text x="3020.61" y="2716.94" style="font-family:'Helvetica';font-size:79.94px;fill:#000000">80+</text>
	<text x="2097.19" y="2448.93" style="font-family:'Helvetica';font-size:79.94px;fill:#000000" text-anchor="middle">Age group</text>
</svg>
