<?xml version="1.0" encoding="UTF-8" standalone="no"?>
<!-- This is a Stata 15.1 generated SVG file (http://www.stata.com) -->

<svg version="1.1" width="5.50in" height="4.00in" viewBox="0 0 3960 2880" xmlns="http://www.w3.org/2000/svg" xmlns:xlink="http://www.w3.org/1999/xlink">
	<desc>Stata Graph - Graph</desc>
	<rect x="0" y="0" width="3960" height="2880" style="fill:#EAF2F3;stroke:none"/>
	<rect x="0.00" y="0.00" width="3959.88" height="2880.00" style="fill:#EAF2F3"/>
	<rect x="2.88" y="2.88" width="3954.12" height="2874.24" style="fill:none;stroke:#EAF2F3;stroke-width:5.76"/>
	<rect x="297.87" y="207.91" width="1799.32" height="2098.62" style="fill:#EAF2F3"/>
	<rect x="300.03" y="210.07" width="1795.01" height="2094.30" style="fill:none;stroke:#EAF2F3;stroke-width:4.32"/>
	<rect x="659.71" y="414.45" width="1361.87" height="1599.02" style="fill:#FFFFFF"/>
	<rect x="661.87" y="416.61" width="1357.55" height="1594.70" style="fill:none;stroke:#FFFFFF;stroke-width:4.32"/>
	<line x1="659.71" y1="1965.95" x2="2021.58" y2="1965.95" style="stroke:#EAF2F3;stroke-width:6.48"/>
	<line x1="659.71" y1="1958.90" x2="2021.58" y2="1958.90" style="stroke:#EAF2F3;stroke-width:6.48"/>
	<line x1="659.71" y1="1951.85" x2="2021.58" y2="1951.85" style="stroke:#EAF2F3;stroke-width:6.48"/>
	<line x1="659.71" y1="1944.79" x2="2021.58" y2="1944.79" style="stroke:#EAF2F3;stroke-width:6.48"/>
	<line x1="659.71" y1="1937.74" x2="2021.58" y2="1937.74" style="stroke:#EAF2F3;stroke-width:6.48"/>
	<line x1="659.71" y1="1930.68" x2="2021.58" y2="1930.68" style="stroke:#EAF2F3;stroke-width:6.48"/>
	<path d=" M837.66 1625.01 L1107.69 1625.01 L1107.69 1358.20 L1396.52 1358.20 L1396.52 1120.96 L1675.95 1120.96 L1675.95 809.60 L1815.66 809.60 L1815.66 809.60 L1964.78 809.60 L1964.78 571.74 L1974.06 571.74 L1974.06 571.74" stroke-linecap="round" stroke-linejoin="round" style="fill:none;stroke:#FF0000;stroke-width:6.48"/>
	<path d=" M837.66 1618.95 L1107.69 1618.95 L1107.69 1271.82 L1396.52 1271.82 L1396.52 1056.98 L1675.95 1056.98 L1675.95 743.02 L1964.78 743.02 L1964.78 461.97 L1974.06 461.97 L1974.06 461.97" stroke-linecap="round" stroke-linejoin="round" style="fill:none;stroke:#0000FF;stroke-width:6.48"/>
	<line x1="837.66" y1="1754.33" x2="895.21" y2="1754.33" style="stroke:#FF7F00;stroke-width:6.48"/>
	<line x1="924.04" y1="1754.33" x2="981.71" y2="1754.33" style="stroke:#FF7F00;stroke-width:6.48"/>
	<line x1="1010.42" y1="1754.33" x2="1068.09" y2="1754.33" style="stroke:#FF7F00;stroke-width:6.48"/>
	<line x1="1096.92" y1="1754.33" x2="1107.69" y2="1754.33" style="stroke:#FF7F00;stroke-width:6.48"/>
	<line x1="1107.69" y1="1754.33" x2="1107.69" y2="1707.68" style="stroke:#FF7F00;stroke-width:6.48"/>
	<line x1="1107.69" y1="1678.84" x2="1107.69" y2="1621.18" style="stroke:#FF7F00;stroke-width:6.48"/>
	<line x1="1107.69" y1="1592.46" x2="1107.69" y2="1560.29" style="stroke:#FF7F00;stroke-width:6.48"/>
	<line x1="1107.69" y1="1560.29" x2="1133.18" y2="1560.29" style="stroke:#FF7F00;stroke-width:6.48"/>
	<line x1="1162.01" y1="1560.29" x2="1219.56" y2="1560.29" style="stroke:#FF7F00;stroke-width:6.48"/>
	<line x1="1248.39" y1="1560.29" x2="1305.93" y2="1560.29" style="stroke:#FF7F00;stroke-width:6.48"/>
	<line x1="1334.77" y1="1560.29" x2="1392.31" y2="1560.29" style="stroke:#FF7F00;stroke-width:6.48"/>
	<line x1="1396.52" y1="1535.66" x2="1396.52" y2="1478.12" style="stroke:#FF7F00;stroke-width:6.48"/>
	<line x1="1396.52" y1="1449.28" x2="1396.52" y2="1391.74" style="stroke:#FF7F00;stroke-width:6.48"/>
	<line x1="1399.74" y1="1366.12" x2="1457.28" y2="1366.12" style="stroke:#FF7F00;stroke-width:6.48"/>
	<line x1="1486.11" y1="1366.12" x2="1543.78" y2="1366.12" style="stroke:#FF7F00;stroke-width:6.48"/>
	<line x1="1572.49" y1="1366.12" x2="1630.16" y2="1366.12" style="stroke:#FF7F00;stroke-width:6.48"/>
	<line x1="1658.99" y1="1366.12" x2="1675.95" y2="1366.12" style="stroke:#FF7F00;stroke-width:6.48"/>
	<line x1="1675.95" y1="1366.12" x2="1675.95" y2="1325.53" style="stroke:#FF7F00;stroke-width:6.48"/>
	<line x1="1675.95" y1="1296.69" x2="1675.95" y2="1239.15" style="stroke:#FF7F00;stroke-width:6.48"/>
	<line x1="1675.95" y1="1210.31" x2="1675.95" y2="1152.77" style="stroke:#FF7F00;stroke-width:6.48"/>
	<line x1="1688.82" y1="1136.80" x2="1746.36" y2="1136.80" style="stroke:#FF7F00;stroke-width:6.48"/>
	<line x1="1775.19" y1="1136.80" x2="1832.74" y2="1136.80" style="stroke:#FF7F00;stroke-width:6.48"/>
	<line x1="1861.57" y1="1136.80" x2="1919.12" y2="1136.80" style="stroke:#FF7F00;stroke-width:6.48"/>
	<line x1="1947.95" y1="1136.80" x2="1964.78" y2="1136.80" style="stroke:#FF7F00;stroke-width:6.48"/>
	<line x1="1964.78" y1="1136.80" x2="1964.78" y2="1096.09" style="stroke:#FF7F00;stroke-width:6.48"/>
	<line x1="1964.78" y1="1067.25" x2="1964.78" y2="1009.71" style="stroke:#FF7F00;stroke-width:6.48"/>
	<line x1="1964.78" y1="980.87" x2="1964.78" y2="923.33" style="stroke:#FF7F00;stroke-width:6.48"/>
	<line x1="1964.78" y1="894.49" x2="1964.78" y2="889.79" style="stroke:#FF7F00;stroke-width:6.48"/>
	<line x1="1964.78" y1="889.79" x2="1974.06" y2="889.79" style="stroke:#FF7F00;stroke-width:6.48"/>
	<line x1="1974.06" y1="889.79" x2="1974.06" y2="889.79" style="stroke:#FF7F00;stroke-width:6.48"/>
	<path d="" stroke-linecap="round" stroke-linejoin="round" style="fill:none;stroke:#FF7F00;stroke-width:6.48"/>
	<line x1="837.66" y1="1751.12" x2="895.21" y2="1751.12" style="stroke:#008000;stroke-width:6.48"/>
	<line x1="924.04" y1="1751.12" x2="981.71" y2="1751.12" style="stroke:#008000;stroke-width:6.48"/>
	<line x1="1010.42" y1="1751.12" x2="1068.09" y2="1751.12" style="stroke:#008000;stroke-width:6.48"/>
	<line x1="1096.92" y1="1751.12" x2="1107.69" y2="1751.12" style="stroke:#008000;stroke-width:6.48"/>
	<line x1="1107.69" y1="1751.12" x2="1107.69" y2="1704.34" style="stroke:#008000;stroke-width:6.48"/>
	<line x1="1107.69" y1="1675.63" x2="1107.69" y2="1617.96" style="stroke:#008000;stroke-width:6.48"/>
	<line x1="1107.69" y1="1589.12" x2="1107.69" y2="1531.58" style="stroke:#008000;stroke-width:6.48"/>
	<line x1="1107.69" y1="1502.74" x2="1107.69" y2="1445.20" style="stroke:#008000;stroke-width:6.48"/>
	<line x1="1111.89" y1="1420.57" x2="1169.44" y2="1420.57" style="stroke:#008000;stroke-width:6.48"/>
	<line x1="1198.27" y1="1420.57" x2="1255.82" y2="1420.57" style="stroke:#008000;stroke-width:6.48"/>
	<line x1="1284.65" y1="1420.57" x2="1342.19" y2="1420.57" style="stroke:#008000;stroke-width:6.48"/>
	<line x1="1371.03" y1="1420.57" x2="1396.52" y2="1420.57" style="stroke:#008000;stroke-width:6.48"/>
	<line x1="1396.52" y1="1420.57" x2="1396.52" y2="1388.52" style="stroke:#008000;stroke-width:6.48"/>
	<line x1="1396.52" y1="1359.68" x2="1396.52" y2="1302.14" style="stroke:#008000;stroke-width:6.48"/>
	<line x1="1396.52" y1="1273.30" x2="1396.52" y2="1222.32" style="stroke:#008000;stroke-width:6.48"/>
	<line x1="1396.52" y1="1222.32" x2="1403.08" y2="1222.32" style="stroke:#008000;stroke-width:6.48"/>
	<line x1="1431.91" y1="1222.32" x2="1489.45" y2="1222.32" style="stroke:#008000;stroke-width:6.48"/>
	<line x1="1518.29" y1="1222.32" x2="1575.96" y2="1222.32" style="stroke:#008000;stroke-width:6.48"/>
	<line x1="1604.67" y1="1222.32" x2="1662.33" y2="1222.32" style="stroke:#008000;stroke-width:6.48"/>
	<line x1="1675.95" y1="1207.10" x2="1675.95" y2="1149.55" style="stroke:#008000;stroke-width:6.48"/>
	<line x1="1675.95" y1="1120.72" x2="1675.95" y2="1063.17" style="stroke:#008000;stroke-width:6.48"/>
	<line x1="1675.95" y1="1034.33" x2="1675.95" y2="976.79" style="stroke:#008000;stroke-width:6.48"/>
	<line x1="1675.95" y1="947.95" x2="1675.95" y2="941.27" style="stroke:#008000;stroke-width:6.48"/>
	<line x1="1675.95" y1="941.27" x2="1726.81" y2="941.27" style="stroke:#008000;stroke-width:6.48"/>
	<line x1="1755.64" y1="941.27" x2="1813.18" y2="941.27" style="stroke:#008000;stroke-width:6.48"/>
	<line x1="1842.02" y1="941.27" x2="1899.56" y2="941.27" style="stroke:#008000;stroke-width:6.48"/>
	<line x1="1928.40" y1="941.27" x2="1964.78" y2="941.27" style="stroke:#008000;stroke-width:6.48"/>
	<line x1="1964.78" y1="941.27" x2="1964.78" y2="919.99" style="stroke:#008000;stroke-width:6.48"/>
	<line x1="1964.78" y1="891.28" x2="1964.78" y2="833.61" style="stroke:#008000;stroke-width:6.48"/>
	<line x1="1964.78" y1="804.90" x2="1964.78" y2="747.23" style="stroke:#008000;stroke-width:6.48"/>
	<line x1="1964.78" y1="718.39" x2="1964.78" y2="660.85" style="stroke:#008000;stroke-width:6.48"/>
	<line x1="1964.78" y1="632.01" x2="1964.78" y2="574.47" style="stroke:#008000;stroke-width:6.48"/>
	<path d="" stroke-linecap="round" stroke-linejoin="round" style="fill:none;stroke:#008000;stroke-width:6.48"/>
	<line x1="837.66" y1="1780.32" x2="895.21" y2="1780.32" style="stroke:#FF0080;stroke-width:6.48"/>
	<line x1="921.20" y1="1780.32" x2="924.04" y2="1780.32" style="stroke:#FF0080;stroke-width:6.48"/>
	<line x1="950.03" y1="1780.32" x2="1007.57" y2="1780.32" style="stroke:#FF0080;stroke-width:6.48"/>
	<line x1="1033.56" y1="1780.32" x2="1036.41" y2="1780.32" style="stroke:#FF0080;stroke-width:6.48"/>
	<line x1="1062.39" y1="1780.32" x2="1107.69" y2="1780.32" style="stroke:#FF0080;stroke-width:6.48"/>
	<line x1="1107.69" y1="1780.32" x2="1107.69" y2="1768.07" style="stroke:#FF0080;stroke-width:6.48"/>
	<line x1="1107.69" y1="1742.08" x2="1107.69" y2="1739.24" style="stroke:#FF0080;stroke-width:6.48"/>
	<line x1="1107.69" y1="1713.25" x2="1107.69" y2="1655.70" style="stroke:#FF0080;stroke-width:6.48"/>
	<line x1="1107.69" y1="1629.71" x2="1107.69" y2="1626.87" style="stroke:#FF0080;stroke-width:6.48"/>
	<line x1="1107.69" y1="1600.88" x2="1107.69" y2="1552.62" style="stroke:#FF0080;stroke-width:6.48"/>
	<line x1="1107.69" y1="1552.62" x2="1116.97" y2="1552.62" style="stroke:#FF0080;stroke-width:6.48"/>
	<line x1="1142.95" y1="1552.62" x2="1145.80" y2="1552.62" style="stroke:#FF0080;stroke-width:6.48"/>
	<line x1="1171.79" y1="1552.62" x2="1229.33" y2="1552.62" style="stroke:#FF0080;stroke-width:6.48"/>
	<line x1="1255.32" y1="1552.62" x2="1258.17" y2="1552.62" style="stroke:#FF0080;stroke-width:6.48"/>
	<line x1="1284.03" y1="1552.62" x2="1341.70" y2="1552.62" style="stroke:#FF0080;stroke-width:6.48"/>
	<line x1="1367.56" y1="1552.62" x2="1370.41" y2="1552.62" style="stroke:#FF0080;stroke-width:6.48"/>
	<line x1="1396.39" y1="1552.62" x2="1396.52" y2="1552.62" style="stroke:#FF0080;stroke-width:6.48"/>
	<line x1="1396.52" y1="1552.62" x2="1396.52" y2="1495.19" style="stroke:#FF0080;stroke-width:6.48"/>
	<line x1="1396.52" y1="1469.21" x2="1396.52" y2="1466.36" style="stroke:#FF0080;stroke-width:6.48"/>
	<line x1="1396.52" y1="1440.37" x2="1396.52" y2="1382.83" style="stroke:#FF0080;stroke-width:6.48"/>
	<line x1="1396.52" y1="1356.84" x2="1396.52" y2="1353.99" style="stroke:#FF0080;stroke-width:6.48"/>
	<line x1="1396.52" y1="1328.00" x2="1396.52" y2="1270.46" style="stroke:#FF0080;stroke-width:6.48"/>
	<line x1="1414.96" y1="1262.91" x2="1417.80" y2="1262.91" style="stroke:#FF0080;stroke-width:6.48"/>
	<line x1="1443.79" y1="1262.91" x2="1501.34" y2="1262.91" style="stroke:#FF0080;stroke-width:6.48"/>
	<line x1="1527.32" y1="1262.91" x2="1530.17" y2="1262.91" style="stroke:#FF0080;stroke-width:6.48"/>
	<line x1="1556.16" y1="1262.91" x2="1613.70" y2="1262.91" style="stroke:#FF0080;stroke-width:6.48"/>
	<line x1="1639.56" y1="1262.91" x2="1642.53" y2="1262.91" style="stroke:#FF0080;stroke-width:6.48"/>
	<line x1="1668.40" y1="1262.91" x2="1675.95" y2="1262.91" style="stroke:#FF0080;stroke-width:6.48"/>
	<line x1="1675.95" y1="1262.91" x2="1675.95" y2="1212.79" style="stroke:#FF0080;stroke-width:6.48"/>
	<line x1="1675.95" y1="1186.92" x2="1675.95" y2="1184.08" style="stroke:#FF0080;stroke-width:6.48"/>
	<line x1="1675.95" y1="1158.09" x2="1675.95" y2="1100.54" style="stroke:#FF0080;stroke-width:6.48"/>
	<line x1="1675.95" y1="1074.55" x2="1675.95" y2="1071.71" style="stroke:#FF0080;stroke-width:6.48"/>
	<line x1="1675.95" y1="1045.72" x2="1675.95" y2="988.17" style="stroke:#FF0080;stroke-width:6.48"/>
	<line x1="1675.95" y1="962.19" x2="1675.95" y2="959.34" style="stroke:#FF0080;stroke-width:6.48"/>
	<line x1="1694.88" y1="952.41" x2="1752.55" y2="952.41" style="stroke:#FF0080;stroke-width:6.48"/>
	<line x1="1778.41" y1="952.41" x2="1781.38" y2="952.41" style="stroke:#FF0080;stroke-width:6.48"/>
	<line x1="1807.24" y1="952.41" x2="1864.91" y2="952.41" style="stroke:#FF0080;stroke-width:6.48"/>
	<line x1="1890.78" y1="952.41" x2="1893.62" y2="952.41" style="stroke:#FF0080;stroke-width:6.48"/>
	<line x1="1919.61" y1="952.41" x2="1964.78" y2="952.41" style="stroke:#FF0080;stroke-width:6.48"/>
	<line x1="1964.78" y1="952.41" x2="1964.78" y2="939.91" style="stroke:#FF0080;stroke-width:6.48"/>
	<line x1="1964.78" y1="914.05" x2="1964.78" y2="911.20" style="stroke:#FF0080;stroke-width:6.48"/>
	<line x1="1964.78" y1="885.21" x2="1964.78" y2="827.67" style="stroke:#FF0080;stroke-width:6.48"/>
	<line x1="1964.78" y1="801.68" x2="1964.78" y2="798.83" style="stroke:#FF0080;stroke-width:6.48"/>
	<line x1="1964.78" y1="772.84" x2="1964.78" y2="724.70" style="stroke:#FF0080;stroke-width:6.48"/>
	<line x1="1964.78" y1="724.70" x2="1974.06" y2="724.70" style="stroke:#FF0080;stroke-width:6.48"/>
	<line x1="1974.06" y1="724.70" x2="1974.06" y2="724.70" style="stroke:#FF0080;stroke-width:6.48"/>
	<path d="" stroke-linecap="round" stroke-linejoin="round" style="fill:none;stroke:#FF0080;stroke-width:6.48"/>
	<line x1="837.66" y1="1847.89" x2="895.21" y2="1847.89" style="stroke:#A0522D;stroke-width:6.48"/>
	<line x1="921.20" y1="1847.89" x2="924.04" y2="1847.89" style="stroke:#A0522D;stroke-width:6.48"/>
	<line x1="950.03" y1="1847.89" x2="1007.57" y2="1847.89" style="stroke:#A0522D;stroke-width:6.48"/>
	<line x1="1033.56" y1="1847.89" x2="1036.41" y2="1847.89" style="stroke:#A0522D;stroke-width:6.48"/>
	<line x1="1062.39" y1="1847.89" x2="1107.69" y2="1847.89" style="stroke:#A0522D;stroke-width:6.48"/>
	<line x1="1107.69" y1="1847.89" x2="1107.69" y2="1835.64" style="stroke:#A0522D;stroke-width:6.48"/>
	<line x1="1107.69" y1="1809.65" x2="1107.69" y2="1806.81" style="stroke:#A0522D;stroke-width:6.48"/>
	<line x1="1107.69" y1="1780.82" x2="1107.69" y2="1723.27" style="stroke:#A0522D;stroke-width:6.48"/>
	<line x1="1107.69" y1="1697.28" x2="1107.69" y2="1694.44" style="stroke:#A0522D;stroke-width:6.48"/>
	<line x1="1107.69" y1="1668.45" x2="1107.69" y2="1611.65" style="stroke:#A0522D;stroke-width:6.48"/>
	<line x1="1107.69" y1="1611.65" x2="1108.43" y2="1611.65" style="stroke:#A0522D;stroke-width:6.48"/>
	<line x1="1134.42" y1="1611.65" x2="1137.26" y2="1611.65" style="stroke:#A0522D;stroke-width:6.48"/>
	<line x1="1163.25" y1="1611.65" x2="1220.79" y2="1611.65" style="stroke:#A0522D;stroke-width:6.48"/>
	<line x1="1246.78" y1="1611.65" x2="1249.63" y2="1611.65" style="stroke:#A0522D;stroke-width:6.48"/>
	<line x1="1275.49" y1="1611.65" x2="1333.16" y2="1611.65" style="stroke:#A0522D;stroke-width:6.48"/>
	<line x1="1359.02" y1="1611.65" x2="1361.99" y2="1611.65" style="stroke:#A0522D;stroke-width:6.48"/>
	<line x1="1387.86" y1="1611.65" x2="1396.52" y2="1611.65" style="stroke:#A0522D;stroke-width:6.48"/>
	<line x1="1396.52" y1="1611.65" x2="1396.52" y2="1562.76" style="stroke:#A0522D;stroke-width:6.48"/>
	<line x1="1396.52" y1="1536.78" x2="1396.52" y2="1533.93" style="stroke:#A0522D;stroke-width:6.48"/>
	<line x1="1396.52" y1="1507.94" x2="1396.52" y2="1493.59" style="stroke:#A0522D;stroke-width:6.48"/>
	<line x1="1396.52" y1="1493.59" x2="1433.77" y2="1493.59" style="stroke:#A0522D;stroke-width:6.48"/>
	<line x1="1433.77" y1="1493.59" x2="1433.77" y2="1493.59" style="stroke:#A0522D;stroke-width:6.48"/>
	<line x1="1433.77" y1="1493.59" x2="1439.71" y2="1493.59" style="stroke:#A0522D;stroke-width:6.48"/>
	<line x1="1465.69" y1="1493.59" x2="1468.54" y2="1493.59" style="stroke:#A0522D;stroke-width:6.48"/>
	<line x1="1494.53" y1="1493.59" x2="1552.07" y2="1493.59" style="stroke:#A0522D;stroke-width:6.48"/>
	<line x1="1578.06" y1="1493.59" x2="1580.91" y2="1493.59" style="stroke:#A0522D;stroke-width:6.48"/>
	<line x1="1606.89" y1="1493.59" x2="1664.44" y2="1493.59" style="stroke:#A0522D;stroke-width:6.48"/>
	<line x1="1675.95" y1="1479.11" x2="1675.95" y2="1476.26" style="stroke:#A0522D;stroke-width:6.48"/>
	<line x1="1675.95" y1="1450.40" x2="1675.95" y2="1392.73" style="stroke:#A0522D;stroke-width:6.48"/>
	<line x1="1675.95" y1="1366.86" x2="1675.95" y2="1363.89" style="stroke:#A0522D;stroke-width:6.48"/>
	<line x1="1675.95" y1="1338.03" x2="1675.95" y2="1280.36" style="stroke:#A0522D;stroke-width:6.48"/>
	<line x1="1675.95" y1="1254.49" x2="1675.95" y2="1251.65" style="stroke:#A0522D;stroke-width:6.48"/>
	<line x1="1676.94" y1="1226.65" x2="1734.48" y2="1226.65" style="stroke:#A0522D;stroke-width:6.48"/>
	<line x1="1760.47" y1="1226.65" x2="1763.31" y2="1226.65" style="stroke:#A0522D;stroke-width:6.48"/>
	<line x1="1789.30" y1="1226.65" x2="1846.85" y2="1226.65" style="stroke:#A0522D;stroke-width:6.48"/>
	<line x1="1872.83" y1="1226.65" x2="1875.68" y2="1226.65" style="stroke:#A0522D;stroke-width:6.48"/>
	<line x1="1901.54" y1="1226.65" x2="1959.21" y2="1226.65" style="stroke:#A0522D;stroke-width:6.48"/>
	<line x1="1964.78" y1="1206.23" x2="1964.78" y2="1203.38" style="stroke:#A0522D;stroke-width:6.48"/>
	<line x1="1964.78" y1="1177.39" x2="1964.78" y2="1119.85" style="stroke:#A0522D;stroke-width:6.48"/>
	<line x1="1964.78" y1="1093.98" x2="1964.78" y2="1091.01" style="stroke:#A0522D;stroke-width:6.48"/>
	<line x1="1964.78" y1="1065.15" x2="1964.78" y2="1007.48" style="stroke:#A0522D;stroke-width:6.48"/>
	<line x1="1964.78" y1="981.62" x2="1964.78" y2="978.77" style="stroke:#A0522D;stroke-width:6.48"/>
	<line x1="1964.78" y1="952.78" x2="1964.78" y2="895.24" style="stroke:#A0522D;stroke-width:6.48"/>
	<line x1="1964.78" y1="869.25" x2="1964.78" y2="866.40" style="stroke:#A0522D;stroke-width:6.48"/>
	<line x1="1964.78" y1="840.41" x2="1964.78" y2="782.87" style="stroke:#A0522D;stroke-width:6.48"/>
	<path d="" stroke-linecap="round" stroke-linejoin="round" style="fill:none;stroke:#A0522D;stroke-width:6.48"/>
	<path d=" M837.66 1881.06 L1107.69 1881.06 L1107.69 1498.41 L1396.52 1498.41 L1396.52 1285.80 L1675.95 1285.80 L1675.95 988.17 L1964.78 988.17 L1964.78 775.69 L1974.06 775.69 L1974.06 775.69" stroke-linecap="round" stroke-linejoin="round" style="fill:none;stroke:#938DD2;stroke-width:6.48"/>
	<line x1="659.71" y1="2013.48" x2="659.71" y2="414.45" style="stroke:#000000;stroke-width:4.32"/>
	<line x1="659.71" y1="1965.95" x2="629.76" y2="1965.95" style="stroke:#000000;stroke-width:4.32"/>
	<text x="614.79" y="1992.23" style="font-family:'Helvetica';font-size:74.99px;fill:#000000" text-anchor="end">0.000</text>
	<line x1="659.71" y1="1958.90" x2="629.76" y2="1958.90" style="stroke:#000000;stroke-width:4.32"/>
	<text x="614.79" y="1985.18" style="font-family:'Helvetica';font-size:74.99px;fill:#000000" text-anchor="end">0.001</text>
	<line x1="659.71" y1="1951.85" x2="629.76" y2="1951.85" style="stroke:#000000;stroke-width:4.32"/>
	<text x="614.79" y="1978.13" style="font-family:'Helvetica';font-size:74.99px;fill:#000000" text-anchor="end">0.002</text>
	<line x1="659.71" y1="1944.79" x2="629.76" y2="1944.79" style="stroke:#000000;stroke-width:4.32"/>
	<text x="614.79" y="1971.07" style="font-family:'Helvetica';font-size:74.99px;fill:#000000" text-anchor="end">0.003</text>
	<line x1="659.71" y1="1937.74" x2="629.76" y2="1937.74" style="stroke:#000000;stroke-width:4.32"/>
	<text x="614.79" y="1964.02" style="font-family:'Helvetica';font-size:74.99px;fill:#000000" text-anchor="end">0.004</text>
	<line x1="659.71" y1="1930.68" x2="629.76" y2="1930.68" style="stroke:#000000;stroke-width:4.32"/>
	<text x="614.79" y="1956.96" style="font-family:'Helvetica';font-size:74.99px;fill:#000000" text-anchor="end">0.005</text>
	<line x1="659.71" y1="2013.48" x2="2021.58" y2="2013.48" style="stroke:#000000;stroke-width:4.32"/>
	<line x1="707.23" y1="2013.48" x2="707.23" y2="2043.55" style="stroke:#000000;stroke-width:4.32"/>
	<text x="707.23" y="2110.96" style="font-family:'Helvetica';font-size:74.99px;fill:#000000" text-anchor="middle">1 Feb 20</text>
	<line x1="977.38" y1="2013.48" x2="977.38" y2="2043.55" style="stroke:#000000;stroke-width:4.32"/>
	<text x="977.38" y="2110.96" style="font-family:'Helvetica';font-size:74.99px;fill:#000000" text-anchor="middle">1 Mar 20</text>
	<line x1="1266.21" y1="2013.48" x2="1266.21" y2="2043.55" style="stroke:#000000;stroke-width:4.32"/>
	<text x="1266.21" y="2110.96" style="font-family:'Helvetica';font-size:74.99px;fill:#000000" text-anchor="middle">1 Apr 20</text>
	<line x1="1489.70" y1="2013.48" x2="1489.70" y2="2043.55" style="stroke:#000000;stroke-width:4.32"/>
	<text x="1489.70" y="2110.96" style="font-family:'Helvetica';font-size:74.99px;fill:#000000" text-anchor="middle">25 Apr 20</text>
	<text x="1340.71" y="2193.38" style="font-family:'Helvetica';font-size:74.99px;fill:#000000" text-anchor="middle"> </text>
	<text x="1340.71" y="369.91" style="font-family:'Helvetica';font-size:104.94px;fill:#1E2D53" text-anchor="middle">Female</text>
	<rect x="2097.19" y="207.91" width="1799.33" height="2098.62" style="fill:#EAF2F3"/>
	<rect x="2099.35" y="210.07" width="1795.01" height="2094.30" style="fill:none;stroke:#EAF2F3;stroke-width:4.32"/>
	<rect x="2459.04" y="414.45" width="1361.87" height="1599.02" style="fill:#FFFFFF"/>
	<rect x="2461.20" y="416.61" width="1357.55" height="1594.70" style="fill:none;stroke:#FFFFFF;stroke-width:4.32"/>
	<line x1="2459.04" y1="1965.95" x2="3820.91" y2="1965.95" style="stroke:#EAF2F3;stroke-width:6.48"/>
	<line x1="2459.04" y1="1958.90" x2="3820.91" y2="1958.90" style="stroke:#EAF2F3;stroke-width:6.48"/>
	<line x1="2459.04" y1="1951.72" x2="3820.91" y2="1951.72" style="stroke:#EAF2F3;stroke-width:6.48"/>
	<line x1="2459.04" y1="1944.67" x2="3820.91" y2="1944.67" style="stroke:#EAF2F3;stroke-width:6.48"/>
	<line x1="2459.04" y1="1937.61" x2="3820.91" y2="1937.61" style="stroke:#EAF2F3;stroke-width:6.48"/>
	<line x1="2459.04" y1="1930.44" x2="3820.91" y2="1930.44" style="stroke:#EAF2F3;stroke-width:6.48"/>
	<path d=" M2636.86 1731.07 L2907.01 1731.07 L2907.01 1480.34 L3195.84 1480.34 L3195.84 1245.34 L3475.27 1245.34 L3475.27 963.30 L3614.99 963.30 L3614.99 963.30 L3763.98 963.30 L3763.98 727.80 L3773.39 727.80 L3773.39 727.80" stroke-linecap="round" stroke-linejoin="round" style="fill:none;stroke:#FF0000;stroke-width:6.48"/>
	<path d=" M2636.86 1654.47 L2907.01 1654.47 L2907.01 1308.20 L2934.98 1308.20 L2934.98 1308.20 L3195.84 1308.20 L3195.84 1099.92 L3475.27 1099.92 L3475.27 804.90 L3633.67 804.90 L3633.67 804.90 L3763.98 804.90 L3763.98 613.45 L3773.39 613.45 L3773.39 613.45" stroke-linecap="round" stroke-linejoin="round" style="fill:none;stroke:#0000FF;stroke-width:6.48"/>
	<line x1="2636.86" y1="1671.91" x2="2694.41" y2="1671.91" style="stroke:#FF7F00;stroke-width:6.48"/>
	<line x1="2723.24" y1="1671.91" x2="2780.79" y2="1671.91" style="stroke:#FF7F00;stroke-width:6.48"/>
	<line x1="2809.62" y1="1671.91" x2="2823.23" y2="1671.91" style="stroke:#FF7F00;stroke-width:6.48"/>
	<line x1="2823.23" y1="1671.91" x2="2823.23" y2="1671.91" style="stroke:#FF7F00;stroke-width:6.48"/>
	<line x1="2823.23" y1="1671.91" x2="2867.16" y2="1671.91" style="stroke:#FF7F00;stroke-width:6.48"/>
	<line x1="2896.00" y1="1671.91" x2="2907.01" y2="1671.91" style="stroke:#FF7F00;stroke-width:6.48"/>
	<line x1="2907.01" y1="1671.91" x2="2907.01" y2="1625.26" style="stroke:#FF7F00;stroke-width:6.48"/>
	<line x1="2907.01" y1="1596.55" x2="2907.01" y2="1538.88" style="stroke:#FF7F00;stroke-width:6.48"/>
	<line x1="2907.01" y1="1510.04" x2="2907.01" y2="1505.96" style="stroke:#FF7F00;stroke-width:6.48"/>
	<line x1="2907.01" y1="1505.96" x2="2960.47" y2="1505.96" style="stroke:#FF7F00;stroke-width:6.48"/>
	<line x1="2989.30" y1="1505.96" x2="3046.85" y2="1505.96" style="stroke:#FF7F00;stroke-width:6.48"/>
	<line x1="3075.68" y1="1505.96" x2="3133.23" y2="1505.96" style="stroke:#FF7F00;stroke-width:6.48"/>
	<line x1="3162.06" y1="1505.96" x2="3195.84" y2="1505.96" style="stroke:#FF7F00;stroke-width:6.48"/>
	<line x1="3195.84" y1="1505.96" x2="3195.84" y2="1482.20" style="stroke:#FF7F00;stroke-width:6.48"/>
	<line x1="3195.84" y1="1453.37" x2="3195.84" y2="1395.82" style="stroke:#FF7F00;stroke-width:6.48"/>
	<line x1="3195.84" y1="1366.99" x2="3195.84" y2="1309.44" style="stroke:#FF7F00;stroke-width:6.48"/>
	<line x1="3199.93" y1="1284.69" x2="3257.47" y2="1284.69" style="stroke:#FF7F00;stroke-width:6.48"/>
	<line x1="3286.30" y1="1284.69" x2="3343.85" y2="1284.69" style="stroke:#FF7F00;stroke-width:6.48"/>
	<line x1="3372.68" y1="1284.69" x2="3430.23" y2="1284.69" style="stroke:#FF7F00;stroke-width:6.48"/>
	<line x1="3459.06" y1="1284.69" x2="3475.27" y2="1284.69" style="stroke:#FF7F00;stroke-width:6.48"/>
	<line x1="3475.27" y1="1284.69" x2="3475.27" y2="1243.36" style="stroke:#FF7F00;stroke-width:6.48"/>
	<line x1="3475.27" y1="1214.52" x2="3475.27" y2="1156.97" style="stroke:#FF7F00;stroke-width:6.48"/>
	<line x1="3475.27" y1="1128.14" x2="3475.27" y2="1070.47" style="stroke:#FF7F00;stroke-width:6.48"/>
	<line x1="3478.61" y1="1044.98" x2="3536.16" y2="1044.98" style="stroke:#FF7F00;stroke-width:6.48"/>
	<line x1="3564.99" y1="1044.98" x2="3622.53" y2="1044.98" style="stroke:#FF7F00;stroke-width:6.48"/>
	<line x1="3651.37" y1="1044.98" x2="3708.91" y2="1044.98" style="stroke:#FF7F00;stroke-width:6.48"/>
	<line x1="3737.74" y1="1044.98" x2="3763.98" y2="1044.98" style="stroke:#FF7F00;stroke-width:6.48"/>
	<line x1="3763.98" y1="1044.98" x2="3763.98" y2="1013.67" style="stroke:#FF7F00;stroke-width:6.48"/>
	<line x1="3763.98" y1="984.83" x2="3763.98" y2="927.29" style="stroke:#FF7F00;stroke-width:6.48"/>
	<line x1="3763.98" y1="898.45" x2="3763.98" y2="860.71" style="stroke:#FF7F00;stroke-width:6.48"/>
	<line x1="3763.98" y1="860.71" x2="3773.39" y2="860.71" style="stroke:#FF7F00;stroke-width:6.48"/>
	<line x1="3773.39" y1="860.71" x2="3773.39" y2="860.71" style="stroke:#FF7F00;stroke-width:6.48"/>
	<path d="" stroke-linecap="round" stroke-linejoin="round" style="fill:none;stroke:#FF7F00;stroke-width:6.48"/>
	<line x1="2636.86" y1="1696.91" x2="2694.41" y2="1696.91" style="stroke:#008000;stroke-width:6.48"/>
	<line x1="2723.24" y1="1696.91" x2="2780.79" y2="1696.91" style="stroke:#008000;stroke-width:6.48"/>
	<line x1="2809.62" y1="1696.91" x2="2867.16" y2="1696.91" style="stroke:#008000;stroke-width:6.48"/>
	<line x1="2896.00" y1="1696.91" x2="2907.01" y2="1696.91" style="stroke:#008000;stroke-width:6.48"/>
	<line x1="2907.01" y1="1696.91" x2="2907.01" y2="1650.26" style="stroke:#008000;stroke-width:6.48"/>
	<line x1="2907.01" y1="1621.42" x2="2907.01" y2="1563.88" style="stroke:#008000;stroke-width:6.48"/>
	<line x1="2907.01" y1="1535.04" x2="2907.01" y2="1477.50" style="stroke:#008000;stroke-width:6.48"/>
	<line x1="2907.01" y1="1448.66" x2="2907.01" y2="1394.21" style="stroke:#008000;stroke-width:6.48"/>
	<line x1="2907.01" y1="1394.21" x2="2910.11" y2="1394.21" style="stroke:#008000;stroke-width:6.48"/>
	<line x1="2938.94" y1="1394.21" x2="2996.48" y2="1394.21" style="stroke:#008000;stroke-width:6.48"/>
	<line x1="3025.32" y1="1394.21" x2="3082.86" y2="1394.21" style="stroke:#008000;stroke-width:6.48"/>
	<line x1="3111.69" y1="1394.21" x2="3169.24" y2="1394.21" style="stroke:#008000;stroke-width:6.48"/>
	<line x1="3195.84" y1="1391.98" x2="3195.84" y2="1334.44" style="stroke:#008000;stroke-width:6.48"/>
	<line x1="3195.84" y1="1305.60" x2="3195.84" y2="1248.06" style="stroke:#008000;stroke-width:6.48"/>
	<line x1="3195.84" y1="1219.22" x2="3195.84" y2="1161.55" style="stroke:#008000;stroke-width:6.48"/>
	<line x1="3195.84" y1="1132.84" x2="3195.84" y2="1075.17" style="stroke:#008000;stroke-width:6.48"/>
	<line x1="3195.84" y1="1046.46" x2="3195.84" y2="1041.02" style="stroke:#008000;stroke-width:6.48"/>
	<line x1="3195.84" y1="1041.02" x2="3248.07" y2="1041.02" style="stroke:#008000;stroke-width:6.48"/>
	<line x1="3276.90" y1="1041.02" x2="3334.44" y2="1041.02" style="stroke:#008000;stroke-width:6.48"/>
	<line x1="3363.28" y1="1041.02" x2="3420.82" y2="1041.02" style="stroke:#008000;stroke-width:6.48"/>
	<line x1="3449.66" y1="1041.02" x2="3475.27" y2="1041.02" style="stroke:#008000;stroke-width:6.48"/>
	<line x1="3475.27" y1="1041.02" x2="3475.27" y2="1009.09" style="stroke:#008000;stroke-width:6.48"/>
	<line x1="3475.27" y1="980.25" x2="3475.27" y2="922.71" style="stroke:#008000;stroke-width:6.48"/>
	<line x1="3475.27" y1="893.87" x2="3475.27" y2="856.01" style="stroke:#008000;stroke-width:6.48"/>
	<line x1="3475.27" y1="856.01" x2="3494.95" y2="856.01" style="stroke:#008000;stroke-width:6.48"/>
	<line x1="3523.78" y1="856.01" x2="3581.32" y2="856.01" style="stroke:#008000;stroke-width:6.48"/>
	<line x1="3610.16" y1="856.01" x2="3667.70" y2="856.01" style="stroke:#008000;stroke-width:6.48"/>
	<line x1="3696.54" y1="856.01" x2="3754.08" y2="856.01" style="stroke:#008000;stroke-width:6.48"/>
	<line x1="3763.98" y1="837.07" x2="3763.98" y2="779.53" style="stroke:#008000;stroke-width:6.48"/>
	<line x1="3763.98" y1="750.69" x2="3763.98" y2="693.15" style="stroke:#008000;stroke-width:6.48"/>
	<line x1="3770.79" y1="671.12" x2="3773.39" y2="671.12" style="stroke:#008000;stroke-width:6.48"/>
	<line x1="3773.39" y1="671.12" x2="3773.39" y2="671.12" style="stroke:#008000;stroke-width:6.48"/>
	<path d="" stroke-linecap="round" stroke-linejoin="round" style="fill:none;stroke:#008000;stroke-width:6.48"/>
	<line x1="2636.86" y1="1707.56" x2="2694.41" y2="1707.56" style="stroke:#FF0080;stroke-width:6.48"/>
	<line x1="2720.40" y1="1707.56" x2="2723.24" y2="1707.56" style="stroke:#FF0080;stroke-width:6.48"/>
	<line x1="2749.23" y1="1707.56" x2="2806.77" y2="1707.56" style="stroke:#FF0080;stroke-width:6.48"/>
	<line x1="2832.76" y1="1707.56" x2="2835.61" y2="1707.56" style="stroke:#FF0080;stroke-width:6.48"/>
	<line x1="2861.59" y1="1707.56" x2="2907.01" y2="1707.56" style="stroke:#FF0080;stroke-width:6.48"/>
	<line x1="2907.01" y1="1707.56" x2="2907.01" y2="1695.43" style="stroke:#FF0080;stroke-width:6.48"/>
	<line x1="2907.01" y1="1669.44" x2="2907.01" y2="1666.59" style="stroke:#FF0080;stroke-width:6.48"/>
	<line x1="2907.01" y1="1640.61" x2="2907.01" y2="1583.06" style="stroke:#FF0080;stroke-width:6.48"/>
	<line x1="2907.01" y1="1557.19" x2="2907.01" y2="1554.22" style="stroke:#FF0080;stroke-width:6.48"/>
	<line x1="2907.01" y1="1528.36" x2="2907.01" y2="1470.69" style="stroke:#FF0080;stroke-width:6.48"/>
	<line x1="2907.01" y1="1444.83" x2="2907.01" y2="1441.98" style="stroke:#FF0080;stroke-width:6.48"/>
	<line x1="2907.01" y1="1415.99" x2="2907.01" y2="1358.45" style="stroke:#FF0080;stroke-width:6.48"/>
	<line x1="2907.01" y1="1332.46" x2="2907.01" y2="1329.61" style="stroke:#FF0080;stroke-width:6.48"/>
	<line x1="2907.01" y1="1303.62" x2="2907.01" y2="1246.08" style="stroke:#FF0080;stroke-width:6.48"/>
	<line x1="2924.46" y1="1237.54" x2="2927.31" y2="1237.54" style="stroke:#FF0080;stroke-width:6.48"/>
	<line x1="2953.29" y1="1237.54" x2="3010.84" y2="1237.54" style="stroke:#FF0080;stroke-width:6.48"/>
	<line x1="3036.82" y1="1237.54" x2="3039.67" y2="1237.54" style="stroke:#FF0080;stroke-width:6.48"/>
	<line x1="3065.53" y1="1237.54" x2="3123.20" y2="1237.54" style="stroke:#FF0080;stroke-width:6.48"/>
	<line x1="3149.07" y1="1237.54" x2="3152.04" y2="1237.54" style="stroke:#FF0080;stroke-width:6.48"/>
	<line x1="3177.90" y1="1237.54" x2="3195.84" y2="1237.54" style="stroke:#FF0080;stroke-width:6.48"/>
	<line x1="3195.84" y1="1237.54" x2="3195.84" y2="1197.81" style="stroke:#FF0080;stroke-width:6.48"/>
	<line x1="3195.84" y1="1171.95" x2="3195.84" y2="1169.10" style="stroke:#FF0080;stroke-width:6.48"/>
	<line x1="3195.84" y1="1143.11" x2="3195.84" y2="1085.57" style="stroke:#FF0080;stroke-width:6.48"/>
	<line x1="3195.84" y1="1059.58" x2="3195.84" y2="1056.73" style="stroke:#FF0080;stroke-width:6.48"/>
	<line x1="3195.84" y1="1030.75" x2="3195.84" y2="1026.04" style="stroke:#FF0080;stroke-width:6.48"/>
	<line x1="3195.84" y1="1026.04" x2="3248.68" y2="1026.04" style="stroke:#FF0080;stroke-width:6.48"/>
	<line x1="3274.67" y1="1026.04" x2="3277.52" y2="1026.04" style="stroke:#FF0080;stroke-width:6.48"/>
	<line x1="3303.51" y1="1026.04" x2="3361.05" y2="1026.04" style="stroke:#FF0080;stroke-width:6.48"/>
	<line x1="3387.04" y1="1026.04" x2="3389.88" y2="1026.04" style="stroke:#FF0080;stroke-width:6.48"/>
	<line x1="3415.87" y1="1026.04" x2="3473.41" y2="1026.04" style="stroke:#FF0080;stroke-width:6.48"/>
	<line x1="3475.27" y1="1002.04" x2="3475.27" y2="999.06" style="stroke:#FF0080;stroke-width:6.48"/>
	<line x1="3475.27" y1="973.20" x2="3475.27" y2="915.65" style="stroke:#FF0080;stroke-width:6.48"/>
	<line x1="3475.27" y1="889.67" x2="3475.27" y2="886.82" style="stroke:#FF0080;stroke-width:6.48"/>
	<line x1="3475.27" y1="860.83" x2="3475.27" y2="803.29" style="stroke:#FF0080;stroke-width:6.48"/>
	<line x1="3475.27" y1="777.30" x2="3475.27" y2="774.45" style="stroke:#FF0080;stroke-width:6.48"/>
	<line x1="3475.27" y1="748.46" x2="3475.27" y2="690.92" style="stroke:#FF0080;stroke-width:6.48"/>
	<line x1="3483.81" y1="673.47" x2="3486.66" y2="673.47" style="stroke:#FF0080;stroke-width:6.48"/>
	<line x1="3512.64" y1="673.47" x2="3570.19" y2="673.47" style="stroke:#FF0080;stroke-width:6.48"/>
	<line x1="3596.18" y1="673.47" x2="3599.02" y2="673.47" style="stroke:#FF0080;stroke-width:6.48"/>
	<line x1="3625.01" y1="673.47" x2="3682.55" y2="673.47" style="stroke:#FF0080;stroke-width:6.48"/>
	<line x1="3708.54" y1="673.47" x2="3711.39" y2="673.47" style="stroke:#FF0080;stroke-width:6.48"/>
	<line x1="3737.37" y1="673.47" x2="3763.98" y2="673.47" style="stroke:#FF0080;stroke-width:6.48"/>
	<line x1="3763.98" y1="673.47" x2="3763.98" y2="642.53" style="stroke:#FF0080;stroke-width:6.48"/>
	<line x1="3763.98" y1="616.67" x2="3763.98" y2="613.82" style="stroke:#FF0080;stroke-width:6.48"/>
	<line x1="3763.98" y1="587.83" x2="3763.98" y2="530.29" style="stroke:#FF0080;stroke-width:6.48"/>
	<line x1="3763.98" y1="504.30" x2="3763.98" y2="501.45" style="stroke:#FF0080;stroke-width:6.48"/>
	<line x1="3763.98" y1="475.46" x2="3763.98" y2="461.97" style="stroke:#FF0080;stroke-width:6.48"/>
	<line x1="3763.98" y1="461.97" x2="3773.39" y2="461.97" style="stroke:#FF0080;stroke-width:6.48"/>
	<line x1="3773.39" y1="461.97" x2="3773.39" y2="461.97" style="stroke:#FF0080;stroke-width:6.48"/>
	<path d="" stroke-linecap="round" stroke-linejoin="round" style="fill:none;stroke:#FF0080;stroke-width:6.48"/>
	<line x1="2636.86" y1="1799.75" x2="2694.41" y2="1799.75" style="stroke:#A0522D;stroke-width:6.48"/>
	<line x1="2720.40" y1="1799.75" x2="2723.24" y2="1799.75" style="stroke:#A0522D;stroke-width:6.48"/>
	<line x1="2749.23" y1="1799.75" x2="2806.77" y2="1799.75" style="stroke:#A0522D;stroke-width:6.48"/>
	<line x1="2832.76" y1="1799.75" x2="2835.61" y2="1799.75" style="stroke:#A0522D;stroke-width:6.48"/>
	<line x1="2861.59" y1="1799.75" x2="2907.01" y2="1799.75" style="stroke:#A0522D;stroke-width:6.48"/>
	<line x1="2907.01" y1="1799.75" x2="2907.01" y2="1787.62" style="stroke:#A0522D;stroke-width:6.48"/>
	<line x1="2907.01" y1="1761.64" x2="2907.01" y2="1758.79" style="stroke:#A0522D;stroke-width:6.48"/>
	<line x1="2907.01" y1="1732.80" x2="2907.01" y2="1675.26" style="stroke:#A0522D;stroke-width:6.48"/>
	<line x1="2907.01" y1="1649.27" x2="2907.01" y2="1646.42" style="stroke:#A0522D;stroke-width:6.48"/>
	<line x1="2907.01" y1="1620.56" x2="2907.01" y2="1562.89" style="stroke:#A0522D;stroke-width:6.48"/>
	<line x1="2920.13" y1="1550.14" x2="2922.97" y2="1550.14" style="stroke:#A0522D;stroke-width:6.48"/>
	<line x1="2948.96" y1="1550.14" x2="3006.51" y2="1550.14" style="stroke:#A0522D;stroke-width:6.48"/>
	<line x1="3032.49" y1="1550.14" x2="3035.34" y2="1550.14" style="stroke:#A0522D;stroke-width:6.48"/>
	<line x1="3061.33" y1="1550.14" x2="3118.87" y2="1550.14" style="stroke:#A0522D;stroke-width:6.48"/>
	<line x1="3144.86" y1="1550.14" x2="3147.70" y2="1550.14" style="stroke:#A0522D;stroke-width:6.48"/>
	<line x1="3173.69" y1="1550.14" x2="3195.84" y2="1550.14" style="stroke:#A0522D;stroke-width:6.48"/>
	<line x1="3195.84" y1="1550.14" x2="3195.84" y2="1514.75" style="stroke:#A0522D;stroke-width:6.48"/>
	<line x1="3195.84" y1="1488.76" x2="3195.84" y2="1485.91" style="stroke:#A0522D;stroke-width:6.48"/>
	<line x1="3195.84" y1="1459.92" x2="3195.84" y2="1402.38" style="stroke:#A0522D;stroke-width:6.48"/>
	<line x1="3195.84" y1="1376.39" x2="3195.84" y2="1373.54" style="stroke:#A0522D;stroke-width:6.48"/>
	<line x1="3195.84" y1="1347.56" x2="3195.84" y2="1290.01" style="stroke:#A0522D;stroke-width:6.48"/>
	<line x1="3195.84" y1="1264.15" x2="3195.84" y2="1261.18" style="stroke:#A0522D;stroke-width:6.48"/>
	<line x1="3195.84" y1="1235.31" x2="3195.84" y2="1189.77" style="stroke:#A0522D;stroke-width:6.48"/>
	<line x1="3195.84" y1="1189.77" x2="3207.85" y2="1189.77" style="stroke:#A0522D;stroke-width:6.48"/>
	<line x1="3233.84" y1="1189.77" x2="3236.68" y2="1189.77" style="stroke:#A0522D;stroke-width:6.48"/>
	<line x1="3262.67" y1="1189.77" x2="3320.21" y2="1189.77" style="stroke:#A0522D;stroke-width:6.48"/>
	<line x1="3346.20" y1="1189.77" x2="3349.05" y2="1189.77" style="stroke:#A0522D;stroke-width:6.48"/>
	<line x1="3375.03" y1="1189.77" x2="3432.58" y2="1189.77" style="stroke:#A0522D;stroke-width:6.48"/>
	<line x1="3458.57" y1="1189.77" x2="3461.41" y2="1189.77" style="stroke:#A0522D;stroke-width:6.48"/>
	<line x1="3475.27" y1="1177.64" x2="3475.27" y2="1120.10" style="stroke:#A0522D;stroke-width:6.48"/>
	<line x1="3475.27" y1="1094.11" x2="3475.27" y2="1091.26" style="stroke:#A0522D;stroke-width:6.48"/>
	<line x1="3475.27" y1="1065.40" x2="3475.27" y2="1007.73" style="stroke:#A0522D;stroke-width:6.48"/>
	<line x1="3475.27" y1="981.86" x2="3475.27" y2="979.02" style="stroke:#A0522D;stroke-width:6.48"/>
	<line x1="3475.27" y1="953.03" x2="3475.27" y2="940.28" style="stroke:#A0522D;stroke-width:6.48"/>
	<line x1="3475.27" y1="940.28" x2="3520.19" y2="940.28" style="stroke:#A0522D;stroke-width:6.48"/>
	<line x1="3546.06" y1="940.28" x2="3548.90" y2="940.28" style="stroke:#A0522D;stroke-width:6.48"/>
	<line x1="3574.89" y1="940.28" x2="3632.43" y2="940.28" style="stroke:#A0522D;stroke-width:6.48"/>
	<line x1="3658.42" y1="940.28" x2="3661.27" y2="940.28" style="stroke:#A0522D;stroke-width:6.48"/>
	<line x1="3687.26" y1="940.28" x2="3744.80" y2="940.28" style="stroke:#A0522D;stroke-width:6.48"/>
	<line x1="3763.98" y1="933.48" x2="3763.98" y2="930.63" style="stroke:#A0522D;stroke-width:6.48"/>
	<line x1="3763.98" y1="904.64" x2="3763.98" y2="847.10" style="stroke:#A0522D;stroke-width:6.48"/>
	<line x1="3763.98" y1="821.11" x2="3763.98" y2="818.26" style="stroke:#A0522D;stroke-width:6.48"/>
	<line x1="3763.98" y1="792.40" x2="3763.98" y2="734.73" style="stroke:#A0522D;stroke-width:6.48"/>
	<line x1="3763.98" y1="708.86" x2="3763.98" y2="705.89" style="stroke:#A0522D;stroke-width:6.48"/>
	<path d="" stroke-linecap="round" stroke-linejoin="round" style="fill:none;stroke:#A0522D;stroke-width:6.48"/>
	<path d=" M2636.86 1873.26 L2907.01 1873.26 L2907.01 1548.53 L3195.84 1548.53 L3195.84 1131.11 L3475.27 1131.11 L3475.27 667.28 L3763.98 667.28 L3763.98 528.06 L3773.39 528.06 L3773.39 528.06" stroke-linecap="round" stroke-linejoin="round" style="fill:none;stroke:#938DD2;stroke-width:6.48"/>
	<line x1="2459.04" y1="2013.48" x2="2459.04" y2="414.45" style="stroke:#000000;stroke-width:4.32"/>
	<line x1="2459.04" y1="1965.95" x2="2429.09" y2="1965.95" style="stroke:#000000;stroke-width:4.32"/>
	<text x="2413.99" y="1992.23" style="font-family:'Helvetica';font-size:74.99px;fill:#000000" text-anchor="end">0.000</text>
	<line x1="2459.04" y1="1958.90" x2="2429.09" y2="1958.90" style="stroke:#000000;stroke-width:4.32"/>
	<text x="2413.99" y="1985.18" style="font-family:'Helvetica';font-size:74.99px;fill:#000000" text-anchor="end">0.001</text>
	<line x1="2459.04" y1="1951.72" x2="2429.09" y2="1951.72" style="stroke:#000000;stroke-width:4.32"/>
	<text x="2413.99" y="1978.00" style="font-family:'Helvetica';font-size:74.99px;fill:#000000" text-anchor="end">0.002</text>
	<line x1="2459.04" y1="1944.67" x2="2429.09" y2="1944.67" style="stroke:#000000;stroke-width:4.32"/>
	<text x="2413.99" y="1970.95" style="font-family:'Helvetica';font-size:74.99px;fill:#000000" text-anchor="end">0.003</text>
	<line x1="2459.04" y1="1937.61" x2="2429.09" y2="1937.61" style="stroke:#000000;stroke-width:4.32"/>
	<text x="2413.99" y="1963.89" style="font-family:'Helvetica';font-size:74.99px;fill:#000000" text-anchor="end">0.004</text>
	<line x1="2459.04" y1="1930.44" x2="2429.09" y2="1930.44" style="stroke:#000000;stroke-width:4.32"/>
	<text x="2413.99" y="1956.72" style="font-family:'Helvetica';font-size:74.99px;fill:#000000" text-anchor="end">0.005</text>
	<line x1="2459.04" y1="2013.48" x2="3820.91" y2="2013.48" style="stroke:#000000;stroke-width:4.32"/>
	<line x1="2506.56" y1="2013.48" x2="2506.56" y2="2043.55" style="stroke:#000000;stroke-width:4.32"/>
	<text x="2506.56" y="2110.96" style="font-family:'Helvetica';font-size:74.99px;fill:#000000" text-anchor="middle">1 Feb 20</text>
	<line x1="2776.70" y1="2013.48" x2="2776.70" y2="2043.55" style="stroke:#000000;stroke-width:4.32"/>
	<text x="2776.70" y="2110.96" style="font-family:'Helvetica';font-size:74.99px;fill:#000000" text-anchor="middle">1 Mar 20</text>
	<line x1="3065.41" y1="2013.48" x2="3065.41" y2="2043.55" style="stroke:#000000;stroke-width:4.32"/>
	<text x="3065.41" y="2110.96" style="font-family:'Helvetica';font-size:74.99px;fill:#000000" text-anchor="middle">1 Apr 20</text>
	<line x1="3289.03" y1="2013.48" x2="3289.03" y2="2043.55" style="stroke:#000000;stroke-width:4.32"/>
	<text x="3289.03" y="2110.96" style="font-family:'Helvetica';font-size:74.99px;fill:#000000" text-anchor="middle">25 Apr 20</text>
	<text x="3140.03" y="2193.38" style="font-family:'Helvetica';font-size:74.99px;fill:#000000" text-anchor="middle">Days since 1 Feb 2020</text>
	<text x="3140.03" y="369.91" style="font-family:'Helvetica';font-size:104.94px;fill:#1E2D53" text-anchor="middle">Male</text>
	<text x="150.62" y="1257.22" style="font-family:'Helvetica';font-size:99.99px;fill:#000000" transform="rotate(-90 150.62,1257.22)" text-anchor="middle">Cumulative probability</text>
	<text x="250.61" y="1257.22" style="font-family:'Helvetica';font-size:99.99px;fill:#000000" transform="rotate(-90 250.61,1257.22)" text-anchor="middle">TPP Covid-19 case</text>
	<text x="2097.19" y="157.51" style="font-family:'Helvetica';font-size:110.01px;fill:#000000" text-anchor="middle"> </text>
	<rect x="867.12" y="2341.18" width="2460.27" height="440.94" style="fill:#FFFFFF"/>
	<rect x="870.00" y="2344.06" width="2454.51" height="435.18" style="fill:none;stroke:#000000;stroke-width:5.76"/>
	<line x1="910.30" y1="2548.83" x2="1284.65" y2="2548.83" style="stroke:#FF0000;stroke-width:8.64"/>
	<line x1="910.30" y1="2688.92" x2="1284.65" y2="2688.92" style="stroke:#0000FF;stroke-width:8.64"/>
	<line x1="1748.22" y1="2548.83" x2="1805.76" y2="2548.83" style="stroke:#FF7F00;stroke-width:8.64"/>
	<line x1="1834.59" y1="2548.83" x2="1892.14" y2="2548.83" style="stroke:#FF7F00;stroke-width:8.64"/>
	<line x1="1920.97" y1="2548.83" x2="1978.52" y2="2548.83" style="stroke:#FF7F00;stroke-width:8.64"/>
	<line x1="2007.35" y1="2548.83" x2="2064.89" y2="2548.83" style="stroke:#FF7F00;stroke-width:8.64"/>
	<line x1="2093.73" y1="2548.83" x2="2122.56" y2="2548.83" style="stroke:#FF7F00;stroke-width:8.64"/>
	<line x1="1748.22" y1="2688.92" x2="1805.76" y2="2688.92" style="stroke:#008000;stroke-width:8.64"/>
	<line x1="1834.59" y1="2688.92" x2="1892.14" y2="2688.92" style="stroke:#008000;stroke-width:8.64"/>
	<line x1="1920.97" y1="2688.92" x2="1978.52" y2="2688.92" style="stroke:#008000;stroke-width:8.64"/>
	<line x1="2007.35" y1="2688.92" x2="2064.89" y2="2688.92" style="stroke:#008000;stroke-width:8.64"/>
	<line x1="2093.73" y1="2688.92" x2="2122.56" y2="2688.92" style="stroke:#008000;stroke-width:8.64"/>
	<line x1="2586.25" y1="2548.83" x2="2643.80" y2="2548.83" style="stroke:#FF0080;stroke-width:8.64"/>
	<line x1="2669.78" y1="2548.83" x2="2672.63" y2="2548.83" style="stroke:#FF0080;stroke-width:8.64"/>
	<line x1="2698.62" y1="2548.83" x2="2756.16" y2="2548.83" style="stroke:#FF0080;stroke-width:8.64"/>
	<line x1="2782.15" y1="2548.83" x2="2784.99" y2="2548.83" style="stroke:#FF0080;stroke-width:8.64"/>
	<line x1="2810.98" y1="2548.83" x2="2868.53" y2="2548.83" style="stroke:#FF0080;stroke-width:8.64"/>
	<line x1="2894.51" y1="2548.83" x2="2897.36" y2="2548.83" style="stroke:#FF0080;stroke-width:8.64"/>
	<line x1="2923.22" y1="2548.83" x2="2960.59" y2="2548.83" style="stroke:#FF0080;stroke-width:8.64"/>
	<line x1="2586.25" y1="2688.92" x2="2643.80" y2="2688.92" style="stroke:#A0522D;stroke-width:8.64"/>
	<line x1="2669.78" y1="2688.92" x2="2672.63" y2="2688.92" style="stroke:#A0522D;stroke-width:8.64"/>
	<line x1="2698.62" y1="2688.92" x2="2756.16" y2="2688.92" style="stroke:#A0522D;stroke-width:8.64"/>
	<line x1="2782.15" y1="2688.92" x2="2784.99" y2="2688.92" style="stroke:#A0522D;stroke-width:8.64"/>
	<line x1="2810.98" y1="2688.92" x2="2868.53" y2="2688.92" style="stroke:#A0522D;stroke-width:8.64"/>
	<line x1="2894.51" y1="2688.92" x2="2897.36" y2="2688.92" style="stroke:#A0522D;stroke-width:8.64"/>
	<line x1="2923.22" y1="2688.92" x2="2960.59" y2="2688.92" style="stroke:#A0522D;stroke-width:8.64"/>
	<text x="1344.67" y="2576.85" style="font-family:'Helvetica';font-size:79.94px;fill:#000000">18-&lt;40</text>
	<text x="1344.67" y="2716.94" style="font-family:'Helvetica';font-size:79.94px;fill:#000000">40-&lt;50</text>
	<text x="2182.58" y="2576.85" style="font-family:'Helvetica';font-size:79.94px;fill:#000000">50-&lt;60</text>
	<text x="2182.58" y="2716.94" style="font-family:'Helvetica';font-size:79.94px;fill:#000000">60-&lt;70</text>
	<text x="3020.61" y="2576.85" style="font-family:'Helvetica';font-size:79.94px;fill:#000000">70-&lt;80</text>
	<text x="3020.61" y="2716.94" style="font-family:'Helvetica';font-size:79.94px;fill:#000000">80+</text>
	<text x="2097.19" y="2448.93" style="font-family:'Helvetica';font-size:79.94px;fill:#000000" text-anchor="middle">Age group</text>
</svg>
