<?xml version="1.0" encoding="UTF-8" standalone="no"?>
<!-- This is a Stata 16.1 generated SVG file (http://www.stata.com) -->

<svg version="1.1" width="5.50in" height="4.00in" viewBox="0 0 3960 2880" xmlns="http://www.w3.org/2000/svg" xmlns:xlink="http://www.w3.org/1999/xlink">
	<desc>Stata Graph - Graph</desc>
	<rect x="0" y="0" width="3960" height="2880" style="fill:#EAF2F3;stroke:none"/>
	<rect x="0.00" y="0.00" width="3959.88" height="2880.00" style="fill:#EAF2F3"/>
	<rect x="2.88" y="2.88" width="3954.12" height="2874.24" style="fill:none;stroke:#EAF2F3;stroke-width:5.76"/>
	<rect x="390.80" y="100.86" width="3468.22" height="2388.33" style="fill:#FFFFFF"/>
	<rect x="393.68" y="103.74" width="3462.46" height="2382.57" style="fill:none;stroke:#FFFFFF;stroke-width:5.76"/>
	<line x1="390.80" y1="4219.51" x2="3859.02" y2="4219.51" style="stroke:#EAF2F3;stroke-width:8.64"/>
	<line x1="390.80" y1="3205.72" x2="3859.02" y2="3205.72" style="stroke:#EAF2F3;stroke-width:8.64"/>
	<line x1="390.80" y1="2191.80" x2="3859.02" y2="2191.80" style="stroke:#EAF2F3;stroke-width:8.64"/>
	<line x1="390.80" y1="1178.01" x2="3859.02" y2="1178.01" style="stroke:#EAF2F3;stroke-width:8.64"/>
	<line x1="390.80" y1="164.22" x2="3859.02" y2="164.22" style="stroke:#EAF2F3;stroke-width:8.64"/>
	<line x1="390.80" y1="872.84" x2="3859.02" y2="872.84" style="stroke:#EAF2F3;stroke-width:8.64"/>
	<line x1="390.80" y1="-319.04" x2="448.35" y2="-319.04" style="stroke:#C10534;stroke-width:8.64"/>
	<line x1="477.18" y1="-319.04" x2="534.72" y2="-319.04" style="stroke:#C10534;stroke-width:8.64"/>
	<line x1="563.56" y1="-319.04" x2="621.23" y2="-319.04" style="stroke:#C10534;stroke-width:8.64"/>
	<line x1="649.93" y1="-319.04" x2="707.60" y2="-319.04" style="stroke:#C10534;stroke-width:8.64"/>
	<line x1="736.44" y1="-319.04" x2="793.98" y2="-319.04" style="stroke:#C10534;stroke-width:8.64"/>
	<line x1="822.81" y1="-319.04" x2="880.36" y2="-319.04" style="stroke:#C10534;stroke-width:8.64"/>
	<line x1="909.19" y1="-319.04" x2="966.74" y2="-319.04" style="stroke:#C10534;stroke-width:8.64"/>
	<line x1="995.57" y1="-319.04" x2="1053.11" y2="-319.04" style="stroke:#C10534;stroke-width:8.64"/>
	<line x1="1081.95" y1="-319.04" x2="1139.49" y2="-319.04" style="stroke:#C10534;stroke-width:8.64"/>
	<line x1="1168.32" y1="-319.04" x2="1225.87" y2="-319.04" style="stroke:#C10534;stroke-width:8.64"/>
	<line x1="1254.70" y1="-319.04" x2="1312.24" y2="-319.04" style="stroke:#C10534;stroke-width:8.64"/>
	<line x1="1341.08" y1="-319.04" x2="1398.62" y2="-319.04" style="stroke:#C10534;stroke-width:8.64"/>
	<line x1="1427.46" y1="-319.04" x2="1485.00" y2="-319.04" style="stroke:#C10534;stroke-width:8.64"/>
	<line x1="1513.83" y1="-319.04" x2="1571.50" y2="-319.04" style="stroke:#C10534;stroke-width:8.64"/>
	<line x1="1600.21" y1="-319.04" x2="1657.88" y2="-319.04" style="stroke:#C10534;stroke-width:8.64"/>
	<line x1="1686.71" y1="-319.04" x2="1744.26" y2="-319.04" style="stroke:#C10534;stroke-width:8.64"/>
	<line x1="1773.09" y1="-319.04" x2="1830.63" y2="-319.04" style="stroke:#C10534;stroke-width:8.64"/>
	<line x1="1859.47" y1="-319.04" x2="1917.01" y2="-319.04" style="stroke:#C10534;stroke-width:8.64"/>
	<line x1="1945.85" y1="-319.04" x2="2003.39" y2="-319.04" style="stroke:#C10534;stroke-width:8.64"/>
	<line x1="2032.22" y1="-319.04" x2="2089.77" y2="-319.04" style="stroke:#C10534;stroke-width:8.64"/>
	<line x1="2118.60" y1="-319.04" x2="2176.14" y2="-319.04" style="stroke:#C10534;stroke-width:8.64"/>
	<line x1="2204.98" y1="-319.04" x2="2262.52" y2="-319.04" style="stroke:#C10534;stroke-width:8.64"/>
	<line x1="2291.36" y1="-319.04" x2="2348.90" y2="-319.04" style="stroke:#C10534;stroke-width:8.64"/>
	<line x1="2377.73" y1="-319.04" x2="2435.40" y2="-319.04" style="stroke:#C10534;stroke-width:8.64"/>
	<line x1="2464.11" y1="-319.04" x2="2521.78" y2="-319.04" style="stroke:#C10534;stroke-width:8.64"/>
	<line x1="2550.49" y1="-319.04" x2="2608.16" y2="-319.04" style="stroke:#C10534;stroke-width:8.64"/>
	<line x1="2636.99" y1="-319.04" x2="2694.53" y2="-319.04" style="stroke:#C10534;stroke-width:8.64"/>
	<line x1="2723.37" y1="-319.04" x2="2780.91" y2="-319.04" style="stroke:#C10534;stroke-width:8.64"/>
	<line x1="2809.74" y1="-319.04" x2="2867.29" y2="-319.04" style="stroke:#C10534;stroke-width:8.64"/>
	<line x1="2896.12" y1="-319.04" x2="2953.66" y2="-319.04" style="stroke:#C10534;stroke-width:8.64"/>
	<line x1="2982.50" y1="-319.04" x2="3040.04" y2="-319.04" style="stroke:#C10534;stroke-width:8.64"/>
	<line x1="3068.88" y1="-319.04" x2="3126.42" y2="-319.04" style="stroke:#C10534;stroke-width:8.64"/>
	<line x1="3155.25" y1="-319.04" x2="3212.80" y2="-319.04" style="stroke:#C10534;stroke-width:8.64"/>
	<line x1="3241.63" y1="-319.04" x2="3299.18" y2="-319.04" style="stroke:#C10534;stroke-width:8.64"/>
	<line x1="3328.01" y1="-319.04" x2="3385.68" y2="-319.04" style="stroke:#C10534;stroke-width:8.64"/>
	<line x1="3414.39" y1="-319.04" x2="3472.05" y2="-319.04" style="stroke:#C10534;stroke-width:8.64"/>
	<line x1="3500.76" y1="-319.04" x2="3558.43" y2="-319.04" style="stroke:#C10534;stroke-width:8.64"/>
	<line x1="3587.26" y1="-319.04" x2="3644.81" y2="-319.04" style="stroke:#C10534;stroke-width:8.64"/>
	<line x1="3673.64" y1="-319.04" x2="3731.19" y2="-319.04" style="stroke:#C10534;stroke-width:8.64"/>
	<line x1="3760.02" y1="-319.04" x2="3817.56" y2="-319.04" style="stroke:#C10534;stroke-width:8.64"/>
	<line x1="3846.40" y1="-319.04" x2="3859.02" y2="-319.04" style="stroke:#C10534;stroke-width:8.64"/>
	<path d=" M454.04 2425.95 L530.02 2413.70 L606.00 2400.33 L681.86 2384.74 L757.85 2404.79 L833.83 2342.17 L909.69 2312.96 L985.67 2277.32 L1061.65 2236.48 L1137.63 2191.93 L1213.49 2145.27 L1289.47 2098.12 L1365.46 2051.84 L1441.32 2006.55 L1517.30 1961.99 L1593.28 1918.31 L1669.14 1875.37 L1745.12 1833.04 L1821.11 1791.21 L1897.09 1749.88 L1972.95 1708.92 L2048.93 1668.08 L2124.91 1627.61 L2200.77 1587.14 L2276.75 1546.68 L2352.74 1506.21 L2428.59 1465.74 L2504.58 1425.27 L2580.56 1384.81 L2656.54 1344.34 L2732.40 1303.87 L2808.38 1263.40 L2884.36 1222.94 L2960.22 1182.59 L3036.21 1142.12 L3112.19 1101.66 L3188.05 1061.19 L3264.03 1020.72 L3340.01 980.25 L3415.99 939.79 L3491.85 899.32 L3567.84 858.85 L3643.82 818.38 L3719.68 777.92 L3795.66 737.57" stroke-linejoin="round" style="fill:none;stroke:#1A476F;stroke-width:8.64"/>
	<line x1="390.80" y1="2489.19" x2="390.80" y2="100.86" style="stroke:#000000;stroke-width:5.76"/>
	<line x1="390.80" y1="4219.51" x2="350.83" y2="4219.51" style="stroke:#000000;stroke-width:5.76"/>
	<text x="300.72" y="4219.51" style="font-family:'Helvetica';font-size:99.99px;fill:#000000" transform="rotate(-90 300.72,4219.51)" text-anchor="middle">.01</text>
	<line x1="390.80" y1="3205.72" x2="350.83" y2="3205.72" style="stroke:#000000;stroke-width:5.76"/>
	<text x="300.72" y="3205.72" style="font-family:'Helvetica';font-size:99.99px;fill:#000000" transform="rotate(-90 300.72,3205.72)" text-anchor="middle">.1</text>
	<line x1="390.80" y1="2191.80" x2="350.83" y2="2191.80" style="stroke:#000000;stroke-width:5.76"/>
	<text x="300.72" y="2191.80" style="font-family:'Helvetica';font-size:99.99px;fill:#000000" transform="rotate(-90 300.72,2191.80)" text-anchor="middle">1</text>
	<line x1="390.80" y1="1178.01" x2="350.83" y2="1178.01" style="stroke:#000000;stroke-width:5.76"/>
	<text x="300.72" y="1178.01" style="font-family:'Helvetica';font-size:99.99px;fill:#000000" transform="rotate(-90 300.72,1178.01)" text-anchor="middle">10</text>
	<line x1="390.80" y1="164.22" x2="350.83" y2="164.22" style="stroke:#000000;stroke-width:5.76"/>
	<text x="300.72" y="164.22" style="font-family:'Helvetica';font-size:99.99px;fill:#000000" transform="rotate(-90 300.72,164.22)" text-anchor="middle">100</text>
	<line x1="390.80" y1="872.84" x2="350.83" y2="872.84" style="stroke:#000000;stroke-width:5.76"/>
	<text x="300.72" y="872.84" style="font-family:'Helvetica';font-size:99.99px;fill:#000000" transform="rotate(-90 300.72,872.84)" text-anchor="middle">20</text>
	<text x="190.71" y="1294.96" style="font-family:'Helvetica';font-size:99.99px;fill:#000000" transform="rotate(-90 190.71,1294.96)" text-anchor="middle">Hazard ratio compared to age 75 years (log scale)</text>
	<line x1="390.80" y1="2489.19" x2="3859.02" y2="2489.19" style="stroke:#000000;stroke-width:5.76"/>
	<line x1="757.97" y1="2489.19" x2="757.97" y2="2529.16" style="stroke:#000000;stroke-width:5.76"/>
	<text x="757.97" y="2619.14" style="font-family:'Helvetica';font-size:99.99px;fill:#000000" text-anchor="middle">70</text>
	<line x1="1517.42" y1="2489.19" x2="1517.42" y2="2529.16" style="stroke:#000000;stroke-width:5.76"/>
	<text x="1517.42" y="2619.14" style="font-family:'Helvetica';font-size:99.99px;fill:#000000" text-anchor="middle">80</text>
	<line x1="2276.88" y1="2489.19" x2="2276.88" y2="2529.16" style="stroke:#000000;stroke-width:5.76"/>
	<text x="2276.88" y="2619.14" style="font-family:'Helvetica';font-size:99.99px;fill:#000000" text-anchor="middle">90</text>
	<line x1="3036.33" y1="2489.19" x2="3036.33" y2="2529.16" style="stroke:#000000;stroke-width:5.76"/>
	<text x="3036.33" y="2619.14" style="font-family:'Helvetica';font-size:99.99px;fill:#000000" text-anchor="middle">100</text>
	<line x1="3795.66" y1="2489.19" x2="3795.66" y2="2529.16" style="stroke:#000000;stroke-width:5.76"/>
	<text x="3795.66" y="2619.14" style="font-family:'Helvetica';font-size:99.99px;fill:#000000" text-anchor="middle">110</text>
	<text x="2124.91" y="2729.16" style="font-family:'Helvetica';font-size:99.99px;fill:#000000" text-anchor="middle">Age in years</text>
</svg>
