<?xml version="1.0" encoding="UTF-8" standalone="no"?>
<!-- This is a Stata 16.1 generated SVG file (http://www.stata.com) -->

<svg version="1.1" width="5.50in" height="4.00in" viewBox="0 0 3960 2880" xmlns="http://www.w3.org/2000/svg" xmlns:xlink="http://www.w3.org/1999/xlink">
	<desc>Stata Graph - Graph</desc>
	<rect x="0" y="0" width="3960" height="2880" style="fill:#EAF2F3;stroke:none"/>
	<rect x="0.00" y="0.00" width="3959.88" height="2880.00" style="fill:#EAF2F3"/>
	<rect x="2.88" y="2.88" width="3954.12" height="2874.24" style="fill:none;stroke:#EAF2F3;stroke-width:5.76"/>
	<rect x="390.80" y="100.86" width="3468.22" height="2388.33" style="fill:#FFFFFF"/>
	<rect x="393.68" y="103.74" width="3462.46" height="2382.57" style="fill:none;stroke:#FFFFFF;stroke-width:5.76"/>
	<line x1="390.80" y1="2901.41" x2="3859.02" y2="2901.41" style="stroke:#EAF2F3;stroke-width:8.64"/>
	<line x1="390.80" y1="2217.17" x2="3859.02" y2="2217.17" style="stroke:#EAF2F3;stroke-width:8.64"/>
	<line x1="390.80" y1="1532.82" x2="3859.02" y2="1532.82" style="stroke:#EAF2F3;stroke-width:8.64"/>
	<line x1="390.80" y1="848.46" x2="3859.02" y2="848.46" style="stroke:#EAF2F3;stroke-width:8.64"/>
	<line x1="390.80" y1="164.22" x2="3859.02" y2="164.22" style="stroke:#EAF2F3;stroke-width:8.64"/>
	<line x1="390.80" y1="642.53" x2="3859.02" y2="642.53" style="stroke:#EAF2F3;stroke-width:8.64"/>
	<line x1="390.80" y1="-2808.22" x2="448.35" y2="-2808.22" style="stroke:#C10534;stroke-width:8.64"/>
	<line x1="477.18" y1="-2808.22" x2="534.72" y2="-2808.22" style="stroke:#C10534;stroke-width:8.64"/>
	<line x1="563.56" y1="-2808.22" x2="621.23" y2="-2808.22" style="stroke:#C10534;stroke-width:8.64"/>
	<line x1="649.93" y1="-2808.22" x2="707.60" y2="-2808.22" style="stroke:#C10534;stroke-width:8.64"/>
	<line x1="736.44" y1="-2808.22" x2="793.98" y2="-2808.22" style="stroke:#C10534;stroke-width:8.64"/>
	<line x1="822.81" y1="-2808.22" x2="880.36" y2="-2808.22" style="stroke:#C10534;stroke-width:8.64"/>
	<line x1="909.19" y1="-2808.22" x2="966.74" y2="-2808.22" style="stroke:#C10534;stroke-width:8.64"/>
	<line x1="995.57" y1="-2808.22" x2="1053.11" y2="-2808.22" style="stroke:#C10534;stroke-width:8.64"/>
	<line x1="1081.95" y1="-2808.22" x2="1139.49" y2="-2808.22" style="stroke:#C10534;stroke-width:8.64"/>
	<line x1="1168.32" y1="-2808.22" x2="1225.87" y2="-2808.22" style="stroke:#C10534;stroke-width:8.64"/>
	<line x1="1254.70" y1="-2808.22" x2="1312.24" y2="-2808.22" style="stroke:#C10534;stroke-width:8.64"/>
	<line x1="1341.08" y1="-2808.22" x2="1398.62" y2="-2808.22" style="stroke:#C10534;stroke-width:8.64"/>
	<line x1="1427.46" y1="-2808.22" x2="1485.00" y2="-2808.22" style="stroke:#C10534;stroke-width:8.64"/>
	<line x1="1513.83" y1="-2808.22" x2="1571.50" y2="-2808.22" style="stroke:#C10534;stroke-width:8.64"/>
	<line x1="1600.21" y1="-2808.22" x2="1657.88" y2="-2808.22" style="stroke:#C10534;stroke-width:8.64"/>
	<line x1="1686.71" y1="-2808.22" x2="1744.26" y2="-2808.22" style="stroke:#C10534;stroke-width:8.64"/>
	<line x1="1773.09" y1="-2808.22" x2="1830.63" y2="-2808.22" style="stroke:#C10534;stroke-width:8.64"/>
	<line x1="1859.47" y1="-2808.22" x2="1917.01" y2="-2808.22" style="stroke:#C10534;stroke-width:8.64"/>
	<line x1="1945.85" y1="-2808.22" x2="2003.39" y2="-2808.22" style="stroke:#C10534;stroke-width:8.64"/>
	<line x1="2032.22" y1="-2808.22" x2="2089.77" y2="-2808.22" style="stroke:#C10534;stroke-width:8.64"/>
	<line x1="2118.60" y1="-2808.22" x2="2176.14" y2="-2808.22" style="stroke:#C10534;stroke-width:8.64"/>
	<line x1="2204.98" y1="-2808.22" x2="2262.52" y2="-2808.22" style="stroke:#C10534;stroke-width:8.64"/>
	<line x1="2291.36" y1="-2808.22" x2="2348.90" y2="-2808.22" style="stroke:#C10534;stroke-width:8.64"/>
	<line x1="2377.73" y1="-2808.22" x2="2435.40" y2="-2808.22" style="stroke:#C10534;stroke-width:8.64"/>
	<line x1="2464.11" y1="-2808.22" x2="2521.78" y2="-2808.22" style="stroke:#C10534;stroke-width:8.64"/>
	<line x1="2550.49" y1="-2808.22" x2="2608.16" y2="-2808.22" style="stroke:#C10534;stroke-width:8.64"/>
	<line x1="2636.99" y1="-2808.22" x2="2694.53" y2="-2808.22" style="stroke:#C10534;stroke-width:8.64"/>
	<line x1="2723.37" y1="-2808.22" x2="2780.91" y2="-2808.22" style="stroke:#C10534;stroke-width:8.64"/>
	<line x1="2809.74" y1="-2808.22" x2="2867.29" y2="-2808.22" style="stroke:#C10534;stroke-width:8.64"/>
	<line x1="2896.12" y1="-2808.22" x2="2953.66" y2="-2808.22" style="stroke:#C10534;stroke-width:8.64"/>
	<line x1="2982.50" y1="-2808.22" x2="3040.04" y2="-2808.22" style="stroke:#C10534;stroke-width:8.64"/>
	<line x1="3068.88" y1="-2808.22" x2="3126.42" y2="-2808.22" style="stroke:#C10534;stroke-width:8.64"/>
	<line x1="3155.25" y1="-2808.22" x2="3212.80" y2="-2808.22" style="stroke:#C10534;stroke-width:8.64"/>
	<line x1="3241.63" y1="-2808.22" x2="3299.18" y2="-2808.22" style="stroke:#C10534;stroke-width:8.64"/>
	<line x1="3328.01" y1="-2808.22" x2="3385.68" y2="-2808.22" style="stroke:#C10534;stroke-width:8.64"/>
	<line x1="3414.39" y1="-2808.22" x2="3472.05" y2="-2808.22" style="stroke:#C10534;stroke-width:8.64"/>
	<line x1="3500.76" y1="-2808.22" x2="3558.43" y2="-2808.22" style="stroke:#C10534;stroke-width:8.64"/>
	<line x1="3587.26" y1="-2808.22" x2="3644.81" y2="-2808.22" style="stroke:#C10534;stroke-width:8.64"/>
	<line x1="3673.64" y1="-2808.22" x2="3731.19" y2="-2808.22" style="stroke:#C10534;stroke-width:8.64"/>
	<line x1="3760.02" y1="-2808.22" x2="3817.56" y2="-2808.22" style="stroke:#C10534;stroke-width:8.64"/>
	<line x1="3846.40" y1="-2808.22" x2="3859.02" y2="-2808.22" style="stroke:#C10534;stroke-width:8.64"/>
	<path d=" M454.04 2425.95 L518.39 2382.26 L582.62 2343.16 L646.84 2308.38 L711.07 2264.94 L775.42 2225.96 L839.64 2187.35 L903.87 2127.08 L968.22 2110.99 L1032.45 2073.62 L1096.67 2036.74 L1160.90 2004.94 L1225.25 1969.42 L1289.47 1930.31 L1353.70 1900.98 L1418.05 1863.73 L1482.28 1831.93 L1546.50 1801.36 L1610.73 1771.78 L1675.08 1747.90 L1739.31 1720.55 L1803.53 1689.98 L1867.88 1642.83 L1932.11 1645.18 L1996.34 1595.81 L2060.56 1600.14 L2124.91 1574.77 L2189.14 1532.82 L2253.36 1535.79 L2317.59 1517.84 L2381.94 1505.34 L2446.17 1489.25 L2510.39 1474.03 L2574.74 1459.68 L2638.97 1419.70 L2703.20 1428.74 L2767.42 1394.58 L2831.77 1404.85 L2896.00 1393.72 L2960.22 1382.95 L3024.57 1372.68 L3088.80 1362.65 L3153.03 1352.88 L3217.25 1343.22 L3281.60 1333.82 L3345.83 1324.41 L3410.05 1315.13 L3474.41 1305.73" stroke-linejoin="round" style="fill:none;stroke:#1A476F;stroke-width:8.64"/>
	<line x1="390.80" y1="2489.19" x2="390.80" y2="100.86" style="stroke:#000000;stroke-width:5.76"/>
	<line x1="390.80" y1="2901.41" x2="350.83" y2="2901.41" style="stroke:#000000;stroke-width:5.76"/>
	<text x="300.72" y="2901.41" style="font-family:'Helvetica';font-size:99.99px;fill:#000000" transform="rotate(-90 300.72,2901.41)" text-anchor="middle">.01</text>
	<line x1="390.80" y1="2217.17" x2="350.83" y2="2217.17" style="stroke:#000000;stroke-width:5.76"/>
	<text x="300.72" y="2217.17" style="font-family:'Helvetica';font-size:99.99px;fill:#000000" transform="rotate(-90 300.72,2217.17)" text-anchor="middle">.1</text>
	<line x1="390.80" y1="1532.82" x2="350.83" y2="1532.82" style="stroke:#000000;stroke-width:5.76"/>
	<text x="300.72" y="1532.82" style="font-family:'Helvetica';font-size:99.99px;fill:#000000" transform="rotate(-90 300.72,1532.82)" text-anchor="middle">1</text>
	<line x1="390.80" y1="848.46" x2="350.83" y2="848.46" style="stroke:#000000;stroke-width:5.76"/>
	<text x="300.72" y="848.46" style="font-family:'Helvetica';font-size:99.99px;fill:#000000" transform="rotate(-90 300.72,848.46)" text-anchor="middle">10</text>
	<line x1="390.80" y1="164.22" x2="350.83" y2="164.22" style="stroke:#000000;stroke-width:5.76"/>
	<text x="300.72" y="164.22" style="font-family:'Helvetica';font-size:99.99px;fill:#000000" transform="rotate(-90 300.72,164.22)" text-anchor="middle">100</text>
	<line x1="390.80" y1="642.53" x2="350.83" y2="642.53" style="stroke:#000000;stroke-width:5.76"/>
	<text x="300.72" y="642.53" style="font-family:'Helvetica';font-size:99.99px;fill:#000000" transform="rotate(-90 300.72,642.53)" text-anchor="middle">20</text>
	<text x="190.71" y="1294.96" style="font-family:'Helvetica';font-size:99.99px;fill:#000000" transform="rotate(-90 190.71,1294.96)" text-anchor="middle">Hazard ratio compared to age 45 years (log scale)</text>
	<line x1="390.80" y1="2489.19" x2="3859.02" y2="2489.19" style="stroke:#000000;stroke-width:5.76"/>
	<line x1="582.62" y1="2489.19" x2="582.62" y2="2529.16" style="stroke:#000000;stroke-width:5.76"/>
	<text x="582.62" y="2619.14" style="font-family:'Helvetica';font-size:99.99px;fill:#000000" text-anchor="middle">20</text>
	<line x1="1225.25" y1="2489.19" x2="1225.25" y2="2529.16" style="stroke:#000000;stroke-width:5.76"/>
	<text x="1225.25" y="2619.14" style="font-family:'Helvetica';font-size:99.99px;fill:#000000" text-anchor="middle">30</text>
	<line x1="1867.88" y1="2489.19" x2="1867.88" y2="2529.16" style="stroke:#000000;stroke-width:5.76"/>
	<text x="1867.88" y="2619.14" style="font-family:'Helvetica';font-size:99.99px;fill:#000000" text-anchor="middle">40</text>
	<line x1="2510.52" y1="2489.19" x2="2510.52" y2="2529.16" style="stroke:#000000;stroke-width:5.76"/>
	<text x="2510.52" y="2619.14" style="font-family:'Helvetica';font-size:99.99px;fill:#000000" text-anchor="middle">50</text>
	<line x1="3153.15" y1="2489.19" x2="3153.15" y2="2529.16" style="stroke:#000000;stroke-width:5.76"/>
	<text x="3153.15" y="2619.14" style="font-family:'Helvetica';font-size:99.99px;fill:#000000" text-anchor="middle">60</text>
	<line x1="3795.66" y1="2489.19" x2="3795.66" y2="2529.16" style="stroke:#000000;stroke-width:5.76"/>
	<text x="3795.66" y="2619.14" style="font-family:'Helvetica';font-size:99.99px;fill:#000000" text-anchor="middle">70</text>
	<text x="2124.91" y="2729.16" style="font-family:'Helvetica';font-size:99.99px;fill:#000000" text-anchor="middle">Age in years</text>
</svg>
