<?xml version="1.0" encoding="UTF-8" standalone="no"?>
<!-- This is a Stata 16.1 generated SVG file (http://www.stata.com) -->

<svg version="1.1" width="5.50in" height="4.00in" viewBox="0 0 3960 2880" xmlns="http://www.w3.org/2000/svg" xmlns:xlink="http://www.w3.org/1999/xlink">
	<desc>Stata Graph - Graph</desc>
	<rect x="0" y="0" width="3960" height="2880" style="fill:#EAF2F3;stroke:none"/>
	<rect x="0.00" y="0.00" width="3959.88" height="2880.00" style="fill:#FFFFFF"/>
	<rect x="2.88" y="2.88" width="3954.12" height="2874.24" style="fill:none;stroke:#FFFFFF;stroke-width:5.76"/>
	<rect x="130.80" y="100.86" width="3728.22" height="2448.35" style="fill:#FFFFFF"/>
	<rect x="133.68" y="103.74" width="3722.46" height="2442.59" style="fill:none;stroke:#FFFFFF;stroke-width:5.76"/>
	<line x1="2124.42" y1="2549.21" x2="2124.42" y2="2491.66" style="stroke:#C10534;stroke-width:8.64"/>
	<line x1="2124.42" y1="2462.83" x2="2124.42" y2="2405.16" style="stroke:#C10534;stroke-width:8.64"/>
	<line x1="2124.42" y1="2376.45" x2="2124.42" y2="2318.78" style="stroke:#C10534;stroke-width:8.64"/>
	<line x1="2124.42" y1="2289.94" x2="2124.42" y2="2232.40" style="stroke:#C10534;stroke-width:8.64"/>
	<line x1="2124.42" y1="2203.56" x2="2124.42" y2="2146.02" style="stroke:#C10534;stroke-width:8.64"/>
	<line x1="2124.42" y1="2117.18" x2="2124.42" y2="2059.64" style="stroke:#C10534;stroke-width:8.64"/>
	<line x1="2124.42" y1="2030.80" x2="2124.42" y2="1973.26" style="stroke:#C10534;stroke-width:8.64"/>
	<line x1="2124.42" y1="1944.42" x2="2124.42" y2="1886.88" style="stroke:#C10534;stroke-width:8.64"/>
	<line x1="2124.42" y1="1858.04" x2="2124.42" y2="1800.50" style="stroke:#C10534;stroke-width:8.64"/>
	<line x1="2124.42" y1="1771.66" x2="2124.42" y2="1714.11" style="stroke:#C10534;stroke-width:8.64"/>
	<line x1="2124.42" y1="1685.28" x2="2124.42" y2="1627.73" style="stroke:#C10534;stroke-width:8.64"/>
	<line x1="2124.42" y1="1598.90" x2="2124.42" y2="1541.35" style="stroke:#C10534;stroke-width:8.64"/>
	<line x1="2124.42" y1="1512.52" x2="2124.42" y2="1454.85" style="stroke:#C10534;stroke-width:8.64"/>
	<line x1="2124.42" y1="1426.14" x2="2124.42" y2="1368.47" style="stroke:#C10534;stroke-width:8.64"/>
	<line x1="2124.42" y1="1339.64" x2="2124.42" y2="1282.09" style="stroke:#C10534;stroke-width:8.64"/>
	<line x1="2124.42" y1="1253.26" x2="2124.42" y2="1195.71" style="stroke:#C10534;stroke-width:8.64"/>
	<line x1="2124.42" y1="1166.88" x2="2124.42" y2="1109.33" style="stroke:#C10534;stroke-width:8.64"/>
	<line x1="2124.42" y1="1080.50" x2="2124.42" y2="1022.95" style="stroke:#C10534;stroke-width:8.64"/>
	<line x1="2124.42" y1="994.11" x2="2124.42" y2="936.57" style="stroke:#C10534;stroke-width:8.64"/>
	<line x1="2124.42" y1="907.73" x2="2124.42" y2="850.19" style="stroke:#C10534;stroke-width:8.64"/>
	<line x1="2124.42" y1="821.35" x2="2124.42" y2="763.81" style="stroke:#C10534;stroke-width:8.64"/>
	<line x1="2124.42" y1="734.97" x2="2124.42" y2="677.43" style="stroke:#C10534;stroke-width:8.64"/>
	<line x1="2124.42" y1="648.59" x2="2124.42" y2="591.05" style="stroke:#C10534;stroke-width:8.64"/>
	<line x1="2124.42" y1="562.21" x2="2124.42" y2="504.54" style="stroke:#C10534;stroke-width:8.64"/>
	<line x1="2124.42" y1="475.83" x2="2124.42" y2="418.16" style="stroke:#C10534;stroke-width:8.64"/>
	<line x1="2124.42" y1="389.33" x2="2124.42" y2="331.78" style="stroke:#C10534;stroke-width:8.64"/>
	<line x1="2124.42" y1="302.95" x2="2124.42" y2="245.40" style="stroke:#C10534;stroke-width:8.64"/>
	<line x1="2124.42" y1="216.57" x2="2124.42" y2="159.02" style="stroke:#C10534;stroke-width:8.64"/>
	<line x1="2124.42" y1="130.19" x2="2124.42" y2="100.86" style="stroke:#C10534;stroke-width:8.64"/>
	<circle cx="2029.25" cy="495.88" r="19.29" style="fill:#000000"/>
	<circle cx="2029.25" cy="495.88" r="14.97" style="fill:none;stroke:#000000;stroke-width:8.64"/>
	<circle cx="2047.57" cy="661.71" r="19.29" style="fill:#000000"/>
	<circle cx="2047.57" cy="661.71" r="14.97" style="fill:none;stroke:#000000;stroke-width:8.64"/>
	<circle cx="2047.94" cy="827.54" r="19.29" style="fill:#000000"/>
	<circle cx="2047.94" cy="827.54" r="14.97" style="fill:none;stroke:#000000;stroke-width:8.64"/>
	<circle cx="2049.05" cy="993.37" r="19.29" style="fill:#000000"/>
	<circle cx="2049.05" cy="993.37" r="14.97" style="fill:none;stroke:#000000;stroke-width:8.64"/>
	<circle cx="1875.56" cy="1159.20" r="19.29" style="fill:#000000"/>
	<circle cx="1875.56" cy="1159.20" r="14.97" style="fill:none;stroke:#000000;stroke-width:8.64"/>
	<circle cx="2171.94" cy="1325.03" r="19.29" style="fill:#000000"/>
	<circle cx="2171.94" cy="1325.03" r="14.97" style="fill:none;stroke:#000000;stroke-width:8.64"/>
	<circle cx="2077.02" cy="1656.69" r="19.29" style="fill:#000000"/>
	<circle cx="2077.02" cy="1656.69" r="14.97" style="fill:none;stroke:#000000;stroke-width:8.64"/>
	<circle cx="2095.71" cy="1822.65" r="19.29" style="fill:#000000"/>
	<circle cx="2095.71" cy="1822.65" r="14.97" style="fill:none;stroke:#000000;stroke-width:8.64"/>
	<circle cx="1718.64" cy="1988.48" r="19.29" style="fill:#000000"/>
	<circle cx="1718.64" cy="1988.48" r="14.97" style="fill:none;stroke:#000000;stroke-width:8.64"/>
	<circle cx="2245.20" cy="2154.31" r="19.29" style="fill:#000000"/>
	<circle cx="2245.20" cy="2154.31" r="14.97" style="fill:none;stroke:#000000;stroke-width:8.64"/>
	<circle cx="1864.29" cy="2320.14" r="19.29" style="fill:#000000"/>
	<circle cx="1864.29" cy="2320.14" r="14.97" style="fill:none;stroke:#000000;stroke-width:8.64"/>
	<circle cx="2246.06" cy="2485.97" r="19.29" style="fill:#000000"/>
	<circle cx="2246.06" cy="2485.97" r="14.97" style="fill:none;stroke:#000000;stroke-width:8.64"/>
	<line x1="1941.51" y1="495.88" x2="2117.11" y2="495.88" style="stroke:#000000;stroke-width:8.64"/>
	<line x1="2117.11" y1="517.91" x2="2117.11" y2="473.85" stroke-linecap="round" style="stroke:#000000;stroke-width:8.64"/>
	<line x1="1941.51" y1="517.91" x2="1941.51" y2="473.85" stroke-linecap="round" style="stroke:#000000;stroke-width:8.64"/>
	<line x1="1976.78" y1="661.71" x2="2118.48" y2="661.71" style="stroke:#000000;stroke-width:8.64"/>
	<line x1="2118.48" y1="683.74" x2="2118.48" y2="639.68" stroke-linecap="round" style="stroke:#000000;stroke-width:8.64"/>
	<line x1="1976.78" y1="683.74" x2="1976.78" y2="639.68" stroke-linecap="round" style="stroke:#000000;stroke-width:8.64"/>
	<line x1="1639.81" y1="827.54" x2="2456.19" y2="827.54" style="stroke:#000000;stroke-width:8.64"/>
	<line x1="2456.19" y1="849.57" x2="2456.19" y2="805.51" stroke-linecap="round" style="stroke:#000000;stroke-width:8.64"/>
	<line x1="1639.81" y1="849.57" x2="1639.81" y2="805.51" stroke-linecap="round" style="stroke:#000000;stroke-width:8.64"/>
	<line x1="1624.84" y1="993.37" x2="2473.27" y2="993.37" style="stroke:#000000;stroke-width:8.64"/>
	<line x1="2473.27" y1="1015.40" x2="2473.27" y2="971.34" stroke-linecap="round" style="stroke:#000000;stroke-width:8.64"/>
	<line x1="1624.84" y1="1015.40" x2="1624.84" y2="971.34" stroke-linecap="round" style="stroke:#000000;stroke-width:8.64"/>
	<line x1="1789.30" y1="1159.20" x2="1961.93" y2="1159.20" style="stroke:#000000;stroke-width:8.64"/>
	<line x1="1961.93" y1="1181.23" x2="1961.93" y2="1137.17" stroke-linecap="round" style="stroke:#000000;stroke-width:8.64"/>
	<line x1="1789.30" y1="1181.23" x2="1789.30" y2="1137.17" stroke-linecap="round" style="stroke:#000000;stroke-width:8.64"/>
	<line x1="2099.67" y1="1325.03" x2="2244.45" y2="1325.03" style="stroke:#000000;stroke-width:8.64"/>
	<line x1="2244.45" y1="1347.06" x2="2244.45" y2="1303.00" stroke-linecap="round" style="stroke:#000000;stroke-width:8.64"/>
	<line x1="2099.67" y1="1347.06" x2="2099.67" y2="1303.00" stroke-linecap="round" style="stroke:#000000;stroke-width:8.64"/>
	<line x1="1963.79" y1="1656.69" x2="2190.38" y2="1656.69" style="stroke:#000000;stroke-width:8.64"/>
	<line x1="2190.38" y1="1678.72" x2="2190.38" y2="1634.66" stroke-linecap="round" style="stroke:#000000;stroke-width:8.64"/>
	<line x1="1963.79" y1="1678.72" x2="1963.79" y2="1634.66" stroke-linecap="round" style="stroke:#000000;stroke-width:8.64"/>
	<line x1="2004.75" y1="1822.52" x2="2186.79" y2="1822.52" style="stroke:#000000;stroke-width:8.64"/>
	<line x1="2186.79" y1="1844.55" x2="2186.79" y2="1800.50" stroke-linecap="round" style="stroke:#000000;stroke-width:8.64"/>
	<line x1="2004.75" y1="1844.55" x2="2004.75" y2="1800.50" stroke-linecap="round" style="stroke:#000000;stroke-width:8.64"/>
	<line x1="1181.07" y1="1988.35" x2="2256.21" y2="1988.35" style="stroke:#000000;stroke-width:8.64"/>
	<line x1="2256.21" y1="2010.38" x2="2256.21" y2="1966.33" stroke-linecap="round" style="stroke:#000000;stroke-width:8.64"/>
	<line x1="1181.07" y1="2010.38" x2="1181.07" y2="1966.33" stroke-linecap="round" style="stroke:#000000;stroke-width:8.64"/>
	<line x1="1835.58" y1="2154.18" x2="2655.06" y2="2154.18" style="stroke:#000000;stroke-width:8.64"/>
	<line x1="2655.06" y1="2176.21" x2="2655.06" y2="2132.16" stroke-linecap="round" style="stroke:#000000;stroke-width:8.64"/>
	<line x1="1835.58" y1="2176.21" x2="1835.58" y2="2132.16" stroke-linecap="round" style="stroke:#000000;stroke-width:8.64"/>
	<line x1="1746.98" y1="2320.01" x2="1981.73" y2="2320.01" style="stroke:#000000;stroke-width:8.64"/>
	<line x1="1981.73" y1="2342.04" x2="1981.73" y2="2297.99" stroke-linecap="round" style="stroke:#000000;stroke-width:8.64"/>
	<line x1="1746.98" y1="2342.04" x2="1746.98" y2="2297.99" stroke-linecap="round" style="stroke:#000000;stroke-width:8.64"/>
	<line x1="2154.24" y1="2485.84" x2="2338.01" y2="2485.84" style="stroke:#000000;stroke-width:8.64"/>
	<line x1="2338.01" y1="2507.87" x2="2338.01" y2="2463.82" stroke-linecap="round" style="stroke:#000000;stroke-width:8.64"/>
	<line x1="2154.24" y1="2507.87" x2="2154.24" y2="2463.82" stroke-linecap="round" style="stroke:#000000;stroke-width:8.64"/>
	<text x="236.12" y="185.26" style="font-family:'Helvetica';font-weight:bold;font-size:60.02px;fill:#000000">Presence of children or young people in household</text>
	<text x="236.12" y="351.09" style="font-family:'Helvetica';font-size:60.02px;fill:#000000"></text>
	<text x="236.12" y="516.92" style="font-family:'Helvetica';font-size:60.02px;fill:#000000"></text>
	<text x="236.12" y="682.75" style="font-family:'Helvetica';font-size:60.02px;fill:#000000"></text>
	<text x="236.12" y="848.58" style="font-family:'Helvetica';font-size:60.02px;fill:#000000"></text>
	<text x="236.12" y="1014.41" style="font-family:'Helvetica';font-size:60.02px;fill:#000000"></text>
	<text x="236.12" y="1180.24" style="font-family:'Helvetica';font-size:60.02px;fill:#000000"></text>
	<text x="236.12" y="1346.07" style="font-family:'Helvetica';font-size:60.02px;fill:#000000"></text>
	<text x="236.12" y="1511.90" style="font-family:'Helvetica';font-size:60.02px;fill:#000000"></text>
	<text x="236.12" y="1677.73" style="font-family:'Helvetica';font-size:60.02px;fill:#000000"></text>
	<text x="236.12" y="1843.56" style="font-family:'Helvetica';font-size:60.02px;fill:#000000"></text>
	<text x="236.12" y="2009.39" style="font-family:'Helvetica';font-size:60.02px;fill:#000000"></text>
	<text x="236.12" y="2175.22" style="font-family:'Helvetica';font-size:60.02px;fill:#000000"></text>
	<text x="236.12" y="2341.05" style="font-family:'Helvetica';font-size:60.02px;fill:#000000"></text>
	<text x="236.12" y="2506.88" style="font-family:'Helvetica';font-size:60.02px;fill:#000000"></text>
	<text x="266.56" y="185.26" style="font-family:'Helvetica';font-size:60.02px;fill:#000000"></text>
	<text x="266.56" y="351.09" style="font-family:'Helvetica';font-weight:bold;font-size:60.02px;fill:#000000">Children under 12 years</text>
	<text x="266.56" y="516.92" style="font-family:'Helvetica';font-size:60.02px;fill:#000000"></text>
	<text x="266.56" y="682.75" style="font-family:'Helvetica';font-size:60.02px;fill:#000000"></text>
	<text x="266.56" y="848.58" style="font-family:'Helvetica';font-size:60.02px;fill:#000000"></text>
	<text x="266.56" y="1014.41" style="font-family:'Helvetica';font-size:60.02px;fill:#000000"></text>
	<text x="266.56" y="1180.24" style="font-family:'Helvetica';font-size:60.02px;fill:#000000"></text>
	<text x="266.56" y="1346.07" style="font-family:'Helvetica';font-size:60.02px;fill:#000000"></text>
	<text x="266.56" y="1511.90" style="font-family:'Helvetica';font-weight:bold;font-size:60.02px;fill:#000000">Children/young people aged 11-&lt;18 years</text>
	<text x="266.56" y="1677.73" style="font-family:'Helvetica';font-size:60.02px;fill:#000000"></text>
	<text x="266.56" y="1843.56" style="font-family:'Helvetica';font-size:60.02px;fill:#000000"></text>
	<text x="266.56" y="2009.39" style="font-family:'Helvetica';font-size:60.02px;fill:#000000"></text>
	<text x="266.56" y="2175.22" style="font-family:'Helvetica';font-size:60.02px;fill:#000000"></text>
	<text x="266.56" y="2341.05" style="font-family:'Helvetica';font-size:60.02px;fill:#000000"></text>
	<text x="266.56" y="2506.88" style="font-family:'Helvetica';font-size:60.02px;fill:#000000"></text>
	<text x="333.01" y="516.92" style="font-family:'Helvetica';font-size:60.02px;fill:#000000">Time before 3rd April 2020</text>
	<text x="333.01" y="682.75" style="font-family:'Helvetica';font-size:60.02px;fill:#000000">Time on/after 3rd April 2020</text>
	<text x="333.01" y="848.58" style="font-family:'Helvetica';font-size:60.02px;fill:#000000">Female</text>
	<text x="333.01" y="1014.41" style="font-family:'Helvetica';font-size:60.02px;fill:#000000">Male</text>
	<text x="333.01" y="1180.24" style="font-family:'Helvetica';font-size:60.02px;fill:#000000">Unlikely to be shielding</text>
	<text x="333.01" y="1346.07" style="font-family:'Helvetica';font-size:60.02px;fill:#000000">Probable shielding</text>
	<text x="333.01" y="1677.73" style="font-family:'Helvetica';font-size:60.02px;fill:#000000">Time before 3rd April 2020</text>
	<text x="333.01" y="1843.56" style="font-family:'Helvetica';font-size:60.02px;fill:#000000">Time on/after 3rd April 2020</text>
	<text x="333.01" y="2009.39" style="font-family:'Helvetica';font-size:60.02px;fill:#000000">Female</text>
	<text x="333.01" y="2175.22" style="font-family:'Helvetica';font-size:60.02px;fill:#000000">Male</text>
	<text x="333.01" y="2341.05" style="font-family:'Helvetica';font-size:60.02px;fill:#000000">Unlikely to be shielding</text>
	<text x="333.01" y="2506.88" style="font-family:'Helvetica';font-size:60.02px;fill:#000000">Probable shielding</text>
	<text x="3172.58" y="516.92" style="font-family:'Helvetica';font-size:60.02px;fill:#000000">0.88 (0.78-0.99)</text>
	<text x="3172.58" y="682.75" style="font-family:'Helvetica';font-size:60.02px;fill:#000000">0.90 (0.82-0.99)</text>
	<text x="3172.58" y="848.58" style="font-family:'Helvetica';font-size:60.02px;fill:#000000">0.90 (0.51-1.58)</text>
	<text x="3172.58" y="1014.41" style="font-family:'Helvetica';font-size:60.02px;fill:#000000">0.90 (0.50-1.62)</text>
	<text x="3172.58" y="1180.24" style="font-family:'Helvetica';font-size:60.02px;fill:#000000">0.71 (0.63-0.80)</text>
	<text x="3172.58" y="1346.07" style="font-family:'Helvetica';font-size:60.02px;fill:#000000">1.07 (0.97-1.18)</text>
	<text x="3172.58" y="1677.73" style="font-family:'Helvetica';font-size:60.02px;fill:#000000">0.94 (0.80-1.10)</text>
	<text x="3172.58" y="1843.56" style="font-family:'Helvetica';font-size:60.02px;fill:#000000">0.96 (0.85-1.09)</text>
	<text x="3172.58" y="2009.39" style="font-family:'Helvetica';font-size:60.02px;fill:#000000">0.57 (0.27-1.20)</text>
	<text x="3172.58" y="2175.22" style="font-family:'Helvetica';font-size:60.02px;fill:#000000">1.18 (0.67-2.08)</text>
	<text x="3172.58" y="2341.05" style="font-family:'Helvetica';font-size:60.02px;fill:#000000">0.70 (0.59-0.82)</text>
	<text x="3172.58" y="2506.88" style="font-family:'Helvetica';font-size:60.02px;fill:#000000">1.18 (1.04-1.34)</text>
	<text x="3172.58" y="185.26" style="font-family:'Helvetica';font-weight:bold;font-size:60.02px;fill:#000000">Hazard Ratio (95% CI)</text>
	<text x="3172.58" y="351.09" style="font-family:'Helvetica';font-size:60.02px;fill:#000000"></text>
	<text x="3172.58" y="516.92" style="font-family:'Helvetica';font-size:60.02px;fill:#000000"></text>
	<text x="3172.58" y="682.75" style="font-family:'Helvetica';font-size:60.02px;fill:#000000"></text>
	<text x="3172.58" y="848.58" style="font-family:'Helvetica';font-size:60.02px;fill:#000000"></text>
	<text x="3172.58" y="1014.41" style="font-family:'Helvetica';font-size:60.02px;fill:#000000"></text>
	<text x="3172.58" y="1180.24" style="font-family:'Helvetica';font-size:60.02px;fill:#000000"></text>
	<text x="3172.58" y="1346.07" style="font-family:'Helvetica';font-size:60.02px;fill:#000000"></text>
	<text x="3172.58" y="1511.90" style="font-family:'Helvetica';font-size:60.02px;fill:#000000"></text>
	<text x="3172.58" y="1677.73" style="font-family:'Helvetica';font-size:60.02px;fill:#000000"></text>
	<text x="3172.58" y="1843.56" style="font-family:'Helvetica';font-size:60.02px;fill:#000000"></text>
	<text x="3172.58" y="2009.39" style="font-family:'Helvetica';font-size:60.02px;fill:#000000"></text>
	<text x="3172.58" y="2175.22" style="font-family:'Helvetica';font-size:60.02px;fill:#000000"></text>
	<text x="3172.58" y="2341.05" style="font-family:'Helvetica';font-size:60.02px;fill:#000000"></text>
	<text x="3172.58" y="2506.88" style="font-family:'Helvetica';font-size:60.02px;fill:#000000"></text>
	<text x="1445.28" y="2755.63" style="font-family:'Helvetica';font-size:60.02px;fill:#000000" text-anchor="middle">Lower risk in those living with children</text>
	<text x="2913.07" y="2755.63" style="font-family:'Helvetica';font-size:60.02px;fill:#000000" text-anchor="middle">Higher risk in those living with children</text>
	<line x1="130.80" y1="2549.21" x2="130.80" y2="100.86" style="stroke:#FFFFFF;stroke-width:5.76"/>
	<line x1="130.80" y1="2549.21" x2="3859.02" y2="2549.21" style="stroke:#000000;stroke-width:5.76"/>
	<line x1="1621.25" y1="2549.21" x2="1621.25" y2="2589.18" style="stroke:#000000;stroke-width:5.76"/>
	<text x="1621.25" y="2665.13" style="font-family:'Helvetica';font-size:79.94px;fill:#000000" text-anchor="middle">.5</text>
	<line x1="2124.42" y1="2549.21" x2="2124.42" y2="2589.18" style="stroke:#000000;stroke-width:5.76"/>
	<text x="2124.42" y="2665.13" style="font-family:'Helvetica';font-size:79.94px;fill:#000000" text-anchor="middle">1</text>
	<line x1="2627.46" y1="2549.21" x2="2627.46" y2="2589.18" style="stroke:#000000;stroke-width:5.76"/>
	<text x="2627.46" y="2665.13" style="font-family:'Helvetica';font-size:79.94px;fill:#000000" text-anchor="middle">2</text>
	<text x="1994.97" y="2741.15" style="font-family:'Helvetica';font-size:60.02px;fill:#000000" text-anchor="middle">           </text>
</svg>
