<?xml version="1.0" encoding="UTF-8" standalone="no"?>
<!-- This is a Stata 16.1 generated SVG file (http://www.stata.com) -->

<svg version="1.1" width="5.50in" height="4.00in" viewBox="0 0 3960 2880" xmlns="http://www.w3.org/2000/svg" xmlns:xlink="http://www.w3.org/1999/xlink">
	<desc>Stata Graph - Graph</desc>
	<rect x="0" y="0" width="3960" height="2880" style="fill:#EAF2F3;stroke:none"/>
	<rect x="0.00" y="0.00" width="3959.88" height="2880.00" style="fill:#FFFFFF"/>
	<rect x="2.88" y="2.88" width="3954.12" height="2874.24" style="fill:none;stroke:#FFFFFF;stroke-width:5.76"/>
	<rect x="130.80" y="100.86" width="3728.22" height="2448.35" style="fill:#FFFFFF"/>
	<rect x="133.68" y="103.74" width="3722.46" height="2442.59" style="fill:none;stroke:#FFFFFF;stroke-width:5.76"/>
	<line x1="2124.42" y1="2549.21" x2="2124.42" y2="2491.66" style="stroke:#C10534;stroke-width:8.64"/>
	<line x1="2124.42" y1="2462.83" x2="2124.42" y2="2405.16" style="stroke:#C10534;stroke-width:8.64"/>
	<line x1="2124.42" y1="2376.45" x2="2124.42" y2="2318.78" style="stroke:#C10534;stroke-width:8.64"/>
	<line x1="2124.42" y1="2289.94" x2="2124.42" y2="2232.40" style="stroke:#C10534;stroke-width:8.64"/>
	<line x1="2124.42" y1="2203.56" x2="2124.42" y2="2146.02" style="stroke:#C10534;stroke-width:8.64"/>
	<line x1="2124.42" y1="2117.18" x2="2124.42" y2="2059.64" style="stroke:#C10534;stroke-width:8.64"/>
	<line x1="2124.42" y1="2030.80" x2="2124.42" y2="1973.26" style="stroke:#C10534;stroke-width:8.64"/>
	<line x1="2124.42" y1="1944.42" x2="2124.42" y2="1886.88" style="stroke:#C10534;stroke-width:8.64"/>
	<line x1="2124.42" y1="1858.04" x2="2124.42" y2="1800.50" style="stroke:#C10534;stroke-width:8.64"/>
	<line x1="2124.42" y1="1771.66" x2="2124.42" y2="1714.11" style="stroke:#C10534;stroke-width:8.64"/>
	<line x1="2124.42" y1="1685.28" x2="2124.42" y2="1627.73" style="stroke:#C10534;stroke-width:8.64"/>
	<line x1="2124.42" y1="1598.90" x2="2124.42" y2="1541.35" style="stroke:#C10534;stroke-width:8.64"/>
	<line x1="2124.42" y1="1512.52" x2="2124.42" y2="1454.85" style="stroke:#C10534;stroke-width:8.64"/>
	<line x1="2124.42" y1="1426.14" x2="2124.42" y2="1368.47" style="stroke:#C10534;stroke-width:8.64"/>
	<line x1="2124.42" y1="1339.64" x2="2124.42" y2="1282.09" style="stroke:#C10534;stroke-width:8.64"/>
	<line x1="2124.42" y1="1253.26" x2="2124.42" y2="1195.71" style="stroke:#C10534;stroke-width:8.64"/>
	<line x1="2124.42" y1="1166.88" x2="2124.42" y2="1109.33" style="stroke:#C10534;stroke-width:8.64"/>
	<line x1="2124.42" y1="1080.50" x2="2124.42" y2="1022.95" style="stroke:#C10534;stroke-width:8.64"/>
	<line x1="2124.42" y1="994.11" x2="2124.42" y2="936.57" style="stroke:#C10534;stroke-width:8.64"/>
	<line x1="2124.42" y1="907.73" x2="2124.42" y2="850.19" style="stroke:#C10534;stroke-width:8.64"/>
	<line x1="2124.42" y1="821.35" x2="2124.42" y2="763.81" style="stroke:#C10534;stroke-width:8.64"/>
	<line x1="2124.42" y1="734.97" x2="2124.42" y2="677.43" style="stroke:#C10534;stroke-width:8.64"/>
	<line x1="2124.42" y1="648.59" x2="2124.42" y2="591.05" style="stroke:#C10534;stroke-width:8.64"/>
	<line x1="2124.42" y1="562.21" x2="2124.42" y2="504.54" style="stroke:#C10534;stroke-width:8.64"/>
	<line x1="2124.42" y1="475.83" x2="2124.42" y2="418.16" style="stroke:#C10534;stroke-width:8.64"/>
	<line x1="2124.42" y1="389.33" x2="2124.42" y2="331.78" style="stroke:#C10534;stroke-width:8.64"/>
	<line x1="2124.42" y1="302.95" x2="2124.42" y2="245.40" style="stroke:#C10534;stroke-width:8.64"/>
	<line x1="2124.42" y1="216.57" x2="2124.42" y2="159.02" style="stroke:#C10534;stroke-width:8.64"/>
	<line x1="2124.42" y1="130.19" x2="2124.42" y2="100.86" style="stroke:#C10534;stroke-width:8.64"/>
	<circle cx="2158.45" cy="521.38" r="19.29" style="fill:#000000"/>
	<circle cx="2158.45" cy="521.38" r="14.97" style="fill:none;stroke:#000000;stroke-width:8.64"/>
	<circle cx="2245.07" cy="699.95" r="19.29" style="fill:#000000"/>
	<circle cx="2245.07" cy="699.95" r="14.97" style="fill:none;stroke:#000000;stroke-width:8.64"/>
	<circle cx="2020.22" cy="878.65" r="19.29" style="fill:#000000"/>
	<circle cx="2020.22" cy="878.65" r="14.97" style="fill:none;stroke:#000000;stroke-width:8.64"/>
	<circle cx="2221.93" cy="1057.23" r="19.29" style="fill:#000000"/>
	<circle cx="2221.93" cy="1057.23" r="14.97" style="fill:none;stroke:#000000;stroke-width:8.64"/>
	<circle cx="2159.07" cy="1235.81" r="19.29" style="fill:#000000"/>
	<circle cx="2159.07" cy="1235.81" r="14.97" style="fill:none;stroke:#000000;stroke-width:8.64"/>
	<circle cx="2270.69" cy="1592.96" r="19.29" style="fill:#000000"/>
	<circle cx="2270.69" cy="1592.96" r="14.97" style="fill:none;stroke:#000000;stroke-width:8.64"/>
	<circle cx="2210.55" cy="1771.54" r="19.29" style="fill:#000000"/>
	<circle cx="2210.55" cy="1771.54" r="14.97" style="fill:none;stroke:#000000;stroke-width:8.64"/>
	<circle cx="1858.97" cy="1950.11" r="19.29" style="fill:#000000"/>
	<circle cx="1858.97" cy="1950.11" r="14.97" style="fill:none;stroke:#000000;stroke-width:8.64"/>
	<circle cx="2218.47" cy="2128.69" r="19.29" style="fill:#000000"/>
	<circle cx="2218.47" cy="2128.69" r="14.97" style="fill:none;stroke:#000000;stroke-width:8.64"/>
	<circle cx="2266.23" cy="2307.39" r="19.29" style="fill:#000000"/>
	<circle cx="2266.23" cy="2307.39" r="14.97" style="fill:none;stroke:#000000;stroke-width:8.64"/>
	<circle cx="2180.85" cy="2485.97" r="19.29" style="fill:#000000"/>
	<circle cx="2180.85" cy="2485.97" r="14.97" style="fill:none;stroke:#000000;stroke-width:8.64"/>
	<line x1="2083.70" y1="521.38" x2="2233.19" y2="521.38" style="stroke:#000000;stroke-width:8.64"/>
	<line x1="2233.19" y1="543.40" x2="2233.19" y2="499.35" stroke-linecap="round" style="stroke:#000000;stroke-width:8.64"/>
	<line x1="2083.70" y1="543.40" x2="2083.70" y2="499.35" stroke-linecap="round" style="stroke:#000000;stroke-width:8.64"/>
	<line x1="2174.78" y1="699.95" x2="2315.36" y2="699.95" style="stroke:#000000;stroke-width:8.64"/>
	<line x1="2315.36" y1="721.98" x2="2315.36" y2="677.92" stroke-linecap="round" style="stroke:#000000;stroke-width:8.64"/>
	<line x1="2174.78" y1="721.98" x2="2174.78" y2="677.92" stroke-linecap="round" style="stroke:#000000;stroke-width:8.64"/>
	<line x1="1701.07" y1="878.53" x2="2339.62" y2="878.53" style="stroke:#000000;stroke-width:8.64"/>
	<line x1="2339.62" y1="900.56" x2="2339.62" y2="856.50" stroke-linecap="round" style="stroke:#000000;stroke-width:8.64"/>
	<line x1="1701.07" y1="900.56" x2="1701.07" y2="856.50" stroke-linecap="round" style="stroke:#000000;stroke-width:8.64"/>
	<line x1="2161.05" y1="1057.11" x2="2282.82" y2="1057.11" style="stroke:#000000;stroke-width:8.64"/>
	<line x1="2282.82" y1="1079.13" x2="2282.82" y2="1035.08" stroke-linecap="round" style="stroke:#000000;stroke-width:8.64"/>
	<line x1="2161.05" y1="1079.13" x2="2161.05" y2="1035.08" stroke-linecap="round" style="stroke:#000000;stroke-width:8.64"/>
	<line x1="2064.40" y1="1235.68" x2="2253.74" y2="1235.68" style="stroke:#000000;stroke-width:8.64"/>
	<line x1="2253.74" y1="1257.71" x2="2253.74" y2="1213.65" stroke-linecap="round" style="stroke:#000000;stroke-width:8.64"/>
	<line x1="2064.40" y1="1257.71" x2="2064.40" y2="1213.65" stroke-linecap="round" style="stroke:#000000;stroke-width:8.64"/>
	<line x1="2179.24" y1="1592.96" x2="2362.14" y2="1592.96" style="stroke:#000000;stroke-width:8.64"/>
	<line x1="2362.14" y1="1614.99" x2="2362.14" y2="1570.93" stroke-linecap="round" style="stroke:#000000;stroke-width:8.64"/>
	<line x1="2179.24" y1="1614.99" x2="2179.24" y2="1570.93" stroke-linecap="round" style="stroke:#000000;stroke-width:8.64"/>
	<line x1="2118.23" y1="1771.54" x2="2302.99" y2="1771.54" style="stroke:#000000;stroke-width:8.64"/>
	<line x1="2302.99" y1="1793.56" x2="2302.99" y2="1749.51" stroke-linecap="round" style="stroke:#000000;stroke-width:8.64"/>
	<line x1="2118.23" y1="1793.56" x2="2118.23" y2="1749.51" stroke-linecap="round" style="stroke:#000000;stroke-width:8.64"/>
	<line x1="1573.36" y1="1950.11" x2="2144.71" y2="1950.11" style="stroke:#000000;stroke-width:8.64"/>
	<line x1="2144.71" y1="1972.14" x2="2144.71" y2="1928.09" stroke-linecap="round" style="stroke:#000000;stroke-width:8.64"/>
	<line x1="1573.36" y1="1972.14" x2="1573.36" y2="1928.09" stroke-linecap="round" style="stroke:#000000;stroke-width:8.64"/>
	<line x1="1867.39" y1="2128.69" x2="2569.67" y2="2128.69" style="stroke:#000000;stroke-width:8.64"/>
	<line x1="2569.67" y1="2150.72" x2="2569.67" y2="2106.66" stroke-linecap="round" style="stroke:#000000;stroke-width:8.64"/>
	<line x1="1867.39" y1="2150.72" x2="1867.39" y2="2106.66" stroke-linecap="round" style="stroke:#000000;stroke-width:8.64"/>
	<line x1="2189.14" y1="2307.27" x2="2343.33" y2="2307.27" style="stroke:#000000;stroke-width:8.64"/>
	<line x1="2343.33" y1="2329.30" x2="2343.33" y2="2285.24" stroke-linecap="round" style="stroke:#000000;stroke-width:8.64"/>
	<line x1="2189.14" y1="2329.30" x2="2189.14" y2="2285.24" stroke-linecap="round" style="stroke:#000000;stroke-width:8.64"/>
	<line x1="2063.04" y1="2485.84" x2="2298.90" y2="2485.84" style="stroke:#000000;stroke-width:8.64"/>
	<line x1="2298.90" y1="2507.87" x2="2298.90" y2="2463.82" stroke-linecap="round" style="stroke:#000000;stroke-width:8.64"/>
	<line x1="2063.04" y1="2507.87" x2="2063.04" y2="2463.82" stroke-linecap="round" style="stroke:#000000;stroke-width:8.64"/>
	<text x="236.12" y="185.26" style="font-family:'Helvetica';font-weight:bold;font-size:60.02px;fill:#000000">Presence of children or young people in household</text>
	<text x="236.12" y="363.84" style="font-family:'Helvetica';font-size:60.02px;fill:#000000"></text>
	<text x="236.12" y="542.41" style="font-family:'Helvetica';font-size:60.02px;fill:#000000"></text>
	<text x="236.12" y="720.99" style="font-family:'Helvetica';font-size:60.02px;fill:#000000"></text>
	<text x="236.12" y="899.57" style="font-family:'Helvetica';font-size:60.02px;fill:#000000"></text>
	<text x="236.12" y="1078.14" style="font-family:'Helvetica';font-size:60.02px;fill:#000000"></text>
	<text x="236.12" y="1256.72" style="font-family:'Helvetica';font-size:60.02px;fill:#000000"></text>
	<text x="236.12" y="1435.30" style="font-family:'Helvetica';font-size:60.02px;fill:#000000"></text>
	<text x="236.12" y="1614.00" style="font-family:'Helvetica';font-size:60.02px;fill:#000000"></text>
	<text x="236.12" y="1792.57" style="font-family:'Helvetica';font-size:60.02px;fill:#000000"></text>
	<text x="236.12" y="1971.15" style="font-family:'Helvetica';font-size:60.02px;fill:#000000"></text>
	<text x="236.12" y="2149.73" style="font-family:'Helvetica';font-size:60.02px;fill:#000000"></text>
	<text x="236.12" y="2328.31" style="font-family:'Helvetica';font-size:60.02px;fill:#000000"></text>
	<text x="236.12" y="2506.88" style="font-family:'Helvetica';font-size:60.02px;fill:#000000"></text>
	<text x="266.56" y="185.26" style="font-family:'Helvetica';font-size:60.02px;fill:#000000"></text>
	<text x="266.56" y="363.84" style="font-family:'Helvetica';font-weight:bold;font-size:60.02px;fill:#000000">Children under 12 years</text>
	<text x="266.56" y="542.41" style="font-family:'Helvetica';font-size:60.02px;fill:#000000"></text>
	<text x="266.56" y="720.99" style="font-family:'Helvetica';font-size:60.02px;fill:#000000"></text>
	<text x="266.56" y="899.57" style="font-family:'Helvetica';font-size:60.02px;fill:#000000"></text>
	<text x="266.56" y="1078.14" style="font-family:'Helvetica';font-size:60.02px;fill:#000000"></text>
	<text x="266.56" y="1256.72" style="font-family:'Helvetica';font-size:60.02px;fill:#000000"></text>
	<text x="266.56" y="1435.30" style="font-family:'Helvetica';font-weight:bold;font-size:60.02px;fill:#000000">Children/young people aged 11-&lt;18 years</text>
	<text x="266.56" y="1614.00" style="font-family:'Helvetica';font-size:60.02px;fill:#000000"></text>
	<text x="266.56" y="1792.57" style="font-family:'Helvetica';font-size:60.02px;fill:#000000"></text>
	<text x="266.56" y="1971.15" style="font-family:'Helvetica';font-size:60.02px;fill:#000000"></text>
	<text x="266.56" y="2149.73" style="font-family:'Helvetica';font-size:60.02px;fill:#000000"></text>
	<text x="266.56" y="2328.31" style="font-family:'Helvetica';font-size:60.02px;fill:#000000"></text>
	<text x="266.56" y="2506.88" style="font-family:'Helvetica';font-size:60.02px;fill:#000000"></text>
	<text x="333.01" y="542.41" style="font-family:'Helvetica';font-size:60.02px;fill:#000000">Time before 3rd April 2020</text>
	<text x="333.01" y="720.99" style="font-family:'Helvetica';font-size:60.02px;fill:#000000">Time on/after 3rd April 2020</text>
	<text x="333.01" y="899.57" style="font-family:'Helvetica';font-size:60.02px;fill:#000000">Male</text>
	<text x="333.01" y="1078.14" style="font-family:'Helvetica';font-size:60.02px;fill:#000000">Unlikely to be shielding</text>
	<text x="333.01" y="1256.72" style="font-family:'Helvetica';font-size:60.02px;fill:#000000">Probable shielding</text>
	<text x="333.01" y="1614.00" style="font-family:'Helvetica';font-size:60.02px;fill:#000000">Time before 3rd April 2020</text>
	<text x="333.01" y="1792.57" style="font-family:'Helvetica';font-size:60.02px;fill:#000000">Time on/after 3rd April 2020</text>
	<text x="333.01" y="1971.15" style="font-family:'Helvetica';font-size:60.02px;fill:#000000">Female</text>
	<text x="333.01" y="2149.73" style="font-family:'Helvetica';font-size:60.02px;fill:#000000">Male</text>
	<text x="333.01" y="2328.31" style="font-family:'Helvetica';font-size:60.02px;fill:#000000">Unlikely to be shielding</text>
	<text x="333.01" y="2506.88" style="font-family:'Helvetica';font-size:60.02px;fill:#000000">Probable shielding</text>
	<text x="3172.58" y="542.41" style="font-family:'Helvetica';font-size:60.02px;fill:#000000">1.05 (0.95-1.16)</text>
	<text x="3172.58" y="720.99" style="font-family:'Helvetica';font-size:60.02px;fill:#000000">1.18 (1.07-1.30)</text>
	<text x="3172.58" y="899.57" style="font-family:'Helvetica';font-size:60.02px;fill:#000000">0.87 (0.56-1.35)</text>
	<text x="3172.58" y="1078.14" style="font-family:'Helvetica';font-size:60.02px;fill:#000000">1.14 (1.05-1.24)</text>
	<text x="3172.58" y="1256.72" style="font-family:'Helvetica';font-size:60.02px;fill:#000000">1.05 (0.92-1.20)</text>
	<text x="3172.58" y="1614.00" style="font-family:'Helvetica';font-size:60.02px;fill:#000000">1.22 (1.08-1.39)</text>
	<text x="3172.58" y="1792.57" style="font-family:'Helvetica';font-size:60.02px;fill:#000000">1.13 (0.99-1.28)</text>
	<text x="3172.58" y="1971.15" style="font-family:'Helvetica';font-size:60.02px;fill:#000000">0.69 (0.47-1.03)</text>
	<text x="3172.58" y="2149.73" style="font-family:'Helvetica';font-size:60.02px;fill:#000000">1.14 (0.70-1.85)</text>
	<text x="3172.58" y="2328.31" style="font-family:'Helvetica';font-size:60.02px;fill:#000000">1.22 (1.09-1.35)</text>
	<text x="3172.58" y="2506.88" style="font-family:'Helvetica';font-size:60.02px;fill:#000000">1.08 (0.92-1.27)</text>
	<text x="3172.58" y="185.26" style="font-family:'Helvetica';font-weight:bold;font-size:60.02px;fill:#000000">Hazard Ratio (95% CI)</text>
	<text x="3172.58" y="363.84" style="font-family:'Helvetica';font-size:60.02px;fill:#000000"></text>
	<text x="3172.58" y="542.41" style="font-family:'Helvetica';font-size:60.02px;fill:#000000"></text>
	<text x="3172.58" y="720.99" style="font-family:'Helvetica';font-size:60.02px;fill:#000000"></text>
	<text x="3172.58" y="899.57" style="font-family:'Helvetica';font-size:60.02px;fill:#000000"></text>
	<text x="3172.58" y="1078.14" style="font-family:'Helvetica';font-size:60.02px;fill:#000000"></text>
	<text x="3172.58" y="1256.72" style="font-family:'Helvetica';font-size:60.02px;fill:#000000"></text>
	<text x="3172.58" y="1435.30" style="font-family:'Helvetica';font-size:60.02px;fill:#000000"></text>
	<text x="3172.58" y="1614.00" style="font-family:'Helvetica';font-size:60.02px;fill:#000000"></text>
	<text x="3172.58" y="1792.57" style="font-family:'Helvetica';font-size:60.02px;fill:#000000"></text>
	<text x="3172.58" y="1971.15" style="font-family:'Helvetica';font-size:60.02px;fill:#000000"></text>
	<text x="3172.58" y="2149.73" style="font-family:'Helvetica';font-size:60.02px;fill:#000000"></text>
	<text x="3172.58" y="2328.31" style="font-family:'Helvetica';font-size:60.02px;fill:#000000"></text>
	<text x="3172.58" y="2506.88" style="font-family:'Helvetica';font-size:60.02px;fill:#000000"></text>
	<text x="1445.28" y="2774.81" style="font-family:'Helvetica';font-size:60.02px;fill:#000000" text-anchor="middle">Lower risk in those living with children</text>
	<text x="2913.07" y="2774.81" style="font-family:'Helvetica';font-size:60.02px;fill:#000000" text-anchor="middle">Higher risk in those living with children</text>
	<line x1="130.80" y1="2549.21" x2="130.80" y2="100.86" style="stroke:#FFFFFF;stroke-width:5.76"/>
	<line x1="130.80" y1="2549.21" x2="3859.02" y2="2549.21" style="stroke:#000000;stroke-width:5.76"/>
	<line x1="1621.25" y1="2549.21" x2="1621.25" y2="2589.18" style="stroke:#000000;stroke-width:5.76"/>
	<text x="1621.25" y="2665.13" style="font-family:'Helvetica';font-size:79.94px;fill:#000000" text-anchor="middle">.5</text>
	<line x1="2124.42" y1="2549.21" x2="2124.42" y2="2589.18" style="stroke:#000000;stroke-width:5.76"/>
	<text x="2124.42" y="2665.13" style="font-family:'Helvetica';font-size:79.94px;fill:#000000" text-anchor="middle">1</text>
	<line x1="2627.46" y1="2549.21" x2="2627.46" y2="2589.18" style="stroke:#000000;stroke-width:5.76"/>
	<text x="2627.46" y="2665.13" style="font-family:'Helvetica';font-size:79.94px;fill:#000000" text-anchor="middle">2</text>
	<text x="1994.97" y="2741.15" style="font-family:'Helvetica';font-size:60.02px;fill:#000000" text-anchor="middle">           </text>
</svg>
