<?xml version="1.0" encoding="UTF-8" standalone="no"?>
<!-- This is a Stata 16.1 generated SVG file (http://www.stata.com) -->

<svg version="1.1" width="5.50in" height="4.00in" viewBox="0 0 3960 2880" xmlns="http://www.w3.org/2000/svg" xmlns:xlink="http://www.w3.org/1999/xlink">
	<desc>Stata Graph - Graph</desc>
	<rect x="0" y="0" width="3960" height="2880" style="fill:#EAF2F3;stroke:none"/>
	<rect x="0.00" y="0.00" width="3959.88" height="2880.00" style="fill:#FFFFFF"/>
	<rect x="2.88" y="2.88" width="3954.12" height="2874.24" style="fill:none;stroke:#FFFFFF;stroke-width:5.76"/>
	<rect x="130.80" y="100.86" width="3728.22" height="2448.35" style="fill:#FFFFFF"/>
	<rect x="133.68" y="103.74" width="3722.46" height="2442.59" style="fill:none;stroke:#FFFFFF;stroke-width:5.76"/>
	<line x1="1994.97" y1="2549.21" x2="1994.97" y2="2491.66" style="stroke:#C10534;stroke-width:8.64"/>
	<line x1="1994.97" y1="2462.83" x2="1994.97" y2="2405.16" style="stroke:#C10534;stroke-width:8.64"/>
	<line x1="1994.97" y1="2376.45" x2="1994.97" y2="2318.78" style="stroke:#C10534;stroke-width:8.64"/>
	<line x1="1994.97" y1="2289.94" x2="1994.97" y2="2232.40" style="stroke:#C10534;stroke-width:8.64"/>
	<line x1="1994.97" y1="2203.56" x2="1994.97" y2="2146.02" style="stroke:#C10534;stroke-width:8.64"/>
	<line x1="1994.97" y1="2117.18" x2="1994.97" y2="2059.64" style="stroke:#C10534;stroke-width:8.64"/>
	<line x1="1994.97" y1="2030.80" x2="1994.97" y2="1973.26" style="stroke:#C10534;stroke-width:8.64"/>
	<line x1="1994.97" y1="1944.42" x2="1994.97" y2="1886.88" style="stroke:#C10534;stroke-width:8.64"/>
	<line x1="1994.97" y1="1858.04" x2="1994.97" y2="1800.50" style="stroke:#C10534;stroke-width:8.64"/>
	<line x1="1994.97" y1="1771.66" x2="1994.97" y2="1714.11" style="stroke:#C10534;stroke-width:8.64"/>
	<line x1="1994.97" y1="1685.28" x2="1994.97" y2="1627.73" style="stroke:#C10534;stroke-width:8.64"/>
	<line x1="1994.97" y1="1598.90" x2="1994.97" y2="1541.35" style="stroke:#C10534;stroke-width:8.64"/>
	<line x1="1994.97" y1="1512.52" x2="1994.97" y2="1454.85" style="stroke:#C10534;stroke-width:8.64"/>
	<line x1="1994.97" y1="1426.14" x2="1994.97" y2="1368.47" style="stroke:#C10534;stroke-width:8.64"/>
	<line x1="1994.97" y1="1339.64" x2="1994.97" y2="1282.09" style="stroke:#C10534;stroke-width:8.64"/>
	<line x1="1994.97" y1="1253.26" x2="1994.97" y2="1195.71" style="stroke:#C10534;stroke-width:8.64"/>
	<line x1="1994.97" y1="1166.88" x2="1994.97" y2="1109.33" style="stroke:#C10534;stroke-width:8.64"/>
	<line x1="1994.97" y1="1080.50" x2="1994.97" y2="1022.95" style="stroke:#C10534;stroke-width:8.64"/>
	<line x1="1994.97" y1="994.11" x2="1994.97" y2="936.57" style="stroke:#C10534;stroke-width:8.64"/>
	<line x1="1994.97" y1="907.73" x2="1994.97" y2="850.19" style="stroke:#C10534;stroke-width:8.64"/>
	<line x1="1994.97" y1="821.35" x2="1994.97" y2="763.81" style="stroke:#C10534;stroke-width:8.64"/>
	<line x1="1994.97" y1="734.97" x2="1994.97" y2="677.43" style="stroke:#C10534;stroke-width:8.64"/>
	<line x1="1994.97" y1="648.59" x2="1994.97" y2="591.05" style="stroke:#C10534;stroke-width:8.64"/>
	<line x1="1994.97" y1="562.21" x2="1994.97" y2="504.54" style="stroke:#C10534;stroke-width:8.64"/>
	<line x1="1994.97" y1="475.83" x2="1994.97" y2="418.16" style="stroke:#C10534;stroke-width:8.64"/>
	<line x1="1994.97" y1="389.33" x2="1994.97" y2="331.78" style="stroke:#C10534;stroke-width:8.64"/>
	<line x1="1994.97" y1="302.95" x2="1994.97" y2="245.40" style="stroke:#C10534;stroke-width:8.64"/>
	<line x1="1994.97" y1="216.57" x2="1994.97" y2="159.02" style="stroke:#C10534;stroke-width:8.64"/>
	<line x1="1994.97" y1="130.19" x2="1994.97" y2="100.86" style="stroke:#C10534;stroke-width:8.64"/>
	<text x="1225.25" y="1346.07" style="font-family:'Helvetica';font-size:60.02px;fill:#000000" text-anchor="middle">Lower risk in those living with children</text>
	<text x="2806.40" y="1346.07" style="font-family:'Helvetica';font-size:60.02px;fill:#000000" text-anchor="middle">Higher risk in those living with children</text>
	<line x1="130.80" y1="2549.21" x2="130.80" y2="100.86" style="stroke:#FFFFFF;stroke-width:5.76"/>
	<line x1="130.80" y1="2549.21" x2="3859.02" y2="2549.21" style="stroke:#000000;stroke-width:5.76"/>
	<line x1="1452.83" y1="2549.21" x2="1452.83" y2="2589.18" style="stroke:#000000;stroke-width:5.76"/>
	<text x="1452.83" y="2665.13" style="font-family:'Helvetica';font-size:79.94px;fill:#000000" text-anchor="middle">.5</text>
	<line x1="1994.97" y1="2549.21" x2="1994.97" y2="2589.18" style="stroke:#000000;stroke-width:5.76"/>
	<text x="1994.97" y="2665.13" style="font-family:'Helvetica';font-size:79.94px;fill:#000000" text-anchor="middle">1</text>
	<line x1="2537.00" y1="2549.21" x2="2537.00" y2="2589.18" style="stroke:#000000;stroke-width:5.76"/>
	<text x="2537.00" y="2665.13" style="font-family:'Helvetica';font-size:79.94px;fill:#000000" text-anchor="middle">2</text>
	<text x="1994.97" y="2741.15" style="font-family:'Helvetica';font-size:60.02px;fill:#000000" text-anchor="middle">           </text>
</svg>
