<?xml version="1.0" encoding="UTF-8" standalone="no"?>
<!-- This is a Stata 16.1 generated SVG file (http://www.stata.com) -->

<svg version="1.1" width="5.50in" height="4.00in" viewBox="0 0 3960 2880" xmlns="http://www.w3.org/2000/svg" xmlns:xlink="http://www.w3.org/1999/xlink">
	<desc>Stata Graph - Graph</desc>
	<rect x="0" y="0" width="3960" height="2880" style="fill:#EAF2F3;stroke:none"/>
	<rect x="0.00" y="0.00" width="3959.88" height="2880.00" style="fill:#EAF2F3"/>
	<rect x="2.88" y="2.88" width="3954.12" height="2874.24" style="fill:none;stroke:#EAF2F3;stroke-width:5.76"/>
	<rect x="297.87" y="207.91" width="1799.32" height="1958.65" style="fill:#EAF2F3"/>
	<rect x="300.03" y="210.07" width="1795.01" height="1954.33" style="fill:none;stroke:#EAF2F3;stroke-width:4.32"/>
	<rect x="635.70" y="414.45" width="1385.88" height="1459.06" style="fill:#FFFFFF"/>
	<rect x="637.86" y="416.61" width="1381.56" height="1454.74" style="fill:none;stroke:#FFFFFF;stroke-width:4.32"/>
	<line x1="635.70" y1="1825.99" x2="2021.58" y2="1825.99" style="stroke:#EAF2F3;stroke-width:6.48"/>
	<line x1="635.70" y1="1553.11" x2="2021.58" y2="1553.11" style="stroke:#EAF2F3;stroke-width:6.48"/>
	<line x1="635.70" y1="1280.36" x2="2021.58" y2="1280.36" style="stroke:#EAF2F3;stroke-width:6.48"/>
	<line x1="635.70" y1="1007.60" x2="2021.58" y2="1007.60" style="stroke:#EAF2F3;stroke-width:6.48"/>
	<line x1="635.70" y1="734.73" x2="2021.58" y2="734.73" style="stroke:#EAF2F3;stroke-width:6.48"/>
	<line x1="635.70" y1="461.97" x2="2021.58" y2="461.97" style="stroke:#EAF2F3;stroke-width:6.48"/>
	<path d=" M773.56 1824.87 L812.17 1824.87 L812.17 1824.75 L831.60 1824.75 L831.60 1824.50 L876.77 1824.50 L876.77 1824.38 L889.64 1824.38 L889.64 1824.13 L896.20 1824.13 L896.20 1823.88 L915.50 1823.88 L915.50 1823.76 L934.81 1823.76 L934.81 1823.51 L960.67 1823.51 L960.67 1823.14 L1070.44 1823.14 L1070.44 1823.14 L1083.31 1823.14 L1083.31 1822.77 L1096.18 1822.77 L1096.18 1822.65 L1109.17 1822.65 L1109.17 1822.40 L1122.04 1822.40 L1122.04 1822.28 L1147.90 1822.28 L1147.90 1821.78 L1160.78 1821.78 L1160.78 1821.29 L1212.38 1821.29 L1212.38 1821.04 L1218.81 1821.04 L1218.81 1820.91 L1231.81 1820.91 L1231.81 1820.67 L1257.55 1820.67 L1257.55 1820.05 L1276.98 1820.05 L1276.98 1819.92 L1283.41 1819.92 L1283.41 1819.68 L1289.85 1819.68 L1289.85 1819.31 L1315.71 1819.31 L1315.71 1819.18 L1354.44 1819.18 L1354.44 1818.32 L1360.88 1818.32 L1360.88 1818.19 L1431.91 1818.19 L1431.91 1817.82 L1438.35 1817.82 L1438.35 1817.57 L1444.78 1817.57 L1444.78 1817.45 L1457.65 1817.45 L1457.65 1817.20 L1464.09 1817.20 L1464.09 1817.08 L1489.95 1817.08 L1489.95 1816.83 L1496.38 1816.83 L1496.38 1816.58 L1522.25 1816.58 L1522.25 1816.58 L1554.55 1816.58 L1554.55 1816.21 L1638.45 1816.21 L1638.45 1816.09 L1657.76 1816.09 L1657.76 1815.84 L1677.18 1815.84 L1677.18 1815.72 L1702.92 1815.72 L1702.92 1815.47 L1715.92 1815.47 L1715.92 1815.22 L1722.35 1815.22 L1722.35 1815.10 L1728.79 1815.10 L1728.79 1814.73 L1741.66 1814.73 L1741.66 1814.48 L1748.09 1814.48 L1748.09 1813.98 L1870.73 1813.98 L1870.73 1813.98" stroke-linejoin="round" style="fill:none;stroke:#1A476F;stroke-width:6.48"/>
	<path d=" M689.53 1825.62 L696.09 1825.62 L696.09 1825.49 L702.53 1825.49 L702.53 1825.00 L708.96 1825.00 L708.96 1824.87 L721.83 1824.87 L721.83 1824.50 L728.27 1824.50 L728.27 1824.26 L734.83 1824.26 L734.83 1824.13 L741.26 1824.13 L741.26 1823.88 L747.70 1823.88 L747.70 1823.51 L754.13 1823.51 L754.13 1823.27 L760.57 1823.27 L760.57 1822.65 L767.00 1822.65 L767.00 1822.15 L773.56 1822.15 L773.56 1820.79 L780.00 1820.79 L780.00 1820.54 L792.87 1820.54 L792.87 1820.17 L818.73 1820.17 L818.73 1819.92 L825.16 1819.92 L825.16 1819.80 L838.03 1819.80 L838.03 1819.55 L850.90 1819.55 L850.90 1819.31 L870.33 1819.31 L870.33 1819.18 L876.77 1819.18 L876.77 1818.19 L883.20 1818.19 L883.20 1817.94 L896.20 1817.94 L896.20 1817.57 L902.63 1817.57 L902.63 1816.95 L909.07 1816.95 L909.07 1816.58 L915.50 1816.58 L915.50 1816.46 L928.37 1816.46 L928.37 1816.21 L941.37 1816.21 L941.37 1815.96 L947.80 1815.96 L947.80 1815.59 L960.67 1815.59 L960.67 1812.25 L980.10 1812.25 L980.10 1811.88 L999.40 1811.88 L999.40 1811.63 L1018.71 1811.63 L1018.71 1811.26 L1025.27 1811.26 L1025.27 1811.01 L1031.70 1811.01 L1031.70 1811.01 L1044.57 1811.01 L1044.57 1810.89 L1051.01 1810.89 L1051.01 1810.64 L1064.00 1810.64 L1064.00 1810.52 L1070.44 1810.52 L1070.44 1810.27 L1076.87 1810.27 L1076.87 1810.15 L1083.31 1810.15 L1083.31 1809.65 L1089.74 1809.65 L1089.74 1809.28 L1096.18 1809.28 L1096.18 1809.16 L1102.74 1809.16 L1102.74 1808.54 L1109.17 1808.54 L1109.17 1808.29 L1115.61 1808.29 L1115.61 1808.17 L1122.04 1808.17 L1122.04 1807.55 L1128.48 1807.55 L1128.48 1807.30 L1134.91 1807.30 L1134.91 1807.18 L1141.35 1807.18 L1141.35 1806.93 L1147.90 1806.93 L1147.90 1806.68 L1154.34 1806.68 L1154.34 1806.56 L1160.78 1806.56 L1160.78 1803.22 L1173.64 1803.22 L1173.64 1802.97 L1180.08 1802.97 L1180.08 1802.72 L1212.38 1802.72 L1212.38 1802.60 L1238.24 1802.60 L1238.24 1802.35 L1244.68 1802.35 L1244.68 1801.98 L1257.55 1801.98 L1257.55 1801.73 L1263.98 1801.73 L1263.98 1801.61 L1276.98 1801.61 L1276.98 1801.36 L1302.72 1801.36 L1302.72 1801.24 L1315.71 1801.24 L1315.71 1800.99 L1322.14 1800.99 L1322.14 1800.74 L1328.58 1800.74 L1328.58 1800.62 L1335.02 1800.62 L1335.02 1799.75 L1348.01 1799.75 L1348.01 1799.63 L1354.44 1799.63 L1354.44 1797.65 L1380.18 1797.65 L1380.18 1797.40 L1399.61 1797.40 L1399.61 1797.28 L1406.05 1797.28 L1406.05 1797.03 L1412.48 1797.03 L1412.48 1796.78 L1418.92 1796.78 L1418.92 1796.41 L1425.35 1796.41 L1425.35 1796.29 L1444.78 1796.29 L1444.78 1795.79 L1464.09 1795.79 L1464.09 1795.79 L1470.64 1795.79 L1470.64 1795.30 L1496.38 1795.30 L1496.38 1795.05 L1502.82 1795.05 L1502.82 1794.43 L1509.26 1794.43 L1509.26 1793.81 L1515.81 1793.81 L1515.81 1793.44 L1522.25 1793.44 L1522.25 1793.32 L1528.68 1793.32 L1528.68 1792.70 L1535.12 1792.70 L1535.12 1792.45 L1547.99 1792.45 L1547.99 1792.08 L1554.55 1792.08 L1554.55 1790.84 L1573.85 1790.84 L1573.85 1790.72 L1606.15 1790.72 L1606.15 1790.47 L1612.59 1790.47 L1612.59 1790.35 L1619.02 1790.35 L1619.02 1789.85 L1651.32 1789.85 L1651.32 1789.48 L1657.76 1789.48 L1657.76 1789.36 L1664.19 1789.36 L1664.19 1788.86 L1677.18 1788.86 L1677.18 1788.74 L1696.49 1788.74 L1696.49 1788.49 L1702.92 1788.49 L1702.92 1788.37 L1709.36 1788.37 L1709.36 1788.12 L1715.92 1788.12 L1715.92 1787.87 L1722.35 1787.87 L1722.35 1787.75 L1735.22 1787.75 L1735.22 1787.25 L1748.09 1787.25 L1748.09 1785.52 L1799.82 1785.52 L1799.82 1785.27 L1812.69 1785.27 L1812.69 1785.15 L1831.99 1785.15 L1831.99 1784.90 L1838.43 1784.90 L1838.43 1784.78 L1870.73 1784.78 L1870.73 1784.78" stroke-linejoin="round" style="fill:none;stroke:#90353B;stroke-width:6.48"/>
	<path d=" M689.53 1825.37 L696.09 1825.37 L696.09 1824.87 L702.53 1824.87 L702.53 1823.76 L708.96 1823.76 L708.96 1822.65 L715.40 1822.65 L715.40 1822.03 L721.83 1822.03 L721.83 1820.67 L728.27 1820.67 L728.27 1819.55 L734.83 1819.55 L734.83 1819.06 L741.26 1819.06 L741.26 1818.44 L747.70 1818.44 L747.70 1817.33 L754.13 1817.33 L754.13 1816.46 L760.57 1816.46 L760.57 1815.72 L767.00 1815.72 L767.00 1815.35 L773.56 1815.35 L773.56 1807.05 L792.87 1807.05 L792.87 1806.81 L805.74 1806.81 L805.74 1806.56 L818.73 1806.56 L818.73 1806.31 L825.16 1806.31 L825.16 1806.06 L831.60 1806.06 L831.60 1805.69 L838.03 1805.69 L838.03 1804.70 L844.47 1804.70 L844.47 1804.08 L850.90 1804.08 L850.90 1803.59 L857.46 1803.59 L857.46 1802.10 L863.90 1802.10 L863.90 1801.36 L870.33 1801.36 L870.33 1800.50 L876.77 1800.50 L876.77 1799.13 L883.20 1799.13 L883.20 1798.64 L889.64 1798.64 L889.64 1798.27 L896.20 1798.27 L896.20 1798.02 L902.63 1798.02 L902.63 1796.66 L909.07 1796.66 L909.07 1796.29 L915.50 1796.29 L915.50 1795.54 L921.94 1795.54 L921.94 1794.18 L928.37 1794.18 L928.37 1793.07 L934.81 1793.07 L934.81 1791.71 L941.37 1791.71 L941.37 1791.34 L947.80 1791.34 L947.80 1790.59 L954.24 1790.59 L954.24 1789.23 L960.67 1789.23 L960.67 1780.69 L967.11 1780.69 L967.11 1780.57 L973.54 1780.57 L973.54 1780.32 L980.10 1780.32 L980.10 1779.46 L992.97 1779.46 L992.97 1778.71 L999.40 1778.71 L999.40 1778.22 L1012.27 1778.22 L1012.27 1777.35 L1018.71 1777.35 L1018.71 1776.49 L1025.27 1776.49 L1025.27 1775.74 L1031.70 1775.74 L1031.70 1775.37 L1038.14 1775.37 L1038.14 1775.13 L1051.01 1775.13 L1051.01 1774.88 L1057.44 1774.88 L1057.44 1774.51 L1064.00 1774.51 L1064.00 1774.01 L1070.44 1774.01 L1070.44 1772.90 L1076.87 1772.90 L1076.87 1772.16 L1083.31 1772.16 L1083.31 1771.29 L1089.74 1771.29 L1089.74 1768.57 L1096.18 1768.57 L1096.18 1767.95 L1102.74 1767.95 L1102.74 1767.21 L1109.17 1767.21 L1109.17 1765.23 L1115.61 1765.23 L1115.61 1764.61 L1122.04 1764.61 L1122.04 1763.86 L1128.48 1763.86 L1128.48 1762.75 L1134.91 1762.75 L1134.91 1761.02 L1141.35 1761.02 L1141.35 1760.77 L1147.90 1760.77 L1147.90 1759.41 L1154.34 1759.41 L1154.34 1758.91 L1160.78 1758.91 L1160.78 1750.87 L1173.64 1750.87 L1173.64 1750.62 L1186.64 1750.62 L1186.64 1750.37 L1193.07 1750.37 L1193.07 1750.25 L1205.94 1750.25 L1205.94 1750.00 L1212.38 1750.00 L1212.38 1749.76 L1225.37 1749.76 L1225.37 1749.26 L1231.81 1749.26 L1231.81 1749.26 L1244.68 1749.26 L1244.68 1749.01 L1251.11 1749.01 L1251.11 1748.39 L1257.55 1748.39 L1257.55 1747.53 L1263.98 1747.53 L1263.98 1746.79 L1270.54 1746.79 L1270.54 1746.17 L1276.98 1746.17 L1276.98 1745.92 L1283.41 1745.92 L1283.41 1745.42 L1289.85 1745.42 L1289.85 1744.81 L1296.28 1744.81 L1296.28 1744.31 L1302.72 1744.31 L1302.72 1742.33 L1309.28 1742.33 L1309.28 1741.22 L1315.71 1741.22 L1315.71 1740.72 L1322.14 1740.72 L1322.14 1739.11 L1328.58 1739.11 L1328.58 1738.25 L1335.02 1738.25 L1335.02 1737.63 L1341.45 1737.63 L1341.45 1736.64 L1348.01 1736.64 L1348.01 1736.27 L1354.44 1736.27 L1354.44 1730.45 L1360.88 1730.45 L1360.88 1729.96 L1380.18 1729.96 L1380.18 1729.71 L1406.05 1729.71 L1406.05 1729.21 L1412.48 1729.21 L1412.48 1728.84 L1418.92 1728.84 L1418.92 1728.84 L1425.35 1728.84 L1425.35 1728.59 L1431.91 1728.59 L1431.91 1727.98 L1438.35 1727.98 L1438.35 1727.48 L1444.78 1727.48 L1444.78 1726.99 L1451.22 1726.99 L1451.22 1726.74 L1457.65 1726.74 L1457.65 1726.61 L1464.09 1726.61 L1464.09 1725.01 L1470.64 1725.01 L1470.64 1724.26 L1477.08 1724.26 L1477.08 1723.40 L1483.52 1723.40 L1483.52 1723.15 L1489.95 1723.15 L1489.95 1721.17 L1496.38 1721.17 L1496.38 1720.30 L1502.82 1720.30 L1502.82 1719.81 L1509.26 1719.81 L1509.26 1719.19 L1515.81 1719.19 L1515.81 1717.33 L1528.68 1717.33 L1528.68 1715.97 L1535.12 1715.97 L1535.12 1715.72 L1541.55 1715.72 L1541.55 1715.35 L1547.99 1715.35 L1547.99 1714.86 L1554.55 1714.86 L1554.55 1706.57 L1560.98 1706.57 L1560.98 1706.32 L1586.72 1706.32 L1586.72 1706.07 L1593.28 1706.07 L1593.28 1705.82 L1599.72 1705.82 L1599.72 1705.70 L1606.15 1705.70 L1606.15 1705.45 L1612.59 1705.45 L1612.59 1705.20 L1619.02 1705.20 L1619.02 1704.71 L1625.46 1704.71 L1625.46 1704.34 L1631.89 1704.34 L1631.89 1703.60 L1638.45 1703.60 L1638.45 1703.10 L1644.88 1703.10 L1644.88 1702.48 L1651.32 1702.48 L1651.32 1701.99 L1657.76 1701.99 L1657.76 1701.86 L1664.19 1701.86 L1664.19 1701.12 L1670.63 1701.12 L1670.63 1700.01 L1677.18 1700.01 L1677.18 1698.65 L1683.62 1698.65 L1683.62 1697.78 L1690.05 1697.78 L1690.05 1696.79 L1702.92 1696.79 L1702.92 1696.42 L1709.36 1696.42 L1709.36 1695.30 L1715.92 1695.30 L1715.92 1694.56 L1722.35 1694.56 L1722.35 1692.58 L1728.79 1692.58 L1728.79 1692.09 L1735.22 1692.09 L1735.22 1691.47 L1741.66 1691.47 L1741.66 1690.73 L1748.09 1690.73 L1748.09 1683.30 L1793.26 1683.30 L1793.26 1683.05 L1799.82 1683.05 L1799.82 1682.68 L1806.26 1682.68 L1806.26 1682.19 L1819.13 1682.19 L1819.13 1682.19 L1825.56 1682.19 L1825.56 1681.94 L1831.99 1681.94 L1831.99 1681.69 L1838.43 1681.69 L1838.43 1681.32 L1844.99 1681.32 L1844.99 1681.07 L1870.73 1681.07 L1870.73 1681.07" stroke-linejoin="round" style="fill:none;stroke:#55752F;stroke-width:6.48"/>
	<path d=" M689.53 1825.00 L696.09 1825.00 L696.09 1822.52 L702.53 1822.52 L702.53 1819.92 L708.96 1819.92 L708.96 1816.83 L715.40 1816.83 L715.40 1813.86 L721.83 1813.86 L721.83 1811.39 L728.27 1811.39 L728.27 1809.65 L734.83 1809.65 L734.83 1807.80 L741.26 1807.80 L741.26 1805.94 L747.70 1805.94 L747.70 1804.58 L754.13 1804.58 L754.13 1802.35 L760.57 1802.35 L760.57 1800.00 L767.00 1800.00 L767.00 1797.52 L773.56 1797.52 L773.56 1780.32 L780.00 1780.32 L780.00 1779.70 L799.30 1779.70 L799.30 1779.21 L805.74 1779.21 L805.74 1778.22 L812.17 1778.22 L812.17 1777.60 L818.73 1777.60 L818.73 1776.73 L825.16 1776.73 L825.16 1776.24 L831.60 1776.24 L831.60 1775.50 L838.03 1775.50 L838.03 1775.00 L844.47 1775.00 L844.47 1774.14 L850.90 1774.14 L850.90 1772.28 L857.46 1772.28 L857.46 1770.05 L863.90 1770.05 L863.90 1769.19 L870.33 1769.19 L870.33 1766.83 L876.77 1766.83 L876.77 1762.63 L883.20 1762.63 L883.20 1760.52 L889.64 1760.52 L889.64 1758.17 L896.20 1758.17 L896.20 1756.31 L902.63 1756.31 L902.63 1754.71 L909.07 1754.71 L909.07 1753.22 L915.50 1753.22 L915.50 1752.35 L921.94 1752.35 L921.94 1749.01 L928.37 1749.01 L928.37 1746.41 L934.81 1746.41 L934.81 1745.05 L941.37 1745.05 L941.37 1742.21 L947.80 1742.21 L947.80 1741.22 L954.24 1741.22 L954.24 1738.87 L960.67 1738.87 L960.67 1716.47 L967.11 1716.47 L967.11 1716.22 L980.10 1716.22 L980.10 1715.97 L986.53 1715.97 L986.53 1714.73 L992.97 1714.73 L992.97 1714.11 L999.40 1714.11 L999.40 1713.50 L1005.84 1713.50 L1005.84 1712.01 L1012.27 1712.01 L1012.27 1711.14 L1018.71 1711.14 L1018.71 1710.15 L1025.27 1710.15 L1025.27 1709.66 L1031.70 1709.66 L1031.70 1708.67 L1038.14 1708.67 L1038.14 1707.43 L1044.57 1707.43 L1044.57 1706.57 L1051.01 1706.57 L1051.01 1705.08 L1057.44 1705.08 L1057.44 1703.84 L1064.00 1703.84 L1064.00 1701.24 L1070.44 1701.24 L1070.44 1699.64 L1076.87 1699.64 L1076.87 1697.90 L1083.31 1697.90 L1083.31 1695.80 L1089.74 1695.80 L1089.74 1692.83 L1096.18 1692.83 L1096.18 1689.98 L1102.74 1689.98 L1102.74 1687.38 L1109.17 1687.38 L1109.17 1686.77 L1115.61 1686.77 L1115.61 1683.18 L1122.04 1683.18 L1122.04 1680.21 L1128.48 1680.21 L1128.48 1676.49 L1134.91 1676.49 L1134.91 1673.28 L1141.35 1673.28 L1141.35 1670.80 L1147.90 1670.80 L1147.90 1668.70 L1154.34 1668.70 L1154.34 1666.35 L1160.78 1666.35 L1160.78 1643.45 L1173.64 1643.45 L1173.64 1643.08 L1186.64 1643.08 L1186.64 1642.21 L1193.07 1642.21 L1193.07 1641.72 L1199.51 1641.72 L1199.51 1641.72 L1205.94 1641.72 L1205.94 1641.72 L1212.38 1641.72 L1212.38 1641.10 L1218.81 1641.10 L1218.81 1640.48 L1225.37 1640.48 L1225.37 1640.11 L1231.81 1640.11 L1231.81 1639.61 L1238.24 1639.61 L1238.24 1638.87 L1244.68 1638.87 L1244.68 1638.62 L1251.11 1638.62 L1251.11 1635.65 L1257.55 1635.65 L1257.55 1633.18 L1263.98 1633.18 L1263.98 1632.31 L1270.54 1632.31 L1270.54 1630.83 L1276.98 1630.83 L1276.98 1629.10 L1283.41 1629.10 L1283.41 1626.62 L1289.85 1626.62 L1289.85 1624.15 L1296.28 1624.15 L1296.28 1623.03 L1302.72 1623.03 L1302.72 1620.93 L1309.28 1620.93 L1309.28 1619.69 L1315.71 1619.69 L1315.71 1617.59 L1322.14 1617.59 L1322.14 1615.85 L1328.58 1615.85 L1328.58 1613.13 L1335.02 1613.13 L1335.02 1611.28 L1341.45 1611.28 L1341.45 1609.42 L1348.01 1609.42 L1348.01 1607.32 L1354.44 1607.32 L1354.44 1586.40 L1367.31 1586.40 L1367.31 1586.15 L1373.75 1586.15 L1373.75 1585.41 L1380.18 1585.41 L1380.18 1585.16 L1386.62 1585.16 L1386.62 1585.16 L1393.18 1585.16 L1393.18 1584.92 L1399.61 1584.92 L1399.61 1584.79 L1406.05 1584.79 L1406.05 1583.43 L1412.48 1583.43 L1412.48 1583.31 L1418.92 1583.31 L1418.92 1582.69 L1425.35 1582.69 L1425.35 1581.82 L1431.91 1581.82 L1431.91 1581.20 L1438.35 1581.20 L1438.35 1580.71 L1444.78 1580.71 L1444.78 1579.22 L1451.22 1579.22 L1451.22 1578.23 L1457.65 1578.23 L1457.65 1577.00 L1464.09 1577.00 L1464.09 1575.51 L1470.64 1575.51 L1470.64 1574.64 L1477.08 1574.64 L1477.08 1571.92 L1483.52 1571.92 L1483.52 1570.68 L1489.95 1570.68 L1489.95 1568.33 L1496.38 1568.33 L1496.38 1567.47 L1502.82 1567.47 L1502.82 1565.12 L1509.26 1565.12 L1509.26 1564.37 L1515.81 1564.37 L1515.81 1563.51 L1522.25 1563.51 L1522.25 1561.40 L1528.68 1561.40 L1528.68 1559.30 L1535.12 1559.30 L1535.12 1557.57 L1541.55 1557.57 L1541.55 1556.08 L1547.99 1556.08 L1547.99 1555.09 L1554.55 1555.09 L1554.55 1538.38 L1560.98 1538.38 L1560.98 1538.26 L1567.42 1538.26 L1567.42 1538.01 L1573.85 1538.01 L1573.85 1537.77 L1586.72 1537.77 L1586.72 1537.15 L1593.28 1537.15 L1593.28 1536.28 L1599.72 1536.28 L1599.72 1535.66 L1606.15 1535.66 L1606.15 1534.05 L1612.59 1534.05 L1612.59 1533.19 L1619.02 1533.19 L1619.02 1532.57 L1625.46 1532.57 L1625.46 1532.07 L1631.89 1532.07 L1631.89 1531.45 L1638.45 1531.45 L1638.45 1531.21 L1644.88 1531.21 L1644.88 1530.84 L1651.32 1530.84 L1651.32 1529.72 L1657.76 1529.72 L1657.76 1527.87 L1664.19 1527.87 L1664.19 1525.76 L1670.63 1525.76 L1670.63 1523.66 L1677.18 1523.66 L1677.18 1521.93 L1683.62 1521.93 L1683.62 1521.31 L1690.05 1521.31 L1690.05 1520.69 L1696.49 1520.69 L1696.49 1518.83 L1702.92 1518.83 L1702.92 1517.10 L1709.36 1517.10 L1709.36 1515.24 L1715.92 1515.24 L1715.92 1513.76 L1722.35 1513.76 L1722.35 1510.79 L1728.79 1510.79 L1728.79 1509.92 L1735.22 1509.92 L1735.22 1507.82 L1741.66 1507.82 L1741.66 1506.58 L1748.09 1506.58 L1748.09 1490.12 L1767.52 1490.12 L1767.52 1489.75 L1793.26 1489.75 L1793.26 1489.38 L1799.82 1489.38 L1799.82 1489.13 L1812.69 1489.13 L1812.69 1488.51 L1819.13 1488.51 L1819.13 1487.89 L1825.56 1487.89 L1825.56 1487.40 L1831.99 1487.40 L1831.99 1486.78 L1838.43 1486.78 L1838.43 1486.41 L1870.73 1486.41 L1870.73 1486.41" stroke-linejoin="round" style="fill:none;stroke:#E37E00;stroke-width:6.48"/>
	<path d=" M689.53 1821.90 L696.09 1821.90 L696.09 1820.30 L702.53 1820.30 L702.53 1817.82 L708.96 1817.82 L708.96 1814.97 L715.40 1814.97 L715.40 1810.89 L721.83 1810.89 L721.83 1807.67 L728.27 1807.67 L728.27 1804.33 L734.83 1804.33 L734.83 1799.88 L741.26 1799.88 L741.26 1795.30 L747.70 1795.30 L747.70 1792.82 L754.13 1792.82 L754.13 1790.84 L760.57 1790.84 L760.57 1788.00 L767.00 1788.00 L767.00 1781.44 L773.56 1781.44 L773.56 1743.32 L780.00 1743.32 L780.00 1741.34 L786.43 1741.34 L786.43 1740.85 L792.87 1740.85 L792.87 1740.47 L799.30 1740.47 L799.30 1739.24 L805.74 1739.24 L805.74 1738.00 L818.73 1738.00 L818.73 1736.02 L825.16 1736.02 L825.16 1734.78 L831.60 1734.78 L831.60 1733.05 L838.03 1733.05 L838.03 1731.07 L844.47 1731.07 L844.47 1728.97 L850.90 1728.97 L850.90 1726.99 L857.46 1726.99 L857.46 1721.66 L863.90 1721.66 L863.90 1717.08 L870.33 1717.08 L870.33 1712.13 L876.77 1712.13 L876.77 1707.68 L883.20 1707.68 L883.20 1701.99 L889.64 1701.99 L889.64 1697.41 L896.20 1697.41 L896.20 1693.70 L902.63 1693.70 L902.63 1688.87 L909.07 1688.87 L909.07 1684.29 L915.50 1684.29 L915.50 1678.60 L921.94 1678.60 L921.94 1672.41 L928.37 1672.41 L928.37 1667.09 L934.81 1667.09 L934.81 1661.40 L941.37 1661.40 L941.37 1655.70 L947.80 1655.70 L947.80 1650.75 L954.24 1650.75 L954.24 1644.94 L960.67 1644.94 L960.67 1604.47 L967.11 1604.47 L967.11 1603.97 L973.54 1603.97 L973.54 1602.74 L980.10 1602.74 L980.10 1601.50 L986.53 1601.50 L986.53 1601.13 L992.97 1601.13 L992.97 1600.26 L999.40 1600.26 L999.40 1599.89 L1005.84 1599.89 L1005.84 1597.04 L1012.27 1597.04 L1012.27 1594.20 L1018.71 1594.20 L1018.71 1590.48 L1025.27 1590.48 L1025.27 1588.88 L1031.70 1588.88 L1031.70 1585.53 L1038.14 1585.53 L1038.14 1582.32 L1044.57 1582.32 L1044.57 1579.35 L1051.01 1579.35 L1051.01 1578.60 L1057.44 1578.60 L1057.44 1573.65 L1064.00 1573.65 L1064.00 1569.20 L1070.44 1569.20 L1070.44 1566.23 L1076.87 1566.23 L1076.87 1559.67 L1083.31 1559.67 L1083.31 1557.69 L1089.74 1557.69 L1089.74 1552.74 L1096.18 1552.74 L1096.18 1547.79 L1102.74 1547.79 L1102.74 1542.47 L1109.17 1542.47 L1109.17 1540.49 L1115.61 1540.49 L1115.61 1535.91 L1122.04 1535.91 L1122.04 1533.06 L1128.48 1533.06 L1128.48 1528.48 L1134.91 1528.48 L1134.91 1524.40 L1141.35 1524.40 L1141.35 1515.37 L1147.90 1515.37 L1147.90 1512.15 L1154.34 1512.15 L1154.34 1508.81 L1160.78 1508.81 L1160.78 1464.13 L1173.64 1464.13 L1173.64 1463.76 L1186.64 1463.76 L1186.64 1463.27 L1193.07 1463.27 L1193.07 1462.89 L1199.51 1462.89 L1199.51 1462.52 L1212.38 1462.52 L1212.38 1461.66 L1218.81 1461.66 L1218.81 1460.42 L1225.37 1460.42 L1225.37 1459.18 L1231.81 1459.18 L1231.81 1455.96 L1238.24 1455.96 L1238.24 1455.10 L1244.68 1455.10 L1244.68 1451.01 L1251.11 1451.01 L1251.11 1447.67 L1257.55 1447.67 L1257.55 1445.69 L1263.98 1445.69 L1263.98 1439.13 L1270.54 1439.13 L1270.54 1436.16 L1276.98 1436.16 L1276.98 1430.47 L1283.41 1430.47 L1283.41 1428.00 L1289.85 1428.00 L1289.85 1423.05 L1296.28 1423.05 L1296.28 1420.57 L1302.72 1420.57 L1302.72 1416.49 L1309.28 1416.49 L1309.28 1412.03 L1315.71 1412.03 L1315.71 1407.45 L1322.14 1407.45 L1322.14 1402.63 L1328.58 1402.63 L1328.58 1399.28 L1335.02 1399.28 L1335.02 1395.57 L1341.45 1395.57 L1341.45 1388.64 L1348.01 1388.64 L1348.01 1384.06 L1354.44 1384.06 L1354.44 1341.00 L1367.31 1341.00 L1367.31 1340.63 L1393.18 1340.63 L1393.18 1339.76 L1399.61 1339.76 L1399.61 1337.28 L1406.05 1337.28 L1406.05 1336.42 L1412.48 1336.42 L1412.48 1335.68 L1418.92 1335.68 L1418.92 1334.07 L1425.35 1334.07 L1425.35 1333.20 L1431.91 1333.20 L1431.91 1330.73 L1438.35 1330.73 L1438.35 1329.12 L1444.78 1329.12 L1444.78 1327.38 L1451.22 1327.38 L1451.22 1323.30 L1457.65 1323.30 L1457.65 1320.45 L1464.09 1320.45 L1464.09 1315.87 L1470.64 1315.87 L1470.64 1313.52 L1477.08 1313.52 L1477.08 1309.81 L1483.52 1309.81 L1483.52 1306.84 L1489.95 1306.84 L1489.95 1302.39 L1496.38 1302.39 L1496.38 1298.30 L1502.82 1298.30 L1502.82 1295.83 L1509.26 1295.83 L1509.26 1290.88 L1515.81 1290.88 L1515.81 1286.79 L1522.25 1286.79 L1522.25 1281.47 L1528.68 1281.47 L1528.68 1277.39 L1535.12 1277.39 L1535.12 1273.67 L1541.55 1273.67 L1541.55 1269.47 L1547.99 1269.47 L1547.99 1266.25 L1554.55 1266.25 L1554.55 1229.25 L1567.42 1229.25 L1567.42 1228.88 L1573.85 1228.88 L1573.85 1228.88 L1586.72 1228.88 L1586.72 1227.64 L1593.28 1227.64 L1593.28 1227.27 L1599.72 1227.27 L1599.72 1226.03 L1606.15 1226.03 L1606.15 1225.16 L1612.59 1225.16 L1612.59 1224.79 L1619.02 1224.79 L1619.02 1222.32 L1625.46 1222.32 L1625.46 1219.47 L1631.89 1219.47 L1631.89 1216.50 L1638.45 1216.50 L1638.45 1214.89 L1644.88 1214.89 L1644.88 1212.42 L1651.32 1212.42 L1651.32 1209.94 L1657.76 1209.94 L1657.76 1207.47 L1664.19 1207.47 L1664.19 1202.52 L1670.63 1202.52 L1670.63 1196.45 L1677.18 1196.45 L1677.18 1193.48 L1683.62 1193.48 L1683.62 1189.77 L1690.05 1189.77 L1690.05 1186.18 L1696.49 1186.18 L1696.49 1183.21 L1702.92 1183.21 L1702.92 1179.50 L1709.36 1179.50 L1709.36 1173.81 L1715.92 1173.81 L1715.92 1170.09 L1722.35 1170.09 L1722.35 1166.01 L1728.79 1166.01 L1728.79 1161.43 L1735.22 1161.43 L1735.22 1157.72 L1741.66 1157.72 L1741.66 1154.87 L1748.09 1154.87 L1748.09 1116.26 L1780.39 1116.26 L1780.39 1115.89 L1793.26 1115.89 L1793.26 1114.65 L1799.82 1114.65 L1799.82 1114.16 L1806.26 1114.16 L1806.26 1113.78 L1819.13 1113.78 L1819.13 1112.92 L1831.99 1112.92 L1831.99 1111.31 L1838.43 1111.31 L1838.43 1110.94 L1851.42 1110.94 L1851.42 1110.44 L1870.73 1110.44 L1870.73 1110.44" stroke-linejoin="round" style="fill:none;stroke:#6E8E84;stroke-width:6.48"/>
	<line x1="635.70" y1="1873.51" x2="635.70" y2="414.45" style="stroke:#000000;stroke-width:4.32"/>
	<line x1="635.70" y1="1825.99" x2="605.63" y2="1825.99" style="stroke:#000000;stroke-width:4.32"/>
	<text x="590.66" y="1852.27" style="font-family:'Helvetica';font-size:74.99px;fill:#000000" text-anchor="end">0.000</text>
	<line x1="635.70" y1="1553.11" x2="605.63" y2="1553.11" style="stroke:#000000;stroke-width:4.32"/>
	<text x="590.66" y="1579.39" style="font-family:'Helvetica';font-size:74.99px;fill:#000000" text-anchor="end">0.001</text>
	<line x1="635.70" y1="1280.36" x2="605.63" y2="1280.36" style="stroke:#000000;stroke-width:4.32"/>
	<text x="590.66" y="1306.64" style="font-family:'Helvetica';font-size:74.99px;fill:#000000" text-anchor="end">0.002</text>
	<line x1="635.70" y1="1007.60" x2="605.63" y2="1007.60" style="stroke:#000000;stroke-width:4.32"/>
	<text x="590.66" y="1033.88" style="font-family:'Helvetica';font-size:74.99px;fill:#000000" text-anchor="end">0.003</text>
	<line x1="635.70" y1="734.73" x2="605.63" y2="734.73" style="stroke:#000000;stroke-width:4.32"/>
	<text x="590.66" y="761.01" style="font-family:'Helvetica';font-size:74.99px;fill:#000000" text-anchor="end">0.004</text>
	<line x1="635.70" y1="461.97" x2="605.63" y2="461.97" style="stroke:#000000;stroke-width:4.32"/>
	<text x="590.66" y="488.25" style="font-family:'Helvetica';font-size:74.99px;fill:#000000" text-anchor="end">0.005</text>
	<line x1="635.70" y1="1873.51" x2="2021.58" y2="1873.51" style="stroke:#000000;stroke-width:4.32"/>
	<line x1="683.22" y1="1873.51" x2="683.22" y2="1903.46" style="stroke:#000000;stroke-width:4.32"/>
	<text x="683.22" y="1970.87" style="font-family:'Helvetica';font-size:74.99px;fill:#000000" text-anchor="middle">1 Feb 20</text>
	<line x1="870.33" y1="1873.51" x2="870.33" y2="1903.46" style="stroke:#000000;stroke-width:4.32"/>
	<text x="870.33" y="1970.87" style="font-family:'Helvetica';font-size:74.99px;fill:#000000" text-anchor="middle">1 Mar 20</text>
	<line x1="1070.44" y1="1873.51" x2="1070.44" y2="1903.46" style="stroke:#000000;stroke-width:4.32"/>
	<text x="1070.44" y="1970.87" style="font-family:'Helvetica';font-size:74.99px;fill:#000000" text-anchor="middle">1 Apr 20</text>
	<line x1="1270.54" y1="1873.51" x2="1270.54" y2="1903.46" style="stroke:#000000;stroke-width:4.32"/>
	<text x="1270.54" y="1970.87" style="font-family:'Helvetica';font-size:74.99px;fill:#000000" text-anchor="middle">1 May 20</text>
	<line x1="1464.21" y1="1873.51" x2="1464.21" y2="1903.46" style="stroke:#000000;stroke-width:4.32"/>
	<text x="1464.21" y="1970.87" style="font-family:'Helvetica';font-size:74.99px;fill:#000000" text-anchor="middle">1 June 20</text>
	<line x1="1657.88" y1="1873.51" x2="1657.88" y2="1903.46" style="stroke:#000000;stroke-width:4.32"/>
	<text x="1657.88" y="1970.87" style="font-family:'Helvetica';font-size:74.99px;fill:#000000" text-anchor="middle">1 July 20</text>
	<line x1="1857.86" y1="1873.51" x2="1857.86" y2="1903.46" style="stroke:#000000;stroke-width:4.32"/>
	<text x="1857.86" y="1970.87" style="font-family:'Helvetica';font-size:74.99px;fill:#000000" text-anchor="middle">1 Aug 20</text>
	<text x="1328.70" y="2053.41" style="font-family:'Helvetica';font-size:74.99px;fill:#000000" text-anchor="middle"> </text>
	<text x="1328.70" y="369.91" style="font-family:'Helvetica';font-size:104.94px;fill:#1E2D53" text-anchor="middle">Female</text>
	<rect x="2097.19" y="207.91" width="1799.33" height="1958.65" style="fill:#EAF2F3"/>
	<rect x="2099.35" y="210.07" width="1795.01" height="1954.33" style="fill:none;stroke:#EAF2F3;stroke-width:4.32"/>
	<rect x="2435.03" y="414.45" width="1385.88" height="1459.06" style="fill:#FFFFFF"/>
	<rect x="2437.19" y="416.61" width="1381.56" height="1454.74" style="fill:none;stroke:#FFFFFF;stroke-width:4.32"/>
	<line x1="2435.03" y1="1825.99" x2="3820.91" y2="1825.99" style="stroke:#EAF2F3;stroke-width:6.48"/>
	<line x1="2435.03" y1="1553.11" x2="3820.91" y2="1553.11" style="stroke:#EAF2F3;stroke-width:6.48"/>
	<line x1="2435.03" y1="1280.36" x2="3820.91" y2="1280.36" style="stroke:#EAF2F3;stroke-width:6.48"/>
	<line x1="2435.03" y1="1007.60" x2="3820.91" y2="1007.60" style="stroke:#EAF2F3;stroke-width:6.48"/>
	<line x1="2435.03" y1="734.73" x2="3820.91" y2="734.73" style="stroke:#EAF2F3;stroke-width:6.48"/>
	<line x1="2435.03" y1="461.97" x2="3820.91" y2="461.97" style="stroke:#EAF2F3;stroke-width:6.48"/>
	<path d=" M2488.86 1825.86 L2501.85 1825.86 L2501.85 1825.62 L2521.16 1825.62 L2521.16 1825.49 L2547.02 1825.49 L2547.02 1825.25 L2566.33 1825.25 L2566.33 1824.63 L2572.76 1824.63 L2572.76 1822.52 L2579.20 1822.52 L2579.20 1822.15 L2605.06 1822.15 L2605.06 1822.03 L2617.93 1822.03 L2617.93 1821.78 L2624.49 1821.78 L2624.49 1821.41 L2637.36 1821.41 L2637.36 1821.04 L2650.23 1821.04 L2650.23 1820.79 L2656.66 1820.79 L2656.66 1820.05 L2663.22 1820.05 L2663.22 1819.80 L2669.66 1819.80 L2669.66 1819.68 L2676.09 1819.68 L2676.09 1819.43 L2701.83 1819.43 L2701.83 1819.06 L2708.39 1819.06 L2708.39 1818.69 L2721.26 1818.69 L2721.26 1818.44 L2727.70 1818.44 L2727.70 1818.32 L2734.13 1818.32 L2734.13 1817.94 L2740.57 1817.94 L2740.57 1817.70 L2747.13 1817.70 L2747.13 1817.45 L2753.56 1817.45 L2753.56 1817.33 L2760.00 1817.33 L2760.00 1815.72 L2772.87 1815.72 L2772.87 1815.59 L2785.86 1815.59 L2785.86 1815.35 L2811.60 1815.35 L2811.60 1815.22 L2818.03 1815.22 L2818.03 1814.97 L2831.03 1814.97 L2831.03 1814.73 L2837.46 1814.73 L2837.46 1814.73 L2843.90 1814.73 L2843.90 1814.60 L2850.33 1814.60 L2850.33 1814.36 L2869.76 1814.36 L2869.76 1814.23 L2882.63 1814.23 L2882.63 1814.23 L2889.07 1814.23 L2889.07 1813.74 L2901.94 1813.74 L2901.94 1813.61 L2908.50 1813.61 L2908.50 1813.37 L2914.93 1813.37 L2914.93 1812.62 L2921.37 1812.62 L2921.37 1812.25 L2927.80 1812.25 L2927.80 1812.25 L2934.24 1812.25 L2934.24 1812.00 L2940.67 1812.00 L2940.67 1811.63 L2947.11 1811.63 L2947.11 1811.51 L2953.66 1811.51 L2953.66 1811.26 L2960.10 1811.26 L2960.10 1810.15 L2992.40 1810.15 L2992.40 1810.15 L3037.57 1810.15 L3037.57 1809.65 L3069.74 1809.65 L3069.74 1809.53 L3089.17 1809.53 L3089.17 1809.16 L3102.04 1809.16 L3102.04 1809.16 L3108.48 1809.16 L3108.48 1808.91 L3121.47 1808.91 L3121.47 1808.54 L3127.91 1808.54 L3127.91 1808.29 L3140.78 1808.29 L3140.78 1808.17 L3153.77 1808.17 L3153.77 1807.30 L3198.94 1807.30 L3198.94 1807.18 L3211.81 1807.18 L3211.81 1806.93 L3224.68 1806.93 L3224.68 1806.81 L3237.67 1806.81 L3237.67 1806.56 L3244.11 1806.56 L3244.11 1806.44 L3256.98 1806.44 L3256.98 1806.19 L3276.41 1806.19 L3276.41 1805.82 L3295.71 1805.82 L3295.71 1805.57 L3308.58 1805.57 L3308.58 1805.20 L3321.57 1805.20 L3321.57 1804.83 L3328.01 1804.83 L3328.01 1804.46 L3340.88 1804.46 L3340.88 1804.08 L3347.31 1804.08 L3347.31 1803.84 L3353.75 1803.84 L3353.75 1802.85 L3411.91 1802.85 L3411.91 1802.60 L3424.78 1802.60 L3424.78 1802.48 L3482.94 1802.48 L3482.94 1802.23 L3489.38 1802.23 L3489.38 1802.10 L3495.81 1802.10 L3495.81 1801.86 L3508.68 1801.86 L3508.68 1801.73 L3547.42 1801.73 L3547.42 1800.74 L3670.05 1800.74 L3670.05 1800.74" stroke-linejoin="round" style="fill:none;stroke:#1A476F;stroke-width:6.48"/>
	<path d=" M2501.85 1825.86 L2508.29 1825.86 L2508.29 1825.62 L2514.72 1825.62 L2514.72 1825.49 L2527.59 1825.49 L2527.59 1824.87 L2534.03 1824.87 L2534.03 1824.63 L2553.46 1824.63 L2553.46 1824.26 L2572.76 1824.26 L2572.76 1821.29 L2585.76 1821.29 L2585.76 1821.04 L2592.19 1821.04 L2592.19 1820.67 L2598.63 1820.67 L2598.63 1820.54 L2611.50 1820.54 L2611.50 1820.30 L2624.49 1820.30 L2624.49 1819.92 L2643.80 1819.92 L2643.80 1819.55 L2650.23 1819.55 L2650.23 1819.06 L2656.66 1819.06 L2656.66 1818.93 L2663.22 1818.93 L2663.22 1818.07 L2669.66 1818.07 L2669.66 1817.94 L2682.53 1817.94 L2682.53 1816.58 L2688.96 1816.58 L2688.96 1816.34 L2695.40 1816.34 L2695.40 1815.96 L2708.39 1815.96 L2708.39 1815.10 L2714.83 1815.10 L2714.83 1814.60 L2727.70 1814.60 L2727.70 1814.36 L2734.13 1814.36 L2734.13 1813.74 L2740.57 1813.74 L2740.57 1813.61 L2747.13 1813.61 L2747.13 1813.61 L2753.56 1813.61 L2753.56 1812.99 L2760.00 1812.99 L2760.00 1809.78 L2779.30 1809.78 L2779.30 1809.53 L2785.86 1809.53 L2785.86 1809.41 L2792.30 1809.41 L2792.30 1809.16 L2805.16 1809.16 L2805.16 1808.79 L2831.03 1808.79 L2831.03 1808.79 L2837.46 1808.79 L2837.46 1808.42 L2843.90 1808.42 L2843.90 1808.17 L2856.77 1808.17 L2856.77 1807.80 L2863.20 1807.80 L2863.20 1807.18 L2869.76 1807.18 L2869.76 1807.05 L2876.20 1807.05 L2876.20 1806.56 L2882.63 1806.56 L2882.63 1806.44 L2895.50 1806.44 L2895.50 1806.06 L2908.50 1806.06 L2908.50 1804.58 L2914.93 1804.58 L2914.93 1804.21 L2921.37 1804.21 L2921.37 1803.96 L2927.80 1803.96 L2927.80 1803.59 L2940.67 1803.59 L2940.67 1803.22 L2947.11 1803.22 L2947.11 1802.97 L2953.66 1802.97 L2953.66 1802.48 L2960.10 1802.48 L2960.10 1798.27 L2966.53 1798.27 L2966.53 1798.02 L2972.97 1798.02 L2972.97 1797.90 L2992.40 1797.90 L2992.40 1797.90 L2998.83 1797.90 L2998.83 1797.40 L3005.27 1797.40 L3005.27 1797.28 L3011.70 1797.28 L3011.70 1796.66 L3018.14 1796.66 L3018.14 1796.41 L3031.13 1796.41 L3031.13 1796.29 L3044.00 1796.29 L3044.00 1796.04 L3063.31 1796.04 L3063.31 1795.92 L3069.74 1795.92 L3069.74 1795.92 L3082.74 1795.92 L3082.74 1795.67 L3089.17 1795.67 L3089.17 1795.30 L3095.61 1795.30 L3095.61 1794.93 L3102.04 1794.93 L3102.04 1794.43 L3108.48 1794.43 L3108.48 1794.06 L3115.03 1794.06 L3115.03 1793.69 L3140.78 1793.69 L3140.78 1793.07 L3147.21 1793.07 L3147.21 1792.82 L3153.77 1792.82 L3153.77 1789.23 L3160.20 1789.23 L3160.20 1789.11 L3179.51 1789.11 L3179.51 1788.86 L3192.38 1788.86 L3192.38 1788.74 L3211.81 1788.74 L3211.81 1788.24 L3224.68 1788.24 L3224.68 1788.12 L3231.11 1788.12 L3231.11 1787.13 L3244.11 1787.13 L3244.11 1786.76 L3250.54 1786.76 L3250.54 1786.26 L3256.98 1786.26 L3256.98 1786.14 L3269.85 1786.14 L3269.85 1785.27 L3276.41 1785.27 L3276.41 1785.15 L3289.28 1785.15 L3289.28 1784.90 L3302.14 1784.90 L3302.14 1784.53 L3308.58 1784.53 L3308.58 1784.28 L3315.01 1784.28 L3315.01 1783.54 L3321.57 1783.54 L3321.57 1783.05 L3340.88 1783.05 L3340.88 1782.92 L3347.31 1782.92 L3347.31 1782.92 L3353.75 1782.92 L3353.75 1780.69 L3386.05 1780.69 L3386.05 1780.57 L3424.78 1780.57 L3424.78 1780.32 L3431.22 1780.32 L3431.22 1779.95 L3450.64 1779.95 L3450.64 1779.70 L3457.08 1779.70 L3457.08 1779.33 L3463.51 1779.33 L3463.51 1779.09 L3489.38 1779.09 L3489.38 1778.96 L3508.68 1778.96 L3508.68 1778.47 L3515.12 1778.47 L3515.12 1778.34 L3521.55 1778.34 L3521.55 1778.10 L3528.11 1778.10 L3528.11 1777.97 L3534.55 1777.97 L3534.55 1777.48 L3540.98 1777.48 L3540.98 1777.11 L3547.42 1777.11 L3547.42 1776.36 L3618.45 1776.36 L3618.45 1776.12 L3624.89 1776.12 L3624.89 1775.87 L3637.76 1775.87 L3637.76 1775.74 L3670.05 1775.74 L3670.05 1775.74" stroke-linejoin="round" style="fill:none;stroke:#90353B;stroke-width:6.48"/>
	<path d=" M2488.86 1825.62 L2495.30 1825.62 L2495.30 1825.00 L2501.85 1825.00 L2501.85 1823.88 L2508.29 1823.88 L2508.29 1822.40 L2514.72 1822.40 L2514.72 1821.16 L2521.16 1821.16 L2521.16 1820.67 L2527.59 1820.67 L2527.59 1818.56 L2534.03 1818.56 L2534.03 1817.45 L2540.59 1817.45 L2540.59 1815.96 L2547.02 1815.96 L2547.02 1815.35 L2553.46 1815.35 L2553.46 1814.11 L2559.89 1814.11 L2559.89 1812.99 L2566.33 1812.99 L2566.33 1812.62 L2572.76 1812.62 L2572.76 1802.97 L2579.20 1802.97 L2579.20 1802.72 L2592.19 1802.72 L2592.19 1802.60 L2605.06 1802.60 L2605.06 1802.10 L2617.93 1802.10 L2617.93 1801.86 L2624.49 1801.86 L2624.49 1801.24 L2630.93 1801.24 L2630.93 1800.87 L2637.36 1800.87 L2637.36 1799.50 L2643.80 1799.50 L2643.80 1798.51 L2650.23 1798.51 L2650.23 1797.65 L2656.66 1797.65 L2656.66 1796.29 L2663.22 1796.29 L2663.22 1795.54 L2669.66 1795.54 L2669.66 1794.80 L2676.09 1794.80 L2676.09 1793.19 L2682.53 1793.19 L2682.53 1792.33 L2688.96 1792.33 L2688.96 1791.58 L2695.40 1791.58 L2695.40 1790.97 L2701.83 1790.97 L2701.83 1789.98 L2708.39 1789.98 L2708.39 1789.11 L2714.83 1789.11 L2714.83 1788.00 L2721.26 1788.00 L2721.26 1786.76 L2727.70 1786.76 L2727.70 1785.40 L2734.13 1785.40 L2734.13 1784.16 L2740.57 1784.16 L2740.57 1783.29 L2747.13 1783.29 L2747.13 1782.43 L2753.56 1782.43 L2753.56 1781.81 L2760.00 1781.81 L2760.00 1769.80 L2766.43 1769.80 L2766.43 1769.43 L2772.87 1769.43 L2772.87 1768.94 L2779.30 1768.94 L2779.30 1768.32 L2785.86 1768.32 L2785.86 1767.45 L2792.30 1767.45 L2792.30 1767.08 L2798.73 1767.08 L2798.73 1766.59 L2805.16 1766.59 L2805.16 1765.60 L2811.60 1765.60 L2811.60 1764.85 L2818.03 1764.85 L2818.03 1764.73 L2824.47 1764.73 L2824.47 1763.99 L2831.03 1763.99 L2831.03 1763.37 L2837.46 1763.37 L2837.46 1762.75 L2843.90 1762.75 L2843.90 1761.27 L2850.33 1761.27 L2850.33 1760.65 L2856.77 1760.65 L2856.77 1760.40 L2863.20 1760.40 L2863.20 1759.53 L2869.76 1759.53 L2869.76 1757.80 L2876.20 1757.80 L2876.20 1756.93 L2882.63 1756.93 L2882.63 1755.70 L2889.07 1755.70 L2889.07 1754.33 L2895.50 1754.33 L2895.50 1753.96 L2901.94 1753.96 L2901.94 1753.34 L2908.50 1753.34 L2908.50 1752.85 L2914.93 1752.85 L2914.93 1751.61 L2921.37 1751.61 L2921.37 1750.50 L2927.80 1750.50 L2927.80 1749.88 L2934.24 1749.88 L2934.24 1749.26 L2940.67 1749.26 L2940.67 1747.78 L2947.11 1747.78 L2947.11 1746.04 L2953.66 1746.04 L2953.66 1744.93 L2960.10 1744.93 L2960.10 1734.04 L2972.97 1734.04 L2972.97 1733.67 L2979.41 1733.67 L2979.41 1733.42 L2998.83 1733.42 L2998.83 1733.17 L3005.27 1733.17 L3005.27 1733.17 L3011.70 1733.17 L3011.70 1732.93 L3018.14 1732.93 L3018.14 1732.80 L3024.57 1732.80 L3024.57 1732.06 L3031.13 1732.06 L3031.13 1731.94 L3037.57 1731.94 L3037.57 1731.19 L3044.00 1731.19 L3044.00 1730.45 L3050.44 1730.45 L3050.44 1729.96 L3056.87 1729.96 L3056.87 1728.72 L3063.31 1728.72 L3063.31 1728.22 L3069.74 1728.22 L3069.74 1727.98 L3076.30 1727.98 L3076.30 1726.99 L3082.74 1726.99 L3082.74 1725.87 L3089.17 1725.87 L3089.17 1725.50 L3095.61 1725.50 L3095.61 1724.76 L3102.04 1724.76 L3102.04 1723.77 L3108.48 1723.77 L3108.48 1721.79 L3115.03 1721.79 L3115.03 1720.92 L3121.47 1720.92 L3121.47 1719.93 L3127.91 1719.93 L3127.91 1718.82 L3134.34 1718.82 L3134.34 1717.70 L3140.78 1717.70 L3140.78 1717.58 L3147.21 1717.58 L3147.21 1715.97 L3153.77 1715.97 L3153.77 1707.43 L3160.20 1707.43 L3160.20 1707.18 L3173.07 1707.18 L3173.07 1707.06 L3179.51 1707.06 L3179.51 1706.81 L3185.94 1706.81 L3185.94 1706.32 L3192.38 1706.32 L3192.38 1706.19 L3198.94 1706.19 L3198.94 1705.70 L3205.37 1705.70 L3205.37 1705.33 L3218.24 1705.33 L3218.24 1704.21 L3224.68 1704.21 L3224.68 1703.97 L3231.11 1703.97 L3231.11 1703.84 L3237.67 1703.84 L3237.67 1703.35 L3244.11 1703.35 L3244.11 1702.23 L3250.54 1702.23 L3250.54 1700.50 L3256.98 1700.50 L3256.98 1699.76 L3263.41 1699.76 L3263.41 1698.89 L3269.85 1698.89 L3269.85 1697.16 L3276.41 1697.16 L3276.41 1696.91 L3282.84 1696.91 L3282.84 1696.05 L3289.28 1696.05 L3289.28 1694.81 L3295.71 1694.81 L3295.71 1694.07 L3302.14 1694.07 L3302.14 1693.94 L3308.58 1693.94 L3308.58 1693.08 L3315.01 1693.08 L3315.01 1690.73 L3321.57 1690.73 L3321.57 1689.98 L3328.01 1689.98 L3328.01 1688.99 L3334.44 1688.99 L3334.44 1688.13 L3340.88 1688.13 L3340.88 1687.51 L3347.31 1687.51 L3347.31 1686.64 L3353.75 1686.64 L3353.75 1679.09 L3360.31 1679.09 L3360.31 1678.84 L3366.74 1678.84 L3366.74 1678.60 L3373.18 1678.60 L3373.18 1678.47 L3386.05 1678.47 L3386.05 1677.98 L3392.48 1677.98 L3392.48 1677.61 L3399.04 1677.61 L3399.04 1676.74 L3405.48 1676.74 L3405.48 1675.87 L3411.91 1675.87 L3411.91 1675.63 L3418.35 1675.63 L3418.35 1674.51 L3424.78 1674.51 L3424.78 1674.39 L3431.22 1674.39 L3431.22 1673.89 L3437.65 1673.89 L3437.65 1673.28 L3444.21 1673.28 L3444.21 1672.16 L3450.64 1672.16 L3450.64 1671.17 L3457.08 1671.17 L3457.08 1670.31 L3463.51 1670.31 L3463.51 1668.94 L3469.95 1668.94 L3469.95 1668.57 L3476.39 1668.57 L3476.39 1668.08 L3482.94 1668.08 L3482.94 1667.71 L3489.38 1667.71 L3489.38 1667.09 L3495.81 1667.09 L3495.81 1666.84 L3502.25 1666.84 L3502.25 1666.35 L3508.68 1666.35 L3508.68 1665.97 L3515.12 1665.97 L3515.12 1665.11 L3521.55 1665.11 L3521.55 1663.99 L3528.11 1663.99 L3528.11 1663.00 L3534.55 1663.00 L3534.55 1662.14 L3540.98 1662.14 L3540.98 1660.41 L3547.42 1660.41 L3547.42 1652.36 L3586.15 1652.36 L3586.15 1652.24 L3605.58 1652.24 L3605.58 1651.99 L3618.45 1651.99 L3618.45 1651.74 L3624.89 1651.74 L3624.89 1651.62 L3631.32 1651.62 L3631.32 1651.12 L3637.76 1651.12 L3637.76 1650.51 L3644.19 1650.51 L3644.19 1650.26 L3670.05 1650.26 L3670.05 1650.26" stroke-linejoin="round" style="fill:none;stroke:#55752F;stroke-width:6.48"/>
	<path d=" M2488.86 1823.39 L2495.30 1823.39 L2495.30 1820.42 L2501.85 1820.42 L2501.85 1817.45 L2508.29 1817.45 L2508.29 1814.73 L2514.72 1814.73 L2514.72 1811.01 L2521.16 1811.01 L2521.16 1808.91 L2527.59 1808.91 L2527.59 1806.93 L2534.03 1806.93 L2534.03 1803.34 L2540.59 1803.34 L2540.59 1801.49 L2547.02 1801.49 L2547.02 1799.13 L2553.46 1799.13 L2553.46 1795.54 L2559.89 1795.54 L2559.89 1793.69 L2566.33 1793.69 L2566.33 1792.45 L2572.76 1792.45 L2572.76 1771.91 L2579.20 1771.91 L2579.20 1771.54 L2585.76 1771.54 L2585.76 1770.05 L2592.19 1770.05 L2592.19 1769.80 L2598.63 1769.80 L2598.63 1769.06 L2605.06 1769.06 L2605.06 1768.20 L2611.50 1768.20 L2611.50 1766.59 L2617.93 1766.59 L2617.93 1765.10 L2624.49 1765.10 L2624.49 1763.49 L2630.93 1763.49 L2630.93 1762.26 L2637.36 1762.26 L2637.36 1760.77 L2643.80 1760.77 L2643.80 1758.67 L2650.23 1758.67 L2650.23 1756.69 L2656.66 1756.69 L2656.66 1753.59 L2663.22 1753.59 L2663.22 1749.88 L2669.66 1749.88 L2669.66 1746.54 L2676.09 1746.54 L2676.09 1743.44 L2682.53 1743.44 L2682.53 1740.35 L2688.96 1740.35 L2688.96 1736.27 L2695.40 1736.27 L2695.40 1732.80 L2701.83 1732.80 L2701.83 1730.33 L2708.39 1730.33 L2708.39 1726.74 L2714.83 1726.74 L2714.83 1724.26 L2721.26 1724.26 L2721.26 1721.79 L2727.70 1721.79 L2727.70 1718.69 L2734.13 1718.69 L2734.13 1716.47 L2740.57 1716.47 L2740.57 1712.75 L2747.13 1712.75 L2747.13 1709.41 L2753.56 1709.41 L2753.56 1707.56 L2760.00 1707.56 L2760.00 1676.12 L2766.43 1676.12 L2766.43 1675.26 L2772.87 1675.26 L2772.87 1674.39 L2779.30 1674.39 L2779.30 1673.77 L2785.86 1673.77 L2785.86 1673.03 L2792.30 1673.03 L2792.30 1670.31 L2798.73 1670.31 L2798.73 1668.08 L2805.16 1668.08 L2805.16 1666.84 L2811.60 1666.84 L2811.60 1665.36 L2818.03 1665.36 L2818.03 1662.88 L2824.47 1662.88 L2824.47 1661.40 L2831.03 1661.40 L2831.03 1660.41 L2837.46 1660.41 L2837.46 1656.94 L2843.90 1656.94 L2843.90 1654.47 L2850.33 1654.47 L2850.33 1652.73 L2856.77 1652.73 L2856.77 1650.51 L2863.20 1650.51 L2863.20 1646.17 L2869.76 1646.17 L2869.76 1642.21 L2876.20 1642.21 L2876.20 1640.23 L2882.63 1640.23 L2882.63 1638.13 L2889.07 1638.13 L2889.07 1634.05 L2895.50 1634.05 L2895.50 1629.47 L2901.94 1629.47 L2901.94 1625.51 L2908.50 1625.51 L2908.50 1622.66 L2914.93 1622.66 L2914.93 1619.57 L2921.37 1619.57 L2921.37 1617.22 L2927.80 1617.22 L2927.80 1613.75 L2934.24 1613.75 L2934.24 1610.41 L2940.67 1610.41 L2940.67 1608.55 L2947.11 1608.55 L2947.11 1605.71 L2953.66 1605.71 L2953.66 1603.60 L2960.10 1603.60 L2960.10 1575.39 L2966.53 1575.39 L2966.53 1575.14 L2972.97 1575.14 L2972.97 1574.52 L2979.41 1574.52 L2979.41 1574.52 L2992.40 1574.52 L2992.40 1573.90 L2998.83 1573.90 L2998.83 1573.28 L3005.27 1573.28 L3005.27 1572.54 L3011.70 1572.54 L3011.70 1571.67 L3018.14 1571.67 L3018.14 1571.06 L3024.57 1571.06 L3024.57 1570.44 L3031.13 1570.44 L3031.13 1569.20 L3037.57 1569.20 L3037.57 1567.71 L3044.00 1567.71 L3044.00 1566.35 L3050.44 1566.35 L3050.44 1563.88 L3056.87 1563.88 L3056.87 1561.16 L3063.31 1561.16 L3063.31 1558.18 L3069.74 1558.18 L3069.74 1554.47 L3076.30 1554.47 L3076.30 1551.63 L3082.74 1551.63 L3082.74 1548.28 L3089.17 1548.28 L3089.17 1546.68 L3095.61 1546.68 L3095.61 1545.19 L3102.04 1545.19 L3102.04 1542.34 L3108.48 1542.34 L3108.48 1538.26 L3115.03 1538.26 L3115.03 1535.79 L3121.47 1535.79 L3121.47 1533.93 L3127.91 1533.93 L3127.91 1530.34 L3134.34 1530.34 L3134.34 1527.49 L3140.78 1527.49 L3140.78 1524.77 L3147.21 1524.77 L3147.21 1521.06 L3153.77 1521.06 L3153.77 1492.60 L3173.07 1492.60 L3173.07 1492.35 L3179.51 1492.35 L3179.51 1491.98 L3185.94 1491.98 L3185.94 1491.73 L3192.38 1491.73 L3192.38 1490.74 L3198.94 1490.74 L3198.94 1490.24 L3211.81 1490.24 L3211.81 1488.88 L3218.24 1488.88 L3218.24 1488.02 L3224.68 1488.02 L3224.68 1487.40 L3231.11 1487.40 L3231.11 1486.53 L3237.67 1486.53 L3237.67 1484.68 L3244.11 1484.68 L3244.11 1482.82 L3250.54 1482.82 L3250.54 1480.84 L3256.98 1480.84 L3256.98 1478.49 L3263.41 1478.49 L3263.41 1475.76 L3269.85 1475.76 L3269.85 1472.55 L3276.41 1472.55 L3276.41 1468.83 L3282.84 1468.83 L3282.84 1466.48 L3289.28 1466.48 L3289.28 1463.88 L3295.71 1463.88 L3295.71 1460.91 L3302.14 1460.91 L3302.14 1458.69 L3308.58 1458.69 L3308.58 1456.58 L3315.01 1456.58 L3315.01 1453.74 L3321.57 1453.74 L3321.57 1452.50 L3328.01 1452.50 L3328.01 1450.64 L3334.44 1450.64 L3334.44 1448.29 L3340.88 1448.29 L3340.88 1445.20 L3347.31 1445.20 L3347.31 1443.34 L3353.75 1443.34 L3353.75 1421.44 L3360.31 1421.44 L3360.31 1420.82 L3366.74 1420.82 L3366.74 1420.20 L3379.61 1420.20 L3379.61 1418.96 L3386.05 1418.96 L3386.05 1417.97 L3392.48 1417.97 L3392.48 1417.35 L3399.04 1417.35 L3399.04 1415.87 L3405.48 1415.87 L3405.48 1414.63 L3411.91 1414.63 L3411.91 1413.15 L3418.35 1413.15 L3418.35 1412.53 L3424.78 1412.53 L3424.78 1411.17 L3431.22 1411.17 L3431.22 1410.05 L3437.65 1410.05 L3437.65 1408.69 L3444.21 1408.69 L3444.21 1407.21 L3450.64 1407.21 L3450.64 1406.09 L3457.08 1406.09 L3457.08 1404.11 L3463.51 1404.11 L3463.51 1401.64 L3469.95 1401.64 L3469.95 1399.53 L3476.39 1399.53 L3476.39 1397.92 L3482.94 1397.92 L3482.94 1396.19 L3489.38 1396.19 L3489.38 1393.96 L3495.81 1393.96 L3495.81 1390.99 L3502.25 1390.99 L3502.25 1389.14 L3508.68 1389.14 L3508.68 1385.92 L3515.12 1385.92 L3515.12 1382.83 L3521.55 1382.83 L3521.55 1379.61 L3528.11 1379.61 L3528.11 1377.13 L3534.55 1377.13 L3534.55 1375.28 L3540.98 1375.28 L3540.98 1372.18 L3547.42 1372.18 L3547.42 1350.65 L3560.29 1350.65 L3560.29 1350.28 L3566.85 1350.28 L3566.85 1350.03 L3579.72 1350.03 L3579.72 1349.66 L3586.15 1349.66 L3586.15 1349.41 L3599.02 1349.41 L3599.02 1349.04 L3605.58 1349.04 L3605.58 1347.18 L3612.01 1347.18 L3612.01 1346.19 L3618.45 1346.19 L3618.45 1345.58 L3624.89 1345.58 L3624.89 1345.08 L3631.32 1345.08 L3631.32 1344.09 L3637.76 1344.09 L3637.76 1343.47 L3644.19 1343.47 L3644.19 1343.22 L3650.75 1343.22 L3650.75 1343.10 L3670.05 1343.10 L3670.05 1343.10" stroke-linejoin="round" style="fill:none;stroke:#E37E00;stroke-width:6.48"/>
	<path d=" M2488.86 1822.65 L2495.30 1822.65 L2495.30 1815.59 L2501.85 1815.59 L2501.85 1808.17 L2508.29 1808.17 L2508.29 1802.72 L2514.72 1802.72 L2514.72 1797.77 L2521.16 1797.77 L2521.16 1790.59 L2527.59 1790.59 L2527.59 1784.78 L2534.03 1784.78 L2534.03 1778.59 L2540.59 1778.59 L2540.59 1772.28 L2547.02 1772.28 L2547.02 1765.60 L2553.46 1765.60 L2553.46 1758.17 L2559.89 1758.17 L2559.89 1753.10 L2566.33 1753.10 L2566.33 1744.43 L2572.76 1744.43 L2572.76 1690.73 L2579.20 1690.73 L2579.20 1689.36 L2585.76 1689.36 L2585.76 1687.38 L2592.19 1687.38 L2592.19 1686.52 L2598.63 1686.52 L2598.63 1683.18 L2605.06 1683.18 L2605.06 1679.83 L2611.50 1679.83 L2611.50 1679.46 L2617.93 1679.46 L2617.93 1675.63 L2624.49 1675.63 L2624.49 1673.15 L2630.93 1673.15 L2630.93 1670.68 L2637.36 1670.68 L2637.36 1666.10 L2643.80 1666.10 L2643.80 1663.62 L2650.23 1663.62 L2650.23 1659.42 L2656.66 1659.42 L2656.66 1655.58 L2663.22 1655.58 L2663.22 1651.00 L2669.66 1651.00 L2669.66 1641.47 L2676.09 1641.47 L2676.09 1633.92 L2682.53 1633.92 L2682.53 1626.87 L2688.96 1626.87 L2688.96 1623.16 L2695.40 1623.16 L2695.40 1618.58 L2701.83 1618.58 L2701.83 1614.00 L2708.39 1614.00 L2708.39 1606.45 L2714.83 1606.45 L2714.83 1599.39 L2721.26 1599.39 L2721.26 1593.95 L2727.70 1593.95 L2727.70 1587.27 L2734.13 1587.27 L2734.13 1582.19 L2740.57 1582.19 L2740.57 1575.63 L2747.13 1575.63 L2747.13 1568.46 L2753.56 1568.46 L2753.56 1561.77 L2760.00 1561.77 L2760.00 1500.14 L2766.43 1500.14 L2766.43 1499.28 L2772.87 1499.28 L2772.87 1496.80 L2779.30 1496.80 L2779.30 1494.20 L2785.86 1494.20 L2785.86 1491.73 L2792.30 1491.73 L2792.30 1489.25 L2798.73 1489.25 L2798.73 1487.15 L2805.16 1487.15 L2805.16 1486.28 L2811.60 1486.28 L2811.60 1480.10 L2818.03 1480.10 L2818.03 1476.26 L2824.47 1476.26 L2824.47 1473.78 L2831.03 1473.78 L2831.03 1469.21 L2837.46 1469.21 L2837.46 1464.26 L2843.90 1464.26 L2843.90 1460.05 L2850.33 1460.05 L2850.33 1455.47 L2856.77 1455.47 L2856.77 1450.40 L2863.20 1450.40 L2863.20 1442.97 L2869.76 1442.97 L2869.76 1436.66 L2876.20 1436.66 L2876.20 1432.08 L2882.63 1432.08 L2882.63 1423.29 L2889.07 1423.29 L2889.07 1415.00 L2895.50 1415.00 L2895.50 1407.82 L2901.94 1407.82 L2901.94 1396.56 L2908.50 1396.56 L2908.50 1386.91 L2914.93 1386.91 L2914.93 1381.09 L2921.37 1381.09 L2921.37 1375.28 L2927.80 1375.28 L2927.80 1369.46 L2934.24 1369.46 L2934.24 1364.02 L2940.67 1364.02 L2940.67 1358.57 L2947.11 1358.57 L2947.11 1353.12 L2953.66 1353.12 L2953.66 1348.17 L2960.10 1348.17 L2960.10 1281.72 L2966.53 1281.72 L2966.53 1280.48 L2972.97 1280.48 L2972.97 1279.61 L2979.41 1279.61 L2979.41 1279.24 L2985.84 1279.24 L2985.84 1278.38 L2992.40 1278.38 L2992.40 1277.51 L2998.83 1277.51 L2998.83 1277.14 L3005.27 1277.14 L3005.27 1276.27 L3011.70 1276.27 L3011.70 1275.04 L3018.14 1275.04 L3018.14 1271.69 L3024.57 1271.69 L3024.57 1269.59 L3031.13 1269.59 L3031.13 1266.25 L3037.57 1266.25 L3037.57 1263.77 L3044.00 1263.77 L3044.00 1260.43 L3050.44 1260.43 L3050.44 1257.96 L3056.87 1257.96 L3056.87 1252.88 L3063.31 1252.88 L3063.31 1247.93 L3069.74 1247.93 L3069.74 1243.23 L3076.30 1243.23 L3076.30 1237.41 L3082.74 1237.41 L3082.74 1231.60 L3089.17 1231.60 L3089.17 1225.29 L3095.61 1225.29 L3095.61 1220.34 L3102.04 1220.34 L3102.04 1212.29 L3108.48 1212.29 L3108.48 1207.71 L3115.03 1207.71 L3115.03 1202.27 L3121.47 1202.27 L3121.47 1196.82 L3127.91 1196.82 L3127.91 1191.50 L3134.34 1191.50 L3134.34 1187.67 L3140.78 1187.67 L3140.78 1182.22 L3147.21 1182.22 L3147.21 1174.30 L3153.77 1174.30 L3153.77 1115.76 L3166.64 1115.76 L3166.64 1115.39 L3173.07 1115.39 L3173.07 1114.16 L3179.51 1114.16 L3179.51 1113.66 L3185.94 1113.66 L3185.94 1111.56 L3192.38 1111.56 L3192.38 1109.08 L3198.94 1109.08 L3198.94 1107.84 L3205.37 1107.84 L3205.37 1105.74 L3211.81 1105.74 L3211.81 1103.27 L3218.24 1103.27 L3218.24 1100.79 L3224.68 1100.79 L3224.68 1096.09 L3231.11 1096.09 L3231.11 1093.61 L3237.67 1093.61 L3237.67 1090.64 L3244.11 1090.64 L3244.11 1087.30 L3250.54 1087.30 L3250.54 1083.59 L3256.98 1083.59 L3256.98 1076.91 L3263.41 1076.91 L3263.41 1068.99 L3269.85 1068.99 L3269.85 1065.64 L3276.41 1065.64 L3276.41 1060.94 L3282.84 1060.94 L3282.84 1058.10 L3289.28 1058.10 L3289.28 1052.65 L3295.71 1052.65 L3295.71 1046.71 L3302.14 1046.71 L3302.14 1042.63 L3308.58 1042.63 L3308.58 1036.69 L3315.01 1036.69 L3315.01 1032.97 L3321.57 1032.97 L3321.57 1029.26 L3328.01 1029.26 L3328.01 1020.85 L3334.44 1020.85 L3334.44 1014.53 L3340.88 1014.53 L3340.88 1008.72 L3347.31 1008.72 L3347.31 1002.04 L3353.75 1002.04 L3353.75 954.27 L3360.31 954.27 L3360.31 953.89 L3373.18 953.89 L3373.18 952.29 L3379.61 952.29 L3379.61 950.55 L3386.05 950.55 L3386.05 949.69 L3392.48 949.69 L3392.48 947.58 L3399.04 947.58 L3399.04 945.97 L3405.48 945.97 L3405.48 945.48 L3411.91 945.48 L3411.91 943.00 L3418.35 943.00 L3418.35 939.29 L3424.78 939.29 L3424.78 936.32 L3431.22 936.32 L3431.22 932.98 L3437.65 932.98 L3437.65 930.51 L3444.21 930.51 L3444.21 928.40 L3450.64 928.40 L3450.64 922.09 L3457.08 922.09 L3457.08 917.88 L3463.51 917.88 L3463.51 912.93 L3469.95 912.93 L3469.95 905.75 L3476.39 905.75 L3476.39 899.94 L3482.94 899.94 L3482.94 895.73 L3489.38 895.73 L3489.38 893.26 L3495.81 893.26 L3495.81 887.32 L3502.25 887.32 L3502.25 879.39 L3508.68 879.39 L3508.68 875.68 L3515.12 875.68 L3515.12 870.24 L3521.55 870.24 L3521.55 863.43 L3528.11 863.43 L3528.11 858.85 L3534.55 858.85 L3534.55 855.51 L3540.98 855.51 L3540.98 853.04 L3547.42 853.04 L3547.42 801.93 L3586.15 801.93 L3586.15 801.55 L3592.59 801.55 L3592.59 801.06 L3599.02 801.06 L3599.02 800.69 L3605.58 800.69 L3605.58 799.45 L3612.01 799.45 L3612.01 798.95 L3618.45 798.95 L3618.45 798.21 L3624.89 798.21 L3624.89 795.24 L3631.32 795.24 L3631.32 794.87 L3644.19 794.87 L3644.19 794.00 L3657.18 794.00 L3657.18 793.51 L3670.05 793.51 L3670.05 793.51" stroke-linejoin="round" style="fill:none;stroke:#6E8E84;stroke-width:6.48"/>
	<line x1="2435.03" y1="1873.51" x2="2435.03" y2="414.45" style="stroke:#000000;stroke-width:4.32"/>
	<line x1="2435.03" y1="1825.99" x2="2404.96" y2="1825.99" style="stroke:#000000;stroke-width:4.32"/>
	<text x="2389.98" y="1852.27" style="font-family:'Helvetica';font-size:74.99px;fill:#000000" text-anchor="end">0.000</text>
	<line x1="2435.03" y1="1553.11" x2="2404.96" y2="1553.11" style="stroke:#000000;stroke-width:4.32"/>
	<text x="2389.98" y="1579.39" style="font-family:'Helvetica';font-size:74.99px;fill:#000000" text-anchor="end">0.001</text>
	<line x1="2435.03" y1="1280.36" x2="2404.96" y2="1280.36" style="stroke:#000000;stroke-width:4.32"/>
	<text x="2389.98" y="1306.64" style="font-family:'Helvetica';font-size:74.99px;fill:#000000" text-anchor="end">0.002</text>
	<line x1="2435.03" y1="1007.60" x2="2404.96" y2="1007.60" style="stroke:#000000;stroke-width:4.32"/>
	<text x="2389.98" y="1033.88" style="font-family:'Helvetica';font-size:74.99px;fill:#000000" text-anchor="end">0.003</text>
	<line x1="2435.03" y1="734.73" x2="2404.96" y2="734.73" style="stroke:#000000;stroke-width:4.32"/>
	<text x="2389.98" y="761.01" style="font-family:'Helvetica';font-size:74.99px;fill:#000000" text-anchor="end">0.004</text>
	<line x1="2435.03" y1="461.97" x2="2404.96" y2="461.97" style="stroke:#000000;stroke-width:4.32"/>
	<text x="2389.98" y="488.25" style="font-family:'Helvetica';font-size:74.99px;fill:#000000" text-anchor="end">0.005</text>
	<line x1="2435.03" y1="1873.51" x2="3820.91" y2="1873.51" style="stroke:#000000;stroke-width:4.32"/>
	<line x1="2482.55" y1="1873.51" x2="2482.55" y2="1903.46" style="stroke:#000000;stroke-width:4.32"/>
	<text x="2482.55" y="1970.87" style="font-family:'Helvetica';font-size:74.99px;fill:#000000" text-anchor="middle">1 Feb 20</text>
	<line x1="2669.66" y1="1873.51" x2="2669.66" y2="1903.46" style="stroke:#000000;stroke-width:4.32"/>
	<text x="2669.66" y="1970.87" style="font-family:'Helvetica';font-size:74.99px;fill:#000000" text-anchor="middle">1 Mar 20</text>
	<line x1="2869.76" y1="1873.51" x2="2869.76" y2="1903.46" style="stroke:#000000;stroke-width:4.32"/>
	<text x="2869.76" y="1970.87" style="font-family:'Helvetica';font-size:74.99px;fill:#000000" text-anchor="middle">1 Apr 20</text>
	<line x1="3069.87" y1="1873.51" x2="3069.87" y2="1903.46" style="stroke:#000000;stroke-width:4.32"/>
	<text x="3069.87" y="1970.87" style="font-family:'Helvetica';font-size:74.99px;fill:#000000" text-anchor="middle">1 May 20</text>
	<line x1="3263.53" y1="1873.51" x2="3263.53" y2="1903.46" style="stroke:#000000;stroke-width:4.32"/>
	<text x="3263.53" y="1970.87" style="font-family:'Helvetica';font-size:74.99px;fill:#000000" text-anchor="middle">1 June 20</text>
	<line x1="3457.08" y1="1873.51" x2="3457.08" y2="1903.46" style="stroke:#000000;stroke-width:4.32"/>
	<text x="3457.08" y="1970.87" style="font-family:'Helvetica';font-size:74.99px;fill:#000000" text-anchor="middle">1 July 20</text>
	<line x1="3657.18" y1="1873.51" x2="3657.18" y2="1903.46" style="stroke:#000000;stroke-width:4.32"/>
	<text x="3657.18" y="1970.87" style="font-family:'Helvetica';font-size:74.99px;fill:#000000" text-anchor="middle">1 Aug 20</text>
	<text x="3127.91" y="2053.41" style="font-family:'Helvetica';font-size:74.99px;fill:#000000" text-anchor="middle">Days since 1 Feb 2020</text>
	<text x="3127.91" y="369.91" style="font-family:'Helvetica';font-size:104.94px;fill:#1E2D53" text-anchor="middle">Male</text>
	<text x="150.62" y="1187.29" style="font-family:'Helvetica';font-size:99.99px;fill:#000000" transform="rotate(-90 150.62,1187.29)" text-anchor="middle">Cumulative probability</text>
	<text x="250.61" y="1187.29" style="font-family:'Helvetica';font-size:99.99px;fill:#000000" transform="rotate(-90 250.61,1187.29)" text-anchor="middle">Non covid death</text>
	<text x="2097.19" y="157.51" style="font-family:'Helvetica';font-size:110.01px;fill:#000000" text-anchor="middle"> </text>
	<rect x="1151.12" y="2201.21" width="1892.26" height="580.90" style="fill:#FFFFFF"/>
	<rect x="1154.00" y="2204.09" width="1886.50" height="575.14" style="fill:none;stroke:#000000;stroke-width:5.76"/>
	<line x1="1194.31" y1="2408.87" x2="1568.65" y2="2408.87" style="stroke:#1A476F;stroke-width:8.64"/>
	<line x1="1194.31" y1="2548.83" x2="1568.65" y2="2548.83" style="stroke:#90353B;stroke-width:8.64"/>
	<line x1="1194.31" y1="2688.92" x2="1568.65" y2="2688.92" style="stroke:#55752F;stroke-width:8.64"/>
	<line x1="2004.26" y1="2408.87" x2="2378.60" y2="2408.87" style="stroke:#E37E00;stroke-width:8.64"/>
	<line x1="2004.26" y1="2548.83" x2="2378.60" y2="2548.83" style="stroke:#6E8E84;stroke-width:8.64"/>
	<text x="1628.67" y="2436.88" style="font-family:'Helvetica';font-size:79.94px;fill:#000000">18-&lt;30</text>
	<text x="1628.67" y="2576.85" style="font-family:'Helvetica';font-size:79.94px;fill:#000000">30-&lt;40</text>
	<text x="1628.67" y="2716.94" style="font-family:'Helvetica';font-size:79.94px;fill:#000000">40-&lt;50</text>
	<text x="2438.62" y="2436.88" style="font-family:'Helvetica';font-size:79.94px;fill:#000000">50-&lt;60</text>
	<text x="2438.62" y="2576.85" style="font-family:'Helvetica';font-size:79.94px;fill:#000000">60-&lt;70</text>
	<text x="2438.62" y="2716.94" style="font-family:'Helvetica';font-size:79.94px;fill:#000000">70-&lt;80</text>
	<text x="2874.22" y="2436.88" style="font-family:'Helvetica';font-size:79.94px;fill:#000000">80+</text>
	<text x="2097.19" y="2308.96" style="font-family:'Helvetica';font-size:79.94px;fill:#000000" text-anchor="middle">Age group</text>
</svg>
