<?xml version="1.0" encoding="UTF-8" standalone="no"?>
<!-- This is a Stata 16.1 generated SVG file (http://www.stata.com) -->

<svg version="1.1" width="5.50in" height="4.00in" viewBox="0 0 3960 2880" xmlns="http://www.w3.org/2000/svg" xmlns:xlink="http://www.w3.org/1999/xlink">
	<desc>Stata Graph - Graph</desc>
	<rect x="0" y="0" width="3960" height="2880" style="fill:#EAF2F3;stroke:none"/>
	<rect x="0.00" y="0.00" width="3959.88" height="2880.00" style="fill:#EAF2F3"/>
	<rect x="2.88" y="2.88" width="3954.12" height="2874.24" style="fill:none;stroke:#EAF2F3;stroke-width:5.76"/>
	<rect x="297.87" y="207.91" width="1799.32" height="1958.65" style="fill:#EAF2F3"/>
	<rect x="300.03" y="210.07" width="1795.01" height="1954.33" style="fill:none;stroke:#EAF2F3;stroke-width:4.32"/>
	<rect x="635.70" y="414.45" width="1385.88" height="1459.06" style="fill:#FFFFFF"/>
	<rect x="637.86" y="416.61" width="1381.56" height="1454.74" style="fill:none;stroke:#FFFFFF;stroke-width:4.32"/>
	<line x1="635.70" y1="1825.99" x2="2021.58" y2="1825.99" style="stroke:#EAF2F3;stroke-width:6.48"/>
	<line x1="635.70" y1="1553.11" x2="2021.58" y2="1553.11" style="stroke:#EAF2F3;stroke-width:6.48"/>
	<line x1="635.70" y1="1280.36" x2="2021.58" y2="1280.36" style="stroke:#EAF2F3;stroke-width:6.48"/>
	<line x1="635.70" y1="1007.60" x2="2021.58" y2="1007.60" style="stroke:#EAF2F3;stroke-width:6.48"/>
	<line x1="635.70" y1="734.73" x2="2021.58" y2="734.73" style="stroke:#EAF2F3;stroke-width:6.48"/>
	<line x1="635.70" y1="461.97" x2="2021.58" y2="461.97" style="stroke:#EAF2F3;stroke-width:6.48"/>
	<path d=" M773.56 1825.99 L812.17 1825.99 L812.17 1825.99 L831.60 1825.99 L831.60 1825.99 L844.47 1825.99 L844.47 1825.86 L850.90 1825.86 L850.90 1825.49 L870.33 1825.49 L870.33 1825.12 L876.77 1825.12 L876.77 1825.12 L889.64 1825.12 L889.64 1824.87 L896.20 1824.87 L896.20 1824.87 L915.50 1824.87 L915.50 1824.87 L921.94 1824.87 L921.94 1824.50 L934.81 1824.50 L934.81 1823.76 L941.37 1823.76 L941.37 1823.14 L947.80 1823.14 L947.80 1822.65 L954.24 1822.65 L954.24 1822.28 L960.67 1822.28 L960.67 1821.29 L967.11 1821.29 L967.11 1818.44 L973.54 1818.44 L973.54 1816.71 L980.10 1816.71 L980.10 1815.84 L986.53 1815.84 L986.53 1813.74 L992.97 1813.74 L992.97 1812.00 L999.40 1812.00 L999.40 1811.63 L1012.27 1811.63 L1012.27 1810.52 L1018.71 1810.52 L1018.71 1809.16 L1025.27 1809.16 L1025.27 1807.05 L1031.70 1807.05 L1031.70 1805.32 L1038.14 1805.32 L1038.14 1802.60 L1044.57 1802.60 L1044.57 1801.73 L1051.01 1801.73 L1051.01 1801.11 L1057.44 1801.11 L1057.44 1795.17 L1064.00 1795.17 L1064.00 1790.97 L1070.44 1790.97 L1070.44 1786.88 L1076.87 1786.88 L1076.87 1783.29 L1083.31 1783.29 L1083.31 1780.20 L1089.74 1780.20 L1089.74 1779.46 L1096.18 1779.46 L1096.18 1778.71 L1102.74 1778.71 L1102.74 1775.99 L1109.17 1775.99 L1109.17 1771.04 L1115.61 1771.04 L1115.61 1767.33 L1122.04 1767.33 L1122.04 1762.87 L1128.48 1762.87 L1128.48 1761.14 L1134.91 1761.14 L1134.91 1758.91 L1141.35 1758.91 L1141.35 1758.17 L1147.90 1758.17 L1147.90 1753.47 L1154.34 1753.47 L1154.34 1747.03 L1160.78 1747.03 L1160.78 1741.84 L1167.21 1741.84 L1167.21 1738.49 L1173.64 1738.49 L1173.64 1725.87 L1180.08 1725.87 L1180.08 1723.52 L1186.64 1723.52 L1186.64 1721.17 L1193.07 1721.17 L1193.07 1713.74 L1199.51 1713.74 L1199.51 1708.30 L1205.94 1708.30 L1205.94 1703.72 L1212.38 1703.72 L1212.38 1699.51 L1218.81 1699.51 L1218.81 1693.08 L1225.37 1693.08 L1225.37 1691.59 L1231.81 1691.59 L1231.81 1687.88 L1238.24 1687.88 L1238.24 1667.34 L1244.68 1667.34 L1244.68 1651.12 L1251.11 1651.12 L1251.11 1630.58 L1257.55 1630.58 L1257.55 1617.34 L1263.98 1617.34 L1263.98 1598.03 L1270.54 1598.03 L1270.54 1588.38 L1276.98 1588.38 L1276.98 1579.35 L1283.41 1579.35 L1283.41 1568.21 L1289.85 1568.21 L1289.85 1556.08 L1296.28 1556.08 L1296.28 1544.20 L1302.72 1544.20 L1302.72 1532.07 L1309.28 1532.07 L1309.28 1520.32 L1315.71 1520.32 L1315.71 1512.77 L1322.14 1512.77 L1322.14 1505.59 L1328.58 1505.59 L1328.58 1492.35 L1335.02 1492.35 L1335.02 1480.22 L1341.45 1480.22 L1341.45 1468.09 L1348.01 1468.09 L1348.01 1457.33 L1354.44 1457.33 L1354.44 1445.20 L1360.88 1445.20 L1360.88 1435.79 L1367.31 1435.79 L1367.31 1428.24 L1373.75 1428.24 L1373.75 1416.49 L1380.18 1416.49 L1380.18 1406.46 L1386.62 1406.46 L1386.62 1395.57 L1393.18 1395.57 L1393.18 1384.93 L1399.61 1384.93 L1399.61 1375.52 L1406.05 1375.52 L1406.05 1368.35 L1412.48 1368.35 L1412.48 1360.06 L1418.92 1360.06 L1418.92 1355.48 L1425.35 1355.48 L1425.35 1348.92 L1431.91 1348.92 L1431.91 1339.76 L1438.35 1339.76 L1438.35 1331.34 L1444.78 1331.34 L1444.78 1324.54 L1451.22 1324.54 L1451.22 1321.07 L1457.65 1321.07 L1457.65 1316.12 L1464.09 1316.12 L1464.09 1308.20 L1470.64 1308.20 L1470.64 1303.50 L1477.08 1303.50 L1477.08 1298.92 L1483.52 1298.92 L1483.52 1292.49 L1489.95 1292.49 L1489.95 1284.81 L1496.38 1284.81 L1496.38 1279.61 L1502.82 1279.61 L1502.82 1276.27 L1509.26 1276.27 L1509.26 1268.72 L1515.81 1268.72 L1515.81 1261.42 L1522.25 1261.42 L1522.25 1254.12 L1528.68 1254.12 L1528.68 1247.32 L1535.12 1247.32 L1535.12 1244.59 L1541.55 1244.59 L1541.55 1238.53 L1547.99 1238.53 L1547.99 1233.70 L1554.55 1233.70 L1554.55 1225.78 L1560.98 1225.78 L1560.98 1219.10 L1567.42 1219.10 L1567.42 1213.16 L1573.85 1213.16 L1573.85 1207.34 L1580.29 1207.34 L1580.29 1200.91 L1586.72 1200.91 L1586.72 1196.45 L1593.28 1196.45 L1593.28 1190.88 L1599.72 1190.88 L1599.72 1187.17 L1606.15 1187.17 L1606.15 1179.62 L1612.59 1179.62 L1612.59 1174.18 L1619.02 1174.18 L1619.02 1168.73 L1625.46 1168.73 L1625.46 1162.92 L1631.89 1162.92 L1631.89 1159.45 L1638.45 1159.45 L1638.45 1155.24 L1644.88 1155.24 L1644.88 1149.80 L1651.32 1149.80 L1651.32 1144.35 L1657.76 1144.35 L1657.76 1139.90 L1664.19 1139.90 L1664.19 1135.44 L1670.63 1135.44 L1670.63 1131.98 L1677.18 1131.98 L1677.18 1130.37 L1683.62 1130.37 L1683.62 1126.90 L1690.05 1126.90 L1690.05 1122.08 L1696.49 1122.08 L1696.49 1117.99 L1702.92 1117.99 L1702.92 1115.27 L1709.36 1115.27 L1709.36 1111.56 L1715.92 1111.56 L1715.92 1105.99 L1722.35 1105.99 L1722.35 1102.15 L1728.79 1102.15 L1728.79 1097.82 L1735.22 1097.82 L1735.22 1095.84 L1741.66 1095.84 L1741.66 1091.01 L1748.09 1091.01 L1748.09 1086.44 L1754.53 1086.44 L1754.53 1080.37 L1761.09 1080.37 L1761.09 1075.54 L1767.52 1075.54 L1767.52 1070.22 L1773.96 1070.22 L1773.96 1067.13 L1780.39 1067.13 L1780.39 1063.54 L1786.83 1063.54 L1786.83 1057.35 L1793.26 1057.35 L1793.26 1053.27 L1799.82 1053.27 L1799.82 1047.58 L1806.26 1047.58 L1806.26 1043.00 L1812.69 1043.00 L1812.69 1039.04 L1819.13 1039.04 L1819.13 1035.32 L1825.56 1035.32 L1825.56 1031.24 L1831.99 1031.24 L1831.99 1023.82 L1838.43 1023.82 L1838.43 1018.74 L1844.99 1018.74 L1844.99 1012.18 L1851.42 1012.18 L1851.42 1005.50 L1857.86 1005.50 L1857.86 1002.41 L1864.29 1002.41 L1864.29 997.95 L1870.73 997.95 L1870.73 992.26" stroke-linejoin="round" style="fill:none;stroke:#1A476F;stroke-width:6.48"/>
	<path d=" M689.53 1825.99 L696.09 1825.99 L696.09 1825.99 L702.53 1825.99 L702.53 1825.99 L708.96 1825.99 L708.96 1825.99 L721.83 1825.99 L721.83 1825.99 L728.27 1825.99 L728.27 1825.99 L734.83 1825.99 L734.83 1825.99 L741.26 1825.99 L741.26 1825.99 L747.70 1825.99 L747.70 1825.99 L754.13 1825.99 L754.13 1825.99 L760.57 1825.99 L760.57 1825.99 L767.00 1825.99 L767.00 1825.99 L773.56 1825.99 L773.56 1825.99 L780.00 1825.99 L780.00 1825.99 L792.87 1825.99 L792.87 1825.99 L818.73 1825.99 L818.73 1825.99 L825.16 1825.99 L825.16 1825.99 L838.03 1825.99 L838.03 1825.99 L850.90 1825.99 L850.90 1825.86 L870.33 1825.86 L870.33 1825.00 L876.77 1825.00 L876.77 1824.87 L883.20 1824.87 L883.20 1824.87 L896.20 1824.87 L896.20 1824.63 L902.63 1824.63 L902.63 1824.63 L909.07 1824.63 L909.07 1824.63 L915.50 1824.63 L915.50 1824.26 L921.94 1824.26 L921.94 1823.64 L928.37 1823.64 L928.37 1823.27 L934.81 1823.27 L934.81 1822.52 L941.37 1822.52 L941.37 1821.90 L947.80 1821.90 L947.80 1820.67 L954.24 1820.67 L954.24 1820.54 L960.67 1820.54 L960.67 1819.92 L967.11 1819.92 L967.11 1817.57 L973.54 1817.57 L973.54 1815.59 L980.10 1815.59 L980.10 1812.99 L986.53 1812.99 L986.53 1811.26 L992.97 1811.26 L992.97 1807.92 L999.40 1807.92 L999.40 1807.05 L1005.84 1807.05 L1005.84 1806.31 L1012.27 1806.31 L1012.27 1803.71 L1018.71 1803.71 L1018.71 1800.37 L1025.27 1800.37 L1025.27 1798.39 L1031.70 1798.39 L1031.70 1794.06 L1038.14 1794.06 L1038.14 1789.36 L1044.57 1789.36 L1044.57 1787.38 L1051.01 1787.38 L1051.01 1786.39 L1057.44 1786.39 L1057.44 1779.83 L1064.00 1779.83 L1064.00 1775.62 L1070.44 1775.62 L1070.44 1766.22 L1076.87 1766.22 L1076.87 1761.39 L1083.31 1761.39 L1083.31 1754.58 L1089.74 1754.58 L1089.74 1752.60 L1096.18 1752.60 L1096.18 1750.75 L1102.74 1750.75 L1102.74 1744.31 L1109.17 1744.31 L1109.17 1736.51 L1115.61 1736.51 L1115.61 1730.82 L1122.04 1730.82 L1122.04 1723.52 L1128.48 1723.52 L1128.48 1718.82 L1134.91 1718.82 L1134.91 1714.61 L1141.35 1714.61 L1141.35 1711.89 L1147.90 1711.89 L1147.90 1704.96 L1154.34 1704.96 L1154.34 1692.71 L1160.78 1692.71 L1160.78 1683.80 L1167.21 1683.80 L1167.21 1675.50 L1173.64 1675.50 L1173.64 1657.81 L1180.08 1657.81 L1180.08 1656.07 L1186.64 1656.07 L1186.64 1653.48 L1193.07 1653.48 L1193.07 1642.21 L1199.51 1642.21 L1199.51 1635.28 L1205.94 1635.28 L1205.94 1628.72 L1212.38 1628.72 L1212.38 1620.19 L1218.81 1620.19 L1218.81 1612.14 L1225.37 1612.14 L1225.37 1609.42 L1231.81 1609.42 L1231.81 1605.46 L1238.24 1605.46 L1238.24 1580.83 L1244.68 1580.83 L1244.68 1561.28 L1251.11 1561.28 L1251.11 1536.53 L1257.55 1536.53 L1257.55 1519.33 L1263.98 1519.33 L1263.98 1502.12 L1270.54 1502.12 L1270.54 1496.56 L1276.98 1496.56 L1276.98 1490.37 L1283.41 1490.37 L1283.41 1477.13 L1289.85 1477.13 L1289.85 1462.15 L1296.28 1462.15 L1296.28 1449.28 L1302.72 1449.28 L1302.72 1435.17 L1309.28 1435.17 L1309.28 1424.90 L1315.71 1424.90 L1315.71 1417.11 L1322.14 1417.11 L1322.14 1408.81 L1328.58 1408.81 L1328.58 1394.95 L1335.02 1394.95 L1335.02 1384.68 L1341.45 1384.68 L1341.45 1371.44 L1348.01 1371.44 L1348.01 1359.81 L1354.44 1359.81 L1354.44 1348.92 L1360.88 1348.92 L1360.88 1341.49 L1367.31 1341.49 L1367.31 1336.42 L1373.75 1336.42 L1373.75 1326.64 L1380.18 1326.64 L1380.18 1314.39 L1386.62 1314.39 L1386.62 1303.62 L1393.18 1303.62 L1393.18 1292.73 L1399.61 1292.73 L1399.61 1286.42 L1406.05 1286.42 L1406.05 1281.10 L1412.48 1281.10 L1412.48 1274.17 L1418.92 1274.17 L1418.92 1266.25 L1425.35 1266.25 L1425.35 1259.32 L1431.91 1259.32 L1431.91 1252.14 L1438.35 1252.14 L1438.35 1245.34 L1444.78 1245.34 L1444.78 1235.06 L1451.22 1235.06 L1451.22 1231.10 L1457.65 1231.10 L1457.65 1226.15 L1464.09 1226.15 L1464.09 1217.61 L1470.64 1217.61 L1470.64 1209.69 L1477.08 1209.69 L1477.08 1204.13 L1483.52 1204.13 L1483.52 1194.97 L1489.95 1194.97 L1489.95 1187.91 L1496.38 1187.91 L1496.38 1183.58 L1502.82 1183.58 L1502.82 1179.00 L1509.26 1179.00 L1509.26 1173.43 L1515.81 1173.43 L1515.81 1166.63 L1522.25 1166.63 L1522.25 1160.07 L1528.68 1160.07 L1528.68 1151.65 L1535.12 1151.65 L1535.12 1148.68 L1541.55 1148.68 L1541.55 1142.87 L1547.99 1142.87 L1547.99 1139.15 L1554.55 1139.15 L1554.55 1130.00 L1560.98 1130.00 L1560.98 1121.58 L1567.42 1121.58 L1567.42 1114.90 L1573.85 1114.90 L1573.85 1106.48 L1580.29 1106.48 L1580.29 1099.55 L1586.72 1099.55 L1586.72 1094.48 L1593.28 1094.48 L1593.28 1089.28 L1599.72 1089.28 L1599.72 1085.32 L1606.15 1085.32 L1606.15 1079.75 L1612.59 1079.75 L1612.59 1074.18 L1619.02 1074.18 L1619.02 1070.22 L1625.46 1070.22 L1625.46 1067.25 L1631.89 1067.25 L1631.89 1063.05 L1638.45 1063.05 L1638.45 1060.20 L1644.88 1060.20 L1644.88 1057.11 L1651.32 1057.11 L1651.32 1052.53 L1657.76 1052.53 L1657.76 1047.70 L1664.19 1047.70 L1664.19 1042.01 L1670.63 1042.01 L1670.63 1039.04 L1677.18 1039.04 L1677.18 1034.95 L1683.62 1034.95 L1683.62 1031.61 L1690.05 1031.61 L1690.05 1028.64 L1696.49 1028.64 L1696.49 1024.06 L1702.92 1024.06 L1702.92 1019.48 L1709.36 1019.48 L1709.36 1016.14 L1715.92 1016.14 L1715.92 1011.19 L1722.35 1011.19 L1722.35 1008.22 L1728.79 1008.22 L1728.79 1005.62 L1735.22 1005.62 L1735.22 1002.28 L1741.66 1002.28 L1741.66 999.44 L1748.09 999.44 L1748.09 994.24 L1754.53 994.24 L1754.53 988.55 L1761.09 988.55 L1761.09 983.35 L1767.52 983.35 L1767.52 978.52 L1773.96 978.52 L1773.96 975.30 L1780.39 975.30 L1780.39 971.10 L1786.83 971.10 L1786.83 962.56 L1793.26 962.56 L1793.26 958.84 L1799.82 958.84 L1799.82 953.15 L1806.26 953.15 L1806.26 946.22 L1812.69 946.22 L1812.69 942.63 L1819.13 942.63 L1819.13 941.02 L1825.56 941.02 L1825.56 938.67 L1831.99 938.67 L1831.99 935.08 L1838.43 935.08 L1838.43 930.63 L1844.99 930.63 L1844.99 923.95 L1851.42 923.95 L1851.42 918.50 L1857.86 918.50 L1857.86 916.52 L1864.29 916.52 L1864.29 911.57 L1870.73 911.57 L1870.73 907.36" stroke-linejoin="round" style="fill:none;stroke:#90353B;stroke-width:6.48"/>
	<path d=" M689.53 1825.99 L696.09 1825.99 L696.09 1825.99 L702.53 1825.99 L702.53 1825.99 L708.96 1825.99 L708.96 1825.99 L715.40 1825.99 L715.40 1825.99 L721.83 1825.99 L721.83 1825.99 L728.27 1825.99 L728.27 1825.99 L734.83 1825.99 L734.83 1825.99 L741.26 1825.99 L741.26 1825.99 L747.70 1825.99 L747.70 1825.99 L754.13 1825.99 L754.13 1825.86 L760.57 1825.86 L760.57 1825.86 L767.00 1825.86 L767.00 1825.86 L773.56 1825.86 L773.56 1825.86 L792.87 1825.86 L792.87 1825.62 L805.74 1825.62 L805.74 1825.62 L818.73 1825.62 L818.73 1825.62 L825.16 1825.62 L825.16 1825.62 L831.60 1825.62 L831.60 1825.62 L838.03 1825.62 L838.03 1825.62 L844.47 1825.62 L844.47 1825.62 L850.90 1825.62 L850.90 1825.62 L857.46 1825.62 L857.46 1825.37 L863.90 1825.37 L863.90 1825.37 L870.33 1825.37 L870.33 1823.14 L876.77 1823.14 L876.77 1823.14 L883.20 1823.14 L883.20 1823.14 L889.64 1823.14 L889.64 1822.65 L896.20 1822.65 L896.20 1822.65 L902.63 1822.65 L902.63 1822.40 L909.07 1822.40 L909.07 1822.40 L915.50 1822.40 L915.50 1822.40 L921.94 1822.40 L921.94 1822.40 L928.37 1822.40 L928.37 1821.16 L934.81 1821.16 L934.81 1820.42 L941.37 1820.42 L941.37 1819.55 L947.80 1819.55 L947.80 1819.06 L954.24 1819.06 L954.24 1818.69 L960.67 1818.69 L960.67 1818.19 L967.11 1818.19 L967.11 1816.34 L973.54 1816.34 L973.54 1813.24 L980.10 1813.24 L980.10 1811.88 L986.53 1811.88 L986.53 1810.77 L992.97 1810.77 L992.97 1808.29 L999.40 1808.29 L999.40 1806.56 L1005.84 1806.56 L1005.84 1804.21 L1012.27 1804.21 L1012.27 1800.37 L1018.71 1800.37 L1018.71 1795.54 L1025.27 1795.54 L1025.27 1789.85 L1031.70 1789.85 L1031.70 1786.51 L1038.14 1786.51 L1038.14 1782.67 L1044.57 1782.67 L1044.57 1780.69 L1051.01 1780.69 L1051.01 1778.59 L1057.44 1778.59 L1057.44 1771.17 L1064.00 1771.17 L1064.00 1765.10 L1070.44 1765.10 L1070.44 1751.49 L1076.87 1751.49 L1076.87 1743.32 L1083.31 1743.32 L1083.31 1735.28 L1089.74 1735.28 L1089.74 1730.82 L1096.18 1730.82 L1096.18 1726.74 L1102.74 1726.74 L1102.74 1715.23 L1109.17 1715.23 L1109.17 1705.58 L1115.61 1705.58 L1115.61 1696.54 L1122.04 1696.54 L1122.04 1685.65 L1128.48 1685.65 L1128.48 1677.24 L1134.91 1677.24 L1134.91 1674.14 L1141.35 1674.14 L1141.35 1670.80 L1147.90 1670.80 L1147.90 1662.39 L1154.34 1662.39 L1154.34 1645.31 L1160.78 1645.31 L1160.78 1630.70 L1167.21 1630.70 L1167.21 1620.68 L1173.64 1620.68 L1173.64 1600.63 L1180.08 1600.63 L1180.08 1597.41 L1186.64 1597.41 L1186.64 1594.82 L1193.07 1594.82 L1193.07 1579.22 L1199.51 1579.22 L1199.51 1567.59 L1205.94 1567.59 L1205.94 1556.08 L1212.38 1556.08 L1212.38 1544.20 L1218.81 1544.20 L1218.81 1533.31 L1225.37 1533.31 L1225.37 1528.36 L1231.81 1528.36 L1231.81 1523.04 L1238.24 1523.04 L1238.24 1484.92 L1244.68 1484.92 L1244.68 1459.06 L1251.11 1459.06 L1251.11 1429.60 L1257.55 1429.60 L1257.55 1405.60 L1263.98 1405.60 L1263.98 1377.50 L1270.54 1377.50 L1270.54 1366.61 L1276.98 1366.61 L1276.98 1358.07 L1283.41 1358.07 L1283.41 1340.38 L1289.85 1340.38 L1289.85 1318.10 L1296.28 1318.10 L1296.28 1301.40 L1302.72 1301.40 L1302.72 1285.43 L1309.28 1285.43 L1309.28 1271.94 L1315.71 1271.94 L1315.71 1262.91 L1322.14 1262.91 L1322.14 1253.01 L1328.58 1253.01 L1328.58 1236.18 L1335.02 1236.18 L1335.02 1224.05 L1341.45 1224.05 L1341.45 1210.07 L1348.01 1210.07 L1348.01 1197.07 L1354.44 1197.07 L1354.44 1185.31 L1360.88 1185.31 L1360.88 1175.91 L1367.31 1175.91 L1367.31 1167.99 L1373.75 1167.99 L1373.75 1152.40 L1380.18 1152.40 L1380.18 1136.93 L1386.62 1136.93 L1386.62 1124.80 L1393.18 1124.80 L1393.18 1111.43 L1399.61 1111.43 L1399.61 1100.91 L1406.05 1100.91 L1406.05 1095.96 L1412.48 1095.96 L1412.48 1088.04 L1418.92 1088.04 L1418.92 1080.87 L1425.35 1080.87 L1425.35 1070.97 L1431.91 1070.97 L1431.91 1064.65 L1438.35 1064.65 L1438.35 1055.87 L1444.78 1055.87 L1444.78 1048.20 L1451.22 1048.20 L1451.22 1045.23 L1457.65 1045.23 L1457.65 1041.02 L1464.09 1041.02 L1464.09 1032.73 L1470.64 1032.73 L1470.64 1025.05 L1477.08 1025.05 L1477.08 1017.75 L1483.52 1017.75 L1483.52 1006.37 L1489.95 1006.37 L1489.95 999.56 L1496.38 999.56 L1496.38 993.99 L1502.82 993.99 L1502.82 991.02 L1509.26 991.02 L1509.26 984.46 L1515.81 984.46 L1515.81 974.81 L1522.25 974.81 L1522.25 967.14 L1528.68 967.14 L1528.68 959.22 L1535.12 959.22 L1535.12 955.87 L1541.55 955.87 L1541.55 948.20 L1547.99 948.20 L1547.99 944.12 L1554.55 944.12 L1554.55 936.32 L1560.98 936.32 L1560.98 929.27 L1567.42 929.27 L1567.42 920.48 L1573.85 920.48 L1573.85 911.45 L1580.29 911.45 L1580.29 906.74 L1586.72 906.74 L1586.72 903.40 L1593.28 903.40 L1593.28 898.45 L1599.72 898.45 L1599.72 891.89 L1606.15 891.89 L1606.15 887.19 L1612.59 887.19 L1612.59 883.36 L1619.02 883.36 L1619.02 879.02 L1625.46 879.02 L1625.46 875.43 L1631.89 875.43 L1631.89 870.98 L1638.45 870.98 L1638.45 867.27 L1644.88 867.27 L1644.88 864.67 L1651.32 864.67 L1651.32 860.09 L1657.76 860.09 L1657.76 855.14 L1664.19 855.14 L1664.19 850.44 L1670.63 850.44 L1670.63 847.71 L1677.18 847.71 L1677.18 845.86 L1683.62 845.86 L1683.62 843.63 L1690.05 843.63 L1690.05 839.79 L1696.49 839.79 L1696.49 834.84 L1702.92 834.84 L1702.92 830.51 L1709.36 830.51 L1709.36 826.55 L1715.92 826.55 L1715.92 820.36 L1722.35 820.36 L1722.35 815.41 L1728.79 815.41 L1728.79 813.68 L1735.22 813.68 L1735.22 810.96 L1741.66 810.96 L1741.66 807.99 L1748.09 807.99 L1748.09 803.91 L1754.53 803.91 L1754.53 798.95 L1761.09 798.95 L1761.09 796.48 L1767.52 796.48 L1767.52 792.89 L1773.96 792.89 L1773.96 791.28 L1780.39 791.28 L1780.39 787.07 L1786.83 787.07 L1786.83 781.63 L1793.26 781.63 L1793.26 777.79 L1799.82 777.79 L1799.82 771.85 L1806.26 771.85 L1806.26 766.66 L1812.69 766.66 L1812.69 762.70 L1819.13 762.70 L1819.13 760.59 L1825.56 760.59 L1825.56 757.62 L1831.99 757.62 L1831.99 754.03 L1838.43 754.03 L1838.43 750.44 L1844.99 750.44 L1844.99 744.63 L1851.42 744.63 L1851.42 738.44 L1857.86 738.44 L1857.86 734.85 L1864.29 734.85 L1864.29 730.15 L1870.73 730.15 L1870.73 724.08" stroke-linejoin="round" style="fill:none;stroke:#55752F;stroke-width:6.48"/>
	<path d=" M689.53 1825.99 L696.09 1825.99 L696.09 1825.99 L702.53 1825.99 L702.53 1825.86 L708.96 1825.86 L708.96 1825.86 L715.40 1825.86 L715.40 1825.86 L721.83 1825.86 L721.83 1825.86 L728.27 1825.86 L728.27 1825.86 L734.83 1825.86 L734.83 1825.86 L741.26 1825.86 L741.26 1825.86 L747.70 1825.86 L747.70 1825.86 L754.13 1825.86 L754.13 1825.86 L760.57 1825.86 L760.57 1825.86 L767.00 1825.86 L767.00 1825.86 L773.56 1825.86 L773.56 1825.86 L780.00 1825.86 L780.00 1825.86 L786.43 1825.86 L786.43 1825.37 L799.30 1825.37 L799.30 1825.37 L805.74 1825.37 L805.74 1825.37 L812.17 1825.37 L812.17 1825.37 L818.73 1825.37 L818.73 1825.37 L825.16 1825.37 L825.16 1825.37 L831.60 1825.37 L831.60 1825.25 L838.03 1825.25 L838.03 1825.00 L844.47 1825.00 L844.47 1825.00 L850.90 1825.00 L850.90 1825.00 L857.46 1825.00 L857.46 1824.75 L863.90 1824.75 L863.90 1824.75 L870.33 1824.75 L870.33 1822.03 L876.77 1822.03 L876.77 1822.03 L883.20 1822.03 L883.20 1821.78 L889.64 1821.78 L889.64 1821.78 L896.20 1821.78 L896.20 1821.78 L902.63 1821.78 L902.63 1821.78 L909.07 1821.78 L909.07 1821.66 L915.50 1821.66 L915.50 1821.66 L921.94 1821.66 L921.94 1821.41 L928.37 1821.41 L928.37 1820.79 L934.81 1820.79 L934.81 1820.42 L941.37 1820.42 L941.37 1819.06 L947.80 1819.06 L947.80 1817.57 L954.24 1817.57 L954.24 1817.20 L960.67 1817.20 L960.67 1816.21 L967.11 1816.21 L967.11 1813.86 L973.54 1813.86 L973.54 1810.52 L980.10 1810.52 L980.10 1808.54 L986.53 1808.54 L986.53 1806.31 L992.97 1806.31 L992.97 1803.96 L999.40 1803.96 L999.40 1802.23 L1005.84 1802.23 L1005.84 1800.74 L1012.27 1800.74 L1012.27 1797.40 L1018.71 1797.40 L1018.71 1793.19 L1025.27 1793.19 L1025.27 1787.75 L1031.70 1787.75 L1031.70 1781.68 L1038.14 1781.68 L1038.14 1772.40 L1044.57 1772.40 L1044.57 1770.05 L1051.01 1770.05 L1051.01 1767.33 L1057.44 1767.33 L1057.44 1757.68 L1064.00 1757.68 L1064.00 1751.61 L1070.44 1751.61 L1070.44 1732.06 L1076.87 1732.06 L1076.87 1721.29 L1083.31 1721.29 L1083.31 1709.29 L1089.74 1709.29 L1089.74 1705.33 L1096.18 1705.33 L1096.18 1700.25 L1102.74 1700.25 L1102.74 1683.80 L1109.17 1683.80 L1109.17 1673.52 L1115.61 1673.52 L1115.61 1660.03 L1122.04 1660.03 L1122.04 1648.65 L1128.48 1648.65 L1128.48 1640.11 L1134.91 1640.11 L1134.91 1635.41 L1141.35 1635.41 L1141.35 1629.96 L1147.90 1629.96 L1147.90 1619.69 L1154.34 1619.69 L1154.34 1595.68 L1160.78 1595.68 L1160.78 1580.34 L1167.21 1580.34 L1167.21 1567.47 L1173.64 1567.47 L1173.64 1538.38 L1180.08 1538.38 L1180.08 1534.67 L1186.64 1534.67 L1186.64 1531.08 L1193.07 1531.08 L1193.07 1512.77 L1199.51 1512.77 L1199.51 1501.51 L1205.94 1501.51 L1205.94 1488.88 L1212.38 1488.88 L1212.38 1477.99 L1218.81 1477.99 L1218.81 1463.88 L1225.37 1463.88 L1225.37 1460.67 L1231.81 1460.67 L1231.81 1456.71 L1238.24 1456.71 L1238.24 1414.63 L1244.68 1414.63 L1244.68 1385.80 L1251.11 1385.80 L1251.11 1352.26 L1257.55 1352.26 L1257.55 1327.63 L1263.98 1327.63 L1263.98 1297.56 L1270.54 1297.56 L1270.54 1286.17 L1276.98 1286.17 L1276.98 1276.89 L1283.41 1276.89 L1283.41 1254.49 L1289.85 1254.49 L1289.85 1236.42 L1296.28 1236.42 L1296.28 1215.76 L1302.72 1215.76 L1302.72 1199.79 L1309.28 1199.79 L1309.28 1188.41 L1315.71 1188.41 L1315.71 1179.62 L1322.14 1179.62 L1322.14 1169.23 L1328.58 1169.23 L1328.58 1150.04 L1335.02 1150.04 L1335.02 1135.94 L1341.45 1135.94 L1341.45 1123.31 L1348.01 1123.31 L1348.01 1105.62 L1354.44 1105.62 L1354.44 1091.51 L1360.88 1091.51 L1360.88 1082.97 L1367.31 1082.97 L1367.31 1074.68 L1373.75 1074.68 L1373.75 1058.47 L1380.18 1058.47 L1380.18 1047.33 L1386.62 1047.33 L1386.62 1033.34 L1393.18 1033.34 L1393.18 1021.22 L1399.61 1021.22 L1399.61 1010.57 L1406.05 1010.57 L1406.05 1003.03 L1412.48 1003.03 L1412.48 996.71 L1418.92 996.71 L1418.92 988.67 L1425.35 988.67 L1425.35 978.65 L1431.91 978.65 L1431.91 968.87 L1438.35 968.87 L1438.35 959.46 L1444.78 959.46 L1444.78 948.94 L1451.22 948.94 L1451.22 944.86 L1457.65 944.86 L1457.65 942.14 L1464.09 942.14 L1464.09 930.75 L1470.64 930.75 L1470.64 925.56 L1477.08 925.56 L1477.08 919.00 L1483.52 919.00 L1483.52 909.47 L1489.95 909.47 L1489.95 902.54 L1496.38 902.54 L1496.38 898.58 L1502.82 898.58 L1502.82 894.74 L1509.26 894.74 L1509.26 888.68 L1515.81 888.68 L1515.81 880.39 L1522.25 880.39 L1522.25 874.32 L1528.68 874.32 L1528.68 868.38 L1535.12 868.38 L1535.12 864.79 L1541.55 864.79 L1541.55 860.58 L1547.99 860.58 L1547.99 857.61 L1554.55 857.61 L1554.55 848.95 L1560.98 848.95 L1560.98 843.75 L1567.42 843.75 L1567.42 837.81 L1573.85 837.81 L1573.85 830.39 L1580.29 830.39 L1580.29 823.71 L1586.72 823.71 L1586.72 819.50 L1593.28 819.50 L1593.28 815.66 L1599.72 815.66 L1599.72 810.46 L1606.15 810.46 L1606.15 804.90 L1612.59 804.90 L1612.59 802.42 L1619.02 802.42 L1619.02 798.95 L1625.46 798.95 L1625.46 794.75 L1631.89 794.75 L1631.89 793.14 L1638.45 793.14 L1638.45 791.90 L1644.88 791.90 L1644.88 789.05 L1651.32 789.05 L1651.32 782.62 L1657.76 782.62 L1657.76 779.40 L1664.19 779.40 L1664.19 774.95 L1670.63 774.95 L1670.63 770.74 L1677.18 770.74 L1677.18 769.25 L1683.62 769.25 L1683.62 767.65 L1690.05 767.65 L1690.05 764.06 L1696.49 764.06 L1696.49 761.95 L1702.92 761.95 L1702.92 757.50 L1709.36 757.50 L1709.36 754.77 L1715.92 754.77 L1715.92 751.19 L1722.35 751.19 L1722.35 747.60 L1728.79 747.60 L1728.79 744.63 L1735.22 744.63 L1735.22 742.65 L1741.66 742.65 L1741.66 738.93 L1748.09 738.93 L1748.09 734.85 L1754.53 734.85 L1754.53 730.52 L1761.09 730.52 L1761.09 725.45 L1767.52 725.45 L1767.52 722.60 L1773.96 722.60 L1773.96 720.37 L1780.39 720.37 L1780.39 718.02 L1786.83 718.02 L1786.83 713.19 L1793.26 713.19 L1793.26 710.35 L1799.82 710.35 L1799.82 708.12 L1806.26 708.12 L1806.26 702.55 L1812.69 702.55 L1812.69 699.21 L1819.13 699.21 L1819.13 697.97 L1825.56 697.97 L1825.56 694.51 L1831.99 694.51 L1831.99 691.66 L1838.43 691.66 L1838.43 688.69 L1844.99 688.69 L1844.99 683.12 L1851.42 683.12 L1851.42 678.67 L1857.86 678.67 L1857.86 676.44 L1864.29 676.44 L1864.29 672.23 L1870.73 672.23 L1870.73 668.77" stroke-linejoin="round" style="fill:none;stroke:#E37E00;stroke-width:6.48"/>
	<path d=" M689.53 1825.99 L696.09 1825.99 L696.09 1825.99 L702.53 1825.99 L702.53 1825.99 L708.96 1825.99 L708.96 1825.99 L715.40 1825.99 L715.40 1825.99 L721.83 1825.99 L721.83 1825.99 L728.27 1825.99 L728.27 1825.99 L734.83 1825.99 L734.83 1825.99 L741.26 1825.99 L741.26 1825.99 L747.70 1825.99 L747.70 1825.99 L754.13 1825.99 L754.13 1825.99 L760.57 1825.99 L760.57 1825.99 L767.00 1825.99 L767.00 1825.99 L773.56 1825.99 L773.56 1825.99 L780.00 1825.99 L780.00 1825.99 L786.43 1825.99 L786.43 1825.99 L792.87 1825.99 L792.87 1825.99 L799.30 1825.99 L799.30 1825.99 L805.74 1825.99 L805.74 1825.99 L818.73 1825.99 L818.73 1825.99 L825.16 1825.99 L825.16 1825.99 L831.60 1825.99 L831.60 1825.99 L838.03 1825.99 L838.03 1825.99 L844.47 1825.99 L844.47 1825.99 L850.90 1825.99 L850.90 1825.62 L857.46 1825.62 L857.46 1825.62 L863.90 1825.62 L863.90 1825.62 L870.33 1825.62 L870.33 1824.38 L876.77 1824.38 L876.77 1824.38 L883.20 1824.38 L883.20 1823.64 L889.64 1823.64 L889.64 1823.14 L896.20 1823.14 L896.20 1823.14 L902.63 1823.14 L902.63 1823.14 L909.07 1823.14 L909.07 1823.14 L915.50 1823.14 L915.50 1823.14 L921.94 1823.14 L921.94 1822.40 L928.37 1822.40 L928.37 1821.90 L934.81 1821.90 L934.81 1820.67 L941.37 1820.67 L941.37 1820.67 L947.80 1820.67 L947.80 1819.92 L954.24 1819.92 L954.24 1819.92 L960.67 1819.92 L960.67 1819.06 L967.11 1819.06 L967.11 1817.45 L973.54 1817.45 L973.54 1816.58 L980.10 1816.58 L980.10 1812.50 L986.53 1812.50 L986.53 1810.40 L992.97 1810.40 L992.97 1807.55 L999.40 1807.55 L999.40 1807.18 L1005.84 1807.18 L1005.84 1806.31 L1012.27 1806.31 L1012.27 1805.57 L1018.71 1805.57 L1018.71 1802.23 L1025.27 1802.23 L1025.27 1797.77 L1031.70 1797.77 L1031.70 1790.72 L1038.14 1790.72 L1038.14 1785.03 L1044.57 1785.03 L1044.57 1782.55 L1051.01 1782.55 L1051.01 1780.08 L1057.44 1780.08 L1057.44 1771.41 L1064.00 1771.41 L1064.00 1762.01 L1070.44 1762.01 L1070.44 1750.87 L1076.87 1750.87 L1076.87 1745.18 L1083.31 1745.18 L1083.31 1734.91 L1089.74 1734.91 L1089.74 1729.96 L1096.18 1729.96 L1096.18 1722.53 L1102.74 1722.53 L1102.74 1709.04 L1109.17 1709.04 L1109.17 1697.53 L1115.61 1697.53 L1115.61 1688.13 L1122.04 1688.13 L1122.04 1675.38 L1128.48 1675.38 L1128.48 1663.50 L1134.91 1663.50 L1134.91 1658.55 L1141.35 1658.55 L1141.35 1654.84 L1147.90 1654.84 L1147.90 1647.04 L1154.34 1647.04 L1154.34 1628.97 L1160.78 1628.97 L1160.78 1607.19 L1167.21 1607.19 L1167.21 1600.26 L1173.64 1600.26 L1173.64 1566.97 L1180.08 1566.97 L1180.08 1562.39 L1186.64 1562.39 L1186.64 1559.55 L1193.07 1559.55 L1193.07 1541.48 L1199.51 1541.48 L1199.51 1530.34 L1205.94 1530.34 L1205.94 1522.54 L1212.38 1522.54 L1212.38 1510.66 L1218.81 1510.66 L1218.81 1497.42 L1225.37 1497.42 L1225.37 1494.20 L1231.81 1494.20 L1231.81 1491.36 L1238.24 1491.36 L1238.24 1468.71 L1244.68 1468.71 L1244.68 1447.67 L1251.11 1447.67 L1251.11 1423.05 L1257.55 1423.05 L1257.55 1404.61 L1263.98 1404.61 L1263.98 1384.06 L1270.54 1384.06 L1270.54 1376.27 L1276.98 1376.27 L1276.98 1370.45 L1283.41 1370.45 L1283.41 1356.47 L1289.85 1356.47 L1289.85 1342.11 L1296.28 1342.11 L1296.28 1326.52 L1302.72 1326.52 L1302.72 1315.01 L1309.28 1315.01 L1309.28 1306.35 L1315.71 1306.35 L1315.71 1301.77 L1322.14 1301.77 L1322.14 1294.47 L1328.58 1294.47 L1328.58 1278.38 L1335.02 1278.38 L1335.02 1268.48 L1341.45 1268.48 L1341.45 1256.60 L1348.01 1256.60 L1348.01 1246.70 L1354.44 1246.70 L1354.44 1234.82 L1360.88 1234.82 L1360.88 1229.00 L1367.31 1229.00 L1367.31 1227.02 L1373.75 1227.02 L1373.75 1219.22 L1380.18 1219.22 L1380.18 1209.69 L1386.62 1209.69 L1386.62 1195.71 L1393.18 1195.71 L1393.18 1186.30 L1399.61 1186.30 L1399.61 1179.62 L1406.05 1179.62 L1406.05 1171.45 L1412.48 1171.45 L1412.48 1167.74 L1418.92 1167.74 L1418.92 1163.16 L1425.35 1163.16 L1425.35 1153.39 L1431.91 1153.39 L1431.91 1146.70 L1438.35 1146.70 L1438.35 1141.38 L1444.78 1141.38 L1444.78 1135.69 L1451.22 1135.69 L1451.22 1131.48 L1457.65 1131.48 L1457.65 1130.74 L1464.09 1130.74 L1464.09 1122.45 L1470.64 1122.45 L1470.64 1119.60 L1477.08 1119.60 L1477.08 1116.75 L1483.52 1116.75 L1483.52 1108.46 L1489.95 1108.46 L1489.95 1103.14 L1496.38 1103.14 L1496.38 1098.56 L1502.82 1098.56 L1502.82 1096.21 L1509.26 1096.21 L1509.26 1091.63 L1515.81 1091.63 L1515.81 1082.97 L1522.25 1082.97 L1522.25 1077.65 L1528.68 1077.65 L1528.68 1071.46 L1535.12 1071.46 L1535.12 1068.12 L1541.55 1068.12 L1541.55 1064.53 L1547.99 1064.53 L1547.99 1061.56 L1554.55 1061.56 L1554.55 1055.87 L1560.98 1055.87 L1560.98 1052.53 L1567.42 1052.53 L1567.42 1046.71 L1573.85 1046.71 L1573.85 1042.26 L1580.29 1042.26 L1580.29 1036.93 L1586.72 1036.93 L1586.72 1034.46 L1593.28 1034.46 L1593.28 1031.12 L1599.72 1031.12 L1599.72 1027.78 L1606.15 1027.78 L1606.15 1024.06 L1612.59 1024.06 L1612.59 1021.22 L1619.02 1021.22 L1619.02 1017.50 L1625.46 1017.50 L1625.46 1014.29 L1631.89 1014.29 L1631.89 1013.42 L1638.45 1013.42 L1638.45 1011.32 L1644.88 1011.32 L1644.88 1009.34 L1651.32 1009.34 L1651.32 1006.86 L1657.76 1006.86 L1657.76 1003.89 L1664.19 1003.89 L1664.19 1000.67 L1670.63 1000.67 L1670.63 996.96 L1677.18 996.96 L1677.18 995.72 L1683.62 995.72 L1683.62 994.11 L1690.05 994.11 L1690.05 989.91 L1696.49 989.91 L1696.49 987.06 L1702.92 987.06 L1702.92 985.45 L1709.36 985.45 L1709.36 982.98 L1715.92 982.98 L1715.92 978.77 L1722.35 978.77 L1722.35 977.53 L1728.79 977.53 L1728.79 977.16 L1735.22 977.16 L1735.22 972.58 L1741.66 972.58 L1741.66 970.11 L1748.09 970.11 L1748.09 966.89 L1754.53 966.89 L1754.53 964.79 L1761.09 964.79 L1761.09 961.57 L1767.52 961.57 L1767.52 960.70 L1773.96 960.70 L1773.96 959.83 L1780.39 959.83 L1780.39 958.23 L1786.83 958.23 L1786.83 954.14 L1793.26 954.14 L1793.26 952.04 L1799.82 952.04 L1799.82 949.56 L1806.26 949.56 L1806.26 947.09 L1812.69 947.09 L1812.69 945.48 L1819.13 945.48 L1819.13 943.75 L1825.56 943.75 L1825.56 941.77 L1831.99 941.77 L1831.99 936.32 L1838.43 936.32 L1838.43 933.48 L1844.99 933.48 L1844.99 931.87 L1851.42 931.87 L1851.42 929.39 L1857.86 929.39 L1857.86 928.15 L1864.29 928.15 L1864.29 924.81 L1870.73 924.81 L1870.73 921.47" stroke-linejoin="round" style="fill:none;stroke:#6E8E84;stroke-width:6.48"/>
	<line x1="635.70" y1="1873.51" x2="635.70" y2="414.45" style="stroke:#000000;stroke-width:4.32"/>
	<line x1="635.70" y1="1825.99" x2="605.63" y2="1825.99" style="stroke:#000000;stroke-width:4.32"/>
	<text x="590.66" y="1852.27" style="font-family:'Helvetica';font-size:74.99px;fill:#000000" text-anchor="end">0.000</text>
	<line x1="635.70" y1="1553.11" x2="605.63" y2="1553.11" style="stroke:#000000;stroke-width:4.32"/>
	<text x="590.66" y="1579.39" style="font-family:'Helvetica';font-size:74.99px;fill:#000000" text-anchor="end">0.001</text>
	<line x1="635.70" y1="1280.36" x2="605.63" y2="1280.36" style="stroke:#000000;stroke-width:4.32"/>
	<text x="590.66" y="1306.64" style="font-family:'Helvetica';font-size:74.99px;fill:#000000" text-anchor="end">0.002</text>
	<line x1="635.70" y1="1007.60" x2="605.63" y2="1007.60" style="stroke:#000000;stroke-width:4.32"/>
	<text x="590.66" y="1033.88" style="font-family:'Helvetica';font-size:74.99px;fill:#000000" text-anchor="end">0.003</text>
	<line x1="635.70" y1="734.73" x2="605.63" y2="734.73" style="stroke:#000000;stroke-width:4.32"/>
	<text x="590.66" y="761.01" style="font-family:'Helvetica';font-size:74.99px;fill:#000000" text-anchor="end">0.004</text>
	<line x1="635.70" y1="461.97" x2="605.63" y2="461.97" style="stroke:#000000;stroke-width:4.32"/>
	<text x="590.66" y="488.25" style="font-family:'Helvetica';font-size:74.99px;fill:#000000" text-anchor="end">0.005</text>
	<line x1="635.70" y1="1873.51" x2="2021.58" y2="1873.51" style="stroke:#000000;stroke-width:4.32"/>
	<line x1="683.22" y1="1873.51" x2="683.22" y2="1903.46" style="stroke:#000000;stroke-width:4.32"/>
	<text x="683.22" y="1970.87" style="font-family:'Helvetica';font-size:74.99px;fill:#000000" text-anchor="middle">1 Feb 20</text>
	<line x1="870.33" y1="1873.51" x2="870.33" y2="1903.46" style="stroke:#000000;stroke-width:4.32"/>
	<text x="870.33" y="1970.87" style="font-family:'Helvetica';font-size:74.99px;fill:#000000" text-anchor="middle">1 Mar 20</text>
	<line x1="1070.44" y1="1873.51" x2="1070.44" y2="1903.46" style="stroke:#000000;stroke-width:4.32"/>
	<text x="1070.44" y="1970.87" style="font-family:'Helvetica';font-size:74.99px;fill:#000000" text-anchor="middle">1 Apr 20</text>
	<line x1="1270.54" y1="1873.51" x2="1270.54" y2="1903.46" style="stroke:#000000;stroke-width:4.32"/>
	<text x="1270.54" y="1970.87" style="font-family:'Helvetica';font-size:74.99px;fill:#000000" text-anchor="middle">1 May 20</text>
	<line x1="1464.21" y1="1873.51" x2="1464.21" y2="1903.46" style="stroke:#000000;stroke-width:4.32"/>
	<text x="1464.21" y="1970.87" style="font-family:'Helvetica';font-size:74.99px;fill:#000000" text-anchor="middle">1 June 20</text>
	<line x1="1657.88" y1="1873.51" x2="1657.88" y2="1903.46" style="stroke:#000000;stroke-width:4.32"/>
	<text x="1657.88" y="1970.87" style="font-family:'Helvetica';font-size:74.99px;fill:#000000" text-anchor="middle">1 July 20</text>
	<line x1="1857.86" y1="1873.51" x2="1857.86" y2="1903.46" style="stroke:#000000;stroke-width:4.32"/>
	<text x="1857.86" y="1970.87" style="font-family:'Helvetica';font-size:74.99px;fill:#000000" text-anchor="middle">1 Aug 20</text>
	<text x="1328.70" y="2053.41" style="font-family:'Helvetica';font-size:74.99px;fill:#000000" text-anchor="middle"> </text>
	<text x="1328.70" y="369.91" style="font-family:'Helvetica';font-size:104.94px;fill:#1E2D53" text-anchor="middle">Female</text>
	<rect x="2097.19" y="207.91" width="1799.33" height="1958.65" style="fill:#EAF2F3"/>
	<rect x="2099.35" y="210.07" width="1795.01" height="1954.33" style="fill:none;stroke:#EAF2F3;stroke-width:4.32"/>
	<rect x="2435.03" y="414.45" width="1385.88" height="1459.06" style="fill:#FFFFFF"/>
	<rect x="2437.19" y="416.61" width="1381.56" height="1454.74" style="fill:none;stroke:#FFFFFF;stroke-width:4.32"/>
	<line x1="2435.03" y1="1825.99" x2="3820.91" y2="1825.99" style="stroke:#EAF2F3;stroke-width:6.48"/>
	<line x1="2435.03" y1="1553.11" x2="3820.91" y2="1553.11" style="stroke:#EAF2F3;stroke-width:6.48"/>
	<line x1="2435.03" y1="1280.36" x2="3820.91" y2="1280.36" style="stroke:#EAF2F3;stroke-width:6.48"/>
	<line x1="2435.03" y1="1007.60" x2="3820.91" y2="1007.60" style="stroke:#EAF2F3;stroke-width:6.48"/>
	<line x1="2435.03" y1="734.73" x2="3820.91" y2="734.73" style="stroke:#EAF2F3;stroke-width:6.48"/>
	<line x1="2435.03" y1="461.97" x2="3820.91" y2="461.97" style="stroke:#EAF2F3;stroke-width:6.48"/>
	<path d=" M2488.86 1825.99 L2501.85 1825.99 L2501.85 1825.99 L2521.16 1825.99 L2521.16 1825.99 L2527.59 1825.99 L2527.59 1825.86 L2547.02 1825.86 L2547.02 1825.86 L2553.46 1825.86 L2553.46 1825.62 L2559.89 1825.62 L2559.89 1825.25 L2566.33 1825.25 L2566.33 1825.25 L2572.76 1825.25 L2572.76 1825.25 L2579.20 1825.25 L2579.20 1825.25 L2598.63 1825.25 L2598.63 1825.12 L2605.06 1825.12 L2605.06 1825.12 L2617.93 1825.12 L2617.93 1825.12 L2624.49 1825.12 L2624.49 1825.12 L2637.36 1825.12 L2637.36 1825.12 L2650.23 1825.12 L2650.23 1824.87 L2656.66 1824.87 L2656.66 1824.87 L2663.22 1824.87 L2663.22 1824.63 L2669.66 1824.63 L2669.66 1824.26 L2676.09 1824.26 L2676.09 1824.13 L2701.83 1824.13 L2701.83 1824.13 L2708.39 1824.13 L2708.39 1824.13 L2721.26 1824.13 L2721.26 1823.88 L2727.70 1823.88 L2727.70 1823.76 L2734.13 1823.76 L2734.13 1823.27 L2740.57 1823.27 L2740.57 1822.52 L2747.13 1822.52 L2747.13 1821.04 L2753.56 1821.04 L2753.56 1820.79 L2760.00 1820.79 L2760.00 1820.42 L2766.43 1820.42 L2766.43 1818.81 L2772.87 1818.81 L2772.87 1817.82 L2779.30 1817.82 L2779.30 1817.33 L2785.86 1817.33 L2785.86 1816.71 L2792.30 1816.71 L2792.30 1815.96 L2798.73 1815.96 L2798.73 1814.97 L2805.16 1814.97 L2805.16 1813.98 L2811.60 1813.98 L2811.60 1812.38 L2818.03 1812.38 L2818.03 1811.26 L2824.47 1811.26 L2824.47 1809.65 L2831.03 1809.65 L2831.03 1807.92 L2837.46 1807.92 L2837.46 1806.93 L2843.90 1806.93 L2843.90 1806.19 L2850.33 1806.19 L2850.33 1805.82 L2856.77 1805.82 L2856.77 1803.47 L2863.20 1803.47 L2863.20 1801.11 L2869.76 1801.11 L2869.76 1798.02 L2876.20 1798.02 L2876.20 1795.79 L2882.63 1795.79 L2882.63 1795.05 L2889.07 1795.05 L2889.07 1794.06 L2895.50 1794.06 L2895.50 1793.69 L2901.94 1793.69 L2901.94 1791.71 L2908.50 1791.71 L2908.50 1791.34 L2914.93 1791.34 L2914.93 1789.36 L2921.37 1789.36 L2921.37 1787.25 L2927.80 1787.25 L2927.80 1785.64 L2934.24 1785.64 L2934.24 1785.27 L2940.67 1785.27 L2940.67 1784.53 L2947.11 1784.53 L2947.11 1782.55 L2953.66 1782.55 L2953.66 1779.83 L2960.10 1779.83 L2960.10 1778.47 L2966.53 1778.47 L2966.53 1775.74 L2972.97 1775.74 L2972.97 1768.94 L2979.41 1768.94 L2979.41 1768.32 L2985.84 1768.32 L2985.84 1767.95 L2992.40 1767.95 L2992.40 1764.98 L2998.83 1764.98 L2998.83 1763.37 L3005.27 1763.37 L3005.27 1762.26 L3011.70 1762.26 L3011.70 1760.65 L3018.14 1760.65 L3018.14 1759.16 L3024.57 1759.16 L3024.57 1757.80 L3031.13 1757.80 L3031.13 1756.56 L3037.57 1756.56 L3037.57 1747.53 L3044.00 1747.53 L3044.00 1739.24 L3050.44 1739.24 L3050.44 1731.19 L3056.87 1731.19 L3056.87 1724.76 L3063.31 1724.76 L3063.31 1716.96 L3069.74 1716.96 L3069.74 1713.37 L3076.30 1713.37 L3076.30 1710.65 L3082.74 1710.65 L3082.74 1707.68 L3089.17 1707.68 L3089.17 1700.87 L3095.61 1700.87 L3095.61 1695.80 L3102.04 1695.80 L3102.04 1688.62 L3108.48 1688.62 L3108.48 1680.95 L3115.03 1680.95 L3115.03 1678.23 L3121.47 1678.23 L3121.47 1675.13 L3127.91 1675.13 L3127.91 1669.19 L3134.34 1669.19 L3134.34 1664.37 L3140.78 1664.37 L3140.78 1660.41 L3147.21 1660.41 L3147.21 1654.71 L3153.77 1654.71 L3153.77 1650.01 L3160.20 1650.01 L3160.20 1645.56 L3166.64 1645.56 L3166.64 1641.60 L3173.07 1641.60 L3173.07 1634.42 L3179.51 1634.42 L3179.51 1629.34 L3185.94 1629.34 L3185.94 1624.27 L3192.38 1624.27 L3192.38 1616.97 L3198.94 1616.97 L3198.94 1613.01 L3205.37 1613.01 L3205.37 1608.18 L3211.81 1608.18 L3211.81 1605.09 L3218.24 1605.09 L3218.24 1601.13 L3224.68 1601.13 L3224.68 1597.17 L3231.11 1597.17 L3231.11 1592.46 L3237.67 1592.46 L3237.67 1587.64 L3244.11 1587.64 L3244.11 1583.31 L3250.54 1583.31 L3250.54 1580.58 L3256.98 1580.58 L3256.98 1576.87 L3263.41 1576.87 L3263.41 1571.55 L3269.85 1571.55 L3269.85 1567.96 L3276.41 1567.96 L3276.41 1563.38 L3282.84 1563.38 L3282.84 1557.69 L3289.28 1557.69 L3289.28 1555.34 L3295.71 1555.34 L3295.71 1552.74 L3302.14 1552.74 L3302.14 1549.65 L3308.58 1549.65 L3308.58 1546.92 L3315.01 1546.92 L3315.01 1542.59 L3321.57 1542.59 L3321.57 1536.90 L3328.01 1536.90 L3328.01 1532.57 L3334.44 1532.57 L3334.44 1531.58 L3340.88 1531.58 L3340.88 1528.61 L3347.31 1528.61 L3347.31 1524.90 L3353.75 1524.90 L3353.75 1520.81 L3360.31 1520.81 L3360.31 1515.37 L3366.74 1515.37 L3366.74 1509.67 L3373.18 1509.67 L3373.18 1505.09 L3379.61 1505.09 L3379.61 1499.40 L3386.05 1499.40 L3386.05 1495.69 L3392.48 1495.69 L3392.48 1491.61 L3399.04 1491.61 L3399.04 1487.40 L3405.48 1487.40 L3405.48 1483.69 L3411.91 1483.69 L3411.91 1480.22 L3418.35 1480.22 L3418.35 1475.89 L3424.78 1475.89 L3424.78 1472.30 L3431.22 1472.30 L3431.22 1470.57 L3437.65 1470.57 L3437.65 1467.84 L3444.21 1467.84 L3444.21 1465.99 L3450.64 1465.99 L3450.64 1462.89 L3457.08 1462.89 L3457.08 1458.93 L3463.51 1458.93 L3463.51 1455.22 L3469.95 1455.22 L3469.95 1453.12 L3476.39 1453.12 L3476.39 1449.90 L3482.94 1449.90 L3482.94 1447.80 L3489.38 1447.80 L3489.38 1444.21 L3495.81 1444.21 L3495.81 1441.11 L3502.25 1441.11 L3502.25 1438.02 L3508.68 1438.02 L3508.68 1434.43 L3515.12 1434.43 L3515.12 1431.34 L3521.55 1431.34 L3521.55 1429.11 L3528.11 1429.11 L3528.11 1427.01 L3534.55 1427.01 L3534.55 1424.65 L3540.98 1424.65 L3540.98 1422.80 L3547.42 1422.80 L3547.42 1419.95 L3553.85 1419.95 L3553.85 1416.36 L3560.29 1416.36 L3560.29 1411.04 L3566.85 1411.04 L3566.85 1408.07 L3573.28 1408.07 L3573.28 1405.97 L3579.72 1405.97 L3579.72 1403.12 L3586.15 1403.12 L3586.15 1398.42 L3592.59 1398.42 L3592.59 1395.70 L3599.02 1395.70 L3599.02 1390.13 L3605.58 1390.13 L3605.58 1384.81 L3612.01 1384.81 L3612.01 1378.87 L3618.45 1378.87 L3618.45 1376.39 L3624.89 1376.39 L3624.89 1372.43 L3631.32 1372.43 L3631.32 1367.48 L3637.76 1367.48 L3637.76 1363.15 L3644.19 1363.15 L3644.19 1359.19 L3650.75 1359.19 L3650.75 1355.23 L3657.18 1355.23 L3657.18 1352.88 L3663.62 1352.88 L3663.62 1348.42 L3670.05 1348.42 L3670.05 1344.46" stroke-linejoin="round" style="fill:none;stroke:#1A476F;stroke-width:6.48"/>
	<path d=" M2488.86 1825.86 L2495.30 1825.86 L2495.30 1825.62 L2501.85 1825.62 L2501.85 1825.62 L2508.29 1825.62 L2508.29 1825.62 L2514.72 1825.62 L2514.72 1825.62 L2521.16 1825.62 L2521.16 1825.49 L2527.59 1825.49 L2527.59 1825.49 L2534.03 1825.49 L2534.03 1825.49 L2553.46 1825.49 L2553.46 1825.49 L2572.76 1825.49 L2572.76 1825.49 L2585.76 1825.49 L2585.76 1825.25 L2592.19 1825.25 L2592.19 1825.25 L2598.63 1825.25 L2598.63 1825.25 L2611.50 1825.25 L2611.50 1825.25 L2624.49 1825.25 L2624.49 1825.25 L2643.80 1825.25 L2643.80 1825.25 L2650.23 1825.25 L2650.23 1825.25 L2656.66 1825.25 L2656.66 1825.25 L2663.22 1825.25 L2663.22 1825.25 L2669.66 1825.25 L2669.66 1824.26 L2676.09 1824.26 L2676.09 1823.88 L2682.53 1823.88 L2682.53 1823.88 L2688.96 1823.88 L2688.96 1823.64 L2695.40 1823.64 L2695.40 1823.64 L2701.83 1823.64 L2701.83 1823.27 L2708.39 1823.27 L2708.39 1823.27 L2714.83 1823.27 L2714.83 1823.27 L2727.70 1823.27 L2727.70 1822.65 L2734.13 1822.65 L2734.13 1822.03 L2740.57 1822.03 L2740.57 1821.04 L2747.13 1821.04 L2747.13 1819.31 L2753.56 1819.31 L2753.56 1819.06 L2760.00 1819.06 L2760.00 1818.93 L2766.43 1818.93 L2766.43 1817.08 L2772.87 1817.08 L2772.87 1815.96 L2779.30 1815.96 L2779.30 1812.87 L2785.86 1812.87 L2785.86 1811.76 L2792.30 1811.76 L2792.30 1810.15 L2798.73 1810.15 L2798.73 1809.53 L2805.16 1809.53 L2805.16 1808.42 L2811.60 1808.42 L2811.60 1806.81 L2818.03 1806.81 L2818.03 1804.58 L2824.47 1804.58 L2824.47 1801.24 L2831.03 1801.24 L2831.03 1798.02 L2837.46 1798.02 L2837.46 1795.05 L2843.90 1795.05 L2843.90 1792.70 L2850.33 1792.70 L2850.33 1790.10 L2856.77 1790.10 L2856.77 1786.88 L2863.20 1786.88 L2863.20 1783.29 L2869.76 1783.29 L2869.76 1779.58 L2876.20 1779.58 L2876.20 1774.75 L2882.63 1774.75 L2882.63 1769.93 L2889.07 1769.93 L2889.07 1768.20 L2895.50 1768.20 L2895.50 1766.34 L2901.94 1766.34 L2901.94 1763.86 L2908.50 1763.86 L2908.50 1760.40 L2914.93 1760.40 L2914.93 1756.81 L2921.37 1756.81 L2921.37 1753.47 L2927.80 1753.47 L2927.80 1750.25 L2934.24 1750.25 L2934.24 1749.14 L2940.67 1749.14 L2940.67 1746.29 L2947.11 1746.29 L2947.11 1741.71 L2953.66 1741.71 L2953.66 1733.54 L2960.10 1733.54 L2960.10 1728.47 L2966.53 1728.47 L2966.53 1724.39 L2972.97 1724.39 L2972.97 1713.87 L2979.41 1713.87 L2979.41 1711.89 L2985.84 1711.89 L2985.84 1709.91 L2992.40 1709.91 L2992.40 1704.96 L2998.83 1704.96 L2998.83 1702.73 L3005.27 1702.73 L3005.27 1699.76 L3011.70 1699.76 L3011.70 1695.92 L3018.14 1695.92 L3018.14 1691.22 L3024.57 1691.22 L3024.57 1689.36 L3031.13 1689.36 L3031.13 1687.38 L3037.57 1687.38 L3037.57 1675.87 L3044.00 1675.87 L3044.00 1667.46 L3050.44 1667.46 L3050.44 1655.70 L3056.87 1655.70 L3056.87 1643.95 L3063.31 1643.95 L3063.31 1633.06 L3069.74 1633.06 L3069.74 1627.61 L3076.30 1627.61 L3076.30 1622.29 L3082.74 1622.29 L3082.74 1615.24 L3089.17 1615.24 L3089.17 1608.06 L3095.61 1608.06 L3095.61 1600.39 L3102.04 1600.39 L3102.04 1593.95 L3108.48 1593.95 L3108.48 1584.17 L3115.03 1584.17 L3115.03 1579.47 L3121.47 1579.47 L3121.47 1576.25 L3127.91 1576.25 L3127.91 1568.09 L3134.34 1568.09 L3134.34 1560.54 L3140.78 1560.54 L3140.78 1553.48 L3147.21 1553.48 L3147.21 1546.80 L3153.77 1546.80 L3153.77 1538.38 L3160.20 1538.38 L3160.20 1533.19 L3166.64 1533.19 L3166.64 1528.61 L3173.07 1528.61 L3173.07 1521.18 L3179.51 1521.18 L3179.51 1515.49 L3185.94 1515.49 L3185.94 1508.44 L3192.38 1508.44 L3192.38 1500.89 L3198.94 1500.89 L3198.94 1496.31 L3205.37 1496.31 L3205.37 1491.36 L3211.81 1491.36 L3211.81 1486.90 L3218.24 1486.90 L3218.24 1483.56 L3224.68 1483.56 L3224.68 1476.14 L3231.11 1476.14 L3231.11 1471.19 L3237.67 1471.19 L3237.67 1466.98 L3244.11 1466.98 L3244.11 1462.15 L3250.54 1462.15 L3250.54 1458.56 L3256.98 1458.56 L3256.98 1455.84 L3263.41 1455.84 L3263.41 1452.00 L3269.85 1452.00 L3269.85 1446.44 L3276.41 1446.44 L3276.41 1441.98 L3282.84 1441.98 L3282.84 1437.28 L3289.28 1437.28 L3289.28 1432.70 L3295.71 1432.70 L3295.71 1430.22 L3302.14 1430.22 L3302.14 1426.02 L3308.58 1426.02 L3308.58 1422.30 L3315.01 1422.30 L3315.01 1415.50 L3321.57 1415.50 L3321.57 1410.67 L3328.01 1410.67 L3328.01 1404.73 L3334.44 1404.73 L3334.44 1403.12 L3340.88 1403.12 L3340.88 1397.55 L3347.31 1397.55 L3347.31 1393.96 L3353.75 1393.96 L3353.75 1387.78 L3360.31 1387.78 L3360.31 1381.59 L3366.74 1381.59 L3366.74 1376.39 L3373.18 1376.39 L3373.18 1371.81 L3379.61 1371.81 L3379.61 1365.13 L3386.05 1365.13 L3386.05 1360.43 L3392.48 1360.43 L3392.48 1356.84 L3399.04 1356.84 L3399.04 1351.76 L3405.48 1351.76 L3405.48 1345.20 L3411.91 1345.20 L3411.91 1342.61 L3418.35 1342.61 L3418.35 1337.53 L3424.78 1337.53 L3424.78 1332.95 L3431.22 1332.95 L3431.22 1328.99 L3437.65 1328.99 L3437.65 1326.02 L3444.21 1326.02 L3444.21 1322.56 L3450.64 1322.56 L3450.64 1317.73 L3457.08 1317.73 L3457.08 1313.65 L3463.51 1313.65 L3463.51 1308.94 L3469.95 1308.94 L3469.95 1306.96 L3476.39 1306.96 L3476.39 1303.99 L3482.94 1303.99 L3482.94 1302.63 L3489.38 1302.63 L3489.38 1300.16 L3495.81 1300.16 L3495.81 1294.34 L3502.25 1294.34 L3502.25 1289.14 L3508.68 1289.14 L3508.68 1285.80 L3515.12 1285.80 L3515.12 1282.96 L3521.55 1282.96 L3521.55 1278.25 L3528.11 1278.25 L3528.11 1276.64 L3534.55 1276.64 L3534.55 1274.42 L3540.98 1274.42 L3540.98 1270.21 L3547.42 1270.21 L3547.42 1265.63 L3553.85 1265.63 L3553.85 1260.56 L3560.29 1260.56 L3560.29 1256.35 L3566.85 1256.35 L3566.85 1252.64 L3573.28 1252.64 L3573.28 1250.04 L3579.72 1250.04 L3579.72 1246.20 L3586.15 1246.20 L3586.15 1240.14 L3592.59 1240.14 L3592.59 1237.17 L3599.02 1237.17 L3599.02 1233.33 L3605.58 1233.33 L3605.58 1229.12 L3612.01 1229.12 L3612.01 1224.30 L3618.45 1224.30 L3618.45 1223.18 L3624.89 1223.18 L3624.89 1220.96 L3631.32 1220.96 L3631.32 1216.13 L3637.76 1216.13 L3637.76 1211.55 L3644.19 1211.55 L3644.19 1206.85 L3650.75 1206.85 L3650.75 1202.89 L3657.18 1202.89 L3657.18 1201.53 L3663.62 1201.53 L3663.62 1197.07 L3670.05 1197.07 L3670.05 1193.11" stroke-linejoin="round" style="fill:none;stroke:#90353B;stroke-width:6.48"/>
	<path d=" M2488.86 1825.99 L2495.30 1825.99 L2495.30 1825.99 L2501.85 1825.99 L2501.85 1825.99 L2508.29 1825.99 L2508.29 1825.99 L2514.72 1825.99 L2514.72 1825.99 L2521.16 1825.99 L2521.16 1825.99 L2527.59 1825.99 L2527.59 1825.99 L2534.03 1825.99 L2534.03 1825.99 L2540.59 1825.99 L2540.59 1825.99 L2547.02 1825.99 L2547.02 1825.99 L2553.46 1825.99 L2553.46 1825.99 L2559.89 1825.99 L2559.89 1825.99 L2566.33 1825.99 L2566.33 1825.99 L2572.76 1825.99 L2572.76 1825.99 L2579.20 1825.99 L2579.20 1825.99 L2585.76 1825.99 L2585.76 1825.86 L2592.19 1825.86 L2592.19 1825.86 L2605.06 1825.86 L2605.06 1825.86 L2617.93 1825.86 L2617.93 1825.62 L2624.49 1825.62 L2624.49 1825.62 L2630.93 1825.62 L2630.93 1825.62 L2637.36 1825.62 L2637.36 1825.62 L2643.80 1825.62 L2643.80 1825.62 L2650.23 1825.62 L2650.23 1825.62 L2656.66 1825.62 L2656.66 1825.62 L2663.22 1825.62 L2663.22 1825.62 L2669.66 1825.62 L2669.66 1822.40 L2676.09 1822.40 L2676.09 1822.40 L2682.53 1822.40 L2682.53 1822.03 L2688.96 1822.03 L2688.96 1821.78 L2695.40 1821.78 L2695.40 1821.78 L2701.83 1821.78 L2701.83 1821.29 L2708.39 1821.29 L2708.39 1821.16 L2714.83 1821.16 L2714.83 1820.91 L2721.26 1820.91 L2721.26 1820.67 L2727.70 1820.67 L2727.70 1820.42 L2734.13 1820.42 L2734.13 1820.42 L2740.57 1820.42 L2740.57 1819.80 L2747.13 1819.80 L2747.13 1819.18 L2753.56 1819.18 L2753.56 1818.93 L2760.00 1818.93 L2760.00 1818.56 L2766.43 1818.56 L2766.43 1816.46 L2772.87 1816.46 L2772.87 1814.48 L2779.30 1814.48 L2779.30 1813.24 L2785.86 1813.24 L2785.86 1811.63 L2792.30 1811.63 L2792.30 1810.64 L2798.73 1810.64 L2798.73 1809.28 L2805.16 1809.28 L2805.16 1808.04 L2811.60 1808.04 L2811.60 1805.69 L2818.03 1805.69 L2818.03 1803.59 L2824.47 1803.59 L2824.47 1799.01 L2831.03 1799.01 L2831.03 1795.79 L2837.46 1795.79 L2837.46 1790.72 L2843.90 1790.72 L2843.90 1788.74 L2850.33 1788.74 L2850.33 1786.14 L2856.77 1786.14 L2856.77 1780.82 L2863.20 1780.82 L2863.20 1775.87 L2869.76 1775.87 L2869.76 1767.08 L2876.20 1767.08 L2876.20 1759.66 L2882.63 1759.66 L2882.63 1753.22 L2889.07 1753.22 L2889.07 1748.52 L2895.50 1748.52 L2895.50 1741.84 L2901.94 1741.84 L2901.94 1734.04 L2908.50 1734.04 L2908.50 1728.10 L2914.93 1728.10 L2914.93 1721.29 L2921.37 1721.29 L2921.37 1714.98 L2927.80 1714.98 L2927.80 1711.64 L2934.24 1711.64 L2934.24 1707.06 L2940.67 1707.06 L2940.67 1702.85 L2947.11 1702.85 L2947.11 1697.66 L2953.66 1697.66 L2953.66 1685.65 L2960.10 1685.65 L2960.10 1676.49 L2966.53 1676.49 L2966.53 1668.33 L2972.97 1668.33 L2972.97 1652.36 L2979.41 1652.36 L2979.41 1649.02 L2985.84 1649.02 L2985.84 1646.17 L2992.40 1646.17 L2992.40 1637.14 L2998.83 1637.14 L2998.83 1632.68 L3005.27 1632.68 L3005.27 1627.24 L3011.70 1627.24 L3011.70 1621.05 L3018.14 1621.05 L3018.14 1614.37 L3024.57 1614.37 L3024.57 1611.89 L3031.13 1611.89 L3031.13 1609.30 L3037.57 1609.30 L3037.57 1593.21 L3044.00 1593.21 L3044.00 1577.74 L3050.44 1577.74 L3050.44 1564.00 L3056.87 1564.00 L3056.87 1552.62 L3063.31 1552.62 L3063.31 1538.63 L3069.74 1538.63 L3069.74 1532.82 L3076.30 1532.82 L3076.30 1524.90 L3082.74 1524.90 L3082.74 1515.86 L3089.17 1515.86 L3089.17 1506.70 L3095.61 1506.70 L3095.61 1495.57 L3102.04 1495.57 L3102.04 1483.93 L3108.48 1483.93 L3108.48 1476.26 L3115.03 1476.26 L3115.03 1470.20 L3121.47 1470.20 L3121.47 1465.49 L3127.91 1465.49 L3127.91 1456.09 L3134.34 1456.09 L3134.34 1447.43 L3140.78 1447.43 L3140.78 1439.26 L3147.21 1439.26 L3147.21 1431.34 L3153.77 1431.34 L3153.77 1422.80 L3160.20 1422.80 L3160.20 1415.87 L3166.64 1415.87 L3166.64 1412.40 L3173.07 1412.40 L3173.07 1402.75 L3179.51 1402.75 L3179.51 1394.21 L3185.94 1394.21 L3185.94 1387.28 L3192.38 1387.28 L3192.38 1380.23 L3198.94 1380.23 L3198.94 1373.79 L3205.37 1373.79 L3205.37 1369.71 L3211.81 1369.71 L3211.81 1367.36 L3218.24 1367.36 L3218.24 1362.78 L3224.68 1362.78 L3224.68 1355.48 L3231.11 1355.48 L3231.11 1349.54 L3237.67 1349.54 L3237.67 1345.58 L3244.11 1345.58 L3244.11 1339.02 L3250.54 1339.02 L3250.54 1336.79 L3256.98 1336.79 L3256.98 1334.93 L3263.41 1334.93 L3263.41 1330.97 L3269.85 1330.97 L3269.85 1325.28 L3276.41 1325.28 L3276.41 1319.22 L3282.84 1319.22 L3282.84 1312.53 L3289.28 1312.53 L3289.28 1307.34 L3295.71 1307.34 L3295.71 1305.23 L3302.14 1305.23 L3302.14 1301.64 L3308.58 1301.64 L3308.58 1295.08 L3315.01 1295.08 L3315.01 1287.78 L3321.57 1287.78 L3321.57 1282.71 L3328.01 1282.71 L3328.01 1275.41 L3334.44 1275.41 L3334.44 1272.31 L3340.88 1272.31 L3340.88 1266.99 L3347.31 1266.99 L3347.31 1264.89 L3353.75 1264.89 L3353.75 1257.59 L3360.31 1257.59 L3360.31 1252.76 L3366.74 1252.76 L3366.74 1246.82 L3373.18 1246.82 L3373.18 1241.13 L3379.61 1241.13 L3379.61 1236.05 L3386.05 1236.05 L3386.05 1232.59 L3392.48 1232.59 L3392.48 1229.37 L3399.04 1229.37 L3399.04 1224.42 L3405.48 1224.42 L3405.48 1219.84 L3411.91 1219.84 L3411.91 1217.74 L3418.35 1217.74 L3418.35 1214.03 L3424.78 1214.03 L3424.78 1211.06 L3431.22 1211.06 L3431.22 1206.60 L3437.65 1206.60 L3437.65 1204.00 L3444.21 1204.00 L3444.21 1202.02 L3450.64 1202.02 L3450.64 1197.32 L3457.08 1197.32 L3457.08 1193.85 L3463.51 1193.85 L3463.51 1189.15 L3469.95 1189.15 L3469.95 1186.30 L3476.39 1186.30 L3476.39 1182.22 L3482.94 1182.22 L3482.94 1178.76 L3489.38 1178.76 L3489.38 1174.92 L3495.81 1174.92 L3495.81 1172.57 L3502.25 1172.57 L3502.25 1170.59 L3508.68 1170.59 L3508.68 1167.99 L3515.12 1167.99 L3515.12 1165.27 L3521.55 1165.27 L3521.55 1161.80 L3528.11 1161.80 L3528.11 1159.70 L3534.55 1159.70 L3534.55 1157.47 L3540.98 1157.47 L3540.98 1154.50 L3547.42 1154.50 L3547.42 1150.17 L3553.85 1150.17 L3553.85 1147.20 L3560.29 1147.20 L3560.29 1145.47 L3566.85 1145.47 L3566.85 1140.64 L3573.28 1140.64 L3573.28 1137.42 L3579.72 1137.42 L3579.72 1133.83 L3586.15 1133.83 L3586.15 1130.37 L3592.59 1130.37 L3592.59 1126.41 L3599.02 1126.41 L3599.02 1123.44 L3605.58 1123.44 L3605.58 1117.87 L3612.01 1117.87 L3612.01 1114.40 L3618.45 1114.40 L3618.45 1111.19 L3624.89 1111.19 L3624.89 1107.10 L3631.32 1107.10 L3631.32 1102.52 L3637.76 1102.52 L3637.76 1099.92 L3644.19 1099.92 L3644.19 1094.11 L3650.75 1094.11 L3650.75 1090.02 L3657.18 1090.02 L3657.18 1088.04 L3663.62 1088.04 L3663.62 1084.70 L3670.05 1084.70 L3670.05 1082.23" stroke-linejoin="round" style="fill:none;stroke:#55752F;stroke-width:6.48"/>
	<path d=" M2488.86 1825.99 L2495.30 1825.99 L2495.30 1825.99 L2501.85 1825.99 L2501.85 1825.86 L2508.29 1825.86 L2508.29 1825.86 L2514.72 1825.86 L2514.72 1825.86 L2521.16 1825.86 L2521.16 1825.62 L2527.59 1825.62 L2527.59 1825.62 L2534.03 1825.62 L2534.03 1825.62 L2540.59 1825.62 L2540.59 1825.62 L2547.02 1825.62 L2547.02 1825.37 L2553.46 1825.37 L2553.46 1825.37 L2559.89 1825.37 L2559.89 1825.37 L2566.33 1825.37 L2566.33 1825.25 L2572.76 1825.25 L2572.76 1825.25 L2579.20 1825.25 L2579.20 1825.25 L2585.76 1825.25 L2585.76 1825.25 L2592.19 1825.25 L2592.19 1825.25 L2598.63 1825.25 L2598.63 1825.25 L2605.06 1825.25 L2605.06 1825.25 L2611.50 1825.25 L2611.50 1825.00 L2617.93 1825.00 L2617.93 1825.00 L2624.49 1825.00 L2624.49 1824.75 L2630.93 1824.75 L2630.93 1824.75 L2637.36 1824.75 L2637.36 1824.63 L2643.80 1824.63 L2643.80 1824.63 L2650.23 1824.63 L2650.23 1824.63 L2656.66 1824.63 L2656.66 1824.13 L2663.22 1824.13 L2663.22 1824.13 L2669.66 1824.13 L2669.66 1821.04 L2676.09 1821.04 L2676.09 1821.04 L2682.53 1821.04 L2682.53 1821.04 L2688.96 1821.04 L2688.96 1821.04 L2695.40 1821.04 L2695.40 1820.05 L2701.83 1820.05 L2701.83 1819.43 L2708.39 1819.43 L2708.39 1819.18 L2714.83 1819.18 L2714.83 1819.18 L2721.26 1819.18 L2721.26 1819.06 L2727.70 1819.06 L2727.70 1818.44 L2734.13 1818.44 L2734.13 1817.82 L2740.57 1817.82 L2740.57 1816.95 L2747.13 1816.95 L2747.13 1816.34 L2753.56 1816.34 L2753.56 1816.09 L2760.00 1816.09 L2760.00 1814.73 L2766.43 1814.73 L2766.43 1813.24 L2772.87 1813.24 L2772.87 1811.01 L2779.30 1811.01 L2779.30 1809.28 L2785.86 1809.28 L2785.86 1808.04 L2792.30 1808.04 L2792.30 1805.57 L2798.73 1805.57 L2798.73 1804.33 L2805.16 1804.33 L2805.16 1802.35 L2811.60 1802.35 L2811.60 1797.40 L2818.03 1797.40 L2818.03 1792.20 L2824.47 1792.20 L2824.47 1786.88 L2831.03 1786.88 L2831.03 1780.45 L2837.46 1780.45 L2837.46 1774.26 L2843.90 1774.26 L2843.90 1769.68 L2850.33 1769.68 L2850.33 1765.72 L2856.77 1765.72 L2856.77 1756.31 L2863.20 1756.31 L2863.20 1747.40 L2869.76 1747.40 L2869.76 1729.21 L2876.20 1729.21 L2876.20 1715.60 L2882.63 1715.60 L2882.63 1702.36 L2889.07 1702.36 L2889.07 1698.03 L2895.50 1698.03 L2895.50 1692.21 L2901.94 1692.21 L2901.94 1679.83 L2908.50 1679.83 L2908.50 1668.94 L2914.93 1668.94 L2914.93 1656.94 L2921.37 1656.94 L2921.37 1646.05 L2927.80 1646.05 L2927.80 1636.27 L2934.24 1636.27 L2934.24 1627.61 L2940.67 1627.61 L2940.67 1621.18 L2947.11 1621.18 L2947.11 1612.76 L2953.66 1612.76 L2953.66 1590.24 L2960.10 1590.24 L2960.10 1575.76 L2966.53 1575.76 L2966.53 1566.35 L2972.97 1566.35 L2972.97 1541.11 L2979.41 1541.11 L2979.41 1537.77 L2985.84 1537.77 L2985.84 1532.57 L2992.40 1532.57 L2992.40 1520.19 L2998.83 1520.19 L2998.83 1513.01 L3005.27 1513.01 L3005.27 1503.24 L3011.70 1503.24 L3011.70 1495.44 L3018.14 1495.44 L3018.14 1487.89 L3024.57 1487.89 L3024.57 1485.42 L3031.13 1485.42 L3031.13 1481.95 L3037.57 1481.95 L3037.57 1455.35 L3044.00 1455.35 L3044.00 1439.75 L3050.44 1439.75 L3050.44 1416.61 L3056.87 1416.61 L3056.87 1400.28 L3063.31 1400.28 L3063.31 1384.19 L3069.74 1384.19 L3069.74 1376.27 L3076.30 1376.27 L3076.30 1369.96 L3082.74 1369.96 L3082.74 1358.07 L3089.17 1358.07 L3089.17 1346.81 L3095.61 1346.81 L3095.61 1333.94 L3102.04 1333.94 L3102.04 1319.09 L3108.48 1319.09 L3108.48 1310.18 L3115.03 1310.18 L3115.03 1304.98 L3121.47 1304.98 L3121.47 1300.65 L3127.91 1300.65 L3127.91 1285.18 L3134.34 1285.18 L3134.34 1273.18 L3140.78 1273.18 L3140.78 1264.27 L3147.21 1264.27 L3147.21 1253.50 L3153.77 1253.50 L3153.77 1243.36 L3160.20 1243.36 L3160.20 1238.78 L3166.64 1238.78 L3166.64 1236.18 L3173.07 1236.18 L3173.07 1227.02 L3179.51 1227.02 L3179.51 1218.73 L3185.94 1218.73 L3185.94 1206.11 L3192.38 1206.11 L3192.38 1199.67 L3198.94 1199.67 L3198.94 1192.12 L3205.37 1192.12 L3205.37 1187.54 L3211.81 1187.54 L3211.81 1182.72 L3218.24 1182.72 L3218.24 1177.15 L3224.68 1177.15 L3224.68 1167.62 L3231.11 1167.62 L3231.11 1159.33 L3237.67 1159.33 L3237.67 1153.14 L3244.11 1153.14 L3244.11 1147.20 L3250.54 1147.20 L3250.54 1145.09 L3256.98 1145.09 L3256.98 1140.52 L3263.41 1140.52 L3263.41 1132.84 L3269.85 1132.84 L3269.85 1128.51 L3276.41 1128.51 L3276.41 1123.31 L3282.84 1123.31 L3282.84 1118.61 L3289.28 1118.61 L3289.28 1114.90 L3295.71 1114.90 L3295.71 1110.69 L3302.14 1110.69 L3302.14 1108.71 L3308.58 1108.71 L3308.58 1103.14 L3315.01 1103.14 L3315.01 1094.85 L3321.57 1094.85 L3321.57 1090.52 L3328.01 1090.52 L3328.01 1086.31 L3334.44 1086.31 L3334.44 1083.59 L3340.88 1083.59 L3340.88 1080.50 L3347.31 1080.50 L3347.31 1077.65 L3353.75 1077.65 L3353.75 1069.11 L3360.31 1069.11 L3360.31 1065.40 L3366.74 1065.40 L3366.74 1061.07 L3373.18 1061.07 L3373.18 1054.26 L3379.61 1054.26 L3379.61 1050.67 L3386.05 1050.67 L3386.05 1046.96 L3392.48 1046.96 L3392.48 1044.73 L3399.04 1044.73 L3399.04 1040.40 L3405.48 1040.40 L3405.48 1036.56 L3411.91 1036.56 L3411.91 1033.47 L3418.35 1033.47 L3418.35 1030.87 L3424.78 1030.87 L3424.78 1027.53 L3431.22 1027.53 L3431.22 1026.41 L3437.65 1026.41 L3437.65 1023.20 L3444.21 1023.20 L3444.21 1019.61 L3450.64 1019.61 L3450.64 1016.14 L3457.08 1016.14 L3457.08 1012.55 L3463.51 1012.55 L3463.51 1009.21 L3469.95 1009.21 L3469.95 1006.74 L3476.39 1006.74 L3476.39 1004.51 L3482.94 1004.51 L3482.94 1003.27 L3489.38 1003.27 L3489.38 1001.05 L3495.81 1001.05 L3495.81 997.83 L3502.25 997.83 L3502.25 995.23 L3508.68 995.23 L3508.68 991.52 L3515.12 991.52 L3515.12 988.92 L3521.55 988.92 L3521.55 987.06 L3528.11 987.06 L3528.11 985.08 L3534.55 985.08 L3534.55 982.61 L3540.98 982.61 L3540.98 980.25 L3547.42 980.25 L3547.42 978.15 L3553.85 978.15 L3553.85 974.69 L3560.29 974.69 L3560.29 970.48 L3566.85 970.48 L3566.85 967.01 L3573.28 967.01 L3573.28 964.29 L3579.72 964.29 L3579.72 962.06 L3586.15 962.06 L3586.15 958.84 L3592.59 958.84 L3592.59 956.25 L3599.02 956.25 L3599.02 952.29 L3605.58 952.29 L3605.58 945.85 L3612.01 945.85 L3612.01 943.13 L3618.45 943.13 L3618.45 941.64 L3624.89 941.64 L3624.89 938.80 L3631.32 938.80 L3631.32 936.69 L3637.76 936.69 L3637.76 933.85 L3644.19 933.85 L3644.19 930.51 L3650.75 930.51 L3650.75 927.54 L3657.18 927.54 L3657.18 926.55 L3663.62 926.55 L3663.62 922.96 L3670.05 922.96 L3670.05 920.48" stroke-linejoin="round" style="fill:none;stroke:#E37E00;stroke-width:6.48"/>
	<path d=" M2488.86 1825.99 L2495.30 1825.99 L2495.30 1825.99 L2501.85 1825.99 L2501.85 1825.99 L2508.29 1825.99 L2508.29 1825.99 L2514.72 1825.99 L2514.72 1825.99 L2521.16 1825.99 L2521.16 1825.99 L2527.59 1825.99 L2527.59 1825.99 L2534.03 1825.99 L2534.03 1825.99 L2540.59 1825.99 L2540.59 1825.99 L2547.02 1825.99 L2547.02 1825.99 L2553.46 1825.99 L2553.46 1825.99 L2559.89 1825.99 L2559.89 1825.99 L2566.33 1825.99 L2566.33 1825.62 L2572.76 1825.62 L2572.76 1825.62 L2579.20 1825.62 L2579.20 1825.62 L2585.76 1825.62 L2585.76 1825.62 L2592.19 1825.62 L2592.19 1825.62 L2598.63 1825.62 L2598.63 1825.62 L2605.06 1825.62 L2605.06 1825.62 L2611.50 1825.62 L2611.50 1825.62 L2617.93 1825.62 L2617.93 1825.62 L2624.49 1825.62 L2624.49 1825.62 L2630.93 1825.62 L2630.93 1825.62 L2637.36 1825.62 L2637.36 1825.62 L2643.80 1825.62 L2643.80 1825.62 L2650.23 1825.62 L2650.23 1825.62 L2656.66 1825.62 L2656.66 1825.62 L2663.22 1825.62 L2663.22 1825.62 L2669.66 1825.62 L2669.66 1822.65 L2676.09 1822.65 L2676.09 1822.65 L2682.53 1822.65 L2682.53 1822.65 L2688.96 1822.65 L2688.96 1822.65 L2695.40 1822.65 L2695.40 1822.28 L2701.83 1822.28 L2701.83 1821.90 L2708.39 1821.90 L2708.39 1821.90 L2714.83 1821.90 L2714.83 1821.90 L2721.26 1821.90 L2721.26 1821.90 L2727.70 1821.90 L2727.70 1821.90 L2734.13 1821.90 L2734.13 1821.90 L2740.57 1821.90 L2740.57 1821.41 L2747.13 1821.41 L2747.13 1819.31 L2753.56 1819.31 L2753.56 1818.93 L2760.00 1818.93 L2760.00 1815.96 L2766.43 1815.96 L2766.43 1814.36 L2772.87 1814.36 L2772.87 1813.98 L2779.30 1813.98 L2779.30 1811.88 L2785.86 1811.88 L2785.86 1808.91 L2792.30 1808.91 L2792.30 1805.57 L2798.73 1805.57 L2798.73 1803.09 L2805.16 1803.09 L2805.16 1801.36 L2811.60 1801.36 L2811.60 1797.65 L2818.03 1797.65 L2818.03 1793.07 L2824.47 1793.07 L2824.47 1785.15 L2831.03 1785.15 L2831.03 1777.11 L2837.46 1777.11 L2837.46 1770.42 L2843.90 1770.42 L2843.90 1763.37 L2850.33 1763.37 L2850.33 1757.92 L2856.77 1757.92 L2856.77 1744.93 L2863.20 1744.93 L2863.20 1734.91 L2869.76 1734.91 L2869.76 1718.57 L2876.20 1718.57 L2876.20 1704.83 L2882.63 1704.83 L2882.63 1686.89 L2889.07 1686.89 L2889.07 1676.00 L2895.50 1676.00 L2895.50 1665.11 L2901.94 1665.11 L2901.94 1639.61 L2908.50 1639.61 L2908.50 1625.38 L2914.93 1625.38 L2914.93 1610.78 L2921.37 1610.78 L2921.37 1598.65 L2927.80 1598.65 L2927.80 1583.93 L2934.24 1583.93 L2934.24 1574.77 L2940.67 1574.77 L2940.67 1571.06 L2947.11 1571.06 L2947.11 1563.51 L2953.66 1563.51 L2953.66 1541.73 L2960.10 1541.73 L2960.10 1522.54 L2966.53 1522.54 L2966.53 1510.42 L2972.97 1510.42 L2972.97 1475.64 L2979.41 1475.64 L2979.41 1473.04 L2985.84 1473.04 L2985.84 1469.33 L2992.40 1469.33 L2992.40 1454.73 L2998.83 1454.73 L2998.83 1446.31 L3005.27 1446.31 L3005.27 1437.03 L3011.70 1437.03 L3011.70 1429.48 L3018.14 1429.48 L3018.14 1416.98 L3024.57 1416.98 L3024.57 1410.30 L3031.13 1410.30 L3031.13 1407.33 L3037.57 1407.33 L3037.57 1384.68 L3044.00 1384.68 L3044.00 1370.95 L3050.44 1370.95 L3050.44 1358.32 L3056.87 1358.32 L3056.87 1343.22 L3063.31 1343.22 L3063.31 1324.41 L3069.74 1324.41 L3069.74 1315.63 L3076.30 1315.63 L3076.30 1309.32 L3082.74 1309.32 L3082.74 1295.58 L3089.17 1295.58 L3089.17 1279.61 L3095.61 1279.61 L3095.61 1264.15 L3102.04 1264.15 L3102.04 1246.57 L3108.48 1246.57 L3108.48 1238.16 L3115.03 1238.16 L3115.03 1232.71 L3121.47 1232.71 L3121.47 1226.40 L3127.91 1226.40 L3127.91 1217.61 L3134.34 1217.61 L3134.34 1205.86 L3140.78 1205.86 L3140.78 1191.63 L3147.21 1191.63 L3147.21 1178.63 L3153.77 1178.63 L3153.77 1168.98 L3160.20 1168.98 L3160.20 1164.03 L3166.64 1164.03 L3166.64 1161.93 L3173.07 1161.93 L3173.07 1151.78 L3179.51 1151.78 L3179.51 1140.89 L3185.94 1140.89 L3185.94 1132.60 L3192.38 1132.60 L3192.38 1124.18 L3198.94 1124.18 L3198.94 1114.90 L3205.37 1114.90 L3205.37 1111.19 L3211.81 1111.19 L3211.81 1108.71 L3218.24 1108.71 L3218.24 1104.87 L3224.68 1104.87 L3224.68 1096.09 L3231.11 1096.09 L3231.11 1089.78 L3237.67 1089.78 L3237.67 1080.62 L3244.11 1080.62 L3244.11 1074.31 L3250.54 1074.31 L3250.54 1070.47 L3256.98 1070.47 L3256.98 1067.50 L3263.41 1067.50 L3263.41 1056.61 L3269.85 1056.61 L3269.85 1050.79 L3276.41 1050.79 L3276.41 1046.59 L3282.84 1046.59 L3282.84 1042.38 L3289.28 1042.38 L3289.28 1039.90 L3295.71 1039.90 L3295.71 1036.56 L3302.14 1036.56 L3302.14 1031.86 L3308.58 1031.86 L3308.58 1027.28 L3315.01 1027.28 L3315.01 1019.36 L3321.57 1019.36 L3321.57 1014.78 L3328.01 1014.78 L3328.01 1007.60 L3334.44 1007.60 L3334.44 1005.13 L3340.88 1005.13 L3340.88 1003.40 L3347.31 1003.40 L3347.31 999.68 L3353.75 999.68 L3353.75 995.48 L3360.31 995.48 L3360.31 992.88 L3366.74 992.88 L3366.74 985.82 L3373.18 985.82 L3373.18 982.36 L3379.61 982.36 L3379.61 977.41 L3386.05 977.41 L3386.05 976.17 L3392.48 976.17 L3392.48 974.07 L3399.04 974.07 L3399.04 971.47 L3405.48 971.47 L3405.48 968.50 L3411.91 968.50 L3411.91 965.16 L3418.35 965.16 L3418.35 963.55 L3424.78 963.55 L3424.78 958.84 L3431.22 958.84 L3431.22 958.10 L3437.65 958.10 L3437.65 958.10 L3444.21 958.10 L3444.21 953.89 L3450.64 953.89 L3450.64 950.55 L3457.08 950.55 L3457.08 945.48 L3463.51 945.48 L3463.51 943.38 L3469.95 943.38 L3469.95 939.17 L3476.39 939.17 L3476.39 935.33 L3482.94 935.33 L3482.94 933.72 L3489.38 933.72 L3489.38 930.75 L3495.81 930.75 L3495.81 929.52 L3502.25 929.52 L3502.25 925.31 L3508.68 925.31 L3508.68 922.34 L3515.12 922.34 L3515.12 919.86 L3521.55 919.86 L3521.55 918.62 L3528.11 918.62 L3528.11 916.52 L3534.55 916.52 L3534.55 914.42 L3540.98 914.42 L3540.98 910.21 L3547.42 910.21 L3547.42 908.97 L3553.85 908.97 L3553.85 906.37 L3560.29 906.37 L3560.29 903.90 L3566.85 903.90 L3566.85 900.06 L3573.28 900.06 L3573.28 898.82 L3579.72 898.82 L3579.72 893.75 L3586.15 893.75 L3586.15 889.54 L3592.59 889.54 L3592.59 887.44 L3599.02 887.44 L3599.02 883.73 L3605.58 883.73 L3605.58 877.41 L3612.01 877.41 L3612.01 875.31 L3618.45 875.31 L3618.45 874.07 L3624.89 874.07 L3624.89 873.21 L3631.32 873.21 L3631.32 870.24 L3637.76 870.24 L3637.76 869.00 L3644.19 869.00 L3644.19 866.03 L3650.75 866.03 L3650.75 862.69 L3657.18 862.69 L3657.18 861.82 L3663.62 861.82 L3663.62 858.85 L3670.05 858.85 L3670.05 855.88" stroke-linejoin="round" style="fill:none;stroke:#6E8E84;stroke-width:6.48"/>
	<line x1="2435.03" y1="1873.51" x2="2435.03" y2="414.45" style="stroke:#000000;stroke-width:4.32"/>
	<line x1="2435.03" y1="1825.99" x2="2404.96" y2="1825.99" style="stroke:#000000;stroke-width:4.32"/>
	<text x="2389.98" y="1852.27" style="font-family:'Helvetica';font-size:74.99px;fill:#000000" text-anchor="end">0.000</text>
	<line x1="2435.03" y1="1553.11" x2="2404.96" y2="1553.11" style="stroke:#000000;stroke-width:4.32"/>
	<text x="2389.98" y="1579.39" style="font-family:'Helvetica';font-size:74.99px;fill:#000000" text-anchor="end">0.001</text>
	<line x1="2435.03" y1="1280.36" x2="2404.96" y2="1280.36" style="stroke:#000000;stroke-width:4.32"/>
	<text x="2389.98" y="1306.64" style="font-family:'Helvetica';font-size:74.99px;fill:#000000" text-anchor="end">0.002</text>
	<line x1="2435.03" y1="1007.60" x2="2404.96" y2="1007.60" style="stroke:#000000;stroke-width:4.32"/>
	<text x="2389.98" y="1033.88" style="font-family:'Helvetica';font-size:74.99px;fill:#000000" text-anchor="end">0.003</text>
	<line x1="2435.03" y1="734.73" x2="2404.96" y2="734.73" style="stroke:#000000;stroke-width:4.32"/>
	<text x="2389.98" y="761.01" style="font-family:'Helvetica';font-size:74.99px;fill:#000000" text-anchor="end">0.004</text>
	<line x1="2435.03" y1="461.97" x2="2404.96" y2="461.97" style="stroke:#000000;stroke-width:4.32"/>
	<text x="2389.98" y="488.25" style="font-family:'Helvetica';font-size:74.99px;fill:#000000" text-anchor="end">0.005</text>
	<line x1="2435.03" y1="1873.51" x2="3820.91" y2="1873.51" style="stroke:#000000;stroke-width:4.32"/>
	<line x1="2482.55" y1="1873.51" x2="2482.55" y2="1903.46" style="stroke:#000000;stroke-width:4.32"/>
	<text x="2482.55" y="1970.87" style="font-family:'Helvetica';font-size:74.99px;fill:#000000" text-anchor="middle">1 Feb 20</text>
	<line x1="2669.66" y1="1873.51" x2="2669.66" y2="1903.46" style="stroke:#000000;stroke-width:4.32"/>
	<text x="2669.66" y="1970.87" style="font-family:'Helvetica';font-size:74.99px;fill:#000000" text-anchor="middle">1 Mar 20</text>
	<line x1="2869.76" y1="1873.51" x2="2869.76" y2="1903.46" style="stroke:#000000;stroke-width:4.32"/>
	<text x="2869.76" y="1970.87" style="font-family:'Helvetica';font-size:74.99px;fill:#000000" text-anchor="middle">1 Apr 20</text>
	<line x1="3069.87" y1="1873.51" x2="3069.87" y2="1903.46" style="stroke:#000000;stroke-width:4.32"/>
	<text x="3069.87" y="1970.87" style="font-family:'Helvetica';font-size:74.99px;fill:#000000" text-anchor="middle">1 May 20</text>
	<line x1="3263.53" y1="1873.51" x2="3263.53" y2="1903.46" style="stroke:#000000;stroke-width:4.32"/>
	<text x="3263.53" y="1970.87" style="font-family:'Helvetica';font-size:74.99px;fill:#000000" text-anchor="middle">1 June 20</text>
	<line x1="3457.08" y1="1873.51" x2="3457.08" y2="1903.46" style="stroke:#000000;stroke-width:4.32"/>
	<text x="3457.08" y="1970.87" style="font-family:'Helvetica';font-size:74.99px;fill:#000000" text-anchor="middle">1 July 20</text>
	<line x1="3657.18" y1="1873.51" x2="3657.18" y2="1903.46" style="stroke:#000000;stroke-width:4.32"/>
	<text x="3657.18" y="1970.87" style="font-family:'Helvetica';font-size:74.99px;fill:#000000" text-anchor="middle">1 Aug 20</text>
	<text x="3127.91" y="2053.41" style="font-family:'Helvetica';font-size:74.99px;fill:#000000" text-anchor="middle">Days since 1 Feb 2020</text>
	<text x="3127.91" y="369.91" style="font-family:'Helvetica';font-size:104.94px;fill:#1E2D53" text-anchor="middle">Male</text>
	<text x="150.62" y="1187.29" style="font-family:'Helvetica';font-size:99.99px;fill:#000000" transform="rotate(-90 150.62,1187.29)" text-anchor="middle">Cumulative probability</text>
	<text x="250.61" y="1187.29" style="font-family:'Helvetica';font-size:99.99px;fill:#000000" transform="rotate(-90 250.61,1187.29)" text-anchor="middle">TPP Covid-19 case</text>
	<text x="2097.19" y="157.51" style="font-family:'Helvetica';font-size:110.01px;fill:#000000" text-anchor="middle"> </text>
	<rect x="1151.12" y="2201.21" width="1892.26" height="580.90" style="fill:#FFFFFF"/>
	<rect x="1154.00" y="2204.09" width="1886.50" height="575.14" style="fill:none;stroke:#000000;stroke-width:5.76"/>
	<line x1="1194.31" y1="2408.87" x2="1568.65" y2="2408.87" style="stroke:#1A476F;stroke-width:8.64"/>
	<line x1="1194.31" y1="2548.83" x2="1568.65" y2="2548.83" style="stroke:#90353B;stroke-width:8.64"/>
	<line x1="1194.31" y1="2688.92" x2="1568.65" y2="2688.92" style="stroke:#55752F;stroke-width:8.64"/>
	<line x1="2004.26" y1="2408.87" x2="2378.60" y2="2408.87" style="stroke:#E37E00;stroke-width:8.64"/>
	<line x1="2004.26" y1="2548.83" x2="2378.60" y2="2548.83" style="stroke:#6E8E84;stroke-width:8.64"/>
	<text x="1628.67" y="2436.88" style="font-family:'Helvetica';font-size:79.94px;fill:#000000">18-&lt;30</text>
	<text x="1628.67" y="2576.85" style="font-family:'Helvetica';font-size:79.94px;fill:#000000">30-&lt;40</text>
	<text x="1628.67" y="2716.94" style="font-family:'Helvetica';font-size:79.94px;fill:#000000">40-&lt;50</text>
	<text x="2438.62" y="2436.88" style="font-family:'Helvetica';font-size:79.94px;fill:#000000">50-&lt;60</text>
	<text x="2438.62" y="2576.85" style="font-family:'Helvetica';font-size:79.94px;fill:#000000">60-&lt;70</text>
	<text x="2438.62" y="2716.94" style="font-family:'Helvetica';font-size:79.94px;fill:#000000">70-&lt;80</text>
	<text x="2874.22" y="2436.88" style="font-family:'Helvetica';font-size:79.94px;fill:#000000">80+</text>
	<text x="2097.19" y="2308.96" style="font-family:'Helvetica';font-size:79.94px;fill:#000000" text-anchor="middle">Age group</text>
</svg>
