<?xml version="1.0" encoding="UTF-8" standalone="no"?>
<!-- This is a Stata 16.1 generated SVG file (http://www.stata.com) -->

<svg version="1.1" width="5.50in" height="4.00in" viewBox="0 0 3960 2880" xmlns="http://www.w3.org/2000/svg" xmlns:xlink="http://www.w3.org/1999/xlink">
	<desc>Stata Graph - Graph</desc>
	<rect x="0" y="0" width="3960" height="2880" style="fill:#EAF2F3;stroke:none"/>
	<rect x="0.00" y="0.00" width="3959.88" height="2880.00" style="fill:#EAF2F3"/>
	<rect x="2.88" y="2.88" width="3954.12" height="2874.24" style="fill:none;stroke:#EAF2F3;stroke-width:5.76"/>
	<rect x="297.87" y="207.91" width="1799.32" height="1958.65" style="fill:#EAF2F3"/>
	<rect x="300.03" y="210.07" width="1795.01" height="1954.33" style="fill:none;stroke:#EAF2F3;stroke-width:4.32"/>
	<rect x="635.70" y="414.45" width="1385.88" height="1459.06" style="fill:#FFFFFF"/>
	<rect x="637.86" y="416.61" width="1381.56" height="1454.74" style="fill:none;stroke:#FFFFFF;stroke-width:4.32"/>
	<line x1="635.70" y1="1825.99" x2="2021.58" y2="1825.99" style="stroke:#EAF2F3;stroke-width:6.48"/>
	<line x1="635.70" y1="1633.80" x2="2021.58" y2="1633.80" style="stroke:#EAF2F3;stroke-width:6.48"/>
	<line x1="635.70" y1="1441.49" x2="2021.58" y2="1441.49" style="stroke:#EAF2F3;stroke-width:6.48"/>
	<line x1="635.70" y1="1249.30" x2="2021.58" y2="1249.30" style="stroke:#EAF2F3;stroke-width:6.48"/>
	<line x1="635.70" y1="1057.11" x2="2021.58" y2="1057.11" style="stroke:#EAF2F3;stroke-width:6.48"/>
	<line x1="635.70" y1="864.92" x2="2021.58" y2="864.92" style="stroke:#EAF2F3;stroke-width:6.48"/>
	<path d=" M689.53 1825.99 L696.09 1825.99 L696.09 1825.99 L702.53 1825.99 L702.53 1825.99 L708.96 1825.99 L708.96 1825.99 L715.40 1825.99 L715.40 1825.99 L721.83 1825.99 L721.83 1825.99 L728.27 1825.99 L728.27 1825.99 L734.83 1825.99 L734.83 1825.99 L741.26 1825.99 L741.26 1825.99 L747.70 1825.99 L747.70 1825.99 L754.13 1825.99 L754.13 1825.99 L760.57 1825.99 L760.57 1825.99 L767.00 1825.99 L767.00 1825.99 L773.56 1825.99 L773.56 1825.99 L786.43 1825.99 L786.43 1825.99 L792.87 1825.99 L792.87 1825.12 L799.30 1825.12 L799.30 1825.12 L805.74 1825.12 L805.74 1825.12 L812.17 1825.12 L812.17 1825.12 L818.73 1825.12 L818.73 1825.12 L825.16 1825.12 L825.16 1825.12 L831.60 1825.12 L831.60 1825.12 L838.03 1825.12 L838.03 1825.12 L844.47 1825.12 L844.47 1825.12 L850.90 1825.12 L850.90 1825.12 L857.46 1825.12 L857.46 1825.12 L863.90 1825.12 L863.90 1825.12 L870.33 1825.12 L870.33 1824.13 L876.77 1824.13 L876.77 1823.64 L883.20 1823.64 L883.20 1823.64 L889.64 1823.64 L889.64 1823.64 L896.20 1823.64 L896.20 1823.64 L902.63 1823.64 L902.63 1823.64 L909.07 1823.64 L909.07 1823.64 L915.50 1823.64 L915.50 1823.64 L921.94 1823.64 L921.94 1823.27 L928.37 1823.27 L928.37 1823.27 L934.81 1823.27 L934.81 1823.27 L941.37 1823.27 L941.37 1823.27 L947.80 1823.27 L947.80 1822.28 L954.24 1822.28 L954.24 1822.28 L960.67 1822.28 L960.67 1819.92 L967.11 1819.92 L967.11 1818.07 L973.54 1818.07 L973.54 1816.21 L980.10 1816.21 L980.10 1814.23 L986.53 1814.23 L986.53 1812.38 L992.97 1812.38 L992.97 1811.51 L999.40 1811.51 L999.40 1811.51 L1005.84 1811.51 L1005.84 1811.01 L1012.27 1811.01 L1012.27 1810.02 L1018.71 1810.02 L1018.71 1807.67 L1025.27 1807.67 L1025.27 1803.96 L1031.70 1803.96 L1031.70 1796.91 L1038.14 1796.91 L1038.14 1793.56 L1044.57 1793.56 L1044.57 1792.20 L1051.01 1792.20 L1051.01 1787.01 L1057.44 1787.01 L1057.44 1777.97 L1064.00 1777.97 L1064.00 1774.75 L1070.44 1774.75 L1070.44 1762.50 L1076.87 1762.50 L1076.87 1756.31 L1083.31 1756.31 L1083.31 1743.69 L1089.74 1743.69 L1089.74 1740.35 L1096.18 1740.35 L1096.18 1737.50 L1102.74 1737.50 L1102.74 1729.46 L1109.17 1729.46 L1109.17 1715.85 L1115.61 1715.85 L1115.61 1709.78 L1122.04 1709.78 L1122.04 1702.23 L1128.48 1702.23 L1128.48 1695.55 L1134.91 1695.55 L1134.91 1690.85 L1141.35 1690.85 L1141.35 1686.64 L1147.90 1686.64 L1147.90 1680.95 L1154.34 1680.95 L1154.34 1662.63 L1160.78 1662.63 L1160.78 1645.68 L1167.21 1645.68 L1167.21 1641.47 L1173.64 1641.47 L1173.64 1619.32 L1180.08 1619.32 L1180.08 1616.97 L1186.64 1616.97 L1186.64 1614.99 L1193.07 1614.99 L1193.07 1604.59 L1199.51 1604.59 L1199.51 1601.38 L1205.94 1601.38 L1205.94 1596.67 L1212.38 1596.67 L1212.38 1590.98 L1218.81 1590.98 L1218.81 1585.78 L1225.37 1585.78 L1225.37 1585.29 L1231.81 1585.29 L1231.81 1583.93 L1238.24 1583.93 L1238.24 1572.17 L1244.68 1572.17 L1244.68 1562.64 L1251.11 1562.64 L1251.11 1553.73 L1257.55 1553.73 L1257.55 1548.04 L1263.98 1548.04 L1263.98 1538.63 L1270.54 1538.63 L1270.54 1535.79 L1276.98 1535.79 L1276.98 1535.29 L1283.41 1535.29 L1283.41 1532.07 L1289.85 1532.07 L1289.85 1528.24 L1296.28 1528.24 L1296.28 1520.69 L1302.72 1520.69 L1302.72 1515.12 L1309.28 1515.12 L1309.28 1511.78 L1315.71 1511.78 L1315.71 1509.92 L1322.14 1509.92 L1322.14 1507.94 L1328.58 1507.94 L1328.58 1503.24 L1335.02 1503.24 L1335.02 1492.84 L1341.45 1492.84 L1341.45 1486.28 L1348.01 1486.28 L1348.01 1482.57 L1354.44 1482.57 L1354.44 1477.74 L1360.88 1477.74 L1360.88 1475.89 L1367.31 1475.89 L1367.31 1475.39 L1373.75 1475.39 L1373.75 1469.33 L1380.18 1469.33 L1380.18 1464.63 L1386.62 1464.63 L1386.62 1458.93 L1393.18 1458.93 L1393.18 1456.09 L1399.61 1456.09 L1399.61 1452.25 L1406.05 1452.25 L1406.05 1451.39 L1412.48 1451.39 L1412.48 1450.89 L1418.92 1450.89 L1418.92 1449.03 L1425.35 1449.03 L1425.35 1446.19 L1431.91 1446.19 L1431.91 1444.33 L1438.35 1444.33 L1438.35 1442.85 L1444.78 1442.85 L1444.78 1439.63 L1451.22 1439.63 L1451.22 1437.15 L1457.65 1437.15 L1457.65 1436.29 L1464.09 1436.29 L1464.09 1429.23 L1470.64 1429.23 L1470.64 1424.41 L1477.08 1424.41 L1477.08 1421.68 L1483.52 1421.68 L1483.52 1414.14 L1489.95 1414.14 L1489.95 1409.80 L1496.38 1409.80 L1496.38 1408.94 L1502.82 1408.94 L1502.82 1408.44 L1509.26 1408.44 L1509.26 1406.46 L1515.81 1406.46 L1515.81 1402.75 L1522.25 1402.75 L1522.25 1397.55 L1528.68 1397.55 L1528.68 1395.70 L1535.12 1395.70 L1535.12 1392.85 L1541.55 1392.85 L1541.55 1391.86 L1547.99 1391.86 L1547.99 1390.50 L1554.55 1390.50 L1554.55 1386.17 L1560.98 1386.17 L1560.98 1383.82 L1567.42 1383.82 L1567.42 1380.97 L1573.85 1380.97 L1573.85 1379.61 L1580.29 1379.61 L1580.29 1377.26 L1586.72 1377.26 L1586.72 1375.40 L1593.28 1375.40 L1593.28 1373.42 L1599.72 1373.42 L1599.72 1371.07 L1606.15 1371.07 L1606.15 1369.21 L1612.59 1369.21 L1612.59 1367.36 L1619.02 1367.36 L1619.02 1366.37 L1625.46 1366.37 L1625.46 1364.51 L1631.89 1364.51 L1631.89 1364.51 L1638.45 1364.51 L1638.45 1363.52 L1644.88 1363.52 L1644.88 1360.67 L1651.32 1360.67 L1651.32 1356.96 L1657.76 1356.96 L1657.76 1354.11 L1664.19 1354.11 L1664.19 1351.76 L1670.63 1351.76 L1670.63 1351.27 L1677.18 1351.27 L1677.18 1350.77 L1683.62 1350.77 L1683.62 1350.28 L1690.05 1350.28 L1690.05 1348.42 L1696.49 1348.42 L1696.49 1346.57 L1702.92 1346.57 L1702.92 1344.59 L1709.36 1344.59 L1709.36 1343.22 L1715.92 1343.22 L1715.92 1343.22 L1722.35 1343.22 L1722.35 1342.73 L1728.79 1342.73 L1728.79 1342.73 L1735.22 1342.73 L1735.22 1341.37 L1741.66 1341.37 L1741.66 1340.38 L1748.09 1340.38 L1748.09 1335.18 L1754.53 1335.18 L1754.53 1333.82 L1761.09 1333.82 L1761.09 1331.84 L1767.52 1331.84 L1767.52 1330.97 L1780.39 1330.97 L1780.39 1328.99 L1786.83 1328.99 L1786.83 1325.65 L1793.26 1325.65 L1793.26 1325.28 L1799.82 1325.28 L1799.82 1323.80 L1806.26 1323.80 L1806.26 1321.94 L1812.69 1321.94 L1812.69 1320.95 L1819.13 1320.95 L1819.13 1320.08 L1825.56 1320.08 L1825.56 1319.09 L1831.99 1319.09 L1831.99 1316.74 L1838.43 1316.74 L1838.43 1314.88 L1844.99 1314.88 L1844.99 1313.40 L1851.42 1313.40 L1851.42 1311.54 L1864.29 1311.54 L1864.29 1310.55 L1870.73 1310.55 L1870.73 1309.19" stroke-linejoin="round" style="fill:none;stroke:#1A476F;stroke-width:6.48"/>
	<path d=" M689.53 1825.99 L696.09 1825.99 L696.09 1825.99 L702.53 1825.99 L702.53 1825.99 L708.96 1825.99 L708.96 1825.99 L715.40 1825.99 L715.40 1825.99 L721.83 1825.99 L721.83 1825.99 L728.27 1825.99 L728.27 1825.99 L734.83 1825.99 L734.83 1825.99 L741.26 1825.99 L741.26 1825.99 L747.70 1825.99 L747.70 1825.99 L754.13 1825.99 L754.13 1825.99 L760.57 1825.99 L760.57 1825.99 L767.00 1825.99 L767.00 1825.99 L773.56 1825.99 L773.56 1825.99 L780.00 1825.99 L780.00 1825.86 L786.43 1825.86 L786.43 1825.86 L792.87 1825.86 L792.87 1825.62 L799.30 1825.62 L799.30 1825.62 L805.74 1825.62 L805.74 1825.62 L812.17 1825.62 L812.17 1825.62 L818.73 1825.62 L818.73 1825.62 L825.16 1825.62 L825.16 1825.62 L831.60 1825.62 L831.60 1825.62 L838.03 1825.62 L838.03 1825.62 L844.47 1825.62 L844.47 1825.62 L850.90 1825.62 L850.90 1825.62 L857.46 1825.62 L857.46 1825.62 L863.90 1825.62 L863.90 1825.37 L870.33 1825.37 L870.33 1823.02 L876.77 1823.02 L876.77 1823.02 L883.20 1823.02 L883.20 1823.02 L889.64 1823.02 L889.64 1823.02 L896.20 1823.02 L896.20 1822.89 L902.63 1822.89 L902.63 1822.40 L909.07 1822.40 L909.07 1822.40 L915.50 1822.40 L915.50 1822.15 L921.94 1822.15 L921.94 1821.78 L928.37 1821.78 L928.37 1821.78 L934.81 1821.78 L934.81 1821.41 L941.37 1821.41 L941.37 1820.67 L947.80 1820.67 L947.80 1820.54 L954.24 1820.54 L954.24 1820.30 L960.67 1820.30 L960.67 1817.33 L967.11 1817.33 L967.11 1815.84 L973.54 1815.84 L973.54 1813.86 L980.10 1813.86 L980.10 1811.51 L986.53 1811.51 L986.53 1809.41 L992.97 1809.41 L992.97 1807.92 L999.40 1807.92 L999.40 1806.93 L1005.84 1806.93 L1005.84 1805.45 L1012.27 1805.45 L1012.27 1802.85 L1018.71 1802.85 L1018.71 1799.88 L1025.27 1799.88 L1025.27 1795.54 L1031.70 1795.54 L1031.70 1792.20 L1038.14 1792.20 L1038.14 1786.02 L1044.57 1786.02 L1044.57 1781.56 L1051.01 1781.56 L1051.01 1778.59 L1057.44 1778.59 L1057.44 1768.57 L1064.00 1768.57 L1064.00 1759.41 L1070.44 1759.41 L1070.44 1744.68 L1076.87 1744.68 L1076.87 1734.91 L1083.31 1734.91 L1083.31 1719.93 L1089.74 1719.93 L1089.74 1714.36 L1096.18 1714.36 L1096.18 1710.40 L1102.74 1710.40 L1102.74 1695.80 L1109.17 1695.80 L1109.17 1686.02 L1115.61 1686.02 L1115.61 1675.75 L1122.04 1675.75 L1122.04 1666.59 L1128.48 1666.59 L1128.48 1658.80 L1134.91 1658.80 L1134.91 1653.60 L1141.35 1653.60 L1141.35 1648.53 L1147.90 1648.53 L1147.90 1641.72 L1154.34 1641.72 L1154.34 1621.67 L1160.78 1621.67 L1160.78 1606.33 L1167.21 1606.33 L1167.21 1597.04 L1173.64 1597.04 L1173.64 1575.76 L1180.08 1575.76 L1180.08 1573.41 L1186.64 1573.41 L1186.64 1570.81 L1193.07 1570.81 L1193.07 1562.89 L1199.51 1562.89 L1199.51 1556.70 L1205.94 1556.70 L1205.94 1551.01 L1212.38 1551.01 L1212.38 1542.59 L1218.81 1542.59 L1218.81 1534.55 L1225.37 1534.55 L1225.37 1530.84 L1231.81 1530.84 L1231.81 1528.48 L1238.24 1528.48 L1238.24 1515.12 L1244.68 1515.12 L1244.68 1506.33 L1251.11 1506.33 L1251.11 1497.30 L1257.55 1497.30 L1257.55 1488.39 L1263.98 1488.39 L1263.98 1477.25 L1270.54 1477.25 L1270.54 1472.79 L1276.98 1472.79 L1276.98 1470.44 L1283.41 1470.44 L1283.41 1462.52 L1289.85 1462.52 L1289.85 1456.09 L1296.28 1456.09 L1296.28 1448.91 L1302.72 1448.91 L1302.72 1441.11 L1309.28 1441.11 L1309.28 1437.15 L1315.71 1437.15 L1315.71 1435.17 L1322.14 1435.17 L1322.14 1433.94 L1328.58 1433.94 L1328.58 1425.77 L1335.02 1425.77 L1335.02 1415.25 L1341.45 1415.25 L1341.45 1411.66 L1348.01 1411.66 L1348.01 1405.72 L1354.44 1405.72 L1354.44 1399.66 L1360.88 1399.66 L1360.88 1397.55 L1367.31 1397.55 L1367.31 1395.45 L1373.75 1395.45 L1373.75 1390.50 L1380.18 1390.50 L1380.18 1384.31 L1386.62 1384.31 L1386.62 1379.11 L1393.18 1379.11 L1393.18 1373.79 L1399.61 1373.79 L1399.61 1368.84 L1406.05 1368.84 L1406.05 1367.36 L1412.48 1367.36 L1412.48 1364.88 L1418.92 1364.88 L1418.92 1364.02 L1425.35 1364.02 L1425.35 1361.05 L1431.91 1361.05 L1431.91 1358.82 L1438.35 1358.82 L1438.35 1354.73 L1444.78 1354.73 L1444.78 1352.01 L1451.22 1352.01 L1451.22 1350.53 L1457.65 1350.53 L1457.65 1350.28 L1464.09 1350.28 L1464.09 1344.96 L1470.64 1344.96 L1470.64 1335.55 L1477.08 1335.55 L1477.08 1334.07 L1483.52 1334.07 L1483.52 1327.14 L1489.95 1327.14 L1489.95 1324.17 L1496.38 1324.17 L1496.38 1323.55 L1502.82 1323.55 L1502.82 1322.68 L1509.26 1322.68 L1509.26 1319.96 L1515.81 1319.96 L1515.81 1314.14 L1522.25 1314.14 L1522.25 1309.81 L1528.68 1309.81 L1528.68 1306.59 L1535.12 1306.59 L1535.12 1304.86 L1541.55 1304.86 L1541.55 1304.12 L1547.99 1304.12 L1547.99 1302.39 L1554.55 1302.39 L1554.55 1299.17 L1560.98 1299.17 L1560.98 1296.94 L1567.42 1296.94 L1567.42 1294.59 L1573.85 1294.59 L1573.85 1291.87 L1580.29 1291.87 L1580.29 1288.90 L1586.72 1288.90 L1586.72 1288.03 L1593.28 1288.03 L1593.28 1287.29 L1599.72 1287.29 L1599.72 1285.80 L1606.15 1285.80 L1606.15 1284.57 L1612.59 1284.57 L1612.59 1283.08 L1619.02 1283.08 L1619.02 1281.72 L1625.46 1281.72 L1625.46 1280.85 L1631.89 1280.85 L1631.89 1279.86 L1638.45 1279.86 L1638.45 1278.75 L1644.88 1278.75 L1644.88 1276.89 L1651.32 1276.89 L1651.32 1274.66 L1657.76 1274.66 L1657.76 1273.67 L1664.19 1273.67 L1664.19 1271.94 L1670.63 1271.94 L1670.63 1269.71 L1677.18 1269.71 L1677.18 1269.71 L1683.62 1269.71 L1683.62 1269.10 L1690.05 1269.10 L1690.05 1266.74 L1696.49 1266.74 L1696.49 1265.51 L1702.92 1265.51 L1702.92 1263.77 L1709.36 1263.77 L1709.36 1261.18 L1715.92 1261.18 L1715.92 1259.94 L1722.35 1259.94 L1722.35 1259.69 L1728.79 1259.69 L1728.79 1259.20 L1735.22 1259.20 L1735.22 1257.96 L1741.66 1257.96 L1741.66 1254.99 L1748.09 1254.99 L1748.09 1252.76 L1754.53 1252.76 L1754.53 1250.66 L1761.09 1250.66 L1761.09 1249.54 L1767.52 1249.54 L1767.52 1248.55 L1773.96 1248.55 L1773.96 1247.69 L1780.39 1247.69 L1780.39 1243.97 L1786.83 1243.97 L1786.83 1242.12 L1793.26 1242.12 L1793.26 1241.25 L1799.82 1241.25 L1799.82 1239.77 L1806.26 1239.77 L1806.26 1238.16 L1812.69 1238.16 L1812.69 1237.54 L1819.13 1237.54 L1819.13 1236.92 L1825.56 1236.92 L1825.56 1236.30 L1831.99 1236.30 L1831.99 1235.68 L1838.43 1235.68 L1838.43 1233.95 L1844.99 1233.95 L1844.99 1232.59 L1851.42 1232.59 L1851.42 1231.10 L1857.86 1231.10 L1857.86 1230.24 L1864.29 1230.24 L1864.29 1230.11 L1870.73 1230.11 L1870.73 1228.75" stroke-linejoin="round" style="fill:none;stroke:#90353B;stroke-width:6.48"/>
	<path d=" M689.53 1825.99 L696.09 1825.99 L696.09 1825.99 L702.53 1825.99 L702.53 1825.99 L708.96 1825.99 L708.96 1825.99 L715.40 1825.99 L715.40 1825.99 L721.83 1825.99 L721.83 1825.99 L728.27 1825.99 L728.27 1825.99 L734.83 1825.99 L734.83 1825.99 L741.26 1825.99 L741.26 1825.99 L747.70 1825.99 L747.70 1825.74 L754.13 1825.74 L754.13 1825.74 L760.57 1825.74 L760.57 1825.74 L767.00 1825.74 L767.00 1825.37 L773.56 1825.37 L773.56 1825.37 L780.00 1825.37 L780.00 1825.37 L786.43 1825.37 L786.43 1825.37 L792.87 1825.37 L792.87 1825.37 L799.30 1825.37 L799.30 1825.37 L805.74 1825.37 L805.74 1825.37 L812.17 1825.37 L812.17 1825.37 L818.73 1825.37 L818.73 1825.37 L825.16 1825.37 L825.16 1825.37 L831.60 1825.37 L831.60 1825.37 L838.03 1825.37 L838.03 1825.37 L844.47 1825.37 L844.47 1825.37 L850.90 1825.37 L850.90 1825.37 L857.46 1825.37 L857.46 1825.37 L863.90 1825.37 L863.90 1825.37 L870.33 1825.37 L870.33 1823.27 L876.77 1823.27 L876.77 1822.89 L883.20 1822.89 L883.20 1822.89 L889.64 1822.89 L889.64 1822.52 L896.20 1822.52 L896.20 1822.28 L902.63 1822.28 L902.63 1821.90 L909.07 1821.90 L909.07 1821.90 L915.50 1821.90 L915.50 1821.53 L921.94 1821.53 L921.94 1821.53 L928.37 1821.53 L928.37 1820.79 L934.81 1820.79 L934.81 1820.42 L941.37 1820.42 L941.37 1820.17 L947.80 1820.17 L947.80 1820.17 L954.24 1820.17 L954.24 1819.43 L960.67 1819.43 L960.67 1812.87 L967.11 1812.87 L967.11 1810.77 L973.54 1810.77 L973.54 1808.91 L980.10 1808.91 L980.10 1805.82 L986.53 1805.82 L986.53 1804.08 L992.97 1804.08 L992.97 1797.77 L999.40 1797.77 L999.40 1792.57 L1005.84 1792.57 L1005.84 1790.84 L1012.27 1790.84 L1012.27 1783.79 L1018.71 1783.79 L1018.71 1778.84 L1025.27 1778.84 L1025.27 1772.65 L1031.70 1772.65 L1031.70 1764.85 L1038.14 1764.85 L1038.14 1756.19 L1044.57 1756.19 L1044.57 1749.88 L1051.01 1749.88 L1051.01 1740.10 L1057.44 1740.10 L1057.44 1713.50 L1064.00 1713.50 L1064.00 1698.77 L1070.44 1698.77 L1070.44 1671.79 L1076.87 1671.79 L1076.87 1650.75 L1083.31 1650.75 L1083.31 1595.81 L1089.74 1595.81 L1089.74 1580.71 L1096.18 1580.71 L1096.18 1568.83 L1102.74 1568.83 L1102.74 1546.06 L1109.17 1546.06 L1109.17 1522.54 L1115.61 1522.54 L1115.61 1499.03 L1122.04 1499.03 L1122.04 1478.36 L1128.48 1478.36 L1128.48 1461.53 L1134.91 1461.53 L1134.91 1446.06 L1141.35 1446.06 L1141.35 1430.22 L1147.90 1430.22 L1147.90 1409.93 L1154.34 1409.93 L1154.34 1384.93 L1160.78 1384.93 L1160.78 1313.89 L1167.21 1313.89 L1167.21 1299.79 L1173.64 1299.79 L1173.64 1278.38 L1180.08 1278.38 L1180.08 1269.84 L1186.64 1269.84 L1186.64 1259.32 L1193.07 1259.32 L1193.07 1239.89 L1199.51 1239.89 L1199.51 1222.19 L1205.94 1222.19 L1205.94 1206.72 L1212.38 1206.72 L1212.38 1186.92 L1218.81 1186.92 L1218.81 1165.39 L1225.37 1165.39 L1225.37 1160.44 L1231.81 1160.44 L1231.81 1154.87 L1238.24 1154.87 L1238.24 1135.81 L1244.68 1135.81 L1244.68 1108.59 L1251.11 1108.59 L1251.11 1090.89 L1257.55 1090.89 L1257.55 1070.84 L1263.98 1070.84 L1263.98 1040.40 L1270.54 1040.40 L1270.54 1031.98 L1276.98 1031.98 L1276.98 1022.08 L1283.41 1022.08 L1283.41 997.70 L1289.85 997.70 L1289.85 975.43 L1296.28 975.43 L1296.28 957.73 L1302.72 957.73 L1302.72 933.72 L1309.28 933.72 L1309.28 917.76 L1315.71 917.76 L1315.71 910.33 L1322.14 910.33 L1322.14 903.28 L1328.58 903.28 L1328.58 887.32 L1335.02 887.32 L1335.02 869.00 L1341.45 869.00 L1341.45 857.99 L1348.01 857.99 L1348.01 841.77 L1354.44 841.77 L1354.44 819.00 L1360.88 819.00 L1360.88 816.90 L1367.31 816.90 L1367.31 810.84 L1373.75 810.84 L1373.75 792.40 L1380.18 792.40 L1380.18 782.12 L1386.62 782.12 L1386.62 769.75 L1393.18 769.75 L1393.18 758.73 L1399.61 758.73 L1399.61 751.93 L1406.05 751.93 L1406.05 749.08 L1412.48 749.08 L1412.48 746.61 L1418.92 746.61 L1418.92 743.39 L1425.35 743.39 L1425.35 731.01 L1431.91 731.01 L1431.91 726.06 L1438.35 726.06 L1438.35 720.00 L1444.78 720.00 L1444.78 705.77 L1451.22 705.77 L1451.22 701.56 L1457.65 701.56 L1457.65 699.70 L1464.09 699.70 L1464.09 684.11 L1470.64 684.11 L1470.64 671.61 L1477.08 671.61 L1477.08 662.08 L1483.52 662.08 L1483.52 643.89 L1489.95 643.89 L1489.95 639.31 L1496.38 639.31 L1496.38 634.73 L1502.82 634.73 L1502.82 632.51 L1509.26 632.51 L1509.26 627.18 L1515.81 627.18 L1515.81 618.27 L1522.25 618.27 L1522.25 610.85 L1528.68 610.85 L1528.68 604.41 L1535.12 604.41 L1535.12 599.09 L1541.55 599.09 L1541.55 596.99 L1547.99 596.99 L1547.99 593.40 L1554.55 593.40 L1554.55 582.01 L1560.98 582.01 L1560.98 576.57 L1567.42 576.57 L1567.42 571.62 L1573.85 571.62 L1573.85 569.14 L1580.29 569.14 L1580.29 562.71 L1586.72 562.71 L1586.72 558.38 L1593.28 558.38 L1593.28 556.27 L1599.72 556.27 L1599.72 553.06 L1606.15 553.06 L1606.15 548.72 L1612.59 548.72 L1612.59 545.14 L1619.02 545.14 L1619.02 542.29 L1625.46 542.29 L1625.46 539.81 L1631.89 539.81 L1631.89 536.60 L1638.45 536.60 L1638.45 535.48 L1644.88 535.48 L1644.88 531.65 L1651.32 531.65 L1651.32 529.05 L1657.76 529.05 L1657.76 525.83 L1664.19 525.83 L1664.19 522.37 L1670.63 522.37 L1670.63 518.40 L1677.18 518.40 L1677.18 518.03 L1683.62 518.03 L1683.62 517.29 L1690.05 517.29 L1690.05 515.56 L1696.49 515.56 L1696.49 513.70 L1702.92 513.70 L1702.92 510.86 L1709.36 510.86 L1709.36 507.64 L1715.92 507.64 L1715.92 505.16 L1722.35 505.16 L1722.35 503.68 L1728.79 503.68 L1728.79 502.56 L1735.22 502.56 L1735.22 499.10 L1741.66 499.10 L1741.66 496.50 L1748.09 496.50 L1748.09 493.28 L1754.53 493.28 L1754.53 490.81 L1761.09 490.81 L1761.09 487.22 L1767.52 487.22 L1767.52 485.73 L1773.96 485.73 L1773.96 484.62 L1780.39 484.62 L1780.39 483.26 L1786.83 483.26 L1786.83 480.78 L1793.26 480.78 L1793.26 479.30 L1799.82 479.30 L1799.82 476.82 L1806.26 476.82 L1806.26 474.60 L1812.69 474.60 L1812.69 473.85 L1819.13 473.85 L1819.13 472.86 L1825.56 472.86 L1825.56 471.38 L1831.99 471.38 L1831.99 470.26 L1838.43 470.26 L1838.43 469.52 L1844.99 469.52 L1844.99 467.79 L1851.42 467.79 L1851.42 465.56 L1857.86 465.56 L1857.86 464.94 L1864.29 464.94 L1864.29 463.09 L1870.73 463.09 L1870.73 461.97" stroke-linejoin="round" style="fill:none;stroke:#55752F;stroke-width:6.48"/>
	<line x1="635.70" y1="1873.51" x2="635.70" y2="414.45" style="stroke:#000000;stroke-width:4.32"/>
	<line x1="635.70" y1="1825.99" x2="605.63" y2="1825.99" style="stroke:#000000;stroke-width:4.32"/>
	<text x="590.66" y="1852.27" style="font-family:'Helvetica';font-size:74.99px;fill:#000000" text-anchor="end">0.000</text>
	<line x1="635.70" y1="1633.80" x2="605.63" y2="1633.80" style="stroke:#000000;stroke-width:4.32"/>
	<text x="590.66" y="1660.08" style="font-family:'Helvetica';font-size:74.99px;fill:#000000" text-anchor="end">0.001</text>
	<line x1="635.70" y1="1441.49" x2="605.63" y2="1441.49" style="stroke:#000000;stroke-width:4.32"/>
	<text x="590.66" y="1467.76" style="font-family:'Helvetica';font-size:74.99px;fill:#000000" text-anchor="end">0.002</text>
	<line x1="635.70" y1="1249.30" x2="605.63" y2="1249.30" style="stroke:#000000;stroke-width:4.32"/>
	<text x="590.66" y="1275.57" style="font-family:'Helvetica';font-size:74.99px;fill:#000000" text-anchor="end">0.003</text>
	<line x1="635.70" y1="1057.11" x2="605.63" y2="1057.11" style="stroke:#000000;stroke-width:4.32"/>
	<text x="590.66" y="1083.38" style="font-family:'Helvetica';font-size:74.99px;fill:#000000" text-anchor="end">0.004</text>
	<line x1="635.70" y1="864.92" x2="605.63" y2="864.92" style="stroke:#000000;stroke-width:4.32"/>
	<text x="590.66" y="891.19" style="font-family:'Helvetica';font-size:74.99px;fill:#000000" text-anchor="end">0.005</text>
	<line x1="635.70" y1="1873.51" x2="2021.58" y2="1873.51" style="stroke:#000000;stroke-width:4.32"/>
	<line x1="683.22" y1="1873.51" x2="683.22" y2="1903.46" style="stroke:#000000;stroke-width:4.32"/>
	<text x="683.22" y="1970.87" style="font-family:'Helvetica';font-size:74.99px;fill:#000000" text-anchor="middle">1 Feb 20</text>
	<line x1="870.33" y1="1873.51" x2="870.33" y2="1903.46" style="stroke:#000000;stroke-width:4.32"/>
	<text x="870.33" y="1970.87" style="font-family:'Helvetica';font-size:74.99px;fill:#000000" text-anchor="middle">1 Mar 20</text>
	<line x1="1070.44" y1="1873.51" x2="1070.44" y2="1903.46" style="stroke:#000000;stroke-width:4.32"/>
	<text x="1070.44" y="1970.87" style="font-family:'Helvetica';font-size:74.99px;fill:#000000" text-anchor="middle">1 Apr 20</text>
	<line x1="1270.54" y1="1873.51" x2="1270.54" y2="1903.46" style="stroke:#000000;stroke-width:4.32"/>
	<text x="1270.54" y="1970.87" style="font-family:'Helvetica';font-size:74.99px;fill:#000000" text-anchor="middle">1 May 20</text>
	<line x1="1464.21" y1="1873.51" x2="1464.21" y2="1903.46" style="stroke:#000000;stroke-width:4.32"/>
	<text x="1464.21" y="1970.87" style="font-family:'Helvetica';font-size:74.99px;fill:#000000" text-anchor="middle">1 June 20</text>
	<line x1="1657.88" y1="1873.51" x2="1657.88" y2="1903.46" style="stroke:#000000;stroke-width:4.32"/>
	<text x="1657.88" y="1970.87" style="font-family:'Helvetica';font-size:74.99px;fill:#000000" text-anchor="middle">1 July 20</text>
	<line x1="1857.86" y1="1873.51" x2="1857.86" y2="1903.46" style="stroke:#000000;stroke-width:4.32"/>
	<text x="1857.86" y="1970.87" style="font-family:'Helvetica';font-size:74.99px;fill:#000000" text-anchor="middle">1 Aug 20</text>
	<text x="1328.70" y="2053.41" style="font-family:'Helvetica';font-size:74.99px;fill:#000000" text-anchor="middle"> </text>
	<text x="1328.70" y="369.91" style="font-family:'Helvetica';font-size:104.94px;fill:#1E2D53" text-anchor="middle">Female</text>
	<rect x="2097.19" y="207.91" width="1799.33" height="1958.65" style="fill:#EAF2F3"/>
	<rect x="2099.35" y="210.07" width="1795.01" height="1954.33" style="fill:none;stroke:#EAF2F3;stroke-width:4.32"/>
	<rect x="2435.03" y="414.45" width="1385.88" height="1459.06" style="fill:#FFFFFF"/>
	<rect x="2437.19" y="416.61" width="1381.56" height="1454.74" style="fill:none;stroke:#FFFFFF;stroke-width:4.32"/>
	<line x1="2435.03" y1="1825.99" x2="3820.91" y2="1825.99" style="stroke:#EAF2F3;stroke-width:6.48"/>
	<line x1="2435.03" y1="1673.15" x2="3820.91" y2="1673.15" style="stroke:#EAF2F3;stroke-width:6.48"/>
	<line x1="2435.03" y1="1520.32" x2="3820.91" y2="1520.32" style="stroke:#EAF2F3;stroke-width:6.48"/>
	<line x1="2435.03" y1="1367.48" x2="3820.91" y2="1367.48" style="stroke:#EAF2F3;stroke-width:6.48"/>
	<line x1="2435.03" y1="1214.64" x2="3820.91" y2="1214.64" style="stroke:#EAF2F3;stroke-width:6.48"/>
	<line x1="2435.03" y1="1061.81" x2="3820.91" y2="1061.81" style="stroke:#EAF2F3;stroke-width:6.48"/>
	<path d=" M2488.86 1825.99 L2495.30 1825.99 L2495.30 1825.99 L2501.85 1825.99 L2501.85 1825.99 L2508.29 1825.99 L2508.29 1825.99 L2514.72 1825.99 L2514.72 1825.99 L2521.16 1825.99 L2521.16 1825.99 L2527.59 1825.99 L2527.59 1825.99 L2534.03 1825.99 L2534.03 1825.99 L2540.59 1825.99 L2540.59 1825.99 L2547.02 1825.99 L2547.02 1825.99 L2553.46 1825.99 L2553.46 1825.99 L2559.89 1825.99 L2559.89 1825.99 L2566.33 1825.99 L2566.33 1825.99 L2572.76 1825.99 L2572.76 1825.99 L2579.20 1825.99 L2579.20 1825.99 L2585.76 1825.99 L2585.76 1825.99 L2592.19 1825.99 L2592.19 1825.99 L2598.63 1825.99 L2598.63 1825.99 L2605.06 1825.99 L2605.06 1825.99 L2611.50 1825.99 L2611.50 1825.99 L2617.93 1825.99 L2617.93 1825.99 L2624.49 1825.99 L2624.49 1825.62 L2630.93 1825.62 L2630.93 1825.62 L2637.36 1825.62 L2637.36 1825.62 L2643.80 1825.62 L2643.80 1825.62 L2650.23 1825.62 L2650.23 1825.62 L2656.66 1825.62 L2656.66 1825.25 L2663.22 1825.25 L2663.22 1825.25 L2669.66 1825.25 L2669.66 1824.50 L2676.09 1824.50 L2676.09 1823.64 L2682.53 1823.64 L2682.53 1823.64 L2688.96 1823.64 L2688.96 1823.64 L2695.40 1823.64 L2695.40 1823.64 L2701.83 1823.64 L2701.83 1823.64 L2708.39 1823.64 L2708.39 1823.27 L2714.83 1823.27 L2714.83 1823.27 L2721.26 1823.27 L2721.26 1822.89 L2727.70 1822.89 L2727.70 1822.89 L2734.13 1822.89 L2734.13 1821.29 L2740.57 1821.29 L2740.57 1820.91 L2747.13 1820.91 L2747.13 1820.91 L2753.56 1820.91 L2753.56 1820.54 L2760.00 1820.54 L2760.00 1817.70 L2766.43 1817.70 L2766.43 1816.95 L2772.87 1816.95 L2772.87 1816.21 L2779.30 1816.21 L2779.30 1814.97 L2785.86 1814.97 L2785.86 1813.37 L2792.30 1813.37 L2792.30 1811.39 L2798.73 1811.39 L2798.73 1810.27 L2805.16 1810.27 L2805.16 1809.90 L2811.60 1809.90 L2811.60 1808.29 L2818.03 1808.29 L2818.03 1803.96 L2824.47 1803.96 L2824.47 1799.26 L2831.03 1799.26 L2831.03 1794.43 L2837.46 1794.43 L2837.46 1791.34 L2843.90 1791.34 L2843.90 1787.38 L2850.33 1787.38 L2850.33 1785.03 L2856.77 1785.03 L2856.77 1778.22 L2863.20 1778.22 L2863.20 1767.95 L2869.76 1767.95 L2869.76 1759.28 L2876.20 1759.28 L2876.20 1749.88 L2882.63 1749.88 L2882.63 1734.41 L2889.07 1734.41 L2889.07 1730.45 L2895.50 1730.45 L2895.50 1724.51 L2901.94 1724.51 L2901.94 1713.87 L2908.50 1713.87 L2908.50 1703.97 L2914.93 1703.97 L2914.93 1696.05 L2921.37 1696.05 L2921.37 1687.01 L2927.80 1687.01 L2927.80 1682.31 L2934.24 1682.31 L2934.24 1678.35 L2940.67 1678.35 L2940.67 1674.39 L2947.11 1674.39 L2947.11 1668.08 L2953.66 1668.08 L2953.66 1648.65 L2960.10 1648.65 L2960.10 1634.05 L2966.53 1634.05 L2966.53 1628.85 L2972.97 1628.85 L2972.97 1606.70 L2979.41 1606.70 L2979.41 1605.21 L2985.84 1605.21 L2985.84 1603.23 L2992.40 1603.23 L2992.40 1596.80 L2998.83 1596.80 L2998.83 1592.84 L3005.27 1592.84 L3005.27 1587.76 L3011.70 1587.76 L3011.70 1581.82 L3018.14 1581.82 L3018.14 1577.49 L3024.57 1577.49 L3024.57 1575.51 L3031.13 1575.51 L3031.13 1574.27 L3037.57 1574.27 L3037.57 1567.22 L3044.00 1567.22 L3044.00 1562.39 L3050.44 1562.39 L3050.44 1554.10 L3056.87 1554.10 L3056.87 1550.14 L3063.31 1550.14 L3063.31 1539.00 L3069.74 1539.00 L3069.74 1535.04 L3076.30 1535.04 L3076.30 1532.69 L3082.74 1532.69 L3082.74 1526.01 L3089.17 1526.01 L3089.17 1518.46 L3095.61 1518.46 L3095.61 1512.15 L3102.04 1512.15 L3102.04 1505.47 L3108.48 1505.47 L3108.48 1501.01 L3115.03 1501.01 L3115.03 1497.55 L3121.47 1497.55 L3121.47 1495.57 L3127.91 1495.57 L3127.91 1492.72 L3134.34 1492.72 L3134.34 1489.63 L3140.78 1489.63 L3140.78 1483.19 L3147.21 1483.19 L3147.21 1481.21 L3153.77 1481.21 L3153.77 1475.27 L3160.20 1475.27 L3160.20 1473.78 L3166.64 1473.78 L3166.64 1470.94 L3173.07 1470.94 L3173.07 1465.74 L3179.51 1465.74 L3179.51 1458.69 L3185.94 1458.69 L3185.94 1453.49 L3192.38 1453.49 L3192.38 1449.90 L3198.94 1449.90 L3198.94 1447.18 L3205.37 1447.18 L3205.37 1445.20 L3211.81 1445.20 L3211.81 1443.96 L3218.24 1443.96 L3218.24 1442.85 L3224.68 1442.85 L3224.68 1438.39 L3231.11 1438.39 L3231.11 1436.41 L3237.67 1436.41 L3237.67 1434.43 L3244.11 1434.43 L3244.11 1433.32 L3250.54 1433.32 L3250.54 1432.45 L3256.98 1432.45 L3256.98 1429.73 L3263.41 1429.73 L3263.41 1427.38 L3269.85 1427.38 L3269.85 1425.40 L3276.41 1425.40 L3276.41 1422.55 L3282.84 1422.55 L3282.84 1418.96 L3289.28 1418.96 L3289.28 1416.24 L3295.71 1416.24 L3295.71 1414.26 L3302.14 1414.26 L3302.14 1413.89 L3308.58 1413.89 L3308.58 1411.91 L3315.01 1411.91 L3315.01 1406.71 L3321.57 1406.71 L3321.57 1403.49 L3328.01 1403.49 L3328.01 1402.01 L3334.44 1402.01 L3334.44 1400.40 L3340.88 1400.40 L3340.88 1400.03 L3347.31 1400.03 L3347.31 1398.42 L3353.75 1398.42 L3353.75 1392.85 L3360.31 1392.85 L3360.31 1391.24 L3366.74 1391.24 L3366.74 1389.26 L3373.18 1389.26 L3373.18 1388.02 L3379.61 1388.02 L3379.61 1384.93 L3386.05 1384.93 L3386.05 1384.56 L3392.48 1384.56 L3392.48 1382.95 L3399.04 1382.95 L3399.04 1380.97 L3405.48 1380.97 L3405.48 1380.10 L3411.91 1380.10 L3411.91 1379.73 L3418.35 1379.73 L3418.35 1378.99 L3424.78 1378.99 L3424.78 1375.77 L3431.22 1375.77 L3431.22 1375.03 L3437.65 1375.03 L3437.65 1374.16 L3444.21 1374.16 L3444.21 1373.42 L3450.64 1373.42 L3450.64 1371.81 L3457.08 1371.81 L3457.08 1368.97 L3463.51 1368.97 L3463.51 1367.85 L3469.95 1367.85 L3469.95 1365.87 L3476.39 1365.87 L3476.39 1365.01 L3482.94 1365.01 L3482.94 1363.89 L3489.38 1363.89 L3489.38 1360.30 L3495.81 1360.30 L3495.81 1359.06 L3502.25 1359.06 L3502.25 1358.32 L3508.68 1358.32 L3508.68 1358.32 L3515.12 1358.32 L3515.12 1355.48 L3521.55 1355.48 L3521.55 1354.73 L3528.11 1354.73 L3528.11 1354.36 L3534.55 1354.36 L3534.55 1352.75 L3540.98 1352.75 L3540.98 1351.14 L3547.42 1351.14 L3547.42 1350.40 L3553.85 1350.40 L3553.85 1348.30 L3560.29 1348.30 L3560.29 1347.56 L3566.85 1347.56 L3566.85 1345.95 L3573.28 1345.95 L3573.28 1344.83 L3579.72 1344.83 L3579.72 1343.97 L3586.15 1343.97 L3586.15 1340.75 L3592.59 1340.75 L3592.59 1340.01 L3599.02 1340.01 L3599.02 1339.26 L3605.58 1339.26 L3605.58 1337.16 L3618.45 1337.16 L3618.45 1337.16 L3624.89 1337.16 L3624.89 1337.16 L3631.32 1337.16 L3631.32 1335.68 L3637.76 1335.68 L3637.76 1334.44 L3644.19 1334.44 L3644.19 1332.09 L3650.75 1332.09 L3650.75 1331.22 L3663.62 1331.22 L3663.62 1329.61 L3670.05 1329.61 L3670.05 1326.02" stroke-linejoin="round" style="fill:none;stroke:#1A476F;stroke-width:6.48"/>
	<path d=" M2488.86 1825.99 L2495.30 1825.99 L2495.30 1825.99 L2501.85 1825.99 L2501.85 1825.99 L2508.29 1825.99 L2508.29 1825.99 L2514.72 1825.99 L2514.72 1825.99 L2521.16 1825.99 L2521.16 1825.99 L2527.59 1825.99 L2527.59 1825.99 L2534.03 1825.99 L2534.03 1825.99 L2540.59 1825.99 L2540.59 1825.99 L2547.02 1825.99 L2547.02 1825.99 L2553.46 1825.99 L2553.46 1825.99 L2559.89 1825.99 L2559.89 1825.86 L2566.33 1825.86 L2566.33 1825.62 L2572.76 1825.62 L2572.76 1825.49 L2579.20 1825.49 L2579.20 1825.49 L2585.76 1825.49 L2585.76 1825.49 L2592.19 1825.49 L2592.19 1825.49 L2598.63 1825.49 L2598.63 1825.49 L2605.06 1825.49 L2605.06 1825.49 L2611.50 1825.49 L2611.50 1825.49 L2617.93 1825.49 L2617.93 1825.49 L2624.49 1825.49 L2624.49 1825.49 L2630.93 1825.49 L2630.93 1825.49 L2637.36 1825.49 L2637.36 1825.49 L2643.80 1825.49 L2643.80 1825.25 L2650.23 1825.25 L2650.23 1825.25 L2656.66 1825.25 L2656.66 1825.25 L2663.22 1825.25 L2663.22 1824.87 L2669.66 1824.87 L2669.66 1822.65 L2676.09 1822.65 L2676.09 1822.52 L2682.53 1822.52 L2682.53 1822.15 L2688.96 1822.15 L2688.96 1822.15 L2695.40 1822.15 L2695.40 1822.15 L2701.83 1822.15 L2701.83 1822.15 L2708.39 1822.15 L2708.39 1821.90 L2714.83 1821.90 L2714.83 1821.53 L2721.26 1821.53 L2721.26 1821.04 L2727.70 1821.04 L2727.70 1820.30 L2734.13 1820.30 L2734.13 1819.92 L2740.57 1819.92 L2740.57 1819.55 L2747.13 1819.55 L2747.13 1819.55 L2753.56 1819.55 L2753.56 1819.18 L2760.00 1819.18 L2760.00 1814.36 L2766.43 1814.36 L2766.43 1812.87 L2772.87 1812.87 L2772.87 1810.64 L2779.30 1810.64 L2779.30 1808.42 L2785.86 1808.42 L2785.86 1807.05 L2792.30 1807.05 L2792.30 1805.32 L2798.73 1805.32 L2798.73 1803.09 L2805.16 1803.09 L2805.16 1801.61 L2811.60 1801.61 L2811.60 1797.40 L2818.03 1797.40 L2818.03 1792.45 L2824.47 1792.45 L2824.47 1787.25 L2831.03 1787.25 L2831.03 1783.17 L2837.46 1783.17 L2837.46 1777.97 L2843.90 1777.97 L2843.90 1773.89 L2850.33 1773.89 L2850.33 1769.80 L2856.77 1769.80 L2856.77 1759.66 L2863.20 1759.66 L2863.20 1749.38 L2869.76 1749.38 L2869.76 1733.17 L2876.20 1733.17 L2876.20 1720.30 L2882.63 1720.30 L2882.63 1705.20 L2889.07 1705.20 L2889.07 1698.65 L2895.50 1698.65 L2895.50 1691.47 L2901.94 1691.47 L2901.94 1679.83 L2908.50 1679.83 L2908.50 1666.59 L2914.93 1666.59 L2914.93 1656.69 L2921.37 1656.69 L2921.37 1643.70 L2927.80 1643.70 L2927.80 1635.04 L2934.24 1635.04 L2934.24 1628.35 L2940.67 1628.35 L2940.67 1622.04 L2947.11 1622.04 L2947.11 1614.37 L2953.66 1614.37 L2953.66 1596.18 L2960.10 1596.18 L2960.10 1568.21 L2966.53 1568.21 L2966.53 1559.05 L2972.97 1559.05 L2972.97 1536.03 L2979.41 1536.03 L2979.41 1533.19 L2985.84 1533.19 L2985.84 1529.85 L2992.40 1529.85 L2992.40 1520.07 L2998.83 1520.07 L2998.83 1514.13 L3005.27 1514.13 L3005.27 1508.68 L3011.70 1508.68 L3011.70 1502.00 L3018.14 1502.00 L3018.14 1493.96 L3024.57 1493.96 L3024.57 1491.23 L3031.13 1491.23 L3031.13 1490.00 L3037.57 1490.00 L3037.57 1476.14 L3044.00 1476.14 L3044.00 1466.98 L3050.44 1466.98 L3050.44 1459.06 L3056.87 1459.06 L3056.87 1450.89 L3063.31 1450.89 L3063.31 1441.49 L3069.74 1441.49 L3069.74 1438.76 L3076.30 1438.76 L3076.30 1435.92 L3082.74 1435.92 L3082.74 1426.88 L3089.17 1426.88 L3089.17 1419.95 L3095.61 1419.95 L3095.61 1412.28 L3102.04 1412.28 L3102.04 1404.11 L3108.48 1404.11 L3108.48 1400.52 L3115.03 1400.52 L3115.03 1398.67 L3121.47 1398.67 L3121.47 1396.56 L3127.91 1396.56 L3127.91 1390.75 L3134.34 1390.75 L3134.34 1380.85 L3140.78 1380.85 L3140.78 1376.39 L3147.21 1376.39 L3147.21 1372.06 L3153.77 1372.06 L3153.77 1366.00 L3160.20 1366.00 L3160.20 1364.39 L3166.64 1364.39 L3166.64 1364.14 L3173.07 1364.14 L3173.07 1357.21 L3179.51 1357.21 L3179.51 1351.02 L3185.94 1351.02 L3185.94 1347.80 L3192.38 1347.80 L3192.38 1343.60 L3198.94 1343.60 L3198.94 1341.12 L3205.37 1341.12 L3205.37 1339.64 L3211.81 1339.64 L3211.81 1338.89 L3218.24 1338.89 L3218.24 1336.79 L3224.68 1336.79 L3224.68 1333.94 L3231.11 1333.94 L3231.11 1329.98 L3237.67 1329.98 L3237.67 1327.38 L3244.11 1327.38 L3244.11 1323.30 L3250.54 1323.30 L3250.54 1321.82 L3256.98 1321.82 L3256.98 1320.45 L3263.41 1320.45 L3263.41 1314.64 L3269.85 1314.64 L3269.85 1305.97 L3276.41 1305.97 L3276.41 1303.25 L3282.84 1303.25 L3282.84 1297.81 L3289.28 1297.81 L3289.28 1295.33 L3295.71 1295.33 L3295.71 1295.08 L3302.14 1295.08 L3302.14 1294.34 L3308.58 1294.34 L3308.58 1292.11 L3315.01 1292.11 L3315.01 1287.78 L3321.57 1287.78 L3321.57 1286.17 L3328.01 1286.17 L3328.01 1282.96 L3334.44 1282.96 L3334.44 1280.36 L3340.88 1280.36 L3340.88 1279.24 L3347.31 1279.24 L3347.31 1278.62 L3353.75 1278.62 L3353.75 1274.54 L3360.31 1274.54 L3360.31 1271.08 L3366.74 1271.08 L3366.74 1269.10 L3373.18 1269.10 L3373.18 1266.62 L3379.61 1266.62 L3379.61 1264.15 L3386.05 1264.15 L3386.05 1263.40 L3392.48 1263.40 L3392.48 1262.66 L3399.04 1262.66 L3399.04 1261.18 L3405.48 1261.18 L3405.48 1259.32 L3411.91 1259.32 L3411.91 1257.59 L3418.35 1257.59 L3418.35 1256.84 L3424.78 1256.84 L3424.78 1254.37 L3431.22 1254.37 L3431.22 1254.25 L3437.65 1254.25 L3437.65 1253.38 L3444.21 1253.38 L3444.21 1251.77 L3450.64 1251.77 L3450.64 1249.91 L3457.08 1249.91 L3457.08 1247.44 L3463.51 1247.44 L3463.51 1245.34 L3469.95 1245.34 L3469.95 1243.11 L3476.39 1243.11 L3476.39 1242.74 L3482.94 1242.74 L3482.94 1242.12 L3489.38 1242.12 L3489.38 1241.00 L3495.81 1241.00 L3495.81 1239.52 L3502.25 1239.52 L3502.25 1237.41 L3508.68 1237.41 L3508.68 1235.93 L3515.12 1235.93 L3515.12 1235.31 L3521.55 1235.31 L3521.55 1234.94 L3528.11 1234.94 L3528.11 1234.20 L3534.55 1234.20 L3534.55 1233.08 L3540.98 1233.08 L3540.98 1231.97 L3547.42 1231.97 L3547.42 1230.48 L3553.85 1230.48 L3553.85 1229.49 L3560.29 1229.49 L3560.29 1228.38 L3566.85 1228.38 L3566.85 1228.01 L3573.28 1228.01 L3573.28 1227.27 L3579.72 1227.27 L3579.72 1224.79 L3586.15 1224.79 L3586.15 1223.31 L3592.59 1223.31 L3592.59 1222.19 L3599.02 1222.19 L3599.02 1219.59 L3605.58 1219.59 L3605.58 1217.99 L3612.01 1217.99 L3612.01 1217.61 L3618.45 1217.61 L3618.45 1217.24 L3624.89 1217.24 L3624.89 1217.12 L3631.32 1217.12 L3631.32 1216.38 L3637.76 1216.38 L3637.76 1214.64 L3644.19 1214.64 L3644.19 1213.90 L3650.75 1213.90 L3650.75 1212.91 L3657.18 1212.91 L3657.18 1212.42 L3663.62 1212.42 L3663.62 1212.05 L3670.05 1212.05 L3670.05 1211.06" stroke-linejoin="round" style="fill:none;stroke:#90353B;stroke-width:6.48"/>
	<path d=" M2488.86 1825.99 L2495.30 1825.99 L2495.30 1825.62 L2501.85 1825.62 L2501.85 1825.62 L2508.29 1825.62 L2508.29 1825.62 L2514.72 1825.62 L2514.72 1825.62 L2521.16 1825.62 L2521.16 1825.62 L2527.59 1825.62 L2527.59 1825.62 L2534.03 1825.62 L2534.03 1825.62 L2540.59 1825.62 L2540.59 1825.62 L2547.02 1825.62 L2547.02 1825.25 L2553.46 1825.25 L2553.46 1825.25 L2559.89 1825.25 L2559.89 1825.25 L2566.33 1825.25 L2566.33 1824.87 L2572.76 1824.87 L2572.76 1824.87 L2579.20 1824.87 L2579.20 1824.87 L2585.76 1824.87 L2585.76 1824.50 L2592.19 1824.50 L2592.19 1824.50 L2598.63 1824.50 L2598.63 1824.13 L2605.06 1824.13 L2605.06 1823.76 L2611.50 1823.76 L2611.50 1823.76 L2617.93 1823.76 L2617.93 1823.76 L2624.49 1823.76 L2624.49 1823.39 L2630.93 1823.39 L2630.93 1823.39 L2637.36 1823.39 L2637.36 1823.02 L2643.80 1823.02 L2643.80 1823.02 L2650.23 1823.02 L2650.23 1823.02 L2656.66 1823.02 L2656.66 1822.65 L2663.22 1822.65 L2663.22 1822.65 L2669.66 1822.65 L2669.66 1818.44 L2676.09 1818.44 L2676.09 1818.07 L2682.53 1818.07 L2682.53 1818.07 L2688.96 1818.07 L2688.96 1817.70 L2695.40 1817.70 L2695.40 1817.70 L2701.83 1817.70 L2701.83 1817.33 L2708.39 1817.33 L2708.39 1817.33 L2714.83 1817.33 L2714.83 1817.33 L2721.26 1817.33 L2721.26 1816.95 L2727.70 1816.95 L2727.70 1816.21 L2734.13 1816.21 L2734.13 1815.35 L2740.57 1815.35 L2740.57 1813.49 L2747.13 1813.49 L2747.13 1810.89 L2753.56 1810.89 L2753.56 1809.65 L2760.00 1809.65 L2760.00 1800.12 L2766.43 1800.12 L2766.43 1799.38 L2772.87 1799.38 L2772.87 1797.90 L2779.30 1797.90 L2779.30 1795.17 L2785.86 1795.17 L2785.86 1789.85 L2792.30 1789.85 L2792.30 1787.50 L2798.73 1787.50 L2798.73 1781.44 L2805.16 1781.44 L2805.16 1777.60 L2811.60 1777.60 L2811.60 1770.67 L2818.03 1770.67 L2818.03 1762.26 L2824.47 1762.26 L2824.47 1751.12 L2831.03 1751.12 L2831.03 1738.12 L2837.46 1738.12 L2837.46 1725.13 L2843.90 1725.13 L2843.90 1715.10 L2850.33 1715.10 L2850.33 1704.83 L2856.77 1704.83 L2856.77 1682.19 L2863.20 1682.19 L2863.20 1661.02 L2869.76 1661.02 L2869.76 1621.55 L2876.20 1621.55 L2876.20 1598.53 L2882.63 1598.53 L2882.63 1559.05 L2889.07 1559.05 L2889.07 1543.21 L2895.50 1543.21 L2895.50 1526.75 L2901.94 1526.75 L2901.94 1500.14 L2908.50 1500.14 L2908.50 1474.77 L2914.93 1474.77 L2914.93 1444.83 L2921.37 1444.83 L2921.37 1416.73 L2927.80 1416.73 L2927.80 1401.39 L2934.24 1401.39 L2934.24 1384.06 L2940.67 1384.06 L2940.67 1366.24 L2947.11 1366.24 L2947.11 1346.19 L2953.66 1346.19 L2953.66 1316.62 L2960.10 1316.62 L2960.10 1234.07 L2966.53 1234.07 L2966.53 1216.25 L2972.97 1216.25 L2972.97 1195.71 L2979.41 1195.71 L2979.41 1187.91 L2985.84 1187.91 L2985.84 1183.33 L2992.40 1183.33 L2992.40 1161.55 L2998.83 1161.55 L2998.83 1146.46 L3005.27 1146.46 L3005.27 1130.99 L3011.70 1130.99 L3011.70 1116.63 L3018.14 1116.63 L3018.14 1094.97 L3024.57 1094.97 L3024.57 1088.29 L3031.13 1088.29 L3031.13 1081.36 L3037.57 1081.36 L3037.57 1057.35 L3044.00 1057.35 L3044.00 1032.48 L3050.44 1032.48 L3050.44 1013.17 L3056.87 1013.17 L3056.87 993.00 L3063.31 993.00 L3063.31 969.74 L3069.74 969.74 L3069.74 960.33 L3076.30 960.33 L3076.30 953.03 L3082.74 953.03 L3082.74 931.25 L3089.17 931.25 L3089.17 912.19 L3095.61 912.19 L3095.61 894.00 L3102.04 894.00 L3102.04 878.40 L3108.48 878.40 L3108.48 868.01 L3115.03 868.01 L3115.03 860.58 L3121.47 860.58 L3121.47 854.77 L3127.91 854.77 L3127.91 839.17 L3134.34 839.17 L3134.34 823.95 L3140.78 823.95 L3140.78 809.97 L3147.21 809.97 L3147.21 798.34 L3153.77 798.34 L3153.77 772.60 L3160.20 772.60 L3160.20 771.48 L3166.64 771.48 L3166.64 767.52 L3173.07 767.52 L3173.07 753.54 L3179.51 753.54 L3179.51 741.04 L3185.94 741.04 L3185.94 728.91 L3192.38 728.91 L3192.38 722.60 L3198.94 722.60 L3198.94 716.04 L3205.37 716.04 L3205.37 712.45 L3211.81 712.45 L3211.81 708.61 L3218.24 708.61 L3218.24 703.91 L3224.68 703.91 L3224.68 694.88 L3231.11 694.88 L3231.11 687.95 L3237.67 687.95 L3237.67 679.66 L3244.11 679.66 L3244.11 673.47 L3250.54 673.47 L3250.54 670.25 L3256.98 670.25 L3256.98 667.16 L3263.41 667.16 L3263.41 655.90 L3269.85 655.90 L3269.85 641.79 L3276.41 641.79 L3276.41 639.06 L3282.84 639.06 L3282.84 628.79 L3289.28 628.79 L3289.28 622.61 L3295.71 622.61 L3295.71 619.88 L3302.14 619.88 L3302.14 616.67 L3308.58 616.67 L3308.58 611.22 L3315.01 611.22 L3315.01 601.44 L3321.57 601.44 L3321.57 596.00 L3328.01 596.00 L3328.01 588.94 L3334.44 588.94 L3334.44 584.98 L3340.88 584.98 L3340.88 582.63 L3347.31 582.63 L3347.31 579.91 L3353.75 579.91 L3353.75 566.55 L3360.31 566.55 L3360.31 562.96 L3366.74 562.96 L3366.74 560.23 L3373.18 560.23 L3373.18 555.53 L3379.61 555.53 L3379.61 551.20 L3386.05 551.20 L3386.05 548.85 L3392.48 548.85 L3392.48 548.48 L3399.04 548.48 L3399.04 542.54 L3405.48 542.54 L3405.48 538.21 L3411.91 538.21 L3411.91 534.25 L3418.35 534.25 L3418.35 531.52 L3424.78 531.52 L3424.78 526.45 L3431.22 526.45 L3431.22 525.58 L3437.65 525.58 L3437.65 525.58 L3444.21 525.58 L3444.21 522.86 L3450.64 522.86 L3450.64 520.14 L3457.08 520.14 L3457.08 518.90 L3463.51 518.90 L3463.51 515.06 L3469.95 515.06 L3469.95 511.47 L3476.39 511.47 L3476.39 510.73 L3482.94 510.73 L3482.94 509.49 L3489.38 509.49 L3489.38 506.77 L3495.81 506.77 L3495.81 504.79 L3502.25 504.79 L3502.25 503.55 L3508.68 503.55 L3508.68 499.59 L3515.12 499.59 L3515.12 498.48 L3521.55 498.48 L3521.55 496.87 L3528.11 496.87 L3528.11 496.13 L3534.55 496.13 L3534.55 494.89 L3540.98 494.89 L3540.98 492.91 L3547.42 492.91 L3547.42 488.95 L3553.85 488.95 L3553.85 486.23 L3560.29 486.23 L3560.29 485.36 L3566.85 485.36 L3566.85 484.25 L3573.28 484.25 L3573.28 484.25 L3579.72 484.25 L3579.72 482.27 L3586.15 482.27 L3586.15 480.66 L3592.59 480.66 L3592.59 479.42 L3599.02 479.42 L3599.02 477.44 L3605.58 477.44 L3605.58 474.35 L3612.01 474.35 L3612.01 473.48 L3618.45 473.48 L3618.45 473.48 L3624.89 473.48 L3624.89 470.76 L3631.32 470.76 L3631.32 469.15 L3637.76 469.15 L3637.76 468.78 L3644.19 468.78 L3644.19 466.80 L3650.75 466.80 L3650.75 465.19 L3657.18 465.19 L3657.18 464.82 L3663.62 464.82 L3663.62 463.21 L3670.05 463.21 L3670.05 461.97" stroke-linejoin="round" style="fill:none;stroke:#55752F;stroke-width:6.48"/>
	<line x1="2435.03" y1="1873.51" x2="2435.03" y2="414.45" style="stroke:#000000;stroke-width:4.32"/>
	<line x1="2435.03" y1="1825.99" x2="2404.96" y2="1825.99" style="stroke:#000000;stroke-width:4.32"/>
	<text x="2389.98" y="1852.27" style="font-family:'Helvetica';font-size:74.99px;fill:#000000" text-anchor="end">0.000</text>
	<line x1="2435.03" y1="1673.15" x2="2404.96" y2="1673.15" style="stroke:#000000;stroke-width:4.32"/>
	<text x="2389.98" y="1699.43" style="font-family:'Helvetica';font-size:74.99px;fill:#000000" text-anchor="end">0.001</text>
	<line x1="2435.03" y1="1520.32" x2="2404.96" y2="1520.32" style="stroke:#000000;stroke-width:4.32"/>
	<text x="2389.98" y="1546.60" style="font-family:'Helvetica';font-size:74.99px;fill:#000000" text-anchor="end">0.002</text>
	<line x1="2435.03" y1="1367.48" x2="2404.96" y2="1367.48" style="stroke:#000000;stroke-width:4.32"/>
	<text x="2389.98" y="1393.76" style="font-family:'Helvetica';font-size:74.99px;fill:#000000" text-anchor="end">0.003</text>
	<line x1="2435.03" y1="1214.64" x2="2404.96" y2="1214.64" style="stroke:#000000;stroke-width:4.32"/>
	<text x="2389.98" y="1240.92" style="font-family:'Helvetica';font-size:74.99px;fill:#000000" text-anchor="end">0.004</text>
	<line x1="2435.03" y1="1061.81" x2="2404.96" y2="1061.81" style="stroke:#000000;stroke-width:4.32"/>
	<text x="2389.98" y="1088.09" style="font-family:'Helvetica';font-size:74.99px;fill:#000000" text-anchor="end">0.005</text>
	<line x1="2435.03" y1="1873.51" x2="3820.91" y2="1873.51" style="stroke:#000000;stroke-width:4.32"/>
	<line x1="2482.55" y1="1873.51" x2="2482.55" y2="1903.46" style="stroke:#000000;stroke-width:4.32"/>
	<text x="2482.55" y="1970.87" style="font-family:'Helvetica';font-size:74.99px;fill:#000000" text-anchor="middle">1 Feb 20</text>
	<line x1="2669.66" y1="1873.51" x2="2669.66" y2="1903.46" style="stroke:#000000;stroke-width:4.32"/>
	<text x="2669.66" y="1970.87" style="font-family:'Helvetica';font-size:74.99px;fill:#000000" text-anchor="middle">1 Mar 20</text>
	<line x1="2869.76" y1="1873.51" x2="2869.76" y2="1903.46" style="stroke:#000000;stroke-width:4.32"/>
	<text x="2869.76" y="1970.87" style="font-family:'Helvetica';font-size:74.99px;fill:#000000" text-anchor="middle">1 Apr 20</text>
	<line x1="3069.87" y1="1873.51" x2="3069.87" y2="1903.46" style="stroke:#000000;stroke-width:4.32"/>
	<text x="3069.87" y="1970.87" style="font-family:'Helvetica';font-size:74.99px;fill:#000000" text-anchor="middle">1 May 20</text>
	<line x1="3263.53" y1="1873.51" x2="3263.53" y2="1903.46" style="stroke:#000000;stroke-width:4.32"/>
	<text x="3263.53" y="1970.87" style="font-family:'Helvetica';font-size:74.99px;fill:#000000" text-anchor="middle">1 June 20</text>
	<line x1="3457.08" y1="1873.51" x2="3457.08" y2="1903.46" style="stroke:#000000;stroke-width:4.32"/>
	<text x="3457.08" y="1970.87" style="font-family:'Helvetica';font-size:74.99px;fill:#000000" text-anchor="middle">1 July 20</text>
	<line x1="3657.18" y1="1873.51" x2="3657.18" y2="1903.46" style="stroke:#000000;stroke-width:4.32"/>
	<text x="3657.18" y="1970.87" style="font-family:'Helvetica';font-size:74.99px;fill:#000000" text-anchor="middle">1 Aug 20</text>
	<text x="3127.91" y="2053.41" style="font-family:'Helvetica';font-size:74.99px;fill:#000000" text-anchor="middle">Days since 1 Feb 2020</text>
	<text x="3127.91" y="369.91" style="font-family:'Helvetica';font-size:104.94px;fill:#1E2D53" text-anchor="middle">Male</text>
	<text x="150.62" y="1187.29" style="font-family:'Helvetica';font-size:99.99px;fill:#000000" transform="rotate(-90 150.62,1187.29)" text-anchor="middle">Cumulative probability</text>
	<text x="250.61" y="1187.29" style="font-family:'Helvetica';font-size:99.99px;fill:#000000" transform="rotate(-90 250.61,1187.29)" text-anchor="middle">TPP Covid-19 case</text>
	<text x="2097.19" y="157.51" style="font-family:'Helvetica';font-size:110.01px;fill:#000000" text-anchor="middle"> </text>
	<rect x="1338.23" y="2201.21" width="1517.92" height="580.90" style="fill:#FFFFFF"/>
	<rect x="1341.11" y="2204.09" width="1512.16" height="575.14" style="fill:none;stroke:#000000;stroke-width:5.76"/>
	<line x1="1381.42" y1="2408.87" x2="1755.89" y2="2408.87" style="stroke:#1A476F;stroke-width:8.64"/>
	<line x1="1381.42" y1="2548.83" x2="1755.89" y2="2548.83" style="stroke:#90353B;stroke-width:8.64"/>
	<line x1="1381.42" y1="2688.92" x2="1755.89" y2="2688.92" style="stroke:#55752F;stroke-width:8.64"/>
	<text x="1815.78" y="2436.88" style="font-family:'Helvetica';font-size:79.94px;fill:#000000">18-&lt;30</text>
	<text x="1815.78" y="2576.85" style="font-family:'Helvetica';font-size:79.94px;fill:#000000">30-&lt;40</text>
	<text x="1815.78" y="2716.94" style="font-family:'Helvetica';font-size:79.94px;fill:#000000">40-&lt;50</text>
	<text x="2251.38" y="2436.88" style="font-family:'Helvetica';font-size:79.94px;fill:#000000">50-&lt;60</text>
	<text x="2251.38" y="2576.85" style="font-family:'Helvetica';font-size:79.94px;fill:#000000">60-&lt;70</text>
	<text x="2251.38" y="2716.94" style="font-family:'Helvetica';font-size:79.94px;fill:#000000">70-&lt;80</text>
	<text x="2686.98" y="2436.88" style="font-family:'Helvetica';font-size:79.94px;fill:#000000">80+</text>
	<text x="2097.19" y="2308.96" style="font-family:'Helvetica';font-size:79.94px;fill:#000000" text-anchor="middle">Age group</text>
</svg>
