<?xml version="1.0" encoding="UTF-8" standalone="no"?>
<!-- This is a Stata 16.1 generated SVG file (http://www.stata.com) -->

<svg version="1.1" width="5.50in" height="4.00in" viewBox="0 0 3960 2880" xmlns="http://www.w3.org/2000/svg" xmlns:xlink="http://www.w3.org/1999/xlink">
	<desc>Stata Graph - Graph</desc>
	<rect x="0" y="0" width="3960" height="2880" style="fill:#EAF2F3;stroke:none"/>
	<rect x="0.00" y="0.00" width="3959.88" height="2880.00" style="fill:#EAF2F3"/>
	<rect x="2.88" y="2.88" width="3954.12" height="2874.24" style="fill:none;stroke:#EAF2F3;stroke-width:5.76"/>
	<rect x="297.87" y="207.91" width="1799.32" height="1958.65" style="fill:#EAF2F3"/>
	<rect x="300.03" y="210.07" width="1795.01" height="1954.33" style="fill:none;stroke:#EAF2F3;stroke-width:4.32"/>
	<rect x="635.70" y="414.45" width="1385.88" height="1459.06" style="fill:#FFFFFF"/>
	<rect x="637.86" y="416.61" width="1381.56" height="1454.74" style="fill:none;stroke:#FFFFFF;stroke-width:4.32"/>
	<line x1="635.70" y1="1825.99" x2="2021.58" y2="1825.99" style="stroke:#EAF2F3;stroke-width:6.48"/>
	<line x1="635.70" y1="1280.36" x2="2021.58" y2="1280.36" style="stroke:#EAF2F3;stroke-width:6.48"/>
	<line x1="635.70" y1="734.73" x2="2021.58" y2="734.73" style="stroke:#EAF2F3;stroke-width:6.48"/>
	<path d=" M773.56 1825.99 L812.17 1825.99 L812.17 1825.99 L831.60 1825.99 L831.60 1825.99 L876.77 1825.99 L876.77 1825.99 L889.64 1825.99 L889.64 1825.99 L896.20 1825.99 L896.20 1825.99 L915.50 1825.99 L915.50 1825.99 L934.81 1825.99 L934.81 1825.99 L960.67 1825.99 L960.67 1825.86 L999.40 1825.86 L999.40 1825.62 L1025.27 1825.62 L1025.27 1825.49 L1070.44 1825.49 L1070.44 1825.25 L1083.31 1825.25 L1083.31 1825.12 L1096.18 1825.12 L1096.18 1824.87 L1109.17 1824.87 L1109.17 1824.87 L1115.61 1824.87 L1115.61 1824.75 L1122.04 1824.75 L1122.04 1824.75 L1134.91 1824.75 L1134.91 1824.50 L1147.90 1824.50 L1147.90 1824.26 L1160.78 1824.26 L1160.78 1824.13 L1173.64 1824.13 L1173.64 1823.88 L1180.08 1823.88 L1180.08 1823.76 L1186.64 1823.76 L1186.64 1823.51 L1212.38 1823.51 L1212.38 1823.51 L1218.81 1823.51 L1218.81 1823.39 L1231.81 1823.39 L1231.81 1823.14 L1257.55 1823.14 L1257.55 1823.14 L1263.98 1823.14 L1263.98 1823.02 L1276.98 1823.02 L1276.98 1823.02 L1283.41 1823.02 L1283.41 1823.02 L1289.85 1823.02 L1289.85 1823.02 L1315.71 1823.02 L1315.71 1823.02 L1354.44 1823.02 L1354.44 1823.02 L1360.88 1823.02 L1360.88 1823.02 L1431.91 1823.02 L1431.91 1823.02 L1438.35 1823.02 L1438.35 1823.02 L1444.78 1823.02 L1444.78 1823.02 L1457.65 1823.02 L1457.65 1823.02 L1464.09 1823.02 L1464.09 1823.02 L1483.52 1823.02 L1483.52 1822.77 L1489.95 1822.77 L1489.95 1822.77 L1496.38 1822.77 L1496.38 1822.77 L1522.25 1822.77 L1522.25 1822.52 L1554.55 1822.52 L1554.55 1822.52 L1573.85 1822.52 L1573.85 1822.40 L1638.45 1822.40 L1638.45 1822.40 L1657.76 1822.40 L1657.76 1822.40 L1677.18 1822.40 L1677.18 1822.40 L1702.92 1822.40 L1702.92 1822.40 L1715.92 1822.40 L1715.92 1822.40 L1722.35 1822.40 L1722.35 1822.40 L1728.79 1822.40 L1728.79 1822.40 L1741.66 1822.40 L1741.66 1822.40 L1748.09 1822.40 L1748.09 1822.40 L1870.73 1822.40 L1870.73 1822.40" stroke-linejoin="round" style="fill:none;stroke:#1A476F;stroke-width:6.48"/>
	<path d=" M689.53 1825.99 L696.09 1825.99 L696.09 1825.99 L702.53 1825.99 L702.53 1825.99 L708.96 1825.99 L708.96 1825.99 L721.83 1825.99 L721.83 1825.99 L728.27 1825.99 L728.27 1825.99 L734.83 1825.99 L734.83 1825.99 L741.26 1825.99 L741.26 1825.99 L747.70 1825.99 L747.70 1825.99 L754.13 1825.99 L754.13 1825.99 L760.57 1825.99 L760.57 1825.99 L767.00 1825.99 L767.00 1825.99 L773.56 1825.99 L773.56 1825.99 L780.00 1825.99 L780.00 1825.99 L792.87 1825.99 L792.87 1825.99 L818.73 1825.99 L818.73 1825.99 L825.16 1825.99 L825.16 1825.99 L838.03 1825.99 L838.03 1825.99 L850.90 1825.99 L850.90 1825.99 L870.33 1825.99 L870.33 1825.99 L876.77 1825.99 L876.77 1825.99 L883.20 1825.99 L883.20 1825.99 L896.20 1825.99 L896.20 1825.99 L902.63 1825.99 L902.63 1825.99 L909.07 1825.99 L909.07 1825.99 L915.50 1825.99 L915.50 1825.99 L928.37 1825.99 L928.37 1825.99 L941.37 1825.99 L941.37 1825.99 L947.80 1825.99 L947.80 1825.99 L960.67 1825.99 L960.67 1825.86 L973.54 1825.86 L973.54 1825.62 L980.10 1825.62 L980.10 1825.62 L992.97 1825.62 L992.97 1825.49 L999.40 1825.49 L999.40 1825.25 L1012.27 1825.25 L1012.27 1825.00 L1018.71 1825.00 L1018.71 1824.87 L1025.27 1824.87 L1025.27 1824.63 L1031.70 1824.63 L1031.70 1824.50 L1038.14 1824.50 L1038.14 1824.26 L1044.57 1824.26 L1044.57 1823.51 L1051.01 1823.51 L1051.01 1823.27 L1057.44 1823.27 L1057.44 1822.89 L1064.00 1822.89 L1064.00 1822.89 L1070.44 1822.89 L1070.44 1822.65 L1076.87 1822.65 L1076.87 1822.52 L1083.31 1822.52 L1083.31 1822.28 L1089.74 1822.28 L1089.74 1821.66 L1096.18 1821.66 L1096.18 1820.54 L1102.74 1820.54 L1102.74 1820.30 L1109.17 1820.30 L1109.17 1819.55 L1115.61 1819.55 L1115.61 1819.18 L1122.04 1819.18 L1122.04 1818.69 L1128.48 1818.69 L1128.48 1818.56 L1134.91 1818.56 L1134.91 1818.32 L1141.35 1818.32 L1141.35 1818.19 L1147.90 1818.19 L1147.90 1817.70 L1154.34 1817.70 L1154.34 1817.70 L1160.78 1817.70 L1160.78 1817.20 L1167.21 1817.20 L1167.21 1816.95 L1173.64 1816.95 L1173.64 1816.95 L1180.08 1816.95 L1180.08 1816.95 L1186.64 1816.95 L1186.64 1816.71 L1199.51 1816.71 L1199.51 1816.34 L1205.94 1816.34 L1205.94 1816.21 L1212.38 1816.21 L1212.38 1816.21 L1238.24 1816.21 L1238.24 1816.21 L1244.68 1816.21 L1244.68 1816.21 L1257.55 1816.21 L1257.55 1815.96 L1263.98 1815.96 L1263.98 1815.72 L1276.98 1815.72 L1276.98 1815.72 L1283.41 1815.72 L1283.41 1815.59 L1296.28 1815.59 L1296.28 1815.35 L1302.72 1815.35 L1302.72 1815.35 L1315.71 1815.35 L1315.71 1815.35 L1322.14 1815.35 L1322.14 1815.35 L1328.58 1815.35 L1328.58 1815.35 L1335.02 1815.35 L1335.02 1815.35 L1348.01 1815.35 L1348.01 1815.35 L1354.44 1815.35 L1354.44 1815.35 L1360.88 1815.35 L1360.88 1814.97 L1380.18 1814.97 L1380.18 1814.73 L1399.61 1814.73 L1399.61 1814.73 L1406.05 1814.73 L1406.05 1814.73 L1412.48 1814.73 L1412.48 1814.73 L1418.92 1814.73 L1418.92 1814.60 L1425.35 1814.60 L1425.35 1814.60 L1438.35 1814.60 L1438.35 1814.36 L1444.78 1814.36 L1444.78 1814.36 L1464.09 1814.36 L1464.09 1813.98 L1470.64 1813.98 L1470.64 1813.98 L1483.52 1813.98 L1483.52 1813.74 L1496.38 1813.74 L1496.38 1813.74 L1502.82 1813.74 L1502.82 1813.74 L1509.26 1813.74 L1509.26 1813.74 L1515.81 1813.74 L1515.81 1813.74 L1522.25 1813.74 L1522.25 1813.74 L1528.68 1813.74 L1528.68 1813.74 L1535.12 1813.74 L1535.12 1813.74 L1547.99 1813.74 L1547.99 1813.74 L1554.55 1813.74 L1554.55 1813.74 L1573.85 1813.74 L1573.85 1813.74 L1593.28 1813.74 L1593.28 1813.61 L1606.15 1813.61 L1606.15 1813.61 L1612.59 1813.61 L1612.59 1813.61 L1619.02 1813.61 L1619.02 1813.61 L1651.32 1813.61 L1651.32 1813.61 L1657.76 1813.61 L1657.76 1813.61 L1664.19 1813.61 L1664.19 1813.37 L1677.18 1813.37 L1677.18 1813.37 L1696.49 1813.37 L1696.49 1813.37 L1702.92 1813.37 L1702.92 1813.24 L1709.36 1813.24 L1709.36 1813.24 L1715.92 1813.24 L1715.92 1813.24 L1722.35 1813.24 L1722.35 1813.24 L1735.22 1813.24 L1735.22 1813.24 L1748.09 1813.24 L1748.09 1813.24 L1799.82 1813.24 L1799.82 1813.24 L1812.69 1813.24 L1812.69 1813.24 L1831.99 1813.24 L1831.99 1813.24 L1838.43 1813.24 L1838.43 1813.24 L1870.73 1813.24 L1870.73 1813.24" stroke-linejoin="round" style="fill:none;stroke:#90353B;stroke-width:6.48"/>
	<path d=" M689.53 1825.99 L696.09 1825.99 L696.09 1825.99 L702.53 1825.99 L702.53 1825.99 L708.96 1825.99 L708.96 1825.99 L715.40 1825.99 L715.40 1825.99 L721.83 1825.99 L721.83 1825.99 L728.27 1825.99 L728.27 1825.99 L734.83 1825.99 L734.83 1825.99 L741.26 1825.99 L741.26 1825.99 L747.70 1825.99 L747.70 1825.99 L754.13 1825.99 L754.13 1825.99 L760.57 1825.99 L760.57 1825.99 L767.00 1825.99 L767.00 1825.99 L773.56 1825.99 L773.56 1825.99 L792.87 1825.99 L792.87 1825.99 L805.74 1825.99 L805.74 1825.99 L818.73 1825.99 L818.73 1825.99 L825.16 1825.99 L825.16 1825.99 L831.60 1825.99 L831.60 1825.99 L838.03 1825.99 L838.03 1825.99 L844.47 1825.99 L844.47 1825.99 L850.90 1825.99 L850.90 1825.99 L857.46 1825.99 L857.46 1825.99 L863.90 1825.99 L863.90 1825.99 L870.33 1825.99 L870.33 1825.99 L876.77 1825.99 L876.77 1825.99 L883.20 1825.99 L883.20 1825.99 L889.64 1825.99 L889.64 1825.99 L896.20 1825.99 L896.20 1825.99 L902.63 1825.99 L902.63 1825.99 L909.07 1825.99 L909.07 1825.99 L915.50 1825.99 L915.50 1825.99 L921.94 1825.99 L921.94 1825.99 L928.37 1825.99 L928.37 1825.99 L934.81 1825.99 L934.81 1825.99 L941.37 1825.99 L941.37 1825.99 L947.80 1825.99 L947.80 1825.99 L954.24 1825.99 L954.24 1825.86 L960.67 1825.86 L960.67 1825.37 L967.11 1825.37 L967.11 1825.12 L973.54 1825.12 L973.54 1825.12 L980.10 1825.12 L980.10 1825.12 L992.97 1825.12 L992.97 1824.87 L999.40 1824.87 L999.40 1824.75 L1012.27 1824.75 L1012.27 1824.50 L1018.71 1824.50 L1018.71 1824.50 L1025.27 1824.50 L1025.27 1824.01 L1031.70 1824.01 L1031.70 1823.76 L1038.14 1823.76 L1038.14 1823.14 L1044.57 1823.14 L1044.57 1822.65 L1051.01 1822.65 L1051.01 1822.28 L1057.44 1822.28 L1057.44 1821.04 L1064.00 1821.04 L1064.00 1819.80 L1070.44 1819.80 L1070.44 1819.06 L1076.87 1819.06 L1076.87 1817.70 L1083.31 1817.70 L1083.31 1816.83 L1089.74 1816.83 L1089.74 1816.58 L1096.18 1816.58 L1096.18 1815.22 L1102.74 1815.22 L1102.74 1813.49 L1109.17 1813.49 L1109.17 1812.75 L1115.61 1812.75 L1115.61 1811.39 L1122.04 1811.39 L1122.04 1810.27 L1128.48 1810.27 L1128.48 1809.65 L1134.91 1809.65 L1134.91 1808.91 L1141.35 1808.91 L1141.35 1808.79 L1147.90 1808.79 L1147.90 1808.54 L1154.34 1808.54 L1154.34 1806.93 L1160.78 1806.93 L1160.78 1803.96 L1167.21 1803.96 L1167.21 1803.34 L1173.64 1803.34 L1173.64 1802.85 L1180.08 1802.85 L1180.08 1802.72 L1186.64 1802.72 L1186.64 1802.23 L1193.07 1802.23 L1193.07 1802.23 L1205.94 1802.23 L1205.94 1801.73 L1212.38 1801.73 L1212.38 1801.11 L1218.81 1801.11 L1218.81 1800.37 L1225.37 1800.37 L1225.37 1800.25 L1231.81 1800.25 L1231.81 1799.75 L1238.24 1799.75 L1238.24 1798.89 L1244.68 1798.89 L1244.68 1798.39 L1251.11 1798.39 L1251.11 1798.14 L1257.55 1798.14 L1257.55 1797.77 L1263.98 1797.77 L1263.98 1797.52 L1270.54 1797.52 L1270.54 1797.03 L1276.98 1797.03 L1276.98 1796.78 L1283.41 1796.78 L1283.41 1796.78 L1289.85 1796.78 L1289.85 1796.78 L1296.28 1796.78 L1296.28 1796.53 L1302.72 1796.53 L1302.72 1795.67 L1309.28 1795.67 L1309.28 1795.30 L1315.71 1795.30 L1315.71 1795.30 L1322.14 1795.30 L1322.14 1795.05 L1328.58 1795.05 L1328.58 1794.31 L1335.02 1794.31 L1335.02 1794.06 L1341.45 1794.06 L1341.45 1794.06 L1348.01 1794.06 L1348.01 1794.06 L1354.44 1794.06 L1354.44 1793.69 L1360.88 1793.69 L1360.88 1793.69 L1367.31 1793.69 L1367.31 1793.44 L1373.75 1793.44 L1373.75 1793.19 L1380.18 1793.19 L1380.18 1793.19 L1393.18 1793.19 L1393.18 1792.57 L1406.05 1792.57 L1406.05 1792.57 L1412.48 1792.57 L1412.48 1792.57 L1418.92 1792.57 L1418.92 1792.33 L1425.35 1792.33 L1425.35 1792.33 L1431.91 1792.33 L1431.91 1792.33 L1438.35 1792.33 L1438.35 1792.08 L1444.78 1792.08 L1444.78 1791.83 L1451.22 1791.83 L1451.22 1791.46 L1457.65 1791.46 L1457.65 1791.46 L1464.09 1791.46 L1464.09 1791.46 L1470.64 1791.46 L1470.64 1790.97 L1477.08 1790.97 L1477.08 1790.97 L1483.52 1790.97 L1483.52 1790.97 L1489.95 1790.97 L1489.95 1790.72 L1496.38 1790.72 L1496.38 1790.72 L1502.82 1790.72 L1502.82 1790.72 L1509.26 1790.72 L1509.26 1790.72 L1515.81 1790.72 L1515.81 1790.47 L1528.68 1790.47 L1528.68 1790.35 L1535.12 1790.35 L1535.12 1790.35 L1541.55 1790.35 L1541.55 1790.35 L1547.99 1790.35 L1547.99 1790.35 L1554.55 1790.35 L1554.55 1790.10 L1560.98 1790.10 L1560.98 1790.10 L1573.85 1790.10 L1573.85 1789.85 L1586.72 1789.85 L1586.72 1789.85 L1593.28 1789.85 L1593.28 1789.60 L1599.72 1789.60 L1599.72 1789.36 L1606.15 1789.36 L1606.15 1789.36 L1612.59 1789.36 L1612.59 1789.36 L1619.02 1789.36 L1619.02 1789.36 L1625.46 1789.36 L1625.46 1789.36 L1631.89 1789.36 L1631.89 1788.99 L1638.45 1788.99 L1638.45 1788.99 L1644.88 1788.99 L1644.88 1788.99 L1651.32 1788.99 L1651.32 1788.99 L1657.76 1788.99 L1657.76 1788.99 L1664.19 1788.99 L1664.19 1788.99 L1670.63 1788.99 L1670.63 1788.99 L1677.18 1788.99 L1677.18 1788.99 L1683.62 1788.99 L1683.62 1788.99 L1690.05 1788.99 L1690.05 1788.99 L1702.92 1788.99 L1702.92 1788.99 L1709.36 1788.99 L1709.36 1788.99 L1715.92 1788.99 L1715.92 1788.74 L1722.35 1788.74 L1722.35 1788.74 L1728.79 1788.74 L1728.79 1788.74 L1735.22 1788.74 L1735.22 1788.49 L1741.66 1788.49 L1741.66 1788.49 L1748.09 1788.49 L1748.09 1788.49 L1793.26 1788.49 L1793.26 1788.49 L1799.82 1788.49 L1799.82 1788.49 L1806.26 1788.49 L1806.26 1788.49 L1825.56 1788.49 L1825.56 1788.49 L1831.99 1788.49 L1831.99 1788.49 L1838.43 1788.49 L1838.43 1788.49 L1844.99 1788.49 L1844.99 1788.49 L1870.73 1788.49 L1870.73 1788.49" stroke-linejoin="round" style="fill:none;stroke:#55752F;stroke-width:6.48"/>
	<path d=" M689.53 1825.99 L696.09 1825.99 L696.09 1825.99 L702.53 1825.99 L702.53 1825.99 L708.96 1825.99 L708.96 1825.99 L715.40 1825.99 L715.40 1825.99 L721.83 1825.99 L721.83 1825.99 L728.27 1825.99 L728.27 1825.99 L734.83 1825.99 L734.83 1825.99 L741.26 1825.99 L741.26 1825.99 L747.70 1825.99 L747.70 1825.99 L754.13 1825.99 L754.13 1825.99 L760.57 1825.99 L760.57 1825.99 L767.00 1825.99 L767.00 1825.99 L773.56 1825.99 L773.56 1825.99 L780.00 1825.99 L780.00 1825.99 L799.30 1825.99 L799.30 1825.99 L805.74 1825.99 L805.74 1825.99 L812.17 1825.99 L812.17 1825.99 L818.73 1825.99 L818.73 1825.99 L825.16 1825.99 L825.16 1825.99 L831.60 1825.99 L831.60 1825.99 L838.03 1825.99 L838.03 1825.99 L844.47 1825.99 L844.47 1825.99 L850.90 1825.99 L850.90 1825.99 L857.46 1825.99 L857.46 1825.99 L863.90 1825.99 L863.90 1825.99 L870.33 1825.99 L870.33 1825.99 L876.77 1825.99 L876.77 1825.86 L883.20 1825.86 L883.20 1825.86 L889.64 1825.86 L889.64 1825.86 L896.20 1825.86 L896.20 1825.86 L902.63 1825.86 L902.63 1825.86 L909.07 1825.86 L909.07 1825.86 L915.50 1825.86 L915.50 1825.86 L921.94 1825.86 L921.94 1825.86 L928.37 1825.86 L928.37 1825.86 L934.81 1825.86 L934.81 1825.62 L941.37 1825.62 L941.37 1825.62 L947.80 1825.62 L947.80 1825.62 L954.24 1825.62 L954.24 1825.62 L960.67 1825.62 L960.67 1823.51 L967.11 1823.51 L967.11 1823.14 L980.10 1823.14 L980.10 1822.65 L986.53 1822.65 L986.53 1822.28 L992.97 1822.28 L992.97 1821.66 L999.40 1821.66 L999.40 1821.16 L1005.84 1821.16 L1005.84 1820.79 L1012.27 1820.79 L1012.27 1820.17 L1018.71 1820.17 L1018.71 1819.31 L1025.27 1819.31 L1025.27 1819.06 L1031.70 1819.06 L1031.70 1818.32 L1038.14 1818.32 L1038.14 1816.95 L1044.57 1816.95 L1044.57 1816.21 L1051.01 1816.21 L1051.01 1814.48 L1057.44 1814.48 L1057.44 1812.13 L1064.00 1812.13 L1064.00 1809.90 L1070.44 1809.90 L1070.44 1808.54 L1076.87 1808.54 L1076.87 1806.44 L1083.31 1806.44 L1083.31 1804.33 L1089.74 1804.33 L1089.74 1801.86 L1096.18 1801.86 L1096.18 1799.75 L1102.74 1799.75 L1102.74 1797.28 L1109.17 1797.28 L1109.17 1794.31 L1115.61 1794.31 L1115.61 1790.97 L1122.04 1790.97 L1122.04 1788.00 L1128.48 1788.00 L1128.48 1786.76 L1134.91 1786.76 L1134.91 1784.65 L1141.35 1784.65 L1141.35 1783.17 L1147.90 1783.17 L1147.90 1781.68 L1154.34 1781.68 L1154.34 1780.20 L1160.78 1780.20 L1160.78 1774.26 L1167.21 1774.26 L1167.21 1773.89 L1173.64 1773.89 L1173.64 1773.27 L1180.08 1773.27 L1180.08 1772.77 L1186.64 1772.77 L1186.64 1771.91 L1193.07 1771.91 L1193.07 1771.78 L1199.51 1771.78 L1199.51 1770.92 L1205.94 1770.92 L1205.94 1770.67 L1212.38 1770.67 L1212.38 1770.05 L1218.81 1770.05 L1218.81 1769.43 L1225.37 1769.43 L1225.37 1768.81 L1231.81 1768.81 L1231.81 1767.95 L1238.24 1767.95 L1238.24 1767.33 L1244.68 1767.33 L1244.68 1766.96 L1251.11 1766.96 L1251.11 1766.34 L1257.55 1766.34 L1257.55 1765.84 L1263.98 1765.84 L1263.98 1765.60 L1270.54 1765.60 L1270.54 1765.23 L1276.98 1765.23 L1276.98 1764.85 L1283.41 1764.85 L1283.41 1764.24 L1289.85 1764.24 L1289.85 1763.74 L1296.28 1763.74 L1296.28 1763.37 L1302.72 1763.37 L1302.72 1763.12 L1309.28 1763.12 L1309.28 1762.75 L1315.71 1762.75 L1315.71 1762.50 L1322.14 1762.50 L1322.14 1762.26 L1328.58 1762.26 L1328.58 1762.13 L1335.02 1762.13 L1335.02 1761.64 L1341.45 1761.64 L1341.45 1761.39 L1348.01 1761.39 L1348.01 1761.27 L1354.44 1761.27 L1354.44 1759.28 L1367.31 1759.28 L1367.31 1759.16 L1373.75 1759.16 L1373.75 1758.67 L1380.18 1758.67 L1380.18 1758.67 L1386.62 1758.67 L1386.62 1758.29 L1393.18 1758.29 L1393.18 1757.80 L1399.61 1757.80 L1399.61 1757.68 L1406.05 1757.68 L1406.05 1757.68 L1412.48 1757.68 L1412.48 1757.68 L1418.92 1757.68 L1418.92 1757.43 L1425.35 1757.43 L1425.35 1757.18 L1431.91 1757.18 L1431.91 1757.18 L1438.35 1757.18 L1438.35 1757.18 L1444.78 1757.18 L1444.78 1756.44 L1451.22 1756.44 L1451.22 1756.44 L1457.65 1756.44 L1457.65 1756.44 L1464.09 1756.44 L1464.09 1756.19 L1470.64 1756.19 L1470.64 1755.32 L1477.08 1755.32 L1477.08 1755.32 L1483.52 1755.32 L1483.52 1754.95 L1489.95 1754.95 L1489.95 1754.71 L1496.38 1754.71 L1496.38 1754.46 L1502.82 1754.46 L1502.82 1754.09 L1509.26 1754.09 L1509.26 1753.59 L1515.81 1753.59 L1515.81 1753.59 L1522.25 1753.59 L1522.25 1753.47 L1528.68 1753.47 L1528.68 1753.47 L1535.12 1753.47 L1535.12 1753.47 L1541.55 1753.47 L1541.55 1752.97 L1547.99 1752.97 L1547.99 1752.85 L1554.55 1752.85 L1554.55 1752.85 L1560.98 1752.85 L1560.98 1752.60 L1567.42 1752.60 L1567.42 1752.35 L1573.85 1752.35 L1573.85 1751.98 L1586.72 1751.98 L1586.72 1751.98 L1593.28 1751.98 L1593.28 1751.98 L1599.72 1751.98 L1599.72 1751.98 L1606.15 1751.98 L1606.15 1751.74 L1612.59 1751.74 L1612.59 1751.36 L1619.02 1751.36 L1619.02 1751.12 L1625.46 1751.12 L1625.46 1750.87 L1631.89 1750.87 L1631.89 1750.87 L1638.45 1750.87 L1638.45 1750.87 L1644.88 1750.87 L1644.88 1750.87 L1651.32 1750.87 L1651.32 1750.87 L1657.76 1750.87 L1657.76 1750.87 L1664.19 1750.87 L1664.19 1750.75 L1670.63 1750.75 L1670.63 1750.75 L1677.18 1750.75 L1677.18 1750.75 L1683.62 1750.75 L1683.62 1750.50 L1690.05 1750.50 L1690.05 1750.50 L1696.49 1750.50 L1696.49 1750.50 L1702.92 1750.50 L1702.92 1750.50 L1709.36 1750.50 L1709.36 1750.50 L1715.92 1750.50 L1715.92 1750.25 L1722.35 1750.25 L1722.35 1750.25 L1728.79 1750.25 L1728.79 1750.25 L1735.22 1750.25 L1735.22 1750.25 L1741.66 1750.25 L1741.66 1750.25 L1748.09 1750.25 L1748.09 1749.38 L1754.53 1749.38 L1754.53 1749.26 L1767.52 1749.26 L1767.52 1749.26 L1793.26 1749.26 L1793.26 1749.26 L1799.82 1749.26 L1799.82 1749.26 L1812.69 1749.26 L1812.69 1749.26 L1819.13 1749.26 L1819.13 1749.26 L1825.56 1749.26 L1825.56 1749.26 L1831.99 1749.26 L1831.99 1749.26 L1838.43 1749.26 L1838.43 1749.26 L1870.73 1749.26 L1870.73 1749.26" stroke-linejoin="round" style="fill:none;stroke:#E37E00;stroke-width:6.48"/>
	<path d=" M689.53 1825.99 L696.09 1825.99 L696.09 1825.99 L702.53 1825.99 L702.53 1825.99 L708.96 1825.99 L708.96 1825.99 L715.40 1825.99 L715.40 1825.99 L721.83 1825.99 L721.83 1825.99 L728.27 1825.99 L728.27 1825.99 L734.83 1825.99 L734.83 1825.99 L741.26 1825.99 L741.26 1825.99 L747.70 1825.99 L747.70 1825.99 L754.13 1825.99 L754.13 1825.99 L760.57 1825.99 L760.57 1825.99 L767.00 1825.99 L767.00 1825.99 L773.56 1825.99 L773.56 1825.62 L780.00 1825.62 L780.00 1825.62 L786.43 1825.62 L786.43 1825.62 L792.87 1825.62 L792.87 1825.62 L799.30 1825.62 L799.30 1825.62 L805.74 1825.62 L805.74 1825.62 L818.73 1825.62 L818.73 1825.62 L825.16 1825.62 L825.16 1825.62 L831.60 1825.62 L831.60 1825.62 L838.03 1825.62 L838.03 1825.62 L844.47 1825.62 L844.47 1825.62 L850.90 1825.62 L850.90 1825.62 L857.46 1825.62 L857.46 1825.62 L863.90 1825.62 L863.90 1825.62 L870.33 1825.62 L870.33 1825.62 L876.77 1825.62 L876.77 1825.62 L883.20 1825.62 L883.20 1825.62 L889.64 1825.62 L889.64 1825.62 L896.20 1825.62 L896.20 1825.62 L902.63 1825.62 L902.63 1825.62 L909.07 1825.62 L909.07 1825.62 L915.50 1825.62 L915.50 1825.62 L921.94 1825.62 L921.94 1825.62 L928.37 1825.62 L928.37 1825.62 L934.81 1825.62 L934.81 1825.62 L941.37 1825.62 L941.37 1824.75 L947.80 1824.75 L947.80 1824.75 L954.24 1824.75 L954.24 1824.75 L960.67 1824.75 L960.67 1821.16 L967.11 1821.16 L967.11 1820.67 L973.54 1820.67 L973.54 1820.67 L980.10 1820.67 L980.10 1820.30 L986.53 1820.30 L986.53 1819.43 L992.97 1819.43 L992.97 1819.43 L999.40 1819.43 L999.40 1819.06 L1005.84 1819.06 L1005.84 1818.69 L1012.27 1818.69 L1012.27 1818.69 L1018.71 1818.69 L1018.71 1817.45 L1025.27 1817.45 L1025.27 1816.21 L1031.70 1816.21 L1031.70 1813.74 L1038.14 1813.74 L1038.14 1810.89 L1044.57 1810.89 L1044.57 1809.65 L1051.01 1809.65 L1051.01 1807.55 L1057.44 1807.55 L1057.44 1804.70 L1064.00 1804.70 L1064.00 1802.60 L1070.44 1802.60 L1070.44 1797.77 L1076.87 1797.77 L1076.87 1794.43 L1083.31 1794.43 L1083.31 1791.09 L1089.74 1791.09 L1089.74 1785.77 L1096.18 1785.77 L1096.18 1782.06 L1102.74 1782.06 L1102.74 1779.21 L1109.17 1779.21 L1109.17 1776.36 L1115.61 1776.36 L1115.61 1774.26 L1122.04 1774.26 L1122.04 1771.04 L1128.48 1771.04 L1128.48 1767.70 L1134.91 1767.70 L1134.91 1764.85 L1141.35 1764.85 L1141.35 1762.01 L1147.90 1762.01 L1147.90 1760.40 L1154.34 1760.40 L1154.34 1757.92 L1160.78 1757.92 L1160.78 1743.94 L1173.64 1743.94 L1173.64 1742.33 L1180.08 1742.33 L1180.08 1740.60 L1186.64 1740.60 L1186.64 1740.60 L1193.07 1740.60 L1193.07 1740.23 L1199.51 1740.23 L1199.51 1738.99 L1212.38 1738.99 L1212.38 1738.12 L1218.81 1738.12 L1218.81 1736.14 L1225.37 1736.14 L1225.37 1733.67 L1231.81 1733.67 L1231.81 1732.43 L1238.24 1732.43 L1238.24 1732.06 L1244.68 1732.06 L1244.68 1730.33 L1251.11 1730.33 L1251.11 1729.58 L1257.55 1729.58 L1257.55 1728.72 L1263.98 1728.72 L1263.98 1728.72 L1270.54 1728.72 L1270.54 1727.85 L1276.98 1727.85 L1276.98 1727.48 L1283.41 1727.48 L1283.41 1726.61 L1289.85 1726.61 L1289.85 1725.38 L1296.28 1725.38 L1296.28 1724.63 L1302.72 1724.63 L1302.72 1723.77 L1309.28 1723.77 L1309.28 1723.03 L1315.71 1723.03 L1315.71 1721.79 L1322.14 1721.79 L1322.14 1720.92 L1328.58 1720.92 L1328.58 1720.92 L1335.02 1720.92 L1335.02 1719.31 L1341.45 1719.31 L1341.45 1718.45 L1348.01 1718.45 L1348.01 1718.07 L1354.44 1718.07 L1354.44 1712.26 L1367.31 1712.26 L1367.31 1712.26 L1373.75 1712.26 L1373.75 1711.89 L1393.18 1711.89 L1393.18 1711.52 L1399.61 1711.52 L1399.61 1711.02 L1406.05 1711.02 L1406.05 1710.65 L1412.48 1710.65 L1412.48 1710.28 L1418.92 1710.28 L1418.92 1709.78 L1425.35 1709.78 L1425.35 1709.41 L1431.91 1709.41 L1431.91 1707.31 L1438.35 1707.31 L1438.35 1707.31 L1444.78 1707.31 L1444.78 1706.94 L1451.22 1706.94 L1451.22 1706.57 L1457.65 1706.57 L1457.65 1706.57 L1464.09 1706.57 L1464.09 1706.07 L1470.64 1706.07 L1470.64 1706.07 L1477.08 1706.07 L1477.08 1705.33 L1483.52 1705.33 L1483.52 1704.83 L1489.95 1704.83 L1489.95 1704.46 L1496.38 1704.46 L1496.38 1703.60 L1502.82 1703.60 L1502.82 1703.60 L1509.26 1703.60 L1509.26 1703.22 L1515.81 1703.22 L1515.81 1703.22 L1522.25 1703.22 L1522.25 1703.22 L1528.68 1703.22 L1528.68 1703.22 L1535.12 1703.22 L1535.12 1701.99 L1541.55 1701.99 L1541.55 1701.62 L1547.99 1701.62 L1547.99 1701.12 L1554.55 1701.12 L1554.55 1699.88 L1567.42 1699.88 L1567.42 1699.88 L1573.85 1699.88 L1573.85 1699.51 L1586.72 1699.51 L1586.72 1699.51 L1593.28 1699.51 L1593.28 1699.51 L1599.72 1699.51 L1599.72 1699.51 L1606.15 1699.51 L1606.15 1699.51 L1612.59 1699.51 L1612.59 1699.51 L1619.02 1699.51 L1619.02 1699.14 L1625.46 1699.14 L1625.46 1699.14 L1631.89 1699.14 L1631.89 1699.14 L1638.45 1699.14 L1638.45 1699.14 L1644.88 1699.14 L1644.88 1699.14 L1651.32 1699.14 L1651.32 1699.14 L1657.76 1699.14 L1657.76 1699.14 L1664.19 1699.14 L1664.19 1698.77 L1670.63 1698.77 L1670.63 1698.77 L1677.18 1698.77 L1677.18 1698.77 L1683.62 1698.77 L1683.62 1698.77 L1690.05 1698.77 L1690.05 1698.77 L1696.49 1698.77 L1696.49 1698.77 L1702.92 1698.77 L1702.92 1698.77 L1709.36 1698.77 L1709.36 1698.77 L1715.92 1698.77 L1715.92 1698.77 L1722.35 1698.77 L1722.35 1698.77 L1728.79 1698.77 L1728.79 1698.77 L1735.22 1698.77 L1735.22 1698.77 L1741.66 1698.77 L1741.66 1698.77 L1748.09 1698.77 L1748.09 1698.27 L1780.39 1698.27 L1780.39 1698.27 L1793.26 1698.27 L1793.26 1698.27 L1799.82 1698.27 L1799.82 1698.27 L1806.26 1698.27 L1806.26 1698.27 L1819.13 1698.27 L1819.13 1698.27 L1831.99 1698.27 L1831.99 1698.27 L1838.43 1698.27 L1838.43 1698.27 L1851.42 1698.27 L1851.42 1698.27 L1870.73 1698.27 L1870.73 1698.27" stroke-linejoin="round" style="fill:none;stroke:#6E8E84;stroke-width:6.48"/>
	<line x1="635.70" y1="1873.51" x2="635.70" y2="414.45" style="stroke:#000000;stroke-width:4.32"/>
	<line x1="635.70" y1="1825.99" x2="605.63" y2="1825.99" style="stroke:#000000;stroke-width:4.32"/>
	<text x="590.66" y="1852.27" style="font-family:'Helvetica';font-size:74.99px;fill:#000000" text-anchor="end">0.000</text>
	<line x1="635.70" y1="1280.36" x2="605.63" y2="1280.36" style="stroke:#000000;stroke-width:4.32"/>
	<text x="590.66" y="1306.64" style="font-family:'Helvetica';font-size:74.99px;fill:#000000" text-anchor="end">0.002</text>
	<line x1="635.70" y1="734.73" x2="605.63" y2="734.73" style="stroke:#000000;stroke-width:4.32"/>
	<text x="590.66" y="761.01" style="font-family:'Helvetica';font-size:74.99px;fill:#000000" text-anchor="end">0.004</text>
	<line x1="635.70" y1="1873.51" x2="2021.58" y2="1873.51" style="stroke:#000000;stroke-width:4.32"/>
	<line x1="683.22" y1="1873.51" x2="683.22" y2="1903.46" style="stroke:#000000;stroke-width:4.32"/>
	<text x="683.22" y="1970.87" style="font-family:'Helvetica';font-size:74.99px;fill:#000000" text-anchor="middle">1 Feb 20</text>
	<line x1="870.33" y1="1873.51" x2="870.33" y2="1903.46" style="stroke:#000000;stroke-width:4.32"/>
	<text x="870.33" y="1970.87" style="font-family:'Helvetica';font-size:74.99px;fill:#000000" text-anchor="middle">1 Mar 20</text>
	<line x1="1070.44" y1="1873.51" x2="1070.44" y2="1903.46" style="stroke:#000000;stroke-width:4.32"/>
	<text x="1070.44" y="1970.87" style="font-family:'Helvetica';font-size:74.99px;fill:#000000" text-anchor="middle">1 Apr 20</text>
	<line x1="1270.54" y1="1873.51" x2="1270.54" y2="1903.46" style="stroke:#000000;stroke-width:4.32"/>
	<text x="1270.54" y="1970.87" style="font-family:'Helvetica';font-size:74.99px;fill:#000000" text-anchor="middle">1 May 20</text>
	<line x1="1464.21" y1="1873.51" x2="1464.21" y2="1903.46" style="stroke:#000000;stroke-width:4.32"/>
	<text x="1464.21" y="1970.87" style="font-family:'Helvetica';font-size:74.99px;fill:#000000" text-anchor="middle">1 June 20</text>
	<line x1="1657.88" y1="1873.51" x2="1657.88" y2="1903.46" style="stroke:#000000;stroke-width:4.32"/>
	<text x="1657.88" y="1970.87" style="font-family:'Helvetica';font-size:74.99px;fill:#000000" text-anchor="middle">1 July 20</text>
	<line x1="1857.86" y1="1873.51" x2="1857.86" y2="1903.46" style="stroke:#000000;stroke-width:4.32"/>
	<text x="1857.86" y="1970.87" style="font-family:'Helvetica';font-size:74.99px;fill:#000000" text-anchor="middle">1 Aug 20</text>
	<text x="1328.70" y="2053.41" style="font-family:'Helvetica';font-size:74.99px;fill:#000000" text-anchor="middle"> </text>
	<text x="1328.70" y="369.91" style="font-family:'Helvetica';font-size:104.94px;fill:#1E2D53" text-anchor="middle">Female</text>
	<rect x="2097.19" y="207.91" width="1799.33" height="1958.65" style="fill:#EAF2F3"/>
	<rect x="2099.35" y="210.07" width="1795.01" height="1954.33" style="fill:none;stroke:#EAF2F3;stroke-width:4.32"/>
	<rect x="2435.03" y="414.45" width="1385.88" height="1459.06" style="fill:#FFFFFF"/>
	<rect x="2437.19" y="416.61" width="1381.56" height="1454.74" style="fill:none;stroke:#FFFFFF;stroke-width:4.32"/>
	<line x1="2435.03" y1="1825.99" x2="3820.91" y2="1825.99" style="stroke:#EAF2F3;stroke-width:6.48"/>
	<line x1="2435.03" y1="1280.36" x2="3820.91" y2="1280.36" style="stroke:#EAF2F3;stroke-width:6.48"/>
	<line x1="2435.03" y1="734.73" x2="3820.91" y2="734.73" style="stroke:#EAF2F3;stroke-width:6.48"/>
	<path d=" M2488.86 1825.99 L2501.85 1825.99 L2501.85 1825.99 L2521.16 1825.99 L2521.16 1825.99 L2547.02 1825.99 L2547.02 1825.99 L2566.33 1825.99 L2566.33 1825.99 L2572.76 1825.99 L2572.76 1825.86 L2579.20 1825.86 L2579.20 1825.86 L2605.06 1825.86 L2605.06 1825.86 L2617.93 1825.86 L2617.93 1825.86 L2624.49 1825.86 L2624.49 1825.86 L2637.36 1825.86 L2637.36 1825.86 L2650.23 1825.86 L2650.23 1825.86 L2656.66 1825.86 L2656.66 1825.86 L2663.22 1825.86 L2663.22 1825.86 L2669.66 1825.86 L2669.66 1825.86 L2676.09 1825.86 L2676.09 1825.86 L2701.83 1825.86 L2701.83 1825.86 L2708.39 1825.86 L2708.39 1825.86 L2721.26 1825.86 L2721.26 1825.86 L2727.70 1825.86 L2727.70 1825.86 L2734.13 1825.86 L2734.13 1825.86 L2740.57 1825.86 L2740.57 1825.86 L2747.13 1825.86 L2747.13 1825.86 L2753.56 1825.86 L2753.56 1825.86 L2760.00 1825.86 L2760.00 1825.86 L2766.43 1825.86 L2766.43 1825.62 L2772.87 1825.62 L2772.87 1825.62 L2785.86 1825.62 L2785.86 1825.62 L2811.60 1825.62 L2811.60 1825.49 L2818.03 1825.49 L2818.03 1824.87 L2824.47 1824.87 L2824.47 1824.63 L2831.03 1824.63 L2831.03 1824.63 L2837.46 1824.63 L2837.46 1824.13 L2843.90 1824.13 L2843.90 1824.13 L2850.33 1824.13 L2850.33 1823.51 L2856.77 1823.51 L2856.77 1823.14 L2863.20 1823.14 L2863.20 1822.89 L2869.76 1822.89 L2869.76 1822.77 L2882.63 1822.77 L2882.63 1822.52 L2889.07 1822.52 L2889.07 1822.52 L2895.50 1822.52 L2895.50 1822.15 L2901.94 1822.15 L2901.94 1822.15 L2908.50 1822.15 L2908.50 1821.90 L2914.93 1821.90 L2914.93 1821.90 L2921.37 1821.90 L2921.37 1821.90 L2927.80 1821.90 L2927.80 1821.41 L2934.24 1821.41 L2934.24 1821.16 L2940.67 1821.16 L2940.67 1820.91 L2947.11 1820.91 L2947.11 1820.91 L2953.66 1820.91 L2953.66 1820.91 L2960.10 1820.91 L2960.10 1820.91 L2985.84 1820.91 L2985.84 1820.79 L2992.40 1820.79 L2992.40 1820.54 L3037.57 1820.54 L3037.57 1820.42 L3069.74 1820.42 L3069.74 1820.42 L3089.17 1820.42 L3089.17 1820.42 L3102.04 1820.42 L3102.04 1820.17 L3108.48 1820.17 L3108.48 1820.17 L3121.47 1820.17 L3121.47 1820.17 L3127.91 1820.17 L3127.91 1820.17 L3140.78 1820.17 L3140.78 1820.17 L3153.77 1820.17 L3153.77 1820.05 L3173.07 1820.05 L3173.07 1819.80 L3198.94 1819.80 L3198.94 1819.80 L3211.81 1819.80 L3211.81 1819.80 L3224.68 1819.80 L3224.68 1819.80 L3237.67 1819.80 L3237.67 1819.80 L3244.11 1819.80 L3244.11 1819.80 L3256.98 1819.80 L3256.98 1819.80 L3263.41 1819.80 L3263.41 1819.55 L3276.41 1819.55 L3276.41 1819.55 L3295.71 1819.55 L3295.71 1819.55 L3308.58 1819.55 L3308.58 1819.55 L3321.57 1819.55 L3321.57 1819.55 L3328.01 1819.55 L3328.01 1819.55 L3340.88 1819.55 L3340.88 1819.55 L3347.31 1819.55 L3347.31 1819.55 L3353.75 1819.55 L3353.75 1819.55 L3411.91 1819.55 L3411.91 1819.55 L3424.78 1819.55 L3424.78 1819.55 L3437.65 1819.55 L3437.65 1819.43 L3482.94 1819.43 L3482.94 1819.43 L3489.38 1819.43 L3489.38 1819.18 L3495.81 1819.18 L3495.81 1819.18 L3508.68 1819.18 L3508.68 1819.18 L3547.42 1819.18 L3547.42 1819.18 L3670.05 1819.18 L3670.05 1819.18" stroke-linejoin="round" style="fill:none;stroke:#1A476F;stroke-width:6.48"/>
	<path d=" M2501.85 1825.99 L2508.29 1825.99 L2508.29 1825.99 L2514.72 1825.99 L2514.72 1825.99 L2527.59 1825.99 L2527.59 1825.99 L2534.03 1825.99 L2534.03 1825.99 L2553.46 1825.99 L2553.46 1825.99 L2572.76 1825.99 L2572.76 1825.99 L2585.76 1825.99 L2585.76 1825.99 L2592.19 1825.99 L2592.19 1825.99 L2598.63 1825.99 L2598.63 1825.99 L2611.50 1825.99 L2611.50 1825.99 L2624.49 1825.99 L2624.49 1825.99 L2643.80 1825.99 L2643.80 1825.99 L2650.23 1825.99 L2650.23 1825.99 L2656.66 1825.99 L2656.66 1825.99 L2663.22 1825.99 L2663.22 1825.99 L2669.66 1825.99 L2669.66 1825.99 L2682.53 1825.99 L2682.53 1825.99 L2688.96 1825.99 L2688.96 1825.99 L2695.40 1825.99 L2695.40 1825.99 L2708.39 1825.99 L2708.39 1825.99 L2714.83 1825.99 L2714.83 1825.99 L2727.70 1825.99 L2727.70 1825.86 L2734.13 1825.86 L2734.13 1825.86 L2740.57 1825.86 L2740.57 1825.86 L2747.13 1825.86 L2747.13 1825.62 L2753.56 1825.62 L2753.56 1825.49 L2760.00 1825.49 L2760.00 1825.25 L2766.43 1825.25 L2766.43 1824.87 L2772.87 1824.87 L2772.87 1824.63 L2779.30 1824.63 L2779.30 1824.63 L2785.86 1824.63 L2785.86 1824.50 L2792.30 1824.50 L2792.30 1824.26 L2798.73 1824.26 L2798.73 1824.01 L2805.16 1824.01 L2805.16 1823.64 L2811.60 1823.64 L2811.60 1823.51 L2818.03 1823.51 L2818.03 1822.65 L2824.47 1822.65 L2824.47 1821.66 L2831.03 1821.66 L2831.03 1820.42 L2837.46 1820.42 L2837.46 1819.92 L2843.90 1819.92 L2843.90 1819.31 L2850.33 1819.31 L2850.33 1819.06 L2856.77 1819.06 L2856.77 1819.06 L2863.20 1819.06 L2863.20 1818.93 L2869.76 1818.93 L2869.76 1818.07 L2876.20 1818.07 L2876.20 1817.08 L2882.63 1817.08 L2882.63 1816.46 L2889.07 1816.46 L2889.07 1816.34 L2895.50 1816.34 L2895.50 1815.35 L2901.94 1815.35 L2901.94 1814.48 L2908.50 1814.48 L2908.50 1813.74 L2914.93 1813.74 L2914.93 1812.87 L2921.37 1812.87 L2921.37 1812.38 L2927.80 1812.38 L2927.80 1811.76 L2934.24 1811.76 L2934.24 1811.51 L2940.67 1811.51 L2940.67 1810.77 L2947.11 1810.77 L2947.11 1810.52 L2953.66 1810.52 L2953.66 1810.27 L2960.10 1810.27 L2960.10 1809.53 L2966.53 1809.53 L2966.53 1809.28 L2972.97 1809.28 L2972.97 1809.16 L2979.41 1809.16 L2979.41 1808.91 L2985.84 1808.91 L2985.84 1808.79 L2992.40 1808.79 L2992.40 1808.29 L2998.83 1808.29 L2998.83 1808.17 L3005.27 1808.17 L3005.27 1807.92 L3011.70 1807.92 L3011.70 1807.30 L3018.14 1807.30 L3018.14 1807.30 L3024.57 1807.30 L3024.57 1807.18 L3031.13 1807.18 L3031.13 1807.18 L3044.00 1807.18 L3044.00 1806.68 L3063.31 1806.68 L3063.31 1806.68 L3069.74 1806.68 L3069.74 1806.56 L3076.30 1806.56 L3076.30 1806.31 L3082.74 1806.31 L3082.74 1806.31 L3089.17 1806.31 L3089.17 1806.31 L3095.61 1806.31 L3095.61 1806.19 L3102.04 1806.19 L3102.04 1805.94 L3108.48 1805.94 L3108.48 1805.69 L3115.03 1805.69 L3115.03 1805.32 L3140.78 1805.32 L3140.78 1805.32 L3147.21 1805.32 L3147.21 1805.20 L3153.77 1805.20 L3153.77 1805.20 L3160.20 1805.20 L3160.20 1805.20 L3166.64 1805.20 L3166.64 1804.95 L3173.07 1804.95 L3173.07 1804.70 L3179.51 1804.70 L3179.51 1804.70 L3192.38 1804.70 L3192.38 1804.70 L3211.81 1804.70 L3211.81 1804.70 L3224.68 1804.70 L3224.68 1804.58 L3231.11 1804.58 L3231.11 1804.58 L3244.11 1804.58 L3244.11 1804.58 L3250.54 1804.58 L3250.54 1804.58 L3256.98 1804.58 L3256.98 1804.33 L3263.41 1804.33 L3263.41 1804.21 L3269.85 1804.21 L3269.85 1804.21 L3276.41 1804.21 L3276.41 1804.21 L3289.28 1804.21 L3289.28 1803.96 L3295.71 1803.96 L3295.71 1803.71 L3302.14 1803.71 L3302.14 1803.71 L3308.58 1803.71 L3308.58 1803.71 L3315.01 1803.71 L3315.01 1803.71 L3321.57 1803.71 L3321.57 1803.71 L3340.88 1803.71 L3340.88 1803.71 L3347.31 1803.71 L3347.31 1803.34 L3353.75 1803.34 L3353.75 1803.34 L3366.74 1803.34 L3366.74 1803.09 L3386.05 1803.09 L3386.05 1803.09 L3392.48 1803.09 L3392.48 1802.97 L3424.78 1802.97 L3424.78 1802.72 L3431.22 1802.72 L3431.22 1802.60 L3450.64 1802.60 L3450.64 1802.60 L3457.08 1802.60 L3457.08 1802.60 L3463.51 1802.60 L3463.51 1802.60 L3469.95 1802.60 L3469.95 1802.35 L3489.38 1802.35 L3489.38 1802.35 L3508.68 1802.35 L3508.68 1802.35 L3515.12 1802.35 L3515.12 1802.35 L3521.55 1802.35 L3521.55 1802.35 L3528.11 1802.35 L3528.11 1802.35 L3534.55 1802.35 L3534.55 1802.35 L3540.98 1802.35 L3540.98 1802.35 L3547.42 1802.35 L3547.42 1802.35 L3618.45 1802.35 L3618.45 1802.35 L3624.89 1802.35 L3624.89 1802.35 L3637.76 1802.35 L3637.76 1802.35 L3670.05 1802.35 L3670.05 1802.35" stroke-linejoin="round" style="fill:none;stroke:#90353B;stroke-width:6.48"/>
	<path d=" M2488.86 1825.99 L2495.30 1825.99 L2495.30 1825.99 L2501.85 1825.99 L2501.85 1825.99 L2508.29 1825.99 L2508.29 1825.99 L2514.72 1825.99 L2514.72 1825.99 L2521.16 1825.99 L2521.16 1825.99 L2527.59 1825.99 L2527.59 1825.99 L2534.03 1825.99 L2534.03 1825.99 L2540.59 1825.99 L2540.59 1825.99 L2547.02 1825.99 L2547.02 1825.99 L2553.46 1825.99 L2553.46 1825.99 L2559.89 1825.99 L2559.89 1825.99 L2566.33 1825.99 L2566.33 1825.99 L2572.76 1825.99 L2572.76 1825.99 L2579.20 1825.99 L2579.20 1825.99 L2592.19 1825.99 L2592.19 1825.99 L2605.06 1825.99 L2605.06 1825.99 L2617.93 1825.99 L2617.93 1825.99 L2624.49 1825.99 L2624.49 1825.99 L2630.93 1825.99 L2630.93 1825.99 L2637.36 1825.99 L2637.36 1825.99 L2643.80 1825.99 L2643.80 1825.99 L2650.23 1825.99 L2650.23 1825.99 L2656.66 1825.99 L2656.66 1825.99 L2663.22 1825.99 L2663.22 1825.99 L2669.66 1825.99 L2669.66 1825.99 L2676.09 1825.99 L2676.09 1825.99 L2682.53 1825.99 L2682.53 1825.99 L2688.96 1825.99 L2688.96 1825.99 L2695.40 1825.99 L2695.40 1825.99 L2701.83 1825.99 L2701.83 1825.99 L2708.39 1825.99 L2708.39 1825.99 L2714.83 1825.99 L2714.83 1825.99 L2721.26 1825.99 L2721.26 1825.99 L2727.70 1825.99 L2727.70 1825.99 L2734.13 1825.99 L2734.13 1825.86 L2740.57 1825.86 L2740.57 1825.86 L2747.13 1825.86 L2747.13 1825.86 L2753.56 1825.86 L2753.56 1825.86 L2760.00 1825.86 L2760.00 1825.62 L2766.43 1825.62 L2766.43 1825.00 L2772.87 1825.00 L2772.87 1825.00 L2779.30 1825.00 L2779.30 1824.75 L2785.86 1824.75 L2785.86 1824.38 L2792.30 1824.38 L2792.30 1823.64 L2798.73 1823.64 L2798.73 1823.51 L2805.16 1823.51 L2805.16 1822.77 L2811.60 1822.77 L2811.60 1822.15 L2818.03 1822.15 L2818.03 1821.29 L2824.47 1821.29 L2824.47 1820.67 L2831.03 1820.67 L2831.03 1817.94 L2837.46 1817.94 L2837.46 1817.08 L2843.90 1817.08 L2843.90 1816.34 L2850.33 1816.34 L2850.33 1813.86 L2856.77 1813.86 L2856.77 1811.88 L2863.20 1811.88 L2863.20 1810.40 L2869.76 1810.40 L2869.76 1808.42 L2876.20 1808.42 L2876.20 1805.45 L2882.63 1805.45 L2882.63 1804.21 L2889.07 1804.21 L2889.07 1801.11 L2895.50 1801.11 L2895.50 1798.76 L2901.94 1798.76 L2901.94 1797.28 L2908.50 1797.28 L2908.50 1796.04 L2914.93 1796.04 L2914.93 1793.19 L2921.37 1793.19 L2921.37 1791.71 L2927.80 1791.71 L2927.80 1789.60 L2934.24 1789.60 L2934.24 1787.62 L2940.67 1787.62 L2940.67 1786.02 L2947.11 1786.02 L2947.11 1785.27 L2953.66 1785.27 L2953.66 1783.79 L2960.10 1783.79 L2960.10 1780.57 L2966.53 1780.57 L2966.53 1779.95 L2972.97 1779.95 L2972.97 1779.09 L2979.41 1779.09 L2979.41 1777.97 L2985.84 1777.97 L2985.84 1777.35 L2992.40 1777.35 L2992.40 1776.36 L2998.83 1776.36 L2998.83 1775.62 L3005.27 1775.62 L3005.27 1775.00 L3011.70 1775.00 L3011.70 1775.00 L3018.14 1775.00 L3018.14 1774.75 L3024.57 1774.75 L3024.57 1774.38 L3031.13 1774.38 L3031.13 1774.14 L3037.57 1774.14 L3037.57 1772.90 L3044.00 1772.90 L3044.00 1772.40 L3050.44 1772.40 L3050.44 1772.03 L3056.87 1772.03 L3056.87 1771.41 L3063.31 1771.41 L3063.31 1771.41 L3069.74 1771.41 L3069.74 1771.17 L3076.30 1771.17 L3076.30 1770.05 L3082.74 1770.05 L3082.74 1769.43 L3089.17 1769.43 L3089.17 1769.43 L3095.61 1769.43 L3095.61 1769.19 L3102.04 1769.19 L3102.04 1769.19 L3108.48 1769.19 L3108.48 1768.81 L3115.03 1768.81 L3115.03 1768.57 L3121.47 1768.57 L3121.47 1767.95 L3127.91 1767.95 L3127.91 1767.95 L3134.34 1767.95 L3134.34 1767.95 L3140.78 1767.95 L3140.78 1767.45 L3147.21 1767.45 L3147.21 1767.08 L3153.77 1767.08 L3153.77 1766.22 L3160.20 1766.22 L3160.20 1766.22 L3166.64 1766.22 L3166.64 1765.97 L3173.07 1765.97 L3173.07 1765.97 L3179.51 1765.97 L3179.51 1765.97 L3185.94 1765.97 L3185.94 1765.97 L3192.38 1765.97 L3192.38 1765.84 L3198.94 1765.84 L3198.94 1765.60 L3205.37 1765.60 L3205.37 1765.60 L3218.24 1765.60 L3218.24 1765.60 L3224.68 1765.60 L3224.68 1765.10 L3231.11 1765.10 L3231.11 1764.73 L3237.67 1764.73 L3237.67 1764.48 L3244.11 1764.48 L3244.11 1764.48 L3250.54 1764.48 L3250.54 1764.48 L3256.98 1764.48 L3256.98 1764.48 L3263.41 1764.48 L3263.41 1764.48 L3269.85 1764.48 L3269.85 1764.48 L3276.41 1764.48 L3276.41 1764.48 L3282.84 1764.48 L3282.84 1764.48 L3289.28 1764.48 L3289.28 1764.48 L3295.71 1764.48 L3295.71 1764.24 L3302.14 1764.24 L3302.14 1763.86 L3308.58 1763.86 L3308.58 1763.37 L3315.01 1763.37 L3315.01 1763.37 L3321.57 1763.37 L3321.57 1763.37 L3328.01 1763.37 L3328.01 1763.37 L3334.44 1763.37 L3334.44 1763.00 L3340.88 1763.00 L3340.88 1762.75 L3347.31 1762.75 L3347.31 1762.75 L3353.75 1762.75 L3353.75 1762.63 L3360.31 1762.63 L3360.31 1762.63 L3366.74 1762.63 L3366.74 1762.63 L3373.18 1762.63 L3373.18 1762.38 L3386.05 1762.38 L3386.05 1762.38 L3392.48 1762.38 L3392.48 1762.38 L3399.04 1762.38 L3399.04 1762.38 L3405.48 1762.38 L3405.48 1762.38 L3411.91 1762.38 L3411.91 1762.38 L3418.35 1762.38 L3418.35 1762.13 L3424.78 1762.13 L3424.78 1762.13 L3431.22 1762.13 L3431.22 1762.13 L3437.65 1762.13 L3437.65 1762.13 L3444.21 1762.13 L3444.21 1761.88 L3450.64 1761.88 L3450.64 1761.88 L3457.08 1761.88 L3457.08 1761.88 L3463.51 1761.88 L3463.51 1761.88 L3469.95 1761.88 L3469.95 1761.88 L3476.39 1761.88 L3476.39 1761.88 L3482.94 1761.88 L3482.94 1761.88 L3489.38 1761.88 L3489.38 1761.88 L3495.81 1761.88 L3495.81 1761.76 L3502.25 1761.76 L3502.25 1761.76 L3508.68 1761.76 L3508.68 1761.76 L3515.12 1761.76 L3515.12 1761.76 L3521.55 1761.76 L3521.55 1761.76 L3528.11 1761.76 L3528.11 1761.76 L3534.55 1761.76 L3534.55 1761.76 L3540.98 1761.76 L3540.98 1761.51 L3547.42 1761.51 L3547.42 1761.51 L3586.15 1761.51 L3586.15 1761.51 L3605.58 1761.51 L3605.58 1761.51 L3618.45 1761.51 L3618.45 1761.27 L3624.89 1761.27 L3624.89 1761.27 L3631.32 1761.27 L3631.32 1761.27 L3637.76 1761.27 L3637.76 1761.27 L3644.19 1761.27 L3644.19 1761.27 L3670.05 1761.27 L3670.05 1761.27" stroke-linejoin="round" style="fill:none;stroke:#55752F;stroke-width:6.48"/>
	<path d=" M2488.86 1825.99 L2495.30 1825.99 L2495.30 1825.99 L2501.85 1825.99 L2501.85 1825.99 L2508.29 1825.99 L2508.29 1825.99 L2514.72 1825.99 L2514.72 1825.99 L2521.16 1825.99 L2521.16 1825.99 L2527.59 1825.99 L2527.59 1825.99 L2534.03 1825.99 L2534.03 1825.99 L2540.59 1825.99 L2540.59 1825.99 L2547.02 1825.99 L2547.02 1825.99 L2553.46 1825.99 L2553.46 1825.99 L2559.89 1825.99 L2559.89 1825.99 L2566.33 1825.99 L2566.33 1825.99 L2572.76 1825.99 L2572.76 1825.99 L2579.20 1825.99 L2579.20 1825.99 L2585.76 1825.99 L2585.76 1825.99 L2592.19 1825.99 L2592.19 1825.99 L2598.63 1825.99 L2598.63 1825.99 L2605.06 1825.99 L2605.06 1825.99 L2611.50 1825.99 L2611.50 1825.99 L2617.93 1825.99 L2617.93 1825.99 L2624.49 1825.99 L2624.49 1825.99 L2630.93 1825.99 L2630.93 1825.99 L2637.36 1825.99 L2637.36 1825.99 L2643.80 1825.99 L2643.80 1825.99 L2650.23 1825.99 L2650.23 1825.99 L2656.66 1825.99 L2656.66 1825.99 L2663.22 1825.99 L2663.22 1825.99 L2669.66 1825.99 L2669.66 1825.99 L2676.09 1825.99 L2676.09 1825.99 L2682.53 1825.99 L2682.53 1825.99 L2688.96 1825.99 L2688.96 1825.99 L2695.40 1825.99 L2695.40 1825.99 L2701.83 1825.99 L2701.83 1825.99 L2708.39 1825.99 L2708.39 1825.99 L2714.83 1825.99 L2714.83 1825.99 L2721.26 1825.99 L2721.26 1825.99 L2727.70 1825.99 L2727.70 1825.86 L2734.13 1825.86 L2734.13 1825.25 L2740.57 1825.25 L2740.57 1825.25 L2747.13 1825.25 L2747.13 1825.25 L2753.56 1825.25 L2753.56 1825.25 L2760.00 1825.25 L2760.00 1822.77 L2766.43 1822.77 L2766.43 1822.52 L2772.87 1822.52 L2772.87 1822.28 L2779.30 1822.28 L2779.30 1821.53 L2785.86 1821.53 L2785.86 1820.05 L2792.30 1820.05 L2792.30 1819.18 L2798.73 1819.18 L2798.73 1818.44 L2805.16 1818.44 L2805.16 1817.57 L2811.60 1817.57 L2811.60 1816.95 L2818.03 1816.95 L2818.03 1814.23 L2824.47 1814.23 L2824.47 1811.14 L2831.03 1811.14 L2831.03 1806.81 L2837.46 1806.81 L2837.46 1801.73 L2843.90 1801.73 L2843.90 1797.77 L2850.33 1797.77 L2850.33 1794.43 L2856.77 1794.43 L2856.77 1790.97 L2863.20 1790.97 L2863.20 1785.15 L2869.76 1785.15 L2869.76 1779.58 L2876.20 1779.58 L2876.20 1775.25 L2882.63 1775.25 L2882.63 1770.92 L2889.07 1770.92 L2889.07 1766.96 L2895.50 1766.96 L2895.50 1762.63 L2901.94 1762.63 L2901.94 1757.92 L2908.50 1757.92 L2908.50 1753.34 L2914.93 1753.34 L2914.93 1748.02 L2921.37 1748.02 L2921.37 1744.43 L2927.80 1744.43 L2927.80 1741.22 L2934.24 1741.22 L2934.24 1738.49 L2940.67 1738.49 L2940.67 1735.65 L2947.11 1735.65 L2947.11 1732.93 L2953.66 1732.93 L2953.66 1730.08 L2960.10 1730.08 L2960.10 1717.70 L2966.53 1717.70 L2966.53 1716.47 L2972.97 1716.47 L2972.97 1715.60 L2979.41 1715.60 L2979.41 1714.73 L2985.84 1714.73 L2985.84 1713.50 L2992.40 1713.50 L2992.40 1712.63 L2998.83 1712.63 L2998.83 1711.27 L3005.27 1711.27 L3005.27 1710.65 L3011.70 1710.65 L3011.70 1710.15 L3018.14 1710.15 L3018.14 1708.55 L3024.57 1708.55 L3024.57 1707.31 L3031.13 1707.31 L3031.13 1706.32 L3037.57 1706.32 L3037.57 1705.70 L3044.00 1705.70 L3044.00 1705.08 L3050.44 1705.08 L3050.44 1704.21 L3056.87 1704.21 L3056.87 1702.73 L3063.31 1702.73 L3063.31 1701.99 L3069.74 1701.99 L3069.74 1701.37 L3076.30 1701.37 L3076.30 1700.75 L3082.74 1700.75 L3082.74 1699.64 L3089.17 1699.64 L3089.17 1699.02 L3095.61 1699.02 L3095.61 1698.65 L3102.04 1698.65 L3102.04 1698.03 L3108.48 1698.03 L3108.48 1695.92 L3115.03 1695.92 L3115.03 1695.68 L3121.47 1695.68 L3121.47 1695.30 L3127.91 1695.30 L3127.91 1694.93 L3134.34 1694.93 L3134.34 1694.31 L3140.78 1694.31 L3140.78 1693.45 L3147.21 1693.45 L3147.21 1693.08 L3153.77 1693.08 L3153.77 1688.87 L3166.64 1688.87 L3166.64 1688.25 L3173.07 1688.25 L3173.07 1688.13 L3179.51 1688.13 L3179.51 1688.13 L3185.94 1688.13 L3185.94 1687.88 L3192.38 1687.88 L3192.38 1687.63 L3198.94 1687.63 L3198.94 1687.63 L3205.37 1687.63 L3205.37 1687.01 L3211.81 1687.01 L3211.81 1687.01 L3218.24 1687.01 L3218.24 1687.01 L3224.68 1687.01 L3224.68 1687.01 L3231.11 1687.01 L3231.11 1686.39 L3237.67 1686.39 L3237.67 1686.27 L3244.11 1686.27 L3244.11 1685.78 L3250.54 1685.78 L3250.54 1685.40 L3256.98 1685.40 L3256.98 1685.03 L3263.41 1685.03 L3263.41 1684.79 L3269.85 1684.79 L3269.85 1684.41 L3276.41 1684.41 L3276.41 1684.41 L3282.84 1684.41 L3282.84 1684.17 L3289.28 1684.17 L3289.28 1683.92 L3295.71 1683.92 L3295.71 1683.55 L3302.14 1683.55 L3302.14 1683.30 L3308.58 1683.30 L3308.58 1683.30 L3315.01 1683.30 L3315.01 1682.56 L3321.57 1682.56 L3321.57 1682.56 L3328.01 1682.56 L3328.01 1681.94 L3334.44 1681.94 L3334.44 1681.94 L3340.88 1681.94 L3340.88 1681.32 L3347.31 1681.32 L3347.31 1681.32 L3353.75 1681.32 L3353.75 1680.58 L3360.31 1680.58 L3360.31 1680.45 L3366.74 1680.45 L3366.74 1680.45 L3379.61 1680.45 L3379.61 1680.21 L3386.05 1680.21 L3386.05 1680.21 L3392.48 1680.21 L3392.48 1680.21 L3399.04 1680.21 L3399.04 1679.96 L3405.48 1679.96 L3405.48 1679.83 L3411.91 1679.83 L3411.91 1679.83 L3418.35 1679.83 L3418.35 1679.83 L3424.78 1679.83 L3424.78 1679.34 L3431.22 1679.34 L3431.22 1679.34 L3437.65 1679.34 L3437.65 1679.34 L3444.21 1679.34 L3444.21 1678.97 L3450.64 1678.97 L3450.64 1678.97 L3457.08 1678.97 L3457.08 1678.97 L3463.51 1678.97 L3463.51 1678.97 L3469.95 1678.97 L3469.95 1678.72 L3476.39 1678.72 L3476.39 1678.72 L3482.94 1678.72 L3482.94 1678.60 L3489.38 1678.60 L3489.38 1678.60 L3495.81 1678.60 L3495.81 1678.35 L3502.25 1678.35 L3502.25 1678.35 L3508.68 1678.35 L3508.68 1678.10 L3515.12 1678.10 L3515.12 1678.10 L3521.55 1678.10 L3521.55 1678.10 L3528.11 1678.10 L3528.11 1678.10 L3534.55 1678.10 L3534.55 1678.10 L3540.98 1678.10 L3540.98 1677.73 L3547.42 1677.73 L3547.42 1676.86 L3560.29 1676.86 L3560.29 1676.86 L3566.85 1676.86 L3566.85 1676.86 L3579.72 1676.86 L3579.72 1676.86 L3586.15 1676.86 L3586.15 1676.86 L3599.02 1676.86 L3599.02 1676.74 L3605.58 1676.74 L3605.58 1676.74 L3612.01 1676.74 L3612.01 1676.74 L3618.45 1676.74 L3618.45 1676.74 L3624.89 1676.74 L3624.89 1676.74 L3631.32 1676.74 L3631.32 1676.74 L3637.76 1676.74 L3637.76 1676.49 L3644.19 1676.49 L3644.19 1676.25 L3650.75 1676.25 L3650.75 1676.25 L3670.05 1676.25 L3670.05 1676.25" stroke-linejoin="round" style="fill:none;stroke:#E37E00;stroke-width:6.48"/>
	<path d=" M2488.86 1825.99 L2495.30 1825.99 L2495.30 1825.99 L2501.85 1825.99 L2501.85 1825.99 L2508.29 1825.99 L2508.29 1825.99 L2514.72 1825.99 L2514.72 1825.99 L2521.16 1825.99 L2521.16 1825.99 L2527.59 1825.99 L2527.59 1825.99 L2534.03 1825.99 L2534.03 1825.99 L2540.59 1825.99 L2540.59 1825.99 L2547.02 1825.99 L2547.02 1825.99 L2553.46 1825.99 L2553.46 1825.99 L2559.89 1825.99 L2559.89 1825.99 L2566.33 1825.99 L2566.33 1825.99 L2572.76 1825.99 L2572.76 1825.99 L2579.20 1825.99 L2579.20 1825.99 L2585.76 1825.99 L2585.76 1825.99 L2592.19 1825.99 L2592.19 1825.99 L2598.63 1825.99 L2598.63 1825.99 L2605.06 1825.99 L2605.06 1825.99 L2611.50 1825.99 L2611.50 1825.99 L2617.93 1825.99 L2617.93 1825.99 L2624.49 1825.99 L2624.49 1825.99 L2630.93 1825.99 L2630.93 1825.99 L2637.36 1825.99 L2637.36 1825.99 L2643.80 1825.99 L2643.80 1825.99 L2650.23 1825.99 L2650.23 1825.99 L2656.66 1825.99 L2656.66 1825.99 L2663.22 1825.99 L2663.22 1825.99 L2669.66 1825.99 L2669.66 1825.99 L2676.09 1825.99 L2676.09 1825.62 L2682.53 1825.62 L2682.53 1825.62 L2688.96 1825.62 L2688.96 1825.62 L2695.40 1825.62 L2695.40 1825.62 L2701.83 1825.62 L2701.83 1825.62 L2708.39 1825.62 L2708.39 1825.25 L2714.83 1825.25 L2714.83 1825.25 L2721.26 1825.25 L2721.26 1825.25 L2727.70 1825.25 L2727.70 1825.25 L2734.13 1825.25 L2734.13 1824.01 L2740.57 1824.01 L2740.57 1824.01 L2747.13 1824.01 L2747.13 1823.14 L2753.56 1823.14 L2753.56 1823.14 L2760.00 1823.14 L2760.00 1817.70 L2766.43 1817.70 L2766.43 1816.83 L2772.87 1816.83 L2772.87 1815.59 L2779.30 1815.59 L2779.30 1813.98 L2785.86 1813.98 L2785.86 1813.49 L2792.30 1813.49 L2792.30 1811.88 L2798.73 1811.88 L2798.73 1810.15 L2805.16 1810.15 L2805.16 1808.04 L2811.60 1808.04 L2811.60 1804.33 L2818.03 1804.33 L2818.03 1801.36 L2824.47 1801.36 L2824.47 1799.26 L2831.03 1799.26 L2831.03 1797.15 L2837.46 1797.15 L2837.46 1792.20 L2843.90 1792.20 L2843.90 1786.39 L2850.33 1786.39 L2850.33 1779.21 L2856.77 1779.21 L2856.77 1773.76 L2863.20 1773.76 L2863.20 1763.74 L2869.76 1763.74 L2869.76 1757.06 L2876.20 1757.06 L2876.20 1752.11 L2882.63 1752.11 L2882.63 1747.03 L2889.07 1747.03 L2889.07 1738.25 L2895.50 1738.25 L2895.50 1729.96 L2901.94 1729.96 L2901.94 1722.78 L2908.50 1722.78 L2908.50 1715.23 L2914.93 1715.23 L2914.93 1705.20 L2921.37 1705.20 L2921.37 1695.68 L2927.80 1695.68 L2927.80 1690.97 L2934.24 1690.97 L2934.24 1685.16 L2940.67 1685.16 L2940.67 1678.84 L2947.11 1678.84 L2947.11 1673.89 L2953.66 1673.89 L2953.66 1670.06 L2960.10 1670.06 L2960.10 1645.80 L2966.53 1645.80 L2966.53 1645.43 L2972.97 1645.43 L2972.97 1644.57 L2979.41 1644.57 L2979.41 1642.96 L2985.84 1642.96 L2985.84 1641.22 L2992.40 1641.22 L2992.40 1639.61 L2998.83 1639.61 L2998.83 1637.51 L3005.27 1637.51 L3005.27 1637.02 L3011.70 1637.02 L3011.70 1636.27 L3018.14 1636.27 L3018.14 1633.30 L3024.57 1633.30 L3024.57 1631.57 L3031.13 1631.57 L3031.13 1629.96 L3037.57 1629.96 L3037.57 1627.49 L3044.00 1627.49 L3044.00 1626.62 L3050.44 1626.62 L3050.44 1625.38 L3056.87 1625.38 L3056.87 1622.41 L3063.31 1622.41 L3063.31 1620.68 L3069.74 1620.68 L3069.74 1619.44 L3076.30 1619.44 L3076.30 1618.21 L3082.74 1618.21 L3082.74 1616.97 L3089.17 1616.97 L3089.17 1616.10 L3095.61 1616.10 L3095.61 1612.76 L3102.04 1612.76 L3102.04 1610.29 L3108.48 1610.29 L3108.48 1607.32 L3115.03 1607.32 L3115.03 1606.08 L3121.47 1606.08 L3121.47 1604.84 L3127.91 1604.84 L3127.91 1604.47 L3134.34 1604.47 L3134.34 1601.87 L3140.78 1601.87 L3140.78 1600.26 L3147.21 1600.26 L3147.21 1598.53 L3153.77 1598.53 L3153.77 1592.22 L3166.64 1592.22 L3166.64 1592.22 L3173.07 1592.22 L3173.07 1592.22 L3179.51 1592.22 L3179.51 1592.22 L3185.94 1592.22 L3185.94 1592.22 L3192.38 1592.22 L3192.38 1591.85 L3198.94 1591.85 L3198.94 1591.47 L3205.37 1591.47 L3205.37 1591.47 L3211.81 1591.47 L3211.81 1591.47 L3218.24 1591.47 L3218.24 1591.47 L3224.68 1591.47 L3224.68 1591.47 L3231.11 1591.47 L3231.11 1590.98 L3237.67 1590.98 L3237.67 1589.74 L3244.11 1589.74 L3244.11 1588.01 L3250.54 1588.01 L3250.54 1587.64 L3256.98 1587.64 L3256.98 1585.53 L3263.41 1585.53 L3263.41 1585.53 L3269.85 1585.53 L3269.85 1584.30 L3276.41 1584.30 L3276.41 1583.93 L3282.84 1583.93 L3282.84 1582.56 L3289.28 1582.56 L3289.28 1582.19 L3295.71 1582.19 L3295.71 1581.33 L3302.14 1581.33 L3302.14 1580.09 L3308.58 1580.09 L3308.58 1580.09 L3315.01 1580.09 L3315.01 1579.72 L3321.57 1579.72 L3321.57 1579.22 L3328.01 1579.22 L3328.01 1578.85 L3334.44 1578.85 L3334.44 1578.48 L3340.88 1578.48 L3340.88 1578.48 L3347.31 1578.48 L3347.31 1577.61 L3353.75 1577.61 L3353.75 1575.88 L3360.31 1575.88 L3360.31 1575.88 L3366.74 1575.88 L3366.74 1575.51 L3373.18 1575.51 L3373.18 1575.51 L3379.61 1575.51 L3379.61 1575.51 L3386.05 1575.51 L3386.05 1575.51 L3392.48 1575.51 L3392.48 1575.51 L3399.04 1575.51 L3399.04 1575.51 L3405.48 1575.51 L3405.48 1575.02 L3411.91 1575.02 L3411.91 1575.02 L3418.35 1575.02 L3418.35 1574.27 L3424.78 1574.27 L3424.78 1573.78 L3431.22 1573.78 L3431.22 1573.78 L3437.65 1573.78 L3437.65 1573.78 L3444.21 1573.78 L3444.21 1573.04 L3450.64 1573.04 L3450.64 1573.04 L3457.08 1573.04 L3457.08 1572.54 L3463.51 1572.54 L3463.51 1572.54 L3469.95 1572.54 L3469.95 1572.54 L3476.39 1572.54 L3476.39 1572.54 L3482.94 1572.54 L3482.94 1572.54 L3489.38 1572.54 L3489.38 1572.54 L3495.81 1572.54 L3495.81 1572.54 L3502.25 1572.54 L3502.25 1572.54 L3508.68 1572.54 L3508.68 1572.17 L3515.12 1572.17 L3515.12 1571.30 L3521.55 1571.30 L3521.55 1571.30 L3528.11 1571.30 L3528.11 1571.30 L3534.55 1571.30 L3534.55 1571.30 L3540.98 1571.30 L3540.98 1571.30 L3547.42 1571.30 L3547.42 1570.93 L3586.15 1570.93 L3586.15 1570.93 L3592.59 1570.93 L3592.59 1570.93 L3599.02 1570.93 L3599.02 1570.93 L3605.58 1570.93 L3605.58 1570.93 L3612.01 1570.93 L3612.01 1570.93 L3618.45 1570.93 L3618.45 1570.93 L3624.89 1570.93 L3624.89 1570.93 L3631.32 1570.93 L3631.32 1570.93 L3644.19 1570.93 L3644.19 1570.93 L3657.18 1570.93 L3657.18 1570.93 L3670.05 1570.93 L3670.05 1570.93" stroke-linejoin="round" style="fill:none;stroke:#6E8E84;stroke-width:6.48"/>
	<line x1="2435.03" y1="1873.51" x2="2435.03" y2="414.45" style="stroke:#000000;stroke-width:4.32"/>
	<line x1="2435.03" y1="1825.99" x2="2404.96" y2="1825.99" style="stroke:#000000;stroke-width:4.32"/>
	<text x="2389.98" y="1852.27" style="font-family:'Helvetica';font-size:74.99px;fill:#000000" text-anchor="end">0.000</text>
	<line x1="2435.03" y1="1280.36" x2="2404.96" y2="1280.36" style="stroke:#000000;stroke-width:4.32"/>
	<text x="2389.98" y="1306.64" style="font-family:'Helvetica';font-size:74.99px;fill:#000000" text-anchor="end">0.002</text>
	<line x1="2435.03" y1="734.73" x2="2404.96" y2="734.73" style="stroke:#000000;stroke-width:4.32"/>
	<text x="2389.98" y="761.01" style="font-family:'Helvetica';font-size:74.99px;fill:#000000" text-anchor="end">0.004</text>
	<line x1="2435.03" y1="1873.51" x2="3820.91" y2="1873.51" style="stroke:#000000;stroke-width:4.32"/>
	<line x1="2482.55" y1="1873.51" x2="2482.55" y2="1903.46" style="stroke:#000000;stroke-width:4.32"/>
	<text x="2482.55" y="1970.87" style="font-family:'Helvetica';font-size:74.99px;fill:#000000" text-anchor="middle">1 Feb 20</text>
	<line x1="2669.66" y1="1873.51" x2="2669.66" y2="1903.46" style="stroke:#000000;stroke-width:4.32"/>
	<text x="2669.66" y="1970.87" style="font-family:'Helvetica';font-size:74.99px;fill:#000000" text-anchor="middle">1 Mar 20</text>
	<line x1="2869.76" y1="1873.51" x2="2869.76" y2="1903.46" style="stroke:#000000;stroke-width:4.32"/>
	<text x="2869.76" y="1970.87" style="font-family:'Helvetica';font-size:74.99px;fill:#000000" text-anchor="middle">1 Apr 20</text>
	<line x1="3069.87" y1="1873.51" x2="3069.87" y2="1903.46" style="stroke:#000000;stroke-width:4.32"/>
	<text x="3069.87" y="1970.87" style="font-family:'Helvetica';font-size:74.99px;fill:#000000" text-anchor="middle">1 May 20</text>
	<line x1="3263.53" y1="1873.51" x2="3263.53" y2="1903.46" style="stroke:#000000;stroke-width:4.32"/>
	<text x="3263.53" y="1970.87" style="font-family:'Helvetica';font-size:74.99px;fill:#000000" text-anchor="middle">1 June 20</text>
	<line x1="3457.08" y1="1873.51" x2="3457.08" y2="1903.46" style="stroke:#000000;stroke-width:4.32"/>
	<text x="3457.08" y="1970.87" style="font-family:'Helvetica';font-size:74.99px;fill:#000000" text-anchor="middle">1 July 20</text>
	<line x1="3657.18" y1="1873.51" x2="3657.18" y2="1903.46" style="stroke:#000000;stroke-width:4.32"/>
	<text x="3657.18" y="1970.87" style="font-family:'Helvetica';font-size:74.99px;fill:#000000" text-anchor="middle">1 Aug 20</text>
	<text x="3127.91" y="2053.41" style="font-family:'Helvetica';font-size:74.99px;fill:#000000" text-anchor="middle"> </text>
	<text x="3127.91" y="369.91" style="font-family:'Helvetica';font-size:104.94px;fill:#1E2D53" text-anchor="middle">Male</text>
	<text x="150.62" y="1187.29" style="font-family:'Helvetica';font-size:99.99px;fill:#000000" transform="rotate(-90 150.62,1187.29)" text-anchor="middle">Cumulative probability</text>
	<text x="250.61" y="1187.29" style="font-family:'Helvetica';font-size:99.99px;fill:#000000" transform="rotate(-90 250.61,1187.29)" text-anchor="middle">of COVID-19 death</text>
	<text x="2097.19" y="157.51" style="font-family:'Helvetica';font-size:110.01px;fill:#000000" text-anchor="middle"> </text>
	<rect x="1151.12" y="2201.21" width="1892.26" height="580.90" style="fill:#FFFFFF"/>
	<rect x="1154.00" y="2204.09" width="1886.50" height="575.14" style="fill:none;stroke:#000000;stroke-width:5.76"/>
	<line x1="1194.31" y1="2408.87" x2="1568.65" y2="2408.87" style="stroke:#1A476F;stroke-width:8.64"/>
	<line x1="1194.31" y1="2548.83" x2="1568.65" y2="2548.83" style="stroke:#90353B;stroke-width:8.64"/>
	<line x1="1194.31" y1="2688.92" x2="1568.65" y2="2688.92" style="stroke:#55752F;stroke-width:8.64"/>
	<line x1="2004.26" y1="2408.87" x2="2378.60" y2="2408.87" style="stroke:#E37E00;stroke-width:8.64"/>
	<line x1="2004.26" y1="2548.83" x2="2378.60" y2="2548.83" style="stroke:#6E8E84;stroke-width:8.64"/>
	<text x="1628.67" y="2436.88" style="font-family:'Helvetica';font-size:79.94px;fill:#000000">18-&lt;30</text>
	<text x="1628.67" y="2576.85" style="font-family:'Helvetica';font-size:79.94px;fill:#000000">30-&lt;40</text>
	<text x="1628.67" y="2716.94" style="font-family:'Helvetica';font-size:79.94px;fill:#000000">40-&lt;50</text>
	<text x="2438.62" y="2436.88" style="font-family:'Helvetica';font-size:79.94px;fill:#000000">50-&lt;60</text>
	<text x="2438.62" y="2576.85" style="font-family:'Helvetica';font-size:79.94px;fill:#000000">60-&lt;70</text>
	<text x="2438.62" y="2716.94" style="font-family:'Helvetica';font-size:79.94px;fill:#000000">70-&lt;80</text>
	<text x="2874.22" y="2436.88" style="font-family:'Helvetica';font-size:79.94px;fill:#000000">80+</text>
	<text x="2097.19" y="2308.96" style="font-family:'Helvetica';font-size:79.94px;fill:#000000" text-anchor="middle">Age group</text>
</svg>
