<?xml version="1.0" encoding="UTF-8" standalone="no"?>
<!-- This is a Stata 16.1 generated SVG file (http://www.stata.com) -->

<svg version="1.1" width="5.50in" height="4.00in" viewBox="0 0 3960 2880" xmlns="http://www.w3.org/2000/svg" xmlns:xlink="http://www.w3.org/1999/xlink">
	<desc>Stata Graph - Graph</desc>
	<rect x="0" y="0" width="3960" height="2880" style="fill:#EAF2F3;stroke:none"/>
	<rect x="0.00" y="0.00" width="3959.88" height="2880.00" style="fill:#EAF2F3"/>
	<rect x="2.88" y="2.88" width="3954.12" height="2874.24" style="fill:none;stroke:#EAF2F3;stroke-width:5.76"/>
	<rect x="297.87" y="207.91" width="1799.32" height="1958.65" style="fill:#EAF2F3"/>
	<rect x="300.03" y="210.07" width="1795.01" height="1954.33" style="fill:none;stroke:#EAF2F3;stroke-width:4.32"/>
	<rect x="635.70" y="414.45" width="1385.88" height="1459.06" style="fill:#FFFFFF"/>
	<rect x="637.86" y="416.61" width="1381.56" height="1454.74" style="fill:none;stroke:#FFFFFF;stroke-width:4.32"/>
	<line x1="635.70" y1="1825.99" x2="2021.58" y2="1825.99" style="stroke:#EAF2F3;stroke-width:6.48"/>
	<line x1="635.70" y1="1280.36" x2="2021.58" y2="1280.36" style="stroke:#EAF2F3;stroke-width:6.48"/>
	<line x1="635.70" y1="734.73" x2="2021.58" y2="734.73" style="stroke:#EAF2F3;stroke-width:6.48"/>
	<path d=" M689.53 1825.99 L696.09 1825.99 L696.09 1825.99 L702.53 1825.99 L702.53 1825.99 L708.96 1825.99 L708.96 1825.99 L715.40 1825.99 L715.40 1825.99 L721.83 1825.99 L721.83 1825.99 L728.27 1825.99 L728.27 1825.99 L734.83 1825.99 L734.83 1825.99 L741.26 1825.99 L741.26 1825.99 L747.70 1825.99 L747.70 1825.99 L754.13 1825.99 L754.13 1825.99 L760.57 1825.99 L760.57 1825.99 L767.00 1825.99 L767.00 1825.99 L773.56 1825.99 L773.56 1824.75 L786.43 1824.75 L786.43 1824.75 L792.87 1824.75 L792.87 1824.75 L799.30 1824.75 L799.30 1824.75 L805.74 1824.75 L805.74 1824.75 L812.17 1824.75 L812.17 1824.75 L818.73 1824.75 L818.73 1824.75 L825.16 1824.75 L825.16 1824.75 L831.60 1824.75 L831.60 1824.75 L838.03 1824.75 L838.03 1824.75 L844.47 1824.75 L844.47 1824.75 L850.90 1824.75 L850.90 1824.75 L857.46 1824.75 L857.46 1824.75 L863.90 1824.75 L863.90 1824.75 L870.33 1824.75 L870.33 1824.75 L876.77 1824.75 L876.77 1824.75 L883.20 1824.75 L883.20 1824.75 L889.64 1824.75 L889.64 1824.75 L896.20 1824.75 L896.20 1824.75 L902.63 1824.75 L902.63 1824.75 L909.07 1824.75 L909.07 1824.75 L915.50 1824.75 L915.50 1824.01 L921.94 1824.01 L921.94 1823.39 L928.37 1823.39 L928.37 1823.39 L934.81 1823.39 L934.81 1823.39 L941.37 1823.39 L941.37 1822.65 L947.80 1822.65 L947.80 1822.65 L954.24 1822.65 L954.24 1822.65 L960.67 1822.65 L960.67 1813.37 L967.11 1813.37 L967.11 1812.75 L980.10 1812.75 L980.10 1812.00 L986.53 1812.00 L986.53 1812.00 L992.97 1812.00 L992.97 1812.00 L999.40 1812.00 L999.40 1812.00 L1005.84 1812.00 L1005.84 1811.39 L1012.27 1811.39 L1012.27 1811.39 L1018.71 1811.39 L1018.71 1809.41 L1025.27 1809.41 L1025.27 1808.04 L1031.70 1808.04 L1031.70 1807.30 L1038.14 1807.30 L1038.14 1803.34 L1044.57 1803.34 L1044.57 1800.62 L1051.01 1800.62 L1051.01 1799.38 L1057.44 1799.38 L1057.44 1798.02 L1064.00 1798.02 L1064.00 1793.94 L1070.44 1793.94 L1070.44 1791.96 L1076.87 1791.96 L1076.87 1788.61 L1083.31 1788.61 L1083.31 1783.91 L1089.74 1783.91 L1089.74 1779.95 L1096.18 1779.95 L1096.18 1775.25 L1102.74 1775.25 L1102.74 1771.29 L1109.17 1771.29 L1109.17 1766.59 L1115.61 1766.59 L1115.61 1763.86 L1122.04 1763.86 L1122.04 1760.52 L1128.48 1760.52 L1128.48 1755.20 L1134.91 1755.20 L1134.91 1747.90 L1141.35 1747.90 L1141.35 1743.82 L1147.90 1743.82 L1147.90 1742.45 L1154.34 1742.45 L1154.34 1739.86 L1160.78 1739.86 L1160.78 1717.83 L1167.21 1717.83 L1167.21 1717.83 L1173.64 1717.83 L1173.64 1717.08 L1180.08 1717.08 L1180.08 1716.47 L1186.64 1716.47 L1186.64 1715.10 L1193.07 1715.10 L1193.07 1715.10 L1199.51 1715.10 L1199.51 1714.49 L1205.94 1714.49 L1205.94 1713.74 L1212.38 1713.74 L1212.38 1713.74 L1218.81 1713.74 L1218.81 1713.12 L1225.37 1713.12 L1225.37 1712.38 L1231.81 1712.38 L1231.81 1711.76 L1238.24 1711.76 L1238.24 1711.14 L1244.68 1711.14 L1244.68 1711.14 L1251.11 1711.14 L1251.11 1709.04 L1257.55 1709.04 L1257.55 1706.44 L1263.98 1706.44 L1263.98 1703.72 L1270.54 1703.72 L1270.54 1702.36 L1276.98 1702.36 L1276.98 1702.36 L1283.41 1702.36 L1283.41 1701.00 L1289.85 1701.00 L1289.85 1699.02 L1296.28 1699.02 L1296.28 1697.04 L1302.72 1697.04 L1302.72 1696.42 L1309.28 1696.42 L1309.28 1695.06 L1315.71 1695.06 L1315.71 1692.33 L1322.14 1692.33 L1322.14 1691.72 L1328.58 1691.72 L1328.58 1689.74 L1335.02 1689.74 L1335.02 1686.27 L1341.45 1686.27 L1341.45 1685.03 L1348.01 1685.03 L1348.01 1684.29 L1354.44 1684.29 L1354.44 1680.95 L1380.18 1680.95 L1380.18 1680.95 L1386.62 1680.95 L1386.62 1680.33 L1393.18 1680.33 L1393.18 1680.33 L1399.61 1680.33 L1399.61 1679.59 L1406.05 1679.59 L1406.05 1679.59 L1412.48 1679.59 L1412.48 1678.35 L1418.92 1678.35 L1418.92 1678.35 L1425.35 1678.35 L1425.35 1678.35 L1431.91 1678.35 L1431.91 1678.35 L1438.35 1678.35 L1438.35 1677.61 L1444.78 1677.61 L1444.78 1676.25 L1451.22 1676.25 L1451.22 1676.25 L1457.65 1676.25 L1457.65 1675.63 L1464.09 1675.63 L1464.09 1675.63 L1470.64 1675.63 L1470.64 1673.65 L1477.08 1673.65 L1477.08 1672.90 L1483.52 1672.90 L1483.52 1672.29 L1489.95 1672.29 L1489.95 1672.29 L1496.38 1672.29 L1496.38 1672.29 L1502.82 1672.29 L1502.82 1672.29 L1509.26 1672.29 L1509.26 1670.92 L1515.81 1670.92 L1515.81 1670.92 L1522.25 1670.92 L1522.25 1670.92 L1528.68 1670.92 L1528.68 1670.92 L1535.12 1670.92 L1535.12 1670.31 L1541.55 1670.31 L1541.55 1670.31 L1547.99 1670.31 L1547.99 1670.31 L1554.55 1670.31 L1554.55 1668.20 L1560.98 1668.20 L1560.98 1667.58 L1567.42 1667.58 L1567.42 1667.58 L1573.85 1667.58 L1573.85 1667.58 L1580.29 1667.58 L1580.29 1667.58 L1586.72 1667.58 L1586.72 1667.58 L1593.28 1667.58 L1593.28 1666.96 L1599.72 1666.96 L1599.72 1666.22 L1606.15 1666.22 L1606.15 1665.60 L1612.59 1665.60 L1612.59 1664.86 L1619.02 1664.86 L1619.02 1664.86 L1625.46 1664.86 L1625.46 1663.50 L1631.89 1663.50 L1631.89 1662.88 L1638.45 1662.88 L1638.45 1662.88 L1644.88 1662.88 L1644.88 1662.88 L1651.32 1662.88 L1651.32 1662.26 L1657.76 1662.26 L1657.76 1662.26 L1664.19 1662.26 L1664.19 1661.52 L1670.63 1661.52 L1670.63 1661.52 L1677.18 1661.52 L1677.18 1661.52 L1683.62 1661.52 L1683.62 1660.90 L1690.05 1660.90 L1690.05 1660.90 L1696.49 1660.90 L1696.49 1660.90 L1702.92 1660.90 L1702.92 1660.90 L1709.36 1660.90 L1709.36 1660.90 L1715.92 1660.90 L1715.92 1660.16 L1722.35 1660.16 L1722.35 1660.16 L1728.79 1660.16 L1728.79 1660.16 L1735.22 1660.16 L1735.22 1660.16 L1741.66 1660.16 L1741.66 1659.54 L1748.09 1659.54 L1748.09 1657.56 L1780.39 1657.56 L1780.39 1657.56 L1793.26 1657.56 L1793.26 1657.56 L1806.26 1657.56 L1806.26 1657.56 L1812.69 1657.56 L1812.69 1657.56 L1819.13 1657.56 L1819.13 1657.56 L1825.56 1657.56 L1825.56 1657.56 L1831.99 1657.56 L1831.99 1657.56 L1838.43 1657.56 L1838.43 1657.56 L1870.73 1657.56 L1870.73 1657.56" stroke-linejoin="round" style="fill:none;stroke:#1A476F;stroke-width:6.48"/>
	<path d=" M689.53 1825.99 L696.09 1825.99 L696.09 1825.99 L702.53 1825.99 L702.53 1825.99 L708.96 1825.99 L708.96 1825.99 L715.40 1825.99 L715.40 1825.99 L721.83 1825.99 L721.83 1825.99 L728.27 1825.99 L728.27 1825.99 L734.83 1825.99 L734.83 1825.99 L741.26 1825.99 L741.26 1825.99 L747.70 1825.99 L747.70 1825.99 L754.13 1825.99 L754.13 1825.99 L760.57 1825.99 L760.57 1825.99 L767.00 1825.99 L767.00 1825.99 L773.56 1825.99 L773.56 1825.49 L780.00 1825.49 L780.00 1825.49 L786.43 1825.49 L786.43 1825.49 L792.87 1825.49 L792.87 1825.49 L799.30 1825.49 L799.30 1825.49 L805.74 1825.49 L805.74 1825.49 L812.17 1825.49 L812.17 1825.49 L818.73 1825.49 L818.73 1825.49 L825.16 1825.49 L825.16 1825.49 L831.60 1825.49 L831.60 1825.49 L838.03 1825.49 L838.03 1825.49 L844.47 1825.49 L844.47 1825.49 L850.90 1825.49 L850.90 1825.49 L857.46 1825.49 L857.46 1825.49 L863.90 1825.49 L863.90 1825.49 L870.33 1825.49 L870.33 1825.49 L876.77 1825.49 L876.77 1825.49 L883.20 1825.49 L883.20 1825.49 L889.64 1825.49 L889.64 1825.49 L896.20 1825.49 L896.20 1825.49 L902.63 1825.49 L902.63 1825.49 L909.07 1825.49 L909.07 1825.49 L915.50 1825.49 L915.50 1825.49 L921.94 1825.49 L921.94 1825.12 L928.37 1825.12 L928.37 1825.12 L934.81 1825.12 L934.81 1825.12 L941.37 1825.12 L941.37 1825.12 L947.80 1825.12 L947.80 1825.12 L954.24 1825.12 L954.24 1825.12 L960.67 1825.12 L960.67 1817.57 L967.11 1817.57 L967.11 1817.57 L973.54 1817.57 L973.54 1817.57 L980.10 1817.57 L980.10 1816.95 L986.53 1816.95 L986.53 1816.95 L992.97 1816.95 L992.97 1816.34 L999.40 1816.34 L999.40 1815.72 L1005.84 1815.72 L1005.84 1815.22 L1012.27 1815.22 L1012.27 1814.85 L1018.71 1814.85 L1018.71 1812.75 L1025.27 1812.75 L1025.27 1809.78 L1031.70 1809.78 L1031.70 1807.05 L1038.14 1807.05 L1038.14 1803.71 L1044.57 1803.71 L1044.57 1799.38 L1051.01 1799.38 L1051.01 1795.17 L1057.44 1795.17 L1057.44 1791.34 L1064.00 1791.34 L1064.00 1786.39 L1070.44 1786.39 L1070.44 1781.56 L1076.87 1781.56 L1076.87 1773.76 L1083.31 1773.76 L1083.31 1765.23 L1089.74 1765.23 L1089.74 1756.44 L1096.18 1756.44 L1096.18 1747.16 L1102.74 1747.16 L1102.74 1740.10 L1109.17 1740.10 L1109.17 1732.31 L1115.61 1732.31 L1115.61 1724.14 L1122.04 1724.14 L1122.04 1716.84 L1128.48 1716.84 L1128.48 1710.53 L1134.91 1710.53 L1134.91 1704.21 L1141.35 1704.21 L1141.35 1695.68 L1147.90 1695.68 L1147.90 1691.10 L1154.34 1691.10 L1154.34 1685.65 L1160.78 1685.65 L1160.78 1636.03 L1167.21 1636.03 L1167.21 1635.78 L1173.64 1635.78 L1173.64 1635.41 L1180.08 1635.41 L1180.08 1634.29 L1186.64 1634.29 L1186.64 1633.67 L1193.07 1633.67 L1193.07 1633.06 L1199.51 1633.06 L1199.51 1632.68 L1205.94 1632.68 L1205.94 1632.07 L1212.38 1632.07 L1212.38 1631.82 L1218.81 1631.82 L1218.81 1631.82 L1225.37 1631.82 L1225.37 1630.33 L1231.81 1630.33 L1231.81 1629.34 L1238.24 1629.34 L1238.24 1627.24 L1244.68 1627.24 L1244.68 1625.75 L1251.11 1625.75 L1251.11 1622.17 L1257.55 1622.17 L1257.55 1618.82 L1263.98 1618.82 L1263.98 1614.49 L1270.54 1614.49 L1270.54 1613.01 L1276.98 1613.01 L1276.98 1610.90 L1283.41 1610.90 L1283.41 1605.46 L1289.85 1605.46 L1289.85 1602.98 L1296.28 1602.98 L1296.28 1600.88 L1302.72 1600.88 L1302.72 1599.64 L1309.28 1599.64 L1309.28 1597.54 L1315.71 1597.54 L1315.71 1596.42 L1322.14 1596.42 L1322.14 1594.82 L1328.58 1594.82 L1328.58 1593.95 L1335.02 1593.95 L1335.02 1592.09 L1341.45 1592.09 L1341.45 1589.74 L1348.01 1589.74 L1348.01 1588.75 L1354.44 1588.75 L1354.44 1573.90 L1367.31 1573.90 L1367.31 1573.90 L1373.75 1573.90 L1373.75 1573.28 L1380.18 1573.28 L1380.18 1573.04 L1386.62 1573.04 L1386.62 1573.04 L1393.18 1573.04 L1393.18 1572.42 L1399.61 1572.42 L1399.61 1571.80 L1406.05 1571.80 L1406.05 1570.56 L1412.48 1570.56 L1412.48 1569.94 L1418.92 1569.94 L1418.92 1568.83 L1425.35 1568.83 L1425.35 1567.84 L1431.91 1567.84 L1431.91 1567.84 L1438.35 1567.84 L1438.35 1566.35 L1444.78 1566.35 L1444.78 1565.12 L1451.22 1565.12 L1451.22 1562.39 L1457.65 1562.39 L1457.65 1561.53 L1464.09 1561.53 L1464.09 1559.05 L1470.64 1559.05 L1470.64 1558.43 L1477.08 1558.43 L1477.08 1557.19 L1483.52 1557.19 L1483.52 1556.33 L1489.95 1556.33 L1489.95 1555.09 L1496.38 1555.09 L1496.38 1554.84 L1502.82 1554.84 L1502.82 1553.85 L1509.26 1553.85 L1509.26 1552.74 L1515.81 1552.74 L1515.81 1551.75 L1522.25 1551.75 L1522.25 1550.51 L1528.68 1550.51 L1528.68 1549.89 L1535.12 1549.89 L1535.12 1549.65 L1541.55 1549.65 L1541.55 1548.78 L1547.99 1548.78 L1547.99 1548.16 L1554.55 1548.16 L1554.55 1542.72 L1560.98 1542.72 L1560.98 1542.34 L1567.42 1542.34 L1567.42 1542.34 L1573.85 1542.34 L1573.85 1542.34 L1580.29 1542.34 L1580.29 1542.34 L1586.72 1542.34 L1586.72 1541.48 L1593.28 1541.48 L1593.28 1541.48 L1599.72 1541.48 L1599.72 1541.48 L1606.15 1541.48 L1606.15 1540.86 L1612.59 1540.86 L1612.59 1540.86 L1619.02 1540.86 L1619.02 1540.49 L1625.46 1540.49 L1625.46 1539.62 L1631.89 1539.62 L1631.89 1539.62 L1638.45 1539.62 L1638.45 1539.37 L1644.88 1539.37 L1644.88 1538.38 L1651.32 1538.38 L1651.32 1537.77 L1657.76 1537.77 L1657.76 1537.77 L1664.19 1537.77 L1664.19 1537.77 L1670.63 1537.77 L1670.63 1537.52 L1677.18 1537.52 L1677.18 1536.03 L1683.62 1536.03 L1683.62 1535.66 L1690.05 1535.66 L1690.05 1535.66 L1696.49 1535.66 L1696.49 1535.41 L1702.92 1535.41 L1702.92 1534.18 L1709.36 1534.18 L1709.36 1534.18 L1715.92 1534.18 L1715.92 1534.18 L1722.35 1534.18 L1722.35 1534.18 L1728.79 1534.18 L1728.79 1533.56 L1735.22 1533.56 L1735.22 1532.94 L1741.66 1532.94 L1741.66 1532.57 L1748.09 1532.57 L1748.09 1529.23 L1761.09 1529.23 L1761.09 1528.98 L1773.96 1528.98 L1773.96 1528.98 L1780.39 1528.98 L1780.39 1528.98 L1786.83 1528.98 L1786.83 1528.98 L1793.26 1528.98 L1793.26 1528.98 L1799.82 1528.98 L1799.82 1528.98 L1806.26 1528.98 L1806.26 1528.98 L1812.69 1528.98 L1812.69 1528.98 L1819.13 1528.98 L1819.13 1528.36 L1825.56 1528.36 L1825.56 1528.36 L1831.99 1528.36 L1831.99 1528.36 L1838.43 1528.36 L1838.43 1528.36 L1844.99 1528.36 L1844.99 1528.36 L1851.42 1528.36 L1851.42 1528.36 L1864.29 1528.36 L1864.29 1528.11 L1870.73 1528.11 L1870.73 1528.11" stroke-linejoin="round" style="fill:none;stroke:#90353B;stroke-width:6.48"/>
	<path d=" M689.53 1825.99 L696.09 1825.99 L696.09 1825.99 L702.53 1825.99 L702.53 1825.99 L708.96 1825.99 L708.96 1825.99 L715.40 1825.99 L715.40 1825.99 L721.83 1825.99 L721.83 1825.99 L728.27 1825.99 L728.27 1825.99 L734.83 1825.99 L734.83 1825.99 L741.26 1825.99 L741.26 1825.99 L747.70 1825.99 L747.70 1825.99 L754.13 1825.99 L754.13 1825.99 L760.57 1825.99 L760.57 1825.99 L767.00 1825.99 L767.00 1825.99 L773.56 1825.99 L773.56 1818.69 L780.00 1818.69 L780.00 1818.69 L786.43 1818.69 L786.43 1818.69 L792.87 1818.69 L792.87 1818.69 L799.30 1818.69 L799.30 1818.69 L805.74 1818.69 L805.74 1818.69 L812.17 1818.69 L812.17 1818.69 L818.73 1818.69 L818.73 1818.69 L825.16 1818.69 L825.16 1818.69 L831.60 1818.69 L831.60 1818.69 L838.03 1818.69 L838.03 1818.69 L844.47 1818.69 L844.47 1818.69 L850.90 1818.69 L850.90 1818.69 L857.46 1818.69 L857.46 1818.69 L863.90 1818.69 L863.90 1818.69 L870.33 1818.69 L870.33 1818.69 L876.77 1818.69 L876.77 1818.69 L883.20 1818.69 L883.20 1818.69 L889.64 1818.69 L889.64 1818.69 L896.20 1818.69 L896.20 1818.69 L902.63 1818.69 L902.63 1818.69 L909.07 1818.69 L909.07 1818.69 L915.50 1818.69 L915.50 1818.69 L921.94 1818.69 L921.94 1818.69 L928.37 1818.69 L928.37 1818.19 L934.81 1818.19 L934.81 1818.19 L941.37 1818.19 L941.37 1818.19 L947.80 1818.19 L947.80 1818.19 L954.24 1818.19 L954.24 1818.19 L960.67 1818.19 L960.67 1779.58 L967.11 1779.58 L967.11 1779.09 L973.54 1779.09 L973.54 1779.09 L980.10 1779.09 L980.10 1778.59 L986.53 1778.59 L986.53 1778.10 L992.97 1778.10 L992.97 1777.11 L999.40 1777.11 L999.40 1776.12 L1005.84 1776.12 L1005.84 1775.62 L1012.27 1775.62 L1012.27 1773.15 L1018.71 1773.15 L1018.71 1770.67 L1025.27 1770.67 L1025.27 1769.68 L1031.70 1769.68 L1031.70 1765.72 L1038.14 1765.72 L1038.14 1759.78 L1044.57 1759.78 L1044.57 1754.33 L1051.01 1754.33 L1051.01 1748.89 L1057.44 1748.89 L1057.44 1736.39 L1064.00 1736.39 L1064.00 1723.52 L1070.44 1723.52 L1070.44 1710.65 L1076.87 1710.65 L1076.87 1696.67 L1083.31 1696.67 L1083.31 1680.33 L1089.74 1680.33 L1089.74 1656.94 L1096.18 1656.94 L1096.18 1639.99 L1102.74 1639.99 L1102.74 1624.15 L1109.17 1624.15 L1109.17 1602.74 L1115.61 1602.74 L1115.61 1571.92 L1122.04 1571.92 L1122.04 1544.45 L1128.48 1544.45 L1128.48 1513.63 L1134.91 1513.63 L1134.91 1493.21 L1141.35 1493.21 L1141.35 1465.37 L1147.90 1465.37 L1147.90 1440.99 L1154.34 1440.99 L1154.34 1418.59 L1160.78 1418.59 L1160.78 1149.05 L1167.21 1149.05 L1167.21 1148.44 L1173.64 1148.44 L1173.64 1146.46 L1180.08 1146.46 L1180.08 1144.97 L1186.64 1144.97 L1186.64 1144.48 L1193.07 1144.48 L1193.07 1143.49 L1199.51 1143.49 L1199.51 1140.02 L1205.94 1140.02 L1205.94 1137.55 L1212.38 1137.55 L1212.38 1135.94 L1218.81 1135.94 L1218.81 1130.99 L1225.37 1130.99 L1225.37 1126.53 L1231.81 1126.53 L1231.81 1121.95 L1238.24 1121.95 L1238.24 1115.02 L1244.68 1115.02 L1244.68 1107.97 L1251.11 1107.97 L1251.11 1095.96 L1257.55 1095.96 L1257.55 1086.93 L1263.98 1086.93 L1263.98 1068.00 L1270.54 1068.00 L1270.54 1055.00 L1276.98 1055.00 L1276.98 1046.46 L1283.41 1046.46 L1283.41 1026.91 L1289.85 1026.91 L1289.85 1013.42 L1296.28 1013.42 L1296.28 1001.91 L1302.72 1001.91 L1302.72 990.40 L1309.28 990.40 L1309.28 978.40 L1315.71 978.40 L1315.71 962.81 L1322.14 962.81 L1322.14 948.33 L1328.58 948.33 L1328.58 938.80 L1335.02 938.80 L1335.02 930.26 L1341.45 930.26 L1341.45 920.23 L1348.01 920.23 L1348.01 907.24 L1354.44 907.24 L1354.44 810.96 L1360.88 810.96 L1360.88 810.96 L1367.31 810.96 L1367.31 810.46 L1373.75 810.46 L1373.75 810.46 L1380.18 810.46 L1380.18 810.46 L1386.62 810.46 L1386.62 809.97 L1393.18 809.97 L1393.18 808.36 L1399.61 808.36 L1399.61 805.39 L1406.05 805.39 L1406.05 803.41 L1412.48 803.41 L1412.48 801.43 L1418.92 801.43 L1418.92 797.35 L1425.35 797.35 L1425.35 792.27 L1431.91 792.27 L1431.91 787.32 L1438.35 787.32 L1438.35 781.75 L1444.78 781.75 L1444.78 777.17 L1451.22 777.17 L1451.22 770.74 L1457.65 770.74 L1457.65 762.08 L1464.09 762.08 L1464.09 756.14 L1470.64 756.14 L1470.64 750.57 L1477.08 750.57 L1477.08 745.00 L1483.52 745.00 L1483.52 738.44 L1489.95 738.44 L1489.95 731.88 L1496.38 731.88 L1496.38 727.43 L1502.82 727.43 L1502.82 723.84 L1509.26 723.84 L1509.26 718.89 L1515.81 718.89 L1515.81 715.30 L1522.25 715.30 L1522.25 711.34 L1528.68 711.34 L1528.68 708.74 L1535.12 708.74 L1535.12 703.17 L1541.55 703.17 L1541.55 699.21 L1547.99 699.21 L1547.99 694.14 L1554.55 694.14 L1554.55 671.98 L1560.98 671.98 L1560.98 671.98 L1567.42 671.98 L1567.42 671.98 L1573.85 671.98 L1573.85 671.49 L1580.29 671.49 L1580.29 669.88 L1586.72 669.88 L1586.72 668.89 L1593.28 668.89 L1593.28 667.90 L1599.72 667.90 L1599.72 667.40 L1606.15 667.40 L1606.15 666.91 L1612.59 666.91 L1612.59 666.41 L1619.02 666.41 L1619.02 665.42 L1625.46 665.42 L1625.46 663.82 L1631.89 663.82 L1631.89 661.84 L1638.45 661.84 L1638.45 660.35 L1644.88 660.35 L1644.88 660.35 L1651.32 660.35 L1651.32 657.75 L1657.76 657.75 L1657.76 656.27 L1664.19 656.27 L1664.19 654.78 L1670.63 654.78 L1670.63 652.18 L1677.18 652.18 L1677.18 650.70 L1683.62 650.70 L1683.62 649.71 L1690.05 649.71 L1690.05 648.10 L1696.49 648.10 L1696.49 646.61 L1702.92 646.61 L1702.92 645.13 L1709.36 645.13 L1709.36 643.64 L1715.92 643.64 L1715.92 642.04 L1722.35 642.04 L1722.35 642.04 L1728.79 642.04 L1728.79 641.54 L1735.22 641.54 L1735.22 641.05 L1741.66 641.05 L1741.66 640.06 L1748.09 640.06 L1748.09 633.50 L1754.53 633.50 L1754.53 633.50 L1761.09 633.50 L1761.09 633.50 L1767.52 633.50 L1767.52 633.50 L1773.96 633.50 L1773.96 633.50 L1780.39 633.50 L1780.39 633.50 L1786.83 633.50 L1786.83 633.50 L1793.26 633.50 L1793.26 633.50 L1799.82 633.50 L1799.82 633.00 L1806.26 633.00 L1806.26 632.38 L1812.69 632.38 L1812.69 632.38 L1819.13 632.38 L1819.13 632.38 L1825.56 632.38 L1825.56 632.38 L1831.99 632.38 L1831.99 632.38 L1838.43 632.38 L1838.43 632.38 L1844.99 632.38 L1844.99 631.89 L1851.42 631.89 L1851.42 631.39 L1857.86 631.39 L1857.86 631.39 L1864.29 631.39 L1864.29 631.39 L1870.73 631.39 L1870.73 631.39" stroke-linejoin="round" style="fill:none;stroke:#55752F;stroke-width:6.48"/>
	<line x1="635.70" y1="1873.51" x2="635.70" y2="414.45" style="stroke:#000000;stroke-width:4.32"/>
	<line x1="635.70" y1="1825.99" x2="605.63" y2="1825.99" style="stroke:#000000;stroke-width:4.32"/>
	<text x="590.66" y="1852.27" style="font-family:'Helvetica';font-size:74.99px;fill:#000000" text-anchor="end">0.000</text>
	<line x1="635.70" y1="1280.36" x2="605.63" y2="1280.36" style="stroke:#000000;stroke-width:4.32"/>
	<text x="590.66" y="1306.64" style="font-family:'Helvetica';font-size:74.99px;fill:#000000" text-anchor="end">0.002</text>
	<line x1="635.70" y1="734.73" x2="605.63" y2="734.73" style="stroke:#000000;stroke-width:4.32"/>
	<text x="590.66" y="761.01" style="font-family:'Helvetica';font-size:74.99px;fill:#000000" text-anchor="end">0.004</text>
	<line x1="635.70" y1="1873.51" x2="2021.58" y2="1873.51" style="stroke:#000000;stroke-width:4.32"/>
	<line x1="683.22" y1="1873.51" x2="683.22" y2="1903.46" style="stroke:#000000;stroke-width:4.32"/>
	<text x="683.22" y="1970.87" style="font-family:'Helvetica';font-size:74.99px;fill:#000000" text-anchor="middle">1 Feb 20</text>
	<line x1="870.33" y1="1873.51" x2="870.33" y2="1903.46" style="stroke:#000000;stroke-width:4.32"/>
	<text x="870.33" y="1970.87" style="font-family:'Helvetica';font-size:74.99px;fill:#000000" text-anchor="middle">1 Mar 20</text>
	<line x1="1070.44" y1="1873.51" x2="1070.44" y2="1903.46" style="stroke:#000000;stroke-width:4.32"/>
	<text x="1070.44" y="1970.87" style="font-family:'Helvetica';font-size:74.99px;fill:#000000" text-anchor="middle">1 Apr 20</text>
	<line x1="1270.54" y1="1873.51" x2="1270.54" y2="1903.46" style="stroke:#000000;stroke-width:4.32"/>
	<text x="1270.54" y="1970.87" style="font-family:'Helvetica';font-size:74.99px;fill:#000000" text-anchor="middle">1 May 20</text>
	<line x1="1464.21" y1="1873.51" x2="1464.21" y2="1903.46" style="stroke:#000000;stroke-width:4.32"/>
	<text x="1464.21" y="1970.87" style="font-family:'Helvetica';font-size:74.99px;fill:#000000" text-anchor="middle">1 June 20</text>
	<line x1="1657.88" y1="1873.51" x2="1657.88" y2="1903.46" style="stroke:#000000;stroke-width:4.32"/>
	<text x="1657.88" y="1970.87" style="font-family:'Helvetica';font-size:74.99px;fill:#000000" text-anchor="middle">1 July 20</text>
	<line x1="1857.86" y1="1873.51" x2="1857.86" y2="1903.46" style="stroke:#000000;stroke-width:4.32"/>
	<text x="1857.86" y="1970.87" style="font-family:'Helvetica';font-size:74.99px;fill:#000000" text-anchor="middle">1 Aug 20</text>
	<text x="1328.70" y="2053.41" style="font-family:'Helvetica';font-size:74.99px;fill:#000000" text-anchor="middle"> </text>
	<text x="1328.70" y="369.91" style="font-family:'Helvetica';font-size:104.94px;fill:#1E2D53" text-anchor="middle">Female</text>
	<rect x="2097.19" y="207.91" width="1799.33" height="1958.65" style="fill:#EAF2F3"/>
	<rect x="2099.35" y="210.07" width="1795.01" height="1954.33" style="fill:none;stroke:#EAF2F3;stroke-width:4.32"/>
	<rect x="2435.03" y="414.45" width="1385.88" height="1459.06" style="fill:#FFFFFF"/>
	<rect x="2437.19" y="416.61" width="1381.56" height="1454.74" style="fill:none;stroke:#FFFFFF;stroke-width:4.32"/>
	<line x1="2435.03" y1="1825.99" x2="3820.91" y2="1825.99" style="stroke:#EAF2F3;stroke-width:6.48"/>
	<line x1="2435.03" y1="1472.67" x2="3820.91" y2="1472.67" style="stroke:#EAF2F3;stroke-width:6.48"/>
	<line x1="2435.03" y1="1119.48" x2="3820.91" y2="1119.48" style="stroke:#EAF2F3;stroke-width:6.48"/>
	<path d=" M2488.86 1825.99 L2495.30 1825.99 L2495.30 1825.99 L2501.85 1825.99 L2501.85 1825.99 L2508.29 1825.99 L2508.29 1825.99 L2514.72 1825.99 L2514.72 1825.99 L2521.16 1825.99 L2521.16 1825.99 L2527.59 1825.99 L2527.59 1825.99 L2534.03 1825.99 L2534.03 1825.99 L2540.59 1825.99 L2540.59 1825.99 L2547.02 1825.99 L2547.02 1825.99 L2553.46 1825.99 L2553.46 1825.99 L2559.89 1825.99 L2559.89 1825.99 L2566.33 1825.99 L2566.33 1825.99 L2572.76 1825.99 L2572.76 1825.62 L2579.20 1825.62 L2579.20 1825.62 L2585.76 1825.62 L2585.76 1825.62 L2592.19 1825.62 L2592.19 1825.62 L2598.63 1825.62 L2598.63 1825.62 L2605.06 1825.62 L2605.06 1825.62 L2611.50 1825.62 L2611.50 1825.62 L2617.93 1825.62 L2617.93 1825.62 L2624.49 1825.62 L2624.49 1825.62 L2630.93 1825.62 L2630.93 1825.62 L2637.36 1825.62 L2637.36 1825.62 L2643.80 1825.62 L2643.80 1825.62 L2650.23 1825.62 L2650.23 1825.62 L2656.66 1825.62 L2656.66 1825.62 L2663.22 1825.62 L2663.22 1825.62 L2669.66 1825.62 L2669.66 1825.62 L2676.09 1825.62 L2676.09 1825.62 L2682.53 1825.62 L2682.53 1825.62 L2688.96 1825.62 L2688.96 1825.62 L2695.40 1825.62 L2695.40 1825.62 L2701.83 1825.62 L2701.83 1825.62 L2708.39 1825.62 L2708.39 1825.12 L2714.83 1825.12 L2714.83 1824.63 L2721.26 1824.63 L2721.26 1824.63 L2727.70 1824.63 L2727.70 1824.63 L2734.13 1824.63 L2734.13 1824.63 L2740.57 1824.63 L2740.57 1824.63 L2747.13 1824.63 L2747.13 1824.26 L2753.56 1824.26 L2753.56 1823.76 L2760.00 1823.76 L2760.00 1818.69 L2766.43 1818.69 L2766.43 1818.69 L2772.87 1818.69 L2772.87 1818.32 L2779.30 1818.32 L2779.30 1817.33 L2785.86 1817.33 L2785.86 1815.96 L2792.30 1815.96 L2792.30 1814.23 L2798.73 1814.23 L2798.73 1813.24 L2805.16 1813.24 L2805.16 1811.01 L2811.60 1811.01 L2811.60 1810.02 L2818.03 1810.02 L2818.03 1808.29 L2824.47 1808.29 L2824.47 1805.57 L2831.03 1805.57 L2831.03 1803.71 L2837.46 1803.71 L2837.46 1800.50 L2843.90 1800.50 L2843.90 1797.28 L2850.33 1797.28 L2850.33 1793.19 L2856.77 1793.19 L2856.77 1789.11 L2863.20 1789.11 L2863.20 1783.17 L2869.76 1783.17 L2869.76 1775.37 L2876.20 1775.37 L2876.20 1766.22 L2882.63 1766.22 L2882.63 1758.91 L2889.07 1758.91 L2889.07 1752.97 L2895.50 1752.97 L2895.50 1745.67 L2901.94 1745.67 L2901.94 1739.73 L2908.50 1739.73 L2908.50 1735.28 L2914.93 1735.28 L2914.93 1729.71 L2921.37 1729.71 L2921.37 1726.49 L2927.80 1726.49 L2927.80 1721.05 L2934.24 1721.05 L2934.24 1716.47 L2940.67 1716.47 L2940.67 1714.24 L2947.11 1714.24 L2947.11 1705.95 L2953.66 1705.95 L2953.66 1703.72 L2960.10 1703.72 L2960.10 1676.74 L2966.53 1676.74 L2966.53 1676.37 L2972.97 1676.37 L2972.97 1675.87 L2979.41 1675.87 L2979.41 1675.87 L2985.84 1675.87 L2985.84 1674.51 L2992.40 1674.51 L2992.40 1674.02 L2998.83 1674.02 L2998.83 1673.15 L3005.27 1673.15 L3005.27 1672.66 L3011.70 1672.66 L3011.70 1671.79 L3018.14 1671.79 L3018.14 1671.79 L3024.57 1671.79 L3024.57 1670.31 L3031.13 1670.31 L3031.13 1668.94 L3037.57 1668.94 L3037.57 1667.21 L3044.00 1667.21 L3044.00 1664.86 L3050.44 1664.86 L3050.44 1663.00 L3056.87 1663.00 L3056.87 1662.14 L3063.31 1662.14 L3063.31 1660.78 L3069.74 1660.78 L3069.74 1660.78 L3076.30 1660.78 L3076.30 1659.42 L3082.74 1659.42 L3082.74 1658.05 L3089.17 1658.05 L3089.17 1657.06 L3095.61 1657.06 L3095.61 1653.48 L3102.04 1653.48 L3102.04 1652.11 L3108.48 1652.11 L3108.48 1649.76 L3115.03 1649.76 L3115.03 1649.39 L3121.47 1649.39 L3121.47 1648.40 L3127.91 1648.40 L3127.91 1647.04 L3134.34 1647.04 L3134.34 1646.17 L3140.78 1646.17 L3140.78 1645.68 L3147.21 1645.68 L3147.21 1644.81 L3153.77 1644.81 L3153.77 1638.87 L3160.20 1638.87 L3160.20 1638.38 L3166.64 1638.38 L3166.64 1638.38 L3173.07 1638.38 L3173.07 1637.39 L3179.51 1637.39 L3179.51 1637.02 L3185.94 1637.02 L3185.94 1637.02 L3192.38 1637.02 L3192.38 1636.52 L3198.94 1636.52 L3198.94 1635.65 L3205.37 1635.65 L3205.37 1634.66 L3211.81 1634.66 L3211.81 1634.66 L3218.24 1634.66 L3218.24 1634.66 L3224.68 1634.66 L3224.68 1634.66 L3231.11 1634.66 L3231.11 1634.29 L3237.67 1634.29 L3237.67 1633.30 L3244.11 1633.30 L3244.11 1632.81 L3250.54 1632.81 L3250.54 1632.44 L3256.98 1632.44 L3256.98 1631.08 L3263.41 1631.08 L3263.41 1630.58 L3269.85 1630.58 L3269.85 1629.71 L3276.41 1629.71 L3276.41 1629.71 L3282.84 1629.71 L3282.84 1629.22 L3289.28 1629.22 L3289.28 1628.23 L3295.71 1628.23 L3295.71 1627.36 L3302.14 1627.36 L3302.14 1626.87 L3308.58 1626.87 L3308.58 1626.50 L3315.01 1626.50 L3315.01 1625.51 L3321.57 1625.51 L3321.57 1625.01 L3328.01 1625.01 L3328.01 1625.01 L3334.44 1625.01 L3334.44 1625.01 L3340.88 1625.01 L3340.88 1625.01 L3347.31 1625.01 L3347.31 1624.15 L3353.75 1624.15 L3353.75 1621.92 L3366.74 1621.92 L3366.74 1621.42 L3373.18 1621.42 L3373.18 1620.43 L3379.61 1620.43 L3379.61 1620.06 L3386.05 1620.06 L3386.05 1620.06 L3392.48 1620.06 L3392.48 1620.06 L3399.04 1620.06 L3399.04 1619.57 L3405.48 1619.57 L3405.48 1618.70 L3411.91 1618.70 L3411.91 1618.21 L3418.35 1618.21 L3418.35 1618.21 L3424.78 1618.21 L3424.78 1618.21 L3431.22 1618.21 L3431.22 1617.34 L3437.65 1617.34 L3437.65 1616.84 L3444.21 1616.84 L3444.21 1616.84 L3450.64 1616.84 L3450.64 1616.35 L3457.08 1616.35 L3457.08 1615.85 L3463.51 1615.85 L3463.51 1615.85 L3469.95 1615.85 L3469.95 1615.85 L3476.39 1615.85 L3476.39 1615.85 L3482.94 1615.85 L3482.94 1615.85 L3489.38 1615.85 L3489.38 1615.85 L3495.81 1615.85 L3495.81 1615.85 L3502.25 1615.85 L3502.25 1615.85 L3508.68 1615.85 L3508.68 1615.48 L3515.12 1615.48 L3515.12 1615.48 L3521.55 1615.48 L3521.55 1614.99 L3528.11 1614.99 L3528.11 1614.49 L3534.55 1614.49 L3534.55 1614.49 L3540.98 1614.49 L3540.98 1614.49 L3547.42 1614.49 L3547.42 1613.13 L3566.85 1613.13 L3566.85 1613.13 L3573.28 1613.13 L3573.28 1613.13 L3586.15 1613.13 L3586.15 1612.64 L3599.02 1612.64 L3599.02 1612.64 L3605.58 1612.64 L3605.58 1612.64 L3612.01 1612.64 L3612.01 1612.64 L3618.45 1612.64 L3618.45 1612.64 L3624.89 1612.64 L3624.89 1612.64 L3631.32 1612.64 L3631.32 1612.64 L3637.76 1612.64 L3637.76 1612.64 L3644.19 1612.64 L3644.19 1612.64 L3670.05 1612.64 L3670.05 1612.64" stroke-linejoin="round" style="fill:none;stroke:#1A476F;stroke-width:6.48"/>
	<path d=" M2488.86 1825.99 L2495.30 1825.99 L2495.30 1825.99 L2501.85 1825.99 L2501.85 1825.99 L2508.29 1825.99 L2508.29 1825.99 L2514.72 1825.99 L2514.72 1825.99 L2521.16 1825.99 L2521.16 1825.99 L2527.59 1825.99 L2527.59 1825.99 L2534.03 1825.99 L2534.03 1825.99 L2540.59 1825.99 L2540.59 1825.99 L2547.02 1825.99 L2547.02 1825.99 L2553.46 1825.99 L2553.46 1825.99 L2559.89 1825.99 L2559.89 1825.99 L2566.33 1825.99 L2566.33 1825.99 L2572.76 1825.99 L2572.76 1825.00 L2579.20 1825.00 L2579.20 1825.00 L2585.76 1825.00 L2585.76 1825.00 L2592.19 1825.00 L2592.19 1825.00 L2598.63 1825.00 L2598.63 1825.00 L2605.06 1825.00 L2605.06 1825.00 L2611.50 1825.00 L2611.50 1825.00 L2617.93 1825.00 L2617.93 1825.00 L2624.49 1825.00 L2624.49 1825.00 L2630.93 1825.00 L2630.93 1825.00 L2637.36 1825.00 L2637.36 1825.00 L2643.80 1825.00 L2643.80 1825.00 L2650.23 1825.00 L2650.23 1825.00 L2656.66 1825.00 L2656.66 1825.00 L2663.22 1825.00 L2663.22 1825.00 L2669.66 1825.00 L2669.66 1824.75 L2676.09 1824.75 L2676.09 1824.75 L2682.53 1824.75 L2682.53 1824.75 L2688.96 1824.75 L2688.96 1824.75 L2695.40 1824.75 L2695.40 1824.75 L2701.83 1824.75 L2701.83 1824.50 L2708.39 1824.50 L2708.39 1824.50 L2714.83 1824.50 L2714.83 1824.50 L2721.26 1824.50 L2721.26 1824.50 L2727.70 1824.50 L2727.70 1824.13 L2734.13 1824.13 L2734.13 1824.13 L2740.57 1824.13 L2740.57 1823.88 L2747.13 1823.88 L2747.13 1823.64 L2753.56 1823.64 L2753.56 1823.51 L2760.00 1823.51 L2760.00 1807.92 L2766.43 1807.92 L2766.43 1807.55 L2772.87 1807.55 L2772.87 1806.68 L2779.30 1806.68 L2779.30 1806.44 L2785.86 1806.44 L2785.86 1804.95 L2792.30 1804.95 L2792.30 1803.71 L2798.73 1803.71 L2798.73 1802.97 L2805.16 1802.97 L2805.16 1801.98 L2811.60 1801.98 L2811.60 1800.25 L2818.03 1800.25 L2818.03 1798.76 L2824.47 1798.76 L2824.47 1794.68 L2831.03 1794.68 L2831.03 1791.83 L2837.46 1791.83 L2837.46 1788.00 L2843.90 1788.00 L2843.90 1783.17 L2850.33 1783.17 L2850.33 1778.71 L2856.77 1778.71 L2856.77 1770.67 L2863.20 1770.67 L2863.20 1760.40 L2869.76 1760.40 L2869.76 1748.52 L2876.20 1748.52 L2876.20 1738.62 L2882.63 1738.62 L2882.63 1728.84 L2889.07 1728.84 L2889.07 1719.81 L2895.50 1719.81 L2895.50 1710.15 L2901.94 1710.15 L2901.94 1698.89 L2908.50 1698.89 L2908.50 1686.89 L2914.93 1686.89 L2914.93 1675.38 L2921.37 1675.38 L2921.37 1667.71 L2927.80 1667.71 L2927.80 1660.28 L2934.24 1660.28 L2934.24 1650.63 L2940.67 1650.63 L2940.67 1643.70 L2947.11 1643.70 L2947.11 1636.15 L2953.66 1636.15 L2953.66 1626.62 L2960.10 1626.62 L2960.10 1560.66 L2966.53 1560.66 L2966.53 1560.41 L2972.97 1560.41 L2972.97 1559.79 L2979.41 1559.79 L2979.41 1559.17 L2985.84 1559.17 L2985.84 1558.56 L2992.40 1558.56 L2992.40 1557.44 L2998.83 1557.44 L2998.83 1556.95 L3005.27 1556.95 L3005.27 1555.96 L3011.70 1555.96 L3011.70 1554.84 L3018.14 1554.84 L3018.14 1553.36 L3024.57 1553.36 L3024.57 1551.75 L3031.13 1551.75 L3031.13 1549.89 L3037.57 1549.89 L3037.57 1548.16 L3044.00 1548.16 L3044.00 1545.56 L3050.44 1545.56 L3050.44 1543.33 L3056.87 1543.33 L3056.87 1539.50 L3063.31 1539.50 L3063.31 1536.40 L3069.74 1536.40 L3069.74 1531.95 L3076.30 1531.95 L3076.30 1529.97 L3082.74 1529.97 L3082.74 1527.00 L3089.17 1527.00 L3089.17 1525.02 L3095.61 1525.02 L3095.61 1522.17 L3102.04 1522.17 L3102.04 1519.20 L3108.48 1519.20 L3108.48 1516.60 L3115.03 1516.60 L3115.03 1514.25 L3121.47 1514.25 L3121.47 1512.27 L3127.91 1512.27 L3127.91 1510.91 L3134.34 1510.91 L3134.34 1507.45 L3140.78 1507.45 L3140.78 1504.72 L3147.21 1504.72 L3147.21 1503.11 L3153.77 1503.11 L3153.77 1487.77 L3160.20 1487.77 L3160.20 1487.15 L3166.64 1487.15 L3166.64 1487.15 L3173.07 1487.15 L3173.07 1486.90 L3179.51 1486.90 L3179.51 1486.90 L3185.94 1486.90 L3185.94 1486.04 L3192.38 1486.04 L3192.38 1486.04 L3198.94 1486.04 L3198.94 1485.67 L3205.37 1485.67 L3205.37 1485.17 L3211.81 1485.17 L3211.81 1484.30 L3218.24 1484.30 L3218.24 1483.44 L3224.68 1483.44 L3224.68 1481.95 L3231.11 1481.95 L3231.11 1479.85 L3237.67 1479.85 L3237.67 1479.11 L3244.11 1479.11 L3244.11 1477.25 L3250.54 1477.25 L3250.54 1475.52 L3256.98 1475.52 L3256.98 1474.77 L3263.41 1474.77 L3263.41 1474.40 L3269.85 1474.40 L3269.85 1473.78 L3276.41 1473.78 L3276.41 1471.80 L3282.84 1471.80 L3282.84 1469.58 L3289.28 1469.58 L3289.28 1468.34 L3295.71 1468.34 L3295.71 1468.09 L3302.14 1468.09 L3302.14 1467.23 L3308.58 1467.23 L3308.58 1465.99 L3315.01 1465.99 L3315.01 1465.12 L3321.57 1465.12 L3321.57 1464.63 L3328.01 1464.63 L3328.01 1464.26 L3334.44 1464.26 L3334.44 1463.76 L3340.88 1463.76 L3340.88 1462.28 L3347.31 1462.28 L3347.31 1462.03 L3353.75 1462.03 L3353.75 1456.21 L3360.31 1456.21 L3360.31 1455.96 L3366.74 1455.96 L3366.74 1455.72 L3373.18 1455.72 L3373.18 1455.59 L3379.61 1455.59 L3379.61 1455.59 L3386.05 1455.59 L3386.05 1455.59 L3392.48 1455.59 L3392.48 1455.35 L3399.04 1455.35 L3399.04 1455.35 L3405.48 1455.35 L3405.48 1455.10 L3411.91 1455.10 L3411.91 1455.10 L3418.35 1455.10 L3418.35 1454.48 L3424.78 1454.48 L3424.78 1453.98 L3431.22 1453.98 L3431.22 1453.74 L3437.65 1453.74 L3437.65 1452.87 L3444.21 1452.87 L3444.21 1452.50 L3450.64 1452.50 L3450.64 1451.39 L3457.08 1451.39 L3457.08 1451.14 L3463.51 1451.14 L3463.51 1451.01 L3469.95 1451.01 L3469.95 1450.52 L3476.39 1450.52 L3476.39 1449.90 L3482.94 1449.90 L3482.94 1448.17 L3489.38 1448.17 L3489.38 1447.92 L3495.81 1447.92 L3495.81 1447.67 L3502.25 1447.67 L3502.25 1447.67 L3508.68 1447.67 L3508.68 1447.55 L3515.12 1447.55 L3515.12 1447.30 L3521.55 1447.30 L3521.55 1446.68 L3528.11 1446.68 L3528.11 1446.44 L3534.55 1446.44 L3534.55 1446.44 L3540.98 1446.44 L3540.98 1445.94 L3547.42 1445.94 L3547.42 1443.59 L3553.85 1443.59 L3553.85 1443.59 L3560.29 1443.59 L3560.29 1443.59 L3566.85 1443.59 L3566.85 1443.59 L3573.28 1443.59 L3573.28 1443.59 L3579.72 1443.59 L3579.72 1443.59 L3586.15 1443.59 L3586.15 1443.59 L3592.59 1443.59 L3592.59 1443.59 L3599.02 1443.59 L3599.02 1443.59 L3605.58 1443.59 L3605.58 1443.59 L3612.01 1443.59 L3612.01 1443.59 L3618.45 1443.59 L3618.45 1443.59 L3624.89 1443.59 L3624.89 1443.34 L3631.32 1443.34 L3631.32 1443.34 L3637.76 1443.34 L3637.76 1443.34 L3644.19 1443.34 L3644.19 1443.34 L3650.75 1443.34 L3650.75 1443.34 L3657.18 1443.34 L3657.18 1443.34 L3670.05 1443.34 L3670.05 1443.34" stroke-linejoin="round" style="fill:none;stroke:#90353B;stroke-width:6.48"/>
	<path d=" M2488.86 1825.99 L2495.30 1825.99 L2495.30 1825.99 L2501.85 1825.99 L2501.85 1825.99 L2508.29 1825.99 L2508.29 1825.99 L2514.72 1825.99 L2514.72 1825.99 L2521.16 1825.99 L2521.16 1825.99 L2527.59 1825.99 L2527.59 1825.99 L2534.03 1825.99 L2534.03 1825.99 L2540.59 1825.99 L2540.59 1825.99 L2547.02 1825.99 L2547.02 1825.99 L2553.46 1825.99 L2553.46 1825.99 L2559.89 1825.99 L2559.89 1825.99 L2566.33 1825.99 L2566.33 1825.99 L2572.76 1825.99 L2572.76 1821.29 L2579.20 1821.29 L2579.20 1821.29 L2585.76 1821.29 L2585.76 1821.29 L2592.19 1821.29 L2592.19 1821.29 L2598.63 1821.29 L2598.63 1821.29 L2605.06 1821.29 L2605.06 1821.29 L2611.50 1821.29 L2611.50 1821.29 L2617.93 1821.29 L2617.93 1821.29 L2624.49 1821.29 L2624.49 1821.29 L2630.93 1821.29 L2630.93 1821.29 L2637.36 1821.29 L2637.36 1821.29 L2643.80 1821.29 L2643.80 1821.29 L2650.23 1821.29 L2650.23 1821.29 L2656.66 1821.29 L2656.66 1821.29 L2663.22 1821.29 L2663.22 1821.29 L2669.66 1821.29 L2669.66 1821.29 L2676.09 1821.29 L2676.09 1821.29 L2682.53 1821.29 L2682.53 1821.29 L2688.96 1821.29 L2688.96 1821.29 L2695.40 1821.29 L2695.40 1820.79 L2701.83 1820.79 L2701.83 1820.79 L2708.39 1820.79 L2708.39 1820.79 L2714.83 1820.79 L2714.83 1820.30 L2721.26 1820.30 L2721.26 1819.92 L2727.70 1819.92 L2727.70 1819.43 L2734.13 1819.43 L2734.13 1819.43 L2740.57 1819.43 L2740.57 1819.43 L2747.13 1819.43 L2747.13 1819.06 L2753.56 1819.06 L2753.56 1817.70 L2760.00 1817.70 L2760.00 1764.85 L2766.43 1764.85 L2766.43 1764.85 L2772.87 1764.85 L2772.87 1763.49 L2779.30 1763.49 L2779.30 1763.49 L2785.86 1763.49 L2785.86 1762.13 L2792.30 1762.13 L2792.30 1761.27 L2798.73 1761.27 L2798.73 1759.53 L2805.16 1759.53 L2805.16 1756.93 L2811.60 1756.93 L2811.60 1754.21 L2818.03 1754.21 L2818.03 1750.25 L2824.47 1750.25 L2824.47 1746.29 L2831.03 1746.29 L2831.03 1735.65 L2837.46 1735.65 L2837.46 1730.33 L2843.90 1730.33 L2843.90 1718.32 L2850.33 1718.32 L2850.33 1706.44 L2856.77 1706.44 L2856.77 1691.34 L2863.20 1691.34 L2863.20 1670.55 L2869.76 1670.55 L2869.76 1646.67 L2876.20 1646.67 L2876.20 1624.52 L2882.63 1624.52 L2882.63 1597.91 L2889.07 1597.91 L2889.07 1568.21 L2895.50 1568.21 L2895.50 1536.65 L2901.94 1536.65 L2901.94 1502.00 L2908.50 1502.00 L2908.50 1478.49 L2914.93 1478.49 L2914.93 1439.50 L2921.37 1439.50 L2921.37 1408.44 L2927.80 1408.44 L2927.80 1373.30 L2934.24 1373.30 L2934.24 1336.42 L2940.67 1336.42 L2940.67 1312.41 L2947.11 1312.41 L2947.11 1284.44 L2953.66 1284.44 L2953.66 1259.07 L2960.10 1259.07 L2960.10 983.35 L2966.53 983.35 L2966.53 982.48 L2972.97 982.48 L2972.97 981.12 L2979.41 981.12 L2979.41 978.89 L2985.84 978.89 L2985.84 978.03 L2992.40 978.03 L2992.40 975.80 L2998.83 975.80 L2998.83 973.08 L3005.27 973.08 L3005.27 970.35 L3011.70 970.35 L3011.70 967.76 L3018.14 967.76 L3018.14 965.03 L3024.57 965.03 L3024.57 959.22 L3031.13 959.22 L3031.13 952.04 L3037.57 952.04 L3037.57 943.13 L3044.00 943.13 L3044.00 932.86 L3050.44 932.86 L3050.44 921.72 L3056.87 921.72 L3056.87 902.54 L3063.31 902.54 L3063.31 884.59 L3069.74 884.59 L3069.74 870.73 L3076.30 870.73 L3076.30 855.63 L3082.74 855.63 L3082.74 842.64 L3089.17 842.64 L3089.17 831.01 L3095.61 831.01 L3095.61 817.15 L3102.04 817.15 L3102.04 799.70 L3108.48 799.70 L3108.48 789.43 L3115.03 789.43 L3115.03 774.58 L3121.47 774.58 L3121.47 762.57 L3127.91 762.57 L3127.91 752.30 L3134.34 752.30 L3134.34 745.49 L3140.78 745.49 L3140.78 736.58 L3147.21 736.58 L3147.21 727.55 L3153.77 727.55 L3153.77 642.41 L3160.20 642.41 L3160.20 642.41 L3166.64 642.41 L3166.64 642.41 L3173.07 642.41 L3173.07 641.54 L3179.51 641.54 L3179.51 640.18 L3185.94 640.18 L3185.94 638.82 L3192.38 638.82 L3192.38 638.82 L3198.94 638.82 L3198.94 637.46 L3205.37 637.46 L3205.37 635.23 L3211.81 635.23 L3211.81 630.77 L3218.24 630.77 L3218.24 627.68 L3224.68 627.68 L3224.68 622.73 L3231.11 622.73 L3231.11 620.01 L3237.67 620.01 L3237.67 614.56 L3244.11 614.56 L3244.11 607.88 L3250.54 607.88 L3250.54 603.80 L3256.98 603.80 L3256.98 598.35 L3263.41 598.35 L3263.41 593.40 L3269.85 593.40 L3269.85 587.09 L3276.41 587.09 L3276.41 581.27 L3282.84 581.27 L3282.84 575.46 L3289.28 575.46 L3289.28 569.64 L3295.71 569.64 L3295.71 562.83 L3302.14 562.83 L3302.14 557.88 L3308.58 557.88 L3308.58 553.80 L3315.01 553.80 L3315.01 550.70 L3321.57 550.70 L3321.57 544.76 L3328.01 544.76 L3328.01 543.03 L3334.44 543.03 L3334.44 538.95 L3340.88 538.95 L3340.88 538.08 L3347.31 538.08 L3347.31 533.13 L3353.75 533.13 L3353.75 504.17 L3360.31 504.17 L3360.31 503.80 L3366.74 503.80 L3366.74 503.31 L3373.18 503.31 L3373.18 503.31 L3379.61 503.31 L3379.61 503.31 L3386.05 503.31 L3386.05 502.81 L3392.48 502.81 L3392.48 502.81 L3399.04 502.81 L3399.04 502.44 L3405.48 502.44 L3405.48 501.45 L3411.91 501.45 L3411.91 499.22 L3418.35 499.22 L3418.35 497.86 L3424.78 497.86 L3424.78 497.00 L3431.22 497.00 L3431.22 494.27 L3437.65 494.27 L3437.65 492.91 L3444.21 492.91 L3444.21 491.06 L3450.64 491.06 L3450.64 488.83 L3457.08 488.83 L3457.08 487.84 L3463.51 487.84 L3463.51 487.84 L3469.95 487.84 L3469.95 486.48 L3476.39 486.48 L3476.39 485.12 L3482.94 485.12 L3482.94 484.25 L3489.38 484.25 L3489.38 482.89 L3495.81 482.89 L3495.81 481.16 L3502.25 481.16 L3502.25 480.66 L3508.68 480.66 L3508.68 478.43 L3515.12 478.43 L3515.12 477.07 L3521.55 477.07 L3521.55 475.59 L3528.11 475.59 L3528.11 473.85 L3534.55 473.85 L3534.55 472.00 L3540.98 472.00 L3540.98 470.64 L3547.42 470.64 L3547.42 462.47 L3553.85 462.47 L3553.85 462.47 L3560.29 462.47 L3560.29 461.97 L3566.85 461.97 L3566.85 461.97 L3573.28 461.97 L3573.28 461.97 L3579.72 461.97 L3579.72 461.97 L3586.15 461.97 L3586.15 461.97 L3592.59 461.97 L3592.59 461.97 L3599.02 461.97 L3599.02 461.97 L3605.58 461.97 L3605.58 461.97 L3612.01 461.97 L3612.01 461.97 L3618.45 461.97 L3618.45 461.97 L3624.89 461.97 L3624.89 461.97 L3631.32 461.97 L3631.32 461.97 L3637.76 461.97 L3637.76 461.97 L3644.19 461.97 L3644.19 461.97 L3650.75 461.97 L3650.75 461.97 L3657.18 461.97 L3657.18 461.97 L3663.62 461.97 L3663.62 461.97 L3670.05 461.97 L3670.05 461.97" stroke-linejoin="round" style="fill:none;stroke:#55752F;stroke-width:6.48"/>
	<line x1="2435.03" y1="1873.51" x2="2435.03" y2="414.45" style="stroke:#000000;stroke-width:4.32"/>
	<line x1="2435.03" y1="1825.99" x2="2404.96" y2="1825.99" style="stroke:#000000;stroke-width:4.32"/>
	<text x="2389.98" y="1852.27" style="font-family:'Helvetica';font-size:74.99px;fill:#000000" text-anchor="end">0.000</text>
	<line x1="2435.03" y1="1472.67" x2="2404.96" y2="1472.67" style="stroke:#000000;stroke-width:4.32"/>
	<text x="2389.98" y="1498.95" style="font-family:'Helvetica';font-size:74.99px;fill:#000000" text-anchor="end">0.002</text>
	<line x1="2435.03" y1="1119.48" x2="2404.96" y2="1119.48" style="stroke:#000000;stroke-width:4.32"/>
	<text x="2389.98" y="1145.76" style="font-family:'Helvetica';font-size:74.99px;fill:#000000" text-anchor="end">0.004</text>
	<line x1="2435.03" y1="1873.51" x2="3820.91" y2="1873.51" style="stroke:#000000;stroke-width:4.32"/>
	<line x1="2482.55" y1="1873.51" x2="2482.55" y2="1903.46" style="stroke:#000000;stroke-width:4.32"/>
	<text x="2482.55" y="1970.87" style="font-family:'Helvetica';font-size:74.99px;fill:#000000" text-anchor="middle">1 Feb 20</text>
	<line x1="2669.66" y1="1873.51" x2="2669.66" y2="1903.46" style="stroke:#000000;stroke-width:4.32"/>
	<text x="2669.66" y="1970.87" style="font-family:'Helvetica';font-size:74.99px;fill:#000000" text-anchor="middle">1 Mar 20</text>
	<line x1="2869.76" y1="1873.51" x2="2869.76" y2="1903.46" style="stroke:#000000;stroke-width:4.32"/>
	<text x="2869.76" y="1970.87" style="font-family:'Helvetica';font-size:74.99px;fill:#000000" text-anchor="middle">1 Apr 20</text>
	<line x1="3069.87" y1="1873.51" x2="3069.87" y2="1903.46" style="stroke:#000000;stroke-width:4.32"/>
	<text x="3069.87" y="1970.87" style="font-family:'Helvetica';font-size:74.99px;fill:#000000" text-anchor="middle">1 May 20</text>
	<line x1="3263.53" y1="1873.51" x2="3263.53" y2="1903.46" style="stroke:#000000;stroke-width:4.32"/>
	<text x="3263.53" y="1970.87" style="font-family:'Helvetica';font-size:74.99px;fill:#000000" text-anchor="middle">1 June 20</text>
	<line x1="3457.08" y1="1873.51" x2="3457.08" y2="1903.46" style="stroke:#000000;stroke-width:4.32"/>
	<text x="3457.08" y="1970.87" style="font-family:'Helvetica';font-size:74.99px;fill:#000000" text-anchor="middle">1 July 20</text>
	<line x1="3657.18" y1="1873.51" x2="3657.18" y2="1903.46" style="stroke:#000000;stroke-width:4.32"/>
	<text x="3657.18" y="1970.87" style="font-family:'Helvetica';font-size:74.99px;fill:#000000" text-anchor="middle">1 Aug 20</text>
	<text x="3127.91" y="2053.41" style="font-family:'Helvetica';font-size:74.99px;fill:#000000" text-anchor="middle"> </text>
	<text x="3127.91" y="369.91" style="font-family:'Helvetica';font-size:104.94px;fill:#1E2D53" text-anchor="middle">Male</text>
	<text x="150.62" y="1187.29" style="font-family:'Helvetica';font-size:99.99px;fill:#000000" transform="rotate(-90 150.62,1187.29)" text-anchor="middle">Cumulative probability</text>
	<text x="250.61" y="1187.29" style="font-family:'Helvetica';font-size:99.99px;fill:#000000" transform="rotate(-90 250.61,1187.29)" text-anchor="middle">of COVID-19 death</text>
	<text x="2097.19" y="157.51" style="font-family:'Helvetica';font-size:110.01px;fill:#000000" text-anchor="middle"> </text>
	<rect x="1338.23" y="2201.21" width="1517.92" height="580.90" style="fill:#FFFFFF"/>
	<rect x="1341.11" y="2204.09" width="1512.16" height="575.14" style="fill:none;stroke:#000000;stroke-width:5.76"/>
	<line x1="1381.42" y1="2408.87" x2="1755.89" y2="2408.87" style="stroke:#1A476F;stroke-width:8.64"/>
	<line x1="1381.42" y1="2548.83" x2="1755.89" y2="2548.83" style="stroke:#90353B;stroke-width:8.64"/>
	<line x1="1381.42" y1="2688.92" x2="1755.89" y2="2688.92" style="stroke:#55752F;stroke-width:8.64"/>
	<text x="1815.78" y="2436.88" style="font-family:'Helvetica';font-size:79.94px;fill:#000000">18-&lt;30</text>
	<text x="1815.78" y="2576.85" style="font-family:'Helvetica';font-size:79.94px;fill:#000000">30-&lt;40</text>
	<text x="1815.78" y="2716.94" style="font-family:'Helvetica';font-size:79.94px;fill:#000000">40-&lt;50</text>
	<text x="2251.38" y="2436.88" style="font-family:'Helvetica';font-size:79.94px;fill:#000000">50-&lt;60</text>
	<text x="2251.38" y="2576.85" style="font-family:'Helvetica';font-size:79.94px;fill:#000000">60-&lt;70</text>
	<text x="2251.38" y="2716.94" style="font-family:'Helvetica';font-size:79.94px;fill:#000000">70-&lt;80</text>
	<text x="2686.98" y="2436.88" style="font-family:'Helvetica';font-size:79.94px;fill:#000000">80+</text>
	<text x="2097.19" y="2308.96" style="font-family:'Helvetica';font-size:79.94px;fill:#000000" text-anchor="middle">Age group</text>
</svg>
