<?xml version="1.0" encoding="UTF-8" standalone="no"?>
<!-- This is a Stata 16.1 generated SVG file (http://www.stata.com) -->

<svg version="1.1" width="5.50in" height="4.00in" viewBox="0 0 3960 2880" xmlns="http://www.w3.org/2000/svg" xmlns:xlink="http://www.w3.org/1999/xlink">
	<desc>Stata Graph - Graph</desc>
	<rect x="0" y="0" width="3960" height="2880" style="fill:#EAF2F3;stroke:none"/>
	<rect x="0.00" y="0.00" width="3959.88" height="2880.00" style="fill:#EAF2F3"/>
	<rect x="2.88" y="2.88" width="3954.12" height="2874.24" style="fill:none;stroke:#EAF2F3;stroke-width:5.76"/>
	<rect x="297.87" y="207.91" width="1799.32" height="1958.65" style="fill:#EAF2F3"/>
	<rect x="300.03" y="210.07" width="1795.01" height="1954.33" style="fill:none;stroke:#EAF2F3;stroke-width:4.32"/>
	<rect x="635.70" y="414.45" width="1385.88" height="1459.06" style="fill:#FFFFFF"/>
	<rect x="637.86" y="416.61" width="1381.56" height="1454.74" style="fill:none;stroke:#FFFFFF;stroke-width:4.32"/>
	<line x1="635.70" y1="1825.99" x2="2021.58" y2="1825.99" style="stroke:#EAF2F3;stroke-width:6.48"/>
	<line x1="635.70" y1="1782.06" x2="2021.58" y2="1782.06" style="stroke:#EAF2F3;stroke-width:6.48"/>
	<line x1="635.70" y1="1738.25" x2="2021.58" y2="1738.25" style="stroke:#EAF2F3;stroke-width:6.48"/>
	<line x1="635.70" y1="1694.31" x2="2021.58" y2="1694.31" style="stroke:#EAF2F3;stroke-width:6.48"/>
	<line x1="635.70" y1="1650.51" x2="2021.58" y2="1650.51" style="stroke:#EAF2F3;stroke-width:6.48"/>
	<line x1="635.70" y1="1606.57" x2="2021.58" y2="1606.57" style="stroke:#EAF2F3;stroke-width:6.48"/>
	<path d=" M689.53 1825.00 L696.09 1825.00 L696.09 1824.01 L702.53 1824.01 L702.53 1822.89 L708.96 1822.89 L708.96 1821.66 L715.40 1821.66 L715.40 1820.91 L721.83 1820.91 L721.83 1820.54 L728.27 1820.54 L728.27 1820.05 L734.83 1820.05 L734.83 1818.93 L741.26 1818.93 L741.26 1818.07 L747.70 1818.07 L747.70 1816.83 L754.13 1816.83 L754.13 1815.59 L760.57 1815.59 L760.57 1814.23 L767.00 1814.23 L767.00 1813.24 L773.56 1813.24 L773.56 1804.70 L786.43 1804.70 L786.43 1804.33 L792.87 1804.33 L792.87 1804.21 L799.30 1804.21 L799.30 1803.84 L805.74 1803.84 L805.74 1803.71 L812.17 1803.71 L812.17 1803.59 L818.73 1803.59 L818.73 1803.34 L825.16 1803.34 L825.16 1802.85 L831.60 1802.85 L831.60 1802.72 L838.03 1802.72 L838.03 1802.10 L844.47 1802.10 L844.47 1801.36 L850.90 1801.36 L850.90 1800.25 L857.46 1800.25 L857.46 1799.50 L863.90 1799.50 L863.90 1798.64 L870.33 1798.64 L870.33 1797.90 L876.77 1797.90 L876.77 1797.03 L883.20 1797.03 L883.20 1796.29 L889.64 1796.29 L889.64 1795.54 L896.20 1795.54 L896.20 1794.06 L902.63 1794.06 L902.63 1793.07 L909.07 1793.07 L909.07 1792.33 L915.50 1792.33 L915.50 1791.96 L921.94 1791.96 L921.94 1791.09 L928.37 1791.09 L928.37 1790.47 L934.81 1790.47 L934.81 1789.85 L941.37 1789.85 L941.37 1788.86 L947.80 1788.86 L947.80 1788.24 L954.24 1788.24 L954.24 1787.38 L960.67 1787.38 L960.67 1776.86 L967.11 1776.86 L967.11 1776.73 L980.10 1776.73 L980.10 1776.49 L986.53 1776.49 L986.53 1776.24 L992.97 1776.24 L992.97 1776.12 L999.40 1776.12 L999.40 1775.87 L1005.84 1775.87 L1005.84 1775.13 L1012.27 1775.13 L1012.27 1774.75 L1018.71 1774.75 L1018.71 1774.01 L1025.27 1774.01 L1025.27 1773.15 L1031.70 1773.15 L1031.70 1773.02 L1038.14 1773.02 L1038.14 1772.53 L1044.57 1772.53 L1044.57 1771.54 L1051.01 1771.54 L1051.01 1770.67 L1057.44 1770.67 L1057.44 1769.56 L1064.00 1769.56 L1064.00 1768.94 L1070.44 1768.94 L1070.44 1768.07 L1076.87 1768.07 L1076.87 1766.71 L1083.31 1766.71 L1083.31 1765.84 L1089.74 1765.84 L1089.74 1765.72 L1096.18 1765.72 L1096.18 1764.61 L1102.74 1764.61 L1102.74 1762.75 L1109.17 1762.75 L1109.17 1761.76 L1115.61 1761.76 L1115.61 1760.89 L1122.04 1760.89 L1122.04 1759.28 L1128.48 1759.28 L1128.48 1758.79 L1134.91 1758.79 L1134.91 1757.30 L1141.35 1757.30 L1141.35 1756.07 L1147.90 1756.07 L1147.90 1755.08 L1154.34 1755.08 L1154.34 1754.21 L1160.78 1754.21 L1160.78 1742.21 L1167.21 1742.21 L1167.21 1742.08 L1186.64 1742.08 L1186.64 1741.96 L1193.07 1741.96 L1193.07 1741.84 L1199.51 1741.84 L1199.51 1741.46 L1205.94 1741.46 L1205.94 1741.22 L1212.38 1741.22 L1212.38 1741.09 L1225.37 1741.09 L1225.37 1740.60 L1231.81 1740.60 L1231.81 1740.10 L1244.68 1740.10 L1244.68 1739.86 L1251.11 1739.86 L1251.11 1738.99 L1257.55 1738.99 L1257.55 1738.00 L1263.98 1738.00 L1263.98 1737.26 L1270.54 1737.26 L1270.54 1736.51 L1276.98 1736.51 L1276.98 1735.03 L1283.41 1735.03 L1283.41 1733.79 L1289.85 1733.79 L1289.85 1732.55 L1296.28 1732.55 L1296.28 1731.32 L1302.72 1731.32 L1302.72 1730.33 L1309.28 1730.33 L1309.28 1729.21 L1315.71 1729.21 L1315.71 1728.59 L1322.14 1728.59 L1322.14 1728.10 L1328.58 1728.10 L1328.58 1726.61 L1335.02 1726.61 L1335.02 1726.00 L1341.45 1726.00 L1341.45 1724.39 L1348.01 1724.39 L1348.01 1723.77 L1354.44 1723.77 L1354.44 1714.61 L1380.18 1714.61 L1380.18 1714.49 L1386.62 1714.49 L1386.62 1714.36 L1393.18 1714.36 L1393.18 1714.11 L1399.61 1714.11 L1399.61 1713.74 L1406.05 1713.74 L1406.05 1713.50 L1412.48 1713.50 L1412.48 1713.12 L1418.92 1713.12 L1418.92 1712.75 L1425.35 1712.75 L1425.35 1712.13 L1431.91 1712.13 L1431.91 1711.76 L1438.35 1711.76 L1438.35 1710.90 L1444.78 1710.90 L1444.78 1710.03 L1451.22 1710.03 L1451.22 1709.66 L1457.65 1709.66 L1457.65 1708.92 L1464.09 1708.92 L1464.09 1708.17 L1470.64 1708.17 L1470.64 1707.31 L1477.08 1707.31 L1477.08 1706.94 L1483.52 1706.94 L1483.52 1705.20 L1489.95 1705.20 L1489.95 1704.09 L1496.38 1704.09 L1496.38 1703.35 L1502.82 1703.35 L1502.82 1702.73 L1509.26 1702.73 L1509.26 1701.62 L1515.81 1701.62 L1515.81 1700.63 L1522.25 1700.63 L1522.25 1699.26 L1528.68 1699.26 L1528.68 1698.27 L1535.12 1698.27 L1535.12 1697.41 L1541.55 1697.41 L1541.55 1696.67 L1547.99 1696.67 L1547.99 1695.92 L1554.55 1695.92 L1554.55 1687.63 L1560.98 1687.63 L1560.98 1687.38 L1567.42 1687.38 L1567.42 1687.26 L1573.85 1687.26 L1573.85 1687.14 L1580.29 1687.14 L1580.29 1686.77 L1586.72 1686.77 L1586.72 1686.39 L1593.28 1686.39 L1593.28 1686.27 L1599.72 1686.27 L1599.72 1686.02 L1606.15 1686.02 L1606.15 1685.40 L1612.59 1685.40 L1612.59 1685.16 L1619.02 1685.16 L1619.02 1684.79 L1625.46 1684.79 L1625.46 1684.41 L1631.89 1684.41 L1631.89 1683.42 L1638.45 1683.42 L1638.45 1683.05 L1644.88 1683.05 L1644.88 1682.43 L1651.32 1682.43 L1651.32 1681.44 L1657.76 1681.44 L1657.76 1680.70 L1664.19 1680.70 L1664.19 1679.46 L1670.63 1679.46 L1670.63 1678.35 L1677.18 1678.35 L1677.18 1677.11 L1683.62 1677.11 L1683.62 1676.49 L1690.05 1676.49 L1690.05 1675.50 L1696.49 1675.50 L1696.49 1674.88 L1702.92 1674.88 L1702.92 1674.02 L1709.36 1674.02 L1709.36 1673.28 L1715.92 1673.28 L1715.92 1672.04 L1722.35 1672.04 L1722.35 1671.17 L1728.79 1671.17 L1728.79 1670.43 L1735.22 1670.43 L1735.22 1669.44 L1741.66 1669.44 L1741.66 1668.08 L1748.09 1668.08 L1748.09 1658.30 L1780.39 1658.30 L1780.39 1658.18 L1793.26 1658.18 L1793.26 1658.05 L1806.26 1658.05 L1806.26 1658.05 L1812.69 1658.05 L1812.69 1657.68 L1819.13 1657.68 L1819.13 1657.31 L1825.56 1657.31 L1825.56 1657.31 L1831.99 1657.31 L1831.99 1657.06 L1838.43 1657.06 L1838.43 1656.82 L1870.73 1656.82 L1870.73 1656.82" stroke-linejoin="round" style="fill:none;stroke:#1A476F;stroke-width:6.48"/>
	<path d=" M689.53 1823.51 L696.09 1823.51 L696.09 1821.78 L702.53 1821.78 L702.53 1820.05 L708.96 1820.05 L708.96 1818.19 L715.40 1818.19 L715.40 1816.21 L721.83 1816.21 L721.83 1814.11 L728.27 1814.11 L728.27 1812.13 L734.83 1812.13 L734.83 1810.02 L741.26 1810.02 L741.26 1808.04 L747.70 1808.04 L747.70 1806.19 L754.13 1806.19 L754.13 1804.21 L760.57 1804.21 L760.57 1802.60 L767.00 1802.60 L767.00 1800.74 L773.56 1800.74 L773.56 1783.05 L780.00 1783.05 L780.00 1782.80 L786.43 1782.80 L786.43 1782.55 L792.87 1782.55 L792.87 1782.43 L799.30 1782.43 L799.30 1781.93 L805.74 1781.93 L805.74 1781.68 L812.17 1781.68 L812.17 1780.94 L818.73 1780.94 L818.73 1780.08 L825.16 1780.08 L825.16 1779.09 L831.60 1779.09 L831.60 1778.34 L838.03 1778.34 L838.03 1777.35 L844.47 1777.35 L844.47 1776.36 L850.90 1776.36 L850.90 1775.25 L857.46 1775.25 L857.46 1773.39 L863.90 1773.39 L863.90 1771.29 L870.33 1771.29 L870.33 1769.31 L876.77 1769.31 L876.77 1767.21 L883.20 1767.21 L883.20 1764.85 L889.64 1764.85 L889.64 1763.25 L896.20 1763.25 L896.20 1761.76 L902.63 1761.76 L902.63 1759.53 L909.07 1759.53 L909.07 1757.30 L915.50 1757.30 L915.50 1755.20 L921.94 1755.20 L921.94 1753.22 L928.37 1753.22 L928.37 1751.49 L934.81 1751.49 L934.81 1749.26 L941.37 1749.26 L941.37 1747.28 L947.80 1747.28 L947.80 1745.55 L954.24 1745.55 L954.24 1743.20 L960.67 1743.20 L960.67 1720.80 L967.11 1720.80 L967.11 1720.55 L973.54 1720.55 L973.54 1720.18 L980.10 1720.18 L980.10 1719.44 L986.53 1719.44 L986.53 1718.82 L992.97 1718.82 L992.97 1717.83 L999.40 1717.83 L999.40 1717.33 L1005.84 1717.33 L1005.84 1716.59 L1012.27 1716.59 L1012.27 1715.48 L1018.71 1715.48 L1018.71 1714.49 L1025.27 1714.49 L1025.27 1713.25 L1031.70 1713.25 L1031.70 1711.76 L1038.14 1711.76 L1038.14 1710.77 L1044.57 1710.77 L1044.57 1709.91 L1051.01 1709.91 L1051.01 1708.05 L1057.44 1708.05 L1057.44 1706.19 L1064.00 1706.19 L1064.00 1704.34 L1070.44 1704.34 L1070.44 1701.99 L1076.87 1701.99 L1076.87 1699.26 L1083.31 1699.26 L1083.31 1697.16 L1089.74 1697.16 L1089.74 1695.30 L1096.18 1695.30 L1096.18 1692.71 L1102.74 1692.71 L1102.74 1690.73 L1109.17 1690.73 L1109.17 1688.50 L1115.61 1688.50 L1115.61 1686.77 L1122.04 1686.77 L1122.04 1684.41 L1128.48 1684.41 L1128.48 1682.06 L1134.91 1682.06 L1134.91 1678.84 L1141.35 1678.84 L1141.35 1676.49 L1147.90 1676.49 L1147.90 1674.51 L1154.34 1674.51 L1154.34 1672.53 L1160.78 1672.53 L1160.78 1650.13 L1173.64 1650.13 L1173.64 1650.01 L1180.08 1650.01 L1180.08 1649.76 L1186.64 1649.76 L1186.64 1649.64 L1193.07 1649.64 L1193.07 1649.39 L1199.51 1649.39 L1199.51 1649.14 L1205.94 1649.14 L1205.94 1648.77 L1212.38 1648.77 L1212.38 1648.28 L1218.81 1648.28 L1218.81 1647.78 L1225.37 1647.78 L1225.37 1647.16 L1231.81 1647.16 L1231.81 1646.67 L1238.24 1646.67 L1238.24 1645.68 L1244.68 1645.68 L1244.68 1645.06 L1251.11 1645.06 L1251.11 1643.82 L1257.55 1643.82 L1257.55 1642.21 L1263.98 1642.21 L1263.98 1640.23 L1270.54 1640.23 L1270.54 1638.25 L1276.98 1638.25 L1276.98 1636.27 L1283.41 1636.27 L1283.41 1634.42 L1289.85 1634.42 L1289.85 1632.19 L1296.28 1632.19 L1296.28 1630.46 L1302.72 1630.46 L1302.72 1628.60 L1309.28 1628.60 L1309.28 1627.12 L1315.71 1627.12 L1315.71 1625.51 L1322.14 1625.51 L1322.14 1623.90 L1328.58 1623.90 L1328.58 1621.79 L1335.02 1621.79 L1335.02 1619.81 L1341.45 1619.81 L1341.45 1617.96 L1348.01 1617.96 L1348.01 1616.47 L1354.44 1616.47 L1354.44 1598.40 L1367.31 1598.40 L1367.31 1598.40 L1373.75 1598.40 L1373.75 1598.16 L1380.18 1598.16 L1380.18 1598.16 L1386.62 1598.16 L1386.62 1598.03 L1393.18 1598.03 L1393.18 1597.79 L1399.61 1597.79 L1399.61 1597.04 L1406.05 1597.04 L1406.05 1596.30 L1412.48 1596.30 L1412.48 1595.81 L1418.92 1595.81 L1418.92 1595.19 L1425.35 1595.19 L1425.35 1594.57 L1431.91 1594.57 L1431.91 1593.33 L1438.35 1593.33 L1438.35 1591.97 L1444.78 1591.97 L1444.78 1590.24 L1451.22 1590.24 L1451.22 1588.63 L1457.65 1588.63 L1457.65 1586.65 L1464.09 1586.65 L1464.09 1585.04 L1470.64 1585.04 L1470.64 1583.06 L1477.08 1583.06 L1477.08 1580.58 L1483.52 1580.58 L1483.52 1578.60 L1489.95 1578.60 L1489.95 1576.75 L1496.38 1576.75 L1496.38 1575.26 L1502.82 1575.26 L1502.82 1573.04 L1509.26 1573.04 L1509.26 1571.30 L1515.81 1571.30 L1515.81 1569.45 L1522.25 1569.45 L1522.25 1567.71 L1528.68 1567.71 L1528.68 1565.98 L1535.12 1565.98 L1535.12 1564.13 L1541.55 1564.13 L1541.55 1562.27 L1547.99 1562.27 L1547.99 1560.54 L1554.55 1560.54 L1554.55 1541.23 L1560.98 1541.23 L1560.98 1541.11 L1567.42 1541.11 L1567.42 1540.86 L1573.85 1540.86 L1573.85 1540.49 L1580.29 1540.49 L1580.29 1539.87 L1586.72 1539.87 L1586.72 1539.37 L1593.28 1539.37 L1593.28 1538.88 L1599.72 1538.88 L1599.72 1538.38 L1606.15 1538.38 L1606.15 1537.39 L1612.59 1537.39 L1612.59 1536.40 L1619.02 1536.40 L1619.02 1535.04 L1625.46 1535.04 L1625.46 1533.56 L1631.89 1533.56 L1631.89 1532.57 L1638.45 1532.57 L1638.45 1531.70 L1644.88 1531.70 L1644.88 1530.09 L1651.32 1530.09 L1651.32 1528.36 L1657.76 1528.36 L1657.76 1526.63 L1664.19 1526.63 L1664.19 1524.77 L1670.63 1524.77 L1670.63 1523.16 L1677.18 1523.16 L1677.18 1521.68 L1683.62 1521.68 L1683.62 1519.57 L1690.05 1519.57 L1690.05 1518.09 L1696.49 1518.09 L1696.49 1516.60 L1702.92 1516.60 L1702.92 1514.87 L1709.36 1514.87 L1709.36 1512.89 L1715.92 1512.89 L1715.92 1511.03 L1722.35 1511.03 L1722.35 1509.43 L1728.79 1509.43 L1728.79 1507.45 L1735.22 1507.45 L1735.22 1505.34 L1741.66 1505.34 L1741.66 1503.11 L1748.09 1503.11 L1748.09 1483.07 L1761.09 1483.07 L1761.09 1482.82 L1773.96 1482.82 L1773.96 1482.82 L1780.39 1482.82 L1780.39 1482.70 L1786.83 1482.70 L1786.83 1482.57 L1793.26 1482.57 L1793.26 1482.57 L1799.82 1482.57 L1799.82 1482.45 L1806.26 1482.45 L1806.26 1482.08 L1812.69 1482.08 L1812.69 1481.58 L1819.13 1481.58 L1819.13 1481.21 L1825.56 1481.21 L1825.56 1480.84 L1831.99 1480.84 L1831.99 1480.34 L1838.43 1480.34 L1838.43 1479.85 L1844.99 1479.85 L1844.99 1479.60 L1851.42 1479.60 L1851.42 1479.48 L1864.29 1479.48 L1864.29 1479.35 L1870.73 1479.35 L1870.73 1479.35" stroke-linejoin="round" style="fill:none;stroke:#90353B;stroke-width:6.48"/>
	<path d=" M689.53 1818.44 L696.09 1818.44 L696.09 1811.51 L702.53 1811.51 L702.53 1803.96 L708.96 1803.96 L708.96 1795.92 L715.40 1795.92 L715.40 1788.74 L721.83 1788.74 L721.83 1779.83 L728.27 1779.83 L728.27 1772.16 L734.83 1772.16 L734.83 1764.85 L741.26 1764.85 L741.26 1756.44 L747.70 1756.44 L747.70 1749.51 L754.13 1749.51 L754.13 1742.33 L760.57 1742.33 L760.57 1733.30 L767.00 1733.30 L767.00 1724.39 L773.56 1724.39 L773.56 1648.65 L780.00 1648.65 L780.00 1647.29 L786.43 1647.29 L786.43 1646.67 L792.87 1646.67 L792.87 1645.31 L799.30 1645.31 L799.30 1644.44 L805.74 1644.44 L805.74 1641.97 L812.17 1641.97 L812.17 1638.50 L818.73 1638.50 L818.73 1634.66 L825.16 1634.66 L825.16 1632.07 L831.60 1632.07 L831.60 1628.85 L838.03 1628.85 L838.03 1624.02 L844.47 1624.02 L844.47 1618.58 L850.90 1618.58 L850.90 1613.87 L857.46 1613.87 L857.46 1607.32 L863.90 1607.32 L863.90 1599.15 L870.33 1599.15 L870.33 1591.47 L876.77 1591.47 L876.77 1582.32 L883.20 1582.32 L883.20 1573.41 L889.64 1573.41 L889.64 1565.73 L896.20 1565.73 L896.20 1558.06 L902.63 1558.06 L902.63 1547.79 L909.07 1547.79 L909.07 1541.35 L915.50 1541.35 L915.50 1533.81 L921.94 1533.81 L921.94 1526.01 L928.37 1526.01 L928.37 1516.48 L934.81 1516.48 L934.81 1507.69 L941.37 1507.69 L941.37 1499.28 L947.80 1499.28 L947.80 1491.85 L954.24 1491.85 L954.24 1482.82 L960.67 1482.82 L960.67 1395.57 L967.11 1395.57 L967.11 1394.71 L973.54 1394.71 L973.54 1393.47 L980.10 1393.47 L980.10 1391.61 L986.53 1391.61 L986.53 1389.51 L992.97 1389.51 L992.97 1385.80 L999.40 1385.80 L999.40 1382.45 L1005.84 1382.45 L1005.84 1379.11 L1012.27 1379.11 L1012.27 1376.14 L1018.71 1376.14 L1018.71 1371.81 L1025.27 1371.81 L1025.27 1366.99 L1031.70 1366.99 L1031.70 1362.53 L1038.14 1362.53 L1038.14 1356.84 L1044.57 1356.84 L1044.57 1352.13 L1051.01 1352.13 L1051.01 1347.56 L1057.44 1347.56 L1057.44 1340.87 L1064.00 1340.87 L1064.00 1334.07 L1070.44 1334.07 L1070.44 1323.55 L1076.87 1323.55 L1076.87 1315.01 L1083.31 1315.01 L1083.31 1306.59 L1089.74 1306.59 L1089.74 1295.46 L1096.18 1295.46 L1096.18 1287.16 L1102.74 1287.16 L1102.74 1276.52 L1109.17 1276.52 L1109.17 1268.11 L1115.61 1268.11 L1115.61 1258.95 L1122.04 1258.95 L1122.04 1249.17 L1128.48 1249.17 L1128.48 1239.15 L1134.91 1239.15 L1134.91 1230.11 L1141.35 1230.11 L1141.35 1219.59 L1147.90 1219.59 L1147.90 1211.43 L1154.34 1211.43 L1154.34 1202.89 L1160.78 1202.89 L1160.78 1102.03 L1167.21 1102.03 L1167.21 1101.53 L1173.64 1101.53 L1173.64 1101.16 L1180.08 1101.16 L1180.08 1100.67 L1186.64 1100.67 L1186.64 1099.92 L1193.07 1099.92 L1193.07 1099.06 L1199.51 1099.06 L1199.51 1098.07 L1205.94 1098.07 L1205.94 1097.57 L1212.38 1097.57 L1212.38 1096.34 L1218.81 1096.34 L1218.81 1094.60 L1225.37 1094.60 L1225.37 1092.38 L1231.81 1092.38 L1231.81 1089.53 L1238.24 1089.53 L1238.24 1086.06 L1244.68 1086.06 L1244.68 1081.86 L1251.11 1081.86 L1251.11 1076.66 L1257.55 1076.66 L1257.55 1070.97 L1263.98 1070.97 L1263.98 1063.66 L1270.54 1063.66 L1270.54 1055.99 L1276.98 1055.99 L1276.98 1047.45 L1283.41 1047.45 L1283.41 1041.02 L1289.85 1041.02 L1289.85 1034.58 L1296.28 1034.58 L1296.28 1026.66 L1302.72 1026.66 L1302.72 1018.62 L1309.28 1018.62 L1309.28 1009.96 L1315.71 1009.96 L1315.71 1003.15 L1322.14 1003.15 L1322.14 995.85 L1328.58 995.85 L1328.58 990.28 L1335.02 990.28 L1335.02 983.97 L1341.45 983.97 L1341.45 976.67 L1348.01 976.67 L1348.01 969.24 L1354.44 969.24 L1354.44 896.47 L1360.88 896.47 L1360.88 896.23 L1367.31 896.23 L1367.31 896.10 L1373.75 896.10 L1373.75 895.61 L1380.18 895.61 L1380.18 894.74 L1386.62 894.74 L1386.62 894.00 L1393.18 894.00 L1393.18 892.76 L1399.61 892.76 L1399.61 890.66 L1406.05 890.66 L1406.05 888.43 L1412.48 888.43 L1412.48 886.57 L1418.92 886.57 L1418.92 883.60 L1425.35 883.60 L1425.35 879.64 L1431.91 879.64 L1431.91 876.05 L1438.35 876.05 L1438.35 871.72 L1444.78 871.72 L1444.78 867.14 L1451.22 867.14 L1451.22 860.58 L1457.65 860.58 L1457.65 855.14 L1464.09 855.14 L1464.09 847.22 L1470.64 847.22 L1470.64 840.41 L1477.08 840.41 L1477.08 833.23 L1483.52 833.23 L1483.52 827.42 L1489.95 827.42 L1489.95 820.74 L1496.38 820.74 L1496.38 814.05 L1502.82 814.05 L1502.82 807.49 L1509.26 807.49 L1509.26 799.82 L1515.81 799.82 L1515.81 792.89 L1522.25 792.89 L1522.25 787.07 L1528.68 787.07 L1528.68 780.64 L1535.12 780.64 L1535.12 773.34 L1541.55 773.34 L1541.55 767.15 L1547.99 767.15 L1547.99 761.95 L1554.55 761.95 L1554.55 689.93 L1560.98 689.93 L1560.98 689.56 L1567.42 689.56 L1567.42 688.57 L1573.85 688.57 L1573.85 687.45 L1580.29 687.45 L1580.29 685.60 L1586.72 685.60 L1586.72 683.49 L1593.28 683.49 L1593.28 682.01 L1599.72 682.01 L1599.72 679.28 L1606.15 679.28 L1606.15 677.06 L1612.59 677.06 L1612.59 674.71 L1619.02 674.71 L1619.02 670.50 L1625.46 670.50 L1625.46 666.41 L1631.89 666.41 L1631.89 662.21 L1638.45 662.21 L1638.45 658.62 L1644.88 658.62 L1644.88 654.41 L1651.32 654.41 L1651.32 650.20 L1657.76 650.20 L1657.76 643.52 L1664.19 643.52 L1664.19 636.71 L1670.63 636.71 L1670.63 630.40 L1677.18 630.40 L1677.18 622.11 L1683.62 622.11 L1683.62 615.18 L1690.05 615.18 L1690.05 608.75 L1696.49 608.75 L1696.49 603.42 L1702.92 603.42 L1702.92 596.49 L1709.36 596.49 L1709.36 590.18 L1715.92 590.18 L1715.92 583.99 L1722.35 583.99 L1722.35 575.83 L1728.79 575.83 L1728.79 570.01 L1735.22 570.01 L1735.22 563.20 L1741.66 563.20 L1741.66 556.52 L1748.09 556.52 L1748.09 481.28 L1754.53 481.28 L1754.53 481.16 L1761.09 481.16 L1761.09 480.66 L1767.52 480.66 L1767.52 480.41 L1773.96 480.41 L1773.96 480.29 L1780.39 480.29 L1780.39 479.67 L1786.83 479.67 L1786.83 479.30 L1793.26 479.30 L1793.26 478.06 L1799.82 478.06 L1799.82 476.95 L1806.26 476.95 L1806.26 474.97 L1812.69 474.97 L1812.69 473.11 L1819.13 473.11 L1819.13 470.51 L1825.56 470.51 L1825.56 468.16 L1831.99 468.16 L1831.99 466.30 L1838.43 466.30 L1838.43 464.82 L1844.99 464.82 L1844.99 463.33 L1851.42 463.33 L1851.42 462.72 L1857.86 462.72 L1857.86 462.22 L1864.29 462.22 L1864.29 461.97 L1870.73 461.97 L1870.73 461.97" stroke-linejoin="round" style="fill:none;stroke:#55752F;stroke-width:6.48"/>
	<line x1="635.70" y1="1873.51" x2="635.70" y2="414.45" style="stroke:#000000;stroke-width:4.32"/>
	<line x1="635.70" y1="1825.99" x2="605.63" y2="1825.99" style="stroke:#000000;stroke-width:4.32"/>
	<text x="590.66" y="1852.27" style="font-family:'Helvetica';font-size:74.99px;fill:#000000" text-anchor="end">0.000</text>
	<line x1="635.70" y1="1782.06" x2="605.63" y2="1782.06" style="stroke:#000000;stroke-width:4.32"/>
	<text x="590.66" y="1808.33" style="font-family:'Helvetica';font-size:74.99px;fill:#000000" text-anchor="end">0.001</text>
	<line x1="635.70" y1="1738.25" x2="605.63" y2="1738.25" style="stroke:#000000;stroke-width:4.32"/>
	<text x="590.66" y="1764.53" style="font-family:'Helvetica';font-size:74.99px;fill:#000000" text-anchor="end">0.002</text>
	<line x1="635.70" y1="1694.31" x2="605.63" y2="1694.31" style="stroke:#000000;stroke-width:4.32"/>
	<text x="590.66" y="1720.59" style="font-family:'Helvetica';font-size:74.99px;fill:#000000" text-anchor="end">0.003</text>
	<line x1="635.70" y1="1650.51" x2="605.63" y2="1650.51" style="stroke:#000000;stroke-width:4.32"/>
	<text x="590.66" y="1676.78" style="font-family:'Helvetica';font-size:74.99px;fill:#000000" text-anchor="end">0.004</text>
	<line x1="635.70" y1="1606.57" x2="605.63" y2="1606.57" style="stroke:#000000;stroke-width:4.32"/>
	<text x="590.66" y="1632.85" style="font-family:'Helvetica';font-size:74.99px;fill:#000000" text-anchor="end">0.005</text>
	<line x1="635.70" y1="1873.51" x2="2021.58" y2="1873.51" style="stroke:#000000;stroke-width:4.32"/>
	<line x1="683.22" y1="1873.51" x2="683.22" y2="1903.46" style="stroke:#000000;stroke-width:4.32"/>
	<text x="683.22" y="1970.87" style="font-family:'Helvetica';font-size:74.99px;fill:#000000" text-anchor="middle">1 Feb 20</text>
	<line x1="870.33" y1="1873.51" x2="870.33" y2="1903.46" style="stroke:#000000;stroke-width:4.32"/>
	<text x="870.33" y="1970.87" style="font-family:'Helvetica';font-size:74.99px;fill:#000000" text-anchor="middle">1 Mar 20</text>
	<line x1="1070.44" y1="1873.51" x2="1070.44" y2="1903.46" style="stroke:#000000;stroke-width:4.32"/>
	<text x="1070.44" y="1970.87" style="font-family:'Helvetica';font-size:74.99px;fill:#000000" text-anchor="middle">1 Apr 20</text>
	<line x1="1270.54" y1="1873.51" x2="1270.54" y2="1903.46" style="stroke:#000000;stroke-width:4.32"/>
	<text x="1270.54" y="1970.87" style="font-family:'Helvetica';font-size:74.99px;fill:#000000" text-anchor="middle">1 May 20</text>
	<line x1="1464.21" y1="1873.51" x2="1464.21" y2="1903.46" style="stroke:#000000;stroke-width:4.32"/>
	<text x="1464.21" y="1970.87" style="font-family:'Helvetica';font-size:74.99px;fill:#000000" text-anchor="middle">1 June 20</text>
	<line x1="1657.88" y1="1873.51" x2="1657.88" y2="1903.46" style="stroke:#000000;stroke-width:4.32"/>
	<text x="1657.88" y="1970.87" style="font-family:'Helvetica';font-size:74.99px;fill:#000000" text-anchor="middle">1 July 20</text>
	<line x1="1857.86" y1="1873.51" x2="1857.86" y2="1903.46" style="stroke:#000000;stroke-width:4.32"/>
	<text x="1857.86" y="1970.87" style="font-family:'Helvetica';font-size:74.99px;fill:#000000" text-anchor="middle">1 Aug 20</text>
	<text x="1328.70" y="2053.41" style="font-family:'Helvetica';font-size:74.99px;fill:#000000" text-anchor="middle"> </text>
	<text x="1328.70" y="369.91" style="font-family:'Helvetica';font-size:104.94px;fill:#1E2D53" text-anchor="middle">Female</text>
	<rect x="2097.19" y="207.91" width="1799.33" height="1958.65" style="fill:#EAF2F3"/>
	<rect x="2099.35" y="210.07" width="1795.01" height="1954.33" style="fill:none;stroke:#EAF2F3;stroke-width:4.32"/>
	<rect x="2435.03" y="414.45" width="1385.88" height="1459.06" style="fill:#FFFFFF"/>
	<rect x="2437.19" y="416.61" width="1381.56" height="1454.74" style="fill:none;stroke:#FFFFFF;stroke-width:4.32"/>
	<line x1="2435.03" y1="1825.99" x2="3820.91" y2="1825.99" style="stroke:#EAF2F3;stroke-width:6.48"/>
	<line x1="2435.03" y1="1790.84" x2="3820.91" y2="1790.84" style="stroke:#EAF2F3;stroke-width:6.48"/>
	<line x1="2435.03" y1="1755.70" x2="3820.91" y2="1755.70" style="stroke:#EAF2F3;stroke-width:6.48"/>
	<line x1="2435.03" y1="1720.55" x2="3820.91" y2="1720.55" style="stroke:#EAF2F3;stroke-width:6.48"/>
	<line x1="2435.03" y1="1685.40" x2="3820.91" y2="1685.40" style="stroke:#EAF2F3;stroke-width:6.48"/>
	<line x1="2435.03" y1="1650.26" x2="3820.91" y2="1650.26" style="stroke:#EAF2F3;stroke-width:6.48"/>
	<path d=" M2488.86 1824.50 L2495.30 1824.50 L2495.30 1823.64 L2501.85 1823.64 L2501.85 1822.65 L2508.29 1822.65 L2508.29 1821.29 L2514.72 1821.29 L2514.72 1819.80 L2521.16 1819.80 L2521.16 1819.31 L2527.59 1819.31 L2527.59 1817.33 L2534.03 1817.33 L2534.03 1816.34 L2540.59 1816.34 L2540.59 1814.85 L2547.02 1814.85 L2547.02 1813.74 L2553.46 1813.74 L2553.46 1811.51 L2559.89 1811.51 L2559.89 1810.02 L2566.33 1810.02 L2566.33 1808.54 L2572.76 1808.54 L2572.76 1794.80 L2579.20 1794.80 L2579.20 1794.68 L2585.76 1794.68 L2585.76 1794.18 L2592.19 1794.18 L2592.19 1793.94 L2598.63 1793.94 L2598.63 1793.69 L2605.06 1793.69 L2605.06 1793.32 L2611.50 1793.32 L2611.50 1792.70 L2617.93 1792.70 L2617.93 1792.33 L2624.49 1792.33 L2624.49 1791.71 L2630.93 1791.71 L2630.93 1791.34 L2637.36 1791.34 L2637.36 1791.09 L2643.80 1791.09 L2643.80 1790.59 L2650.23 1790.59 L2650.23 1789.85 L2656.66 1789.85 L2656.66 1788.74 L2663.22 1788.74 L2663.22 1787.75 L2669.66 1787.75 L2669.66 1786.26 L2676.09 1786.26 L2676.09 1784.16 L2682.53 1784.16 L2682.53 1782.92 L2688.96 1782.92 L2688.96 1781.56 L2695.40 1781.56 L2695.40 1780.69 L2701.83 1780.69 L2701.83 1779.58 L2708.39 1779.58 L2708.39 1778.71 L2714.83 1778.71 L2714.83 1777.85 L2721.26 1777.85 L2721.26 1776.49 L2727.70 1776.49 L2727.70 1775.50 L2734.13 1775.50 L2734.13 1773.39 L2740.57 1773.39 L2740.57 1772.16 L2747.13 1772.16 L2747.13 1770.79 L2753.56 1770.79 L2753.56 1769.80 L2760.00 1769.80 L2760.00 1756.69 L2766.43 1756.69 L2766.43 1756.31 L2772.87 1756.31 L2772.87 1756.07 L2779.30 1756.07 L2779.30 1755.32 L2785.86 1755.32 L2785.86 1754.83 L2792.30 1754.83 L2792.30 1754.09 L2798.73 1754.09 L2798.73 1753.59 L2805.16 1753.59 L2805.16 1753.10 L2811.60 1753.10 L2811.60 1752.60 L2818.03 1752.60 L2818.03 1751.98 L2824.47 1751.98 L2824.47 1751.61 L2831.03 1751.61 L2831.03 1750.87 L2837.46 1750.87 L2837.46 1750.13 L2843.90 1750.13 L2843.90 1749.63 L2850.33 1749.63 L2850.33 1748.89 L2856.77 1748.89 L2856.77 1747.78 L2863.20 1747.78 L2863.20 1746.54 L2869.76 1746.54 L2869.76 1745.67 L2876.20 1745.67 L2876.20 1743.94 L2882.63 1743.94 L2882.63 1742.45 L2889.07 1742.45 L2889.07 1740.47 L2895.50 1740.47 L2895.50 1738.87 L2901.94 1738.87 L2901.94 1737.50 L2908.50 1737.50 L2908.50 1736.02 L2914.93 1736.02 L2914.93 1734.53 L2921.37 1734.53 L2921.37 1733.17 L2927.80 1733.17 L2927.80 1732.43 L2934.24 1732.43 L2934.24 1731.32 L2940.67 1731.32 L2940.67 1730.33 L2947.11 1730.33 L2947.11 1729.09 L2953.66 1729.09 L2953.66 1728.10 L2960.10 1728.10 L2960.10 1713.00 L2966.53 1713.00 L2966.53 1712.75 L2972.97 1712.75 L2972.97 1712.51 L2979.41 1712.51 L2979.41 1712.26 L2985.84 1712.26 L2985.84 1712.13 L2992.40 1712.13 L2992.40 1712.01 L2998.83 1712.01 L2998.83 1711.89 L3005.27 1711.89 L3005.27 1711.64 L3011.70 1711.64 L3011.70 1711.14 L3018.14 1711.14 L3018.14 1710.77 L3024.57 1710.77 L3024.57 1710.03 L3031.13 1710.03 L3031.13 1709.66 L3037.57 1709.66 L3037.57 1708.92 L3044.00 1708.92 L3044.00 1708.05 L3050.44 1708.05 L3050.44 1707.18 L3056.87 1707.18 L3056.87 1706.32 L3063.31 1706.32 L3063.31 1705.58 L3069.74 1705.58 L3069.74 1703.97 L3076.30 1703.97 L3076.30 1702.85 L3082.74 1702.85 L3082.74 1702.36 L3089.17 1702.36 L3089.17 1701.00 L3095.61 1701.00 L3095.61 1699.88 L3102.04 1699.88 L3102.04 1698.77 L3108.48 1698.77 L3108.48 1697.66 L3115.03 1697.66 L3115.03 1696.67 L3121.47 1696.67 L3121.47 1695.55 L3127.91 1695.55 L3127.91 1694.19 L3134.34 1694.19 L3134.34 1692.71 L3140.78 1692.71 L3140.78 1691.84 L3147.21 1691.84 L3147.21 1690.35 L3153.77 1690.35 L3153.77 1680.33 L3160.20 1680.33 L3160.20 1680.33 L3166.64 1680.33 L3166.64 1680.21 L3179.51 1680.21 L3179.51 1680.08 L3185.94 1680.08 L3185.94 1679.96 L3192.38 1679.96 L3192.38 1679.83 L3198.94 1679.83 L3198.94 1679.71 L3205.37 1679.71 L3205.37 1679.71 L3211.81 1679.71 L3211.81 1679.22 L3218.24 1679.22 L3218.24 1678.60 L3224.68 1678.60 L3224.68 1677.85 L3231.11 1677.85 L3231.11 1677.11 L3237.67 1677.11 L3237.67 1675.63 L3244.11 1675.63 L3244.11 1674.88 L3250.54 1674.88 L3250.54 1673.89 L3256.98 1673.89 L3256.98 1673.28 L3263.41 1673.28 L3263.41 1672.16 L3269.85 1672.16 L3269.85 1671.17 L3276.41 1671.17 L3276.41 1670.18 L3282.84 1670.18 L3282.84 1668.82 L3289.28 1668.82 L3289.28 1667.46 L3295.71 1667.46 L3295.71 1666.72 L3302.14 1666.72 L3302.14 1665.73 L3308.58 1665.73 L3308.58 1664.74 L3315.01 1664.74 L3315.01 1663.87 L3321.57 1663.87 L3321.57 1662.76 L3328.01 1662.76 L3328.01 1661.52 L3334.44 1661.52 L3334.44 1660.53 L3340.88 1660.53 L3340.88 1658.92 L3347.31 1658.92 L3347.31 1658.05 L3353.75 1658.05 L3353.75 1645.31 L3373.18 1645.31 L3373.18 1645.18 L3379.61 1645.18 L3379.61 1644.57 L3386.05 1644.57 L3386.05 1644.19 L3392.48 1644.19 L3392.48 1643.58 L3399.04 1643.58 L3399.04 1643.08 L3405.48 1643.08 L3405.48 1642.21 L3411.91 1642.21 L3411.91 1641.84 L3418.35 1641.84 L3418.35 1641.60 L3424.78 1641.60 L3424.78 1640.85 L3431.22 1640.85 L3431.22 1640.23 L3437.65 1640.23 L3437.65 1639.37 L3444.21 1639.37 L3444.21 1638.75 L3450.64 1638.75 L3450.64 1637.88 L3457.08 1637.88 L3457.08 1636.15 L3463.51 1636.15 L3463.51 1635.04 L3469.95 1635.04 L3469.95 1634.29 L3476.39 1634.29 L3476.39 1633.30 L3482.94 1633.30 L3482.94 1631.69 L3489.38 1631.69 L3489.38 1630.21 L3495.81 1630.21 L3495.81 1628.97 L3502.25 1628.97 L3502.25 1627.86 L3508.68 1627.86 L3508.68 1626.99 L3515.12 1626.99 L3515.12 1626.00 L3521.55 1626.00 L3521.55 1624.39 L3528.11 1624.39 L3528.11 1623.28 L3534.55 1623.28 L3534.55 1622.29 L3540.98 1622.29 L3540.98 1621.42 L3547.42 1621.42 L3547.42 1612.14 L3566.85 1612.14 L3566.85 1612.02 L3573.28 1612.02 L3573.28 1611.89 L3586.15 1611.89 L3586.15 1611.77 L3599.02 1611.77 L3599.02 1611.77 L3605.58 1611.77 L3605.58 1611.28 L3612.01 1611.28 L3612.01 1611.15 L3618.45 1611.15 L3618.45 1610.78 L3624.89 1610.78 L3624.89 1610.41 L3631.32 1610.41 L3631.32 1610.04 L3637.76 1610.04 L3637.76 1609.91 L3644.19 1609.91 L3644.19 1609.79 L3670.05 1609.79 L3670.05 1609.79" stroke-linejoin="round" style="fill:none;stroke:#1A476F;stroke-width:6.48"/>
	<path d=" M2488.86 1824.01 L2495.30 1824.01 L2495.30 1822.03 L2501.85 1822.03 L2501.85 1819.80 L2508.29 1819.80 L2508.29 1818.07 L2514.72 1818.07 L2514.72 1815.84 L2521.16 1815.84 L2521.16 1813.74 L2527.59 1813.74 L2527.59 1810.77 L2534.03 1810.77 L2534.03 1808.04 L2540.59 1808.04 L2540.59 1805.32 L2547.02 1805.32 L2547.02 1802.85 L2553.46 1802.85 L2553.46 1800.74 L2559.89 1800.74 L2559.89 1798.51 L2566.33 1798.51 L2566.33 1795.67 L2572.76 1795.67 L2572.76 1776.12 L2579.20 1776.12 L2579.20 1775.74 L2585.76 1775.74 L2585.76 1775.37 L2592.19 1775.37 L2592.19 1775.13 L2598.63 1775.13 L2598.63 1774.38 L2605.06 1774.38 L2605.06 1773.64 L2611.50 1773.64 L2611.50 1772.65 L2617.93 1772.65 L2617.93 1771.54 L2624.49 1771.54 L2624.49 1770.42 L2630.93 1770.42 L2630.93 1769.06 L2637.36 1769.06 L2637.36 1767.45 L2643.80 1767.45 L2643.80 1766.09 L2650.23 1766.09 L2650.23 1764.36 L2656.66 1764.36 L2656.66 1762.01 L2663.22 1762.01 L2663.22 1760.15 L2669.66 1760.15 L2669.66 1757.30 L2676.09 1757.30 L2676.09 1754.95 L2682.53 1754.95 L2682.53 1752.23 L2688.96 1752.23 L2688.96 1750.37 L2695.40 1750.37 L2695.40 1748.39 L2701.83 1748.39 L2701.83 1746.17 L2708.39 1746.17 L2708.39 1743.94 L2714.83 1743.94 L2714.83 1741.22 L2721.26 1741.22 L2721.26 1738.62 L2727.70 1738.62 L2727.70 1735.90 L2734.13 1735.90 L2734.13 1733.67 L2740.57 1733.67 L2740.57 1730.57 L2747.13 1730.57 L2747.13 1728.59 L2753.56 1728.59 L2753.56 1726.24 L2760.00 1726.24 L2760.00 1701.99 L2766.43 1701.99 L2766.43 1701.49 L2772.87 1701.49 L2772.87 1701.24 L2779.30 1701.24 L2779.30 1700.75 L2785.86 1700.75 L2785.86 1700.01 L2792.30 1700.01 L2792.30 1699.02 L2798.73 1699.02 L2798.73 1698.03 L2805.16 1698.03 L2805.16 1696.67 L2811.60 1696.67 L2811.60 1695.68 L2818.03 1695.68 L2818.03 1694.56 L2824.47 1694.56 L2824.47 1693.32 L2831.03 1693.32 L2831.03 1691.84 L2837.46 1691.84 L2837.46 1690.35 L2843.90 1690.35 L2843.90 1688.62 L2850.33 1688.62 L2850.33 1687.01 L2856.77 1687.01 L2856.77 1685.16 L2863.20 1685.16 L2863.20 1682.93 L2869.76 1682.93 L2869.76 1679.59 L2876.20 1679.59 L2876.20 1676.86 L2882.63 1676.86 L2882.63 1674.14 L2889.07 1674.14 L2889.07 1671.54 L2895.50 1671.54 L2895.50 1668.70 L2901.94 1668.70 L2901.94 1666.10 L2908.50 1666.10 L2908.50 1663.87 L2914.93 1663.87 L2914.93 1660.78 L2921.37 1660.78 L2921.37 1658.05 L2927.80 1658.05 L2927.80 1655.46 L2934.24 1655.46 L2934.24 1653.48 L2940.67 1653.48 L2940.67 1651.12 L2947.11 1651.12 L2947.11 1648.65 L2953.66 1648.65 L2953.66 1646.42 L2960.10 1646.42 L2960.10 1620.06 L2966.53 1620.06 L2966.53 1619.81 L2972.97 1619.81 L2972.97 1619.57 L2979.41 1619.57 L2979.41 1619.44 L2985.84 1619.44 L2985.84 1619.20 L2992.40 1619.20 L2992.40 1618.95 L2998.83 1618.95 L2998.83 1618.95 L3005.27 1618.95 L3005.27 1618.82 L3011.70 1618.82 L3011.70 1618.45 L3018.14 1618.45 L3018.14 1618.08 L3024.57 1618.08 L3024.57 1617.34 L3031.13 1617.34 L3031.13 1616.60 L3037.57 1616.60 L3037.57 1615.73 L3044.00 1615.73 L3044.00 1614.49 L3050.44 1614.49 L3050.44 1613.26 L3056.87 1613.26 L3056.87 1611.28 L3063.31 1611.28 L3063.31 1609.05 L3069.74 1609.05 L3069.74 1607.07 L3076.30 1607.07 L3076.30 1604.35 L3082.74 1604.35 L3082.74 1602.24 L3089.17 1602.24 L3089.17 1600.14 L3095.61 1600.14 L3095.61 1597.66 L3102.04 1597.66 L3102.04 1595.31 L3108.48 1595.31 L3108.48 1593.83 L3115.03 1593.83 L3115.03 1591.35 L3121.47 1591.35 L3121.47 1589.00 L3127.91 1589.00 L3127.91 1587.02 L3134.34 1587.02 L3134.34 1585.53 L3140.78 1585.53 L3140.78 1583.06 L3147.21 1583.06 L3147.21 1580.71 L3153.77 1580.71 L3153.77 1558.68 L3160.20 1558.68 L3160.20 1558.43 L3166.64 1558.43 L3166.64 1558.18 L3173.07 1558.18 L3173.07 1558.06 L3179.51 1558.06 L3179.51 1557.94 L3185.94 1557.94 L3185.94 1557.69 L3192.38 1557.69 L3192.38 1557.32 L3198.94 1557.32 L3198.94 1556.95 L3205.37 1556.95 L3205.37 1556.20 L3211.81 1556.20 L3211.81 1555.83 L3218.24 1555.83 L3218.24 1554.72 L3224.68 1554.72 L3224.68 1553.61 L3231.11 1553.61 L3231.11 1552.24 L3237.67 1552.24 L3237.67 1550.88 L3244.11 1550.88 L3244.11 1548.78 L3250.54 1548.78 L3250.54 1547.05 L3256.98 1547.05 L3256.98 1545.56 L3263.41 1545.56 L3263.41 1543.33 L3269.85 1543.33 L3269.85 1541.11 L3276.41 1541.11 L3276.41 1538.88 L3282.84 1538.88 L3282.84 1536.53 L3289.28 1536.53 L3289.28 1534.30 L3295.71 1534.30 L3295.71 1532.69 L3302.14 1532.69 L3302.14 1530.71 L3308.58 1530.71 L3308.58 1529.23 L3315.01 1529.23 L3315.01 1527.49 L3321.57 1527.49 L3321.57 1525.27 L3328.01 1525.27 L3328.01 1523.04 L3334.44 1523.04 L3334.44 1521.18 L3340.88 1521.18 L3340.88 1519.20 L3347.31 1519.20 L3347.31 1517.35 L3353.75 1517.35 L3353.75 1496.80 L3360.31 1496.80 L3360.31 1496.68 L3366.74 1496.68 L3366.74 1496.56 L3373.18 1496.56 L3373.18 1496.31 L3379.61 1496.31 L3379.61 1495.81 L3386.05 1495.81 L3386.05 1495.19 L3392.48 1495.19 L3392.48 1494.82 L3399.04 1494.82 L3399.04 1493.83 L3405.48 1493.83 L3405.48 1493.34 L3411.91 1493.34 L3411.91 1492.47 L3418.35 1492.47 L3418.35 1491.48 L3424.78 1491.48 L3424.78 1490.00 L3431.22 1490.00 L3431.22 1488.88 L3437.65 1488.88 L3437.65 1487.65 L3444.21 1487.65 L3444.21 1486.16 L3450.64 1486.16 L3450.64 1484.43 L3457.08 1484.43 L3457.08 1482.45 L3463.51 1482.45 L3463.51 1480.59 L3469.95 1480.59 L3469.95 1478.36 L3476.39 1478.36 L3476.39 1476.75 L3482.94 1476.75 L3482.94 1474.28 L3489.38 1474.28 L3489.38 1472.42 L3495.81 1472.42 L3495.81 1470.44 L3502.25 1470.44 L3502.25 1468.96 L3508.68 1468.96 L3508.68 1466.85 L3515.12 1466.85 L3515.12 1465.00 L3521.55 1465.00 L3521.55 1462.77 L3528.11 1462.77 L3528.11 1461.04 L3534.55 1461.04 L3534.55 1459.18 L3540.98 1459.18 L3540.98 1457.45 L3547.42 1457.45 L3547.42 1436.66 L3553.85 1436.66 L3553.85 1436.53 L3560.29 1436.53 L3560.29 1436.41 L3566.85 1436.41 L3566.85 1436.41 L3573.28 1436.41 L3573.28 1436.29 L3579.72 1436.29 L3579.72 1436.04 L3586.15 1436.04 L3586.15 1435.92 L3592.59 1435.92 L3592.59 1435.79 L3599.02 1435.79 L3599.02 1435.42 L3605.58 1435.42 L3605.58 1434.80 L3612.01 1434.80 L3612.01 1434.55 L3618.45 1434.55 L3618.45 1434.06 L3624.89 1434.06 L3624.89 1433.32 L3631.32 1433.32 L3631.32 1433.07 L3637.76 1433.07 L3637.76 1432.57 L3644.19 1432.57 L3644.19 1432.08 L3650.75 1432.08 L3650.75 1431.96 L3657.18 1431.96 L3657.18 1431.96 L3670.05 1431.96 L3670.05 1431.96" stroke-linejoin="round" style="fill:none;stroke:#90353B;stroke-width:6.48"/>
	<path d=" M2488.86 1816.71 L2495.30 1816.71 L2495.30 1808.79 L2501.85 1808.79 L2501.85 1801.36 L2508.29 1801.36 L2508.29 1793.44 L2514.72 1793.44 L2514.72 1786.02 L2521.16 1786.02 L2521.16 1776.73 L2527.59 1776.73 L2527.59 1769.31 L2534.03 1769.31 L2534.03 1761.27 L2540.59 1761.27 L2540.59 1752.73 L2547.02 1752.73 L2547.02 1746.17 L2553.46 1746.17 L2553.46 1739.61 L2559.89 1739.61 L2559.89 1732.55 L2566.33 1732.55 L2566.33 1724.51 L2572.76 1724.51 L2572.76 1645.56 L2579.20 1645.56 L2579.20 1645.06 L2585.76 1645.06 L2585.76 1643.95 L2592.19 1643.95 L2592.19 1642.71 L2598.63 1642.71 L2598.63 1641.60 L2605.06 1641.60 L2605.06 1638.87 L2611.50 1638.87 L2611.50 1635.65 L2617.93 1635.65 L2617.93 1632.93 L2624.49 1632.93 L2624.49 1630.09 L2630.93 1630.09 L2630.93 1626.00 L2637.36 1626.00 L2637.36 1621.79 L2643.80 1621.79 L2643.80 1617.46 L2650.23 1617.46 L2650.23 1611.40 L2656.66 1611.40 L2656.66 1604.10 L2663.22 1604.10 L2663.22 1595.93 L2669.66 1595.93 L2669.66 1586.52 L2676.09 1586.52 L2676.09 1578.85 L2682.53 1578.85 L2682.53 1569.08 L2688.96 1569.08 L2688.96 1561.03 L2695.40 1561.03 L2695.40 1552.99 L2701.83 1552.99 L2701.83 1544.20 L2708.39 1544.20 L2708.39 1535.79 L2714.83 1535.79 L2714.83 1528.11 L2721.26 1528.11 L2721.26 1521.18 L2727.70 1521.18 L2727.70 1513.76 L2734.13 1513.76 L2734.13 1506.21 L2740.57 1506.21 L2740.57 1498.91 L2747.13 1498.91 L2747.13 1490.24 L2753.56 1490.24 L2753.56 1481.71 L2760.00 1481.71 L2760.00 1390.25 L2766.43 1390.25 L2766.43 1389.14 L2772.87 1389.14 L2772.87 1387.40 L2779.30 1387.40 L2779.30 1385.55 L2785.86 1385.55 L2785.86 1382.83 L2792.30 1382.83 L2792.30 1379.73 L2798.73 1379.73 L2798.73 1376.51 L2805.16 1376.51 L2805.16 1373.30 L2811.60 1373.30 L2811.60 1369.09 L2818.03 1369.09 L2818.03 1365.38 L2824.47 1365.38 L2824.47 1360.55 L2831.03 1360.55 L2831.03 1355.60 L2837.46 1355.60 L2837.46 1351.39 L2843.90 1351.39 L2843.90 1345.58 L2850.33 1345.58 L2850.33 1340.25 L2856.77 1340.25 L2856.77 1333.82 L2863.20 1333.82 L2863.20 1325.65 L2869.76 1325.65 L2869.76 1315.75 L2876.20 1315.75 L2876.20 1305.97 L2882.63 1305.97 L2882.63 1296.69 L2889.07 1296.69 L2889.07 1285.06 L2895.50 1285.06 L2895.50 1275.04 L2901.94 1275.04 L2901.94 1266.00 L2908.50 1266.00 L2908.50 1255.85 L2914.93 1255.85 L2914.93 1247.93 L2921.37 1247.93 L2921.37 1238.28 L2927.80 1238.28 L2927.80 1228.26 L2934.24 1228.26 L2934.24 1219.72 L2940.67 1219.72 L2940.67 1210.81 L2947.11 1210.81 L2947.11 1203.38 L2953.66 1203.38 L2953.66 1193.98 L2960.10 1193.98 L2960.10 1094.97 L2966.53 1094.97 L2966.53 1094.85 L2972.97 1094.85 L2972.97 1094.48 L2979.41 1094.48 L2979.41 1093.61 L2985.84 1093.61 L2985.84 1093.24 L2992.40 1093.24 L2992.40 1092.50 L2998.83 1092.50 L2998.83 1091.51 L3005.27 1091.51 L3005.27 1090.52 L3011.70 1090.52 L3011.70 1089.28 L3018.14 1089.28 L3018.14 1087.67 L3024.57 1087.67 L3024.57 1085.07 L3031.13 1085.07 L3031.13 1082.35 L3037.57 1082.35 L3037.57 1079.01 L3044.00 1079.01 L3044.00 1074.80 L3050.44 1074.80 L3050.44 1068.74 L3056.87 1068.74 L3056.87 1062.67 L3063.31 1062.67 L3063.31 1056.12 L3069.74 1056.12 L3069.74 1048.07 L3076.30 1048.07 L3076.30 1040.77 L3082.74 1040.77 L3082.74 1033.84 L3089.17 1033.84 L3089.17 1027.03 L3095.61 1027.03 L3095.61 1018.49 L3102.04 1018.49 L3102.04 1011.07 L3108.48 1011.07 L3108.48 1004.26 L3115.03 1004.26 L3115.03 995.85 L3121.47 995.85 L3121.47 987.93 L3127.91 987.93 L3127.91 982.11 L3134.34 982.11 L3134.34 973.94 L3140.78 973.94 L3140.78 967.51 L3147.21 967.51 L3147.21 960.21 L3153.77 960.21 L3153.77 887.19 L3160.20 887.19 L3160.20 886.94 L3166.64 886.94 L3166.64 886.82 L3173.07 886.82 L3173.07 886.33 L3179.51 886.33 L3179.51 885.71 L3185.94 885.71 L3185.94 885.09 L3192.38 885.09 L3192.38 884.47 L3198.94 884.47 L3198.94 882.24 L3205.37 882.24 L3205.37 880.01 L3211.81 880.01 L3211.81 878.03 L3218.24 878.03 L3218.24 875.19 L3224.68 875.19 L3224.68 871.97 L3231.11 871.97 L3231.11 868.50 L3237.67 868.50 L3237.67 864.17 L3244.11 864.17 L3244.11 859.35 L3250.54 859.35 L3250.54 852.05 L3256.98 852.05 L3256.98 846.11 L3263.41 846.11 L3263.41 839.67 L3269.85 839.67 L3269.85 832.86 L3276.41 832.86 L3276.41 826.06 L3282.84 826.06 L3282.84 819.99 L3289.28 819.99 L3289.28 813.68 L3295.71 813.68 L3295.71 807.25 L3302.14 807.25 L3302.14 799.94 L3308.58 799.94 L3308.58 794.38 L3315.01 794.38 L3315.01 787.45 L3321.57 787.45 L3321.57 781.63 L3328.01 781.63 L3328.01 774.95 L3334.44 774.95 L3334.44 767.77 L3340.88 767.77 L3340.88 761.83 L3347.31 761.83 L3347.31 756.51 L3353.75 756.51 L3353.75 687.58 L3360.31 687.58 L3360.31 687.21 L3366.74 687.21 L3366.74 686.96 L3373.18 686.96 L3373.18 685.35 L3379.61 685.35 L3379.61 683.62 L3386.05 683.62 L3386.05 681.76 L3392.48 681.76 L3392.48 679.66 L3399.04 679.66 L3399.04 678.05 L3405.48 678.05 L3405.48 674.46 L3411.91 674.46 L3411.91 671.12 L3418.35 671.12 L3418.35 668.15 L3424.78 668.15 L3424.78 664.19 L3431.22 664.19 L3431.22 660.23 L3437.65 660.23 L3437.65 655.90 L3444.21 655.90 L3444.21 652.18 L3450.64 652.18 L3450.64 646.49 L3457.08 646.49 L3457.08 640.30 L3463.51 640.30 L3463.51 633.37 L3469.95 633.37 L3469.95 627.56 L3476.39 627.56 L3476.39 621.62 L3482.94 621.62 L3482.94 615.55 L3489.38 615.55 L3489.38 609.86 L3495.81 609.86 L3495.81 604.91 L3502.25 604.91 L3502.25 597.85 L3508.68 597.85 L3508.68 591.05 L3515.12 591.05 L3515.12 584.49 L3521.55 584.49 L3521.55 578.67 L3528.11 578.67 L3528.11 572.98 L3534.55 572.98 L3534.55 567.78 L3540.98 567.78 L3540.98 563.08 L3547.42 563.08 L3547.42 483.14 L3553.85 483.14 L3553.85 482.76 L3566.85 482.76 L3566.85 482.52 L3573.28 482.52 L3573.28 482.39 L3579.72 482.39 L3579.72 481.77 L3586.15 481.77 L3586.15 481.16 L3592.59 481.16 L3592.59 480.29 L3599.02 480.29 L3599.02 478.43 L3605.58 478.43 L3605.58 476.45 L3612.01 476.45 L3612.01 473.48 L3618.45 473.48 L3618.45 470.76 L3624.89 470.76 L3624.89 468.41 L3631.32 468.41 L3631.32 466.06 L3637.76 466.06 L3637.76 464.94 L3644.19 464.94 L3644.19 463.58 L3650.75 463.58 L3650.75 462.84 L3657.18 462.84 L3657.18 462.34 L3663.62 462.34 L3663.62 461.97 L3670.05 461.97 L3670.05 461.97" stroke-linejoin="round" style="fill:none;stroke:#55752F;stroke-width:6.48"/>
	<line x1="2435.03" y1="1873.51" x2="2435.03" y2="414.45" style="stroke:#000000;stroke-width:4.32"/>
	<line x1="2435.03" y1="1825.99" x2="2404.96" y2="1825.99" style="stroke:#000000;stroke-width:4.32"/>
	<text x="2389.98" y="1852.27" style="font-family:'Helvetica';font-size:74.99px;fill:#000000" text-anchor="end">0.000</text>
	<line x1="2435.03" y1="1790.84" x2="2404.96" y2="1790.84" style="stroke:#000000;stroke-width:4.32"/>
	<text x="2389.98" y="1817.12" style="font-family:'Helvetica';font-size:74.99px;fill:#000000" text-anchor="end">0.001</text>
	<line x1="2435.03" y1="1755.70" x2="2404.96" y2="1755.70" style="stroke:#000000;stroke-width:4.32"/>
	<text x="2389.98" y="1781.98" style="font-family:'Helvetica';font-size:74.99px;fill:#000000" text-anchor="end">0.002</text>
	<line x1="2435.03" y1="1720.55" x2="2404.96" y2="1720.55" style="stroke:#000000;stroke-width:4.32"/>
	<text x="2389.98" y="1746.83" style="font-family:'Helvetica';font-size:74.99px;fill:#000000" text-anchor="end">0.003</text>
	<line x1="2435.03" y1="1685.40" x2="2404.96" y2="1685.40" style="stroke:#000000;stroke-width:4.32"/>
	<text x="2389.98" y="1711.68" style="font-family:'Helvetica';font-size:74.99px;fill:#000000" text-anchor="end">0.004</text>
	<line x1="2435.03" y1="1650.26" x2="2404.96" y2="1650.26" style="stroke:#000000;stroke-width:4.32"/>
	<text x="2389.98" y="1676.54" style="font-family:'Helvetica';font-size:74.99px;fill:#000000" text-anchor="end">0.005</text>
	<line x1="2435.03" y1="1873.51" x2="3820.91" y2="1873.51" style="stroke:#000000;stroke-width:4.32"/>
	<line x1="2482.55" y1="1873.51" x2="2482.55" y2="1903.46" style="stroke:#000000;stroke-width:4.32"/>
	<text x="2482.55" y="1970.87" style="font-family:'Helvetica';font-size:74.99px;fill:#000000" text-anchor="middle">1 Feb 20</text>
	<line x1="2669.66" y1="1873.51" x2="2669.66" y2="1903.46" style="stroke:#000000;stroke-width:4.32"/>
	<text x="2669.66" y="1970.87" style="font-family:'Helvetica';font-size:74.99px;fill:#000000" text-anchor="middle">1 Mar 20</text>
	<line x1="2869.76" y1="1873.51" x2="2869.76" y2="1903.46" style="stroke:#000000;stroke-width:4.32"/>
	<text x="2869.76" y="1970.87" style="font-family:'Helvetica';font-size:74.99px;fill:#000000" text-anchor="middle">1 Apr 20</text>
	<line x1="3069.87" y1="1873.51" x2="3069.87" y2="1903.46" style="stroke:#000000;stroke-width:4.32"/>
	<text x="3069.87" y="1970.87" style="font-family:'Helvetica';font-size:74.99px;fill:#000000" text-anchor="middle">1 May 20</text>
	<line x1="3263.53" y1="1873.51" x2="3263.53" y2="1903.46" style="stroke:#000000;stroke-width:4.32"/>
	<text x="3263.53" y="1970.87" style="font-family:'Helvetica';font-size:74.99px;fill:#000000" text-anchor="middle">1 June 20</text>
	<line x1="3457.08" y1="1873.51" x2="3457.08" y2="1903.46" style="stroke:#000000;stroke-width:4.32"/>
	<text x="3457.08" y="1970.87" style="font-family:'Helvetica';font-size:74.99px;fill:#000000" text-anchor="middle">1 July 20</text>
	<line x1="3657.18" y1="1873.51" x2="3657.18" y2="1903.46" style="stroke:#000000;stroke-width:4.32"/>
	<text x="3657.18" y="1970.87" style="font-family:'Helvetica';font-size:74.99px;fill:#000000" text-anchor="middle">1 Aug 20</text>
	<text x="3127.91" y="2053.41" style="font-family:'Helvetica';font-size:74.99px;fill:#000000" text-anchor="middle">Days since 1 Feb 2020</text>
	<text x="3127.91" y="369.91" style="font-family:'Helvetica';font-size:104.94px;fill:#1E2D53" text-anchor="middle">Male</text>
	<text x="150.62" y="1187.29" style="font-family:'Helvetica';font-size:99.99px;fill:#000000" transform="rotate(-90 150.62,1187.29)" text-anchor="middle">Cumulative probability</text>
	<text x="250.61" y="1187.29" style="font-family:'Helvetica';font-size:99.99px;fill:#000000" transform="rotate(-90 250.61,1187.29)" text-anchor="middle">Non covid death</text>
	<text x="2097.19" y="157.51" style="font-family:'Helvetica';font-size:110.01px;fill:#000000" text-anchor="middle"> </text>
	<rect x="1338.23" y="2201.21" width="1517.92" height="580.90" style="fill:#FFFFFF"/>
	<rect x="1341.11" y="2204.09" width="1512.16" height="575.14" style="fill:none;stroke:#000000;stroke-width:5.76"/>
	<line x1="1381.42" y1="2408.87" x2="1755.89" y2="2408.87" style="stroke:#1A476F;stroke-width:8.64"/>
	<line x1="1381.42" y1="2548.83" x2="1755.89" y2="2548.83" style="stroke:#90353B;stroke-width:8.64"/>
	<line x1="1381.42" y1="2688.92" x2="1755.89" y2="2688.92" style="stroke:#55752F;stroke-width:8.64"/>
	<text x="1815.78" y="2436.88" style="font-family:'Helvetica';font-size:79.94px;fill:#000000">18-&lt;30</text>
	<text x="1815.78" y="2576.85" style="font-family:'Helvetica';font-size:79.94px;fill:#000000">30-&lt;40</text>
	<text x="1815.78" y="2716.94" style="font-family:'Helvetica';font-size:79.94px;fill:#000000">40-&lt;50</text>
	<text x="2251.38" y="2436.88" style="font-family:'Helvetica';font-size:79.94px;fill:#000000">50-&lt;60</text>
	<text x="2251.38" y="2576.85" style="font-family:'Helvetica';font-size:79.94px;fill:#000000">60-&lt;70</text>
	<text x="2251.38" y="2716.94" style="font-family:'Helvetica';font-size:79.94px;fill:#000000">70-&lt;80</text>
	<text x="2686.98" y="2436.88" style="font-family:'Helvetica';font-size:79.94px;fill:#000000">80+</text>
	<text x="2097.19" y="2308.96" style="font-family:'Helvetica';font-size:79.94px;fill:#000000" text-anchor="middle">Age group</text>
</svg>
