<?xml version="1.0" encoding="UTF-8" standalone="no"?>
<!-- This is a Stata 15.1 generated SVG file (http://www.stata.com) -->

<svg version="1.1" width="5.50in" height="4.00in" viewBox="0 0 3960 2880" xmlns="http://www.w3.org/2000/svg" xmlns:xlink="http://www.w3.org/1999/xlink">
	<desc>Stata Graph - Graph</desc>
	<rect x="0" y="0" width="3960" height="2880" style="fill:#EAF2F3;stroke:none"/>
	<rect x="0.00" y="0.00" width="3959.88" height="2880.00" style="fill:#EAF2F3"/>
	<rect x="2.88" y="2.88" width="3954.12" height="2874.24" style="fill:none;stroke:#EAF2F3;stroke-width:5.76"/>
	<rect x="390.80" y="100.86" width="3468.22" height="2388.33" style="fill:#FFFFFF"/>
	<rect x="393.68" y="103.74" width="3462.46" height="2382.57" style="fill:none;stroke:#FFFFFF;stroke-width:5.76"/>
	<line x1="390.80" y1="4496.72" x2="3859.02" y2="4496.72" style="stroke:#EAF2F3;stroke-width:8.64"/>
	<line x1="390.80" y1="3413.50" x2="3859.02" y2="3413.50" style="stroke:#EAF2F3;stroke-width:8.64"/>
	<line x1="390.80" y1="2330.41" x2="3859.02" y2="2330.41" style="stroke:#EAF2F3;stroke-width:8.64"/>
	<line x1="390.80" y1="1247.32" x2="3859.02" y2="1247.32" style="stroke:#EAF2F3;stroke-width:8.64"/>
	<line x1="390.80" y1="164.22" x2="3859.02" y2="164.22" style="stroke:#EAF2F3;stroke-width:8.64"/>
	<line x1="390.80" y1="921.22" x2="3859.02" y2="921.22" style="stroke:#EAF2F3;stroke-width:8.64"/>
	<line x1="390.80" y1="-1961.38" x2="448.35" y2="-1961.38" style="stroke:#C10534;stroke-width:8.64"/>
	<line x1="477.18" y1="-1961.38" x2="534.72" y2="-1961.38" style="stroke:#C10534;stroke-width:8.64"/>
	<line x1="563.56" y1="-1961.38" x2="621.23" y2="-1961.38" style="stroke:#C10534;stroke-width:8.64"/>
	<line x1="649.93" y1="-1961.38" x2="707.60" y2="-1961.38" style="stroke:#C10534;stroke-width:8.64"/>
	<line x1="736.44" y1="-1961.38" x2="793.98" y2="-1961.38" style="stroke:#C10534;stroke-width:8.64"/>
	<line x1="822.81" y1="-1961.38" x2="880.36" y2="-1961.38" style="stroke:#C10534;stroke-width:8.64"/>
	<line x1="909.19" y1="-1961.38" x2="966.74" y2="-1961.38" style="stroke:#C10534;stroke-width:8.64"/>
	<line x1="995.57" y1="-1961.38" x2="1053.11" y2="-1961.38" style="stroke:#C10534;stroke-width:8.64"/>
	<line x1="1081.95" y1="-1961.38" x2="1139.49" y2="-1961.38" style="stroke:#C10534;stroke-width:8.64"/>
	<line x1="1168.32" y1="-1961.38" x2="1225.87" y2="-1961.38" style="stroke:#C10534;stroke-width:8.64"/>
	<line x1="1254.70" y1="-1961.38" x2="1312.24" y2="-1961.38" style="stroke:#C10534;stroke-width:8.64"/>
	<line x1="1341.08" y1="-1961.38" x2="1398.62" y2="-1961.38" style="stroke:#C10534;stroke-width:8.64"/>
	<line x1="1427.46" y1="-1961.38" x2="1485.00" y2="-1961.38" style="stroke:#C10534;stroke-width:8.64"/>
	<line x1="1513.83" y1="-1961.38" x2="1571.50" y2="-1961.38" style="stroke:#C10534;stroke-width:8.64"/>
	<line x1="1600.21" y1="-1961.38" x2="1657.88" y2="-1961.38" style="stroke:#C10534;stroke-width:8.64"/>
	<line x1="1686.71" y1="-1961.38" x2="1744.26" y2="-1961.38" style="stroke:#C10534;stroke-width:8.64"/>
	<line x1="1773.09" y1="-1961.38" x2="1830.63" y2="-1961.38" style="stroke:#C10534;stroke-width:8.64"/>
	<line x1="1859.47" y1="-1961.38" x2="1917.01" y2="-1961.38" style="stroke:#C10534;stroke-width:8.64"/>
	<line x1="1945.85" y1="-1961.38" x2="2003.39" y2="-1961.38" style="stroke:#C10534;stroke-width:8.64"/>
	<line x1="2032.22" y1="-1961.38" x2="2089.77" y2="-1961.38" style="stroke:#C10534;stroke-width:8.64"/>
	<line x1="2118.60" y1="-1961.38" x2="2176.14" y2="-1961.38" style="stroke:#C10534;stroke-width:8.64"/>
	<line x1="2204.98" y1="-1961.38" x2="2262.52" y2="-1961.38" style="stroke:#C10534;stroke-width:8.64"/>
	<line x1="2291.36" y1="-1961.38" x2="2348.90" y2="-1961.38" style="stroke:#C10534;stroke-width:8.64"/>
	<line x1="2377.73" y1="-1961.38" x2="2435.40" y2="-1961.38" style="stroke:#C10534;stroke-width:8.64"/>
	<line x1="2464.11" y1="-1961.38" x2="2521.78" y2="-1961.38" style="stroke:#C10534;stroke-width:8.64"/>
	<line x1="2550.49" y1="-1961.38" x2="2608.16" y2="-1961.38" style="stroke:#C10534;stroke-width:8.64"/>
	<line x1="2636.99" y1="-1961.38" x2="2694.53" y2="-1961.38" style="stroke:#C10534;stroke-width:8.64"/>
	<line x1="2723.37" y1="-1961.38" x2="2780.91" y2="-1961.38" style="stroke:#C10534;stroke-width:8.64"/>
	<line x1="2809.74" y1="-1961.38" x2="2867.29" y2="-1961.38" style="stroke:#C10534;stroke-width:8.64"/>
	<line x1="2896.12" y1="-1961.38" x2="2953.66" y2="-1961.38" style="stroke:#C10534;stroke-width:8.64"/>
	<line x1="2982.50" y1="-1961.38" x2="3040.04" y2="-1961.38" style="stroke:#C10534;stroke-width:8.64"/>
	<line x1="3068.88" y1="-1961.38" x2="3126.42" y2="-1961.38" style="stroke:#C10534;stroke-width:8.64"/>
	<line x1="3155.25" y1="-1961.38" x2="3212.80" y2="-1961.38" style="stroke:#C10534;stroke-width:8.64"/>
	<line x1="3241.63" y1="-1961.38" x2="3299.18" y2="-1961.38" style="stroke:#C10534;stroke-width:8.64"/>
	<line x1="3328.01" y1="-1961.38" x2="3385.68" y2="-1961.38" style="stroke:#C10534;stroke-width:8.64"/>
	<line x1="3414.39" y1="-1961.38" x2="3472.05" y2="-1961.38" style="stroke:#C10534;stroke-width:8.64"/>
	<line x1="3500.76" y1="-1961.38" x2="3558.43" y2="-1961.38" style="stroke:#C10534;stroke-width:8.64"/>
	<line x1="3587.26" y1="-1961.38" x2="3644.81" y2="-1961.38" style="stroke:#C10534;stroke-width:8.64"/>
	<line x1="3673.64" y1="-1961.38" x2="3731.19" y2="-1961.38" style="stroke:#C10534;stroke-width:8.64"/>
	<line x1="3760.02" y1="-1961.38" x2="3817.56" y2="-1961.38" style="stroke:#C10534;stroke-width:8.64"/>
	<line x1="3846.40" y1="-1961.38" x2="3859.02" y2="-1961.38" style="stroke:#C10534;stroke-width:8.64"/>
	<path d=" M454.04 2251.95 L491.16 2256.65 L528.29 2261.35 L565.41 2266.18 L602.54 2270.88 L639.66 2275.59 L676.79 2280.29 L714.04 2284.87 L751.16 2289.45 L788.29 2293.90 L825.41 2272.62 L862.54 2302.44 L899.66 2306.40 L936.79 2310.24 L973.91 2288.21 L1011.04 2317.29 L1048.16 2320.51 L1085.29 2323.36 L1122.41 2326.08 L1159.54 2328.31 L1196.66 2330.41 L1233.79 2306.40 L1270.91 2333.38 L1308.04 2334.37 L1345.16 2334.99 L1382.29 2335.48 L1419.41 2335.61 L1456.54 2335.61 L1493.66 2335.36 L1530.79 2334.99 L1567.91 2334.49 L1605.04 2334.00 L1642.16 2333.38 L1679.29 2332.76 L1716.41 2332.02 L1753.54 2331.52 L1790.66 2330.90 L1827.79 2330.53 L1864.91 2350.70 L1902.04 2330.04 L1939.29 2330.04 L1976.41 2330.29 L2013.54 2330.66 L2050.66 2331.15 L2087.79 2306.28 L2124.91 2332.76 L2162.04 2333.75 L2199.16 2334.86 L2236.29 2336.10 L2273.41 2337.46 L2310.54 2338.95 L2347.66 2340.56 L2384.79 2342.29 L2421.91 2344.02 L2459.04 2366.42 L2496.16 2322.12 L2533.29 2349.84 L2570.41 2351.82 L2607.54 2353.92 L2644.66 2356.15 L2681.79 2358.25 L2718.91 2360.48 L2756.04 2362.71 L2793.16 2365.06 L2830.29 2367.29 L2867.41 2343.90 L2904.54 2371.74 L2941.66 2394.51 L2978.79 2376.32 L3015.91 2399.09 L3053.04 2380.78 L3090.16 2383.00 L3127.29 2385.36 L3164.41 2408.13 L3201.66 2389.81 L3238.78 2392.04 L3275.91 2394.39 L3313.03 2396.62 L3350.16 2373.23 L3387.28 2401.07 L3424.41 2403.30 L3461.53 2405.65 L3572.91 2412.33 L3721.41 2421.37 L3795.66 2425.95" stroke-linecap="round" stroke-linejoin="round" style="fill:none;stroke:#1A476F;stroke-width:8.64"/>
	<line x1="390.80" y1="2489.19" x2="390.80" y2="100.86" style="stroke:#000000;stroke-width:5.76"/>
	<line x1="390.80" y1="4496.72" x2="350.83" y2="4496.72" style="stroke:#000000;stroke-width:5.76"/>
	<text x="300.72" y="4496.72" style="font-family:'Helvetica';font-size:99.99px;fill:#000000" transform="rotate(-90 300.72,4496.72)" text-anchor="middle">.01</text>
	<line x1="390.80" y1="3413.50" x2="350.83" y2="3413.50" style="stroke:#000000;stroke-width:5.76"/>
	<text x="300.72" y="3413.50" style="font-family:'Helvetica';font-size:99.99px;fill:#000000" transform="rotate(-90 300.72,3413.50)" text-anchor="middle">.1</text>
	<line x1="390.80" y1="2330.41" x2="350.83" y2="2330.41" style="stroke:#000000;stroke-width:5.76"/>
	<text x="300.72" y="2330.41" style="font-family:'Helvetica';font-size:99.99px;fill:#000000" transform="rotate(-90 300.72,2330.41)" text-anchor="middle">1</text>
	<line x1="390.80" y1="1247.32" x2="350.83" y2="1247.32" style="stroke:#000000;stroke-width:5.76"/>
	<text x="300.72" y="1247.32" style="font-family:'Helvetica';font-size:99.99px;fill:#000000" transform="rotate(-90 300.72,1247.32)" text-anchor="middle">10</text>
	<line x1="390.80" y1="164.22" x2="350.83" y2="164.22" style="stroke:#000000;stroke-width:5.76"/>
	<text x="300.72" y="164.22" style="font-family:'Helvetica';font-size:99.99px;fill:#000000" transform="rotate(-90 300.72,164.22)" text-anchor="middle">100</text>
	<line x1="390.80" y1="921.22" x2="350.83" y2="921.22" style="stroke:#000000;stroke-width:5.76"/>
	<text x="300.72" y="921.22" style="font-family:'Helvetica';font-size:99.99px;fill:#000000" transform="rotate(-90 300.72,921.22)" text-anchor="middle">20</text>
	<text x="190.71" y="1294.96" style="font-family:'Helvetica';font-size:99.99px;fill:#000000" transform="rotate(-90 190.71,1294.96)" text-anchor="middle">Hazard ratio compared to age 55 years (log scale)</text>
	<line x1="390.80" y1="2489.19" x2="3859.02" y2="2489.19" style="stroke:#000000;stroke-width:5.76"/>
	<line x1="528.41" y1="2489.19" x2="528.41" y2="2529.16" style="stroke:#000000;stroke-width:5.76"/>
	<text x="528.41" y="2619.14" style="font-family:'Helvetica';font-size:99.99px;fill:#000000" text-anchor="middle">20</text>
	<line x1="1270.91" y1="2489.19" x2="1270.91" y2="2529.16" style="stroke:#000000;stroke-width:5.76"/>
	<text x="1270.91" y="2619.14" style="font-family:'Helvetica';font-size:99.99px;fill:#000000" text-anchor="middle">40</text>
	<line x1="2013.54" y1="2489.19" x2="2013.54" y2="2529.16" style="stroke:#000000;stroke-width:5.76"/>
	<text x="2013.54" y="2619.14" style="font-family:'Helvetica';font-size:99.99px;fill:#000000" text-anchor="middle">60</text>
	<line x1="2756.16" y1="2489.19" x2="2756.16" y2="2529.16" style="stroke:#000000;stroke-width:5.76"/>
	<text x="2756.16" y="2619.14" style="font-family:'Helvetica';font-size:99.99px;fill:#000000" text-anchor="middle">80</text>
	<line x1="3498.66" y1="2489.19" x2="3498.66" y2="2529.16" style="stroke:#000000;stroke-width:5.76"/>
	<text x="3498.66" y="2619.14" style="font-family:'Helvetica';font-size:99.99px;fill:#000000" text-anchor="middle">100</text>
	<text x="2124.91" y="2729.16" style="font-family:'Helvetica';font-size:99.99px;fill:#000000" text-anchor="middle">Age in years</text>
</svg>
