<?xml version="1.0" encoding="UTF-8" standalone="no"?>
<!-- This is a Stata 15.1 generated SVG file (http://www.stata.com) -->

<svg version="1.1" width="5.50in" height="4.00in" viewBox="0 0 3960 2880" xmlns="http://www.w3.org/2000/svg" xmlns:xlink="http://www.w3.org/1999/xlink">
	<desc>Stata Graph - Graph</desc>
	<rect x="0" y="0" width="3960" height="2880" style="fill:#EAF2F3;stroke:none"/>
	<rect x="0.00" y="0.00" width="3959.88" height="2880.00" style="fill:#EAF2F3"/>
	<rect x="2.88" y="2.88" width="3954.12" height="2874.24" style="fill:none;stroke:#EAF2F3;stroke-width:5.76"/>
	<rect x="390.80" y="100.86" width="3468.22" height="2388.33" style="fill:#FFFFFF"/>
	<rect x="393.68" y="103.74" width="3462.46" height="2382.57" style="fill:none;stroke:#FFFFFF;stroke-width:5.76"/>
	<line x1="390.80" y1="4545.60" x2="3859.02" y2="4545.60" style="stroke:#EAF2F3;stroke-width:8.64"/>
	<line x1="390.80" y1="3450.26" x2="3859.02" y2="3450.26" style="stroke:#EAF2F3;stroke-width:8.64"/>
	<line x1="390.80" y1="2354.91" x2="3859.02" y2="2354.91" style="stroke:#EAF2F3;stroke-width:8.64"/>
	<line x1="390.80" y1="1259.57" x2="3859.02" y2="1259.57" style="stroke:#EAF2F3;stroke-width:8.64"/>
	<line x1="390.80" y1="164.22" x2="3859.02" y2="164.22" style="stroke:#EAF2F3;stroke-width:8.64"/>
	<line x1="390.80" y1="929.76" x2="3859.02" y2="929.76" style="stroke:#EAF2F3;stroke-width:8.64"/>
	<line x1="390.80" y1="2042.68" x2="448.35" y2="2042.68" style="stroke:#C10534;stroke-width:8.64"/>
	<line x1="477.18" y1="2042.68" x2="534.72" y2="2042.68" style="stroke:#C10534;stroke-width:8.64"/>
	<line x1="563.56" y1="2042.68" x2="621.23" y2="2042.68" style="stroke:#C10534;stroke-width:8.64"/>
	<line x1="649.93" y1="2042.68" x2="707.60" y2="2042.68" style="stroke:#C10534;stroke-width:8.64"/>
	<line x1="736.44" y1="2042.68" x2="793.98" y2="2042.68" style="stroke:#C10534;stroke-width:8.64"/>
	<line x1="822.81" y1="2042.68" x2="880.36" y2="2042.68" style="stroke:#C10534;stroke-width:8.64"/>
	<line x1="909.19" y1="2042.68" x2="966.74" y2="2042.68" style="stroke:#C10534;stroke-width:8.64"/>
	<line x1="995.57" y1="2042.68" x2="1053.11" y2="2042.68" style="stroke:#C10534;stroke-width:8.64"/>
	<line x1="1081.95" y1="2042.68" x2="1139.49" y2="2042.68" style="stroke:#C10534;stroke-width:8.64"/>
	<line x1="1168.32" y1="2042.68" x2="1225.87" y2="2042.68" style="stroke:#C10534;stroke-width:8.64"/>
	<line x1="1254.70" y1="2042.68" x2="1312.24" y2="2042.68" style="stroke:#C10534;stroke-width:8.64"/>
	<line x1="1341.08" y1="2042.68" x2="1398.62" y2="2042.68" style="stroke:#C10534;stroke-width:8.64"/>
	<line x1="1427.46" y1="2042.68" x2="1485.00" y2="2042.68" style="stroke:#C10534;stroke-width:8.64"/>
	<line x1="1513.83" y1="2042.68" x2="1571.50" y2="2042.68" style="stroke:#C10534;stroke-width:8.64"/>
	<line x1="1600.21" y1="2042.68" x2="1657.88" y2="2042.68" style="stroke:#C10534;stroke-width:8.64"/>
	<line x1="1686.71" y1="2042.68" x2="1744.26" y2="2042.68" style="stroke:#C10534;stroke-width:8.64"/>
	<line x1="1773.09" y1="2042.68" x2="1830.63" y2="2042.68" style="stroke:#C10534;stroke-width:8.64"/>
	<line x1="1859.47" y1="2042.68" x2="1917.01" y2="2042.68" style="stroke:#C10534;stroke-width:8.64"/>
	<line x1="1945.85" y1="2042.68" x2="2003.39" y2="2042.68" style="stroke:#C10534;stroke-width:8.64"/>
	<line x1="2032.22" y1="2042.68" x2="2089.77" y2="2042.68" style="stroke:#C10534;stroke-width:8.64"/>
	<line x1="2118.60" y1="2042.68" x2="2176.14" y2="2042.68" style="stroke:#C10534;stroke-width:8.64"/>
	<line x1="2204.98" y1="2042.68" x2="2262.52" y2="2042.68" style="stroke:#C10534;stroke-width:8.64"/>
	<line x1="2291.36" y1="2042.68" x2="2348.90" y2="2042.68" style="stroke:#C10534;stroke-width:8.64"/>
	<line x1="2377.73" y1="2042.68" x2="2435.40" y2="2042.68" style="stroke:#C10534;stroke-width:8.64"/>
	<line x1="2464.11" y1="2042.68" x2="2521.78" y2="2042.68" style="stroke:#C10534;stroke-width:8.64"/>
	<line x1="2550.49" y1="2042.68" x2="2608.16" y2="2042.68" style="stroke:#C10534;stroke-width:8.64"/>
	<line x1="2636.99" y1="2042.68" x2="2694.53" y2="2042.68" style="stroke:#C10534;stroke-width:8.64"/>
	<line x1="2723.37" y1="2042.68" x2="2780.91" y2="2042.68" style="stroke:#C10534;stroke-width:8.64"/>
	<line x1="2809.74" y1="2042.68" x2="2867.29" y2="2042.68" style="stroke:#C10534;stroke-width:8.64"/>
	<line x1="2896.12" y1="2042.68" x2="2953.66" y2="2042.68" style="stroke:#C10534;stroke-width:8.64"/>
	<line x1="2982.50" y1="2042.68" x2="3040.04" y2="2042.68" style="stroke:#C10534;stroke-width:8.64"/>
	<line x1="3068.88" y1="2042.68" x2="3126.42" y2="2042.68" style="stroke:#C10534;stroke-width:8.64"/>
	<line x1="3155.25" y1="2042.68" x2="3212.80" y2="2042.68" style="stroke:#C10534;stroke-width:8.64"/>
	<line x1="3241.63" y1="2042.68" x2="3299.18" y2="2042.68" style="stroke:#C10534;stroke-width:8.64"/>
	<line x1="3328.01" y1="2042.68" x2="3385.68" y2="2042.68" style="stroke:#C10534;stroke-width:8.64"/>
	<line x1="3414.39" y1="2042.68" x2="3472.05" y2="2042.68" style="stroke:#C10534;stroke-width:8.64"/>
	<line x1="3500.76" y1="2042.68" x2="3558.43" y2="2042.68" style="stroke:#C10534;stroke-width:8.64"/>
	<line x1="3587.26" y1="2042.68" x2="3644.81" y2="2042.68" style="stroke:#C10534;stroke-width:8.64"/>
	<line x1="3673.64" y1="2042.68" x2="3731.19" y2="2042.68" style="stroke:#C10534;stroke-width:8.64"/>
	<line x1="3760.02" y1="2042.68" x2="3817.56" y2="2042.68" style="stroke:#C10534;stroke-width:8.64"/>
	<line x1="3846.40" y1="2042.68" x2="3859.02" y2="2042.68" style="stroke:#C10534;stroke-width:8.64"/>
	<path d=" M454.04 2266.43 L491.16 2208.76 L528.29 2220.14 L565.41 2231.03 L602.54 2241.43 L639.66 2251.45 L676.79 2260.98 L714.04 2269.89 L751.16 2278.31 L788.29 2286.23 L825.41 2293.41 L862.54 2300.09 L899.66 2306.15 L936.79 2318.03 L973.91 2316.55 L1011.04 2288.58 L1048.16 2324.84 L1085.29 2328.43 L1122.41 2331.40 L1159.54 2334.12 L1196.66 2376.82 L1233.79 2338.45 L1270.91 2340.06 L1308.04 2341.55 L1345.16 2411.96 L1382.29 2343.65 L1419.41 2350.83 L1456.54 2414.31 L1493.66 2345.51 L1530.79 2352.31 L1567.91 2415.43 L1605.04 2346.37 L1642.16 2346.62 L1679.29 2346.87 L1716.41 2347.24 L1753.54 2315.19 L1790.66 2347.98 L1827.79 2354.91 L1864.91 2348.97 L1902.04 2349.47 L1939.29 2350.09 L1976.41 2350.70 L2013.54 2351.32 L2050.66 2351.94 L2087.79 2352.68 L2124.91 2353.43 L2162.04 2354.17 L2199.16 2354.91 L2236.29 2355.78 L2273.41 2425.95 L2310.54 2357.51 L2347.66 2358.38 L2384.79 2359.24 L2421.91 2360.11 L2459.04 2332.14 L2496.16 2361.97 L2533.29 2362.96 L2570.41 2363.95 L2607.54 2364.94 L2644.66 2365.80 L2681.79 2366.79 L2718.91 2367.78 L2756.04 2368.77 L2793.16 2369.76 L2830.29 2370.75 L2867.41 2231.41 L2904.54 2379.17 L2941.66 2373.72 L2978.79 2381.15 L3015.91 2353.18 L3053.04 2344.27 L3090.16 2377.68 L3127.29 2378.67 L3164.41 2379.66 L3201.66 2387.09 L3238.78 2381.64 L3275.91 2389.07 L3313.03 2383.62 L3350.16 2384.61 L3387.28 2385.60 L3424.41 2386.59 L3461.53 2387.46 L3572.91 2390.43 L3721.41 2394.39 L3795.66 2396.37" stroke-linecap="round" stroke-linejoin="round" style="fill:none;stroke:#1A476F;stroke-width:8.64"/>
	<line x1="390.80" y1="2489.19" x2="390.80" y2="100.86" style="stroke:#000000;stroke-width:5.76"/>
	<line x1="390.80" y1="4545.60" x2="350.83" y2="4545.60" style="stroke:#000000;stroke-width:5.76"/>
	<text x="300.72" y="4545.60" style="font-family:'Helvetica';font-size:99.99px;fill:#000000" transform="rotate(-90 300.72,4545.60)" text-anchor="middle">.01</text>
	<line x1="390.80" y1="3450.26" x2="350.83" y2="3450.26" style="stroke:#000000;stroke-width:5.76"/>
	<text x="300.72" y="3450.26" style="font-family:'Helvetica';font-size:99.99px;fill:#000000" transform="rotate(-90 300.72,3450.26)" text-anchor="middle">.1</text>
	<line x1="390.80" y1="2354.91" x2="350.83" y2="2354.91" style="stroke:#000000;stroke-width:5.76"/>
	<text x="300.72" y="2354.91" style="font-family:'Helvetica';font-size:99.99px;fill:#000000" transform="rotate(-90 300.72,2354.91)" text-anchor="middle">1</text>
	<line x1="390.80" y1="1259.57" x2="350.83" y2="1259.57" style="stroke:#000000;stroke-width:5.76"/>
	<text x="300.72" y="1259.57" style="font-family:'Helvetica';font-size:99.99px;fill:#000000" transform="rotate(-90 300.72,1259.57)" text-anchor="middle">10</text>
	<line x1="390.80" y1="164.22" x2="350.83" y2="164.22" style="stroke:#000000;stroke-width:5.76"/>
	<text x="300.72" y="164.22" style="font-family:'Helvetica';font-size:99.99px;fill:#000000" transform="rotate(-90 300.72,164.22)" text-anchor="middle">100</text>
	<line x1="390.80" y1="929.76" x2="350.83" y2="929.76" style="stroke:#000000;stroke-width:5.76"/>
	<text x="300.72" y="929.76" style="font-family:'Helvetica';font-size:99.99px;fill:#000000" transform="rotate(-90 300.72,929.76)" text-anchor="middle">20</text>
	<text x="190.71" y="1294.96" style="font-family:'Helvetica';font-size:99.99px;fill:#000000" transform="rotate(-90 190.71,1294.96)" text-anchor="middle">Hazard ratio compared to age 55 years (log scale)</text>
	<line x1="390.80" y1="2489.19" x2="3859.02" y2="2489.19" style="stroke:#000000;stroke-width:5.76"/>
	<line x1="528.41" y1="2489.19" x2="528.41" y2="2529.16" style="stroke:#000000;stroke-width:5.76"/>
	<text x="528.41" y="2619.14" style="font-family:'Helvetica';font-size:99.99px;fill:#000000" text-anchor="middle">20</text>
	<line x1="1270.91" y1="2489.19" x2="1270.91" y2="2529.16" style="stroke:#000000;stroke-width:5.76"/>
	<text x="1270.91" y="2619.14" style="font-family:'Helvetica';font-size:99.99px;fill:#000000" text-anchor="middle">40</text>
	<line x1="2013.54" y1="2489.19" x2="2013.54" y2="2529.16" style="stroke:#000000;stroke-width:5.76"/>
	<text x="2013.54" y="2619.14" style="font-family:'Helvetica';font-size:99.99px;fill:#000000" text-anchor="middle">60</text>
	<line x1="2756.16" y1="2489.19" x2="2756.16" y2="2529.16" style="stroke:#000000;stroke-width:5.76"/>
	<text x="2756.16" y="2619.14" style="font-family:'Helvetica';font-size:99.99px;fill:#000000" text-anchor="middle">80</text>
	<line x1="3498.66" y1="2489.19" x2="3498.66" y2="2529.16" style="stroke:#000000;stroke-width:5.76"/>
	<text x="3498.66" y="2619.14" style="font-family:'Helvetica';font-size:99.99px;fill:#000000" text-anchor="middle">100</text>
	<text x="2124.91" y="2729.16" style="font-family:'Helvetica';font-size:99.99px;fill:#000000" text-anchor="middle">Age in years</text>
</svg>
