<?xml version="1.0" encoding="UTF-8" standalone="no"?>
<!-- This is a Stata 15.1 generated SVG file (http://www.stata.com) -->

<svg version="1.1" width="5.50in" height="4.00in" viewBox="0 0 3960 2880" xmlns="http://www.w3.org/2000/svg" xmlns:xlink="http://www.w3.org/1999/xlink">
	<desc>Stata Graph - Graph</desc>
	<rect x="0" y="0" width="3960" height="2880" style="fill:#EAF2F3;stroke:none"/>
	<rect x="0.00" y="0.00" width="3959.88" height="2880.00" style="fill:#EAF2F3"/>
	<rect x="2.88" y="2.88" width="3954.12" height="2874.24" style="fill:none;stroke:#EAF2F3;stroke-width:5.76"/>
	<rect x="390.80" y="100.86" width="3468.22" height="2388.33" style="fill:#FFFFFF"/>
	<rect x="393.68" y="103.74" width="3462.46" height="2382.57" style="fill:none;stroke:#FFFFFF;stroke-width:5.76"/>
	<line x1="390.80" y1="2924.92" x2="3859.02" y2="2924.92" style="stroke:#EAF2F3;stroke-width:8.64"/>
	<line x1="390.80" y1="2234.75" x2="3859.02" y2="2234.75" style="stroke:#EAF2F3;stroke-width:8.64"/>
	<line x1="390.80" y1="1544.57" x2="3859.02" y2="1544.57" style="stroke:#EAF2F3;stroke-width:8.64"/>
	<line x1="390.80" y1="854.40" x2="3859.02" y2="854.40" style="stroke:#EAF2F3;stroke-width:8.64"/>
	<line x1="390.80" y1="164.22" x2="3859.02" y2="164.22" style="stroke:#EAF2F3;stroke-width:8.64"/>
	<line x1="390.80" y1="646.61" x2="3859.02" y2="646.61" style="stroke:#EAF2F3;stroke-width:8.64"/>
	<line x1="390.80" y1="-886.08" x2="448.35" y2="-886.08" style="stroke:#C10534;stroke-width:8.64"/>
	<line x1="477.18" y1="-886.08" x2="534.72" y2="-886.08" style="stroke:#C10534;stroke-width:8.64"/>
	<line x1="563.56" y1="-886.08" x2="621.23" y2="-886.08" style="stroke:#C10534;stroke-width:8.64"/>
	<line x1="649.93" y1="-886.08" x2="707.60" y2="-886.08" style="stroke:#C10534;stroke-width:8.64"/>
	<line x1="736.44" y1="-886.08" x2="793.98" y2="-886.08" style="stroke:#C10534;stroke-width:8.64"/>
	<line x1="822.81" y1="-886.08" x2="880.36" y2="-886.08" style="stroke:#C10534;stroke-width:8.64"/>
	<line x1="909.19" y1="-886.08" x2="966.74" y2="-886.08" style="stroke:#C10534;stroke-width:8.64"/>
	<line x1="995.57" y1="-886.08" x2="1053.11" y2="-886.08" style="stroke:#C10534;stroke-width:8.64"/>
	<line x1="1081.95" y1="-886.08" x2="1139.49" y2="-886.08" style="stroke:#C10534;stroke-width:8.64"/>
	<line x1="1168.32" y1="-886.08" x2="1225.87" y2="-886.08" style="stroke:#C10534;stroke-width:8.64"/>
	<line x1="1254.70" y1="-886.08" x2="1312.24" y2="-886.08" style="stroke:#C10534;stroke-width:8.64"/>
	<line x1="1341.08" y1="-886.08" x2="1398.62" y2="-886.08" style="stroke:#C10534;stroke-width:8.64"/>
	<line x1="1427.46" y1="-886.08" x2="1485.00" y2="-886.08" style="stroke:#C10534;stroke-width:8.64"/>
	<line x1="1513.83" y1="-886.08" x2="1571.50" y2="-886.08" style="stroke:#C10534;stroke-width:8.64"/>
	<line x1="1600.21" y1="-886.08" x2="1657.88" y2="-886.08" style="stroke:#C10534;stroke-width:8.64"/>
	<line x1="1686.71" y1="-886.08" x2="1744.26" y2="-886.08" style="stroke:#C10534;stroke-width:8.64"/>
	<line x1="1773.09" y1="-886.08" x2="1830.63" y2="-886.08" style="stroke:#C10534;stroke-width:8.64"/>
	<line x1="1859.47" y1="-886.08" x2="1917.01" y2="-886.08" style="stroke:#C10534;stroke-width:8.64"/>
	<line x1="1945.85" y1="-886.08" x2="2003.39" y2="-886.08" style="stroke:#C10534;stroke-width:8.64"/>
	<line x1="2032.22" y1="-886.08" x2="2089.77" y2="-886.08" style="stroke:#C10534;stroke-width:8.64"/>
	<line x1="2118.60" y1="-886.08" x2="2176.14" y2="-886.08" style="stroke:#C10534;stroke-width:8.64"/>
	<line x1="2204.98" y1="-886.08" x2="2262.52" y2="-886.08" style="stroke:#C10534;stroke-width:8.64"/>
	<line x1="2291.36" y1="-886.08" x2="2348.90" y2="-886.08" style="stroke:#C10534;stroke-width:8.64"/>
	<line x1="2377.73" y1="-886.08" x2="2435.40" y2="-886.08" style="stroke:#C10534;stroke-width:8.64"/>
	<line x1="2464.11" y1="-886.08" x2="2521.78" y2="-886.08" style="stroke:#C10534;stroke-width:8.64"/>
	<line x1="2550.49" y1="-886.08" x2="2608.16" y2="-886.08" style="stroke:#C10534;stroke-width:8.64"/>
	<line x1="2636.99" y1="-886.08" x2="2694.53" y2="-886.08" style="stroke:#C10534;stroke-width:8.64"/>
	<line x1="2723.37" y1="-886.08" x2="2780.91" y2="-886.08" style="stroke:#C10534;stroke-width:8.64"/>
	<line x1="2809.74" y1="-886.08" x2="2867.29" y2="-886.08" style="stroke:#C10534;stroke-width:8.64"/>
	<line x1="2896.12" y1="-886.08" x2="2953.66" y2="-886.08" style="stroke:#C10534;stroke-width:8.64"/>
	<line x1="2982.50" y1="-886.08" x2="3040.04" y2="-886.08" style="stroke:#C10534;stroke-width:8.64"/>
	<line x1="3068.88" y1="-886.08" x2="3126.42" y2="-886.08" style="stroke:#C10534;stroke-width:8.64"/>
	<line x1="3155.25" y1="-886.08" x2="3212.80" y2="-886.08" style="stroke:#C10534;stroke-width:8.64"/>
	<line x1="3241.63" y1="-886.08" x2="3299.18" y2="-886.08" style="stroke:#C10534;stroke-width:8.64"/>
	<line x1="3328.01" y1="-886.08" x2="3385.68" y2="-886.08" style="stroke:#C10534;stroke-width:8.64"/>
	<line x1="3414.39" y1="-886.08" x2="3472.05" y2="-886.08" style="stroke:#C10534;stroke-width:8.64"/>
	<line x1="3500.76" y1="-886.08" x2="3558.43" y2="-886.08" style="stroke:#C10534;stroke-width:8.64"/>
	<line x1="3587.26" y1="-886.08" x2="3644.81" y2="-886.08" style="stroke:#C10534;stroke-width:8.64"/>
	<line x1="3673.64" y1="-886.08" x2="3731.19" y2="-886.08" style="stroke:#C10534;stroke-width:8.64"/>
	<line x1="3760.02" y1="-886.08" x2="3817.56" y2="-886.08" style="stroke:#C10534;stroke-width:8.64"/>
	<line x1="3846.40" y1="-886.08" x2="3859.02" y2="-886.08" style="stroke:#C10534;stroke-width:8.64"/>
	<path d=" M454.04 1619.32 L491.16 1622.91 L528.29 1626.50 L565.41 1630.21 L602.54 1633.80 L639.66 1637.39 L676.79 1640.98 L714.04 1539.25 L751.16 1542.59 L788.29 1651.00 L825.41 1653.97 L862.54 1656.82 L899.66 1659.54 L936.79 1543.83 L973.91 1663.99 L1011.04 1665.73 L1048.16 1667.21 L1085.29 1668.33 L1122.41 1669.07 L1159.54 1669.32 L1196.66 1669.19 L1233.79 1668.57 L1270.91 1667.46 L1308.04 1665.97 L1345.16 1664.12 L1382.29 1662.01 L1419.41 1659.79 L1456.54 1552.24 L1493.66 1655.21 L1530.79 1652.98 L1567.91 1651.00 L1605.04 1544.08 L1642.16 1648.03 L1679.29 1647.16 L1716.41 1646.79 L1753.54 1647.04 L1790.66 1648.03 L1827.79 1544.57 L1864.91 1652.49 L1902.04 1656.07 L1939.29 1555.59 L1976.41 1666.47 L2013.54 1673.15 L2050.66 1575.51 L2087.79 1689.12 L2124.91 1698.52 L2162.04 1603.36 L2199.16 1719.44 L2236.29 1731.07 L2273.41 1743.32 L2310.54 1756.19 L2347.66 1769.68 L2384.79 1678.47 L2421.91 1798.14 L2459.04 1695.18 L2496.16 1710.53 L2533.29 1844.30 L2570.41 1860.39 L2607.54 1771.54 L2644.66 1893.43 L2681.79 1910.26 L2718.91 1809.16 L2756.04 1944.30 L2793.16 1961.50 L2830.29 1978.70 L2867.41 1995.90 L2904.54 1895.04 L2941.66 2030.31 L2978.79 2047.51 L3015.91 2064.71 L3053.04 2081.91 L3090.16 1981.05 L3127.29 2116.31 L3164.41 2133.52 L3201.66 2150.72 L3238.78 2167.92 L3275.91 2185.12 L3313.03 2202.32 L3350.16 2219.53 L3387.28 2236.73 L3424.41 2253.93 L3461.53 2271.13 L3572.91 2322.74 L3721.41 2391.54 L3795.66 2425.95" stroke-linecap="round" stroke-linejoin="round" style="fill:none;stroke:#1A476F;stroke-width:8.64"/>
	<line x1="390.80" y1="2489.19" x2="390.80" y2="100.86" style="stroke:#000000;stroke-width:5.76"/>
	<line x1="390.80" y1="2924.92" x2="350.83" y2="2924.92" style="stroke:#000000;stroke-width:5.76"/>
	<text x="300.72" y="2924.92" style="font-family:'Helvetica';font-size:99.99px;fill:#000000" transform="rotate(-90 300.72,2924.92)" text-anchor="middle">.01</text>
	<line x1="390.80" y1="2234.75" x2="350.83" y2="2234.75" style="stroke:#000000;stroke-width:5.76"/>
	<text x="300.72" y="2234.75" style="font-family:'Helvetica';font-size:99.99px;fill:#000000" transform="rotate(-90 300.72,2234.75)" text-anchor="middle">.1</text>
	<line x1="390.80" y1="1544.57" x2="350.83" y2="1544.57" style="stroke:#000000;stroke-width:5.76"/>
	<text x="300.72" y="1544.57" style="font-family:'Helvetica';font-size:99.99px;fill:#000000" transform="rotate(-90 300.72,1544.57)" text-anchor="middle">1</text>
	<line x1="390.80" y1="854.40" x2="350.83" y2="854.40" style="stroke:#000000;stroke-width:5.76"/>
	<text x="300.72" y="854.40" style="font-family:'Helvetica';font-size:99.99px;fill:#000000" transform="rotate(-90 300.72,854.40)" text-anchor="middle">10</text>
	<line x1="390.80" y1="164.22" x2="350.83" y2="164.22" style="stroke:#000000;stroke-width:5.76"/>
	<text x="300.72" y="164.22" style="font-family:'Helvetica';font-size:99.99px;fill:#000000" transform="rotate(-90 300.72,164.22)" text-anchor="middle">100</text>
	<line x1="390.80" y1="646.61" x2="350.83" y2="646.61" style="stroke:#000000;stroke-width:5.76"/>
	<text x="300.72" y="646.61" style="font-family:'Helvetica';font-size:99.99px;fill:#000000" transform="rotate(-90 300.72,646.61)" text-anchor="middle">20</text>
	<text x="190.71" y="1294.96" style="font-family:'Helvetica';font-size:99.99px;fill:#000000" transform="rotate(-90 190.71,1294.96)" text-anchor="middle">Hazard ratio compared to age 55 years (log scale)</text>
	<line x1="390.80" y1="2489.19" x2="3859.02" y2="2489.19" style="stroke:#000000;stroke-width:5.76"/>
	<line x1="528.41" y1="2489.19" x2="528.41" y2="2529.16" style="stroke:#000000;stroke-width:5.76"/>
	<text x="528.41" y="2619.14" style="font-family:'Helvetica';font-size:99.99px;fill:#000000" text-anchor="middle">20</text>
	<line x1="1270.91" y1="2489.19" x2="1270.91" y2="2529.16" style="stroke:#000000;stroke-width:5.76"/>
	<text x="1270.91" y="2619.14" style="font-family:'Helvetica';font-size:99.99px;fill:#000000" text-anchor="middle">40</text>
	<line x1="2013.54" y1="2489.19" x2="2013.54" y2="2529.16" style="stroke:#000000;stroke-width:5.76"/>
	<text x="2013.54" y="2619.14" style="font-family:'Helvetica';font-size:99.99px;fill:#000000" text-anchor="middle">60</text>
	<line x1="2756.16" y1="2489.19" x2="2756.16" y2="2529.16" style="stroke:#000000;stroke-width:5.76"/>
	<text x="2756.16" y="2619.14" style="font-family:'Helvetica';font-size:99.99px;fill:#000000" text-anchor="middle">80</text>
	<line x1="3498.66" y1="2489.19" x2="3498.66" y2="2529.16" style="stroke:#000000;stroke-width:5.76"/>
	<text x="3498.66" y="2619.14" style="font-family:'Helvetica';font-size:99.99px;fill:#000000" text-anchor="middle">100</text>
	<text x="2124.91" y="2729.16" style="font-family:'Helvetica';font-size:99.99px;fill:#000000" text-anchor="middle">Age in years</text>
</svg>
