<?xml version="1.0" encoding="UTF-8" standalone="no"?>
<!-- This is a Stata 15.1 generated SVG file (http://www.stata.com) -->

<svg version="1.1" width="5.50in" height="4.00in" viewBox="0 0 3960 2880" xmlns="http://www.w3.org/2000/svg" xmlns:xlink="http://www.w3.org/1999/xlink">
	<desc>Stata Graph - Graph</desc>
	<rect x="0" y="0" width="3960" height="2880" style="fill:#EAF2F3;stroke:none"/>
	<rect x="0.00" y="0.00" width="3959.88" height="2880.00" style="fill:#EAF2F3"/>
	<rect x="2.88" y="2.88" width="3954.12" height="2874.24" style="fill:none;stroke:#EAF2F3;stroke-width:5.76"/>
	<rect x="390.80" y="100.86" width="3468.22" height="2388.33" style="fill:#FFFFFF"/>
	<rect x="393.68" y="103.74" width="3462.46" height="2382.57" style="fill:none;stroke:#FFFFFF;stroke-width:5.76"/>
	<line x1="390.80" y1="669.01" x2="3859.02" y2="669.01" style="stroke:#EAF2F3;stroke-width:8.64"/>
	<line x1="390.80" y1="542.78" x2="3859.02" y2="542.78" style="stroke:#EAF2F3;stroke-width:8.64"/>
	<line x1="390.80" y1="416.56" x2="3859.02" y2="416.56" style="stroke:#EAF2F3;stroke-width:8.64"/>
	<line x1="390.80" y1="290.33" x2="3859.02" y2="290.33" style="stroke:#EAF2F3;stroke-width:8.64"/>
	<line x1="390.80" y1="164.22" x2="3859.02" y2="164.22" style="stroke:#EAF2F3;stroke-width:8.64"/>
	<line x1="390.80" y1="252.33" x2="3859.02" y2="252.33" style="stroke:#EAF2F3;stroke-width:8.64"/>
	<line x1="390.80" y1="946.96" x2="448.35" y2="946.96" style="stroke:#C10534;stroke-width:8.64"/>
	<line x1="477.18" y1="946.96" x2="534.72" y2="946.96" style="stroke:#C10534;stroke-width:8.64"/>
	<line x1="563.56" y1="946.96" x2="621.23" y2="946.96" style="stroke:#C10534;stroke-width:8.64"/>
	<line x1="649.93" y1="946.96" x2="707.60" y2="946.96" style="stroke:#C10534;stroke-width:8.64"/>
	<line x1="736.44" y1="946.96" x2="793.98" y2="946.96" style="stroke:#C10534;stroke-width:8.64"/>
	<line x1="822.81" y1="946.96" x2="880.36" y2="946.96" style="stroke:#C10534;stroke-width:8.64"/>
	<line x1="909.19" y1="946.96" x2="966.74" y2="946.96" style="stroke:#C10534;stroke-width:8.64"/>
	<line x1="995.57" y1="946.96" x2="1053.11" y2="946.96" style="stroke:#C10534;stroke-width:8.64"/>
	<line x1="1081.95" y1="946.96" x2="1139.49" y2="946.96" style="stroke:#C10534;stroke-width:8.64"/>
	<line x1="1168.32" y1="946.96" x2="1225.87" y2="946.96" style="stroke:#C10534;stroke-width:8.64"/>
	<line x1="1254.70" y1="946.96" x2="1312.24" y2="946.96" style="stroke:#C10534;stroke-width:8.64"/>
	<line x1="1341.08" y1="946.96" x2="1398.62" y2="946.96" style="stroke:#C10534;stroke-width:8.64"/>
	<line x1="1427.46" y1="946.96" x2="1485.00" y2="946.96" style="stroke:#C10534;stroke-width:8.64"/>
	<line x1="1513.83" y1="946.96" x2="1571.50" y2="946.96" style="stroke:#C10534;stroke-width:8.64"/>
	<line x1="1600.21" y1="946.96" x2="1657.88" y2="946.96" style="stroke:#C10534;stroke-width:8.64"/>
	<line x1="1686.71" y1="946.96" x2="1744.26" y2="946.96" style="stroke:#C10534;stroke-width:8.64"/>
	<line x1="1773.09" y1="946.96" x2="1830.63" y2="946.96" style="stroke:#C10534;stroke-width:8.64"/>
	<line x1="1859.47" y1="946.96" x2="1917.01" y2="946.96" style="stroke:#C10534;stroke-width:8.64"/>
	<line x1="1945.85" y1="946.96" x2="2003.39" y2="946.96" style="stroke:#C10534;stroke-width:8.64"/>
	<line x1="2032.22" y1="946.96" x2="2089.77" y2="946.96" style="stroke:#C10534;stroke-width:8.64"/>
	<line x1="2118.60" y1="946.96" x2="2176.14" y2="946.96" style="stroke:#C10534;stroke-width:8.64"/>
	<line x1="2204.98" y1="946.96" x2="2262.52" y2="946.96" style="stroke:#C10534;stroke-width:8.64"/>
	<line x1="2291.36" y1="946.96" x2="2348.90" y2="946.96" style="stroke:#C10534;stroke-width:8.64"/>
	<line x1="2377.73" y1="946.96" x2="2435.40" y2="946.96" style="stroke:#C10534;stroke-width:8.64"/>
	<line x1="2464.11" y1="946.96" x2="2521.78" y2="946.96" style="stroke:#C10534;stroke-width:8.64"/>
	<line x1="2550.49" y1="946.96" x2="2608.16" y2="946.96" style="stroke:#C10534;stroke-width:8.64"/>
	<line x1="2636.99" y1="946.96" x2="2694.53" y2="946.96" style="stroke:#C10534;stroke-width:8.64"/>
	<line x1="2723.37" y1="946.96" x2="2780.91" y2="946.96" style="stroke:#C10534;stroke-width:8.64"/>
	<line x1="2809.74" y1="946.96" x2="2867.29" y2="946.96" style="stroke:#C10534;stroke-width:8.64"/>
	<line x1="2896.12" y1="946.96" x2="2953.66" y2="946.96" style="stroke:#C10534;stroke-width:8.64"/>
	<line x1="2982.50" y1="946.96" x2="3040.04" y2="946.96" style="stroke:#C10534;stroke-width:8.64"/>
	<line x1="3068.88" y1="946.96" x2="3126.42" y2="946.96" style="stroke:#C10534;stroke-width:8.64"/>
	<line x1="3155.25" y1="946.96" x2="3212.80" y2="946.96" style="stroke:#C10534;stroke-width:8.64"/>
	<line x1="3241.63" y1="946.96" x2="3299.18" y2="946.96" style="stroke:#C10534;stroke-width:8.64"/>
	<line x1="3328.01" y1="946.96" x2="3385.68" y2="946.96" style="stroke:#C10534;stroke-width:8.64"/>
	<line x1="3414.39" y1="946.96" x2="3472.05" y2="946.96" style="stroke:#C10534;stroke-width:8.64"/>
	<line x1="3500.76" y1="946.96" x2="3558.43" y2="946.96" style="stroke:#C10534;stroke-width:8.64"/>
	<line x1="3587.26" y1="946.96" x2="3644.81" y2="946.96" style="stroke:#C10534;stroke-width:8.64"/>
	<line x1="3673.64" y1="946.96" x2="3731.19" y2="946.96" style="stroke:#C10534;stroke-width:8.64"/>
	<line x1="3760.02" y1="946.96" x2="3817.56" y2="946.96" style="stroke:#C10534;stroke-width:8.64"/>
	<line x1="3846.40" y1="946.96" x2="3859.02" y2="946.96" style="stroke:#C10534;stroke-width:8.64"/>
	<path d=" M454.04 467.05 L491.16 473.73 L528.29 468.90 L565.41 464.45 L602.54 460.24 L639.66 456.40 L676.79 452.82 L714.04 449.60 L751.16 446.75 L788.29 444.15 L825.41 442.05 L862.54 440.32 L899.66 438.95 L936.79 437.96 L973.91 437.35 L1011.04 437.10 L1048.16 436.97 L1085.29 437.22 L1122.41 437.72 L1159.54 438.46 L1196.66 439.33 L1233.79 392.42 L1270.91 430.04 L1308.04 443.04 L1345.16 444.52 L1382.29 434.50 L1419.41 447.87 L1456.54 449.47 L1493.66 451.33 L1530.79 453.06 L1567.91 454.67 L1605.04 456.40 L1642.16 458.01 L1679.29 447.87 L1716.41 460.98 L1753.54 462.22 L1790.66 463.46 L1827.79 416.68 L1864.91 465.69 L1902.04 466.55 L1939.29 419.40 L1976.41 376.34 L2013.54 468.90 L2050.66 469.40 L2087.79 422.00 L2124.91 470.51 L2162.04 470.88 L2199.16 471.25 L2236.29 471.50 L2273.41 471.75 L2310.54 471.87 L2347.66 472.12 L2384.79 472.12 L2421.91 472.24 L2459.04 472.24 L2496.16 472.24 L2533.29 472.24 L2570.41 472.12 L2607.54 472.12 L2644.66 472.00 L2681.79 460.24 L2718.91 471.87 L2756.04 471.75 L2793.16 459.99 L2830.29 1629.96 L2867.41 2425.95 L2904.54 471.25 L2941.66 423.24 L2978.79 459.37 L3015.91 422.99 L3053.04 470.88 L3090.16 470.76 L3127.29 470.64 L3164.41 470.51 L3201.66 470.39 L3238.78 470.26 L3275.91 422.25 L3313.03 470.14 L3350.16 378.19 L3387.28 469.89 L3424.41 469.77 L3461.53 2424.21 L3572.91 469.40 L3721.41 468.90 L3795.66 468.66" stroke-linecap="round" stroke-linejoin="round" style="fill:none;stroke:#1A476F;stroke-width:8.64"/>
	<line x1="390.80" y1="2489.19" x2="390.80" y2="100.86" style="stroke:#000000;stroke-width:5.76"/>
	<line x1="390.80" y1="669.01" x2="350.83" y2="669.01" style="stroke:#000000;stroke-width:5.76"/>
	<text x="300.72" y="669.01" style="font-family:'Helvetica';font-size:99.99px;fill:#000000" transform="rotate(-90 300.72,669.01)" text-anchor="middle">.01</text>
	<line x1="390.80" y1="542.78" x2="350.83" y2="542.78" style="stroke:#000000;stroke-width:5.76"/>
	<text x="300.72" y="542.78" style="font-family:'Helvetica';font-size:99.99px;fill:#000000" transform="rotate(-90 300.72,542.78)" text-anchor="middle">.1</text>
	<line x1="390.80" y1="416.56" x2="350.83" y2="416.56" style="stroke:#000000;stroke-width:5.76"/>
	<text x="300.72" y="416.56" style="font-family:'Helvetica';font-size:99.99px;fill:#000000" transform="rotate(-90 300.72,416.56)" text-anchor="middle">1</text>
	<line x1="390.80" y1="290.33" x2="350.83" y2="290.33" style="stroke:#000000;stroke-width:5.76"/>
	<text x="300.72" y="290.33" style="font-family:'Helvetica';font-size:99.99px;fill:#000000" transform="rotate(-90 300.72,290.33)" text-anchor="middle">10</text>
	<line x1="390.80" y1="164.22" x2="350.83" y2="164.22" style="stroke:#000000;stroke-width:5.76"/>
	<text x="300.72" y="164.22" style="font-family:'Helvetica';font-size:99.99px;fill:#000000" transform="rotate(-90 300.72,164.22)" text-anchor="middle">100</text>
	<line x1="390.80" y1="252.33" x2="350.83" y2="252.33" style="stroke:#000000;stroke-width:5.76"/>
	<text x="300.72" y="252.33" style="font-family:'Helvetica';font-size:99.99px;fill:#000000" transform="rotate(-90 300.72,252.33)" text-anchor="middle">20</text>
	<text x="190.71" y="1294.96" style="font-family:'Helvetica';font-size:99.99px;fill:#000000" transform="rotate(-90 190.71,1294.96)" text-anchor="middle">Hazard ratio compared to age 55 years (log scale)</text>
	<line x1="390.80" y1="2489.19" x2="3859.02" y2="2489.19" style="stroke:#000000;stroke-width:5.76"/>
	<line x1="528.41" y1="2489.19" x2="528.41" y2="2529.16" style="stroke:#000000;stroke-width:5.76"/>
	<text x="528.41" y="2619.14" style="font-family:'Helvetica';font-size:99.99px;fill:#000000" text-anchor="middle">20</text>
	<line x1="1270.91" y1="2489.19" x2="1270.91" y2="2529.16" style="stroke:#000000;stroke-width:5.76"/>
	<text x="1270.91" y="2619.14" style="font-family:'Helvetica';font-size:99.99px;fill:#000000" text-anchor="middle">40</text>
	<line x1="2013.54" y1="2489.19" x2="2013.54" y2="2529.16" style="stroke:#000000;stroke-width:5.76"/>
	<text x="2013.54" y="2619.14" style="font-family:'Helvetica';font-size:99.99px;fill:#000000" text-anchor="middle">60</text>
	<line x1="2756.16" y1="2489.19" x2="2756.16" y2="2529.16" style="stroke:#000000;stroke-width:5.76"/>
	<text x="2756.16" y="2619.14" style="font-family:'Helvetica';font-size:99.99px;fill:#000000" text-anchor="middle">80</text>
	<line x1="3498.66" y1="2489.19" x2="3498.66" y2="2529.16" style="stroke:#000000;stroke-width:5.76"/>
	<text x="3498.66" y="2619.14" style="font-family:'Helvetica';font-size:99.99px;fill:#000000" text-anchor="middle">100</text>
	<text x="2124.91" y="2729.16" style="font-family:'Helvetica';font-size:99.99px;fill:#000000" text-anchor="middle">Age in years</text>
</svg>
