<?xml version="1.0" encoding="UTF-8" standalone="no"?>
<!-- This is a Stata 15.1 generated SVG file (http://www.stata.com) -->

<svg version="1.1" width="5.50in" height="4.00in" viewBox="0 0 3960 2880" xmlns="http://www.w3.org/2000/svg" xmlns:xlink="http://www.w3.org/1999/xlink">
	<desc>Stata Graph - Graph</desc>
	<rect x="0" y="0" width="3960" height="2880" style="fill:#EAF2F3;stroke:none"/>
	<rect x="0.00" y="0.00" width="3959.88" height="2880.00" style="fill:#EAF2F3"/>
	<rect x="2.88" y="2.88" width="3954.12" height="2874.24" style="fill:none;stroke:#EAF2F3;stroke-width:5.76"/>
	<rect x="130.80" y="100.86" width="3728.22" height="2388.33" style="fill:#FFFFFF"/>
	<rect x="133.68" y="103.74" width="3722.46" height="2382.57" style="fill:none;stroke:#FFFFFF;stroke-width:5.76"/>
	<line x1="2124.42" y1="2489.19" x2="2124.42" y2="2431.64" style="stroke:#C10534;stroke-width:8.64"/>
	<line x1="2124.42" y1="2402.81" x2="2124.42" y2="2345.26" style="stroke:#C10534;stroke-width:8.64"/>
	<line x1="2124.42" y1="2316.42" x2="2124.42" y2="2258.76" style="stroke:#C10534;stroke-width:8.64"/>
	<line x1="2124.42" y1="2230.04" x2="2124.42" y2="2172.38" style="stroke:#C10534;stroke-width:8.64"/>
	<line x1="2124.42" y1="2143.54" x2="2124.42" y2="2086.00" style="stroke:#C10534;stroke-width:8.64"/>
	<line x1="2124.42" y1="2057.16" x2="2124.42" y2="1999.61" style="stroke:#C10534;stroke-width:8.64"/>
	<line x1="2124.42" y1="1970.78" x2="2124.42" y2="1913.23" style="stroke:#C10534;stroke-width:8.64"/>
	<line x1="2124.42" y1="1884.40" x2="2124.42" y2="1826.85" style="stroke:#C10534;stroke-width:8.64"/>
	<line x1="2124.42" y1="1798.02" x2="2124.42" y2="1740.47" style="stroke:#C10534;stroke-width:8.64"/>
	<line x1="2124.42" y1="1711.64" x2="2124.42" y2="1654.09" style="stroke:#C10534;stroke-width:8.64"/>
	<line x1="2124.42" y1="1625.26" x2="2124.42" y2="1567.71" style="stroke:#C10534;stroke-width:8.64"/>
	<line x1="2124.42" y1="1538.88" x2="2124.42" y2="1481.33" style="stroke:#C10534;stroke-width:8.64"/>
	<line x1="2124.42" y1="1452.50" x2="2124.42" y2="1394.95" style="stroke:#C10534;stroke-width:8.64"/>
	<line x1="2124.42" y1="1366.12" x2="2124.42" y2="1308.45" style="stroke:#C10534;stroke-width:8.64"/>
	<line x1="2124.42" y1="1279.74" x2="2124.42" y2="1222.07" style="stroke:#C10534;stroke-width:8.64"/>
	<line x1="2124.42" y1="1193.23" x2="2124.42" y2="1135.69" style="stroke:#C10534;stroke-width:8.64"/>
	<line x1="2124.42" y1="1106.85" x2="2124.42" y2="1049.31" style="stroke:#C10534;stroke-width:8.64"/>
	<line x1="2124.42" y1="1020.47" x2="2124.42" y2="962.93" style="stroke:#C10534;stroke-width:8.64"/>
	<line x1="2124.42" y1="934.09" x2="2124.42" y2="876.55" style="stroke:#C10534;stroke-width:8.64"/>
	<line x1="2124.42" y1="847.71" x2="2124.42" y2="790.17" style="stroke:#C10534;stroke-width:8.64"/>
	<line x1="2124.42" y1="761.33" x2="2124.42" y2="703.79" style="stroke:#C10534;stroke-width:8.64"/>
	<line x1="2124.42" y1="674.95" x2="2124.42" y2="617.41" style="stroke:#C10534;stroke-width:8.64"/>
	<line x1="2124.42" y1="588.57" x2="2124.42" y2="531.03" style="stroke:#C10534;stroke-width:8.64"/>
	<line x1="2124.42" y1="502.19" x2="2124.42" y2="444.52" style="stroke:#C10534;stroke-width:8.64"/>
	<line x1="2124.42" y1="415.81" x2="2124.42" y2="358.14" style="stroke:#C10534;stroke-width:8.64"/>
	<line x1="2124.42" y1="329.43" x2="2124.42" y2="271.76" style="stroke:#C10534;stroke-width:8.64"/>
	<line x1="2124.42" y1="242.93" x2="2124.42" y2="185.38" style="stroke:#C10534;stroke-width:8.64"/>
	<line x1="2124.42" y1="156.55" x2="2124.42" y2="100.86" style="stroke:#C10534;stroke-width:8.64"/>
	<circle cx="2114.14" cy="575.46" r="19.29" style="fill:#000000"/>
	<circle cx="2114.14" cy="575.46" r="14.97" style="fill:none;stroke:#000000;stroke-width:8.64"/>
	<circle cx="2124.29" cy="781.01" r="19.29" style="fill:#000000"/>
	<circle cx="2124.29" cy="781.01" r="14.97" style="fill:none;stroke:#000000;stroke-width:8.64"/>
	<circle cx="2081.72" cy="986.69" r="19.29" style="fill:#000000"/>
	<circle cx="2081.72" cy="986.69" r="14.97" style="fill:none;stroke:#000000;stroke-width:8.64"/>
	<circle cx="2124.42" cy="1603.48" r="19.29" style="fill:#000000"/>
	<circle cx="2124.42" cy="1603.48" r="14.97" style="fill:none;stroke:#000000;stroke-width:8.64"/>
	<circle cx="2152.14" cy="1809.03" r="19.29" style="fill:#000000"/>
	<circle cx="2152.14" cy="1809.03" r="14.97" style="fill:none;stroke:#000000;stroke-width:8.64"/>
	<circle cx="2124.29" cy="2014.71" r="19.29" style="fill:#000000"/>
	<circle cx="2124.29" cy="2014.71" r="14.97" style="fill:none;stroke:#000000;stroke-width:8.64"/>
	<circle cx="2099.42" cy="2220.27" r="19.29" style="fill:#000000"/>
	<circle cx="2099.42" cy="2220.27" r="14.97" style="fill:none;stroke:#000000;stroke-width:8.64"/>
	<circle cx="2053.51" cy="2425.95" r="19.29" style="fill:#000000"/>
	<circle cx="2053.51" cy="2425.95" r="14.97" style="fill:none;stroke:#000000;stroke-width:8.64"/>
	<line x1="2000.54" y1="575.33" x2="2227.87" y2="575.33" style="stroke:#000000;stroke-width:8.64"/>
	<line x1="2227.87" y1="597.36" x2="2227.87" y2="553.30" stroke-linecap="round" style="stroke:#000000;stroke-width:8.64"/>
	<line x1="2000.54" y1="597.36" x2="2000.54" y2="553.30" stroke-linecap="round" style="stroke:#000000;stroke-width:8.64"/>
	<line x1="2124.42" y1="781.01" x2="2124.42" y2="781.01" style="stroke:#000000;stroke-width:8.64"/>
	<line x1="2124.42" y1="803.04" x2="2124.42" y2="758.98" stroke-linecap="round" style="stroke:#000000;stroke-width:8.64"/>
	<line x1="2124.42" y1="803.04" x2="2124.42" y2="758.98" stroke-linecap="round" style="stroke:#000000;stroke-width:8.64"/>
	<line x1="1999.43" y1="986.57" x2="2164.02" y2="986.57" style="stroke:#000000;stroke-width:8.64"/>
	<line x1="2164.02" y1="1008.59" x2="2164.02" y2="964.54" stroke-linecap="round" style="stroke:#000000;stroke-width:8.64"/>
	<line x1="1999.43" y1="1008.59" x2="1999.43" y2="964.54" stroke-linecap="round" style="stroke:#000000;stroke-width:8.64"/>
	<line x1="1999.31" y1="1603.36" x2="2249.65" y2="1603.36" style="stroke:#000000;stroke-width:8.64"/>
	<line x1="2249.65" y1="1625.38" x2="2249.65" y2="1581.33" stroke-linecap="round" style="stroke:#000000;stroke-width:8.64"/>
	<line x1="1999.31" y1="1625.38" x2="1999.31" y2="1581.33" stroke-linecap="round" style="stroke:#000000;stroke-width:8.64"/>
	<line x1="2014.65" y1="1809.03" x2="2289.75" y2="1809.03" style="stroke:#000000;stroke-width:8.64"/>
	<line x1="2289.75" y1="1831.06" x2="2289.75" y2="1787.01" stroke-linecap="round" style="stroke:#000000;stroke-width:8.64"/>
	<line x1="2014.65" y1="1831.06" x2="2014.65" y2="1787.01" stroke-linecap="round" style="stroke:#000000;stroke-width:8.64"/>
	<line x1="2124.42" y1="2014.59" x2="2124.42" y2="2014.59" style="stroke:#000000;stroke-width:8.64"/>
	<line x1="2124.42" y1="2036.62" x2="2124.42" y2="1992.56" stroke-linecap="round" style="stroke:#000000;stroke-width:8.64"/>
	<line x1="2124.42" y1="2036.62" x2="2124.42" y2="1992.56" stroke-linecap="round" style="stroke:#000000;stroke-width:8.64"/>
	<line x1="1958.34" y1="2220.27" x2="2240.74" y2="2220.27" style="stroke:#000000;stroke-width:8.64"/>
	<line x1="2240.74" y1="2242.30" x2="2240.74" y2="2198.24" stroke-linecap="round" style="stroke:#000000;stroke-width:8.64"/>
	<line x1="1958.34" y1="2242.30" x2="1958.34" y2="2198.24" stroke-linecap="round" style="stroke:#000000;stroke-width:8.64"/>
	<line x1="1818.75" y1="2425.82" x2="2288.51" y2="2425.82" style="stroke:#000000;stroke-width:8.64"/>
	<line x1="2288.51" y1="2447.85" x2="2288.51" y2="2403.80" stroke-linecap="round" style="stroke:#000000;stroke-width:8.64"/>
	<line x1="1818.75" y1="2447.85" x2="1818.75" y2="2403.80" stroke-linecap="round" style="stroke:#000000;stroke-width:8.64"/>
	<text x="246.39" y="589.35" style="font-family:'Helvetica';font-size:39.97px;fill:#808080">Children under 12 years</text>
	<text x="246.39" y="795.03" style="font-family:'Helvetica';font-size:39.97px;fill:#808080">Children under 12 years</text>
	<text x="246.39" y="1000.59" style="font-family:'Helvetica';font-size:39.97px;fill:#808080">Children/young people aged 11-&lt;18 years</text>
	<text x="246.39" y="1617.38" style="font-family:'Helvetica';font-size:39.97px;fill:#808080">1</text>
	<text x="246.39" y="1823.06" style="font-family:'Helvetica';font-size:39.97px;fill:#808080">2</text>
	<text x="246.39" y="2028.61" style="font-family:'Helvetica';font-size:39.97px;fill:#808080">3</text>
	<text x="246.39" y="2234.29" style="font-family:'Helvetica';font-size:39.97px;fill:#808080">3</text>
	<text x="246.39" y="2439.84" style="font-family:'Helvetica';font-size:39.97px;fill:#808080">4 or more</text>
	<line x1="130.80" y1="2489.19" x2="130.80" y2="100.86" style="stroke:#000000;stroke-width:5.76"/>
	<line x1="130.80" y1="2489.19" x2="3859.02" y2="2489.19" style="stroke:#000000;stroke-width:5.76"/>
	<line x1="1118.08" y1="2489.19" x2="1118.08" y2="2529.16" style="stroke:#000000;stroke-width:5.76"/>
	<text x="1118.08" y="2619.14" style="font-family:'Helvetica';font-size:99.99px;fill:#000000" text-anchor="middle">.25</text>
	<line x1="1621.25" y1="2489.19" x2="1621.25" y2="2529.16" style="stroke:#000000;stroke-width:5.76"/>
	<text x="1621.25" y="2619.14" style="font-family:'Helvetica';font-size:99.99px;fill:#000000" text-anchor="middle">.5</text>
	<line x1="2124.42" y1="2489.19" x2="2124.42" y2="2529.16" style="stroke:#000000;stroke-width:5.76"/>
	<text x="2124.42" y="2619.14" style="font-family:'Helvetica';font-size:99.99px;fill:#000000" text-anchor="middle">1</text>
	<line x1="2627.46" y1="2489.19" x2="2627.46" y2="2529.16" style="stroke:#000000;stroke-width:5.76"/>
	<text x="2627.46" y="2619.14" style="font-family:'Helvetica';font-size:99.99px;fill:#000000" text-anchor="middle">2</text>
	<line x1="3292.62" y1="2489.19" x2="3292.62" y2="2529.16" style="stroke:#000000;stroke-width:5.76"/>
	<text x="3292.62" y="2619.14" style="font-family:'Helvetica';font-size:99.99px;fill:#000000" text-anchor="middle">5</text>
	<line x1="3795.66" y1="2489.19" x2="3795.66" y2="2529.16" style="stroke:#000000;stroke-width:5.76"/>
	<text x="3795.66" y="2619.14" style="font-family:'Helvetica';font-size:99.99px;fill:#000000" text-anchor="middle">10</text>
	<text x="1994.97" y="2729.16" style="font-family:'Helvetica';font-size:99.99px;fill:#000000" text-anchor="middle">Hazard Ratio &amp; 95% CI</text>
</svg>
