<?xml version="1.0" encoding="UTF-8" standalone="no"?>
<!-- This is a Stata 15.1 generated SVG file (http://www.stata.com) -->

<svg version="1.1" width="5.50in" height="4.00in" viewBox="0 0 3960 2880" xmlns="http://www.w3.org/2000/svg" xmlns:xlink="http://www.w3.org/1999/xlink">
	<desc>Stata Graph - Graph</desc>
	<rect x="0" y="0" width="3960" height="2880" style="fill:#EAF2F3;stroke:none"/>
	<rect x="0.00" y="0.00" width="3959.88" height="2880.00" style="fill:#EAF2F3"/>
	<rect x="2.88" y="2.88" width="3954.12" height="2874.24" style="fill:none;stroke:#EAF2F3;stroke-width:5.76"/>
	<rect x="297.87" y="207.91" width="1799.32" height="2098.62" style="fill:#EAF2F3"/>
	<rect x="300.03" y="210.07" width="1795.01" height="2094.30" style="fill:none;stroke:#EAF2F3;stroke-width:4.32"/>
	<rect x="659.71" y="414.45" width="1361.87" height="1599.02" style="fill:#FFFFFF"/>
	<rect x="661.87" y="416.61" width="1357.55" height="1594.70" style="fill:none;stroke:#FFFFFF;stroke-width:4.32"/>
	<line x1="659.71" y1="1965.95" x2="2021.58" y2="1965.95" style="stroke:#EAF2F3;stroke-width:6.48"/>
	<line x1="659.71" y1="1961.99" x2="2021.58" y2="1961.99" style="stroke:#EAF2F3;stroke-width:6.48"/>
	<line x1="659.71" y1="1958.03" x2="2021.58" y2="1958.03" style="stroke:#EAF2F3;stroke-width:6.48"/>
	<line x1="659.71" y1="1954.07" x2="2021.58" y2="1954.07" style="stroke:#EAF2F3;stroke-width:6.48"/>
	<line x1="659.71" y1="1950.11" x2="2021.58" y2="1950.11" style="stroke:#EAF2F3;stroke-width:6.48"/>
	<line x1="659.71" y1="1946.03" x2="2021.58" y2="1946.03" style="stroke:#EAF2F3;stroke-width:6.48"/>
	<path d=" M828.63 1687.76 L1080.34 1687.76 L1080.34 1334.31 L1349.25 1334.31 L1349.25 1003.52 L1609.62 1003.52 L1609.62 672.60 L1878.65 672.60 L1878.65 461.97 L1974.06 461.97 L1974.06 461.97" stroke-linecap="round" stroke-linejoin="round" style="fill:none;stroke:#FF0000;stroke-width:6.48"/>
	<path d=" M828.63 1700.25 L1028.24 1700.25 L1028.24 1700.25 L1080.34 1700.25 L1080.34 1433.69 L1349.25 1433.69 L1349.25 1224.30 L1609.62 1224.30 L1609.62 900.68 L1878.65 900.68 L1878.65 691.17 L1974.06 691.17 L1974.06 691.17" stroke-linecap="round" stroke-linejoin="round" style="fill:none;stroke:#0000FF;stroke-width:6.48"/>
	<line x1="828.63" y1="1700.13" x2="886.17" y2="1700.13" style="stroke:#FF7F00;stroke-width:6.48"/>
	<line x1="915.01" y1="1700.13" x2="972.55" y2="1700.13" style="stroke:#FF7F00;stroke-width:6.48"/>
	<line x1="1001.38" y1="1700.13" x2="1058.93" y2="1700.13" style="stroke:#FF7F00;stroke-width:6.48"/>
	<line x1="1080.34" y1="1692.71" x2="1080.34" y2="1635.16" style="stroke:#FF7F00;stroke-width:6.48"/>
	<line x1="1080.34" y1="1606.33" x2="1080.34" y2="1548.78" style="stroke:#FF7F00;stroke-width:6.48"/>
	<line x1="1080.34" y1="1519.94" x2="1080.34" y2="1462.28" style="stroke:#FF7F00;stroke-width:6.48"/>
	<line x1="1080.34" y1="1433.56" x2="1080.34" y2="1375.90" style="stroke:#FF7F00;stroke-width:6.48"/>
	<line x1="1080.34" y1="1347.18" x2="1080.34" y2="1338.52" style="stroke:#FF7F00;stroke-width:6.48"/>
	<line x1="1080.34" y1="1338.52" x2="1129.34" y2="1338.52" style="stroke:#FF7F00;stroke-width:6.48"/>
	<line x1="1158.18" y1="1338.52" x2="1215.72" y2="1338.52" style="stroke:#FF7F00;stroke-width:6.48"/>
	<line x1="1244.55" y1="1338.52" x2="1302.10" y2="1338.52" style="stroke:#FF7F00;stroke-width:6.48"/>
	<line x1="1330.93" y1="1338.52" x2="1349.25" y2="1338.52" style="stroke:#FF7F00;stroke-width:6.48"/>
	<line x1="1349.25" y1="1338.52" x2="1349.25" y2="1299.29" style="stroke:#FF7F00;stroke-width:6.48"/>
	<line x1="1349.25" y1="1270.46" x2="1349.25" y2="1212.91" style="stroke:#FF7F00;stroke-width:6.48"/>
	<line x1="1349.25" y1="1184.08" x2="1349.25" y2="1126.53" style="stroke:#FF7F00;stroke-width:6.48"/>
	<line x1="1349.25" y1="1097.70" x2="1349.25" y2="1071.71" style="stroke:#FF7F00;stroke-width:6.48"/>
	<line x1="1349.25" y1="1071.71" x2="1380.80" y2="1071.71" style="stroke:#FF7F00;stroke-width:6.48"/>
	<line x1="1409.64" y1="1071.71" x2="1467.18" y2="1071.71" style="stroke:#FF7F00;stroke-width:6.48"/>
	<line x1="1496.01" y1="1071.71" x2="1553.56" y2="1071.71" style="stroke:#FF7F00;stroke-width:6.48"/>
	<line x1="1582.39" y1="1071.71" x2="1609.62" y2="1071.71" style="stroke:#FF7F00;stroke-width:6.48"/>
	<line x1="1609.62" y1="1071.71" x2="1609.62" y2="1041.27" style="stroke:#FF7F00;stroke-width:6.48"/>
	<line x1="1609.62" y1="1012.43" x2="1609.62" y2="954.88" style="stroke:#FF7F00;stroke-width:6.48"/>
	<line x1="1609.62" y1="926.05" x2="1609.62" y2="868.50" style="stroke:#FF7F00;stroke-width:6.48"/>
	<line x1="1617.54" y1="847.59" x2="1675.08" y2="847.59" style="stroke:#FF7F00;stroke-width:6.48"/>
	<line x1="1703.91" y1="847.59" x2="1761.46" y2="847.59" style="stroke:#FF7F00;stroke-width:6.48"/>
	<line x1="1790.29" y1="847.59" x2="1847.84" y2="847.59" style="stroke:#FF7F00;stroke-width:6.48"/>
	<line x1="1876.67" y1="847.59" x2="1878.65" y2="847.59" style="stroke:#FF7F00;stroke-width:6.48"/>
	<line x1="1878.65" y1="847.59" x2="1878.65" y2="792.02" style="stroke:#FF7F00;stroke-width:6.48"/>
	<line x1="1878.65" y1="763.19" x2="1878.65" y2="705.64" style="stroke:#FF7F00;stroke-width:6.48"/>
	<line x1="1878.65" y1="676.81" x2="1878.65" y2="619.14" style="stroke:#FF7F00;stroke-width:6.48"/>
	<line x1="1878.65" y1="590.43" x2="1878.65" y2="559.49" style="stroke:#FF7F00;stroke-width:6.48"/>
	<line x1="1878.65" y1="559.49" x2="1905.26" y2="559.49" style="stroke:#FF7F00;stroke-width:6.48"/>
	<line x1="1934.09" y1="559.49" x2="1974.06" y2="559.49" style="stroke:#FF7F00;stroke-width:6.48"/>
	<line x1="1974.06" y1="559.49" x2="1974.06" y2="559.49" style="stroke:#FF7F00;stroke-width:6.48"/>
	<path d="" stroke-linecap="round" stroke-linejoin="round" style="fill:none;stroke:#FF7F00;stroke-width:6.48"/>
	<line x1="828.63" y1="1695.43" x2="886.17" y2="1695.43" style="stroke:#008000;stroke-width:6.48"/>
	<line x1="915.01" y1="1695.43" x2="972.55" y2="1695.43" style="stroke:#008000;stroke-width:6.48"/>
	<line x1="1001.38" y1="1695.43" x2="1058.93" y2="1695.43" style="stroke:#008000;stroke-width:6.48"/>
	<line x1="1080.34" y1="1688.00" x2="1080.34" y2="1630.46" style="stroke:#008000;stroke-width:6.48"/>
	<line x1="1080.34" y1="1601.62" x2="1080.34" y2="1544.08" style="stroke:#008000;stroke-width:6.48"/>
	<line x1="1080.34" y1="1515.24" x2="1080.34" y2="1460.91" style="stroke:#008000;stroke-width:6.48"/>
	<line x1="1080.34" y1="1460.91" x2="1083.68" y2="1460.91" style="stroke:#008000;stroke-width:6.48"/>
	<line x1="1112.51" y1="1460.91" x2="1170.06" y2="1460.91" style="stroke:#008000;stroke-width:6.48"/>
	<line x1="1198.89" y1="1460.91" x2="1256.43" y2="1460.91" style="stroke:#008000;stroke-width:6.48"/>
	<line x1="1285.27" y1="1460.91" x2="1342.81" y2="1460.91" style="stroke:#008000;stroke-width:6.48"/>
	<line x1="1349.25" y1="1438.51" x2="1349.25" y2="1380.97" style="stroke:#008000;stroke-width:6.48"/>
	<line x1="1349.25" y1="1352.13" x2="1349.25" y2="1294.59" style="stroke:#008000;stroke-width:6.48"/>
	<line x1="1349.25" y1="1265.75" x2="1349.25" y2="1216.62" style="stroke:#008000;stroke-width:6.48"/>
	<line x1="1349.25" y1="1216.62" x2="1357.66" y2="1216.62" style="stroke:#008000;stroke-width:6.48"/>
	<line x1="1386.49" y1="1216.62" x2="1444.04" y2="1216.62" style="stroke:#008000;stroke-width:6.48"/>
	<line x1="1472.87" y1="1216.62" x2="1530.42" y2="1216.62" style="stroke:#008000;stroke-width:6.48"/>
	<line x1="1559.25" y1="1216.62" x2="1609.62" y2="1216.62" style="stroke:#008000;stroke-width:6.48"/>
	<line x1="1609.62" y1="1216.62" x2="1609.62" y2="1209.32" style="stroke:#008000;stroke-width:6.48"/>
	<line x1="1609.62" y1="1180.61" x2="1609.62" y2="1122.94" style="stroke:#008000;stroke-width:6.48"/>
	<line x1="1609.62" y1="1094.11" x2="1609.62" y2="1036.56" style="stroke:#008000;stroke-width:6.48"/>
	<line x1="1610.48" y1="1008.72" x2="1668.03" y2="1008.72" style="stroke:#008000;stroke-width:6.48"/>
	<line x1="1696.86" y1="1008.72" x2="1754.40" y2="1008.72" style="stroke:#008000;stroke-width:6.48"/>
	<line x1="1783.24" y1="1008.72" x2="1840.90" y2="1008.72" style="stroke:#008000;stroke-width:6.48"/>
	<line x1="1869.62" y1="1008.72" x2="1878.65" y2="1008.72" style="stroke:#008000;stroke-width:6.48"/>
	<line x1="1878.65" y1="1008.72" x2="1878.65" y2="960.08" style="stroke:#008000;stroke-width:6.48"/>
	<line x1="1878.65" y1="931.25" x2="1878.65" y2="873.70" style="stroke:#008000;stroke-width:6.48"/>
	<line x1="1878.65" y1="844.87" x2="1878.65" y2="787.32" style="stroke:#008000;stroke-width:6.48"/>
	<line x1="1878.65" y1="758.49" x2="1878.65" y2="737.33" style="stroke:#008000;stroke-width:6.48"/>
	<line x1="1878.65" y1="737.33" x2="1915.03" y2="737.33" style="stroke:#008000;stroke-width:6.48"/>
	<line x1="1943.87" y1="737.33" x2="1974.06" y2="737.33" style="stroke:#008000;stroke-width:6.48"/>
	<line x1="1974.06" y1="737.33" x2="1974.06" y2="737.33" style="stroke:#008000;stroke-width:6.48"/>
	<path d="" stroke-linecap="round" stroke-linejoin="round" style="fill:none;stroke:#008000;stroke-width:6.48"/>
	<line x1="828.63" y1="1728.84" x2="886.17" y2="1728.84" style="stroke:#FF0080;stroke-width:6.48"/>
	<line x1="912.16" y1="1728.84" x2="915.01" y2="1728.84" style="stroke:#FF0080;stroke-width:6.48"/>
	<line x1="941.00" y1="1728.84" x2="998.54" y2="1728.84" style="stroke:#FF0080;stroke-width:6.48"/>
	<line x1="1024.53" y1="1728.84" x2="1027.37" y2="1728.84" style="stroke:#FF0080;stroke-width:6.48"/>
	<line x1="1053.36" y1="1728.84" x2="1080.34" y2="1728.84" style="stroke:#FF0080;stroke-width:6.48"/>
	<line x1="1080.34" y1="1728.84" x2="1080.34" y2="1698.27" style="stroke:#FF0080;stroke-width:6.48"/>
	<line x1="1080.34" y1="1672.29" x2="1080.34" y2="1669.44" style="stroke:#FF0080;stroke-width:6.48"/>
	<line x1="1080.34" y1="1643.58" x2="1080.34" y2="1585.91" style="stroke:#FF0080;stroke-width:6.48"/>
	<line x1="1080.34" y1="1560.04" x2="1080.34" y2="1557.19" style="stroke:#FF0080;stroke-width:6.48"/>
	<line x1="1080.34" y1="1531.21" x2="1080.34" y2="1473.66" style="stroke:#FF0080;stroke-width:6.48"/>
	<line x1="1081.20" y1="1448.54" x2="1084.17" y2="1448.54" style="stroke:#FF0080;stroke-width:6.48"/>
	<line x1="1110.04" y1="1448.54" x2="1167.70" y2="1448.54" style="stroke:#FF0080;stroke-width:6.48"/>
	<line x1="1193.57" y1="1448.54" x2="1196.41" y2="1448.54" style="stroke:#FF0080;stroke-width:6.48"/>
	<line x1="1222.40" y1="1448.54" x2="1279.95" y2="1448.54" style="stroke:#FF0080;stroke-width:6.48"/>
	<line x1="1305.93" y1="1448.54" x2="1308.78" y2="1448.54" style="stroke:#FF0080;stroke-width:6.48"/>
	<line x1="1334.77" y1="1448.54" x2="1349.25" y2="1448.54" style="stroke:#FF0080;stroke-width:6.48"/>
	<line x1="1349.25" y1="1448.54" x2="1349.25" y2="1405.47" style="stroke:#FF0080;stroke-width:6.48"/>
	<line x1="1349.25" y1="1379.48" x2="1349.25" y2="1376.64" style="stroke:#FF0080;stroke-width:6.48"/>
	<line x1="1349.25" y1="1350.77" x2="1349.25" y2="1293.10" style="stroke:#FF0080;stroke-width:6.48"/>
	<line x1="1349.25" y1="1267.24" x2="1349.25" y2="1264.27" style="stroke:#FF0080;stroke-width:6.48"/>
	<line x1="1349.25" y1="1238.40" x2="1349.25" y2="1180.86" style="stroke:#FF0080;stroke-width:6.48"/>
	<line x1="1373.38" y1="1179.00" x2="1376.22" y2="1179.00" style="stroke:#FF0080;stroke-width:6.48"/>
	<line x1="1402.21" y1="1179.00" x2="1459.76" y2="1179.00" style="stroke:#FF0080;stroke-width:6.48"/>
	<line x1="1485.74" y1="1179.00" x2="1488.59" y2="1179.00" style="stroke:#FF0080;stroke-width:6.48"/>
	<line x1="1514.58" y1="1179.00" x2="1572.12" y2="1179.00" style="stroke:#FF0080;stroke-width:6.48"/>
	<line x1="1587.34" y1="1168.24" x2="1590.19" y2="1168.24" style="stroke:#FF0080;stroke-width:6.48"/>
	<line x1="1609.62" y1="1161.68" x2="1609.62" y2="1104.13" style="stroke:#FF0080;stroke-width:6.48"/>
	<line x1="1609.62" y1="1078.14" x2="1609.62" y2="1075.30" style="stroke:#FF0080;stroke-width:6.48"/>
	<line x1="1609.62" y1="1049.31" x2="1609.62" y2="991.76" style="stroke:#FF0080;stroke-width:6.48"/>
	<line x1="1609.62" y1="965.78" x2="1609.62" y2="962.93" style="stroke:#FF0080;stroke-width:6.48"/>
	<line x1="1609.62" y1="936.94" x2="1609.62" y2="920.36" style="stroke:#FF0080;stroke-width:6.48"/>
	<line x1="1609.62" y1="920.36" x2="1650.58" y2="920.36" style="stroke:#FF0080;stroke-width:6.48"/>
	<line x1="1676.44" y1="920.36" x2="1679.29" y2="920.36" style="stroke:#FF0080;stroke-width:6.48"/>
	<line x1="1705.28" y1="920.36" x2="1762.82" y2="920.36" style="stroke:#FF0080;stroke-width:6.48"/>
	<line x1="1788.81" y1="920.36" x2="1791.65" y2="920.36" style="stroke:#FF0080;stroke-width:6.48"/>
	<line x1="1817.64" y1="920.36" x2="1875.18" y2="920.36" style="stroke:#FF0080;stroke-width:6.48"/>
	<line x1="1878.65" y1="897.83" x2="1878.65" y2="894.99" style="stroke:#FF0080;stroke-width:6.48"/>
	<line x1="1878.65" y1="869.00" x2="1878.65" y2="811.45" style="stroke:#FF0080;stroke-width:6.48"/>
	<line x1="1878.65" y1="785.47" x2="1878.65" y2="782.62" style="stroke:#FF0080;stroke-width:6.48"/>
	<line x1="1878.65" y1="756.63" x2="1878.65" y2="699.09" style="stroke:#FF0080;stroke-width:6.48"/>
	<line x1="1899.44" y1="693.89" x2="1902.29" y2="693.89" style="stroke:#FF0080;stroke-width:6.48"/>
	<line x1="1928.27" y1="693.89" x2="1974.06" y2="693.89" style="stroke:#FF0080;stroke-width:6.48"/>
	<line x1="1974.06" y1="693.89" x2="1974.06" y2="693.89" style="stroke:#FF0080;stroke-width:6.48"/>
	<path d="" stroke-linecap="round" stroke-linejoin="round" style="fill:none;stroke:#FF0080;stroke-width:6.48"/>
	<line x1="828.63" y1="1613.13" x2="886.17" y2="1613.13" style="stroke:#A0522D;stroke-width:6.48"/>
	<line x1="912.16" y1="1613.13" x2="915.01" y2="1613.13" style="stroke:#A0522D;stroke-width:6.48"/>
	<line x1="941.00" y1="1613.13" x2="998.54" y2="1613.13" style="stroke:#A0522D;stroke-width:6.48"/>
	<line x1="1024.53" y1="1613.13" x2="1027.37" y2="1613.13" style="stroke:#A0522D;stroke-width:6.48"/>
	<line x1="1053.36" y1="1613.13" x2="1080.34" y2="1613.13" style="stroke:#A0522D;stroke-width:6.48"/>
	<line x1="1080.34" y1="1613.13" x2="1080.34" y2="1582.56" style="stroke:#A0522D;stroke-width:6.48"/>
	<line x1="1080.34" y1="1556.70" x2="1080.34" y2="1553.73" style="stroke:#A0522D;stroke-width:6.48"/>
	<line x1="1080.34" y1="1527.87" x2="1080.34" y2="1470.20" style="stroke:#A0522D;stroke-width:6.48"/>
	<line x1="1080.34" y1="1444.33" x2="1080.34" y2="1441.49" style="stroke:#A0522D;stroke-width:6.48"/>
	<line x1="1101.50" y1="1436.66" x2="1159.17" y2="1436.66" style="stroke:#A0522D;stroke-width:6.48"/>
	<line x1="1185.03" y1="1436.66" x2="1188.00" y2="1436.66" style="stroke:#A0522D;stroke-width:6.48"/>
	<line x1="1213.86" y1="1436.66" x2="1271.41" y2="1436.66" style="stroke:#A0522D;stroke-width:6.48"/>
	<line x1="1297.39" y1="1436.66" x2="1300.24" y2="1436.66" style="stroke:#A0522D;stroke-width:6.48"/>
	<line x1="1326.23" y1="1436.66" x2="1349.25" y2="1436.66" style="stroke:#A0522D;stroke-width:6.48"/>
	<line x1="1349.25" y1="1436.66" x2="1349.25" y2="1402.13" style="stroke:#A0522D;stroke-width:6.48"/>
	<line x1="1349.25" y1="1376.14" x2="1349.25" y2="1373.30" style="stroke:#A0522D;stroke-width:6.48"/>
	<line x1="1349.25" y1="1347.43" x2="1349.25" y2="1289.76" style="stroke:#A0522D;stroke-width:6.48"/>
	<line x1="1349.25" y1="1263.90" x2="1349.25" y2="1260.93" style="stroke:#A0522D;stroke-width:6.48"/>
	<line x1="1349.25" y1="1235.06" x2="1349.25" y2="1177.39" style="stroke:#A0522D;stroke-width:6.48"/>
	<line x1="1349.25" y1="1151.53" x2="1349.25" y2="1148.68" style="stroke:#A0522D;stroke-width:6.48"/>
	<line x1="1349.25" y1="1122.70" x2="1349.25" y2="1083.84" style="stroke:#A0522D;stroke-width:6.48"/>
	<line x1="1349.25" y1="1083.84" x2="1367.93" y2="1083.84" style="stroke:#A0522D;stroke-width:6.48"/>
	<line x1="1393.92" y1="1083.84" x2="1396.77" y2="1083.84" style="stroke:#A0522D;stroke-width:6.48"/>
	<line x1="1422.75" y1="1083.84" x2="1480.30" y2="1083.84" style="stroke:#A0522D;stroke-width:6.48"/>
	<line x1="1506.29" y1="1083.84" x2="1509.13" y2="1083.84" style="stroke:#A0522D;stroke-width:6.48"/>
	<line x1="1535.12" y1="1083.84" x2="1592.66" y2="1083.84" style="stroke:#A0522D;stroke-width:6.48"/>
	<line x1="1609.62" y1="1074.80" x2="1609.62" y2="1071.96" style="stroke:#A0522D;stroke-width:6.48"/>
	<line x1="1609.62" y1="1045.97" x2="1609.62" y2="988.42" style="stroke:#A0522D;stroke-width:6.48"/>
	<line x1="1609.62" y1="962.43" x2="1609.62" y2="959.59" style="stroke:#A0522D;stroke-width:6.48"/>
	<line x1="1609.62" y1="933.60" x2="1609.62" y2="876.05" style="stroke:#A0522D;stroke-width:6.48"/>
	<line x1="1609.62" y1="850.07" x2="1609.62" y2="847.22" style="stroke:#A0522D;stroke-width:6.48"/>
	<line x1="1615.56" y1="827.17" x2="1673.10" y2="827.17" style="stroke:#A0522D;stroke-width:6.48"/>
	<line x1="1698.96" y1="827.17" x2="1701.93" y2="827.17" style="stroke:#A0522D;stroke-width:6.48"/>
	<line x1="1727.80" y1="827.17" x2="1785.46" y2="827.17" style="stroke:#A0522D;stroke-width:6.48"/>
	<line x1="1811.33" y1="827.17" x2="1814.17" y2="827.17" style="stroke:#A0522D;stroke-width:6.48"/>
	<line x1="1840.16" y1="827.17" x2="1878.65" y2="827.17" style="stroke:#A0522D;stroke-width:6.48"/>
	<line x1="1878.65" y1="827.17" x2="1878.65" y2="808.11" style="stroke:#A0522D;stroke-width:6.48"/>
	<line x1="1878.65" y1="782.12" x2="1878.65" y2="779.28" style="stroke:#A0522D;stroke-width:6.48"/>
	<line x1="1878.65" y1="753.29" x2="1878.65" y2="695.74" style="stroke:#A0522D;stroke-width:6.48"/>
	<line x1="1878.65" y1="669.76" x2="1878.65" y2="666.91" style="stroke:#A0522D;stroke-width:6.48"/>
	<line x1="1878.65" y1="640.92" x2="1878.65" y2="618.65" style="stroke:#A0522D;stroke-width:6.48"/>
	<line x1="1878.65" y1="618.65" x2="1913.92" y2="618.65" style="stroke:#A0522D;stroke-width:6.48"/>
	<line x1="1939.90" y1="618.65" x2="1942.75" y2="618.65" style="stroke:#A0522D;stroke-width:6.48"/>
	<line x1="1968.62" y1="618.65" x2="1974.06" y2="618.65" style="stroke:#A0522D;stroke-width:6.48"/>
	<line x1="1974.06" y1="618.65" x2="1974.06" y2="618.65" style="stroke:#A0522D;stroke-width:6.48"/>
	<path d="" stroke-linecap="round" stroke-linejoin="round" style="fill:none;stroke:#A0522D;stroke-width:6.48"/>
	<path d=" M828.63 1749.01 L1080.34 1749.01 L1080.34 1580.34 L1349.25 1580.34 L1349.25 1459.68 L1609.62 1459.68 L1609.62 1146.33 L1878.65 1146.33 L1878.65 832.86 L1974.06 832.86 L1974.06 832.86" stroke-linecap="round" stroke-linejoin="round" style="fill:none;stroke:#938DD2;stroke-width:6.48"/>
	<line x1="659.71" y1="2013.48" x2="659.71" y2="414.45" style="stroke:#000000;stroke-width:4.32"/>
	<line x1="659.71" y1="1965.95" x2="629.76" y2="1965.95" style="stroke:#000000;stroke-width:4.32"/>
	<text x="614.79" y="1992.23" style="font-family:'Helvetica';font-size:74.99px;fill:#000000" text-anchor="end">0.000</text>
	<line x1="659.71" y1="1961.99" x2="629.76" y2="1961.99" style="stroke:#000000;stroke-width:4.32"/>
	<text x="614.79" y="1988.27" style="font-family:'Helvetica';font-size:74.99px;fill:#000000" text-anchor="end">0.001</text>
	<line x1="659.71" y1="1958.03" x2="629.76" y2="1958.03" style="stroke:#000000;stroke-width:4.32"/>
	<text x="614.79" y="1984.31" style="font-family:'Helvetica';font-size:74.99px;fill:#000000" text-anchor="end">0.002</text>
	<line x1="659.71" y1="1954.07" x2="629.76" y2="1954.07" style="stroke:#000000;stroke-width:4.32"/>
	<text x="614.79" y="1980.35" style="font-family:'Helvetica';font-size:74.99px;fill:#000000" text-anchor="end">0.003</text>
	<line x1="659.71" y1="1950.11" x2="629.76" y2="1950.11" style="stroke:#000000;stroke-width:4.32"/>
	<text x="614.79" y="1976.39" style="font-family:'Helvetica';font-size:74.99px;fill:#000000" text-anchor="end">0.004</text>
	<line x1="659.71" y1="1946.03" x2="629.76" y2="1946.03" style="stroke:#000000;stroke-width:4.32"/>
	<text x="614.79" y="1972.31" style="font-family:'Helvetica';font-size:74.99px;fill:#000000" text-anchor="end">0.005</text>
	<line x1="659.71" y1="2013.48" x2="2021.58" y2="2013.48" style="stroke:#000000;stroke-width:4.32"/>
	<line x1="707.23" y1="2013.48" x2="707.23" y2="2043.55" style="stroke:#000000;stroke-width:4.32"/>
	<text x="707.23" y="2110.96" style="font-family:'Helvetica';font-size:74.99px;fill:#000000" text-anchor="middle">1 Feb 20</text>
	<line x1="958.94" y1="2013.48" x2="958.94" y2="2043.55" style="stroke:#000000;stroke-width:4.32"/>
	<text x="958.94" y="2110.96" style="font-family:'Helvetica';font-size:74.99px;fill:#000000" text-anchor="middle">1 Mar 20</text>
	<line x1="1227.85" y1="2013.48" x2="1227.85" y2="2043.55" style="stroke:#000000;stroke-width:4.32"/>
	<text x="1227.85" y="2110.96" style="font-family:'Helvetica';font-size:74.99px;fill:#000000" text-anchor="middle">1 Apr 20</text>
	<line x1="1436.12" y1="2013.48" x2="1436.12" y2="2043.55" style="stroke:#000000;stroke-width:4.32"/>
	<text x="1436.12" y="2110.96" style="font-family:'Helvetica';font-size:74.99px;fill:#000000" text-anchor="middle">25 Apr 20</text>
	<text x="1340.71" y="2193.38" style="font-family:'Helvetica';font-size:74.99px;fill:#000000" text-anchor="middle"> </text>
	<text x="1340.71" y="369.91" style="font-family:'Helvetica';font-size:104.94px;fill:#1E2D53" text-anchor="middle">Female</text>
	<rect x="2097.19" y="207.91" width="1799.33" height="2098.62" style="fill:#EAF2F3"/>
	<rect x="2099.35" y="210.07" width="1795.01" height="2094.30" style="fill:none;stroke:#EAF2F3;stroke-width:4.32"/>
	<rect x="2459.04" y="414.45" width="1361.87" height="1599.02" style="fill:#FFFFFF"/>
	<rect x="2461.20" y="416.61" width="1357.55" height="1594.70" style="fill:none;stroke:#FFFFFF;stroke-width:4.32"/>
	<line x1="2459.04" y1="1965.95" x2="3820.91" y2="1965.95" style="stroke:#EAF2F3;stroke-width:6.48"/>
	<line x1="2459.04" y1="1961.99" x2="3820.91" y2="1961.99" style="stroke:#EAF2F3;stroke-width:6.48"/>
	<line x1="2459.04" y1="1957.91" x2="3820.91" y2="1957.91" style="stroke:#EAF2F3;stroke-width:6.48"/>
	<line x1="2459.04" y1="1953.95" x2="3820.91" y2="1953.95" style="stroke:#EAF2F3;stroke-width:6.48"/>
	<line x1="2459.04" y1="1949.99" x2="3820.91" y2="1949.99" style="stroke:#EAF2F3;stroke-width:6.48"/>
	<line x1="2459.04" y1="1945.91" x2="3820.91" y2="1945.91" style="stroke:#EAF2F3;stroke-width:6.48"/>
	<path d=" M2627.95 1623.90 L2879.66 1623.90 L2879.66 1340.25 L2940.30 1340.25 L2940.30 1340.25 L3148.57 1340.25 L3148.57 963.92 L3408.94 963.92 L3408.94 679.53 L3677.85 679.53 L3677.85 461.97 L3773.39 461.97 L3773.39 461.97" stroke-linecap="round" stroke-linejoin="round" style="fill:none;stroke:#FF0000;stroke-width:6.48"/>
	<path d=" M2627.95 1677.24 L2879.66 1677.24 L2879.66 1330.60 L3148.57 1330.60 L3148.57 1003.27 L3408.94 1003.27 L3408.94 753.04 L3677.85 753.04 L3677.85 579.66 L3773.39 579.66 L3773.39 579.66" stroke-linecap="round" stroke-linejoin="round" style="fill:none;stroke:#0000FF;stroke-width:6.48"/>
	<line x1="2627.95" y1="1641.60" x2="2685.50" y2="1641.60" style="stroke:#FF7F00;stroke-width:6.48"/>
	<line x1="2714.33" y1="1641.60" x2="2772.00" y2="1641.60" style="stroke:#FF7F00;stroke-width:6.48"/>
	<line x1="2800.71" y1="1641.60" x2="2858.38" y2="1641.60" style="stroke:#FF7F00;stroke-width:6.48"/>
	<line x1="2879.66" y1="1634.05" x2="2879.66" y2="1576.50" style="stroke:#FF7F00;stroke-width:6.48"/>
	<line x1="2879.66" y1="1547.67" x2="2879.66" y2="1490.12" style="stroke:#FF7F00;stroke-width:6.48"/>
	<line x1="2879.66" y1="1461.29" x2="2879.66" y2="1403.74" style="stroke:#FF7F00;stroke-width:6.48"/>
	<line x1="2879.66" y1="1374.91" x2="2879.66" y2="1317.36" style="stroke:#FF7F00;stroke-width:6.48"/>
	<line x1="2879.66" y1="1288.53" x2="2879.66" y2="1256.35" style="stroke:#FF7F00;stroke-width:6.48"/>
	<line x1="2879.66" y1="1256.35" x2="2905.03" y2="1256.35" style="stroke:#FF7F00;stroke-width:6.48"/>
	<line x1="2933.86" y1="1256.35" x2="2991.41" y2="1256.35" style="stroke:#FF7F00;stroke-width:6.48"/>
	<line x1="3020.24" y1="1256.35" x2="3077.79" y2="1256.35" style="stroke:#FF7F00;stroke-width:6.48"/>
	<line x1="3106.62" y1="1256.35" x2="3148.57" y2="1256.35" style="stroke:#FF7F00;stroke-width:6.48"/>
	<line x1="3148.57" y1="1256.35" x2="3148.57" y2="1240.63" style="stroke:#FF7F00;stroke-width:6.48"/>
	<line x1="3148.57" y1="1211.92" x2="3148.57" y2="1154.25" style="stroke:#FF7F00;stroke-width:6.48"/>
	<line x1="3148.57" y1="1125.54" x2="3148.57" y2="1067.87" style="stroke:#FF7F00;stroke-width:6.48"/>
	<line x1="3148.57" y1="1039.04" x2="3148.57" y2="992.63" style="stroke:#FF7F00;stroke-width:6.48"/>
	<line x1="3148.57" y1="992.63" x2="3159.71" y2="992.63" style="stroke:#FF7F00;stroke-width:6.48"/>
	<line x1="3188.42" y1="992.63" x2="3246.09" y2="992.63" style="stroke:#FF7F00;stroke-width:6.48"/>
	<line x1="3274.92" y1="992.63" x2="3332.46" y2="992.63" style="stroke:#FF7F00;stroke-width:6.48"/>
	<line x1="3361.30" y1="992.63" x2="3408.94" y2="992.63" style="stroke:#FF7F00;stroke-width:6.48"/>
	<line x1="3408.94" y1="992.63" x2="3408.94" y2="982.73" style="stroke:#FF7F00;stroke-width:6.48"/>
	<line x1="3408.94" y1="953.89" x2="3408.94" y2="896.35" style="stroke:#FF7F00;stroke-width:6.48"/>
	<line x1="3408.94" y1="867.51" x2="3408.94" y2="809.97" style="stroke:#FF7F00;stroke-width:6.48"/>
	<line x1="3408.94" y1="781.13" x2="3408.94" y2="739.18" style="stroke:#FF7F00;stroke-width:6.48"/>
	<line x1="3408.94" y1="739.18" x2="3424.53" y2="739.18" style="stroke:#FF7F00;stroke-width:6.48"/>
	<line x1="3453.37" y1="739.18" x2="3510.91" y2="739.18" style="stroke:#FF7F00;stroke-width:6.48"/>
	<line x1="3539.74" y1="739.18" x2="3597.29" y2="739.18" style="stroke:#FF7F00;stroke-width:6.48"/>
	<line x1="3626.12" y1="739.18" x2="3677.85" y2="739.18" style="stroke:#FF7F00;stroke-width:6.48"/>
	<line x1="3677.85" y1="739.18" x2="3677.85" y2="733.37" style="stroke:#FF7F00;stroke-width:6.48"/>
	<line x1="3677.85" y1="704.53" x2="3677.85" y2="646.86" style="stroke:#FF7F00;stroke-width:6.48"/>
	<line x1="3677.85" y1="618.15" x2="3677.85" y2="560.48" style="stroke:#FF7F00;stroke-width:6.48"/>
	<line x1="3677.85" y1="531.65" x2="3677.85" y2="526.33" style="stroke:#FF7F00;stroke-width:6.48"/>
	<line x1="3677.85" y1="526.33" x2="3730.07" y2="526.33" style="stroke:#FF7F00;stroke-width:6.48"/>
	<line x1="3758.91" y1="526.33" x2="3773.39" y2="526.33" style="stroke:#FF7F00;stroke-width:6.48"/>
	<line x1="3773.39" y1="526.33" x2="3773.39" y2="526.33" style="stroke:#FF7F00;stroke-width:6.48"/>
	<path d="" stroke-linecap="round" stroke-linejoin="round" style="fill:none;stroke:#FF7F00;stroke-width:6.48"/>
	<line x1="2627.95" y1="1690.11" x2="2685.50" y2="1690.11" style="stroke:#008000;stroke-width:6.48"/>
	<line x1="2714.33" y1="1690.11" x2="2766.80" y2="1690.11" style="stroke:#008000;stroke-width:6.48"/>
	<line x1="2766.80" y1="1690.11" x2="2766.80" y2="1685.03" style="stroke:#008000;stroke-width:6.48"/>
	<line x1="2791.30" y1="1680.70" x2="2848.85" y2="1680.70" style="stroke:#008000;stroke-width:6.48"/>
	<line x1="2877.68" y1="1680.70" x2="2879.66" y2="1680.70" style="stroke:#008000;stroke-width:6.48"/>
	<line x1="2879.66" y1="1680.70" x2="2879.66" y2="1625.01" style="stroke:#008000;stroke-width:6.48"/>
	<line x1="2879.66" y1="1596.30" x2="2879.66" y2="1538.63" style="stroke:#008000;stroke-width:6.48"/>
	<line x1="2879.66" y1="1509.80" x2="2879.66" y2="1452.25" style="stroke:#008000;stroke-width:6.48"/>
	<line x1="2879.91" y1="1423.79" x2="2937.58" y2="1423.79" style="stroke:#008000;stroke-width:6.48"/>
	<line x1="2966.29" y1="1423.79" x2="3023.95" y2="1423.79" style="stroke:#008000;stroke-width:6.48"/>
	<line x1="3052.79" y1="1423.79" x2="3110.33" y2="1423.79" style="stroke:#008000;stroke-width:6.48"/>
	<line x1="3139.17" y1="1423.79" x2="3148.57" y2="1423.79" style="stroke:#008000;stroke-width:6.48"/>
	<line x1="3148.57" y1="1423.79" x2="3148.57" y2="1375.65" style="stroke:#008000;stroke-width:6.48"/>
	<line x1="3148.57" y1="1346.81" x2="3148.57" y2="1289.27" style="stroke:#008000;stroke-width:6.48"/>
	<line x1="3148.57" y1="1260.43" x2="3148.57" y2="1202.89" style="stroke:#008000;stroke-width:6.48"/>
	<line x1="3160.45" y1="1185.93" x2="3217.99" y2="1185.93" style="stroke:#008000;stroke-width:6.48"/>
	<line x1="3246.83" y1="1185.93" x2="3304.37" y2="1185.93" style="stroke:#008000;stroke-width:6.48"/>
	<line x1="3333.21" y1="1185.93" x2="3390.75" y2="1185.93" style="stroke:#008000;stroke-width:6.48"/>
	<line x1="3408.94" y1="1175.29" x2="3408.94" y2="1117.74" style="stroke:#008000;stroke-width:6.48"/>
	<line x1="3408.94" y1="1088.91" x2="3408.94" y2="1031.24" style="stroke:#008000;stroke-width:6.48"/>
	<line x1="3408.94" y1="1002.53" x2="3408.94" y2="986.19" style="stroke:#008000;stroke-width:6.48"/>
	<line x1="3408.94" y1="986.19" x2="3450.27" y2="986.19" style="stroke:#008000;stroke-width:6.48"/>
	<line x1="3479.11" y1="986.19" x2="3536.65" y2="986.19" style="stroke:#008000;stroke-width:6.48"/>
	<line x1="3565.49" y1="986.19" x2="3623.03" y2="986.19" style="stroke:#008000;stroke-width:6.48"/>
	<line x1="3651.86" y1="986.19" x2="3677.85" y2="986.19" style="stroke:#008000;stroke-width:6.48"/>
	<line x1="3677.85" y1="986.19" x2="3677.85" y2="954.64" style="stroke:#008000;stroke-width:6.48"/>
	<line x1="3677.85" y1="925.80" x2="3677.85" y2="868.26" style="stroke:#008000;stroke-width:6.48"/>
	<line x1="3677.85" y1="839.42" x2="3677.85" y2="781.88" style="stroke:#008000;stroke-width:6.48"/>
	<line x1="3677.85" y1="753.04" x2="3677.85" y2="695.50" style="stroke:#008000;stroke-width:6.48"/>
	<line x1="3677.85" y1="666.66" x2="3677.85" y2="653.30" style="stroke:#008000;stroke-width:6.48"/>
	<line x1="3677.85" y1="653.30" x2="3722.15" y2="653.30" style="stroke:#008000;stroke-width:6.48"/>
	<line x1="3750.86" y1="653.30" x2="3773.39" y2="653.30" style="stroke:#008000;stroke-width:6.48"/>
	<line x1="3773.39" y1="653.30" x2="3773.39" y2="653.30" style="stroke:#008000;stroke-width:6.48"/>
	<path d="" stroke-linecap="round" stroke-linejoin="round" style="fill:none;stroke:#008000;stroke-width:6.48"/>
	<line x1="2627.95" y1="1657.06" x2="2685.50" y2="1657.06" style="stroke:#FF0080;stroke-width:6.48"/>
	<line x1="2711.49" y1="1657.06" x2="2714.33" y2="1657.06" style="stroke:#FF0080;stroke-width:6.48"/>
	<line x1="2740.32" y1="1657.06" x2="2797.86" y2="1657.06" style="stroke:#FF0080;stroke-width:6.48"/>
	<line x1="2823.85" y1="1657.06" x2="2826.70" y2="1657.06" style="stroke:#FF0080;stroke-width:6.48"/>
	<line x1="2852.68" y1="1657.06" x2="2879.66" y2="1657.06" style="stroke:#FF0080;stroke-width:6.48"/>
	<line x1="2879.66" y1="1657.06" x2="2879.66" y2="1626.50" style="stroke:#FF0080;stroke-width:6.48"/>
	<line x1="2879.66" y1="1600.51" x2="2879.66" y2="1597.66" style="stroke:#FF0080;stroke-width:6.48"/>
	<line x1="2879.66" y1="1571.67" x2="2879.66" y2="1514.13" style="stroke:#FF0080;stroke-width:6.48"/>
	<line x1="2879.66" y1="1488.14" x2="2879.66" y2="1485.29" style="stroke:#FF0080;stroke-width:6.48"/>
	<line x1="2879.66" y1="1459.31" x2="2879.66" y2="1401.76" style="stroke:#FF0080;stroke-width:6.48"/>
	<line x1="2879.66" y1="1375.77" x2="2879.66" y2="1372.93" style="stroke:#FF0080;stroke-width:6.48"/>
	<line x1="2880.78" y1="1348.17" x2="2938.32" y2="1348.17" style="stroke:#FF0080;stroke-width:6.48"/>
	<line x1="2964.31" y1="1348.17" x2="2967.15" y2="1348.17" style="stroke:#FF0080;stroke-width:6.48"/>
	<line x1="2993.14" y1="1348.17" x2="3050.68" y2="1348.17" style="stroke:#FF0080;stroke-width:6.48"/>
	<line x1="3076.67" y1="1348.17" x2="3079.52" y2="1348.17" style="stroke:#FF0080;stroke-width:6.48"/>
	<line x1="3105.51" y1="1348.17" x2="3148.57" y2="1348.17" style="stroke:#FF0080;stroke-width:6.48"/>
	<line x1="3148.57" y1="1348.17" x2="3148.57" y2="1333.70" style="stroke:#FF0080;stroke-width:6.48"/>
	<line x1="3148.57" y1="1307.71" x2="3148.57" y2="1304.86" style="stroke:#FF0080;stroke-width:6.48"/>
	<line x1="3148.57" y1="1278.87" x2="3148.57" y2="1221.33" style="stroke:#FF0080;stroke-width:6.48"/>
	<line x1="3148.57" y1="1195.34" x2="3148.57" y2="1192.49" style="stroke:#FF0080;stroke-width:6.48"/>
	<line x1="3148.57" y1="1166.50" x2="3148.57" y2="1108.96" style="stroke:#FF0080;stroke-width:6.48"/>
	<line x1="3148.94" y1="1083.47" x2="3151.91" y2="1083.47" style="stroke:#FF0080;stroke-width:6.48"/>
	<line x1="3177.78" y1="1083.47" x2="3235.32" y2="1083.47" style="stroke:#FF0080;stroke-width:6.48"/>
	<line x1="3261.31" y1="1083.47" x2="3264.15" y2="1083.47" style="stroke:#FF0080;stroke-width:6.48"/>
	<line x1="3290.14" y1="1083.47" x2="3347.68" y2="1083.47" style="stroke:#FF0080;stroke-width:6.48"/>
	<line x1="3373.67" y1="1083.47" x2="3376.52" y2="1083.47" style="stroke:#FF0080;stroke-width:6.48"/>
	<line x1="3402.51" y1="1083.47" x2="3408.94" y2="1083.47" style="stroke:#FF0080;stroke-width:6.48"/>
	<line x1="3408.94" y1="1083.47" x2="3408.94" y2="1032.35" style="stroke:#FF0080;stroke-width:6.48"/>
	<line x1="3408.94" y1="1006.37" x2="3408.94" y2="1003.52" style="stroke:#FF0080;stroke-width:6.48"/>
	<line x1="3408.94" y1="977.53" x2="3408.94" y2="919.99" style="stroke:#FF0080;stroke-width:6.48"/>
	<line x1="3408.94" y1="894.00" x2="3408.94" y2="891.15" style="stroke:#FF0080;stroke-width:6.48"/>
	<line x1="3408.94" y1="865.16" x2="3408.94" y2="862.69" style="stroke:#FF0080;stroke-width:6.48"/>
	<line x1="3408.94" y1="862.69" x2="3434.93" y2="862.69" style="stroke:#FF0080;stroke-width:6.48"/>
	<line x1="3434.93" y1="862.69" x2="3434.93" y2="851.67" style="stroke:#FF0080;stroke-width:6.48"/>
	<line x1="3434.93" y1="851.67" x2="3453.00" y2="851.67" style="stroke:#FF0080;stroke-width:6.48"/>
	<line x1="3478.98" y1="851.67" x2="3481.83" y2="851.67" style="stroke:#FF0080;stroke-width:6.48"/>
	<line x1="3507.82" y1="851.67" x2="3565.36" y2="851.67" style="stroke:#FF0080;stroke-width:6.48"/>
	<line x1="3591.35" y1="851.67" x2="3594.20" y2="851.67" style="stroke:#FF0080;stroke-width:6.48"/>
	<line x1="3620.06" y1="851.67" x2="3677.73" y2="851.67" style="stroke:#FF0080;stroke-width:6.48"/>
	<line x1="3677.85" y1="825.93" x2="3677.85" y2="823.09" style="stroke:#FF0080;stroke-width:6.48"/>
	<line x1="3677.85" y1="797.10" x2="3677.85" y2="739.55" style="stroke:#FF0080;stroke-width:6.48"/>
	<line x1="3677.85" y1="713.56" x2="3677.85" y2="710.72" style="stroke:#FF0080;stroke-width:6.48"/>
	<line x1="3677.85" y1="684.73" x2="3677.85" y2="627.18" style="stroke:#FF0080;stroke-width:6.48"/>
	<line x1="3677.85" y1="601.20" x2="3677.85" y2="598.35" style="stroke:#FF0080;stroke-width:6.48"/>
	<line x1="3677.85" y1="572.36" x2="3677.85" y2="531.77" style="stroke:#FF0080;stroke-width:6.48"/>
	<line x1="3677.85" y1="531.77" x2="3694.80" y2="531.77" style="stroke:#FF0080;stroke-width:6.48"/>
	<line x1="3720.79" y1="531.77" x2="3723.64" y2="531.77" style="stroke:#FF0080;stroke-width:6.48"/>
	<line x1="3749.63" y1="531.77" x2="3773.39" y2="531.77" style="stroke:#FF0080;stroke-width:6.48"/>
	<line x1="3773.39" y1="531.77" x2="3773.39" y2="531.77" style="stroke:#FF0080;stroke-width:6.48"/>
	<path d="" stroke-linecap="round" stroke-linejoin="round" style="fill:none;stroke:#FF0080;stroke-width:6.48"/>
	<line x1="2627.95" y1="1633.55" x2="2685.50" y2="1633.55" style="stroke:#A0522D;stroke-width:6.48"/>
	<line x1="2711.49" y1="1633.55" x2="2714.33" y2="1633.55" style="stroke:#A0522D;stroke-width:6.48"/>
	<line x1="2740.32" y1="1633.55" x2="2797.86" y2="1633.55" style="stroke:#A0522D;stroke-width:6.48"/>
	<line x1="2823.85" y1="1633.55" x2="2826.70" y2="1633.55" style="stroke:#A0522D;stroke-width:6.48"/>
	<line x1="2852.68" y1="1633.55" x2="2879.66" y2="1633.55" style="stroke:#A0522D;stroke-width:6.48"/>
	<line x1="2879.66" y1="1633.55" x2="2879.66" y2="1602.98" style="stroke:#A0522D;stroke-width:6.48"/>
	<line x1="2879.66" y1="1577.00" x2="2879.66" y2="1574.15" style="stroke:#A0522D;stroke-width:6.48"/>
	<line x1="2879.66" y1="1548.16" x2="2879.66" y2="1490.62" style="stroke:#A0522D;stroke-width:6.48"/>
	<line x1="2879.66" y1="1464.63" x2="2879.66" y2="1461.78" style="stroke:#A0522D;stroke-width:6.48"/>
	<line x1="2879.66" y1="1435.79" x2="2879.66" y2="1378.25" style="stroke:#A0522D;stroke-width:6.48"/>
	<line x1="2879.66" y1="1352.26" x2="2879.66" y2="1349.41" style="stroke:#A0522D;stroke-width:6.48"/>
	<line x1="2904.78" y1="1348.67" x2="2962.33" y2="1348.67" style="stroke:#A0522D;stroke-width:6.48"/>
	<line x1="2988.32" y1="1348.67" x2="2991.16" y2="1348.67" style="stroke:#A0522D;stroke-width:6.48"/>
	<line x1="3017.15" y1="1348.67" x2="3074.69" y2="1348.67" style="stroke:#A0522D;stroke-width:6.48"/>
	<line x1="3100.68" y1="1348.67" x2="3103.53" y2="1348.67" style="stroke:#A0522D;stroke-width:6.48"/>
	<line x1="3129.51" y1="1348.67" x2="3148.57" y2="1348.67" style="stroke:#A0522D;stroke-width:6.48"/>
	<line x1="3148.57" y1="1348.67" x2="3148.57" y2="1310.18" style="stroke:#A0522D;stroke-width:6.48"/>
	<line x1="3148.57" y1="1284.19" x2="3148.57" y2="1281.35" style="stroke:#A0522D;stroke-width:6.48"/>
	<line x1="3148.57" y1="1255.36" x2="3148.57" y2="1197.81" style="stroke:#A0522D;stroke-width:6.48"/>
	<line x1="3148.57" y1="1171.83" x2="3148.57" y2="1168.98" style="stroke:#A0522D;stroke-width:6.48"/>
	<line x1="3148.57" y1="1142.99" x2="3148.57" y2="1085.45" style="stroke:#A0522D;stroke-width:6.48"/>
	<line x1="3148.57" y1="1059.46" x2="3148.57" y2="1056.61" style="stroke:#A0522D;stroke-width:6.48"/>
	<line x1="3149.93" y1="1032.11" x2="3207.60" y2="1032.11" style="stroke:#A0522D;stroke-width:6.48"/>
	<line x1="3233.46" y1="1032.11" x2="3236.31" y2="1032.11" style="stroke:#A0522D;stroke-width:6.48"/>
	<line x1="3262.30" y1="1032.11" x2="3319.84" y2="1032.11" style="stroke:#A0522D;stroke-width:6.48"/>
	<line x1="3345.83" y1="1032.11" x2="3348.68" y2="1032.11" style="stroke:#A0522D;stroke-width:6.48"/>
	<line x1="3374.66" y1="1032.11" x2="3408.94" y2="1032.11" style="stroke:#A0522D;stroke-width:6.48"/>
	<line x1="3408.94" y1="1032.11" x2="3408.94" y2="1008.84" style="stroke:#A0522D;stroke-width:6.48"/>
	<line x1="3408.94" y1="982.85" x2="3408.94" y2="980.01" style="stroke:#A0522D;stroke-width:6.48"/>
	<line x1="3408.94" y1="954.02" x2="3408.94" y2="896.47" style="stroke:#A0522D;stroke-width:6.48"/>
	<line x1="3408.94" y1="870.48" x2="3408.94" y2="867.64" style="stroke:#A0522D;stroke-width:6.48"/>
	<line x1="3408.94" y1="841.65" x2="3408.94" y2="784.10" style="stroke:#A0522D;stroke-width:6.48"/>
	<line x1="3429.48" y1="778.78" x2="3432.45" y2="778.78" style="stroke:#A0522D;stroke-width:6.48"/>
	<line x1="3458.32" y1="778.78" x2="3515.99" y2="778.78" style="stroke:#A0522D;stroke-width:6.48"/>
	<line x1="3541.85" y1="778.78" x2="3544.70" y2="778.78" style="stroke:#A0522D;stroke-width:6.48"/>
	<line x1="3570.68" y1="778.78" x2="3628.23" y2="778.78" style="stroke:#A0522D;stroke-width:6.48"/>
	<line x1="3654.21" y1="778.78" x2="3657.06" y2="778.78" style="stroke:#A0522D;stroke-width:6.48"/>
	<line x1="3677.85" y1="773.59" x2="3677.85" y2="716.04" style="stroke:#A0522D;stroke-width:6.48"/>
	<line x1="3677.85" y1="690.05" x2="3677.85" y2="687.21" style="stroke:#A0522D;stroke-width:6.48"/>
	<line x1="3677.85" y1="661.22" x2="3677.85" y2="603.67" style="stroke:#A0522D;stroke-width:6.48"/>
	<line x1="3677.85" y1="577.68" x2="3677.85" y2="574.84" style="stroke:#A0522D;stroke-width:6.48"/>
	<line x1="3677.85" y1="548.85" x2="3677.85" y2="524.10" style="stroke:#A0522D;stroke-width:6.48"/>
	<line x1="3677.85" y1="524.10" x2="3710.64" y2="524.10" style="stroke:#A0522D;stroke-width:6.48"/>
	<line x1="3736.63" y1="524.10" x2="3739.48" y2="524.10" style="stroke:#A0522D;stroke-width:6.48"/>
	<line x1="3765.47" y1="524.10" x2="3773.39" y2="524.10" style="stroke:#A0522D;stroke-width:6.48"/>
	<line x1="3773.39" y1="524.10" x2="3773.39" y2="524.10" style="stroke:#A0522D;stroke-width:6.48"/>
	<path d="" stroke-linecap="round" stroke-linejoin="round" style="fill:none;stroke:#A0522D;stroke-width:6.48"/>
	<path d=" M2627.95 1733.54 L2879.66 1733.54 L2879.66 1423.42 L3148.57 1423.42 L3148.57 1190.88 L3408.94 1190.88 L3408.94 1035.82 L3677.85 1035.82 L3677.85 674.09 L3773.39 674.09 L3773.39 674.09" stroke-linecap="round" stroke-linejoin="round" style="fill:none;stroke:#938DD2;stroke-width:6.48"/>
	<line x1="2459.04" y1="2013.48" x2="2459.04" y2="414.45" style="stroke:#000000;stroke-width:4.32"/>
	<line x1="2459.04" y1="1965.95" x2="2429.09" y2="1965.95" style="stroke:#000000;stroke-width:4.32"/>
	<text x="2413.99" y="1992.23" style="font-family:'Helvetica';font-size:74.99px;fill:#000000" text-anchor="end">0.000</text>
	<line x1="2459.04" y1="1961.99" x2="2429.09" y2="1961.99" style="stroke:#000000;stroke-width:4.32"/>
	<text x="2413.99" y="1988.27" style="font-family:'Helvetica';font-size:74.99px;fill:#000000" text-anchor="end">0.001</text>
	<line x1="2459.04" y1="1957.91" x2="2429.09" y2="1957.91" style="stroke:#000000;stroke-width:4.32"/>
	<text x="2413.99" y="1984.19" style="font-family:'Helvetica';font-size:74.99px;fill:#000000" text-anchor="end">0.002</text>
	<line x1="2459.04" y1="1953.95" x2="2429.09" y2="1953.95" style="stroke:#000000;stroke-width:4.32"/>
	<text x="2413.99" y="1980.23" style="font-family:'Helvetica';font-size:74.99px;fill:#000000" text-anchor="end">0.003</text>
	<line x1="2459.04" y1="1949.99" x2="2429.09" y2="1949.99" style="stroke:#000000;stroke-width:4.32"/>
	<text x="2413.99" y="1976.27" style="font-family:'Helvetica';font-size:74.99px;fill:#000000" text-anchor="end">0.004</text>
	<line x1="2459.04" y1="1945.91" x2="2429.09" y2="1945.91" style="stroke:#000000;stroke-width:4.32"/>
	<text x="2413.99" y="1972.18" style="font-family:'Helvetica';font-size:74.99px;fill:#000000" text-anchor="end">0.005</text>
	<line x1="2459.04" y1="2013.48" x2="3820.91" y2="2013.48" style="stroke:#000000;stroke-width:4.32"/>
	<line x1="2506.56" y1="2013.48" x2="2506.56" y2="2043.55" style="stroke:#000000;stroke-width:4.32"/>
	<text x="2506.56" y="2110.96" style="font-family:'Helvetica';font-size:74.99px;fill:#000000" text-anchor="middle">1 Feb 20</text>
	<line x1="2758.14" y1="2013.48" x2="2758.14" y2="2043.55" style="stroke:#000000;stroke-width:4.32"/>
	<text x="2758.14" y="2110.96" style="font-family:'Helvetica';font-size:74.99px;fill:#000000" text-anchor="middle">1 Mar 20</text>
	<line x1="3027.17" y1="2013.48" x2="3027.17" y2="2043.55" style="stroke:#000000;stroke-width:4.32"/>
	<text x="3027.17" y="2110.96" style="font-family:'Helvetica';font-size:74.99px;fill:#000000" text-anchor="middle">1 Apr 20</text>
	<line x1="3235.44" y1="2013.48" x2="3235.44" y2="2043.55" style="stroke:#000000;stroke-width:4.32"/>
	<text x="3235.44" y="2110.96" style="font-family:'Helvetica';font-size:74.99px;fill:#000000" text-anchor="middle">25 Apr 20</text>
	<text x="3140.03" y="2193.38" style="font-family:'Helvetica';font-size:74.99px;fill:#000000" text-anchor="middle">Days since 1 Feb 2020</text>
	<text x="3140.03" y="369.91" style="font-family:'Helvetica';font-size:104.94px;fill:#1E2D53" text-anchor="middle">Male</text>
	<text x="150.62" y="1257.22" style="font-family:'Helvetica';font-size:99.99px;fill:#000000" transform="rotate(-90 150.62,1257.22)" text-anchor="middle">Cumulative probability</text>
	<text x="250.61" y="1257.22" style="font-family:'Helvetica';font-size:99.99px;fill:#000000" transform="rotate(-90 250.61,1257.22)" text-anchor="middle">TPP Covid-19 case</text>
	<text x="2097.19" y="157.51" style="font-family:'Helvetica';font-size:110.01px;fill:#000000" text-anchor="middle"> </text>
	<rect x="867.12" y="2341.18" width="2460.27" height="440.94" style="fill:#FFFFFF"/>
	<rect x="870.00" y="2344.06" width="2454.51" height="435.18" style="fill:none;stroke:#000000;stroke-width:5.76"/>
	<line x1="910.30" y1="2548.83" x2="1284.65" y2="2548.83" style="stroke:#FF0000;stroke-width:8.64"/>
	<line x1="910.30" y1="2688.92" x2="1284.65" y2="2688.92" style="stroke:#0000FF;stroke-width:8.64"/>
	<line x1="1748.22" y1="2548.83" x2="1805.76" y2="2548.83" style="stroke:#FF7F00;stroke-width:8.64"/>
	<line x1="1834.59" y1="2548.83" x2="1892.14" y2="2548.83" style="stroke:#FF7F00;stroke-width:8.64"/>
	<line x1="1920.97" y1="2548.83" x2="1978.52" y2="2548.83" style="stroke:#FF7F00;stroke-width:8.64"/>
	<line x1="2007.35" y1="2548.83" x2="2064.89" y2="2548.83" style="stroke:#FF7F00;stroke-width:8.64"/>
	<line x1="2093.73" y1="2548.83" x2="2122.56" y2="2548.83" style="stroke:#FF7F00;stroke-width:8.64"/>
	<line x1="1748.22" y1="2688.92" x2="1805.76" y2="2688.92" style="stroke:#008000;stroke-width:8.64"/>
	<line x1="1834.59" y1="2688.92" x2="1892.14" y2="2688.92" style="stroke:#008000;stroke-width:8.64"/>
	<line x1="1920.97" y1="2688.92" x2="1978.52" y2="2688.92" style="stroke:#008000;stroke-width:8.64"/>
	<line x1="2007.35" y1="2688.92" x2="2064.89" y2="2688.92" style="stroke:#008000;stroke-width:8.64"/>
	<line x1="2093.73" y1="2688.92" x2="2122.56" y2="2688.92" style="stroke:#008000;stroke-width:8.64"/>
	<line x1="2586.25" y1="2548.83" x2="2643.80" y2="2548.83" style="stroke:#FF0080;stroke-width:8.64"/>
	<line x1="2669.78" y1="2548.83" x2="2672.63" y2="2548.83" style="stroke:#FF0080;stroke-width:8.64"/>
	<line x1="2698.62" y1="2548.83" x2="2756.16" y2="2548.83" style="stroke:#FF0080;stroke-width:8.64"/>
	<line x1="2782.15" y1="2548.83" x2="2784.99" y2="2548.83" style="stroke:#FF0080;stroke-width:8.64"/>
	<line x1="2810.98" y1="2548.83" x2="2868.53" y2="2548.83" style="stroke:#FF0080;stroke-width:8.64"/>
	<line x1="2894.51" y1="2548.83" x2="2897.36" y2="2548.83" style="stroke:#FF0080;stroke-width:8.64"/>
	<line x1="2923.22" y1="2548.83" x2="2960.59" y2="2548.83" style="stroke:#FF0080;stroke-width:8.64"/>
	<line x1="2586.25" y1="2688.92" x2="2643.80" y2="2688.92" style="stroke:#A0522D;stroke-width:8.64"/>
	<line x1="2669.78" y1="2688.92" x2="2672.63" y2="2688.92" style="stroke:#A0522D;stroke-width:8.64"/>
	<line x1="2698.62" y1="2688.92" x2="2756.16" y2="2688.92" style="stroke:#A0522D;stroke-width:8.64"/>
	<line x1="2782.15" y1="2688.92" x2="2784.99" y2="2688.92" style="stroke:#A0522D;stroke-width:8.64"/>
	<line x1="2810.98" y1="2688.92" x2="2868.53" y2="2688.92" style="stroke:#A0522D;stroke-width:8.64"/>
	<line x1="2894.51" y1="2688.92" x2="2897.36" y2="2688.92" style="stroke:#A0522D;stroke-width:8.64"/>
	<line x1="2923.22" y1="2688.92" x2="2960.59" y2="2688.92" style="stroke:#A0522D;stroke-width:8.64"/>
	<text x="1344.67" y="2576.85" style="font-family:'Helvetica';font-size:79.94px;fill:#000000">18-&lt;40</text>
	<text x="1344.67" y="2716.94" style="font-family:'Helvetica';font-size:79.94px;fill:#000000">40-&lt;50</text>
	<text x="2182.58" y="2576.85" style="font-family:'Helvetica';font-size:79.94px;fill:#000000">50-&lt;60</text>
	<text x="2182.58" y="2716.94" style="font-family:'Helvetica';font-size:79.94px;fill:#000000">60-&lt;70</text>
	<text x="3020.61" y="2576.85" style="font-family:'Helvetica';font-size:79.94px;fill:#000000">70-&lt;80</text>
	<text x="3020.61" y="2716.94" style="font-family:'Helvetica';font-size:79.94px;fill:#000000">80+</text>
	<text x="2097.19" y="2448.93" style="font-family:'Helvetica';font-size:79.94px;fill:#000000" text-anchor="middle">Age group</text>
</svg>
