<?xml version="1.0" encoding="UTF-8" standalone="no"?>
<!-- This is a Stata 15.1 generated SVG file (http://www.stata.com) -->

<svg version="1.1" width="5.50in" height="4.00in" viewBox="0 0 3960 2880" xmlns="http://www.w3.org/2000/svg" xmlns:xlink="http://www.w3.org/1999/xlink">
	<desc>Stata Graph - Graph</desc>
	<rect x="0" y="0" width="3960" height="2880" style="fill:#EAF2F3;stroke:none"/>
	<rect x="0.00" y="0.00" width="3959.88" height="2880.00" style="fill:#EAF2F3"/>
	<rect x="2.88" y="2.88" width="3954.12" height="2874.24" style="fill:none;stroke:#EAF2F3;stroke-width:5.76"/>
	<rect x="297.87" y="207.91" width="1799.32" height="2098.62" style="fill:#EAF2F3"/>
	<rect x="300.03" y="210.07" width="1795.01" height="2094.30" style="fill:none;stroke:#EAF2F3;stroke-width:4.32"/>
	<rect x="659.71" y="414.45" width="1361.87" height="1599.02" style="fill:#FFFFFF"/>
	<rect x="661.87" y="416.61" width="1357.55" height="1594.70" style="fill:none;stroke:#FFFFFF;stroke-width:4.32"/>
	<line x1="659.71" y1="1965.95" x2="2021.58" y2="1965.95" style="stroke:#EAF2F3;stroke-width:6.48"/>
	<line x1="659.71" y1="1589.99" x2="2021.58" y2="1589.99" style="stroke:#EAF2F3;stroke-width:6.48"/>
	<line x1="659.71" y1="1214.03" x2="2021.58" y2="1214.03" style="stroke:#EAF2F3;stroke-width:6.48"/>
	<line x1="659.71" y1="837.94" x2="2021.58" y2="837.94" style="stroke:#EAF2F3;stroke-width:6.48"/>
	<line x1="659.71" y1="461.97" x2="2021.58" y2="461.97" style="stroke:#EAF2F3;stroke-width:6.48"/>
	<path d="" stroke-linecap="round" stroke-linejoin="round" style="fill:none;stroke:#B0B0B0;stroke-width:6.48"/>
	<line x1="935.43" y1="1517.35" x2="958.44" y2="1517.35" style="stroke:#B0B0B0;stroke-width:6.48"/>
	<line x1="978.62" y1="1517.35" x2="1001.63" y2="1517.35" style="stroke:#B0B0B0;stroke-width:6.48"/>
	<line x1="1021.80" y1="1517.35" x2="1044.82" y2="1517.35" style="stroke:#B0B0B0;stroke-width:6.48"/>
	<line x1="1064.99" y1="1517.35" x2="1088.01" y2="1517.35" style="stroke:#B0B0B0;stroke-width:6.48"/>
	<line x1="1108.18" y1="1517.35" x2="1129.47" y2="1517.35" style="stroke:#B0B0B0;stroke-width:6.48"/>
	<line x1="1129.47" y1="1517.35" x2="1129.47" y2="1515.61" style="stroke:#B0B0B0;stroke-width:6.48"/>
	<line x1="1129.47" y1="1495.44" x2="1129.47" y2="1472.42" style="stroke:#B0B0B0;stroke-width:6.48"/>
	<line x1="1129.47" y1="1452.25" x2="1129.47" y2="1429.23" style="stroke:#B0B0B0;stroke-width:6.48"/>
	<line x1="1129.47" y1="1409.06" x2="1129.47" y2="1386.04" style="stroke:#B0B0B0;stroke-width:6.48"/>
	<line x1="1129.47" y1="1365.87" x2="1129.47" y2="1342.85" style="stroke:#B0B0B0;stroke-width:6.48"/>
	<line x1="1129.47" y1="1322.68" x2="1129.47" y2="1299.66" style="stroke:#B0B0B0;stroke-width:6.48"/>
	<line x1="1129.47" y1="1279.49" x2="1129.47" y2="1256.35" style="stroke:#B0B0B0;stroke-width:6.48"/>
	<line x1="1129.47" y1="1236.30" x2="1129.47" y2="1213.16" style="stroke:#B0B0B0;stroke-width:6.48"/>
	<line x1="1129.47" y1="1192.99" x2="1129.47" y2="1169.97" style="stroke:#B0B0B0;stroke-width:6.48"/>
	<line x1="1129.47" y1="1149.80" x2="1129.47" y2="1126.78" style="stroke:#B0B0B0;stroke-width:6.48"/>
	<line x1="1129.47" y1="1106.61" x2="1129.47" y2="1083.59" style="stroke:#B0B0B0;stroke-width:6.48"/>
	<line x1="1134.66" y1="1068.61" x2="1157.68" y2="1068.61" style="stroke:#B0B0B0;stroke-width:6.48"/>
	<line x1="1177.85" y1="1068.61" x2="1200.87" y2="1068.61" style="stroke:#B0B0B0;stroke-width:6.48"/>
	<line x1="1209.41" y1="1056.98" x2="1209.41" y2="1033.96" style="stroke:#B0B0B0;stroke-width:6.48"/>
	<line x1="1209.41" y1="1013.79" x2="1209.41" y2="990.77" style="stroke:#B0B0B0;stroke-width:6.48"/>
	<line x1="1209.41" y1="970.60" x2="1209.41" y2="947.58" style="stroke:#B0B0B0;stroke-width:6.48"/>
	<line x1="1209.41" y1="927.41" x2="1209.41" y2="904.39" style="stroke:#B0B0B0;stroke-width:6.48"/>
	<line x1="1209.41" y1="884.22" x2="1209.41" y2="861.20" style="stroke:#B0B0B0;stroke-width:6.48"/>
	<line x1="1209.41" y1="841.03" x2="1209.41" y2="818.01" style="stroke:#B0B0B0;stroke-width:6.48"/>
	<line x1="1209.41" y1="797.84" x2="1209.41" y2="774.82" style="stroke:#B0B0B0;stroke-width:6.48"/>
	<line x1="1209.41" y1="754.65" x2="1209.41" y2="731.63" style="stroke:#B0B0B0;stroke-width:6.48"/>
	<line x1="1209.41" y1="711.46" x2="1209.41" y2="688.44" style="stroke:#B0B0B0;stroke-width:6.48"/>
	<line x1="1209.41" y1="668.27" x2="1209.41" y2="645.25" style="stroke:#B0B0B0;stroke-width:6.48"/>
	<line x1="1209.41" y1="625.08" x2="1209.41" y2="620.01" style="stroke:#B0B0B0;stroke-width:6.48"/>
	<line x1="1209.41" y1="620.01" x2="1227.35" y2="620.01" style="stroke:#B0B0B0;stroke-width:6.48"/>
	<line x1="1247.52" y1="620.01" x2="1270.54" y2="620.01" style="stroke:#B0B0B0;stroke-width:6.48"/>
	<line x1="1290.71" y1="620.01" x2="1313.73" y2="620.01" style="stroke:#B0B0B0;stroke-width:6.48"/>
	<line x1="1333.90" y1="620.01" x2="1356.92" y2="620.01" style="stroke:#B0B0B0;stroke-width:6.48"/>
	<line x1="1377.09" y1="620.01" x2="1400.11" y2="620.01" style="stroke:#B0B0B0;stroke-width:6.48"/>
	<line x1="1420.28" y1="620.01" x2="1443.30" y2="620.01" style="stroke:#B0B0B0;stroke-width:6.48"/>
	<line x1="1463.47" y1="620.01" x2="1486.48" y2="620.01" style="stroke:#B0B0B0;stroke-width:6.48"/>
	<line x1="1506.66" y1="620.01" x2="1529.67" y2="620.01" style="stroke:#B0B0B0;stroke-width:6.48"/>
	<line x1="1549.85" y1="620.01" x2="1572.86" y2="620.01" style="stroke:#B0B0B0;stroke-width:6.48"/>
	<line x1="1593.03" y1="620.01" x2="1616.05" y2="620.01" style="stroke:#B0B0B0;stroke-width:6.48"/>
	<line x1="1636.22" y1="620.01" x2="1659.24" y2="620.01" style="stroke:#B0B0B0;stroke-width:6.48"/>
	<line x1="1679.41" y1="620.01" x2="1702.55" y2="620.01" style="stroke:#B0B0B0;stroke-width:6.48"/>
	<line x1="1722.60" y1="620.01" x2="1745.74" y2="620.01" style="stroke:#B0B0B0;stroke-width:6.48"/>
	<line x1="1765.91" y1="620.01" x2="1788.93" y2="620.01" style="stroke:#B0B0B0;stroke-width:6.48"/>
	<line x1="1809.10" y1="620.01" x2="1832.12" y2="620.01" style="stroke:#B0B0B0;stroke-width:6.48"/>
	<line x1="1852.29" y1="620.01" x2="1875.31" y2="620.01" style="stroke:#B0B0B0;stroke-width:6.48"/>
	<line x1="1895.48" y1="620.01" x2="1918.50" y2="620.01" style="stroke:#B0B0B0;stroke-width:6.48"/>
	<line x1="1938.67" y1="620.01" x2="1961.68" y2="620.01" style="stroke:#B0B0B0;stroke-width:6.48"/>
	<path d="" stroke-linecap="round" stroke-linejoin="round" style="fill:none;stroke:#B0B0B0;stroke-width:6.48"/>
	<line x1="1403.45" y1="1966.08" x2="1426.47" y2="1966.08" style="stroke:#909090;stroke-width:6.48"/>
	<line x1="1449.48" y1="1966.08" x2="1452.45" y2="1966.08" style="stroke:#909090;stroke-width:6.48"/>
	<line x1="1475.47" y1="1966.08" x2="1498.49" y2="1966.08" style="stroke:#909090;stroke-width:6.48"/>
	<line x1="1521.51" y1="1966.08" x2="1524.48" y2="1966.08" style="stroke:#909090;stroke-width:6.48"/>
	<line x1="1547.49" y1="1966.08" x2="1570.51" y2="1966.08" style="stroke:#909090;stroke-width:6.48"/>
	<line x1="1593.53" y1="1966.08" x2="1596.38" y2="1966.08" style="stroke:#909090;stroke-width:6.48"/>
	<line x1="1619.52" y1="1966.08" x2="1642.53" y2="1966.08" style="stroke:#909090;stroke-width:6.48"/>
	<line x1="1665.55" y1="1966.08" x2="1668.40" y2="1966.08" style="stroke:#909090;stroke-width:6.48"/>
	<line x1="1691.41" y1="1966.08" x2="1714.56" y2="1966.08" style="stroke:#909090;stroke-width:6.48"/>
	<line x1="1737.57" y1="1966.08" x2="1740.42" y2="1966.08" style="stroke:#909090;stroke-width:6.48"/>
	<line x1="1763.44" y1="1966.08" x2="1786.45" y2="1966.08" style="stroke:#909090;stroke-width:6.48"/>
	<line x1="1809.60" y1="1966.08" x2="1812.44" y2="1966.08" style="stroke:#909090;stroke-width:6.48"/>
	<line x1="1835.46" y1="1966.08" x2="1858.48" y2="1966.08" style="stroke:#909090;stroke-width:6.48"/>
	<line x1="1881.49" y1="1966.08" x2="1884.46" y2="1966.08" style="stroke:#909090;stroke-width:6.48"/>
	<line x1="1907.48" y1="1966.08" x2="1930.50" y2="1966.08" style="stroke:#909090;stroke-width:6.48"/>
	<line x1="1953.52" y1="1966.08" x2="1956.49" y2="1966.08" style="stroke:#909090;stroke-width:6.48"/>
	<path d="" stroke-linecap="round" stroke-linejoin="round" style="fill:none;stroke:#909090;stroke-width:6.48"/>
	<line x1="1346.28" y1="1966.08" x2="1461.49" y2="1966.08" style="stroke:#606060;stroke-width:6.48"/>
	<line x1="1490.32" y1="1966.08" x2="1605.53" y2="1966.08" style="stroke:#606060;stroke-width:6.48"/>
	<line x1="1634.37" y1="1966.08" x2="1749.58" y2="1966.08" style="stroke:#606060;stroke-width:6.48"/>
	<line x1="1778.29" y1="1966.08" x2="1893.50" y2="1966.08" style="stroke:#606060;stroke-width:6.48"/>
	<line x1="1922.33" y1="1966.08" x2="1974.06" y2="1966.08" style="stroke:#606060;stroke-width:6.48"/>
	<line x1="1974.06" y1="1966.08" x2="1974.06" y2="1966.08" style="stroke:#606060;stroke-width:6.48"/>
	<path d="" stroke-linecap="round" stroke-linejoin="round" style="fill:none;stroke:#606060;stroke-width:6.48"/>
	<line x1="1346.28" y1="1456.58" x2="1461.49" y2="1456.58" style="stroke:#303030;stroke-width:6.48"/>
	<line x1="1490.32" y1="1456.58" x2="1493.17" y2="1456.58" style="stroke:#303030;stroke-width:6.48"/>
	<line x1="1522.00" y1="1456.58" x2="1631.64" y2="1456.58" style="stroke:#303030;stroke-width:6.48"/>
	<line x1="1631.64" y1="1456.58" x2="1631.64" y2="1451.01" style="stroke:#303030;stroke-width:6.48"/>
	<line x1="1631.64" y1="1422.30" x2="1631.64" y2="1419.33" style="stroke:#303030;stroke-width:6.48"/>
	<line x1="1631.64" y1="1390.62" x2="1631.64" y2="1275.41" style="stroke:#303030;stroke-width:6.48"/>
	<line x1="1631.64" y1="1246.57" x2="1631.64" y2="1243.73" style="stroke:#303030;stroke-width:6.48"/>
	<line x1="1631.64" y1="1214.89" x2="1631.64" y2="1099.68" style="stroke:#303030;stroke-width:6.48"/>
	<line x1="1631.64" y1="1070.84" x2="1631.64" y2="1068.00" style="stroke:#303030;stroke-width:6.48"/>
	<line x1="1631.64" y1="1039.16" x2="1631.64" y2="947.09" style="stroke:#303030;stroke-width:6.48"/>
	<line x1="1631.64" y1="947.09" x2="1654.79" y2="947.09" style="stroke:#303030;stroke-width:6.48"/>
	<line x1="1683.62" y1="947.09" x2="1686.46" y2="947.09" style="stroke:#303030;stroke-width:6.48"/>
	<line x1="1715.30" y1="947.09" x2="1830.51" y2="947.09" style="stroke:#303030;stroke-width:6.48"/>
	<line x1="1859.34" y1="947.09" x2="1862.19" y2="947.09" style="stroke:#303030;stroke-width:6.48"/>
	<line x1="1891.02" y1="947.09" x2="1974.06" y2="947.09" style="stroke:#303030;stroke-width:6.48"/>
	<line x1="1974.06" y1="947.09" x2="1974.06" y2="947.09" style="stroke:#303030;stroke-width:6.48"/>
	<path d="" stroke-linecap="round" stroke-linejoin="round" style="fill:none;stroke:#303030;stroke-width:6.48"/>
	<path d=" M1974.06 1966.08" stroke-linecap="round" stroke-linejoin="round" style="fill:none;stroke:#000000;stroke-width:6.48"/>
	<path d=" M1974.06 1966.08" stroke-linecap="round" stroke-linejoin="round" style="fill:none;stroke:#938DD2;stroke-width:6.48"/>
	<line x1="659.71" y1="2013.48" x2="659.71" y2="414.45" style="stroke:#000000;stroke-width:4.32"/>
	<line x1="659.71" y1="1965.95" x2="629.76" y2="1965.95" style="stroke:#000000;stroke-width:4.32"/>
	<text x="614.79" y="1992.23" style="font-family:'Helvetica';font-size:74.99px;fill:#000000" text-anchor="end">0.000</text>
	<line x1="659.71" y1="1589.99" x2="629.76" y2="1589.99" style="stroke:#000000;stroke-width:4.32"/>
	<text x="614.79" y="1616.27" style="font-family:'Helvetica';font-size:74.99px;fill:#000000" text-anchor="end">0.002</text>
	<line x1="659.71" y1="1214.03" x2="629.76" y2="1214.03" style="stroke:#000000;stroke-width:4.32"/>
	<text x="614.79" y="1240.30" style="font-family:'Helvetica';font-size:74.99px;fill:#000000" text-anchor="end">0.004</text>
	<line x1="659.71" y1="837.94" x2="629.76" y2="837.94" style="stroke:#000000;stroke-width:4.32"/>
	<text x="614.79" y="864.22" style="font-family:'Helvetica';font-size:74.99px;fill:#000000" text-anchor="end">0.006</text>
	<line x1="659.71" y1="461.97" x2="629.76" y2="461.97" style="stroke:#000000;stroke-width:4.32"/>
	<text x="614.79" y="488.25" style="font-family:'Helvetica';font-size:74.99px;fill:#000000" text-anchor="end">0.008</text>
	<line x1="659.71" y1="2013.48" x2="2021.58" y2="2013.48" style="stroke:#000000;stroke-width:4.32"/>
	<line x1="707.23" y1="2013.48" x2="707.23" y2="2043.55" style="stroke:#000000;stroke-width:4.32"/>
	<text x="707.23" y="2110.96" style="font-family:'Helvetica';font-size:74.99px;fill:#000000" text-anchor="middle">1 Feb 20</text>
	<line x1="1038.26" y1="2013.48" x2="1038.26" y2="2043.55" style="stroke:#000000;stroke-width:4.32"/>
	<text x="1038.26" y="2110.96" style="font-family:'Helvetica';font-size:74.99px;fill:#000000" text-anchor="middle">1 Mar 20</text>
	<line x1="1392.06" y1="2013.48" x2="1392.06" y2="2043.55" style="stroke:#000000;stroke-width:4.32"/>
	<text x="1392.06" y="2110.96" style="font-family:'Helvetica';font-size:74.99px;fill:#000000" text-anchor="middle">1 Apr 20</text>
	<line x1="1745.87" y1="2013.48" x2="1745.87" y2="2043.55" style="stroke:#000000;stroke-width:4.32"/>
	<text x="1745.87" y="2110.96" style="font-family:'Helvetica';font-size:74.99px;fill:#000000" text-anchor="middle">1 May 20</text>
	<text x="1340.71" y="2193.38" style="font-family:'Helvetica';font-size:74.99px;fill:#000000" text-anchor="middle"> </text>
	<text x="1340.71" y="369.91" style="font-family:'Helvetica';font-size:104.94px;fill:#1E2D53" text-anchor="middle">Female</text>
	<rect x="2097.19" y="207.91" width="1799.33" height="2098.62" style="fill:#EAF2F3"/>
	<rect x="2099.35" y="210.07" width="1795.01" height="2094.30" style="fill:none;stroke:#EAF2F3;stroke-width:4.32"/>
	<rect x="2459.04" y="414.45" width="1361.87" height="1599.02" style="fill:#FFFFFF"/>
	<rect x="2461.20" y="416.61" width="1357.55" height="1594.70" style="fill:none;stroke:#FFFFFF;stroke-width:4.32"/>
	<line x1="2459.04" y1="1965.95" x2="3820.91" y2="1965.95" style="stroke:#EAF2F3;stroke-width:6.48"/>
	<line x1="2459.04" y1="1589.99" x2="3820.91" y2="1589.99" style="stroke:#EAF2F3;stroke-width:6.48"/>
	<line x1="2459.04" y1="1214.03" x2="3820.91" y2="1214.03" style="stroke:#EAF2F3;stroke-width:6.48"/>
	<line x1="2459.04" y1="837.94" x2="3820.91" y2="837.94" style="stroke:#EAF2F3;stroke-width:6.48"/>
	<line x1="2459.04" y1="461.97" x2="3820.91" y2="461.97" style="stroke:#EAF2F3;stroke-width:6.48"/>
	<line x1="2883.13" y1="1574.40" x2="2885.97" y2="1574.40" style="stroke:#B0B0B0;stroke-width:6.48"/>
	<line x1="2906.14" y1="1574.40" x2="2908.99" y2="1574.40" style="stroke:#B0B0B0;stroke-width:6.48"/>
	<line x1="2929.16" y1="1574.40" x2="2932.01" y2="1574.40" style="stroke:#B0B0B0;stroke-width:6.48"/>
	<line x1="2952.18" y1="1574.40" x2="2955.03" y2="1574.40" style="stroke:#B0B0B0;stroke-width:6.48"/>
	<line x1="2975.20" y1="1574.40" x2="2978.04" y2="1574.40" style="stroke:#B0B0B0;stroke-width:6.48"/>
	<line x1="2998.22" y1="1574.40" x2="3001.18" y2="1574.40" style="stroke:#B0B0B0;stroke-width:6.48"/>
	<line x1="3021.36" y1="1574.40" x2="3024.20" y2="1574.40" style="stroke:#B0B0B0;stroke-width:6.48"/>
	<line x1="3044.37" y1="1574.40" x2="3047.22" y2="1574.40" style="stroke:#B0B0B0;stroke-width:6.48"/>
	<line x1="3067.39" y1="1574.40" x2="3070.24" y2="1574.40" style="stroke:#B0B0B0;stroke-width:6.48"/>
	<line x1="3090.41" y1="1574.40" x2="3093.26" y2="1574.40" style="stroke:#B0B0B0;stroke-width:6.48"/>
	<line x1="3113.43" y1="1574.40" x2="3116.27" y2="1574.40" style="stroke:#B0B0B0;stroke-width:6.48"/>
	<line x1="3136.44" y1="1574.40" x2="3139.29" y2="1574.40" style="stroke:#B0B0B0;stroke-width:6.48"/>
	<line x1="3159.46" y1="1574.40" x2="3162.31" y2="1574.40" style="stroke:#B0B0B0;stroke-width:6.48"/>
	<line x1="3182.48" y1="1574.40" x2="3185.32" y2="1574.40" style="stroke:#B0B0B0;stroke-width:6.48"/>
	<line x1="3205.50" y1="1574.40" x2="3208.34" y2="1574.40" style="stroke:#B0B0B0;stroke-width:6.48"/>
	<line x1="3228.51" y1="1574.40" x2="3231.36" y2="1574.40" style="stroke:#B0B0B0;stroke-width:6.48"/>
	<line x1="3251.53" y1="1574.40" x2="3254.50" y2="1574.40" style="stroke:#B0B0B0;stroke-width:6.48"/>
	<line x1="3274.67" y1="1574.40" x2="3277.52" y2="1574.40" style="stroke:#B0B0B0;stroke-width:6.48"/>
	<line x1="3297.69" y1="1574.40" x2="3300.54" y2="1574.40" style="stroke:#B0B0B0;stroke-width:6.48"/>
	<line x1="3320.71" y1="1574.40" x2="3323.55" y2="1574.40" style="stroke:#B0B0B0;stroke-width:6.48"/>
	<line x1="3343.72" y1="1574.40" x2="3346.57" y2="1574.40" style="stroke:#B0B0B0;stroke-width:6.48"/>
	<line x1="3366.74" y1="1574.40" x2="3369.59" y2="1574.40" style="stroke:#B0B0B0;stroke-width:6.48"/>
	<line x1="3389.76" y1="1574.40" x2="3392.61" y2="1574.40" style="stroke:#B0B0B0;stroke-width:6.48"/>
	<line x1="3412.78" y1="1574.40" x2="3415.62" y2="1574.40" style="stroke:#B0B0B0;stroke-width:6.48"/>
	<line x1="3435.80" y1="1574.40" x2="3438.64" y2="1574.40" style="stroke:#B0B0B0;stroke-width:6.48"/>
	<line x1="3458.81" y1="1574.40" x2="3461.66" y2="1574.40" style="stroke:#B0B0B0;stroke-width:6.48"/>
	<line x1="3481.83" y1="1574.40" x2="3484.80" y2="1574.40" style="stroke:#B0B0B0;stroke-width:6.48"/>
	<line x1="3504.85" y1="1574.40" x2="3507.82" y2="1574.40" style="stroke:#B0B0B0;stroke-width:6.48"/>
	<line x1="3527.99" y1="1574.40" x2="3530.84" y2="1574.40" style="stroke:#B0B0B0;stroke-width:6.48"/>
	<line x1="3551.01" y1="1574.40" x2="3553.85" y2="1574.40" style="stroke:#B0B0B0;stroke-width:6.48"/>
	<line x1="3574.02" y1="1574.40" x2="3576.87" y2="1574.40" style="stroke:#B0B0B0;stroke-width:6.48"/>
	<line x1="3597.04" y1="1574.40" x2="3599.89" y2="1574.40" style="stroke:#B0B0B0;stroke-width:6.48"/>
	<line x1="3620.06" y1="1574.40" x2="3622.91" y2="1574.40" style="stroke:#B0B0B0;stroke-width:6.48"/>
	<line x1="3643.08" y1="1574.40" x2="3645.92" y2="1574.40" style="stroke:#B0B0B0;stroke-width:6.48"/>
	<line x1="3666.09" y1="1574.40" x2="3668.94" y2="1574.40" style="stroke:#B0B0B0;stroke-width:6.48"/>
	<line x1="3689.11" y1="1574.40" x2="3691.96" y2="1574.40" style="stroke:#B0B0B0;stroke-width:6.48"/>
	<line x1="3712.13" y1="1574.40" x2="3714.97" y2="1574.40" style="stroke:#B0B0B0;stroke-width:6.48"/>
	<line x1="3735.15" y1="1574.40" x2="3738.12" y2="1574.40" style="stroke:#B0B0B0;stroke-width:6.48"/>
	<line x1="3758.16" y1="1574.40" x2="3761.13" y2="1574.40" style="stroke:#B0B0B0;stroke-width:6.48"/>
	<line x1="3761.88" y1="1554.97" x2="3761.88" y2="1552.12" style="stroke:#B0B0B0;stroke-width:6.48"/>
	<line x1="3761.88" y1="1531.95" x2="3761.88" y2="1529.10" style="stroke:#B0B0B0;stroke-width:6.48"/>
	<line x1="3761.88" y1="1508.93" x2="3761.88" y2="1506.08" style="stroke:#B0B0B0;stroke-width:6.48"/>
	<line x1="3761.88" y1="1485.91" x2="3761.88" y2="1483.07" style="stroke:#B0B0B0;stroke-width:6.48"/>
	<line x1="3761.88" y1="1462.89" x2="3761.88" y2="1460.05" style="stroke:#B0B0B0;stroke-width:6.48"/>
	<line x1="3761.88" y1="1439.88" x2="3761.88" y2="1437.03" style="stroke:#B0B0B0;stroke-width:6.48"/>
	<line x1="3761.88" y1="1416.86" x2="3761.88" y2="1414.01" style="stroke:#B0B0B0;stroke-width:6.48"/>
	<line x1="3761.88" y1="1393.84" x2="3761.88" y2="1390.99" style="stroke:#B0B0B0;stroke-width:6.48"/>
	<line x1="3761.88" y1="1370.82" x2="3761.88" y2="1367.85" style="stroke:#B0B0B0;stroke-width:6.48"/>
	<line x1="3761.88" y1="1347.68" x2="3761.88" y2="1344.83" style="stroke:#B0B0B0;stroke-width:6.48"/>
	<line x1="3761.88" y1="1324.66" x2="3761.88" y2="1321.82" style="stroke:#B0B0B0;stroke-width:6.48"/>
	<line x1="3761.88" y1="1301.64" x2="3761.88" y2="1298.80" style="stroke:#B0B0B0;stroke-width:6.48"/>
	<line x1="3761.88" y1="1278.62" x2="3761.88" y2="1275.78" style="stroke:#B0B0B0;stroke-width:6.48"/>
	<line x1="3761.88" y1="1255.61" x2="3761.88" y2="1252.76" style="stroke:#B0B0B0;stroke-width:6.48"/>
	<line x1="3761.88" y1="1232.59" x2="3761.88" y2="1229.74" style="stroke:#B0B0B0;stroke-width:6.48"/>
	<line x1="3761.88" y1="1209.57" x2="3761.88" y2="1206.72" style="stroke:#B0B0B0;stroke-width:6.48"/>
	<line x1="3761.88" y1="1186.55" x2="3761.88" y2="1183.71" style="stroke:#B0B0B0;stroke-width:6.48"/>
	<path d="" stroke-linecap="round" stroke-linejoin="round" style="fill:none;stroke:#B0B0B0;stroke-width:6.48"/>
	<line x1="3316.87" y1="1514.13" x2="3339.89" y2="1514.13" style="stroke:#B0B0B0;stroke-width:6.48"/>
	<line x1="3360.06" y1="1514.13" x2="3383.08" y2="1514.13" style="stroke:#B0B0B0;stroke-width:6.48"/>
	<line x1="3403.25" y1="1514.13" x2="3426.27" y2="1514.13" style="stroke:#B0B0B0;stroke-width:6.48"/>
	<line x1="3446.44" y1="1514.13" x2="3469.45" y2="1514.13" style="stroke:#B0B0B0;stroke-width:6.48"/>
	<line x1="3489.63" y1="1514.13" x2="3512.64" y2="1514.13" style="stroke:#B0B0B0;stroke-width:6.48"/>
	<line x1="3532.82" y1="1514.13" x2="3555.96" y2="1514.13" style="stroke:#B0B0B0;stroke-width:6.48"/>
	<line x1="3576.00" y1="1514.13" x2="3599.14" y2="1514.13" style="stroke:#B0B0B0;stroke-width:6.48"/>
	<line x1="3619.32" y1="1514.13" x2="3642.33" y2="1514.13" style="stroke:#B0B0B0;stroke-width:6.48"/>
	<line x1="3662.51" y1="1514.13" x2="3685.52" y2="1514.13" style="stroke:#B0B0B0;stroke-width:6.48"/>
	<line x1="3705.69" y1="1514.13" x2="3728.71" y2="1514.13" style="stroke:#B0B0B0;stroke-width:6.48"/>
	<line x1="3748.88" y1="1514.13" x2="3771.90" y2="1514.13" style="stroke:#B0B0B0;stroke-width:6.48"/>
	<path d="" stroke-linecap="round" stroke-linejoin="round" style="fill:none;stroke:#B0B0B0;stroke-width:6.48"/>
	<line x1="3351.03" y1="1490.12" x2="3374.04" y2="1490.12" style="stroke:#909090;stroke-width:6.48"/>
	<line x1="3397.06" y1="1490.12" x2="3400.03" y2="1490.12" style="stroke:#909090;stroke-width:6.48"/>
	<line x1="3423.05" y1="1490.12" x2="3446.07" y2="1490.12" style="stroke:#909090;stroke-width:6.48"/>
	<line x1="3469.08" y1="1490.12" x2="3472.05" y2="1490.12" style="stroke:#909090;stroke-width:6.48"/>
	<line x1="3495.07" y1="1490.12" x2="3518.09" y2="1490.12" style="stroke:#909090;stroke-width:6.48"/>
	<line x1="3541.11" y1="1490.12" x2="3544.08" y2="1490.12" style="stroke:#909090;stroke-width:6.48"/>
	<line x1="3567.09" y1="1490.12" x2="3590.11" y2="1490.12" style="stroke:#909090;stroke-width:6.48"/>
	<line x1="3613.13" y1="1490.12" x2="3615.97" y2="1490.12" style="stroke:#909090;stroke-width:6.48"/>
	<line x1="3639.12" y1="1490.12" x2="3662.13" y2="1490.12" style="stroke:#909090;stroke-width:6.48"/>
	<line x1="3685.15" y1="1490.12" x2="3688.00" y2="1490.12" style="stroke:#909090;stroke-width:6.48"/>
	<line x1="3711.01" y1="1490.12" x2="3734.16" y2="1490.12" style="stroke:#909090;stroke-width:6.48"/>
	<line x1="3757.17" y1="1490.12" x2="3760.02" y2="1490.12" style="stroke:#909090;stroke-width:6.48"/>
	<path d="" stroke-linecap="round" stroke-linejoin="round" style="fill:none;stroke:#909090;stroke-width:6.48"/>
	<line x1="2848.85" y1="1519.45" x2="2964.06" y2="1519.45" style="stroke:#606060;stroke-width:6.48"/>
	<line x1="2992.89" y1="1519.45" x2="3108.11" y2="1519.45" style="stroke:#606060;stroke-width:6.48"/>
	<line x1="3136.82" y1="1519.45" x2="3252.03" y2="1519.45" style="stroke:#606060;stroke-width:6.48"/>
	<line x1="3280.86" y1="1519.45" x2="3396.07" y2="1519.45" style="stroke:#606060;stroke-width:6.48"/>
	<line x1="3424.91" y1="1519.45" x2="3540.12" y2="1519.45" style="stroke:#606060;stroke-width:6.48"/>
	<line x1="3568.95" y1="1519.45" x2="3684.16" y2="1519.45" style="stroke:#606060;stroke-width:6.48"/>
	<line x1="3712.99" y1="1519.45" x2="3773.39" y2="1519.45" style="stroke:#606060;stroke-width:6.48"/>
	<line x1="3773.39" y1="1519.45" x2="3773.39" y2="1519.45" style="stroke:#606060;stroke-width:6.48"/>
	<path d="" stroke-linecap="round" stroke-linejoin="round" style="fill:none;stroke:#606060;stroke-width:6.48"/>
	<line x1="3145.60" y1="1448.17" x2="3260.81" y2="1448.17" style="stroke:#303030;stroke-width:6.48"/>
	<line x1="3289.65" y1="1448.17" x2="3292.49" y2="1448.17" style="stroke:#303030;stroke-width:6.48"/>
	<line x1="3321.33" y1="1448.17" x2="3436.54" y2="1448.17" style="stroke:#303030;stroke-width:6.48"/>
	<line x1="3465.25" y1="1448.17" x2="3468.22" y2="1448.17" style="stroke:#303030;stroke-width:6.48"/>
	<line x1="3496.93" y1="1448.17" x2="3612.14" y2="1448.17" style="stroke:#303030;stroke-width:6.48"/>
	<line x1="3640.97" y1="1448.17" x2="3643.82" y2="1448.17" style="stroke:#303030;stroke-width:6.48"/>
	<line x1="3672.65" y1="1448.17" x2="3727.72" y2="1448.17" style="stroke:#303030;stroke-width:6.48"/>
	<line x1="3727.72" y1="1448.17" x2="3727.72" y2="1448.17" style="stroke:#303030;stroke-width:6.48"/>
	<line x1="3727.72" y1="1448.17" x2="3773.39" y2="1448.17" style="stroke:#303030;stroke-width:6.48"/>
	<line x1="3773.39" y1="1448.17" x2="3773.39" y2="1448.17" style="stroke:#303030;stroke-width:6.48"/>
	<path d="" stroke-linecap="round" stroke-linejoin="round" style="fill:none;stroke:#303030;stroke-width:6.48"/>
	<path d=" M3636.39 1222.94 L3773.39 1222.94 L3773.39 1222.94" stroke-linecap="round" stroke-linejoin="round" style="fill:none;stroke:#000000;stroke-width:6.48"/>
	<path d=" M3773.39 1966.08" stroke-linecap="round" stroke-linejoin="round" style="fill:none;stroke:#938DD2;stroke-width:6.48"/>
	<line x1="2459.04" y1="2013.48" x2="2459.04" y2="414.45" style="stroke:#000000;stroke-width:4.32"/>
	<line x1="2459.04" y1="1965.95" x2="2429.09" y2="1965.95" style="stroke:#000000;stroke-width:4.32"/>
	<text x="2413.99" y="1992.23" style="font-family:'Helvetica';font-size:74.99px;fill:#000000" text-anchor="end">0.000</text>
	<line x1="2459.04" y1="1589.99" x2="2429.09" y2="1589.99" style="stroke:#000000;stroke-width:4.32"/>
	<text x="2413.99" y="1616.27" style="font-family:'Helvetica';font-size:74.99px;fill:#000000" text-anchor="end">0.002</text>
	<line x1="2459.04" y1="1214.03" x2="2429.09" y2="1214.03" style="stroke:#000000;stroke-width:4.32"/>
	<text x="2413.99" y="1240.30" style="font-family:'Helvetica';font-size:74.99px;fill:#000000" text-anchor="end">0.004</text>
	<line x1="2459.04" y1="837.94" x2="2429.09" y2="837.94" style="stroke:#000000;stroke-width:4.32"/>
	<text x="2413.99" y="864.22" style="font-family:'Helvetica';font-size:74.99px;fill:#000000" text-anchor="end">0.006</text>
	<line x1="2459.04" y1="461.97" x2="2429.09" y2="461.97" style="stroke:#000000;stroke-width:4.32"/>
	<text x="2413.99" y="488.25" style="font-family:'Helvetica';font-size:74.99px;fill:#000000" text-anchor="end">0.008</text>
	<line x1="2459.04" y1="2013.48" x2="3820.91" y2="2013.48" style="stroke:#000000;stroke-width:4.32"/>
	<line x1="2506.56" y1="2013.48" x2="2506.56" y2="2043.55" style="stroke:#000000;stroke-width:4.32"/>
	<text x="2506.56" y="2110.96" style="font-family:'Helvetica';font-size:74.99px;fill:#000000" text-anchor="middle">1 Feb 20</text>
	<line x1="2837.59" y1="2013.48" x2="2837.59" y2="2043.55" style="stroke:#000000;stroke-width:4.32"/>
	<text x="2837.59" y="2110.96" style="font-family:'Helvetica';font-size:74.99px;fill:#000000" text-anchor="middle">1 Mar 20</text>
	<line x1="3191.39" y1="2013.48" x2="3191.39" y2="2043.55" style="stroke:#000000;stroke-width:4.32"/>
	<text x="3191.39" y="2110.96" style="font-family:'Helvetica';font-size:74.99px;fill:#000000" text-anchor="middle">1 Apr 20</text>
	<line x1="3545.19" y1="2013.48" x2="3545.19" y2="2043.55" style="stroke:#000000;stroke-width:4.32"/>
	<text x="3545.19" y="2110.96" style="font-family:'Helvetica';font-size:74.99px;fill:#000000" text-anchor="middle">1 May 20</text>
	<text x="3140.03" y="2193.38" style="font-family:'Helvetica';font-size:74.99px;fill:#000000" text-anchor="middle"> </text>
	<text x="3140.03" y="369.91" style="font-family:'Helvetica';font-size:104.94px;fill:#1E2D53" text-anchor="middle">Male</text>
	<text x="150.62" y="1257.22" style="font-family:'Helvetica';font-size:99.99px;fill:#000000" transform="rotate(-90 150.62,1257.22)" text-anchor="middle">Cumulative probability</text>
	<text x="250.61" y="1257.22" style="font-family:'Helvetica';font-size:99.99px;fill:#000000" transform="rotate(-90 250.61,1257.22)" text-anchor="middle">of COVID-19 death/ICU admi.</text>
	<text x="2097.19" y="157.51" style="font-family:'Helvetica';font-size:110.01px;fill:#000000" text-anchor="middle"> </text>
	<rect x="867.12" y="2341.18" width="2460.27" height="440.94" style="fill:#FFFFFF"/>
	<rect x="870.00" y="2344.06" width="2454.51" height="435.18" style="fill:none;stroke:#000000;stroke-width:5.76"/>
	<line x1="910.30" y1="2548.83" x2="913.15" y2="2548.83" style="stroke:#B0B0B0;stroke-width:8.64"/>
	<line x1="933.32" y1="2548.83" x2="936.17" y2="2548.83" style="stroke:#B0B0B0;stroke-width:8.64"/>
	<line x1="956.34" y1="2548.83" x2="959.19" y2="2548.83" style="stroke:#B0B0B0;stroke-width:8.64"/>
	<line x1="979.36" y1="2548.83" x2="982.20" y2="2548.83" style="stroke:#B0B0B0;stroke-width:8.64"/>
	<line x1="1002.38" y1="2548.83" x2="1005.35" y2="2548.83" style="stroke:#B0B0B0;stroke-width:8.64"/>
	<line x1="1025.52" y1="2548.83" x2="1028.36" y2="2548.83" style="stroke:#B0B0B0;stroke-width:8.64"/>
	<line x1="1048.53" y1="2548.83" x2="1051.38" y2="2548.83" style="stroke:#B0B0B0;stroke-width:8.64"/>
	<line x1="1071.55" y1="2548.83" x2="1074.40" y2="2548.83" style="stroke:#B0B0B0;stroke-width:8.64"/>
	<line x1="1094.57" y1="2548.83" x2="1097.41" y2="2548.83" style="stroke:#B0B0B0;stroke-width:8.64"/>
	<line x1="1117.59" y1="2548.83" x2="1120.43" y2="2548.83" style="stroke:#B0B0B0;stroke-width:8.64"/>
	<line x1="1140.60" y1="2548.83" x2="1143.45" y2="2548.83" style="stroke:#B0B0B0;stroke-width:8.64"/>
	<line x1="1163.62" y1="2548.83" x2="1166.47" y2="2548.83" style="stroke:#B0B0B0;stroke-width:8.64"/>
	<line x1="1186.64" y1="2548.83" x2="1189.48" y2="2548.83" style="stroke:#B0B0B0;stroke-width:8.64"/>
	<line x1="1209.66" y1="2548.83" x2="1212.50" y2="2548.83" style="stroke:#B0B0B0;stroke-width:8.64"/>
	<line x1="1232.67" y1="2548.83" x2="1235.52" y2="2548.83" style="stroke:#B0B0B0;stroke-width:8.64"/>
	<line x1="1255.69" y1="2548.83" x2="1258.66" y2="2548.83" style="stroke:#B0B0B0;stroke-width:8.64"/>
	<line x1="1278.83" y1="2548.83" x2="1281.68" y2="2548.83" style="stroke:#B0B0B0;stroke-width:8.64"/>
	<line x1="910.30" y1="2688.92" x2="933.32" y2="2688.92" style="stroke:#B0B0B0;stroke-width:8.64"/>
	<line x1="953.49" y1="2688.92" x2="976.51" y2="2688.92" style="stroke:#B0B0B0;stroke-width:8.64"/>
	<line x1="996.68" y1="2688.92" x2="1019.70" y2="2688.92" style="stroke:#B0B0B0;stroke-width:8.64"/>
	<line x1="1039.87" y1="2688.92" x2="1062.89" y2="2688.92" style="stroke:#B0B0B0;stroke-width:8.64"/>
	<line x1="1083.06" y1="2688.92" x2="1106.08" y2="2688.92" style="stroke:#B0B0B0;stroke-width:8.64"/>
	<line x1="1126.25" y1="2688.92" x2="1149.27" y2="2688.92" style="stroke:#B0B0B0;stroke-width:8.64"/>
	<line x1="1169.44" y1="2688.92" x2="1192.45" y2="2688.92" style="stroke:#B0B0B0;stroke-width:8.64"/>
	<line x1="1212.63" y1="2688.92" x2="1235.64" y2="2688.92" style="stroke:#B0B0B0;stroke-width:8.64"/>
	<line x1="1255.82" y1="2688.92" x2="1278.96" y2="2688.92" style="stroke:#B0B0B0;stroke-width:8.64"/>
	<line x1="1748.22" y1="2548.83" x2="1771.23" y2="2548.83" style="stroke:#909090;stroke-width:8.64"/>
	<line x1="1794.25" y1="2548.83" x2="1797.22" y2="2548.83" style="stroke:#909090;stroke-width:8.64"/>
	<line x1="1820.24" y1="2548.83" x2="1843.26" y2="2548.83" style="stroke:#909090;stroke-width:8.64"/>
	<line x1="1866.27" y1="2548.83" x2="1869.12" y2="2548.83" style="stroke:#909090;stroke-width:8.64"/>
	<line x1="1892.26" y1="2548.83" x2="1915.28" y2="2548.83" style="stroke:#909090;stroke-width:8.64"/>
	<line x1="1938.30" y1="2548.83" x2="1941.14" y2="2548.83" style="stroke:#909090;stroke-width:8.64"/>
	<line x1="1964.16" y1="2548.83" x2="1987.30" y2="2548.83" style="stroke:#909090;stroke-width:8.64"/>
	<line x1="2010.32" y1="2548.83" x2="2013.16" y2="2548.83" style="stroke:#909090;stroke-width:8.64"/>
	<line x1="2036.18" y1="2548.83" x2="2059.20" y2="2548.83" style="stroke:#909090;stroke-width:8.64"/>
	<line x1="2082.34" y1="2548.83" x2="2085.19" y2="2548.83" style="stroke:#909090;stroke-width:8.64"/>
	<line x1="2108.20" y1="2548.83" x2="2122.56" y2="2548.83" style="stroke:#909090;stroke-width:8.64"/>
	<line x1="1748.22" y1="2688.92" x2="1863.43" y2="2688.92" style="stroke:#606060;stroke-width:8.64"/>
	<line x1="1892.26" y1="2688.92" x2="2007.47" y2="2688.92" style="stroke:#606060;stroke-width:8.64"/>
	<line x1="2036.18" y1="2688.92" x2="2122.56" y2="2688.92" style="stroke:#606060;stroke-width:8.64"/>
	<line x1="2586.25" y1="2548.83" x2="2701.46" y2="2548.83" style="stroke:#303030;stroke-width:8.64"/>
	<line x1="2730.30" y1="2548.83" x2="2733.14" y2="2548.83" style="stroke:#303030;stroke-width:8.64"/>
	<line x1="2761.98" y1="2548.83" x2="2877.19" y2="2548.83" style="stroke:#303030;stroke-width:8.64"/>
	<line x1="2906.02" y1="2548.83" x2="2908.87" y2="2548.83" style="stroke:#303030;stroke-width:8.64"/>
	<line x1="2937.70" y1="2548.83" x2="2960.59" y2="2548.83" style="stroke:#303030;stroke-width:8.64"/>
	<line x1="2586.25" y1="2688.92" x2="2960.59" y2="2688.92" style="stroke:#000000;stroke-width:8.64"/>
	<text x="1344.67" y="2576.85" style="font-family:'Helvetica';font-size:79.94px;fill:#000000">18-&lt;40</text>
	<text x="1344.67" y="2716.94" style="font-family:'Helvetica';font-size:79.94px;fill:#000000">40-&lt;50</text>
	<text x="2182.58" y="2576.85" style="font-family:'Helvetica';font-size:79.94px;fill:#000000">50-&lt;60</text>
	<text x="2182.58" y="2716.94" style="font-family:'Helvetica';font-size:79.94px;fill:#000000">60-&lt;70</text>
	<text x="3020.61" y="2576.85" style="font-family:'Helvetica';font-size:79.94px;fill:#000000">70-&lt;80</text>
	<text x="3020.61" y="2716.94" style="font-family:'Helvetica';font-size:79.94px;fill:#000000">80+</text>
	<text x="2097.19" y="2448.93" style="font-family:'Helvetica';font-size:79.94px;fill:#000000" text-anchor="middle">Age group</text>
</svg>
