<?xml version="1.0" encoding="UTF-8" standalone="no"?>
<!-- This is a Stata 15.1 generated SVG file (http://www.stata.com) -->

<svg version="1.1" width="5.50in" height="4.00in" viewBox="0 0 3960 2880" xmlns="http://www.w3.org/2000/svg" xmlns:xlink="http://www.w3.org/1999/xlink">
	<desc>Stata Graph - Graph</desc>
	<rect x="0" y="0" width="3960" height="2880" style="fill:#EAF2F3;stroke:none"/>
	<rect x="0.00" y="0.00" width="3959.88" height="2880.00" style="fill:#EAF2F3"/>
	<rect x="2.88" y="2.88" width="3954.12" height="2874.24" style="fill:none;stroke:#EAF2F3;stroke-width:5.76"/>
	<rect x="297.87" y="207.91" width="1799.32" height="2098.62" style="fill:#EAF2F3"/>
	<rect x="300.03" y="210.07" width="1795.01" height="2094.30" style="fill:none;stroke:#EAF2F3;stroke-width:4.32"/>
	<rect x="659.71" y="414.45" width="1361.87" height="1599.02" style="fill:#FFFFFF"/>
	<rect x="661.87" y="416.61" width="1357.55" height="1594.70" style="fill:none;stroke:#FFFFFF;stroke-width:4.32"/>
	<line x1="659.71" y1="1965.95" x2="2021.58" y2="1965.95" style="stroke:#EAF2F3;stroke-width:6.48"/>
	<line x1="659.71" y1="1959.27" x2="2021.58" y2="1959.27" style="stroke:#EAF2F3;stroke-width:6.48"/>
	<line x1="659.71" y1="1952.71" x2="2021.58" y2="1952.71" style="stroke:#EAF2F3;stroke-width:6.48"/>
	<line x1="659.71" y1="1946.03" x2="2021.58" y2="1946.03" style="stroke:#EAF2F3;stroke-width:6.48"/>
	<line x1="659.71" y1="1939.47" x2="2021.58" y2="1939.47" style="stroke:#EAF2F3;stroke-width:6.48"/>
	<line x1="659.71" y1="1932.79" x2="2021.58" y2="1932.79" style="stroke:#EAF2F3;stroke-width:6.48"/>
	<path d=" M837.66 1676.74 L1107.69 1676.74 L1107.69 1321.69 L1396.52 1321.69 L1396.52 1098.19 L1675.95 1098.19 L1675.95 716.91 L1964.78 716.91 L1964.78 506.52 L1974.06 506.52 L1974.06 506.52" stroke-linecap="round" stroke-linejoin="round" style="fill:none;stroke:#FF0000;stroke-width:6.48"/>
	<path d=" M837.66 1767.82 L1051.88 1767.82 L1051.88 1767.82 L1107.69 1767.82 L1107.69 1535.91 L1396.52 1535.91 L1396.52 1337.28 L1675.95 1337.28 L1675.95 1022.58 L1964.78 1022.58 L1964.78 823.83 L1974.06 823.83 L1974.06 823.83" stroke-linecap="round" stroke-linejoin="round" style="fill:none;stroke:#0000FF;stroke-width:6.48"/>
	<line x1="837.66" y1="1797.65" x2="895.21" y2="1797.65" style="stroke:#FF7F00;stroke-width:6.48"/>
	<line x1="924.04" y1="1797.65" x2="981.71" y2="1797.65" style="stroke:#FF7F00;stroke-width:6.48"/>
	<line x1="1010.42" y1="1797.65" x2="1068.09" y2="1797.65" style="stroke:#FF7F00;stroke-width:6.48"/>
	<line x1="1096.92" y1="1797.65" x2="1107.69" y2="1797.65" style="stroke:#FF7F00;stroke-width:6.48"/>
	<line x1="1107.69" y1="1797.65" x2="1107.69" y2="1750.99" style="stroke:#FF7F00;stroke-width:6.48"/>
	<line x1="1107.69" y1="1722.16" x2="1107.69" y2="1664.49" style="stroke:#FF7F00;stroke-width:6.48"/>
	<line x1="1107.69" y1="1635.78" x2="1107.69" y2="1578.11" style="stroke:#FF7F00;stroke-width:6.48"/>
	<line x1="1112.76" y1="1554.47" x2="1170.43" y2="1554.47" style="stroke:#FF7F00;stroke-width:6.48"/>
	<line x1="1199.26" y1="1554.47" x2="1256.81" y2="1554.47" style="stroke:#FF7F00;stroke-width:6.48"/>
	<line x1="1285.64" y1="1554.47" x2="1343.18" y2="1554.47" style="stroke:#FF7F00;stroke-width:6.48"/>
	<line x1="1372.02" y1="1554.47" x2="1396.52" y2="1554.47" style="stroke:#FF7F00;stroke-width:6.48"/>
	<line x1="1396.52" y1="1554.47" x2="1396.52" y2="1521.43" style="stroke:#FF7F00;stroke-width:6.48"/>
	<line x1="1396.52" y1="1492.60" x2="1396.52" y2="1435.05" style="stroke:#FF7F00;stroke-width:6.48"/>
	<line x1="1396.52" y1="1406.22" x2="1396.52" y2="1348.67" style="stroke:#FF7F00;stroke-width:6.48"/>
	<line x1="1396.52" y1="1319.83" x2="1396.52" y2="1273.06" style="stroke:#FF7F00;stroke-width:6.48"/>
	<line x1="1396.52" y1="1273.06" x2="1407.29" y2="1273.06" style="stroke:#FF7F00;stroke-width:6.48"/>
	<line x1="1436.12" y1="1273.06" x2="1493.66" y2="1273.06" style="stroke:#FF7F00;stroke-width:6.48"/>
	<line x1="1522.50" y1="1273.06" x2="1580.04" y2="1273.06" style="stroke:#FF7F00;stroke-width:6.48"/>
	<line x1="1608.87" y1="1273.06" x2="1666.54" y2="1273.06" style="stroke:#FF7F00;stroke-width:6.48"/>
	<line x1="1675.95" y1="1253.63" x2="1675.95" y2="1196.08" style="stroke:#FF7F00;stroke-width:6.48"/>
	<line x1="1675.95" y1="1167.25" x2="1675.95" y2="1109.70" style="stroke:#FF7F00;stroke-width:6.48"/>
	<line x1="1675.95" y1="1080.87" x2="1675.95" y2="1066.76" style="stroke:#FF7F00;stroke-width:6.48"/>
	<line x1="1675.95" y1="1066.76" x2="1719.38" y2="1066.76" style="stroke:#FF7F00;stroke-width:6.48"/>
	<line x1="1748.22" y1="1066.76" x2="1805.76" y2="1066.76" style="stroke:#FF7F00;stroke-width:6.48"/>
	<line x1="1834.59" y1="1066.76" x2="1892.14" y2="1066.76" style="stroke:#FF7F00;stroke-width:6.48"/>
	<line x1="1920.97" y1="1066.76" x2="1964.78" y2="1066.76" style="stroke:#FF7F00;stroke-width:6.48"/>
	<line x1="1964.78" y1="1066.76" x2="1964.78" y2="1053.02" style="stroke:#FF7F00;stroke-width:6.48"/>
	<line x1="1964.78" y1="1024.19" x2="1964.78" y2="966.64" style="stroke:#FF7F00;stroke-width:6.48"/>
	<line x1="1964.78" y1="937.81" x2="1964.78" y2="880.14" style="stroke:#FF7F00;stroke-width:6.48"/>
	<line x1="1964.78" y1="851.43" x2="1964.78" y2="793.76" style="stroke:#FF7F00;stroke-width:6.48"/>
	<line x1="1966.26" y1="766.53" x2="1974.06" y2="766.53" style="stroke:#FF7F00;stroke-width:6.48"/>
	<line x1="1974.06" y1="766.53" x2="1974.06" y2="766.53" style="stroke:#FF7F00;stroke-width:6.48"/>
	<path d="" stroke-linecap="round" stroke-linejoin="round" style="fill:none;stroke:#FF7F00;stroke-width:6.48"/>
	<line x1="837.66" y1="1746.29" x2="895.21" y2="1746.29" style="stroke:#008000;stroke-width:6.48"/>
	<line x1="924.04" y1="1746.29" x2="981.71" y2="1746.29" style="stroke:#008000;stroke-width:6.48"/>
	<line x1="1010.42" y1="1746.29" x2="1068.09" y2="1746.29" style="stroke:#008000;stroke-width:6.48"/>
	<line x1="1096.92" y1="1746.29" x2="1107.69" y2="1746.29" style="stroke:#008000;stroke-width:6.48"/>
	<line x1="1107.69" y1="1746.29" x2="1107.69" y2="1699.64" style="stroke:#008000;stroke-width:6.48"/>
	<line x1="1107.69" y1="1670.80" x2="1107.69" y2="1613.13" style="stroke:#008000;stroke-width:6.48"/>
	<line x1="1107.69" y1="1584.42" x2="1107.69" y2="1542.22" style="stroke:#008000;stroke-width:6.48"/>
	<line x1="1107.69" y1="1542.22" x2="1123.15" y2="1542.22" style="stroke:#008000;stroke-width:6.48"/>
	<line x1="1151.99" y1="1542.22" x2="1209.53" y2="1542.22" style="stroke:#008000;stroke-width:6.48"/>
	<line x1="1238.37" y1="1542.22" x2="1295.91" y2="1542.22" style="stroke:#008000;stroke-width:6.48"/>
	<line x1="1324.74" y1="1542.22" x2="1382.29" y2="1542.22" style="stroke:#008000;stroke-width:6.48"/>
	<line x1="1396.52" y1="1527.62" x2="1396.52" y2="1470.07" style="stroke:#008000;stroke-width:6.48"/>
	<line x1="1396.52" y1="1441.24" x2="1396.52" y2="1383.69" style="stroke:#008000;stroke-width:6.48"/>
	<line x1="1396.52" y1="1354.86" x2="1396.52" y2="1297.31" style="stroke:#008000;stroke-width:6.48"/>
	<line x1="1396.52" y1="1268.48" x2="1396.52" y2="1258.95" style="stroke:#008000;stroke-width:6.48"/>
	<line x1="1396.52" y1="1258.95" x2="1444.66" y2="1258.95" style="stroke:#008000;stroke-width:6.48"/>
	<line x1="1473.37" y1="1258.95" x2="1531.04" y2="1258.95" style="stroke:#008000;stroke-width:6.48"/>
	<line x1="1559.87" y1="1258.95" x2="1617.41" y2="1258.95" style="stroke:#008000;stroke-width:6.48"/>
	<line x1="1646.25" y1="1258.95" x2="1675.95" y2="1258.95" style="stroke:#008000;stroke-width:6.48"/>
	<line x1="1675.95" y1="1258.95" x2="1675.95" y2="1231.10" style="stroke:#008000;stroke-width:6.48"/>
	<line x1="1675.95" y1="1202.27" x2="1675.95" y2="1144.72" style="stroke:#008000;stroke-width:6.48"/>
	<line x1="1675.95" y1="1115.89" x2="1675.95" y2="1058.34" style="stroke:#008000;stroke-width:6.48"/>
	<line x1="1700.70" y1="1054.26" x2="1758.24" y2="1054.26" style="stroke:#008000;stroke-width:6.48"/>
	<line x1="1787.07" y1="1054.26" x2="1844.62" y2="1054.26" style="stroke:#008000;stroke-width:6.48"/>
	<line x1="1873.45" y1="1054.26" x2="1930.99" y2="1054.26" style="stroke:#008000;stroke-width:6.48"/>
	<line x1="1959.83" y1="1054.26" x2="1964.78" y2="1054.26" style="stroke:#008000;stroke-width:6.48"/>
	<line x1="1964.78" y1="1054.26" x2="1964.78" y2="1001.66" style="stroke:#008000;stroke-width:6.48"/>
	<line x1="1964.78" y1="972.83" x2="1964.78" y2="915.28" style="stroke:#008000;stroke-width:6.48"/>
	<line x1="1964.78" y1="886.45" x2="1964.78" y2="849.69" style="stroke:#008000;stroke-width:6.48"/>
	<line x1="1964.78" y1="849.69" x2="1974.06" y2="849.69" style="stroke:#008000;stroke-width:6.48"/>
	<line x1="1974.06" y1="849.69" x2="1974.06" y2="849.69" style="stroke:#008000;stroke-width:6.48"/>
	<path d="" stroke-linecap="round" stroke-linejoin="round" style="fill:none;stroke:#008000;stroke-width:6.48"/>
	<line x1="837.66" y1="1794.80" x2="895.21" y2="1794.80" style="stroke:#FF0080;stroke-width:6.48"/>
	<line x1="921.20" y1="1794.80" x2="924.04" y2="1794.80" style="stroke:#FF0080;stroke-width:6.48"/>
	<line x1="950.03" y1="1794.80" x2="1007.57" y2="1794.80" style="stroke:#FF0080;stroke-width:6.48"/>
	<line x1="1033.56" y1="1794.80" x2="1036.41" y2="1794.80" style="stroke:#FF0080;stroke-width:6.48"/>
	<line x1="1062.39" y1="1794.80" x2="1107.69" y2="1794.80" style="stroke:#FF0080;stroke-width:6.48"/>
	<line x1="1107.69" y1="1794.80" x2="1107.69" y2="1782.55" style="stroke:#FF0080;stroke-width:6.48"/>
	<line x1="1107.69" y1="1756.56" x2="1107.69" y2="1753.72" style="stroke:#FF0080;stroke-width:6.48"/>
	<line x1="1107.69" y1="1727.73" x2="1107.69" y2="1670.18" style="stroke:#FF0080;stroke-width:6.48"/>
	<line x1="1107.69" y1="1644.32" x2="1107.69" y2="1641.35" style="stroke:#FF0080;stroke-width:6.48"/>
	<line x1="1107.69" y1="1615.48" x2="1107.69" y2="1557.81" style="stroke:#FF0080;stroke-width:6.48"/>
	<line x1="1107.69" y1="1531.95" x2="1107.69" y2="1529.10" style="stroke:#FF0080;stroke-width:6.48"/>
	<line x1="1132.93" y1="1528.36" x2="1190.60" y2="1528.36" style="stroke:#FF0080;stroke-width:6.48"/>
	<line x1="1216.46" y1="1528.36" x2="1219.43" y2="1528.36" style="stroke:#FF0080;stroke-width:6.48"/>
	<line x1="1245.30" y1="1528.36" x2="1302.84" y2="1528.36" style="stroke:#FF0080;stroke-width:6.48"/>
	<line x1="1328.83" y1="1528.36" x2="1331.67" y2="1528.36" style="stroke:#FF0080;stroke-width:6.48"/>
	<line x1="1357.66" y1="1528.36" x2="1396.52" y2="1528.36" style="stroke:#FF0080;stroke-width:6.48"/>
	<line x1="1396.52" y1="1528.36" x2="1396.52" y2="1509.67" style="stroke:#FF0080;stroke-width:6.48"/>
	<line x1="1396.52" y1="1483.69" x2="1396.52" y2="1480.84" style="stroke:#FF0080;stroke-width:6.48"/>
	<line x1="1396.52" y1="1454.85" x2="1396.52" y2="1397.30" style="stroke:#FF0080;stroke-width:6.48"/>
	<line x1="1396.52" y1="1371.32" x2="1396.52" y2="1368.47" style="stroke:#FF0080;stroke-width:6.48"/>
	<line x1="1396.52" y1="1342.61" x2="1396.52" y2="1284.94" style="stroke:#FF0080;stroke-width:6.48"/>
	<line x1="1418.55" y1="1281.10" x2="1421.52" y2="1281.10" style="stroke:#FF0080;stroke-width:6.48"/>
	<line x1="1447.38" y1="1281.10" x2="1504.92" y2="1281.10" style="stroke:#FF0080;stroke-width:6.48"/>
	<line x1="1530.91" y1="1281.10" x2="1533.76" y2="1281.10" style="stroke:#FF0080;stroke-width:6.48"/>
	<line x1="1559.74" y1="1281.10" x2="1617.29" y2="1281.10" style="stroke:#FF0080;stroke-width:6.48"/>
	<line x1="1638.70" y1="1276.52" x2="1638.70" y2="1273.67" style="stroke:#FF0080;stroke-width:6.48"/>
	<line x1="1653.05" y1="1262.04" x2="1675.95" y2="1262.04" style="stroke:#FF0080;stroke-width:6.48"/>
	<line x1="1675.95" y1="1262.04" x2="1675.95" y2="1227.39" style="stroke:#FF0080;stroke-width:6.48"/>
	<line x1="1675.95" y1="1201.40" x2="1675.95" y2="1198.56" style="stroke:#FF0080;stroke-width:6.48"/>
	<line x1="1675.95" y1="1172.57" x2="1675.95" y2="1115.02" style="stroke:#FF0080;stroke-width:6.48"/>
	<line x1="1675.95" y1="1089.03" x2="1675.95" y2="1086.19" style="stroke:#FF0080;stroke-width:6.48"/>
	<line x1="1675.95" y1="1060.20" x2="1675.95" y2="1052.77" style="stroke:#FF0080;stroke-width:6.48"/>
	<line x1="1675.95" y1="1052.77" x2="1726.07" y2="1052.77" style="stroke:#FF0080;stroke-width:6.48"/>
	<line x1="1752.05" y1="1052.77" x2="1754.90" y2="1052.77" style="stroke:#FF0080;stroke-width:6.48"/>
	<line x1="1780.89" y1="1052.77" x2="1838.43" y2="1052.77" style="stroke:#FF0080;stroke-width:6.48"/>
	<line x1="1864.42" y1="1052.77" x2="1867.26" y2="1052.77" style="stroke:#FF0080;stroke-width:6.48"/>
	<line x1="1893.13" y1="1052.77" x2="1950.80" y2="1052.77" style="stroke:#FF0080;stroke-width:6.48"/>
	<line x1="1964.78" y1="1040.89" x2="1964.78" y2="1038.05" style="stroke:#FF0080;stroke-width:6.48"/>
	<line x1="1964.78" y1="1012.06" x2="1964.78" y2="954.51" style="stroke:#FF0080;stroke-width:6.48"/>
	<line x1="1964.78" y1="928.53" x2="1964.78" y2="925.68" style="stroke:#FF0080;stroke-width:6.48"/>
	<line x1="1964.78" y1="899.69" x2="1964.78" y2="842.15" style="stroke:#FF0080;stroke-width:6.48"/>
	<line x1="1973.07" y1="824.45" x2="1974.06" y2="824.45" style="stroke:#FF0080;stroke-width:6.48"/>
	<line x1="1974.06" y1="824.45" x2="1974.06" y2="824.45" style="stroke:#FF0080;stroke-width:6.48"/>
	<path d="" stroke-linecap="round" stroke-linejoin="round" style="fill:none;stroke:#FF0080;stroke-width:6.48"/>
	<line x1="837.66" y1="1653.85" x2="895.21" y2="1653.85" style="stroke:#A0522D;stroke-width:6.48"/>
	<line x1="921.20" y1="1653.85" x2="924.04" y2="1653.85" style="stroke:#A0522D;stroke-width:6.48"/>
	<line x1="950.03" y1="1653.85" x2="1007.57" y2="1653.85" style="stroke:#A0522D;stroke-width:6.48"/>
	<line x1="1033.56" y1="1653.85" x2="1036.41" y2="1653.85" style="stroke:#A0522D;stroke-width:6.48"/>
	<line x1="1062.39" y1="1653.85" x2="1107.69" y2="1653.85" style="stroke:#A0522D;stroke-width:6.48"/>
	<line x1="1107.69" y1="1653.85" x2="1107.69" y2="1641.60" style="stroke:#A0522D;stroke-width:6.48"/>
	<line x1="1107.69" y1="1615.61" x2="1107.69" y2="1612.76" style="stroke:#A0522D;stroke-width:6.48"/>
	<line x1="1107.69" y1="1586.77" x2="1107.69" y2="1529.23" style="stroke:#A0522D;stroke-width:6.48"/>
	<line x1="1107.69" y1="1503.24" x2="1107.69" y2="1500.39" style="stroke:#A0522D;stroke-width:6.48"/>
	<line x1="1107.69" y1="1474.40" x2="1107.69" y2="1426.88" style="stroke:#A0522D;stroke-width:6.48"/>
	<line x1="1107.69" y1="1426.88" x2="1117.71" y2="1426.88" style="stroke:#A0522D;stroke-width:6.48"/>
	<line x1="1143.70" y1="1426.88" x2="1146.54" y2="1426.88" style="stroke:#A0522D;stroke-width:6.48"/>
	<line x1="1172.41" y1="1426.88" x2="1230.08" y2="1426.88" style="stroke:#A0522D;stroke-width:6.48"/>
	<line x1="1255.94" y1="1426.88" x2="1258.91" y2="1426.88" style="stroke:#A0522D;stroke-width:6.48"/>
	<line x1="1284.77" y1="1426.88" x2="1342.44" y2="1426.88" style="stroke:#A0522D;stroke-width:6.48"/>
	<line x1="1368.30" y1="1426.88" x2="1371.15" y2="1426.88" style="stroke:#A0522D;stroke-width:6.48"/>
	<line x1="1396.52" y1="1426.26" x2="1396.52" y2="1368.72" style="stroke:#A0522D;stroke-width:6.48"/>
	<line x1="1396.52" y1="1342.73" x2="1396.52" y2="1339.88" style="stroke:#A0522D;stroke-width:6.48"/>
	<line x1="1396.52" y1="1313.89" x2="1396.52" y2="1256.35" style="stroke:#A0522D;stroke-width:6.48"/>
	<line x1="1396.52" y1="1230.36" x2="1396.52" y2="1227.51" style="stroke:#A0522D;stroke-width:6.48"/>
	<line x1="1396.52" y1="1201.53" x2="1396.52" y2="1143.98" style="stroke:#A0522D;stroke-width:6.48"/>
	<line x1="1396.52" y1="1117.99" x2="1396.52" y2="1115.15" style="stroke:#A0522D;stroke-width:6.48"/>
	<line x1="1396.52" y1="1089.28" x2="1396.52" y2="1031.61" style="stroke:#A0522D;stroke-width:6.48"/>
	<line x1="1420.53" y1="1029.63" x2="1423.37" y2="1029.63" style="stroke:#A0522D;stroke-width:6.48"/>
	<line x1="1449.36" y1="1029.63" x2="1506.90" y2="1029.63" style="stroke:#A0522D;stroke-width:6.48"/>
	<line x1="1532.77" y1="1029.63" x2="1535.74" y2="1029.63" style="stroke:#A0522D;stroke-width:6.48"/>
	<line x1="1561.60" y1="1029.63" x2="1619.27" y2="1029.63" style="stroke:#A0522D;stroke-width:6.48"/>
	<line x1="1645.13" y1="1029.63" x2="1647.98" y2="1029.63" style="stroke:#A0522D;stroke-width:6.48"/>
	<line x1="1673.97" y1="1029.63" x2="1675.95" y2="1029.63" style="stroke:#A0522D;stroke-width:6.48"/>
	<line x1="1675.95" y1="1029.63" x2="1675.95" y2="974.07" style="stroke:#A0522D;stroke-width:6.48"/>
	<line x1="1675.95" y1="948.08" x2="1675.95" y2="945.23" style="stroke:#A0522D;stroke-width:6.48"/>
	<line x1="1675.95" y1="919.24" x2="1675.95" y2="861.70" style="stroke:#A0522D;stroke-width:6.48"/>
	<line x1="1675.95" y1="835.71" x2="1675.95" y2="832.86" style="stroke:#A0522D;stroke-width:6.48"/>
	<line x1="1675.95" y1="806.88" x2="1675.95" y2="774.20" style="stroke:#A0522D;stroke-width:6.48"/>
	<line x1="1675.95" y1="774.20" x2="1700.82" y2="774.20" style="stroke:#A0522D;stroke-width:6.48"/>
	<line x1="1726.68" y1="774.20" x2="1729.65" y2="774.20" style="stroke:#A0522D;stroke-width:6.48"/>
	<line x1="1755.52" y1="774.20" x2="1813.18" y2="774.20" style="stroke:#A0522D;stroke-width:6.48"/>
	<line x1="1839.05" y1="774.20" x2="1841.89" y2="774.20" style="stroke:#A0522D;stroke-width:6.48"/>
	<line x1="1867.88" y1="774.20" x2="1925.43" y2="774.20" style="stroke:#A0522D;stroke-width:6.48"/>
	<line x1="1951.41" y1="774.20" x2="1954.26" y2="774.20" style="stroke:#A0522D;stroke-width:6.48"/>
	<line x1="1964.78" y1="758.73" x2="1964.78" y2="701.19" style="stroke:#A0522D;stroke-width:6.48"/>
	<line x1="1964.78" y1="675.20" x2="1964.78" y2="672.35" style="stroke:#A0522D;stroke-width:6.48"/>
	<line x1="1964.78" y1="646.37" x2="1964.78" y2="588.82" style="stroke:#A0522D;stroke-width:6.48"/>
	<line x1="1964.78" y1="562.83" x2="1964.78" y2="559.99" style="stroke:#A0522D;stroke-width:6.48"/>
	<line x1="1964.78" y1="534.00" x2="1964.78" y2="476.45" style="stroke:#A0522D;stroke-width:6.48"/>
	<path d="" stroke-linecap="round" stroke-linejoin="round" style="fill:none;stroke:#A0522D;stroke-width:6.48"/>
	<path d=" M837.66 1840.72 L1107.69 1840.72 L1107.69 1673.65 L1396.52 1673.65 L1396.52 1631.94 L1675.95 1631.94 L1675.95 1214.27 L1964.78 1214.27 L1964.78 963.67 L1974.06 963.67 L1974.06 963.67" stroke-linecap="round" stroke-linejoin="round" style="fill:none;stroke:#938DD2;stroke-width:6.48"/>
	<line x1="659.71" y1="2013.48" x2="659.71" y2="414.45" style="stroke:#000000;stroke-width:4.32"/>
	<line x1="659.71" y1="1965.95" x2="629.76" y2="1965.95" style="stroke:#000000;stroke-width:4.32"/>
	<text x="614.79" y="1992.23" style="font-family:'Helvetica';font-size:74.99px;fill:#000000" text-anchor="end">0.000</text>
	<line x1="659.71" y1="1959.27" x2="629.76" y2="1959.27" style="stroke:#000000;stroke-width:4.32"/>
	<text x="614.79" y="1985.55" style="font-family:'Helvetica';font-size:74.99px;fill:#000000" text-anchor="end">0.001</text>
	<line x1="659.71" y1="1952.71" x2="629.76" y2="1952.71" style="stroke:#000000;stroke-width:4.32"/>
	<text x="614.79" y="1978.99" style="font-family:'Helvetica';font-size:74.99px;fill:#000000" text-anchor="end">0.002</text>
	<line x1="659.71" y1="1946.03" x2="629.76" y2="1946.03" style="stroke:#000000;stroke-width:4.32"/>
	<text x="614.79" y="1972.31" style="font-family:'Helvetica';font-size:74.99px;fill:#000000" text-anchor="end">0.003</text>
	<line x1="659.71" y1="1939.47" x2="629.76" y2="1939.47" style="stroke:#000000;stroke-width:4.32"/>
	<text x="614.79" y="1965.75" style="font-family:'Helvetica';font-size:74.99px;fill:#000000" text-anchor="end">0.004</text>
	<line x1="659.71" y1="1932.79" x2="629.76" y2="1932.79" style="stroke:#000000;stroke-width:4.32"/>
	<text x="614.79" y="1959.07" style="font-family:'Helvetica';font-size:74.99px;fill:#000000" text-anchor="end">0.005</text>
	<line x1="659.71" y1="2013.48" x2="2021.58" y2="2013.48" style="stroke:#000000;stroke-width:4.32"/>
	<line x1="707.23" y1="2013.48" x2="707.23" y2="2043.55" style="stroke:#000000;stroke-width:4.32"/>
	<text x="707.23" y="2110.96" style="font-family:'Helvetica';font-size:74.99px;fill:#000000" text-anchor="middle">1 Feb 20</text>
	<line x1="977.38" y1="2013.48" x2="977.38" y2="2043.55" style="stroke:#000000;stroke-width:4.32"/>
	<text x="977.38" y="2110.96" style="font-family:'Helvetica';font-size:74.99px;fill:#000000" text-anchor="middle">1 Mar 20</text>
	<line x1="1266.21" y1="2013.48" x2="1266.21" y2="2043.55" style="stroke:#000000;stroke-width:4.32"/>
	<text x="1266.21" y="2110.96" style="font-family:'Helvetica';font-size:74.99px;fill:#000000" text-anchor="middle">1 Apr 20</text>
	<line x1="1489.70" y1="2013.48" x2="1489.70" y2="2043.55" style="stroke:#000000;stroke-width:4.32"/>
	<text x="1489.70" y="2110.96" style="font-family:'Helvetica';font-size:74.99px;fill:#000000" text-anchor="middle">25 Apr 20</text>
	<text x="1340.71" y="2193.38" style="font-family:'Helvetica';font-size:74.99px;fill:#000000" text-anchor="middle"> </text>
	<text x="1340.71" y="369.91" style="font-family:'Helvetica';font-size:104.94px;fill:#1E2D53" text-anchor="middle">Female</text>
	<rect x="2097.19" y="207.91" width="1799.33" height="2098.62" style="fill:#EAF2F3"/>
	<rect x="2099.35" y="210.07" width="1795.01" height="2094.30" style="fill:none;stroke:#EAF2F3;stroke-width:4.32"/>
	<rect x="2459.04" y="414.45" width="1361.87" height="1599.02" style="fill:#FFFFFF"/>
	<rect x="2461.20" y="416.61" width="1357.55" height="1594.70" style="fill:none;stroke:#FFFFFF;stroke-width:4.32"/>
	<line x1="2459.04" y1="1965.95" x2="3820.91" y2="1965.95" style="stroke:#EAF2F3;stroke-width:6.48"/>
	<line x1="2459.04" y1="1959.39" x2="3820.91" y2="1959.39" style="stroke:#EAF2F3;stroke-width:6.48"/>
	<line x1="2459.04" y1="1952.71" x2="3820.91" y2="1952.71" style="stroke:#EAF2F3;stroke-width:6.48"/>
	<line x1="2459.04" y1="1946.15" x2="3820.91" y2="1946.15" style="stroke:#EAF2F3;stroke-width:6.48"/>
	<line x1="2459.04" y1="1939.47" x2="3820.91" y2="1939.47" style="stroke:#EAF2F3;stroke-width:6.48"/>
	<line x1="2459.04" y1="1932.91" x2="3820.91" y2="1932.91" style="stroke:#EAF2F3;stroke-width:6.48"/>
	<path d=" M2636.86 1662.76 L2907.01 1662.76 L2907.01 1388.39 L2972.23 1388.39 L2972.23 1388.39 L3195.84 1388.39 L3195.84 1026.54 L3475.27 1026.54 L3475.27 737.08 L3763.98 737.08 L3763.98 461.97 L3773.39 461.97 L3773.39 461.97" stroke-linecap="round" stroke-linejoin="round" style="fill:none;stroke:#FF0000;stroke-width:6.48"/>
	<path d=" M2636.86 1694.07 L2907.01 1694.07 L2907.01 1268.97 L3195.84 1268.97 L3195.84 979.88 L3475.27 979.88 L3475.27 775.94 L3763.98 775.94 L3763.98 605.90 L3773.39 605.90 L3773.39 605.90" stroke-linecap="round" stroke-linejoin="round" style="fill:none;stroke:#0000FF;stroke-width:6.48"/>
	<line x1="2636.86" y1="1750.37" x2="2694.41" y2="1750.37" style="stroke:#FF7F00;stroke-width:6.48"/>
	<line x1="2723.24" y1="1750.37" x2="2780.79" y2="1750.37" style="stroke:#FF7F00;stroke-width:6.48"/>
	<line x1="2809.62" y1="1750.37" x2="2867.16" y2="1750.37" style="stroke:#FF7F00;stroke-width:6.48"/>
	<line x1="2896.00" y1="1750.37" x2="2907.01" y2="1750.37" style="stroke:#FF7F00;stroke-width:6.48"/>
	<line x1="2907.01" y1="1750.37" x2="2907.01" y2="1703.84" style="stroke:#FF7F00;stroke-width:6.48"/>
	<line x1="2907.01" y1="1675.01" x2="2907.01" y2="1617.34" style="stroke:#FF7F00;stroke-width:6.48"/>
	<line x1="2907.01" y1="1588.63" x2="2907.01" y2="1530.96" style="stroke:#FF7F00;stroke-width:6.48"/>
	<line x1="2907.01" y1="1502.12" x2="2907.01" y2="1462.77" style="stroke:#FF7F00;stroke-width:6.48"/>
	<line x1="2907.01" y1="1462.77" x2="2925.20" y2="1462.77" style="stroke:#FF7F00;stroke-width:6.48"/>
	<line x1="2954.04" y1="1462.77" x2="3011.58" y2="1462.77" style="stroke:#FF7F00;stroke-width:6.48"/>
	<line x1="3040.41" y1="1462.77" x2="3097.96" y2="1462.77" style="stroke:#FF7F00;stroke-width:6.48"/>
	<line x1="3126.79" y1="1462.77" x2="3184.34" y2="1462.77" style="stroke:#FF7F00;stroke-width:6.48"/>
	<line x1="3195.84" y1="1445.45" x2="3195.84" y2="1387.90" style="stroke:#FF7F00;stroke-width:6.48"/>
	<line x1="3195.84" y1="1359.06" x2="3195.84" y2="1301.52" style="stroke:#FF7F00;stroke-width:6.48"/>
	<line x1="3195.84" y1="1272.68" x2="3195.84" y2="1215.14" style="stroke:#FF7F00;stroke-width:6.48"/>
	<line x1="3202.77" y1="1193.23" x2="3260.32" y2="1193.23" style="stroke:#FF7F00;stroke-width:6.48"/>
	<line x1="3289.15" y1="1193.23" x2="3346.70" y2="1193.23" style="stroke:#FF7F00;stroke-width:6.48"/>
	<line x1="3375.53" y1="1193.23" x2="3433.20" y2="1193.23" style="stroke:#FF7F00;stroke-width:6.48"/>
	<line x1="3461.91" y1="1193.23" x2="3475.27" y2="1193.23" style="stroke:#FF7F00;stroke-width:6.48"/>
	<line x1="3475.27" y1="1193.23" x2="3475.27" y2="1149.05" style="stroke:#FF7F00;stroke-width:6.48"/>
	<line x1="3475.27" y1="1120.22" x2="3475.27" y2="1062.55" style="stroke:#FF7F00;stroke-width:6.48"/>
	<line x1="3475.27" y1="1033.84" x2="3475.27" y2="976.17" style="stroke:#FF7F00;stroke-width:6.48"/>
	<line x1="3475.27" y1="947.46" x2="3475.27" y2="889.79" style="stroke:#FF7F00;stroke-width:6.48"/>
	<line x1="3475.27" y1="860.96" x2="3475.27" y2="814.67" style="stroke:#FF7F00;stroke-width:6.48"/>
	<line x1="3475.27" y1="814.67" x2="3486.53" y2="814.67" style="stroke:#FF7F00;stroke-width:6.48"/>
	<line x1="3515.37" y1="814.67" x2="3572.91" y2="814.67" style="stroke:#FF7F00;stroke-width:6.48"/>
	<line x1="3601.74" y1="814.67" x2="3659.29" y2="814.67" style="stroke:#FF7F00;stroke-width:6.48"/>
	<line x1="3688.12" y1="814.67" x2="3745.66" y2="814.67" style="stroke:#FF7F00;stroke-width:6.48"/>
	<line x1="3763.98" y1="804.15" x2="3763.98" y2="746.61" style="stroke:#FF7F00;stroke-width:6.48"/>
	<line x1="3770.79" y1="724.58" x2="3773.39" y2="724.58" style="stroke:#FF7F00;stroke-width:6.48"/>
	<line x1="3773.39" y1="724.58" x2="3773.39" y2="724.58" style="stroke:#FF7F00;stroke-width:6.48"/>
	<path d="" stroke-linecap="round" stroke-linejoin="round" style="fill:none;stroke:#FF7F00;stroke-width:6.48"/>
	<line x1="2636.86" y1="1687.76" x2="2694.41" y2="1687.76" style="stroke:#008000;stroke-width:6.48"/>
	<line x1="2723.24" y1="1687.76" x2="2780.79" y2="1687.76" style="stroke:#008000;stroke-width:6.48"/>
	<line x1="2809.62" y1="1687.76" x2="2867.16" y2="1687.76" style="stroke:#008000;stroke-width:6.48"/>
	<line x1="2896.00" y1="1687.76" x2="2907.01" y2="1687.76" style="stroke:#008000;stroke-width:6.48"/>
	<line x1="2907.01" y1="1687.76" x2="2907.01" y2="1641.10" style="stroke:#008000;stroke-width:6.48"/>
	<line x1="2907.01" y1="1612.39" x2="2907.01" y2="1554.72" style="stroke:#008000;stroke-width:6.48"/>
	<line x1="2907.01" y1="1525.89" x2="2907.01" y2="1468.34" style="stroke:#008000;stroke-width:6.48"/>
	<line x1="2908.99" y1="1441.49" x2="2966.53" y2="1441.49" style="stroke:#008000;stroke-width:6.48"/>
	<line x1="2995.37" y1="1441.49" x2="3052.91" y2="1441.49" style="stroke:#008000;stroke-width:6.48"/>
	<line x1="3081.75" y1="1441.49" x2="3139.29" y2="1441.49" style="stroke:#008000;stroke-width:6.48"/>
	<line x1="3168.12" y1="1441.49" x2="3195.84" y2="1441.49" style="stroke:#008000;stroke-width:6.48"/>
	<line x1="3195.84" y1="1441.49" x2="3195.84" y2="1411.66" style="stroke:#008000;stroke-width:6.48"/>
	<line x1="3195.84" y1="1382.83" x2="3195.84" y2="1325.28" style="stroke:#008000;stroke-width:6.48"/>
	<line x1="3195.84" y1="1296.45" x2="3195.84" y2="1238.90" style="stroke:#008000;stroke-width:6.48"/>
	<line x1="3195.84" y1="1210.07" x2="3195.84" y2="1178.88" style="stroke:#008000;stroke-width:6.48"/>
	<line x1="3195.84" y1="1178.88" x2="3222.20" y2="1178.88" style="stroke:#008000;stroke-width:6.48"/>
	<line x1="3251.04" y1="1178.88" x2="3308.58" y2="1178.88" style="stroke:#008000;stroke-width:6.48"/>
	<line x1="3337.41" y1="1178.88" x2="3394.96" y2="1178.88" style="stroke:#008000;stroke-width:6.48"/>
	<line x1="3423.79" y1="1178.88" x2="3475.27" y2="1178.88" style="stroke:#008000;stroke-width:6.48"/>
	<line x1="3475.27" y1="1178.88" x2="3475.27" y2="1172.82" style="stroke:#008000;stroke-width:6.48"/>
	<line x1="3475.27" y1="1143.98" x2="3475.27" y2="1086.31" style="stroke:#008000;stroke-width:6.48"/>
	<line x1="3475.27" y1="1057.60" x2="3475.27" y2="999.93" style="stroke:#008000;stroke-width:6.48"/>
	<line x1="3475.27" y1="971.22" x2="3475.27" y2="965.53" style="stroke:#008000;stroke-width:6.48"/>
	<line x1="3475.27" y1="965.53" x2="3527.25" y2="965.53" style="stroke:#008000;stroke-width:6.48"/>
	<line x1="3556.08" y1="965.53" x2="3613.62" y2="965.53" style="stroke:#008000;stroke-width:6.48"/>
	<line x1="3642.46" y1="965.53" x2="3700.00" y2="965.53" style="stroke:#008000;stroke-width:6.48"/>
	<line x1="3728.84" y1="965.53" x2="3763.98" y2="965.53" style="stroke:#008000;stroke-width:6.48"/>
	<line x1="3763.98" y1="965.53" x2="3763.98" y2="943.13" style="stroke:#008000;stroke-width:6.48"/>
	<line x1="3763.98" y1="914.29" x2="3763.98" y2="856.75" style="stroke:#008000;stroke-width:6.48"/>
	<line x1="3763.98" y1="827.91" x2="3763.98" y2="770.37" style="stroke:#008000;stroke-width:6.48"/>
	<line x1="3763.98" y1="741.53" x2="3763.98" y2="702.92" style="stroke:#008000;stroke-width:6.48"/>
	<line x1="3763.98" y1="702.92" x2="3773.39" y2="702.92" style="stroke:#008000;stroke-width:6.48"/>
	<line x1="3773.39" y1="702.92" x2="3773.39" y2="702.92" style="stroke:#008000;stroke-width:6.48"/>
	<path d="" stroke-linecap="round" stroke-linejoin="round" style="fill:none;stroke:#008000;stroke-width:6.48"/>
	<line x1="2636.86" y1="1651.12" x2="2694.41" y2="1651.12" style="stroke:#FF0080;stroke-width:6.48"/>
	<line x1="2720.40" y1="1651.12" x2="2723.24" y2="1651.12" style="stroke:#FF0080;stroke-width:6.48"/>
	<line x1="2749.23" y1="1651.12" x2="2806.77" y2="1651.12" style="stroke:#FF0080;stroke-width:6.48"/>
	<line x1="2832.76" y1="1651.12" x2="2835.61" y2="1651.12" style="stroke:#FF0080;stroke-width:6.48"/>
	<line x1="2861.59" y1="1651.12" x2="2907.01" y2="1651.12" style="stroke:#FF0080;stroke-width:6.48"/>
	<line x1="2907.01" y1="1651.12" x2="2907.01" y2="1639.00" style="stroke:#FF0080;stroke-width:6.48"/>
	<line x1="2907.01" y1="1613.01" x2="2907.01" y2="1610.16" style="stroke:#FF0080;stroke-width:6.48"/>
	<line x1="2907.01" y1="1584.30" x2="2907.01" y2="1526.63" style="stroke:#FF0080;stroke-width:6.48"/>
	<line x1="2907.01" y1="1500.76" x2="2907.01" y2="1497.92" style="stroke:#FF0080;stroke-width:6.48"/>
	<line x1="2907.01" y1="1471.93" x2="2907.01" y2="1414.88" style="stroke:#FF0080;stroke-width:6.48"/>
	<line x1="2907.01" y1="1414.88" x2="2907.51" y2="1414.88" style="stroke:#FF0080;stroke-width:6.48"/>
	<line x1="2933.49" y1="1414.88" x2="2936.34" y2="1414.88" style="stroke:#FF0080;stroke-width:6.48"/>
	<line x1="2962.33" y1="1414.88" x2="3019.87" y2="1414.88" style="stroke:#FF0080;stroke-width:6.48"/>
	<line x1="3045.86" y1="1414.88" x2="3048.70" y2="1414.88" style="stroke:#FF0080;stroke-width:6.48"/>
	<line x1="3074.69" y1="1414.88" x2="3132.24" y2="1414.88" style="stroke:#FF0080;stroke-width:6.48"/>
	<line x1="3158.22" y1="1414.88" x2="3161.07" y2="1414.88" style="stroke:#FF0080;stroke-width:6.48"/>
	<line x1="3187.06" y1="1414.88" x2="3195.84" y2="1414.88" style="stroke:#FF0080;stroke-width:6.48"/>
	<line x1="3195.84" y1="1414.88" x2="3195.84" y2="1366.12" style="stroke:#FF0080;stroke-width:6.48"/>
	<line x1="3195.84" y1="1340.13" x2="3195.84" y2="1337.28" style="stroke:#FF0080;stroke-width:6.48"/>
	<line x1="3195.84" y1="1311.42" x2="3195.84" y2="1253.75" style="stroke:#FF0080;stroke-width:6.48"/>
	<line x1="3195.84" y1="1227.89" x2="3195.84" y2="1224.92" style="stroke:#FF0080;stroke-width:6.48"/>
	<line x1="3195.84" y1="1199.05" x2="3195.84" y2="1141.51" style="stroke:#FF0080;stroke-width:6.48"/>
	<line x1="3195.84" y1="1115.52" x2="3195.84" y2="1112.67" style="stroke:#FF0080;stroke-width:6.48"/>
	<line x1="3209.09" y1="1099.92" x2="3266.63" y2="1099.92" style="stroke:#FF0080;stroke-width:6.48"/>
	<line x1="3292.62" y1="1099.92" x2="3295.46" y2="1099.92" style="stroke:#FF0080;stroke-width:6.48"/>
	<line x1="3321.45" y1="1099.92" x2="3378.99" y2="1099.92" style="stroke:#FF0080;stroke-width:6.48"/>
	<line x1="3404.98" y1="1099.92" x2="3407.83" y2="1099.92" style="stroke:#FF0080;stroke-width:6.48"/>
	<line x1="3433.69" y1="1099.92" x2="3475.27" y2="1099.92" style="stroke:#FF0080;stroke-width:6.48"/>
	<line x1="3475.27" y1="1099.92" x2="3475.27" y2="1083.84" style="stroke:#FF0080;stroke-width:6.48"/>
	<line x1="3475.27" y1="1057.97" x2="3475.27" y2="1055.00" style="stroke:#FF0080;stroke-width:6.48"/>
	<line x1="3475.27" y1="1029.14" x2="3475.27" y2="971.47" style="stroke:#FF0080;stroke-width:6.48"/>
	<line x1="3475.27" y1="945.60" x2="3475.27" y2="942.76" style="stroke:#FF0080;stroke-width:6.48"/>
	<line x1="3481.34" y1="922.83" x2="3503.24" y2="922.83" style="stroke:#FF0080;stroke-width:6.48"/>
	<line x1="3503.24" y1="922.83" x2="3503.24" y2="903.16" style="stroke:#FF0080;stroke-width:6.48"/>
	<line x1="3503.24" y1="903.16" x2="3519.33" y2="903.16" style="stroke:#FF0080;stroke-width:6.48"/>
	<line x1="3545.19" y1="903.16" x2="3548.16" y2="903.16" style="stroke:#FF0080;stroke-width:6.48"/>
	<line x1="3574.02" y1="903.16" x2="3631.57" y2="903.16" style="stroke:#FF0080;stroke-width:6.48"/>
	<line x1="3657.55" y1="903.16" x2="3660.40" y2="903.16" style="stroke:#FF0080;stroke-width:6.48"/>
	<line x1="3686.39" y1="903.16" x2="3743.93" y2="903.16" style="stroke:#FF0080;stroke-width:6.48"/>
	<line x1="3763.98" y1="897.22" x2="3763.98" y2="894.37" style="stroke:#FF0080;stroke-width:6.48"/>
	<line x1="3763.98" y1="868.38" x2="3763.98" y2="810.84" style="stroke:#FF0080;stroke-width:6.48"/>
	<line x1="3763.98" y1="784.97" x2="3763.98" y2="782.00" style="stroke:#FF0080;stroke-width:6.48"/>
	<line x1="3763.98" y1="756.14" x2="3763.98" y2="706.26" style="stroke:#FF0080;stroke-width:6.48"/>
	<line x1="3763.98" y1="706.26" x2="3771.78" y2="706.26" style="stroke:#FF0080;stroke-width:6.48"/>
	<path d="" stroke-linecap="round" stroke-linejoin="round" style="fill:none;stroke:#FF0080;stroke-width:6.48"/>
	<line x1="2636.86" y1="1769.80" x2="2694.41" y2="1769.80" style="stroke:#A0522D;stroke-width:6.48"/>
	<line x1="2720.40" y1="1769.80" x2="2723.24" y2="1769.80" style="stroke:#A0522D;stroke-width:6.48"/>
	<line x1="2749.23" y1="1769.80" x2="2806.77" y2="1769.80" style="stroke:#A0522D;stroke-width:6.48"/>
	<line x1="2832.76" y1="1769.80" x2="2835.61" y2="1769.80" style="stroke:#A0522D;stroke-width:6.48"/>
	<line x1="2861.59" y1="1769.80" x2="2907.01" y2="1769.80" style="stroke:#A0522D;stroke-width:6.48"/>
	<line x1="2907.01" y1="1769.80" x2="2907.01" y2="1757.68" style="stroke:#A0522D;stroke-width:6.48"/>
	<line x1="2907.01" y1="1731.69" x2="2907.01" y2="1728.84" style="stroke:#A0522D;stroke-width:6.48"/>
	<line x1="2907.01" y1="1702.98" x2="2907.01" y2="1645.31" style="stroke:#A0522D;stroke-width:6.48"/>
	<line x1="2907.01" y1="1619.44" x2="2907.01" y2="1616.60" style="stroke:#A0522D;stroke-width:6.48"/>
	<line x1="2907.01" y1="1590.61" x2="2907.01" y2="1533.06" style="stroke:#A0522D;stroke-width:6.48"/>
	<line x1="2907.01" y1="1507.07" x2="2907.01" y2="1504.23" style="stroke:#A0522D;stroke-width:6.48"/>
	<line x1="2918.40" y1="1489.63" x2="2975.94" y2="1489.63" style="stroke:#A0522D;stroke-width:6.48"/>
	<line x1="3001.93" y1="1489.63" x2="3004.77" y2="1489.63" style="stroke:#A0522D;stroke-width:6.48"/>
	<line x1="3030.76" y1="1489.63" x2="3088.30" y2="1489.63" style="stroke:#A0522D;stroke-width:6.48"/>
	<line x1="3114.29" y1="1489.63" x2="3117.14" y2="1489.63" style="stroke:#A0522D;stroke-width:6.48"/>
	<line x1="3143.13" y1="1489.63" x2="3195.84" y2="1489.63" style="stroke:#A0522D;stroke-width:6.48"/>
	<line x1="3195.84" y1="1489.63" x2="3195.84" y2="1484.80" style="stroke:#A0522D;stroke-width:6.48"/>
	<line x1="3195.84" y1="1458.81" x2="3195.84" y2="1455.96" style="stroke:#A0522D;stroke-width:6.48"/>
	<line x1="3195.84" y1="1430.10" x2="3195.84" y2="1372.43" style="stroke:#A0522D;stroke-width:6.48"/>
	<line x1="3195.84" y1="1346.57" x2="3195.84" y2="1343.60" style="stroke:#A0522D;stroke-width:6.48"/>
	<line x1="3195.84" y1="1317.73" x2="3195.84" y2="1260.19" style="stroke:#A0522D;stroke-width:6.48"/>
	<line x1="3195.84" y1="1234.20" x2="3195.84" y2="1231.35" style="stroke:#A0522D;stroke-width:6.48"/>
	<line x1="3195.84" y1="1205.36" x2="3195.84" y2="1153.39" style="stroke:#A0522D;stroke-width:6.48"/>
	<line x1="3195.84" y1="1153.39" x2="3201.41" y2="1153.39" style="stroke:#A0522D;stroke-width:6.48"/>
	<line x1="3227.40" y1="1153.39" x2="3230.25" y2="1153.39" style="stroke:#A0522D;stroke-width:6.48"/>
	<line x1="3256.23" y1="1153.39" x2="3313.78" y2="1153.39" style="stroke:#A0522D;stroke-width:6.48"/>
	<line x1="3339.76" y1="1153.39" x2="3342.61" y2="1153.39" style="stroke:#A0522D;stroke-width:6.48"/>
	<line x1="3368.60" y1="1153.39" x2="3426.14" y2="1153.39" style="stroke:#A0522D;stroke-width:6.48"/>
	<line x1="3452.13" y1="1153.39" x2="3454.98" y2="1153.39" style="stroke:#A0522D;stroke-width:6.48"/>
	<line x1="3475.27" y1="1147.82" x2="3475.27" y2="1090.15" style="stroke:#A0522D;stroke-width:6.48"/>
	<line x1="3475.27" y1="1064.28" x2="3475.27" y2="1061.44" style="stroke:#A0522D;stroke-width:6.48"/>
	<line x1="3475.27" y1="1035.45" x2="3475.27" y2="977.90" style="stroke:#A0522D;stroke-width:6.48"/>
	<line x1="3480.47" y1="957.11" x2="3483.32" y2="957.11" style="stroke:#A0522D;stroke-width:6.48"/>
	<line x1="3509.30" y1="957.11" x2="3566.85" y2="957.11" style="stroke:#A0522D;stroke-width:6.48"/>
	<line x1="3592.83" y1="957.11" x2="3595.68" y2="957.11" style="stroke:#A0522D;stroke-width:6.48"/>
	<line x1="3621.67" y1="957.11" x2="3679.21" y2="957.11" style="stroke:#A0522D;stroke-width:6.48"/>
	<line x1="3705.20" y1="957.11" x2="3708.05" y2="957.11" style="stroke:#A0522D;stroke-width:6.48"/>
	<line x1="3734.03" y1="957.11" x2="3763.98" y2="957.11" style="stroke:#A0522D;stroke-width:6.48"/>
	<line x1="3763.98" y1="957.11" x2="3763.98" y2="929.52" style="stroke:#A0522D;stroke-width:6.48"/>
	<line x1="3763.98" y1="903.65" x2="3763.98" y2="900.68" style="stroke:#A0522D;stroke-width:6.48"/>
	<line x1="3763.98" y1="874.82" x2="3763.98" y2="817.15" style="stroke:#A0522D;stroke-width:6.48"/>
	<line x1="3763.98" y1="791.28" x2="3763.98" y2="788.44" style="stroke:#A0522D;stroke-width:6.48"/>
	<line x1="3763.98" y1="762.45" x2="3763.98" y2="731.88" style="stroke:#A0522D;stroke-width:6.48"/>
	<line x1="3763.98" y1="731.88" x2="3773.39" y2="731.88" style="stroke:#A0522D;stroke-width:6.48"/>
	<line x1="3773.39" y1="731.88" x2="3773.39" y2="731.88" style="stroke:#A0522D;stroke-width:6.48"/>
	<path d="" stroke-linecap="round" stroke-linejoin="round" style="fill:none;stroke:#A0522D;stroke-width:6.48"/>
	<path d=" M2636.86 1744.06 L2907.01 1744.06 L2907.01 1566.60 L3195.84 1566.60 L3195.84 1389.01 L3475.27 1389.01 L3475.27 1211.43 L3763.98 1211.43 L3763.98 945.11 L3773.39 945.11 L3773.39 945.11" stroke-linecap="round" stroke-linejoin="round" style="fill:none;stroke:#938DD2;stroke-width:6.48"/>
	<line x1="2459.04" y1="2013.48" x2="2459.04" y2="414.45" style="stroke:#000000;stroke-width:4.32"/>
	<line x1="2459.04" y1="1965.95" x2="2429.09" y2="1965.95" style="stroke:#000000;stroke-width:4.32"/>
	<text x="2413.99" y="1992.23" style="font-family:'Helvetica';font-size:74.99px;fill:#000000" text-anchor="end">0.000</text>
	<line x1="2459.04" y1="1959.39" x2="2429.09" y2="1959.39" style="stroke:#000000;stroke-width:4.32"/>
	<text x="2413.99" y="1985.67" style="font-family:'Helvetica';font-size:74.99px;fill:#000000" text-anchor="end">0.001</text>
	<line x1="2459.04" y1="1952.71" x2="2429.09" y2="1952.71" style="stroke:#000000;stroke-width:4.32"/>
	<text x="2413.99" y="1978.99" style="font-family:'Helvetica';font-size:74.99px;fill:#000000" text-anchor="end">0.002</text>
	<line x1="2459.04" y1="1946.15" x2="2429.09" y2="1946.15" style="stroke:#000000;stroke-width:4.32"/>
	<text x="2413.99" y="1972.43" style="font-family:'Helvetica';font-size:74.99px;fill:#000000" text-anchor="end">0.003</text>
	<line x1="2459.04" y1="1939.47" x2="2429.09" y2="1939.47" style="stroke:#000000;stroke-width:4.32"/>
	<text x="2413.99" y="1965.75" style="font-family:'Helvetica';font-size:74.99px;fill:#000000" text-anchor="end">0.004</text>
	<line x1="2459.04" y1="1932.91" x2="2429.09" y2="1932.91" style="stroke:#000000;stroke-width:4.32"/>
	<text x="2413.99" y="1959.19" style="font-family:'Helvetica';font-size:74.99px;fill:#000000" text-anchor="end">0.005</text>
	<line x1="2459.04" y1="2013.48" x2="3820.91" y2="2013.48" style="stroke:#000000;stroke-width:4.32"/>
	<line x1="2506.56" y1="2013.48" x2="2506.56" y2="2043.55" style="stroke:#000000;stroke-width:4.32"/>
	<text x="2506.56" y="2110.96" style="font-family:'Helvetica';font-size:74.99px;fill:#000000" text-anchor="middle">1 Feb 20</text>
	<line x1="2776.70" y1="2013.48" x2="2776.70" y2="2043.55" style="stroke:#000000;stroke-width:4.32"/>
	<text x="2776.70" y="2110.96" style="font-family:'Helvetica';font-size:74.99px;fill:#000000" text-anchor="middle">1 Mar 20</text>
	<line x1="3065.41" y1="2013.48" x2="3065.41" y2="2043.55" style="stroke:#000000;stroke-width:4.32"/>
	<text x="3065.41" y="2110.96" style="font-family:'Helvetica';font-size:74.99px;fill:#000000" text-anchor="middle">1 Apr 20</text>
	<line x1="3289.03" y1="2013.48" x2="3289.03" y2="2043.55" style="stroke:#000000;stroke-width:4.32"/>
	<text x="3289.03" y="2110.96" style="font-family:'Helvetica';font-size:74.99px;fill:#000000" text-anchor="middle">25 Apr 20</text>
	<text x="3140.03" y="2193.38" style="font-family:'Helvetica';font-size:74.99px;fill:#000000" text-anchor="middle">Days since 1 Feb 2020</text>
	<text x="3140.03" y="369.91" style="font-family:'Helvetica';font-size:104.94px;fill:#1E2D53" text-anchor="middle">Male</text>
	<text x="150.62" y="1257.22" style="font-family:'Helvetica';font-size:99.99px;fill:#000000" transform="rotate(-90 150.62,1257.22)" text-anchor="middle">Cumulative probability</text>
	<text x="250.61" y="1257.22" style="font-family:'Helvetica';font-size:99.99px;fill:#000000" transform="rotate(-90 250.61,1257.22)" text-anchor="middle">TPP Covid-19 case</text>
	<text x="2097.19" y="157.51" style="font-family:'Helvetica';font-size:110.01px;fill:#000000" text-anchor="middle"> </text>
	<rect x="867.12" y="2341.18" width="2460.27" height="440.94" style="fill:#FFFFFF"/>
	<rect x="870.00" y="2344.06" width="2454.51" height="435.18" style="fill:none;stroke:#000000;stroke-width:5.76"/>
	<line x1="910.30" y1="2548.83" x2="1284.65" y2="2548.83" style="stroke:#FF0000;stroke-width:8.64"/>
	<line x1="910.30" y1="2688.92" x2="1284.65" y2="2688.92" style="stroke:#0000FF;stroke-width:8.64"/>
	<line x1="1748.22" y1="2548.83" x2="1805.76" y2="2548.83" style="stroke:#FF7F00;stroke-width:8.64"/>
	<line x1="1834.59" y1="2548.83" x2="1892.14" y2="2548.83" style="stroke:#FF7F00;stroke-width:8.64"/>
	<line x1="1920.97" y1="2548.83" x2="1978.52" y2="2548.83" style="stroke:#FF7F00;stroke-width:8.64"/>
	<line x1="2007.35" y1="2548.83" x2="2064.89" y2="2548.83" style="stroke:#FF7F00;stroke-width:8.64"/>
	<line x1="2093.73" y1="2548.83" x2="2122.56" y2="2548.83" style="stroke:#FF7F00;stroke-width:8.64"/>
	<line x1="1748.22" y1="2688.92" x2="1805.76" y2="2688.92" style="stroke:#008000;stroke-width:8.64"/>
	<line x1="1834.59" y1="2688.92" x2="1892.14" y2="2688.92" style="stroke:#008000;stroke-width:8.64"/>
	<line x1="1920.97" y1="2688.92" x2="1978.52" y2="2688.92" style="stroke:#008000;stroke-width:8.64"/>
	<line x1="2007.35" y1="2688.92" x2="2064.89" y2="2688.92" style="stroke:#008000;stroke-width:8.64"/>
	<line x1="2093.73" y1="2688.92" x2="2122.56" y2="2688.92" style="stroke:#008000;stroke-width:8.64"/>
	<line x1="2586.25" y1="2548.83" x2="2643.80" y2="2548.83" style="stroke:#FF0080;stroke-width:8.64"/>
	<line x1="2669.78" y1="2548.83" x2="2672.63" y2="2548.83" style="stroke:#FF0080;stroke-width:8.64"/>
	<line x1="2698.62" y1="2548.83" x2="2756.16" y2="2548.83" style="stroke:#FF0080;stroke-width:8.64"/>
	<line x1="2782.15" y1="2548.83" x2="2784.99" y2="2548.83" style="stroke:#FF0080;stroke-width:8.64"/>
	<line x1="2810.98" y1="2548.83" x2="2868.53" y2="2548.83" style="stroke:#FF0080;stroke-width:8.64"/>
	<line x1="2894.51" y1="2548.83" x2="2897.36" y2="2548.83" style="stroke:#FF0080;stroke-width:8.64"/>
	<line x1="2923.22" y1="2548.83" x2="2960.59" y2="2548.83" style="stroke:#FF0080;stroke-width:8.64"/>
	<line x1="2586.25" y1="2688.92" x2="2643.80" y2="2688.92" style="stroke:#A0522D;stroke-width:8.64"/>
	<line x1="2669.78" y1="2688.92" x2="2672.63" y2="2688.92" style="stroke:#A0522D;stroke-width:8.64"/>
	<line x1="2698.62" y1="2688.92" x2="2756.16" y2="2688.92" style="stroke:#A0522D;stroke-width:8.64"/>
	<line x1="2782.15" y1="2688.92" x2="2784.99" y2="2688.92" style="stroke:#A0522D;stroke-width:8.64"/>
	<line x1="2810.98" y1="2688.92" x2="2868.53" y2="2688.92" style="stroke:#A0522D;stroke-width:8.64"/>
	<line x1="2894.51" y1="2688.92" x2="2897.36" y2="2688.92" style="stroke:#A0522D;stroke-width:8.64"/>
	<line x1="2923.22" y1="2688.92" x2="2960.59" y2="2688.92" style="stroke:#A0522D;stroke-width:8.64"/>
	<text x="1344.67" y="2576.85" style="font-family:'Helvetica';font-size:79.94px;fill:#000000">18-&lt;40</text>
	<text x="1344.67" y="2716.94" style="font-family:'Helvetica';font-size:79.94px;fill:#000000">40-&lt;50</text>
	<text x="2182.58" y="2576.85" style="font-family:'Helvetica';font-size:79.94px;fill:#000000">50-&lt;60</text>
	<text x="2182.58" y="2716.94" style="font-family:'Helvetica';font-size:79.94px;fill:#000000">60-&lt;70</text>
	<text x="3020.61" y="2576.85" style="font-family:'Helvetica';font-size:79.94px;fill:#000000">70-&lt;80</text>
	<text x="3020.61" y="2716.94" style="font-family:'Helvetica';font-size:79.94px;fill:#000000">80+</text>
	<text x="2097.19" y="2448.93" style="font-family:'Helvetica';font-size:79.94px;fill:#000000" text-anchor="middle">Age group</text>
</svg>
