<?xml version="1.0" encoding="UTF-8" standalone="no"?>
<!-- This is a Stata 16.1 generated SVG file (http://www.stata.com) -->

<svg version="1.1" width="5.50in" height="4.00in" viewBox="0 0 3960 2880" xmlns="http://www.w3.org/2000/svg" xmlns:xlink="http://www.w3.org/1999/xlink">
	<desc>Stata Graph - Graph</desc>
	<rect x="0" y="0" width="3960" height="2880" style="fill:#EAF2F3;stroke:none"/>
	<rect x="0.00" y="0.00" width="3959.88" height="2880.00" style="fill:#FFFFFF"/>
	<rect x="2.88" y="2.88" width="3954.12" height="2874.24" style="fill:none;stroke:#FFFFFF;stroke-width:5.76"/>
	<rect x="130.80" y="100.86" width="3728.22" height="2528.29" style="fill:#FFFFFF"/>
	<rect x="133.68" y="103.74" width="3722.46" height="2522.53" style="fill:none;stroke:#FFFFFF;stroke-width:5.76"/>
	<line x1="2577.71" y1="2629.15" x2="2577.71" y2="2571.61" style="stroke:#C10534;stroke-width:8.64"/>
	<line x1="2577.71" y1="2542.77" x2="2577.71" y2="2485.23" style="stroke:#C10534;stroke-width:8.64"/>
	<line x1="2577.71" y1="2456.39" x2="2577.71" y2="2398.84" style="stroke:#C10534;stroke-width:8.64"/>
	<line x1="2577.71" y1="2370.01" x2="2577.71" y2="2312.46" style="stroke:#C10534;stroke-width:8.64"/>
	<line x1="2577.71" y1="2283.63" x2="2577.71" y2="2226.08" style="stroke:#C10534;stroke-width:8.64"/>
	<line x1="2577.71" y1="2197.25" x2="2577.71" y2="2139.58" style="stroke:#C10534;stroke-width:8.64"/>
	<line x1="2577.71" y1="2110.87" x2="2577.71" y2="2053.20" style="stroke:#C10534;stroke-width:8.64"/>
	<line x1="2577.71" y1="2024.49" x2="2577.71" y2="1966.82" style="stroke:#C10534;stroke-width:8.64"/>
	<line x1="2577.71" y1="1937.99" x2="2577.71" y2="1880.44" style="stroke:#C10534;stroke-width:8.64"/>
	<line x1="2577.71" y1="1851.61" x2="2577.71" y2="1794.06" style="stroke:#C10534;stroke-width:8.64"/>
	<line x1="2577.71" y1="1765.23" x2="2577.71" y2="1707.68" style="stroke:#C10534;stroke-width:8.64"/>
	<line x1="2577.71" y1="1678.84" x2="2577.71" y2="1621.30" style="stroke:#C10534;stroke-width:8.64"/>
	<line x1="2577.71" y1="1592.46" x2="2577.71" y2="1534.92" style="stroke:#C10534;stroke-width:8.64"/>
	<line x1="2577.71" y1="1506.08" x2="2577.71" y2="1448.54" style="stroke:#C10534;stroke-width:8.64"/>
	<line x1="2577.71" y1="1419.70" x2="2577.71" y2="1362.16" style="stroke:#C10534;stroke-width:8.64"/>
	<line x1="2577.71" y1="1333.32" x2="2577.71" y2="1275.78" style="stroke:#C10534;stroke-width:8.64"/>
	<line x1="2577.71" y1="1246.94" x2="2577.71" y2="1189.27" style="stroke:#C10534;stroke-width:8.64"/>
	<line x1="2577.71" y1="1160.56" x2="2577.71" y2="1102.89" style="stroke:#C10534;stroke-width:8.64"/>
	<line x1="2577.71" y1="1074.18" x2="2577.71" y2="1016.51" style="stroke:#C10534;stroke-width:8.64"/>
	<line x1="2577.71" y1="987.68" x2="2577.71" y2="930.13" style="stroke:#C10534;stroke-width:8.64"/>
	<line x1="2577.71" y1="901.30" x2="2577.71" y2="843.75" style="stroke:#C10534;stroke-width:8.64"/>
	<line x1="2577.71" y1="814.92" x2="2577.71" y2="757.37" style="stroke:#C10534;stroke-width:8.64"/>
	<line x1="2577.71" y1="728.54" x2="2577.71" y2="670.99" style="stroke:#C10534;stroke-width:8.64"/>
	<line x1="2577.71" y1="642.16" x2="2577.71" y2="584.61" style="stroke:#C10534;stroke-width:8.64"/>
	<line x1="2577.71" y1="555.78" x2="2577.71" y2="498.23" style="stroke:#C10534;stroke-width:8.64"/>
	<line x1="2577.71" y1="469.40" x2="2577.71" y2="411.85" style="stroke:#C10534;stroke-width:8.64"/>
	<line x1="2577.71" y1="383.02" x2="2577.71" y2="325.47" style="stroke:#C10534;stroke-width:8.64"/>
	<line x1="2577.71" y1="296.64" x2="2577.71" y2="238.97" style="stroke:#C10534;stroke-width:8.64"/>
	<line x1="2577.71" y1="210.26" x2="2577.71" y2="152.59" style="stroke:#C10534;stroke-width:8.64"/>
	<line x1="2577.71" y1="123.75" x2="2577.71" y2="100.86" style="stroke:#C10534;stroke-width:8.64"/>
	<circle cx="2558.90" cy="2565.91" r="19.29" style="fill:#000000"/>
	<circle cx="2558.90" cy="2565.91" r="14.97" style="fill:none;stroke:#000000;stroke-width:8.64"/>
	<circle cx="2483.29" cy="2461.46" r="19.29" style="fill:#000000"/>
	<circle cx="2483.29" cy="2461.46" r="14.97" style="fill:none;stroke:#000000;stroke-width:8.64"/>
	<circle cx="2561.01" cy="2148.24" r="19.29" style="fill:#000000"/>
	<circle cx="2561.01" cy="2148.24" r="14.97" style="fill:none;stroke:#000000;stroke-width:8.64"/>
	<circle cx="2486.14" cy="2043.80" r="19.29" style="fill:#000000"/>
	<circle cx="2486.14" cy="2043.80" r="14.97" style="fill:none;stroke:#000000;stroke-width:8.64"/>
	<circle cx="2556.18" cy="1730.57" r="19.29" style="fill:#000000"/>
	<circle cx="2556.18" cy="1730.57" r="14.97" style="fill:none;stroke:#000000;stroke-width:8.64"/>
	<circle cx="2463.37" cy="1626.13" r="19.29" style="fill:#000000"/>
	<circle cx="2463.37" cy="1626.13" r="14.97" style="fill:none;stroke:#000000;stroke-width:8.64"/>
	<circle cx="2556.92" cy="1312.90" r="19.29" style="fill:#000000"/>
	<circle cx="2556.92" cy="1312.90" r="14.97" style="fill:none;stroke:#000000;stroke-width:8.64"/>
	<circle cx="2496.78" cy="1208.46" r="19.29" style="fill:#000000"/>
	<circle cx="2496.78" cy="1208.46" r="14.97" style="fill:none;stroke:#000000;stroke-width:8.64"/>
	<circle cx="2422.16" cy="895.11" r="19.29" style="fill:#000000"/>
	<circle cx="2422.16" cy="895.11" r="14.97" style="fill:none;stroke:#000000;stroke-width:8.64"/>
	<circle cx="2392.95" cy="790.79" r="19.29" style="fill:#000000"/>
	<circle cx="2392.95" cy="790.79" r="14.97" style="fill:none;stroke:#000000;stroke-width:8.64"/>
	<circle cx="2450.50" cy="477.44" r="19.29" style="fill:#000000"/>
	<circle cx="2450.50" cy="477.44" r="14.97" style="fill:none;stroke:#000000;stroke-width:8.64"/>
	<circle cx="2382.31" cy="373.12" r="19.29" style="fill:#000000"/>
	<circle cx="2382.31" cy="373.12" r="14.97" style="fill:none;stroke:#000000;stroke-width:8.64"/>
	<line x1="2415.85" y1="2565.79" x2="2702.20" y2="2565.79" style="stroke:#000000;stroke-width:8.64"/>
	<line x1="2702.20" y1="2587.82" x2="2702.20" y2="2543.76" stroke-linecap="round" style="stroke:#000000;stroke-width:8.64"/>
	<line x1="2415.85" y1="2587.82" x2="2415.85" y2="2543.76" stroke-linecap="round" style="stroke:#000000;stroke-width:8.64"/>
	<line x1="2356.82" y1="2461.46" x2="2609.89" y2="2461.46" style="stroke:#000000;stroke-width:8.64"/>
	<line x1="2609.89" y1="2483.49" x2="2609.89" y2="2439.44" stroke-linecap="round" style="stroke:#000000;stroke-width:8.64"/>
	<line x1="2356.82" y1="2483.49" x2="2356.82" y2="2439.44" stroke-linecap="round" style="stroke:#000000;stroke-width:8.64"/>
	<line x1="2415.48" y1="2148.12" x2="2706.66" y2="2148.12" style="stroke:#000000;stroke-width:8.64"/>
	<line x1="2706.66" y1="2170.15" x2="2706.66" y2="2126.09" stroke-linecap="round" style="stroke:#000000;stroke-width:8.64"/>
	<line x1="2415.48" y1="2170.15" x2="2415.48" y2="2126.09" stroke-linecap="round" style="stroke:#000000;stroke-width:8.64"/>
	<line x1="2357.81" y1="2043.80" x2="2614.59" y2="2043.80" style="stroke:#000000;stroke-width:8.64"/>
	<line x1="2614.59" y1="2065.82" x2="2614.59" y2="2021.77" stroke-linecap="round" style="stroke:#000000;stroke-width:8.64"/>
	<line x1="2357.81" y1="2065.82" x2="2357.81" y2="2021.77" stroke-linecap="round" style="stroke:#000000;stroke-width:8.64"/>
	<line x1="2410.53" y1="1730.45" x2="2702.08" y2="1730.45" style="stroke:#000000;stroke-width:8.64"/>
	<line x1="2702.08" y1="1752.48" x2="2702.08" y2="1708.42" stroke-linecap="round" style="stroke:#000000;stroke-width:8.64"/>
	<line x1="2410.53" y1="1752.48" x2="2410.53" y2="1708.42" stroke-linecap="round" style="stroke:#000000;stroke-width:8.64"/>
	<line x1="2335.29" y1="1626.00" x2="2591.57" y2="1626.00" style="stroke:#000000;stroke-width:8.64"/>
	<line x1="2591.57" y1="1648.03" x2="2591.57" y2="1603.97" stroke-linecap="round" style="stroke:#000000;stroke-width:8.64"/>
	<line x1="2335.29" y1="1648.03" x2="2335.29" y2="1603.97" stroke-linecap="round" style="stroke:#000000;stroke-width:8.64"/>
	<line x1="2400.50" y1="1312.78" x2="2713.34" y2="1312.78" style="stroke:#000000;stroke-width:8.64"/>
	<line x1="2713.34" y1="1334.81" x2="2713.34" y2="1290.75" stroke-linecap="round" style="stroke:#000000;stroke-width:8.64"/>
	<line x1="2400.50" y1="1334.81" x2="2400.50" y2="1290.75" stroke-linecap="round" style="stroke:#000000;stroke-width:8.64"/>
	<line x1="2360.04" y1="1208.33" x2="2633.52" y2="1208.33" style="stroke:#000000;stroke-width:8.64"/>
	<line x1="2633.52" y1="1230.36" x2="2633.52" y2="1186.30" stroke-linecap="round" style="stroke:#000000;stroke-width:8.64"/>
	<line x1="2360.04" y1="1230.36" x2="2360.04" y2="1186.30" stroke-linecap="round" style="stroke:#000000;stroke-width:8.64"/>
	<line x1="2241.11" y1="895.11" x2="2603.20" y2="895.11" style="stroke:#000000;stroke-width:8.64"/>
	<line x1="2603.20" y1="917.14" x2="2603.20" y2="873.08" stroke-linecap="round" style="stroke:#000000;stroke-width:8.64"/>
	<line x1="2241.11" y1="917.14" x2="2241.11" y2="873.08" stroke-linecap="round" style="stroke:#000000;stroke-width:8.64"/>
	<line x1="2245.57" y1="790.66" x2="2540.59" y2="790.66" style="stroke:#000000;stroke-width:8.64"/>
	<line x1="2540.59" y1="812.69" x2="2540.59" y2="768.64" stroke-linecap="round" style="stroke:#000000;stroke-width:8.64"/>
	<line x1="2245.57" y1="812.69" x2="2245.57" y2="768.64" stroke-linecap="round" style="stroke:#000000;stroke-width:8.64"/>
	<line x1="2284.92" y1="477.44" x2="2616.20" y2="477.44" style="stroke:#000000;stroke-width:8.64"/>
	<line x1="2616.20" y1="499.47" x2="2616.20" y2="455.41" stroke-linecap="round" style="stroke:#000000;stroke-width:8.64"/>
	<line x1="2284.92" y1="499.47" x2="2284.92" y2="455.41" stroke-linecap="round" style="stroke:#000000;stroke-width:8.64"/>
	<line x1="2244.45" y1="372.99" x2="2520.29" y2="372.99" style="stroke:#000000;stroke-width:8.64"/>
	<line x1="2520.29" y1="395.02" x2="2520.29" y2="350.97" stroke-linecap="round" style="stroke:#000000;stroke-width:8.64"/>
	<line x1="2244.45" y1="395.02" x2="2244.45" y2="350.97" stroke-linecap="round" style="stroke:#000000;stroke-width:8.64"/>
	<text x="236.12" y="2586.83" style="font-family:'Helvetica';font-size:60.02px;fill:#000000"></text>
	<text x="236.12" y="2482.50" style="font-family:'Helvetica';font-size:60.02px;fill:#000000"></text>
	<text x="236.12" y="2378.05" style="font-family:'Helvetica';font-weight:bold;font-size:60.02px;fill:#000000">Non-PH fitted (N=35474680)</text>
	<text x="236.12" y="2273.61" style="font-family:'Helvetica';font-size:60.02px;fill:#000000"></text>
	<text x="236.12" y="2169.16" style="font-family:'Helvetica';font-size:60.02px;fill:#000000"></text>
	<text x="236.12" y="2064.83" style="font-family:'Helvetica';font-size:60.02px;fill:#000000"></text>
	<text x="236.12" y="1960.39" style="font-family:'Helvetica';font-weight:bold;font-size:60.02px;fill:#000000">Participants with at least 12 months registration at GP  (N=11038873)</text>
	<text x="236.12" y="1855.94" style="font-family:'Helvetica';font-size:60.02px;fill:#000000"></text>
	<text x="236.12" y="1751.49" style="font-family:'Helvetica';font-size:60.02px;fill:#000000"></text>
	<text x="236.12" y="1647.04" style="font-family:'Helvetica';font-size:60.02px;fill:#000000"></text>
	<text x="236.12" y="1542.72" style="font-family:'Helvetica';font-weight:bold;font-size:60.02px;fill:#000000">Age used as the underlying timescale in the cox model  (N=11872324)</text>
	<text x="236.12" y="1438.27" style="font-family:'Helvetica';font-size:60.02px;fill:#000000"></text>
	<text x="236.12" y="1333.82" style="font-family:'Helvetica';font-size:60.02px;fill:#000000"></text>
	<text x="236.12" y="1229.37" style="font-family:'Helvetica';font-size:60.02px;fill:#000000"></text>
	<text x="236.12" y="1125.05" style="font-family:'Helvetica';font-weight:bold;font-size:60.02px;fill:#000000">Restricted to participants with complete data on BMI and smoking  (N=8923306)</text>
	<text x="236.12" y="1020.60" style="font-family:'Helvetica';font-size:60.02px;fill:#000000"></text>
	<text x="236.12" y="916.15" style="font-family:'Helvetica';font-size:60.02px;fill:#000000"></text>
	<text x="236.12" y="811.70" style="font-family:'Helvetica';font-size:60.02px;fill:#000000"></text>
	<text x="236.12" y="707.25" style="font-family:'Helvetica';font-weight:bold;font-size:60.02px;fill:#000000">Additionally adjusting for ethnicity, BMI and smoking, where data is complete  (N=7364186)</text>
	<text x="236.12" y="602.93" style="font-family:'Helvetica';font-size:60.02px;fill:#000000"></text>
	<text x="236.12" y="498.48" style="font-family:'Helvetica';font-size:60.02px;fill:#000000"></text>
	<text x="236.12" y="394.03" style="font-family:'Helvetica';font-size:60.02px;fill:#000000"></text>
	<text x="236.12" y="289.58" style="font-family:'Helvetica';font-weight:bold;font-size:60.02px;fill:#000000">Additionally adjusting for ethnicity (N=9004061)</text>
	<text x="236.12" y="185.26" style="font-family:'Helvetica';font-size:60.02px;fill:#000000"></text>
	<text x="300.84" y="2586.83" style="font-family:'Helvetica';font-size:60.02px;fill:#000000">Children/young people aged 11-&lt;18 years</text>
	<text x="300.84" y="2482.50" style="font-family:'Helvetica';font-size:60.02px;fill:#000000">Children under 12 years</text>
	<text x="300.84" y="2169.16" style="font-family:'Helvetica';font-size:60.02px;fill:#000000">Children/young people aged 11-&lt;18 years</text>
	<text x="300.84" y="2064.83" style="font-family:'Helvetica';font-size:60.02px;fill:#000000">Children under 12 years</text>
	<text x="300.84" y="1751.49" style="font-family:'Helvetica';font-size:60.02px;fill:#000000">Children/young people aged 11-&lt;18 years</text>
	<text x="300.84" y="1647.04" style="font-family:'Helvetica';font-size:60.02px;fill:#000000">Children under 12 years</text>
	<text x="300.84" y="1333.82" style="font-family:'Helvetica';font-size:60.02px;fill:#000000">Children/young people aged 11-&lt;18 years</text>
	<text x="300.84" y="1229.37" style="font-family:'Helvetica';font-size:60.02px;fill:#000000">Children under 12 years</text>
	<text x="300.84" y="916.15" style="font-family:'Helvetica';font-size:60.02px;fill:#000000">Children/young people aged 11-&lt;18 years</text>
	<text x="300.84" y="811.70" style="font-family:'Helvetica';font-size:60.02px;fill:#000000">Children under 12 years</text>
	<text x="300.84" y="498.48" style="font-family:'Helvetica';font-size:60.02px;fill:#000000">Children/young people aged 11-&lt;18 years</text>
	<text x="300.84" y="394.03" style="font-family:'Helvetica';font-size:60.02px;fill:#000000">Children under 12 years</text>
	<text x="3242.62" y="2586.83" style="font-family:'Helvetica';font-size:60.02px;fill:#000000">0.97 (0.79-1.20)</text>
	<text x="3242.62" y="2482.50" style="font-family:'Helvetica';font-size:60.02px;fill:#000000">0.87 (0.72-1.05)</text>
	<text x="3242.62" y="2169.16" style="font-family:'Helvetica';font-size:60.02px;fill:#000000">0.98 (0.79-1.21)</text>
	<text x="3242.62" y="2064.83" style="font-family:'Helvetica';font-size:60.02px;fill:#000000">0.87 (0.72-1.06)</text>
	<text x="3242.62" y="1751.49" style="font-family:'Helvetica';font-size:60.02px;fill:#000000">0.97 (0.78-1.20)</text>
	<text x="3242.62" y="1647.04" style="font-family:'Helvetica';font-size:60.02px;fill:#000000">0.85 (0.70-1.02)</text>
	<text x="3242.62" y="1333.82" style="font-family:'Helvetica';font-size:60.02px;fill:#000000">0.97 (0.77-1.22)</text>
	<text x="3242.62" y="1229.37" style="font-family:'Helvetica';font-size:60.02px;fill:#000000">0.89 (0.73-1.09)</text>
	<text x="3242.62" y="916.15" style="font-family:'Helvetica';font-size:60.02px;fill:#000000">0.80 (0.61-1.04)</text>
	<text x="3242.62" y="811.70" style="font-family:'Helvetica';font-size:60.02px;fill:#000000">0.76 (0.61-0.95)</text>
	<text x="3242.62" y="498.48" style="font-family:'Helvetica';font-size:60.02px;fill:#000000">0.83 (0.65-1.06)</text>
	<text x="3242.62" y="394.03" style="font-family:'Helvetica';font-size:60.02px;fill:#000000">0.75 (0.61-0.92)</text>
	<text x="3242.62" y="2586.83" style="font-family:'Helvetica';font-size:60.02px;fill:#000000"></text>
	<text x="3242.62" y="2482.50" style="font-family:'Helvetica';font-size:60.02px;fill:#000000"></text>
	<text x="3242.62" y="2378.05" style="font-family:'Helvetica';font-size:60.02px;fill:#000000"></text>
	<text x="3242.62" y="2273.61" style="font-family:'Helvetica';font-size:60.02px;fill:#000000"></text>
	<text x="3242.62" y="2169.16" style="font-family:'Helvetica';font-size:60.02px;fill:#000000"></text>
	<text x="3242.62" y="2064.83" style="font-family:'Helvetica';font-size:60.02px;fill:#000000"></text>
	<text x="3242.62" y="1960.39" style="font-family:'Helvetica';font-size:60.02px;fill:#000000"></text>
	<text x="3242.62" y="1855.94" style="font-family:'Helvetica';font-size:60.02px;fill:#000000"></text>
	<text x="3242.62" y="1751.49" style="font-family:'Helvetica';font-size:60.02px;fill:#000000"></text>
	<text x="3242.62" y="1647.04" style="font-family:'Helvetica';font-size:60.02px;fill:#000000"></text>
	<text x="3242.62" y="1542.72" style="font-family:'Helvetica';font-size:60.02px;fill:#000000"></text>
	<text x="3242.62" y="1438.27" style="font-family:'Helvetica';font-size:60.02px;fill:#000000"></text>
	<text x="3242.62" y="1333.82" style="font-family:'Helvetica';font-size:60.02px;fill:#000000"></text>
	<text x="3242.62" y="1229.37" style="font-family:'Helvetica';font-size:60.02px;fill:#000000"></text>
	<text x="3242.62" y="1125.05" style="font-family:'Helvetica';font-size:60.02px;fill:#000000"></text>
	<text x="3242.62" y="1020.60" style="font-family:'Helvetica';font-size:60.02px;fill:#000000"></text>
	<text x="3242.62" y="916.15" style="font-family:'Helvetica';font-size:60.02px;fill:#000000"></text>
	<text x="3242.62" y="811.70" style="font-family:'Helvetica';font-size:60.02px;fill:#000000"></text>
	<text x="3242.62" y="707.25" style="font-family:'Helvetica';font-size:60.02px;fill:#000000"></text>
	<text x="3242.62" y="602.93" style="font-family:'Helvetica';font-size:60.02px;fill:#000000"></text>
	<text x="3242.62" y="498.48" style="font-family:'Helvetica';font-size:60.02px;fill:#000000"></text>
	<text x="3242.62" y="394.03" style="font-family:'Helvetica';font-size:60.02px;fill:#000000"></text>
	<text x="3242.62" y="289.58" style="font-family:'Helvetica';font-size:60.02px;fill:#000000"></text>
	<text x="3242.62" y="185.26" style="font-family:'Helvetica';font-size:60.02px;fill:#000000"></text>
	<text x="1972.82" y="2900.17" style="font-family:'Helvetica';font-size:60.02px;fill:#000000" text-anchor="middle">Lower risk in those living with children</text>
	<text x="3347.81" y="2900.17" style="font-family:'Helvetica';font-size:60.02px;fill:#000000" text-anchor="middle">Higher risk in those living with children</text>
	<line x1="130.80" y1="2629.15" x2="130.80" y2="100.86" style="stroke:#FFFFFF;stroke-width:5.76"/>
	<line x1="130.80" y1="2629.15" x2="3859.02" y2="2629.15" style="stroke:#000000;stroke-width:5.76"/>
	<line x1="2106.60" y1="2629.15" x2="2106.60" y2="2669.25" style="stroke:#000000;stroke-width:5.76"/>
	<text x="2106.60" y="2731.12" style="font-family:'Helvetica';font-size:60.02px;fill:#000000" text-anchor="middle">.5</text>
	<line x1="2577.71" y1="2629.15" x2="2577.71" y2="2669.25" style="stroke:#000000;stroke-width:5.76"/>
	<text x="2577.71" y="2731.12" style="font-family:'Helvetica';font-size:60.02px;fill:#000000" text-anchor="middle">1</text>
	<line x1="3048.95" y1="2629.15" x2="3048.95" y2="2669.25" style="stroke:#000000;stroke-width:5.76"/>
	<text x="3048.95" y="2731.12" style="font-family:'Helvetica';font-size:60.02px;fill:#000000" text-anchor="middle">2</text>
</svg>
