<?xml version="1.0" encoding="UTF-8" standalone="no"?>
<!-- This is a Stata 16.1 generated SVG file (http://www.stata.com) -->

<svg version="1.1" width="5.50in" height="4.00in" viewBox="0 0 3960 2880" xmlns="http://www.w3.org/2000/svg" xmlns:xlink="http://www.w3.org/1999/xlink">
	<desc>Stata Graph - Graph</desc>
	<rect x="0" y="0" width="3960" height="2880" style="fill:#EAF2F3;stroke:none"/>
	<rect x="0.00" y="0.00" width="3959.88" height="2880.00" style="fill:#FFFFFF"/>
	<rect x="2.88" y="2.88" width="3954.12" height="2874.24" style="fill:none;stroke:#FFFFFF;stroke-width:5.76"/>
	<rect x="130.80" y="100.86" width="3728.22" height="2528.29" style="fill:#FFFFFF"/>
	<rect x="133.68" y="103.74" width="3722.46" height="2522.53" style="fill:none;stroke:#FFFFFF;stroke-width:5.76"/>
	<line x1="2577.71" y1="2629.15" x2="2577.71" y2="2571.61" style="stroke:#C10534;stroke-width:8.64"/>
	<line x1="2577.71" y1="2542.77" x2="2577.71" y2="2485.23" style="stroke:#C10534;stroke-width:8.64"/>
	<line x1="2577.71" y1="2456.39" x2="2577.71" y2="2398.84" style="stroke:#C10534;stroke-width:8.64"/>
	<line x1="2577.71" y1="2370.01" x2="2577.71" y2="2312.46" style="stroke:#C10534;stroke-width:8.64"/>
	<line x1="2577.71" y1="2283.63" x2="2577.71" y2="2226.08" style="stroke:#C10534;stroke-width:8.64"/>
	<line x1="2577.71" y1="2197.25" x2="2577.71" y2="2139.58" style="stroke:#C10534;stroke-width:8.64"/>
	<line x1="2577.71" y1="2110.87" x2="2577.71" y2="2053.20" style="stroke:#C10534;stroke-width:8.64"/>
	<line x1="2577.71" y1="2024.49" x2="2577.71" y2="1966.82" style="stroke:#C10534;stroke-width:8.64"/>
	<line x1="2577.71" y1="1937.99" x2="2577.71" y2="1880.44" style="stroke:#C10534;stroke-width:8.64"/>
	<line x1="2577.71" y1="1851.61" x2="2577.71" y2="1794.06" style="stroke:#C10534;stroke-width:8.64"/>
	<line x1="2577.71" y1="1765.23" x2="2577.71" y2="1707.68" style="stroke:#C10534;stroke-width:8.64"/>
	<line x1="2577.71" y1="1678.84" x2="2577.71" y2="1621.30" style="stroke:#C10534;stroke-width:8.64"/>
	<line x1="2577.71" y1="1592.46" x2="2577.71" y2="1534.92" style="stroke:#C10534;stroke-width:8.64"/>
	<line x1="2577.71" y1="1506.08" x2="2577.71" y2="1448.54" style="stroke:#C10534;stroke-width:8.64"/>
	<line x1="2577.71" y1="1419.70" x2="2577.71" y2="1362.16" style="stroke:#C10534;stroke-width:8.64"/>
	<line x1="2577.71" y1="1333.32" x2="2577.71" y2="1275.78" style="stroke:#C10534;stroke-width:8.64"/>
	<line x1="2577.71" y1="1246.94" x2="2577.71" y2="1189.27" style="stroke:#C10534;stroke-width:8.64"/>
	<line x1="2577.71" y1="1160.56" x2="2577.71" y2="1102.89" style="stroke:#C10534;stroke-width:8.64"/>
	<line x1="2577.71" y1="1074.18" x2="2577.71" y2="1016.51" style="stroke:#C10534;stroke-width:8.64"/>
	<line x1="2577.71" y1="987.68" x2="2577.71" y2="930.13" style="stroke:#C10534;stroke-width:8.64"/>
	<line x1="2577.71" y1="901.30" x2="2577.71" y2="843.75" style="stroke:#C10534;stroke-width:8.64"/>
	<line x1="2577.71" y1="814.92" x2="2577.71" y2="757.37" style="stroke:#C10534;stroke-width:8.64"/>
	<line x1="2577.71" y1="728.54" x2="2577.71" y2="670.99" style="stroke:#C10534;stroke-width:8.64"/>
	<line x1="2577.71" y1="642.16" x2="2577.71" y2="584.61" style="stroke:#C10534;stroke-width:8.64"/>
	<line x1="2577.71" y1="555.78" x2="2577.71" y2="498.23" style="stroke:#C10534;stroke-width:8.64"/>
	<line x1="2577.71" y1="469.40" x2="2577.71" y2="411.85" style="stroke:#C10534;stroke-width:8.64"/>
	<line x1="2577.71" y1="383.02" x2="2577.71" y2="325.47" style="stroke:#C10534;stroke-width:8.64"/>
	<line x1="2577.71" y1="296.64" x2="2577.71" y2="238.97" style="stroke:#C10534;stroke-width:8.64"/>
	<line x1="2577.71" y1="210.26" x2="2577.71" y2="152.59" style="stroke:#C10534;stroke-width:8.64"/>
	<line x1="2577.71" y1="123.75" x2="2577.71" y2="100.86" style="stroke:#C10534;stroke-width:8.64"/>
	<circle cx="2684.76" cy="2565.91" r="19.29" style="fill:#000000"/>
	<circle cx="2684.76" cy="2565.91" r="14.97" style="fill:none;stroke:#000000;stroke-width:8.64"/>
	<circle cx="2673.74" cy="2461.46" r="19.29" style="fill:#000000"/>
	<circle cx="2673.74" cy="2461.46" r="14.97" style="fill:none;stroke:#000000;stroke-width:8.64"/>
	<circle cx="2680.43" cy="2148.24" r="19.29" style="fill:#000000"/>
	<circle cx="2680.43" cy="2148.24" r="14.97" style="fill:none;stroke:#000000;stroke-width:8.64"/>
	<circle cx="2690.57" cy="2043.80" r="19.29" style="fill:#000000"/>
	<circle cx="2690.57" cy="2043.80" r="14.97" style="fill:none;stroke:#000000;stroke-width:8.64"/>
	<circle cx="2682.16" cy="1730.57" r="19.29" style="fill:#000000"/>
	<circle cx="2682.16" cy="1730.57" r="14.97" style="fill:none;stroke:#000000;stroke-width:8.64"/>
	<circle cx="2684.01" cy="1626.13" r="19.29" style="fill:#000000"/>
	<circle cx="2684.01" cy="1626.13" r="14.97" style="fill:none;stroke:#000000;stroke-width:8.64"/>
	<circle cx="2671.76" cy="1312.90" r="19.29" style="fill:#000000"/>
	<circle cx="2671.76" cy="1312.90" r="14.97" style="fill:none;stroke:#000000;stroke-width:8.64"/>
	<circle cx="2651.96" cy="1208.46" r="19.29" style="fill:#000000"/>
	<circle cx="2651.96" cy="1208.46" r="14.97" style="fill:none;stroke:#000000;stroke-width:8.64"/>
	<circle cx="2637.48" cy="895.11" r="19.29" style="fill:#000000"/>
	<circle cx="2637.48" cy="895.11" r="14.97" style="fill:none;stroke:#000000;stroke-width:8.64"/>
	<circle cx="2586.62" cy="790.79" r="19.29" style="fill:#000000"/>
	<circle cx="2586.62" cy="790.79" r="14.97" style="fill:none;stroke:#000000;stroke-width:8.64"/>
	<circle cx="2632.53" cy="477.44" r="19.29" style="fill:#000000"/>
	<circle cx="2632.53" cy="477.44" r="14.97" style="fill:none;stroke:#000000;stroke-width:8.64"/>
	<circle cx="2595.53" cy="373.12" r="19.29" style="fill:#000000"/>
	<circle cx="2595.53" cy="373.12" r="14.97" style="fill:none;stroke:#000000;stroke-width:8.64"/>
	<line x1="2658.27" y1="2565.79" x2="2711.49" y2="2565.79" style="stroke:#000000;stroke-width:8.64"/>
	<line x1="2711.49" y1="2587.82" x2="2711.49" y2="2543.76" stroke-linecap="round" style="stroke:#000000;stroke-width:8.64"/>
	<line x1="2658.27" y1="2587.82" x2="2658.27" y2="2543.76" stroke-linecap="round" style="stroke:#000000;stroke-width:8.64"/>
	<line x1="2654.31" y1="2461.46" x2="2693.17" y2="2461.46" style="stroke:#000000;stroke-width:8.64"/>
	<line x1="2693.17" y1="2483.49" x2="2693.17" y2="2439.44" stroke-linecap="round" style="stroke:#000000;stroke-width:8.64"/>
	<line x1="2654.31" y1="2483.49" x2="2654.31" y2="2439.44" stroke-linecap="round" style="stroke:#000000;stroke-width:8.64"/>
	<line x1="2653.20" y1="2148.12" x2="2707.77" y2="2148.12" style="stroke:#000000;stroke-width:8.64"/>
	<line x1="2707.77" y1="2170.15" x2="2707.77" y2="2126.09" stroke-linecap="round" style="stroke:#000000;stroke-width:8.64"/>
	<line x1="2653.20" y1="2170.15" x2="2653.20" y2="2126.09" stroke-linecap="round" style="stroke:#000000;stroke-width:8.64"/>
	<line x1="2670.40" y1="2043.80" x2="2710.87" y2="2043.80" style="stroke:#000000;stroke-width:8.64"/>
	<line x1="2710.87" y1="2065.82" x2="2710.87" y2="2021.77" stroke-linecap="round" style="stroke:#000000;stroke-width:8.64"/>
	<line x1="2670.40" y1="2065.82" x2="2670.40" y2="2021.77" stroke-linecap="round" style="stroke:#000000;stroke-width:8.64"/>
	<line x1="2655.43" y1="1730.45" x2="2709.14" y2="1730.45" style="stroke:#000000;stroke-width:8.64"/>
	<line x1="2709.14" y1="1752.48" x2="2709.14" y2="1708.42" stroke-linecap="round" style="stroke:#000000;stroke-width:8.64"/>
	<line x1="2655.43" y1="1752.48" x2="2655.43" y2="1708.42" stroke-linecap="round" style="stroke:#000000;stroke-width:8.64"/>
	<line x1="2664.34" y1="1626.00" x2="2703.81" y2="1626.00" style="stroke:#000000;stroke-width:8.64"/>
	<line x1="2703.81" y1="1648.03" x2="2703.81" y2="1603.97" stroke-linecap="round" style="stroke:#000000;stroke-width:8.64"/>
	<line x1="2664.34" y1="1648.03" x2="2664.34" y2="1603.97" stroke-linecap="round" style="stroke:#000000;stroke-width:8.64"/>
	<line x1="2643.30" y1="1312.78" x2="2700.47" y2="1312.78" style="stroke:#000000;stroke-width:8.64"/>
	<line x1="2700.47" y1="1334.81" x2="2700.47" y2="1290.75" stroke-linecap="round" style="stroke:#000000;stroke-width:8.64"/>
	<line x1="2643.30" y1="1334.81" x2="2643.30" y2="1290.75" stroke-linecap="round" style="stroke:#000000;stroke-width:8.64"/>
	<line x1="2630.80" y1="1208.33" x2="2673.25" y2="1208.33" style="stroke:#000000;stroke-width:8.64"/>
	<line x1="2673.25" y1="1230.36" x2="2673.25" y2="1186.30" stroke-linecap="round" style="stroke:#000000;stroke-width:8.64"/>
	<line x1="2630.80" y1="1230.36" x2="2630.80" y2="1186.30" stroke-linecap="round" style="stroke:#000000;stroke-width:8.64"/>
	<line x1="2606.30" y1="895.11" x2="2668.79" y2="895.11" style="stroke:#000000;stroke-width:8.64"/>
	<line x1="2668.79" y1="917.14" x2="2668.79" y2="873.08" stroke-linecap="round" style="stroke:#000000;stroke-width:8.64"/>
	<line x1="2606.30" y1="917.14" x2="2606.30" y2="873.08" stroke-linecap="round" style="stroke:#000000;stroke-width:8.64"/>
	<line x1="2563.61" y1="790.66" x2="2609.76" y2="790.66" style="stroke:#000000;stroke-width:8.64"/>
	<line x1="2609.76" y1="812.69" x2="2609.76" y2="768.64" stroke-linecap="round" style="stroke:#000000;stroke-width:8.64"/>
	<line x1="2563.61" y1="812.69" x2="2563.61" y2="768.64" stroke-linecap="round" style="stroke:#000000;stroke-width:8.64"/>
	<line x1="2602.71" y1="477.44" x2="2662.36" y2="477.44" style="stroke:#000000;stroke-width:8.64"/>
	<line x1="2662.36" y1="499.47" x2="2662.36" y2="455.41" stroke-linecap="round" style="stroke:#000000;stroke-width:8.64"/>
	<line x1="2602.71" y1="499.47" x2="2602.71" y2="455.41" stroke-linecap="round" style="stroke:#000000;stroke-width:8.64"/>
	<line x1="2573.88" y1="372.99" x2="2617.19" y2="372.99" style="stroke:#000000;stroke-width:8.64"/>
	<line x1="2617.19" y1="395.02" x2="2617.19" y2="350.97" stroke-linecap="round" style="stroke:#000000;stroke-width:8.64"/>
	<line x1="2573.88" y1="395.02" x2="2573.88" y2="350.97" stroke-linecap="round" style="stroke:#000000;stroke-width:8.64"/>
	<text x="236.12" y="2586.83" style="font-family:'Helvetica';font-size:60.02px;fill:#000000"></text>
	<text x="236.12" y="2482.50" style="font-family:'Helvetica';font-size:60.02px;fill:#000000"></text>
	<text x="236.12" y="2378.05" style="font-family:'Helvetica';font-weight:bold;font-size:60.02px;fill:#000000">Non-PH fitted (N=35458188)</text>
	<text x="236.12" y="2273.61" style="font-family:'Helvetica';font-size:60.02px;fill:#000000"></text>
	<text x="236.12" y="2169.16" style="font-family:'Helvetica';font-size:60.02px;fill:#000000"></text>
	<text x="236.12" y="2064.83" style="font-family:'Helvetica';font-size:60.02px;fill:#000000"></text>
	<text x="236.12" y="1960.39" style="font-family:'Helvetica';font-weight:bold;font-size:60.02px;fill:#000000">Participants with at least 12 months registration at GP  (N=11038873)</text>
	<text x="236.12" y="1855.94" style="font-family:'Helvetica';font-size:60.02px;fill:#000000"></text>
	<text x="236.12" y="1751.49" style="font-family:'Helvetica';font-size:60.02px;fill:#000000"></text>
	<text x="236.12" y="1647.04" style="font-family:'Helvetica';font-size:60.02px;fill:#000000"></text>
	<text x="236.12" y="1542.72" style="font-family:'Helvetica';font-weight:bold;font-size:60.02px;fill:#000000">Age used as the underlying timescale in the cox model  (N=11872324)</text>
	<text x="236.12" y="1438.27" style="font-family:'Helvetica';font-size:60.02px;fill:#000000"></text>
	<text x="236.12" y="1333.82" style="font-family:'Helvetica';font-size:60.02px;fill:#000000"></text>
	<text x="236.12" y="1229.37" style="font-family:'Helvetica';font-size:60.02px;fill:#000000"></text>
	<text x="236.12" y="1125.05" style="font-family:'Helvetica';font-weight:bold;font-size:60.02px;fill:#000000">Restricted to participants with complete data on BMI and smoking  (N=8923306)</text>
	<text x="236.12" y="1020.60" style="font-family:'Helvetica';font-size:60.02px;fill:#000000"></text>
	<text x="236.12" y="916.15" style="font-family:'Helvetica';font-size:60.02px;fill:#000000"></text>
	<text x="236.12" y="811.70" style="font-family:'Helvetica';font-size:60.02px;fill:#000000"></text>
	<text x="236.12" y="707.25" style="font-family:'Helvetica';font-weight:bold;font-size:60.02px;fill:#000000">Additionally adjusting for ethnicity, BMI and smoking, where data is complete  (N=7364186)</text>
	<text x="236.12" y="602.93" style="font-family:'Helvetica';font-size:60.02px;fill:#000000"></text>
	<text x="236.12" y="498.48" style="font-family:'Helvetica';font-size:60.02px;fill:#000000"></text>
	<text x="236.12" y="394.03" style="font-family:'Helvetica';font-size:60.02px;fill:#000000"></text>
	<text x="236.12" y="289.58" style="font-family:'Helvetica';font-weight:bold;font-size:60.02px;fill:#000000">Additionally adjusting for ethnicity (N=9004061)</text>
	<text x="236.12" y="185.26" style="font-family:'Helvetica';font-size:60.02px;fill:#000000"></text>
	<text x="300.84" y="2586.83" style="font-family:'Helvetica';font-size:60.02px;fill:#000000">Children/young people aged 11-&lt;18 years</text>
	<text x="300.84" y="2482.50" style="font-family:'Helvetica';font-size:60.02px;fill:#000000">Children under 12 years</text>
	<text x="300.84" y="2169.16" style="font-family:'Helvetica';font-size:60.02px;fill:#000000">Children/young people aged 11-&lt;18 years</text>
	<text x="300.84" y="2064.83" style="font-family:'Helvetica';font-size:60.02px;fill:#000000">Children under 12 years</text>
	<text x="300.84" y="1751.49" style="font-family:'Helvetica';font-size:60.02px;fill:#000000">Children/young people aged 11-&lt;18 years</text>
	<text x="300.84" y="1647.04" style="font-family:'Helvetica';font-size:60.02px;fill:#000000">Children under 12 years</text>
	<text x="300.84" y="1333.82" style="font-family:'Helvetica';font-size:60.02px;fill:#000000">Children/young people aged 11-&lt;18 years</text>
	<text x="300.84" y="1229.37" style="font-family:'Helvetica';font-size:60.02px;fill:#000000">Children under 12 years</text>
	<text x="300.84" y="916.15" style="font-family:'Helvetica';font-size:60.02px;fill:#000000">Children/young people aged 11-&lt;18 years</text>
	<text x="300.84" y="811.70" style="font-family:'Helvetica';font-size:60.02px;fill:#000000">Children under 12 years</text>
	<text x="300.84" y="498.48" style="font-family:'Helvetica';font-size:60.02px;fill:#000000">Children/young people aged 11-&lt;18 years</text>
	<text x="300.84" y="394.03" style="font-family:'Helvetica';font-size:60.02px;fill:#000000">Children under 12 years</text>
	<text x="3242.62" y="2586.83" style="font-family:'Helvetica';font-size:60.02px;fill:#000000">1.17 (1.13-1.22)</text>
	<text x="3242.62" y="2482.50" style="font-family:'Helvetica';font-size:60.02px;fill:#000000">1.15 (1.12-1.19)</text>
	<text x="3242.62" y="2169.16" style="font-family:'Helvetica';font-size:60.02px;fill:#000000">1.16 (1.12-1.21)</text>
	<text x="3242.62" y="2064.83" style="font-family:'Helvetica';font-size:60.02px;fill:#000000">1.18 (1.15-1.22)</text>
	<text x="3242.62" y="1751.49" style="font-family:'Helvetica';font-size:60.02px;fill:#000000">1.17 (1.12-1.21)</text>
	<text x="3242.62" y="1647.04" style="font-family:'Helvetica';font-size:60.02px;fill:#000000">1.17 (1.14-1.20)</text>
	<text x="3242.62" y="1333.82" style="font-family:'Helvetica';font-size:60.02px;fill:#000000">1.15 (1.10-1.20)</text>
	<text x="3242.62" y="1229.37" style="font-family:'Helvetica';font-size:60.02px;fill:#000000">1.12 (1.08-1.15)</text>
	<text x="3242.62" y="916.15" style="font-family:'Helvetica';font-size:60.02px;fill:#000000">1.09 (1.04-1.14)</text>
	<text x="3242.62" y="811.70" style="font-family:'Helvetica';font-size:60.02px;fill:#000000">1.01 (0.98-1.05)</text>
	<text x="3242.62" y="498.48" style="font-family:'Helvetica';font-size:60.02px;fill:#000000">1.08 (1.04-1.13)</text>
	<text x="3242.62" y="394.03" style="font-family:'Helvetica';font-size:60.02px;fill:#000000">1.03 (0.99-1.06)</text>
	<text x="3242.62" y="2586.83" style="font-family:'Helvetica';font-size:60.02px;fill:#000000"></text>
	<text x="3242.62" y="2482.50" style="font-family:'Helvetica';font-size:60.02px;fill:#000000"></text>
	<text x="3242.62" y="2378.05" style="font-family:'Helvetica';font-size:60.02px;fill:#000000"></text>
	<text x="3242.62" y="2273.61" style="font-family:'Helvetica';font-size:60.02px;fill:#000000"></text>
	<text x="3242.62" y="2169.16" style="font-family:'Helvetica';font-size:60.02px;fill:#000000"></text>
	<text x="3242.62" y="2064.83" style="font-family:'Helvetica';font-size:60.02px;fill:#000000"></text>
	<text x="3242.62" y="1960.39" style="font-family:'Helvetica';font-size:60.02px;fill:#000000"></text>
	<text x="3242.62" y="1855.94" style="font-family:'Helvetica';font-size:60.02px;fill:#000000"></text>
	<text x="3242.62" y="1751.49" style="font-family:'Helvetica';font-size:60.02px;fill:#000000"></text>
	<text x="3242.62" y="1647.04" style="font-family:'Helvetica';font-size:60.02px;fill:#000000"></text>
	<text x="3242.62" y="1542.72" style="font-family:'Helvetica';font-size:60.02px;fill:#000000"></text>
	<text x="3242.62" y="1438.27" style="font-family:'Helvetica';font-size:60.02px;fill:#000000"></text>
	<text x="3242.62" y="1333.82" style="font-family:'Helvetica';font-size:60.02px;fill:#000000"></text>
	<text x="3242.62" y="1229.37" style="font-family:'Helvetica';font-size:60.02px;fill:#000000"></text>
	<text x="3242.62" y="1125.05" style="font-family:'Helvetica';font-size:60.02px;fill:#000000"></text>
	<text x="3242.62" y="1020.60" style="font-family:'Helvetica';font-size:60.02px;fill:#000000"></text>
	<text x="3242.62" y="916.15" style="font-family:'Helvetica';font-size:60.02px;fill:#000000"></text>
	<text x="3242.62" y="811.70" style="font-family:'Helvetica';font-size:60.02px;fill:#000000"></text>
	<text x="3242.62" y="707.25" style="font-family:'Helvetica';font-size:60.02px;fill:#000000"></text>
	<text x="3242.62" y="602.93" style="font-family:'Helvetica';font-size:60.02px;fill:#000000"></text>
	<text x="3242.62" y="498.48" style="font-family:'Helvetica';font-size:60.02px;fill:#000000"></text>
	<text x="3242.62" y="394.03" style="font-family:'Helvetica';font-size:60.02px;fill:#000000"></text>
	<text x="3242.62" y="289.58" style="font-family:'Helvetica';font-size:60.02px;fill:#000000"></text>
	<text x="3242.62" y="185.26" style="font-family:'Helvetica';font-size:60.02px;fill:#000000"></text>
	<text x="1972.82" y="2900.17" style="font-family:'Helvetica';font-size:60.02px;fill:#000000" text-anchor="middle">Lower risk in those living with children</text>
	<text x="3347.81" y="2900.17" style="font-family:'Helvetica';font-size:60.02px;fill:#000000" text-anchor="middle">Higher risk in those living with children</text>
	<line x1="130.80" y1="2629.15" x2="130.80" y2="100.86" style="stroke:#FFFFFF;stroke-width:5.76"/>
	<line x1="130.80" y1="2629.15" x2="3859.02" y2="2629.15" style="stroke:#000000;stroke-width:5.76"/>
	<line x1="2106.60" y1="2629.15" x2="2106.60" y2="2669.25" style="stroke:#000000;stroke-width:5.76"/>
	<text x="2106.60" y="2731.12" style="font-family:'Helvetica';font-size:60.02px;fill:#000000" text-anchor="middle">.5</text>
	<line x1="2577.71" y1="2629.15" x2="2577.71" y2="2669.25" style="stroke:#000000;stroke-width:5.76"/>
	<text x="2577.71" y="2731.12" style="font-family:'Helvetica';font-size:60.02px;fill:#000000" text-anchor="middle">1</text>
	<line x1="3048.95" y1="2629.15" x2="3048.95" y2="2669.25" style="stroke:#000000;stroke-width:5.76"/>
	<text x="3048.95" y="2731.12" style="font-family:'Helvetica';font-size:60.02px;fill:#000000" text-anchor="middle">2</text>
</svg>
