<?xml version="1.0" encoding="UTF-8" standalone="no"?>
<!-- This is a Stata 16.1 generated SVG file (http://www.stata.com) -->

<svg version="1.1" width="5.50in" height="4.00in" viewBox="0 0 3960 2880" xmlns="http://www.w3.org/2000/svg" xmlns:xlink="http://www.w3.org/1999/xlink">
	<desc>Stata Graph - Graph</desc>
	<rect x="0" y="0" width="3960" height="2880" style="fill:#EAF2F3;stroke:none"/>
	<rect x="0.00" y="0.00" width="3959.88" height="2880.00" style="fill:#FFFFFF"/>
	<rect x="2.88" y="2.88" width="3954.12" height="2874.24" style="fill:none;stroke:#FFFFFF;stroke-width:5.76"/>
	<rect x="130.80" y="100.86" width="3728.22" height="2528.29" style="fill:#FFFFFF"/>
	<rect x="133.68" y="103.74" width="3722.46" height="2522.53" style="fill:none;stroke:#FFFFFF;stroke-width:5.76"/>
	<line x1="2555.44" y1="2629.15" x2="2555.44" y2="2571.61" style="stroke:#C10534;stroke-width:8.64"/>
	<line x1="2555.44" y1="2542.77" x2="2555.44" y2="2485.23" style="stroke:#C10534;stroke-width:8.64"/>
	<line x1="2555.44" y1="2456.39" x2="2555.44" y2="2398.84" style="stroke:#C10534;stroke-width:8.64"/>
	<line x1="2555.44" y1="2370.01" x2="2555.44" y2="2312.46" style="stroke:#C10534;stroke-width:8.64"/>
	<line x1="2555.44" y1="2283.63" x2="2555.44" y2="2226.08" style="stroke:#C10534;stroke-width:8.64"/>
	<line x1="2555.44" y1="2197.25" x2="2555.44" y2="2139.58" style="stroke:#C10534;stroke-width:8.64"/>
	<line x1="2555.44" y1="2110.87" x2="2555.44" y2="2053.20" style="stroke:#C10534;stroke-width:8.64"/>
	<line x1="2555.44" y1="2024.49" x2="2555.44" y2="1966.82" style="stroke:#C10534;stroke-width:8.64"/>
	<line x1="2555.44" y1="1937.99" x2="2555.44" y2="1880.44" style="stroke:#C10534;stroke-width:8.64"/>
	<line x1="2555.44" y1="1851.61" x2="2555.44" y2="1794.06" style="stroke:#C10534;stroke-width:8.64"/>
	<line x1="2555.44" y1="1765.23" x2="2555.44" y2="1707.68" style="stroke:#C10534;stroke-width:8.64"/>
	<line x1="2555.44" y1="1678.84" x2="2555.44" y2="1621.30" style="stroke:#C10534;stroke-width:8.64"/>
	<line x1="2555.44" y1="1592.46" x2="2555.44" y2="1534.92" style="stroke:#C10534;stroke-width:8.64"/>
	<line x1="2555.44" y1="1506.08" x2="2555.44" y2="1448.54" style="stroke:#C10534;stroke-width:8.64"/>
	<line x1="2555.44" y1="1419.70" x2="2555.44" y2="1362.16" style="stroke:#C10534;stroke-width:8.64"/>
	<line x1="2555.44" y1="1333.32" x2="2555.44" y2="1275.78" style="stroke:#C10534;stroke-width:8.64"/>
	<line x1="2555.44" y1="1246.94" x2="2555.44" y2="1189.27" style="stroke:#C10534;stroke-width:8.64"/>
	<line x1="2555.44" y1="1160.56" x2="2555.44" y2="1102.89" style="stroke:#C10534;stroke-width:8.64"/>
	<line x1="2555.44" y1="1074.18" x2="2555.44" y2="1016.51" style="stroke:#C10534;stroke-width:8.64"/>
	<line x1="2555.44" y1="987.68" x2="2555.44" y2="930.13" style="stroke:#C10534;stroke-width:8.64"/>
	<line x1="2555.44" y1="901.30" x2="2555.44" y2="843.75" style="stroke:#C10534;stroke-width:8.64"/>
	<line x1="2555.44" y1="814.92" x2="2555.44" y2="757.37" style="stroke:#C10534;stroke-width:8.64"/>
	<line x1="2555.44" y1="728.54" x2="2555.44" y2="670.99" style="stroke:#C10534;stroke-width:8.64"/>
	<line x1="2555.44" y1="642.16" x2="2555.44" y2="584.61" style="stroke:#C10534;stroke-width:8.64"/>
	<line x1="2555.44" y1="555.78" x2="2555.44" y2="498.23" style="stroke:#C10534;stroke-width:8.64"/>
	<line x1="2555.44" y1="469.40" x2="2555.44" y2="411.85" style="stroke:#C10534;stroke-width:8.64"/>
	<line x1="2555.44" y1="383.02" x2="2555.44" y2="325.47" style="stroke:#C10534;stroke-width:8.64"/>
	<line x1="2555.44" y1="296.64" x2="2555.44" y2="238.97" style="stroke:#C10534;stroke-width:8.64"/>
	<line x1="2555.44" y1="210.26" x2="2555.44" y2="152.59" style="stroke:#C10534;stroke-width:8.64"/>
	<line x1="2555.44" y1="123.75" x2="2555.44" y2="100.86" style="stroke:#C10534;stroke-width:8.64"/>
	<circle cx="2657.66" cy="335.74" r="19.29" style="fill:#000000"/>
	<circle cx="2657.66" cy="335.74" r="14.97" style="fill:none;stroke:#000000;stroke-width:8.64"/>
	<circle cx="2652.21" cy="507.27" r="19.29" style="fill:#000000"/>
	<circle cx="2652.21" cy="507.27" r="14.97" style="fill:none;stroke:#000000;stroke-width:8.64"/>
	<circle cx="2631.05" cy="850.44" r="19.29" style="fill:#000000"/>
	<circle cx="2631.05" cy="850.44" r="14.97" style="fill:none;stroke:#000000;stroke-width:8.64"/>
	<circle cx="2666.19" cy="1021.96" r="19.29" style="fill:#000000"/>
	<circle cx="2666.19" cy="1021.96" r="14.97" style="fill:none;stroke:#000000;stroke-width:8.64"/>
	<circle cx="2660.87" cy="1365.01" r="19.29" style="fill:#000000"/>
	<circle cx="2660.87" cy="1365.01" r="14.97" style="fill:none;stroke:#000000;stroke-width:8.64"/>
	<circle cx="2686.61" cy="1536.65" r="19.29" style="fill:#000000"/>
	<circle cx="2686.61" cy="1536.65" r="14.97" style="fill:none;stroke:#000000;stroke-width:8.64"/>
	<circle cx="2445.05" cy="1879.70" r="19.29" style="fill:#000000"/>
	<circle cx="2445.05" cy="1879.70" r="14.97" style="fill:none;stroke:#000000;stroke-width:8.64"/>
	<circle cx="2526.85" cy="2051.22" r="19.29" style="fill:#000000"/>
	<circle cx="2526.85" cy="2051.22" r="14.97" style="fill:none;stroke:#000000;stroke-width:8.64"/>
	<circle cx="2275.14" cy="2394.39" r="19.29" style="fill:#000000"/>
	<circle cx="2275.14" cy="2394.39" r="14.97" style="fill:none;stroke:#000000;stroke-width:8.64"/>
	<circle cx="2328.97" cy="2565.91" r="19.29" style="fill:#000000"/>
	<circle cx="2328.97" cy="2565.91" r="14.97" style="fill:none;stroke:#000000;stroke-width:8.64"/>
	<line x1="2637.86" y1="335.74" x2="2677.58" y2="335.74" style="stroke:#000000;stroke-width:8.64"/>
	<line x1="2677.58" y1="357.77" x2="2677.58" y2="313.72" stroke-linecap="round" style="stroke:#000000;stroke-width:8.64"/>
	<line x1="2637.86" y1="357.77" x2="2637.86" y2="313.72" stroke-linecap="round" style="stroke:#000000;stroke-width:8.64"/>
	<line x1="2624.99" y1="507.27" x2="2679.43" y2="507.27" style="stroke:#000000;stroke-width:8.64"/>
	<line x1="2679.43" y1="529.30" x2="2679.43" y2="485.24" stroke-linecap="round" style="stroke:#000000;stroke-width:8.64"/>
	<line x1="2624.99" y1="529.30" x2="2624.99" y2="485.24" stroke-linecap="round" style="stroke:#000000;stroke-width:8.64"/>
	<line x1="2580.06" y1="850.31" x2="2682.16" y2="850.31" style="stroke:#000000;stroke-width:8.64"/>
	<line x1="2682.16" y1="872.34" x2="2682.16" y2="828.28" stroke-linecap="round" style="stroke:#000000;stroke-width:8.64"/>
	<line x1="2580.06" y1="872.34" x2="2580.06" y2="828.28" stroke-linecap="round" style="stroke:#000000;stroke-width:8.64"/>
	<line x1="2602.96" y1="1021.96" x2="2729.55" y2="1021.96" style="stroke:#000000;stroke-width:8.64"/>
	<line x1="2729.55" y1="1043.99" x2="2729.55" y2="999.93" stroke-linecap="round" style="stroke:#000000;stroke-width:8.64"/>
	<line x1="2602.96" y1="1043.99" x2="2602.96" y2="999.93" stroke-linecap="round" style="stroke:#000000;stroke-width:8.64"/>
	<line x1="2564.47" y1="1365.01" x2="2757.52" y2="1365.01" style="stroke:#000000;stroke-width:8.64"/>
	<line x1="2757.52" y1="1387.03" x2="2757.52" y2="1342.98" stroke-linecap="round" style="stroke:#000000;stroke-width:8.64"/>
	<line x1="2564.47" y1="1387.03" x2="2564.47" y2="1342.98" stroke-linecap="round" style="stroke:#000000;stroke-width:8.64"/>
	<line x1="2573.75" y1="1536.53" x2="2799.47" y2="1536.53" style="stroke:#000000;stroke-width:8.64"/>
	<line x1="2799.47" y1="1558.56" x2="2799.47" y2="1514.50" stroke-linecap="round" style="stroke:#000000;stroke-width:8.64"/>
	<line x1="2573.75" y1="1558.56" x2="2573.75" y2="1514.50" stroke-linecap="round" style="stroke:#000000;stroke-width:8.64"/>
	<line x1="2316.72" y1="1879.70" x2="2573.51" y2="1879.70" style="stroke:#000000;stroke-width:8.64"/>
	<line x1="2573.51" y1="1901.73" x2="2573.51" y2="1857.67" stroke-linecap="round" style="stroke:#000000;stroke-width:8.64"/>
	<line x1="2316.72" y1="1901.73" x2="2316.72" y2="1857.67" stroke-linecap="round" style="stroke:#000000;stroke-width:8.64"/>
	<line x1="2380.70" y1="2051.22" x2="2673.12" y2="2051.22" style="stroke:#000000;stroke-width:8.64"/>
	<line x1="2673.12" y1="2073.25" x2="2673.12" y2="2029.19" stroke-linecap="round" style="stroke:#000000;stroke-width:8.64"/>
	<line x1="2380.70" y1="2073.25" x2="2380.70" y2="2029.19" stroke-linecap="round" style="stroke:#000000;stroke-width:8.64"/>
	<line x1="2219.46" y1="2394.27" x2="2330.95" y2="2394.27" style="stroke:#000000;stroke-width:8.64"/>
	<line x1="2330.95" y1="2416.29" x2="2330.95" y2="2372.24" stroke-linecap="round" style="stroke:#000000;stroke-width:8.64"/>
	<line x1="2219.46" y1="2416.29" x2="2219.46" y2="2372.24" stroke-linecap="round" style="stroke:#000000;stroke-width:8.64"/>
	<line x1="2267.35" y1="2565.79" x2="2390.73" y2="2565.79" style="stroke:#000000;stroke-width:8.64"/>
	<line x1="2390.73" y1="2587.82" x2="2390.73" y2="2543.76" stroke-linecap="round" style="stroke:#000000;stroke-width:8.64"/>
	<line x1="2267.35" y1="2587.82" x2="2267.35" y2="2543.76" stroke-linecap="round" style="stroke:#000000;stroke-width:8.64"/>
	<text x="236.12" y="185.26" style="font-family:'Helvetica';font-weight:bold;font-size:60.02px;fill:#000000">COVID-19 diagnosed in primary care</text>
	<text x="236.12" y="356.78" style="font-family:'Helvetica';font-size:60.02px;fill:#000000"></text>
	<text x="236.12" y="528.31" style="font-family:'Helvetica';font-size:60.02px;fill:#000000"></text>
	<text x="236.12" y="699.83" style="font-family:'Helvetica';font-weight:bold;font-size:60.02px;fill:#000000">COVID-19 hospital admission</text>
	<text x="236.12" y="871.35" style="font-family:'Helvetica';font-size:60.02px;fill:#000000"></text>
	<text x="236.12" y="1043.00" style="font-family:'Helvetica';font-size:60.02px;fill:#000000"></text>
	<text x="236.12" y="1214.52" style="font-family:'Helvetica';font-weight:bold;font-size:60.02px;fill:#000000">COVID-19 ICU admission</text>
	<text x="236.12" y="1386.04" style="font-family:'Helvetica';font-size:60.02px;fill:#000000"></text>
	<text x="236.12" y="1557.57" style="font-family:'Helvetica';font-size:60.02px;fill:#000000"></text>
	<text x="236.12" y="1729.09" style="font-family:'Helvetica';font-weight:bold;font-size:60.02px;fill:#000000">COVID-19 death</text>
	<text x="236.12" y="1900.74" style="font-family:'Helvetica';font-size:60.02px;fill:#000000"></text>
	<text x="236.12" y="2072.26" style="font-family:'Helvetica';font-size:60.02px;fill:#000000"></text>
	<text x="236.12" y="2243.78" style="font-family:'Helvetica';font-weight:bold;font-size:60.02px;fill:#000000">Non COVID-19 death</text>
	<text x="236.12" y="2415.30" style="font-family:'Helvetica';font-size:60.02px;fill:#000000"></text>
	<text x="236.12" y="2586.83" style="font-family:'Helvetica';font-size:60.02px;fill:#000000"></text>
	<text x="369.27" y="356.78" style="font-family:'Helvetica';font-size:60.02px;fill:#000000">Children under 12 years</text>
	<text x="369.27" y="528.31" style="font-family:'Helvetica';font-size:60.02px;fill:#000000">Children/young people aged 11-&lt;18 years</text>
	<text x="369.27" y="871.35" style="font-family:'Helvetica';font-size:60.02px;fill:#000000">Children under 12 years</text>
	<text x="369.27" y="1043.00" style="font-family:'Helvetica';font-size:60.02px;fill:#000000">Children/young people aged 11-&lt;18 years</text>
	<text x="369.27" y="1386.04" style="font-family:'Helvetica';font-size:60.02px;fill:#000000">Children under 12 years</text>
	<text x="369.27" y="1557.57" style="font-family:'Helvetica';font-size:60.02px;fill:#000000">Children/young people aged 11-&lt;18 years</text>
	<text x="369.27" y="1900.74" style="font-family:'Helvetica';font-size:60.02px;fill:#000000">Children under 12 years</text>
	<text x="369.27" y="2072.26" style="font-family:'Helvetica';font-size:60.02px;fill:#000000">Children/young people aged 11-&lt;18 years</text>
	<text x="369.27" y="2415.30" style="font-family:'Helvetica';font-size:60.02px;fill:#000000">Children under 12 years</text>
	<text x="369.27" y="2586.83" style="font-family:'Helvetica';font-size:60.02px;fill:#000000">Children/young people aged 11-&lt;18 years</text>
	<text x="3357.83" y="356.78" style="font-family:'Helvetica';font-size:60.02px;fill:#000000">1.16 (1.13-1.19)</text>
	<text x="3357.83" y="528.31" style="font-family:'Helvetica';font-size:60.02px;fill:#000000">1.15 (1.11-1.20)</text>
	<text x="3357.83" y="871.35" style="font-family:'Helvetica';font-size:60.02px;fill:#000000">1.12 (1.04-1.20)</text>
	<text x="3357.83" y="1043.00" style="font-family:'Helvetica';font-size:60.02px;fill:#000000">1.17 (1.07-1.29)</text>
	<text x="3357.83" y="1386.04" style="font-family:'Helvetica';font-size:60.02px;fill:#000000">1.16 (1.01-1.34)</text>
	<text x="3357.83" y="1557.57" style="font-family:'Helvetica';font-size:60.02px;fill:#000000">1.21 (1.03-1.42)</text>
	<text x="3357.83" y="1900.74" style="font-family:'Helvetica';font-size:60.02px;fill:#000000">0.85 (0.71-1.03)</text>
	<text x="3357.83" y="2072.26" style="font-family:'Helvetica';font-size:60.02px;fill:#000000">0.96 (0.78-1.19)</text>
	<text x="3357.83" y="2415.30" style="font-family:'Helvetica';font-size:60.02px;fill:#000000">0.67 (0.62-0.72)</text>
	<text x="3357.83" y="2586.83" style="font-family:'Helvetica';font-size:60.02px;fill:#000000">0.72 (0.66-0.79)</text>
	<text x="3357.83" y="185.26" style="font-family:'Helvetica';font-size:60.02px;fill:#000000"></text>
	<text x="3357.83" y="356.78" style="font-family:'Helvetica';font-size:60.02px;fill:#000000"></text>
	<text x="3357.83" y="528.31" style="font-family:'Helvetica';font-size:60.02px;fill:#000000"></text>
	<text x="3357.83" y="699.83" style="font-family:'Helvetica';font-size:60.02px;fill:#000000"></text>
	<text x="3357.83" y="871.35" style="font-family:'Helvetica';font-size:60.02px;fill:#000000"></text>
	<text x="3357.83" y="1043.00" style="font-family:'Helvetica';font-size:60.02px;fill:#000000"></text>
	<text x="3357.83" y="1214.52" style="font-family:'Helvetica';font-size:60.02px;fill:#000000"></text>
	<text x="3357.83" y="1386.04" style="font-family:'Helvetica';font-size:60.02px;fill:#000000"></text>
	<text x="3357.83" y="1557.57" style="font-family:'Helvetica';font-size:60.02px;fill:#000000"></text>
	<text x="3357.83" y="1729.09" style="font-family:'Helvetica';font-size:60.02px;fill:#000000"></text>
	<text x="3357.83" y="1900.74" style="font-family:'Helvetica';font-size:60.02px;fill:#000000"></text>
	<text x="3357.83" y="2072.26" style="font-family:'Helvetica';font-size:60.02px;fill:#000000"></text>
	<text x="3357.83" y="2243.78" style="font-family:'Helvetica';font-size:60.02px;fill:#000000"></text>
	<text x="3357.83" y="2415.30" style="font-family:'Helvetica';font-size:60.02px;fill:#000000"></text>
	<text x="3357.83" y="2586.83" style="font-family:'Helvetica';font-size:60.02px;fill:#000000"></text>
	<text x="1450.60" y="2844.24" style="font-family:'Helvetica';font-size:60.02px;fill:#000000" text-anchor="middle">Lower risk in those living with children</text>
	<text x="3330.48" y="2844.24" style="font-family:'Helvetica';font-size:60.02px;fill:#000000" text-anchor="middle">Higher risk in those living with children</text>
	<line x1="130.80" y1="2629.15" x2="130.80" y2="100.86" style="stroke:#FFFFFF;stroke-width:5.76"/>
	<line x1="130.80" y1="2629.15" x2="3859.02" y2="2629.15" style="stroke:#000000;stroke-width:5.76"/>
	<line x1="2075.66" y1="2629.15" x2="2075.66" y2="2669.25" style="stroke:#000000;stroke-width:5.76"/>
	<text x="2075.66" y="2731.12" style="font-family:'Helvetica';font-size:60.02px;fill:#000000" text-anchor="middle">.5</text>
	<line x1="2555.44" y1="2629.15" x2="2555.44" y2="2669.25" style="stroke:#000000;stroke-width:5.76"/>
	<text x="2555.44" y="2731.12" style="font-family:'Helvetica';font-size:60.02px;fill:#000000" text-anchor="middle">1</text>
	<line x1="3035.22" y1="2629.15" x2="3035.22" y2="2669.25" style="stroke:#000000;stroke-width:5.76"/>
	<text x="3035.22" y="2731.12" style="font-family:'Helvetica';font-size:60.02px;fill:#000000" text-anchor="middle">2</text>
</svg>
