<?xml version="1.0" encoding="UTF-8" standalone="no"?>
<!-- This is a Stata 16.1 generated SVG file (http://www.stata.com) -->

<svg version="1.1" width="5.50in" height="4.00in" viewBox="0 0 3960 2880" xmlns="http://www.w3.org/2000/svg" xmlns:xlink="http://www.w3.org/1999/xlink">
	<desc>Stata Graph - Graph</desc>
	<rect x="0" y="0" width="3960" height="2880" style="fill:#EAF2F3;stroke:none"/>
	<rect x="0.00" y="0.00" width="3959.88" height="2880.00" style="fill:#EAF2F3"/>
	<rect x="2.88" y="2.88" width="3954.12" height="2874.24" style="fill:none;stroke:#EAF2F3;stroke-width:5.76"/>
	<rect x="390.80" y="100.86" width="3468.22" height="2388.33" style="fill:#FFFFFF"/>
	<rect x="393.68" y="103.74" width="3462.46" height="2382.57" style="fill:none;stroke:#FFFFFF;stroke-width:5.76"/>
	<line x1="390.80" y1="4101.95" x2="3859.02" y2="4101.95" style="stroke:#EAF2F3;stroke-width:8.64"/>
	<line x1="390.80" y1="3117.48" x2="3859.02" y2="3117.48" style="stroke:#EAF2F3;stroke-width:8.64"/>
	<line x1="390.80" y1="2133.02" x2="3859.02" y2="2133.02" style="stroke:#EAF2F3;stroke-width:8.64"/>
	<line x1="390.80" y1="1148.56" x2="3859.02" y2="1148.56" style="stroke:#EAF2F3;stroke-width:8.64"/>
	<line x1="390.80" y1="164.22" x2="3859.02" y2="164.22" style="stroke:#EAF2F3;stroke-width:8.64"/>
	<line x1="390.80" y1="852.29" x2="3859.02" y2="852.29" style="stroke:#EAF2F3;stroke-width:8.64"/>
	<line x1="390.80" y1="-1837.50" x2="448.35" y2="-1837.50" style="stroke:#C10534;stroke-width:8.64"/>
	<line x1="477.18" y1="-1837.50" x2="534.72" y2="-1837.50" style="stroke:#C10534;stroke-width:8.64"/>
	<line x1="563.56" y1="-1837.50" x2="621.23" y2="-1837.50" style="stroke:#C10534;stroke-width:8.64"/>
	<line x1="649.93" y1="-1837.50" x2="707.60" y2="-1837.50" style="stroke:#C10534;stroke-width:8.64"/>
	<line x1="736.44" y1="-1837.50" x2="793.98" y2="-1837.50" style="stroke:#C10534;stroke-width:8.64"/>
	<line x1="822.81" y1="-1837.50" x2="880.36" y2="-1837.50" style="stroke:#C10534;stroke-width:8.64"/>
	<line x1="909.19" y1="-1837.50" x2="966.74" y2="-1837.50" style="stroke:#C10534;stroke-width:8.64"/>
	<line x1="995.57" y1="-1837.50" x2="1053.11" y2="-1837.50" style="stroke:#C10534;stroke-width:8.64"/>
	<line x1="1081.95" y1="-1837.50" x2="1139.49" y2="-1837.50" style="stroke:#C10534;stroke-width:8.64"/>
	<line x1="1168.32" y1="-1837.50" x2="1225.87" y2="-1837.50" style="stroke:#C10534;stroke-width:8.64"/>
	<line x1="1254.70" y1="-1837.50" x2="1312.24" y2="-1837.50" style="stroke:#C10534;stroke-width:8.64"/>
	<line x1="1341.08" y1="-1837.50" x2="1398.62" y2="-1837.50" style="stroke:#C10534;stroke-width:8.64"/>
	<line x1="1427.46" y1="-1837.50" x2="1485.00" y2="-1837.50" style="stroke:#C10534;stroke-width:8.64"/>
	<line x1="1513.83" y1="-1837.50" x2="1571.50" y2="-1837.50" style="stroke:#C10534;stroke-width:8.64"/>
	<line x1="1600.21" y1="-1837.50" x2="1657.88" y2="-1837.50" style="stroke:#C10534;stroke-width:8.64"/>
	<line x1="1686.71" y1="-1837.50" x2="1744.26" y2="-1837.50" style="stroke:#C10534;stroke-width:8.64"/>
	<line x1="1773.09" y1="-1837.50" x2="1830.63" y2="-1837.50" style="stroke:#C10534;stroke-width:8.64"/>
	<line x1="1859.47" y1="-1837.50" x2="1917.01" y2="-1837.50" style="stroke:#C10534;stroke-width:8.64"/>
	<line x1="1945.85" y1="-1837.50" x2="2003.39" y2="-1837.50" style="stroke:#C10534;stroke-width:8.64"/>
	<line x1="2032.22" y1="-1837.50" x2="2089.77" y2="-1837.50" style="stroke:#C10534;stroke-width:8.64"/>
	<line x1="2118.60" y1="-1837.50" x2="2176.14" y2="-1837.50" style="stroke:#C10534;stroke-width:8.64"/>
	<line x1="2204.98" y1="-1837.50" x2="2262.52" y2="-1837.50" style="stroke:#C10534;stroke-width:8.64"/>
	<line x1="2291.36" y1="-1837.50" x2="2348.90" y2="-1837.50" style="stroke:#C10534;stroke-width:8.64"/>
	<line x1="2377.73" y1="-1837.50" x2="2435.40" y2="-1837.50" style="stroke:#C10534;stroke-width:8.64"/>
	<line x1="2464.11" y1="-1837.50" x2="2521.78" y2="-1837.50" style="stroke:#C10534;stroke-width:8.64"/>
	<line x1="2550.49" y1="-1837.50" x2="2608.16" y2="-1837.50" style="stroke:#C10534;stroke-width:8.64"/>
	<line x1="2636.99" y1="-1837.50" x2="2694.53" y2="-1837.50" style="stroke:#C10534;stroke-width:8.64"/>
	<line x1="2723.37" y1="-1837.50" x2="2780.91" y2="-1837.50" style="stroke:#C10534;stroke-width:8.64"/>
	<line x1="2809.74" y1="-1837.50" x2="2867.29" y2="-1837.50" style="stroke:#C10534;stroke-width:8.64"/>
	<line x1="2896.12" y1="-1837.50" x2="2953.66" y2="-1837.50" style="stroke:#C10534;stroke-width:8.64"/>
	<line x1="2982.50" y1="-1837.50" x2="3040.04" y2="-1837.50" style="stroke:#C10534;stroke-width:8.64"/>
	<line x1="3068.88" y1="-1837.50" x2="3126.42" y2="-1837.50" style="stroke:#C10534;stroke-width:8.64"/>
	<line x1="3155.25" y1="-1837.50" x2="3212.80" y2="-1837.50" style="stroke:#C10534;stroke-width:8.64"/>
	<line x1="3241.63" y1="-1837.50" x2="3299.18" y2="-1837.50" style="stroke:#C10534;stroke-width:8.64"/>
	<line x1="3328.01" y1="-1837.50" x2="3385.68" y2="-1837.50" style="stroke:#C10534;stroke-width:8.64"/>
	<line x1="3414.39" y1="-1837.50" x2="3472.05" y2="-1837.50" style="stroke:#C10534;stroke-width:8.64"/>
	<line x1="3500.76" y1="-1837.50" x2="3558.43" y2="-1837.50" style="stroke:#C10534;stroke-width:8.64"/>
	<line x1="3587.26" y1="-1837.50" x2="3644.81" y2="-1837.50" style="stroke:#C10534;stroke-width:8.64"/>
	<line x1="3673.64" y1="-1837.50" x2="3731.19" y2="-1837.50" style="stroke:#C10534;stroke-width:8.64"/>
	<line x1="3760.02" y1="-1837.50" x2="3817.56" y2="-1837.50" style="stroke:#C10534;stroke-width:8.64"/>
	<line x1="3846.40" y1="-1837.50" x2="3859.02" y2="-1837.50" style="stroke:#C10534;stroke-width:8.64"/>
	<path d=" M454.04 2425.95 L530.02 2405.90 L606.00 2384.98 L681.86 2361.84 L757.85 2335.61 L833.83 2305.29 L909.69 2269.65 L985.67 2228.31 L1061.65 2182.28 L1137.63 2133.15 L1213.49 2082.53 L1289.47 2032.16 L1365.46 1983.16 L1441.32 1935.76 L1517.30 1889.85 L1593.28 1845.17 L1669.14 1801.73 L1745.12 1759.28 L1821.11 1717.70 L1897.09 1676.86 L1972.95 1636.52 L2048.93 1596.67 L2124.91 1557.19 L2200.77 1517.72 L2276.75 1478.36 L2352.74 1439.01 L2428.59 1399.53 L2504.58 1360.18 L2580.56 1320.83 L2656.54 1281.35 L2732.40 1241.99 L2808.38 1202.64 L2884.36 1163.16 L2960.22 1123.81 L3036.21 1084.46 L3112.19 1045.10 L3188.05 1005.62 L3264.03 966.27 L3340.01 926.92 L3415.99 887.44 L3491.85 848.09 L3567.84 808.73 L3643.82 769.25 L3719.68 729.90 L3795.66 690.55" stroke-linejoin="round" style="fill:none;stroke:#1A476F;stroke-width:8.64"/>
	<line x1="390.80" y1="2489.19" x2="390.80" y2="100.86" style="stroke:#000000;stroke-width:5.76"/>
	<line x1="390.80" y1="4101.95" x2="350.83" y2="4101.95" style="stroke:#000000;stroke-width:5.76"/>
	<text x="300.72" y="4101.95" style="font-family:'Helvetica';font-size:99.99px;fill:#000000" transform="rotate(-90 300.72,4101.95)" text-anchor="middle">.01</text>
	<line x1="390.80" y1="3117.48" x2="350.83" y2="3117.48" style="stroke:#000000;stroke-width:5.76"/>
	<text x="300.72" y="3117.48" style="font-family:'Helvetica';font-size:99.99px;fill:#000000" transform="rotate(-90 300.72,3117.48)" text-anchor="middle">.1</text>
	<line x1="390.80" y1="2133.02" x2="350.83" y2="2133.02" style="stroke:#000000;stroke-width:5.76"/>
	<text x="300.72" y="2133.02" style="font-family:'Helvetica';font-size:99.99px;fill:#000000" transform="rotate(-90 300.72,2133.02)" text-anchor="middle">1</text>
	<line x1="390.80" y1="1148.56" x2="350.83" y2="1148.56" style="stroke:#000000;stroke-width:5.76"/>
	<text x="300.72" y="1148.56" style="font-family:'Helvetica';font-size:99.99px;fill:#000000" transform="rotate(-90 300.72,1148.56)" text-anchor="middle">10</text>
	<line x1="390.80" y1="164.22" x2="350.83" y2="164.22" style="stroke:#000000;stroke-width:5.76"/>
	<text x="300.72" y="164.22" style="font-family:'Helvetica';font-size:99.99px;fill:#000000" transform="rotate(-90 300.72,164.22)" text-anchor="middle">100</text>
	<line x1="390.80" y1="852.29" x2="350.83" y2="852.29" style="stroke:#000000;stroke-width:5.76"/>
	<text x="300.72" y="852.29" style="font-family:'Helvetica';font-size:99.99px;fill:#000000" transform="rotate(-90 300.72,852.29)" text-anchor="middle">20</text>
	<text x="190.71" y="1294.96" style="font-family:'Helvetica';font-size:99.99px;fill:#000000" transform="rotate(-90 190.71,1294.96)" text-anchor="middle">Hazard ratio compared to age 75 years (log scale)</text>
	<line x1="390.80" y1="2489.19" x2="3859.02" y2="2489.19" style="stroke:#000000;stroke-width:5.76"/>
	<line x1="757.97" y1="2489.19" x2="757.97" y2="2529.16" style="stroke:#000000;stroke-width:5.76"/>
	<text x="757.97" y="2619.14" style="font-family:'Helvetica';font-size:99.99px;fill:#000000" text-anchor="middle">70</text>
	<line x1="1517.42" y1="2489.19" x2="1517.42" y2="2529.16" style="stroke:#000000;stroke-width:5.76"/>
	<text x="1517.42" y="2619.14" style="font-family:'Helvetica';font-size:99.99px;fill:#000000" text-anchor="middle">80</text>
	<line x1="2276.88" y1="2489.19" x2="2276.88" y2="2529.16" style="stroke:#000000;stroke-width:5.76"/>
	<text x="2276.88" y="2619.14" style="font-family:'Helvetica';font-size:99.99px;fill:#000000" text-anchor="middle">90</text>
	<line x1="3036.33" y1="2489.19" x2="3036.33" y2="2529.16" style="stroke:#000000;stroke-width:5.76"/>
	<text x="3036.33" y="2619.14" style="font-family:'Helvetica';font-size:99.99px;fill:#000000" text-anchor="middle">100</text>
	<line x1="3795.66" y1="2489.19" x2="3795.66" y2="2529.16" style="stroke:#000000;stroke-width:5.76"/>
	<text x="3795.66" y="2619.14" style="font-family:'Helvetica';font-size:99.99px;fill:#000000" text-anchor="middle">110</text>
	<text x="2124.91" y="2729.16" style="font-family:'Helvetica';font-size:99.99px;fill:#000000" text-anchor="middle">Age in years</text>
</svg>
