<?xml version="1.0" encoding="UTF-8" standalone="no"?>
<!-- This is a Stata 16.1 generated SVG file (http://www.stata.com) -->

<svg version="1.1" width="5.50in" height="4.00in" viewBox="0 0 3960 2880" xmlns="http://www.w3.org/2000/svg" xmlns:xlink="http://www.w3.org/1999/xlink">
	<desc>Stata Graph - Graph</desc>
	<rect x="0" y="0" width="3960" height="2880" style="fill:#EAF2F3;stroke:none"/>
	<rect x="0.00" y="0.00" width="3959.88" height="2880.00" style="fill:#EAF2F3"/>
	<rect x="2.88" y="2.88" width="3954.12" height="2874.24" style="fill:none;stroke:#EAF2F3;stroke-width:5.76"/>
	<rect x="390.80" y="100.86" width="3468.22" height="2388.33" style="fill:#FFFFFF"/>
	<rect x="393.68" y="103.74" width="3462.46" height="2382.57" style="fill:none;stroke:#FFFFFF;stroke-width:5.76"/>
	<line x1="390.80" y1="3350.02" x2="3859.02" y2="3350.02" style="stroke:#EAF2F3;stroke-width:8.64"/>
	<line x1="390.80" y1="2553.54" x2="3859.02" y2="2553.54" style="stroke:#EAF2F3;stroke-width:8.64"/>
	<line x1="390.80" y1="1757.06" x2="3859.02" y2="1757.06" style="stroke:#EAF2F3;stroke-width:8.64"/>
	<line x1="390.80" y1="960.58" x2="3859.02" y2="960.58" style="stroke:#EAF2F3;stroke-width:8.64"/>
	<line x1="390.80" y1="164.22" x2="3859.02" y2="164.22" style="stroke:#EAF2F3;stroke-width:8.64"/>
	<line x1="390.80" y1="720.87" x2="3859.02" y2="720.87" style="stroke:#EAF2F3;stroke-width:8.64"/>
	<line x1="390.80" y1="1483.31" x2="448.35" y2="1483.31" style="stroke:#C10534;stroke-width:8.64"/>
	<line x1="477.18" y1="1483.31" x2="534.72" y2="1483.31" style="stroke:#C10534;stroke-width:8.64"/>
	<line x1="563.56" y1="1483.31" x2="621.23" y2="1483.31" style="stroke:#C10534;stroke-width:8.64"/>
	<line x1="649.93" y1="1483.31" x2="707.60" y2="1483.31" style="stroke:#C10534;stroke-width:8.64"/>
	<line x1="736.44" y1="1483.31" x2="793.98" y2="1483.31" style="stroke:#C10534;stroke-width:8.64"/>
	<line x1="822.81" y1="1483.31" x2="880.36" y2="1483.31" style="stroke:#C10534;stroke-width:8.64"/>
	<line x1="909.19" y1="1483.31" x2="966.74" y2="1483.31" style="stroke:#C10534;stroke-width:8.64"/>
	<line x1="995.57" y1="1483.31" x2="1053.11" y2="1483.31" style="stroke:#C10534;stroke-width:8.64"/>
	<line x1="1081.95" y1="1483.31" x2="1139.49" y2="1483.31" style="stroke:#C10534;stroke-width:8.64"/>
	<line x1="1168.32" y1="1483.31" x2="1225.87" y2="1483.31" style="stroke:#C10534;stroke-width:8.64"/>
	<line x1="1254.70" y1="1483.31" x2="1312.24" y2="1483.31" style="stroke:#C10534;stroke-width:8.64"/>
	<line x1="1341.08" y1="1483.31" x2="1398.62" y2="1483.31" style="stroke:#C10534;stroke-width:8.64"/>
	<line x1="1427.46" y1="1483.31" x2="1485.00" y2="1483.31" style="stroke:#C10534;stroke-width:8.64"/>
	<line x1="1513.83" y1="1483.31" x2="1571.50" y2="1483.31" style="stroke:#C10534;stroke-width:8.64"/>
	<line x1="1600.21" y1="1483.31" x2="1657.88" y2="1483.31" style="stroke:#C10534;stroke-width:8.64"/>
	<line x1="1686.71" y1="1483.31" x2="1744.26" y2="1483.31" style="stroke:#C10534;stroke-width:8.64"/>
	<line x1="1773.09" y1="1483.31" x2="1830.63" y2="1483.31" style="stroke:#C10534;stroke-width:8.64"/>
	<line x1="1859.47" y1="1483.31" x2="1917.01" y2="1483.31" style="stroke:#C10534;stroke-width:8.64"/>
	<line x1="1945.85" y1="1483.31" x2="2003.39" y2="1483.31" style="stroke:#C10534;stroke-width:8.64"/>
	<line x1="2032.22" y1="1483.31" x2="2089.77" y2="1483.31" style="stroke:#C10534;stroke-width:8.64"/>
	<line x1="2118.60" y1="1483.31" x2="2176.14" y2="1483.31" style="stroke:#C10534;stroke-width:8.64"/>
	<line x1="2204.98" y1="1483.31" x2="2262.52" y2="1483.31" style="stroke:#C10534;stroke-width:8.64"/>
	<line x1="2291.36" y1="1483.31" x2="2348.90" y2="1483.31" style="stroke:#C10534;stroke-width:8.64"/>
	<line x1="2377.73" y1="1483.31" x2="2435.40" y2="1483.31" style="stroke:#C10534;stroke-width:8.64"/>
	<line x1="2464.11" y1="1483.31" x2="2521.78" y2="1483.31" style="stroke:#C10534;stroke-width:8.64"/>
	<line x1="2550.49" y1="1483.31" x2="2608.16" y2="1483.31" style="stroke:#C10534;stroke-width:8.64"/>
	<line x1="2636.99" y1="1483.31" x2="2694.53" y2="1483.31" style="stroke:#C10534;stroke-width:8.64"/>
	<line x1="2723.37" y1="1483.31" x2="2780.91" y2="1483.31" style="stroke:#C10534;stroke-width:8.64"/>
	<line x1="2809.74" y1="1483.31" x2="2867.29" y2="1483.31" style="stroke:#C10534;stroke-width:8.64"/>
	<line x1="2896.12" y1="1483.31" x2="2953.66" y2="1483.31" style="stroke:#C10534;stroke-width:8.64"/>
	<line x1="2982.50" y1="1483.31" x2="3040.04" y2="1483.31" style="stroke:#C10534;stroke-width:8.64"/>
	<line x1="3068.88" y1="1483.31" x2="3126.42" y2="1483.31" style="stroke:#C10534;stroke-width:8.64"/>
	<line x1="3155.25" y1="1483.31" x2="3212.80" y2="1483.31" style="stroke:#C10534;stroke-width:8.64"/>
	<line x1="3241.63" y1="1483.31" x2="3299.18" y2="1483.31" style="stroke:#C10534;stroke-width:8.64"/>
	<line x1="3328.01" y1="1483.31" x2="3385.68" y2="1483.31" style="stroke:#C10534;stroke-width:8.64"/>
	<line x1="3414.39" y1="1483.31" x2="3472.05" y2="1483.31" style="stroke:#C10534;stroke-width:8.64"/>
	<line x1="3500.76" y1="1483.31" x2="3558.43" y2="1483.31" style="stroke:#C10534;stroke-width:8.64"/>
	<line x1="3587.26" y1="1483.31" x2="3644.81" y2="1483.31" style="stroke:#C10534;stroke-width:8.64"/>
	<line x1="3673.64" y1="1483.31" x2="3731.19" y2="1483.31" style="stroke:#C10534;stroke-width:8.64"/>
	<line x1="3760.02" y1="1483.31" x2="3817.56" y2="1483.31" style="stroke:#C10534;stroke-width:8.64"/>
	<line x1="3846.40" y1="1483.31" x2="3859.02" y2="1483.31" style="stroke:#C10534;stroke-width:8.64"/>
	<path d=" M454.04 2425.95 L518.39 2396.86 L582.62 2367.66 L646.84 2283.26 L711.07 2309.62 L775.42 2280.66 L839.64 2196.51 L903.87 2223.24 L968.22 2194.77 L1032.45 2166.68 L1096.67 2138.84 L1160.90 2111.49 L1225.25 2084.51 L1289.47 2057.90 L1353.70 1994.05 L1418.05 1968.68 L1482.28 1943.80 L1546.50 1901.97 L1610.73 1933.78 L1675.08 1873.14 L1739.31 1851.11 L1803.53 1867.57 L1867.88 1809.16 L1932.11 1827.35 L1996.34 1770.55 L2060.56 1752.60 L2124.91 1717.95 L2189.14 1757.18 L2253.36 1741.96 L2317.59 1727.85 L2381.94 1676.74 L2446.17 1702.48 L2510.39 1691.34 L2574.74 1681.07 L2638.97 1671.67 L2703.20 1663.00 L2767.42 1655.08 L2831.77 1647.66 L2896.00 1640.98 L2960.22 1596.92 L3024.57 1590.98 L3088.80 1623.28 L3153.03 1580.34 L3217.25 1613.13 L3281.60 1608.18 L3345.83 1603.48 L3410.05 1598.65 L3474.41 1593.83" stroke-linejoin="round" style="fill:none;stroke:#1A476F;stroke-width:8.64"/>
	<line x1="390.80" y1="2489.19" x2="390.80" y2="100.86" style="stroke:#000000;stroke-width:5.76"/>
	<line x1="390.80" y1="3350.02" x2="350.83" y2="3350.02" style="stroke:#000000;stroke-width:5.76"/>
	<text x="300.72" y="3350.02" style="font-family:'Helvetica';font-size:99.99px;fill:#000000" transform="rotate(-90 300.72,3350.02)" text-anchor="middle">.01</text>
	<line x1="390.80" y1="2553.54" x2="350.83" y2="2553.54" style="stroke:#000000;stroke-width:5.76"/>
	<text x="300.72" y="2553.54" style="font-family:'Helvetica';font-size:99.99px;fill:#000000" transform="rotate(-90 300.72,2553.54)" text-anchor="middle">.1</text>
	<line x1="390.80" y1="1757.06" x2="350.83" y2="1757.06" style="stroke:#000000;stroke-width:5.76"/>
	<text x="300.72" y="1757.06" style="font-family:'Helvetica';font-size:99.99px;fill:#000000" transform="rotate(-90 300.72,1757.06)" text-anchor="middle">1</text>
	<line x1="390.80" y1="960.58" x2="350.83" y2="960.58" style="stroke:#000000;stroke-width:5.76"/>
	<text x="300.72" y="960.58" style="font-family:'Helvetica';font-size:99.99px;fill:#000000" transform="rotate(-90 300.72,960.58)" text-anchor="middle">10</text>
	<line x1="390.80" y1="164.22" x2="350.83" y2="164.22" style="stroke:#000000;stroke-width:5.76"/>
	<text x="300.72" y="164.22" style="font-family:'Helvetica';font-size:99.99px;fill:#000000" transform="rotate(-90 300.72,164.22)" text-anchor="middle">100</text>
	<line x1="390.80" y1="720.87" x2="350.83" y2="720.87" style="stroke:#000000;stroke-width:5.76"/>
	<text x="300.72" y="720.87" style="font-family:'Helvetica';font-size:99.99px;fill:#000000" transform="rotate(-90 300.72,720.87)" text-anchor="middle">20</text>
	<text x="190.71" y="1294.96" style="font-family:'Helvetica';font-size:99.99px;fill:#000000" transform="rotate(-90 190.71,1294.96)" text-anchor="middle">Hazard ratio compared to age 45 years (log scale)</text>
	<line x1="390.80" y1="2489.19" x2="3859.02" y2="2489.19" style="stroke:#000000;stroke-width:5.76"/>
	<line x1="582.62" y1="2489.19" x2="582.62" y2="2529.16" style="stroke:#000000;stroke-width:5.76"/>
	<text x="582.62" y="2619.14" style="font-family:'Helvetica';font-size:99.99px;fill:#000000" text-anchor="middle">20</text>
	<line x1="1225.25" y1="2489.19" x2="1225.25" y2="2529.16" style="stroke:#000000;stroke-width:5.76"/>
	<text x="1225.25" y="2619.14" style="font-family:'Helvetica';font-size:99.99px;fill:#000000" text-anchor="middle">30</text>
	<line x1="1867.88" y1="2489.19" x2="1867.88" y2="2529.16" style="stroke:#000000;stroke-width:5.76"/>
	<text x="1867.88" y="2619.14" style="font-family:'Helvetica';font-size:99.99px;fill:#000000" text-anchor="middle">40</text>
	<line x1="2510.52" y1="2489.19" x2="2510.52" y2="2529.16" style="stroke:#000000;stroke-width:5.76"/>
	<text x="2510.52" y="2619.14" style="font-family:'Helvetica';font-size:99.99px;fill:#000000" text-anchor="middle">50</text>
	<line x1="3153.15" y1="2489.19" x2="3153.15" y2="2529.16" style="stroke:#000000;stroke-width:5.76"/>
	<text x="3153.15" y="2619.14" style="font-family:'Helvetica';font-size:99.99px;fill:#000000" text-anchor="middle">60</text>
	<line x1="3795.66" y1="2489.19" x2="3795.66" y2="2529.16" style="stroke:#000000;stroke-width:5.76"/>
	<text x="3795.66" y="2619.14" style="font-family:'Helvetica';font-size:99.99px;fill:#000000" text-anchor="middle">70</text>
	<text x="2124.91" y="2729.16" style="font-family:'Helvetica';font-size:99.99px;fill:#000000" text-anchor="middle">Age in years</text>
</svg>
