<?xml version="1.0" encoding="UTF-8" standalone="no"?>
<!-- This is a Stata 16.1 generated SVG file (http://www.stata.com) -->

<svg version="1.1" width="5.50in" height="4.00in" viewBox="0 0 3960 2880" xmlns="http://www.w3.org/2000/svg" xmlns:xlink="http://www.w3.org/1999/xlink">
	<desc>Stata Graph - Graph</desc>
	<rect x="0" y="0" width="3960" height="2880" style="fill:#EAF2F3;stroke:none"/>
	<rect x="0.00" y="0.00" width="3959.88" height="2880.00" style="fill:#EAF2F3"/>
	<rect x="2.88" y="2.88" width="3954.12" height="2874.24" style="fill:none;stroke:#EAF2F3;stroke-width:5.76"/>
	<rect x="390.80" y="100.86" width="3468.22" height="2388.33" style="fill:#FFFFFF"/>
	<rect x="393.68" y="103.74" width="3462.46" height="2382.57" style="fill:none;stroke:#FFFFFF;stroke-width:5.76"/>
	<line x1="390.80" y1="4382.62" x2="3859.02" y2="4382.62" style="stroke:#EAF2F3;stroke-width:8.64"/>
	<line x1="390.80" y1="3327.99" x2="3859.02" y2="3327.99" style="stroke:#EAF2F3;stroke-width:8.64"/>
	<line x1="390.80" y1="2273.36" x2="3859.02" y2="2273.36" style="stroke:#EAF2F3;stroke-width:8.64"/>
	<line x1="390.80" y1="1218.73" x2="3859.02" y2="1218.73" style="stroke:#EAF2F3;stroke-width:8.64"/>
	<line x1="390.80" y1="164.22" x2="3859.02" y2="164.22" style="stroke:#EAF2F3;stroke-width:8.64"/>
	<line x1="390.80" y1="901.30" x2="3859.02" y2="901.30" style="stroke:#EAF2F3;stroke-width:8.64"/>
	<line x1="390.80" y1="-3191.12" x2="448.35" y2="-3191.12" style="stroke:#C10534;stroke-width:8.64"/>
	<line x1="477.18" y1="-3191.12" x2="534.72" y2="-3191.12" style="stroke:#C10534;stroke-width:8.64"/>
	<line x1="563.56" y1="-3191.12" x2="621.23" y2="-3191.12" style="stroke:#C10534;stroke-width:8.64"/>
	<line x1="649.93" y1="-3191.12" x2="707.60" y2="-3191.12" style="stroke:#C10534;stroke-width:8.64"/>
	<line x1="736.44" y1="-3191.12" x2="793.98" y2="-3191.12" style="stroke:#C10534;stroke-width:8.64"/>
	<line x1="822.81" y1="-3191.12" x2="880.36" y2="-3191.12" style="stroke:#C10534;stroke-width:8.64"/>
	<line x1="909.19" y1="-3191.12" x2="966.74" y2="-3191.12" style="stroke:#C10534;stroke-width:8.64"/>
	<line x1="995.57" y1="-3191.12" x2="1053.11" y2="-3191.12" style="stroke:#C10534;stroke-width:8.64"/>
	<line x1="1081.95" y1="-3191.12" x2="1139.49" y2="-3191.12" style="stroke:#C10534;stroke-width:8.64"/>
	<line x1="1168.32" y1="-3191.12" x2="1225.87" y2="-3191.12" style="stroke:#C10534;stroke-width:8.64"/>
	<line x1="1254.70" y1="-3191.12" x2="1312.24" y2="-3191.12" style="stroke:#C10534;stroke-width:8.64"/>
	<line x1="1341.08" y1="-3191.12" x2="1398.62" y2="-3191.12" style="stroke:#C10534;stroke-width:8.64"/>
	<line x1="1427.46" y1="-3191.12" x2="1485.00" y2="-3191.12" style="stroke:#C10534;stroke-width:8.64"/>
	<line x1="1513.83" y1="-3191.12" x2="1571.50" y2="-3191.12" style="stroke:#C10534;stroke-width:8.64"/>
	<line x1="1600.21" y1="-3191.12" x2="1657.88" y2="-3191.12" style="stroke:#C10534;stroke-width:8.64"/>
	<line x1="1686.71" y1="-3191.12" x2="1744.26" y2="-3191.12" style="stroke:#C10534;stroke-width:8.64"/>
	<line x1="1773.09" y1="-3191.12" x2="1830.63" y2="-3191.12" style="stroke:#C10534;stroke-width:8.64"/>
	<line x1="1859.47" y1="-3191.12" x2="1917.01" y2="-3191.12" style="stroke:#C10534;stroke-width:8.64"/>
	<line x1="1945.85" y1="-3191.12" x2="2003.39" y2="-3191.12" style="stroke:#C10534;stroke-width:8.64"/>
	<line x1="2032.22" y1="-3191.12" x2="2089.77" y2="-3191.12" style="stroke:#C10534;stroke-width:8.64"/>
	<line x1="2118.60" y1="-3191.12" x2="2176.14" y2="-3191.12" style="stroke:#C10534;stroke-width:8.64"/>
	<line x1="2204.98" y1="-3191.12" x2="2262.52" y2="-3191.12" style="stroke:#C10534;stroke-width:8.64"/>
	<line x1="2291.36" y1="-3191.12" x2="2348.90" y2="-3191.12" style="stroke:#C10534;stroke-width:8.64"/>
	<line x1="2377.73" y1="-3191.12" x2="2435.40" y2="-3191.12" style="stroke:#C10534;stroke-width:8.64"/>
	<line x1="2464.11" y1="-3191.12" x2="2521.78" y2="-3191.12" style="stroke:#C10534;stroke-width:8.64"/>
	<line x1="2550.49" y1="-3191.12" x2="2608.16" y2="-3191.12" style="stroke:#C10534;stroke-width:8.64"/>
	<line x1="2636.99" y1="-3191.12" x2="2694.53" y2="-3191.12" style="stroke:#C10534;stroke-width:8.64"/>
	<line x1="2723.37" y1="-3191.12" x2="2780.91" y2="-3191.12" style="stroke:#C10534;stroke-width:8.64"/>
	<line x1="2809.74" y1="-3191.12" x2="2867.29" y2="-3191.12" style="stroke:#C10534;stroke-width:8.64"/>
	<line x1="2896.12" y1="-3191.12" x2="2953.66" y2="-3191.12" style="stroke:#C10534;stroke-width:8.64"/>
	<line x1="2982.50" y1="-3191.12" x2="3040.04" y2="-3191.12" style="stroke:#C10534;stroke-width:8.64"/>
	<line x1="3068.88" y1="-3191.12" x2="3126.42" y2="-3191.12" style="stroke:#C10534;stroke-width:8.64"/>
	<line x1="3155.25" y1="-3191.12" x2="3212.80" y2="-3191.12" style="stroke:#C10534;stroke-width:8.64"/>
	<line x1="3241.63" y1="-3191.12" x2="3299.18" y2="-3191.12" style="stroke:#C10534;stroke-width:8.64"/>
	<line x1="3328.01" y1="-3191.12" x2="3385.68" y2="-3191.12" style="stroke:#C10534;stroke-width:8.64"/>
	<line x1="3414.39" y1="-3191.12" x2="3472.05" y2="-3191.12" style="stroke:#C10534;stroke-width:8.64"/>
	<line x1="3500.76" y1="-3191.12" x2="3558.43" y2="-3191.12" style="stroke:#C10534;stroke-width:8.64"/>
	<line x1="3587.26" y1="-3191.12" x2="3644.81" y2="-3191.12" style="stroke:#C10534;stroke-width:8.64"/>
	<line x1="3673.64" y1="-3191.12" x2="3731.19" y2="-3191.12" style="stroke:#C10534;stroke-width:8.64"/>
	<line x1="3760.02" y1="-3191.12" x2="3817.56" y2="-3191.12" style="stroke:#C10534;stroke-width:8.64"/>
	<line x1="3846.40" y1="-3191.12" x2="3859.02" y2="-3191.12" style="stroke:#C10534;stroke-width:8.64"/>
	<path d=" M454.04 2425.95 L486.83 2416.91 L519.63 2389.32 L552.42 2369.14 L585.09 2372.49 L617.88 2353.06 L650.68 2365.18 L683.35 2349.71 L716.14 2350.95 L748.93 2334.49 L781.73 2295.88 L814.40 2322.61 L847.19 2337.96 L879.99 2333.13 L912.78 2277.44 L945.45 2304.17 L978.24 2278.31 L1011.04 2275.34 L1043.71 2315.93 L1076.50 2281.28 L1109.30 2286.11 L1142.09 2280.04 L1174.76 2258.14 L1207.55 2265.31 L1240.35 2256.53 L1273.14 2270.76 L1305.81 2288.21 L1338.60 2280.91 L1371.40 2263.58 L1404.19 2274.22 L1436.86 2295.88 L1469.65 2270.02 L1502.45 2275.96 L1535.12 2275.71 L1567.91 2295.14 L1600.71 2284.74 L1633.50 2274.35 L1666.17 2273.48 L1698.96 2282.02 L1731.76 2280.66 L1764.55 2278.93 L1797.22 2276.82 L1830.02 2262.59 L1862.81 2261.73 L1895.60 2258.63 L1928.27 2255.17 L1961.07 2263.09 L1993.86 2245.39 L2026.53 2252.82 L2059.32 2238.34 L2092.12 2243.16 L2124.91 2237.96 L2157.58 2222.74 L2190.38 2226.83 L2223.17 2220.89 L2255.96 2204.92 L2288.63 2198.49 L2321.43 2201.71 L2354.22 2185.00 L2387.01 2187.84 L2419.68 2180.54 L2452.48 2174.97 L2485.27 2175.59 L2517.94 2148.12 L2550.74 2149.98 L2583.53 2132.16 L2616.32 2123.99 L2648.99 2127.33 L2681.79 2117.06 L2714.58 2108.64 L2747.37 2099.98 L2780.04 2081.54 L2812.84 2072.75 L2845.63 2063.84 L2878.30 2064.71 L2911.09 2055.80 L2943.89 2046.77 L2976.68 2027.95 L3009.35 2018.80 L3042.15 2009.76 L3074.94 2000.61 L3107.73 2003.08 L3140.40 1982.41 L3173.20 1973.38 L3205.99 1962.24 L3238.78 1964.84 L3271.45 1965.71 L3304.25 1936.87 L3337.04 1937.61 L3369.71 1928.46 L3402.51 1909.52 L3435.30 1900.49 L3468.09 1889.35" stroke-linejoin="round" style="fill:none;stroke:#1A476F;stroke-width:8.64"/>
	<line x1="390.80" y1="2489.19" x2="390.80" y2="100.86" style="stroke:#000000;stroke-width:5.76"/>
	<line x1="390.80" y1="4382.62" x2="350.83" y2="4382.62" style="stroke:#000000;stroke-width:5.76"/>
	<text x="300.72" y="4382.62" style="font-family:'Helvetica';font-size:99.99px;fill:#000000" transform="rotate(-90 300.72,4382.62)" text-anchor="middle">.01</text>
	<line x1="390.80" y1="3327.99" x2="350.83" y2="3327.99" style="stroke:#000000;stroke-width:5.76"/>
	<text x="300.72" y="3327.99" style="font-family:'Helvetica';font-size:99.99px;fill:#000000" transform="rotate(-90 300.72,3327.99)" text-anchor="middle">.1</text>
	<line x1="390.80" y1="2273.36" x2="350.83" y2="2273.36" style="stroke:#000000;stroke-width:5.76"/>
	<text x="300.72" y="2273.36" style="font-family:'Helvetica';font-size:99.99px;fill:#000000" transform="rotate(-90 300.72,2273.36)" text-anchor="middle">1</text>
	<line x1="390.80" y1="1218.73" x2="350.83" y2="1218.73" style="stroke:#000000;stroke-width:5.76"/>
	<text x="300.72" y="1218.73" style="font-family:'Helvetica';font-size:99.99px;fill:#000000" transform="rotate(-90 300.72,1218.73)" text-anchor="middle">10</text>
	<line x1="390.80" y1="164.22" x2="350.83" y2="164.22" style="stroke:#000000;stroke-width:5.76"/>
	<text x="300.72" y="164.22" style="font-family:'Helvetica';font-size:99.99px;fill:#000000" transform="rotate(-90 300.72,164.22)" text-anchor="middle">100</text>
	<line x1="390.80" y1="901.30" x2="350.83" y2="901.30" style="stroke:#000000;stroke-width:5.76"/>
	<text x="300.72" y="901.30" style="font-family:'Helvetica';font-size:99.99px;fill:#000000" transform="rotate(-90 300.72,901.30)" text-anchor="middle">20</text>
	<text x="190.71" y="1294.96" style="font-family:'Helvetica';font-size:99.99px;fill:#000000" transform="rotate(-90 190.71,1294.96)" text-anchor="middle">Hazard ratio compared to age 55 years (log scale)</text>
	<line x1="390.80" y1="2489.19" x2="3859.02" y2="2489.19" style="stroke:#000000;stroke-width:5.76"/>
	<line x1="519.63" y1="2489.19" x2="519.63" y2="2529.16" style="stroke:#000000;stroke-width:5.76"/>
	<text x="519.63" y="2619.14" style="font-family:'Helvetica';font-size:99.99px;fill:#000000" text-anchor="middle">20</text>
	<line x1="1174.88" y1="2489.19" x2="1174.88" y2="2529.16" style="stroke:#000000;stroke-width:5.76"/>
	<text x="1174.88" y="2619.14" style="font-family:'Helvetica';font-size:99.99px;fill:#000000" text-anchor="middle">40</text>
	<line x1="1830.14" y1="2489.19" x2="1830.14" y2="2529.16" style="stroke:#000000;stroke-width:5.76"/>
	<text x="1830.14" y="2619.14" style="font-family:'Helvetica';font-size:99.99px;fill:#000000" text-anchor="middle">60</text>
	<line x1="2485.27" y1="2489.19" x2="2485.27" y2="2529.16" style="stroke:#000000;stroke-width:5.76"/>
	<text x="2485.27" y="2619.14" style="font-family:'Helvetica';font-size:99.99px;fill:#000000" text-anchor="middle">80</text>
	<line x1="3140.53" y1="2489.19" x2="3140.53" y2="2529.16" style="stroke:#000000;stroke-width:5.76"/>
	<text x="3140.53" y="2619.14" style="font-family:'Helvetica';font-size:99.99px;fill:#000000" text-anchor="middle">100</text>
	<line x1="3795.66" y1="2489.19" x2="3795.66" y2="2529.16" style="stroke:#000000;stroke-width:5.76"/>
	<text x="3795.66" y="2619.14" style="font-family:'Helvetica';font-size:99.99px;fill:#000000" text-anchor="middle">120</text>
	<text x="2124.91" y="2729.16" style="font-family:'Helvetica';font-size:99.99px;fill:#000000" text-anchor="middle">Age in years</text>
</svg>
