<?xml version="1.0" encoding="UTF-8" standalone="no"?>
<!-- This is a Stata 16.1 generated SVG file (http://www.stata.com) -->

<svg version="1.1" width="5.50in" height="4.00in" viewBox="0 0 3960 2880" xmlns="http://www.w3.org/2000/svg" xmlns:xlink="http://www.w3.org/1999/xlink">
	<desc>Stata Graph - Graph</desc>
	<rect x="0" y="0" width="3960" height="2880" style="fill:#EAF2F3;stroke:none"/>
	<rect x="0.00" y="0.00" width="3959.88" height="2880.00" style="fill:#EAF2F3"/>
	<rect x="2.88" y="2.88" width="3954.12" height="2874.24" style="fill:none;stroke:#EAF2F3;stroke-width:5.76"/>
	<rect x="390.80" y="100.86" width="3468.22" height="2388.33" style="fill:#FFFFFF"/>
	<rect x="393.68" y="103.74" width="3462.46" height="2382.57" style="fill:none;stroke:#FFFFFF;stroke-width:5.76"/>
	<line x1="390.80" y1="3793.06" x2="3859.02" y2="3793.06" style="stroke:#EAF2F3;stroke-width:8.64"/>
	<line x1="390.80" y1="2885.82" x2="3859.02" y2="2885.82" style="stroke:#EAF2F3;stroke-width:8.64"/>
	<line x1="390.80" y1="1978.58" x2="3859.02" y2="1978.58" style="stroke:#EAF2F3;stroke-width:8.64"/>
	<line x1="390.80" y1="1071.34" x2="3859.02" y2="1071.34" style="stroke:#EAF2F3;stroke-width:8.64"/>
	<line x1="390.80" y1="164.22" x2="3859.02" y2="164.22" style="stroke:#EAF2F3;stroke-width:8.64"/>
	<line x1="390.80" y1="798.34" x2="3859.02" y2="798.34" style="stroke:#EAF2F3;stroke-width:8.64"/>
	<line x1="390.80" y1="-2795.85" x2="448.35" y2="-2795.85" style="stroke:#C10534;stroke-width:8.64"/>
	<line x1="477.18" y1="-2795.85" x2="534.72" y2="-2795.85" style="stroke:#C10534;stroke-width:8.64"/>
	<line x1="563.56" y1="-2795.85" x2="621.23" y2="-2795.85" style="stroke:#C10534;stroke-width:8.64"/>
	<line x1="649.93" y1="-2795.85" x2="707.60" y2="-2795.85" style="stroke:#C10534;stroke-width:8.64"/>
	<line x1="736.44" y1="-2795.85" x2="793.98" y2="-2795.85" style="stroke:#C10534;stroke-width:8.64"/>
	<line x1="822.81" y1="-2795.85" x2="880.36" y2="-2795.85" style="stroke:#C10534;stroke-width:8.64"/>
	<line x1="909.19" y1="-2795.85" x2="966.74" y2="-2795.85" style="stroke:#C10534;stroke-width:8.64"/>
	<line x1="995.57" y1="-2795.85" x2="1053.11" y2="-2795.85" style="stroke:#C10534;stroke-width:8.64"/>
	<line x1="1081.95" y1="-2795.85" x2="1139.49" y2="-2795.85" style="stroke:#C10534;stroke-width:8.64"/>
	<line x1="1168.32" y1="-2795.85" x2="1225.87" y2="-2795.85" style="stroke:#C10534;stroke-width:8.64"/>
	<line x1="1254.70" y1="-2795.85" x2="1312.24" y2="-2795.85" style="stroke:#C10534;stroke-width:8.64"/>
	<line x1="1341.08" y1="-2795.85" x2="1398.62" y2="-2795.85" style="stroke:#C10534;stroke-width:8.64"/>
	<line x1="1427.46" y1="-2795.85" x2="1485.00" y2="-2795.85" style="stroke:#C10534;stroke-width:8.64"/>
	<line x1="1513.83" y1="-2795.85" x2="1571.50" y2="-2795.85" style="stroke:#C10534;stroke-width:8.64"/>
	<line x1="1600.21" y1="-2795.85" x2="1657.88" y2="-2795.85" style="stroke:#C10534;stroke-width:8.64"/>
	<line x1="1686.71" y1="-2795.85" x2="1744.26" y2="-2795.85" style="stroke:#C10534;stroke-width:8.64"/>
	<line x1="1773.09" y1="-2795.85" x2="1830.63" y2="-2795.85" style="stroke:#C10534;stroke-width:8.64"/>
	<line x1="1859.47" y1="-2795.85" x2="1917.01" y2="-2795.85" style="stroke:#C10534;stroke-width:8.64"/>
	<line x1="1945.85" y1="-2795.85" x2="2003.39" y2="-2795.85" style="stroke:#C10534;stroke-width:8.64"/>
	<line x1="2032.22" y1="-2795.85" x2="2089.77" y2="-2795.85" style="stroke:#C10534;stroke-width:8.64"/>
	<line x1="2118.60" y1="-2795.85" x2="2176.14" y2="-2795.85" style="stroke:#C10534;stroke-width:8.64"/>
	<line x1="2204.98" y1="-2795.85" x2="2262.52" y2="-2795.85" style="stroke:#C10534;stroke-width:8.64"/>
	<line x1="2291.36" y1="-2795.85" x2="2348.90" y2="-2795.85" style="stroke:#C10534;stroke-width:8.64"/>
	<line x1="2377.73" y1="-2795.85" x2="2435.40" y2="-2795.85" style="stroke:#C10534;stroke-width:8.64"/>
	<line x1="2464.11" y1="-2795.85" x2="2521.78" y2="-2795.85" style="stroke:#C10534;stroke-width:8.64"/>
	<line x1="2550.49" y1="-2795.85" x2="2608.16" y2="-2795.85" style="stroke:#C10534;stroke-width:8.64"/>
	<line x1="2636.99" y1="-2795.85" x2="2694.53" y2="-2795.85" style="stroke:#C10534;stroke-width:8.64"/>
	<line x1="2723.37" y1="-2795.85" x2="2780.91" y2="-2795.85" style="stroke:#C10534;stroke-width:8.64"/>
	<line x1="2809.74" y1="-2795.85" x2="2867.29" y2="-2795.85" style="stroke:#C10534;stroke-width:8.64"/>
	<line x1="2896.12" y1="-2795.85" x2="2953.66" y2="-2795.85" style="stroke:#C10534;stroke-width:8.64"/>
	<line x1="2982.50" y1="-2795.85" x2="3040.04" y2="-2795.85" style="stroke:#C10534;stroke-width:8.64"/>
	<line x1="3068.88" y1="-2795.85" x2="3126.42" y2="-2795.85" style="stroke:#C10534;stroke-width:8.64"/>
	<line x1="3155.25" y1="-2795.85" x2="3212.80" y2="-2795.85" style="stroke:#C10534;stroke-width:8.64"/>
	<line x1="3241.63" y1="-2795.85" x2="3299.18" y2="-2795.85" style="stroke:#C10534;stroke-width:8.64"/>
	<line x1="3328.01" y1="-2795.85" x2="3385.68" y2="-2795.85" style="stroke:#C10534;stroke-width:8.64"/>
	<line x1="3414.39" y1="-2795.85" x2="3472.05" y2="-2795.85" style="stroke:#C10534;stroke-width:8.64"/>
	<line x1="3500.76" y1="-2795.85" x2="3558.43" y2="-2795.85" style="stroke:#C10534;stroke-width:8.64"/>
	<line x1="3587.26" y1="-2795.85" x2="3644.81" y2="-2795.85" style="stroke:#C10534;stroke-width:8.64"/>
	<line x1="3673.64" y1="-2795.85" x2="3731.19" y2="-2795.85" style="stroke:#C10534;stroke-width:8.64"/>
	<line x1="3760.02" y1="-2795.85" x2="3817.56" y2="-2795.85" style="stroke:#C10534;stroke-width:8.64"/>
	<line x1="3846.40" y1="-2795.85" x2="3859.02" y2="-2795.85" style="stroke:#C10534;stroke-width:8.64"/>
	<path d=" M454.04 2425.95 L486.83 2413.08 L519.63 2309.87 L552.42 2224.60 L585.09 2218.29 L617.88 2281.40 L650.68 2209.01 L683.35 2102.70 L716.14 2317.04 L748.93 2199.35 L781.73 2175.35 L814.40 2147.62 L847.19 2034.88 L879.99 2061.86 L912.78 2096.64 L945.45 2052.71 L978.24 2063.22 L1011.04 2005.80 L1043.71 1884.15 L1076.50 2011.50 L1109.30 2034.27 L1142.09 2024.12 L1174.76 2026.10 L1207.55 2018.43 L1240.35 1970.78 L1273.14 2022.39 L1305.81 2022.88 L1338.60 1860.14 L1371.40 2026.10 L1404.19 1999.49 L1436.86 2031.17 L1469.65 1982.29 L1502.45 1913.85 L1535.12 1942.69 L1567.91 2037.85 L1600.71 1922.64 L1633.50 2042.93 L1666.17 1978.70 L1698.96 1902.22 L1731.76 2023.25 L1764.55 1790.47 L1797.22 1953.33 L1830.02 2043.42 L1862.81 2045.90 L1895.60 1944.54 L1928.27 2032.04 L1961.07 1770.42 L1993.86 1928.09 L2026.53 1921.16 L2059.32 1981.92 L2092.12 1996.89 L2124.91 1987.73 L2157.58 1954.20 L2190.38 1967.19 L2223.17 1956.05 L2255.96 1944.17 L2288.63 1701.62 L2321.43 1918.80 L2354.22 1881.68 L2387.01 1891.21 L2419.68 1853.21 L2452.48 1861.75 L2485.27 1846.28 L2517.94 1830.44 L2550.74 1790.59 L2583.53 1705.33 L2616.32 1756.93 L2648.99 1763.25 L2681.79 1722.04 L2714.58 1704.09 L2747.37 1565.61 L2780.04 1667.58 L2812.84 1672.41 L2845.63 1653.60 L2878.30 1611.15 L2911.09 1615.61 L2943.89 1596.30 L2976.68 1553.48 L3009.35 1327.51 L3042.15 1538.14 L3074.94 1374.78 L3107.73 1475.76 L3140.40 1456.21 L3173.20 1436.78 L3205.99 1296.94 L3238.78 1421.44 L3271.45 1378.37 L3304.25 1358.94 L3337.04 1270.83 L3369.71 1319.96 L3402.51 1300.53 L3435.30 1304.61 L3468.09 1126.53" stroke-linejoin="round" style="fill:none;stroke:#1A476F;stroke-width:8.64"/>
	<line x1="390.80" y1="2489.19" x2="390.80" y2="100.86" style="stroke:#000000;stroke-width:5.76"/>
	<line x1="390.80" y1="3793.06" x2="350.83" y2="3793.06" style="stroke:#000000;stroke-width:5.76"/>
	<text x="300.72" y="3793.06" style="font-family:'Helvetica';font-size:99.99px;fill:#000000" transform="rotate(-90 300.72,3793.06)" text-anchor="middle">.01</text>
	<line x1="390.80" y1="2885.82" x2="350.83" y2="2885.82" style="stroke:#000000;stroke-width:5.76"/>
	<text x="300.72" y="2885.82" style="font-family:'Helvetica';font-size:99.99px;fill:#000000" transform="rotate(-90 300.72,2885.82)" text-anchor="middle">.1</text>
	<line x1="390.80" y1="1978.58" x2="350.83" y2="1978.58" style="stroke:#000000;stroke-width:5.76"/>
	<text x="300.72" y="1978.58" style="font-family:'Helvetica';font-size:99.99px;fill:#000000" transform="rotate(-90 300.72,1978.58)" text-anchor="middle">1</text>
	<line x1="390.80" y1="1071.34" x2="350.83" y2="1071.34" style="stroke:#000000;stroke-width:5.76"/>
	<text x="300.72" y="1071.34" style="font-family:'Helvetica';font-size:99.99px;fill:#000000" transform="rotate(-90 300.72,1071.34)" text-anchor="middle">10</text>
	<line x1="390.80" y1="164.22" x2="350.83" y2="164.22" style="stroke:#000000;stroke-width:5.76"/>
	<text x="300.72" y="164.22" style="font-family:'Helvetica';font-size:99.99px;fill:#000000" transform="rotate(-90 300.72,164.22)" text-anchor="middle">100</text>
	<line x1="390.80" y1="798.34" x2="350.83" y2="798.34" style="stroke:#000000;stroke-width:5.76"/>
	<text x="300.72" y="798.34" style="font-family:'Helvetica';font-size:99.99px;fill:#000000" transform="rotate(-90 300.72,798.34)" text-anchor="middle">20</text>
	<text x="190.71" y="1294.96" style="font-family:'Helvetica';font-size:99.99px;fill:#000000" transform="rotate(-90 190.71,1294.96)" text-anchor="middle">Hazard ratio compared to age 55 years (log scale)</text>
	<line x1="390.80" y1="2489.19" x2="3859.02" y2="2489.19" style="stroke:#000000;stroke-width:5.76"/>
	<line x1="519.63" y1="2489.19" x2="519.63" y2="2529.16" style="stroke:#000000;stroke-width:5.76"/>
	<text x="519.63" y="2619.14" style="font-family:'Helvetica';font-size:99.99px;fill:#000000" text-anchor="middle">20</text>
	<line x1="1174.88" y1="2489.19" x2="1174.88" y2="2529.16" style="stroke:#000000;stroke-width:5.76"/>
	<text x="1174.88" y="2619.14" style="font-family:'Helvetica';font-size:99.99px;fill:#000000" text-anchor="middle">40</text>
	<line x1="1830.14" y1="2489.19" x2="1830.14" y2="2529.16" style="stroke:#000000;stroke-width:5.76"/>
	<text x="1830.14" y="2619.14" style="font-family:'Helvetica';font-size:99.99px;fill:#000000" text-anchor="middle">60</text>
	<line x1="2485.27" y1="2489.19" x2="2485.27" y2="2529.16" style="stroke:#000000;stroke-width:5.76"/>
	<text x="2485.27" y="2619.14" style="font-family:'Helvetica';font-size:99.99px;fill:#000000" text-anchor="middle">80</text>
	<line x1="3140.53" y1="2489.19" x2="3140.53" y2="2529.16" style="stroke:#000000;stroke-width:5.76"/>
	<text x="3140.53" y="2619.14" style="font-family:'Helvetica';font-size:99.99px;fill:#000000" text-anchor="middle">100</text>
	<line x1="3795.66" y1="2489.19" x2="3795.66" y2="2529.16" style="stroke:#000000;stroke-width:5.76"/>
	<text x="3795.66" y="2619.14" style="font-family:'Helvetica';font-size:99.99px;fill:#000000" text-anchor="middle">120</text>
	<text x="2124.91" y="2729.16" style="font-family:'Helvetica';font-size:99.99px;fill:#000000" text-anchor="middle">Age in years</text>
</svg>
