<?xml version="1.0" encoding="UTF-8" standalone="no"?>
<!-- This is a Stata 16.1 generated SVG file (http://www.stata.com) -->

<svg version="1.1" width="5.50in" height="4.00in" viewBox="0 0 3960 2880" xmlns="http://www.w3.org/2000/svg" xmlns:xlink="http://www.w3.org/1999/xlink">
	<desc>Stata Graph - Graph</desc>
	<rect x="0" y="0" width="3960" height="2880" style="fill:#EAF2F3;stroke:none"/>
	<rect x="0.00" y="0.00" width="3959.88" height="2880.00" style="fill:#EAF2F3"/>
	<rect x="2.88" y="2.88" width="3954.12" height="2874.24" style="fill:none;stroke:#EAF2F3;stroke-width:5.76"/>
	<rect x="390.80" y="100.86" width="3468.22" height="2388.33" style="fill:#FFFFFF"/>
	<rect x="393.68" y="103.74" width="3462.46" height="2382.57" style="fill:none;stroke:#FFFFFF;stroke-width:5.76"/>
	<line x1="390.80" y1="2403.42" x2="3859.02" y2="2403.42" style="stroke:#EAF2F3;stroke-width:8.64"/>
	<line x1="390.80" y1="1904.82" x2="3859.02" y2="1904.82" style="stroke:#EAF2F3;stroke-width:8.64"/>
	<line x1="390.80" y1="1406.22" x2="3859.02" y2="1406.22" style="stroke:#EAF2F3;stroke-width:8.64"/>
	<line x1="390.80" y1="907.61" x2="3859.02" y2="907.61" style="stroke:#EAF2F3;stroke-width:8.64"/>
	<line x1="390.80" y1="409.01" x2="3859.02" y2="409.01" style="stroke:#EAF2F3;stroke-width:8.64"/>
	<line x1="390.80" y1="757.50" x2="3859.02" y2="757.50" style="stroke:#EAF2F3;stroke-width:8.64"/>
	<line x1="390.80" y1="1493.96" x2="448.35" y2="1493.96" style="stroke:#C10534;stroke-width:8.64"/>
	<line x1="477.18" y1="1493.96" x2="534.72" y2="1493.96" style="stroke:#C10534;stroke-width:8.64"/>
	<line x1="563.56" y1="1493.96" x2="621.23" y2="1493.96" style="stroke:#C10534;stroke-width:8.64"/>
	<line x1="649.93" y1="1493.96" x2="707.60" y2="1493.96" style="stroke:#C10534;stroke-width:8.64"/>
	<line x1="736.44" y1="1493.96" x2="793.98" y2="1493.96" style="stroke:#C10534;stroke-width:8.64"/>
	<line x1="822.81" y1="1493.96" x2="880.36" y2="1493.96" style="stroke:#C10534;stroke-width:8.64"/>
	<line x1="909.19" y1="1493.96" x2="966.74" y2="1493.96" style="stroke:#C10534;stroke-width:8.64"/>
	<line x1="995.57" y1="1493.96" x2="1053.11" y2="1493.96" style="stroke:#C10534;stroke-width:8.64"/>
	<line x1="1081.95" y1="1493.96" x2="1139.49" y2="1493.96" style="stroke:#C10534;stroke-width:8.64"/>
	<line x1="1168.32" y1="1493.96" x2="1225.87" y2="1493.96" style="stroke:#C10534;stroke-width:8.64"/>
	<line x1="1254.70" y1="1493.96" x2="1312.24" y2="1493.96" style="stroke:#C10534;stroke-width:8.64"/>
	<line x1="1341.08" y1="1493.96" x2="1398.62" y2="1493.96" style="stroke:#C10534;stroke-width:8.64"/>
	<line x1="1427.46" y1="1493.96" x2="1485.00" y2="1493.96" style="stroke:#C10534;stroke-width:8.64"/>
	<line x1="1513.83" y1="1493.96" x2="1571.50" y2="1493.96" style="stroke:#C10534;stroke-width:8.64"/>
	<line x1="1600.21" y1="1493.96" x2="1657.88" y2="1493.96" style="stroke:#C10534;stroke-width:8.64"/>
	<line x1="1686.71" y1="1493.96" x2="1744.26" y2="1493.96" style="stroke:#C10534;stroke-width:8.64"/>
	<line x1="1773.09" y1="1493.96" x2="1830.63" y2="1493.96" style="stroke:#C10534;stroke-width:8.64"/>
	<line x1="1859.47" y1="1493.96" x2="1917.01" y2="1493.96" style="stroke:#C10534;stroke-width:8.64"/>
	<line x1="1945.85" y1="1493.96" x2="2003.39" y2="1493.96" style="stroke:#C10534;stroke-width:8.64"/>
	<line x1="2032.22" y1="1493.96" x2="2089.77" y2="1493.96" style="stroke:#C10534;stroke-width:8.64"/>
	<line x1="2118.60" y1="1493.96" x2="2176.14" y2="1493.96" style="stroke:#C10534;stroke-width:8.64"/>
	<line x1="2204.98" y1="1493.96" x2="2262.52" y2="1493.96" style="stroke:#C10534;stroke-width:8.64"/>
	<line x1="2291.36" y1="1493.96" x2="2348.90" y2="1493.96" style="stroke:#C10534;stroke-width:8.64"/>
	<line x1="2377.73" y1="1493.96" x2="2435.40" y2="1493.96" style="stroke:#C10534;stroke-width:8.64"/>
	<line x1="2464.11" y1="1493.96" x2="2521.78" y2="1493.96" style="stroke:#C10534;stroke-width:8.64"/>
	<line x1="2550.49" y1="1493.96" x2="2608.16" y2="1493.96" style="stroke:#C10534;stroke-width:8.64"/>
	<line x1="2636.99" y1="1493.96" x2="2694.53" y2="1493.96" style="stroke:#C10534;stroke-width:8.64"/>
	<line x1="2723.37" y1="1493.96" x2="2780.91" y2="1493.96" style="stroke:#C10534;stroke-width:8.64"/>
	<line x1="2809.74" y1="1493.96" x2="2867.29" y2="1493.96" style="stroke:#C10534;stroke-width:8.64"/>
	<line x1="2896.12" y1="1493.96" x2="2953.66" y2="1493.96" style="stroke:#C10534;stroke-width:8.64"/>
	<line x1="2982.50" y1="1493.96" x2="3040.04" y2="1493.96" style="stroke:#C10534;stroke-width:8.64"/>
	<line x1="3068.88" y1="1493.96" x2="3126.42" y2="1493.96" style="stroke:#C10534;stroke-width:8.64"/>
	<line x1="3155.25" y1="1493.96" x2="3212.80" y2="1493.96" style="stroke:#C10534;stroke-width:8.64"/>
	<line x1="3241.63" y1="1493.96" x2="3299.18" y2="1493.96" style="stroke:#C10534;stroke-width:8.64"/>
	<line x1="3328.01" y1="1493.96" x2="3385.68" y2="1493.96" style="stroke:#C10534;stroke-width:8.64"/>
	<line x1="3414.39" y1="1493.96" x2="3472.05" y2="1493.96" style="stroke:#C10534;stroke-width:8.64"/>
	<line x1="3500.76" y1="1493.96" x2="3558.43" y2="1493.96" style="stroke:#C10534;stroke-width:8.64"/>
	<line x1="3587.26" y1="1493.96" x2="3644.81" y2="1493.96" style="stroke:#C10534;stroke-width:8.64"/>
	<line x1="3673.64" y1="1493.96" x2="3731.19" y2="1493.96" style="stroke:#C10534;stroke-width:8.64"/>
	<line x1="3760.02" y1="1493.96" x2="3817.56" y2="1493.96" style="stroke:#C10534;stroke-width:8.64"/>
	<line x1="3846.40" y1="1493.96" x2="3859.02" y2="1493.96" style="stroke:#C10534;stroke-width:8.64"/>
	<path d=" M454.04 2359.00 L486.83 2425.95 L519.63 2375.33 L552.42 2367.29 L585.09 2244.52 L617.88 2197.13 L650.68 2150.97 L683.35 2081.66 L716.14 2018.30 L748.93 1976.23 L781.73 1935.63 L814.40 1896.65 L847.19 1859.15 L879.99 1985.01 L912.78 1789.48 L945.45 1801.61 L978.24 1727.11 L1011.04 1689.12 L1043.71 1716.09 L1076.50 1666.59 L1109.30 1741.59 L1142.09 1720.80 L1174.76 1579.97 L1207.55 1550.88 L1240.35 1660.41 L1273.14 1544.32 L1305.81 1626.37 L1338.60 1536.53 L1371.40 1597.29 L1404.19 1453.61 L1436.86 1493.71 L1469.65 1394.71 L1502.45 1443.34 L1535.12 1455.22 L1567.91 1442.97 L1600.71 1406.34 L1633.50 1394.21 L1666.17 1406.22 L1698.96 1393.84 L1731.76 1380.97 L1764.55 1314.14 L1797.22 1329.98 L1830.02 1340.25 L1862.81 1301.40 L1895.60 1310.92 L1928.27 1241.75 L1961.07 1255.36 L1993.86 1239.27 L2026.53 1247.07 L2059.32 1230.24 L2092.12 1168.73 L2124.91 1195.34 L2157.58 1177.27 L2190.38 1234.69 L2223.17 1086.68 L2255.96 1097.20 L2288.63 1102.28 L2321.43 1058.47 L2354.22 1038.67 L2387.01 1043.00 L2419.68 998.45 L2452.48 948.57 L2485.27 957.24 L2517.94 936.32 L2550.74 915.16 L2583.53 893.87 L2616.32 872.34 L2648.99 875.06 L2681.79 853.28 L2714.58 807.00 L2747.37 784.85 L2780.04 787.07 L2812.84 740.42 L2845.63 718.02 L2878.30 695.50 L2911.09 643.64 L2943.89 674.71 L2976.68 627.68 L3009.35 605.03 L3042.15 606.64 L3074.94 559.61 L3107.73 507.51 L3140.40 538.58 L3173.20 515.81 L3205.99 468.66 L3238.78 416.68 L3271.45 423.24 L3304.25 400.59 L3337.04 348.49 L3369.71 164.22 L3402.51 332.40 L3435.30 237.24 L3468.09 267.06" stroke-linejoin="round" style="fill:none;stroke:#1A476F;stroke-width:8.64"/>
	<line x1="390.80" y1="2489.19" x2="390.80" y2="100.86" style="stroke:#000000;stroke-width:5.76"/>
	<line x1="390.80" y1="2403.42" x2="350.83" y2="2403.42" style="stroke:#000000;stroke-width:5.76"/>
	<text x="300.72" y="2403.42" style="font-family:'Helvetica';font-size:99.99px;fill:#000000" transform="rotate(-90 300.72,2403.42)" text-anchor="middle">.01</text>
	<line x1="390.80" y1="1904.82" x2="350.83" y2="1904.82" style="stroke:#000000;stroke-width:5.76"/>
	<text x="300.72" y="1904.82" style="font-family:'Helvetica';font-size:99.99px;fill:#000000" transform="rotate(-90 300.72,1904.82)" text-anchor="middle">.1</text>
	<line x1="390.80" y1="1406.22" x2="350.83" y2="1406.22" style="stroke:#000000;stroke-width:5.76"/>
	<text x="300.72" y="1406.22" style="font-family:'Helvetica';font-size:99.99px;fill:#000000" transform="rotate(-90 300.72,1406.22)" text-anchor="middle">1</text>
	<line x1="390.80" y1="907.61" x2="350.83" y2="907.61" style="stroke:#000000;stroke-width:5.76"/>
	<text x="300.72" y="907.61" style="font-family:'Helvetica';font-size:99.99px;fill:#000000" transform="rotate(-90 300.72,907.61)" text-anchor="middle">10</text>
	<line x1="390.80" y1="409.01" x2="350.83" y2="409.01" style="stroke:#000000;stroke-width:5.76"/>
	<text x="300.72" y="409.01" style="font-family:'Helvetica';font-size:99.99px;fill:#000000" transform="rotate(-90 300.72,409.01)" text-anchor="middle">100</text>
	<line x1="390.80" y1="757.50" x2="350.83" y2="757.50" style="stroke:#000000;stroke-width:5.76"/>
	<text x="300.72" y="757.50" style="font-family:'Helvetica';font-size:99.99px;fill:#000000" transform="rotate(-90 300.72,757.50)" text-anchor="middle">20</text>
	<text x="190.71" y="1294.96" style="font-family:'Helvetica';font-size:99.99px;fill:#000000" transform="rotate(-90 190.71,1294.96)" text-anchor="middle">Hazard ratio compared to age 55 years (log scale)</text>
	<line x1="390.80" y1="2489.19" x2="3859.02" y2="2489.19" style="stroke:#000000;stroke-width:5.76"/>
	<line x1="519.63" y1="2489.19" x2="519.63" y2="2529.16" style="stroke:#000000;stroke-width:5.76"/>
	<text x="519.63" y="2619.14" style="font-family:'Helvetica';font-size:99.99px;fill:#000000" text-anchor="middle">20</text>
	<line x1="1174.88" y1="2489.19" x2="1174.88" y2="2529.16" style="stroke:#000000;stroke-width:5.76"/>
	<text x="1174.88" y="2619.14" style="font-family:'Helvetica';font-size:99.99px;fill:#000000" text-anchor="middle">40</text>
	<line x1="1830.14" y1="2489.19" x2="1830.14" y2="2529.16" style="stroke:#000000;stroke-width:5.76"/>
	<text x="1830.14" y="2619.14" style="font-family:'Helvetica';font-size:99.99px;fill:#000000" text-anchor="middle">60</text>
	<line x1="2485.27" y1="2489.19" x2="2485.27" y2="2529.16" style="stroke:#000000;stroke-width:5.76"/>
	<text x="2485.27" y="2619.14" style="font-family:'Helvetica';font-size:99.99px;fill:#000000" text-anchor="middle">80</text>
	<line x1="3140.53" y1="2489.19" x2="3140.53" y2="2529.16" style="stroke:#000000;stroke-width:5.76"/>
	<text x="3140.53" y="2619.14" style="font-family:'Helvetica';font-size:99.99px;fill:#000000" text-anchor="middle">100</text>
	<line x1="3795.66" y1="2489.19" x2="3795.66" y2="2529.16" style="stroke:#000000;stroke-width:5.76"/>
	<text x="3795.66" y="2619.14" style="font-family:'Helvetica';font-size:99.99px;fill:#000000" text-anchor="middle">120</text>
	<text x="2124.91" y="2729.16" style="font-family:'Helvetica';font-size:99.99px;fill:#000000" text-anchor="middle">Age in years</text>
</svg>
