<?xml version="1.0" encoding="UTF-8" standalone="no"?>
<!-- This is a Stata 16.1 generated SVG file (http://www.stata.com) -->

<svg version="1.1" width="5.50in" height="8.00in" viewBox="0 0 3960 5760" xmlns="http://www.w3.org/2000/svg" xmlns:xlink="http://www.w3.org/1999/xlink">
	<desc>Stata Graph - Graph</desc>
	<rect x="0" y="0" width="3960" height="5760" style="fill:#EAF2F3;stroke:none"/>
	<rect x="0.00" y="0.00" width="3960.00" height="5760.00" style="fill:#EAF2F3"/>
	<rect x="3.96" y="3.96" width="3952.08" height="5752.08" style="fill:none;stroke:#EAF2F3;stroke-width:7.92"/>
	<rect x="179.82" y="138.60" width="3641.58" height="5084.10" style="fill:#FFFFFF"/>
	<rect x="183.78" y="142.56" width="3633.66" height="5076.18" style="fill:none;stroke:#FFFFFF;stroke-width:7.92"/>
	<line x1="2125.26" y1="5222.70" x2="2125.26" y2="5143.50" style="stroke:#C10534;stroke-width:11.88"/>
	<line x1="2125.26" y1="5103.90" x2="2125.26" y2="5024.70" style="stroke:#C10534;stroke-width:11.88"/>
	<line x1="2125.26" y1="4985.10" x2="2125.26" y2="4905.90" style="stroke:#C10534;stroke-width:11.88"/>
	<line x1="2125.26" y1="4866.30" x2="2125.26" y2="4786.92" style="stroke:#C10534;stroke-width:11.88"/>
	<line x1="2125.26" y1="4747.32" x2="2125.26" y2="4668.12" style="stroke:#C10534;stroke-width:11.88"/>
	<line x1="2125.26" y1="4628.52" x2="2125.26" y2="4549.32" style="stroke:#C10534;stroke-width:11.88"/>
	<line x1="2125.26" y1="4509.72" x2="2125.26" y2="4430.52" style="stroke:#C10534;stroke-width:11.88"/>
	<line x1="2125.26" y1="4390.92" x2="2125.26" y2="4311.72" style="stroke:#C10534;stroke-width:11.88"/>
	<line x1="2125.26" y1="4272.12" x2="2125.26" y2="4192.92" style="stroke:#C10534;stroke-width:11.88"/>
	<line x1="2125.26" y1="4153.14" x2="2125.26" y2="4073.94" style="stroke:#C10534;stroke-width:11.88"/>
	<line x1="2125.26" y1="4034.34" x2="2125.26" y2="3955.14" style="stroke:#C10534;stroke-width:11.88"/>
	<line x1="2125.26" y1="3915.54" x2="2125.26" y2="3836.34" style="stroke:#C10534;stroke-width:11.88"/>
	<line x1="2125.26" y1="3796.74" x2="2125.26" y2="3717.54" style="stroke:#C10534;stroke-width:11.88"/>
	<line x1="2125.26" y1="3677.94" x2="2125.26" y2="3598.74" style="stroke:#C10534;stroke-width:11.88"/>
	<line x1="2125.26" y1="3559.14" x2="2125.26" y2="3479.76" style="stroke:#C10534;stroke-width:11.88"/>
	<line x1="2125.26" y1="3440.16" x2="2125.26" y2="3360.96" style="stroke:#C10534;stroke-width:11.88"/>
	<line x1="2125.26" y1="3321.36" x2="2125.26" y2="3242.16" style="stroke:#C10534;stroke-width:11.88"/>
	<line x1="2125.26" y1="3202.56" x2="2125.26" y2="3123.36" style="stroke:#C10534;stroke-width:11.88"/>
	<line x1="2125.26" y1="3083.76" x2="2125.26" y2="3004.56" style="stroke:#C10534;stroke-width:11.88"/>
	<line x1="2125.26" y1="2964.96" x2="2125.26" y2="2885.76" style="stroke:#C10534;stroke-width:11.88"/>
	<line x1="2125.26" y1="2845.98" x2="2125.26" y2="2766.78" style="stroke:#C10534;stroke-width:11.88"/>
	<line x1="2125.26" y1="2727.18" x2="2125.26" y2="2647.98" style="stroke:#C10534;stroke-width:11.88"/>
	<line x1="2125.26" y1="2608.38" x2="2125.26" y2="2529.18" style="stroke:#C10534;stroke-width:11.88"/>
	<line x1="2125.26" y1="2489.58" x2="2125.26" y2="2410.38" style="stroke:#C10534;stroke-width:11.88"/>
	<line x1="2125.26" y1="2370.78" x2="2125.26" y2="2291.58" style="stroke:#C10534;stroke-width:11.88"/>
	<line x1="2125.26" y1="2251.98" x2="2125.26" y2="2172.60" style="stroke:#C10534;stroke-width:11.88"/>
	<line x1="2125.26" y1="2133.00" x2="2125.26" y2="2053.80" style="stroke:#C10534;stroke-width:11.88"/>
	<line x1="2125.26" y1="2014.20" x2="2125.26" y2="1935.00" style="stroke:#C10534;stroke-width:11.88"/>
	<line x1="2125.26" y1="1895.40" x2="2125.26" y2="1816.20" style="stroke:#C10534;stroke-width:11.88"/>
	<line x1="2125.26" y1="1776.60" x2="2125.26" y2="1697.40" style="stroke:#C10534;stroke-width:11.88"/>
	<line x1="2125.26" y1="1657.80" x2="2125.26" y2="1578.42" style="stroke:#C10534;stroke-width:11.88"/>
	<line x1="2125.26" y1="1538.82" x2="2125.26" y2="1459.62" style="stroke:#C10534;stroke-width:11.88"/>
	<line x1="2125.26" y1="1420.02" x2="2125.26" y2="1340.82" style="stroke:#C10534;stroke-width:11.88"/>
	<line x1="2125.26" y1="1301.22" x2="2125.26" y2="1222.02" style="stroke:#C10534;stroke-width:11.88"/>
	<line x1="2125.26" y1="1182.42" x2="2125.26" y2="1103.22" style="stroke:#C10534;stroke-width:11.88"/>
	<line x1="2125.26" y1="1063.62" x2="2125.26" y2="984.42" style="stroke:#C10534;stroke-width:11.88"/>
	<line x1="2125.26" y1="944.64" x2="2125.26" y2="865.44" style="stroke:#C10534;stroke-width:11.88"/>
	<line x1="2125.26" y1="825.84" x2="2125.26" y2="746.64" style="stroke:#C10534;stroke-width:11.88"/>
	<line x1="2125.26" y1="707.04" x2="2125.26" y2="627.84" style="stroke:#C10534;stroke-width:11.88"/>
	<line x1="2125.26" y1="588.24" x2="2125.26" y2="509.04" style="stroke:#C10534;stroke-width:11.88"/>
	<line x1="2125.26" y1="469.44" x2="2125.26" y2="390.24" style="stroke:#C10534;stroke-width:11.88"/>
	<line x1="2125.26" y1="350.64" x2="2125.26" y2="271.26" style="stroke:#C10534;stroke-width:11.88"/>
	<line x1="2125.26" y1="231.66" x2="2125.26" y2="152.46" style="stroke:#C10534;stroke-width:11.88"/>
	<circle cx="1460.88" cy="771.30" r="26.64" style="fill:#000000"/>
	<circle cx="1460.88" cy="771.30" r="20.70" style="fill:none;stroke:#000000;stroke-width:11.88"/>
	<circle cx="1713.96" cy="1044.18" r="26.64" style="fill:#000000"/>
	<circle cx="1713.96" cy="1044.18" r="20.70" style="fill:none;stroke:#000000;stroke-width:11.88"/>
	<circle cx="1490.04" cy="1316.88" r="26.64" style="fill:#000000"/>
	<circle cx="1490.04" cy="1316.88" r="20.70" style="fill:none;stroke:#000000;stroke-width:11.88"/>
	<circle cx="1602.36" cy="1589.58" r="26.64" style="fill:#000000"/>
	<circle cx="1602.36" cy="1589.58" r="20.70" style="fill:none;stroke:#000000;stroke-width:11.88"/>
	<circle cx="1562.58" cy="1862.46" r="26.64" style="fill:#000000"/>
	<circle cx="1562.58" cy="1862.46" r="20.70" style="fill:none;stroke:#000000;stroke-width:11.88"/>
	<circle cx="1581.66" cy="2135.16" r="26.64" style="fill:#000000"/>
	<circle cx="1581.66" cy="2135.16" r="20.70" style="fill:none;stroke:#000000;stroke-width:11.88"/>
	<circle cx="1254.42" cy="2408.04" r="26.64" style="fill:#000000"/>
	<circle cx="1254.42" cy="2408.04" r="20.70" style="fill:none;stroke:#000000;stroke-width:11.88"/>
	<circle cx="1916.82" cy="2680.74" r="26.64" style="fill:#000000"/>
	<circle cx="1916.82" cy="2680.74" r="20.70" style="fill:none;stroke:#000000;stroke-width:11.88"/>
	<circle cx="1655.10" cy="3226.32" r="26.64" style="fill:#000000"/>
	<circle cx="1655.10" cy="3226.32" r="20.70" style="fill:none;stroke:#000000;stroke-width:11.88"/>
	<circle cx="1765.80" cy="3499.02" r="26.64" style="fill:#000000"/>
	<circle cx="1765.80" cy="3499.02" r="20.70" style="fill:none;stroke:#000000;stroke-width:11.88"/>
	<circle cx="1597.50" cy="3771.72" r="26.64" style="fill:#000000"/>
	<circle cx="1597.50" cy="3771.72" r="20.70" style="fill:none;stroke:#000000;stroke-width:11.88"/>
	<circle cx="1745.28" cy="4044.60" r="26.64" style="fill:#000000"/>
	<circle cx="1745.28" cy="4044.60" r="20.70" style="fill:none;stroke:#000000;stroke-width:11.88"/>
	<circle cx="1709.28" cy="4317.30" r="26.64" style="fill:#000000"/>
	<circle cx="1709.28" cy="4317.30" r="20.70" style="fill:none;stroke:#000000;stroke-width:11.88"/>
	<circle cx="1706.22" cy="4590.18" r="26.64" style="fill:#000000"/>
	<circle cx="1706.22" cy="4590.18" r="20.70" style="fill:none;stroke:#000000;stroke-width:11.88"/>
	<circle cx="1382.04" cy="4862.88" r="26.64" style="fill:#000000"/>
	<circle cx="1382.04" cy="4862.88" r="20.70" style="fill:none;stroke:#000000;stroke-width:11.88"/>
	<circle cx="2028.96" cy="5135.58" r="26.64" style="fill:#000000"/>
	<circle cx="2028.96" cy="5135.58" r="20.70" style="fill:none;stroke:#000000;stroke-width:11.88"/>
	<line x1="1193.40" y1="771.30" x2="1728.36" y2="771.30" style="stroke:#000000;stroke-width:11.88"/>
	<line x1="1728.36" y1="801.54" x2="1728.36" y2="741.06" stroke-linecap="round" style="stroke:#000000;stroke-width:11.88"/>
	<line x1="1193.40" y1="801.54" x2="1193.40" y2="741.06" stroke-linecap="round" style="stroke:#000000;stroke-width:11.88"/>
	<line x1="1441.62" y1="1044.00" x2="1986.48" y2="1044.00" style="stroke:#000000;stroke-width:11.88"/>
	<line x1="1986.48" y1="1074.24" x2="1986.48" y2="1013.76" stroke-linecap="round" style="stroke:#000000;stroke-width:11.88"/>
	<line x1="1441.62" y1="1074.24" x2="1441.62" y2="1013.76" stroke-linecap="round" style="stroke:#000000;stroke-width:11.88"/>
	<line x1="1257.12" y1="1316.88" x2="1722.96" y2="1316.88" style="stroke:#000000;stroke-width:11.88"/>
	<line x1="1722.96" y1="1347.12" x2="1722.96" y2="1286.64" stroke-linecap="round" style="stroke:#000000;stroke-width:11.88"/>
	<line x1="1257.12" y1="1347.12" x2="1257.12" y2="1286.64" stroke-linecap="round" style="stroke:#000000;stroke-width:11.88"/>
	<line x1="1358.82" y1="1589.58" x2="1846.08" y2="1589.58" style="stroke:#000000;stroke-width:11.88"/>
	<line x1="1846.08" y1="1619.82" x2="1846.08" y2="1559.34" stroke-linecap="round" style="stroke:#000000;stroke-width:11.88"/>
	<line x1="1358.82" y1="1619.82" x2="1358.82" y2="1559.34" stroke-linecap="round" style="stroke:#000000;stroke-width:11.88"/>
	<line x1="1343.70" y1="1862.28" x2="1781.64" y2="1862.28" style="stroke:#000000;stroke-width:11.88"/>
	<line x1="1781.64" y1="1892.52" x2="1781.64" y2="1832.04" stroke-linecap="round" style="stroke:#000000;stroke-width:11.88"/>
	<line x1="1343.70" y1="1892.52" x2="1343.70" y2="1832.04" stroke-linecap="round" style="stroke:#000000;stroke-width:11.88"/>
	<line x1="1317.60" y1="2135.16" x2="1845.72" y2="2135.16" style="stroke:#000000;stroke-width:11.88"/>
	<line x1="1845.72" y1="2165.40" x2="1845.72" y2="2104.92" stroke-linecap="round" style="stroke:#000000;stroke-width:11.88"/>
	<line x1="1317.60" y1="2165.40" x2="1317.60" y2="2104.92" stroke-linecap="round" style="stroke:#000000;stroke-width:11.88"/>
	<line x1="1065.24" y1="2407.86" x2="1443.78" y2="2407.86" style="stroke:#000000;stroke-width:11.88"/>
	<line x1="1443.78" y1="2438.10" x2="1443.78" y2="2377.62" stroke-linecap="round" style="stroke:#000000;stroke-width:11.88"/>
	<line x1="1065.24" y1="2438.10" x2="1065.24" y2="2377.62" stroke-linecap="round" style="stroke:#000000;stroke-width:11.88"/>
	<line x1="1641.60" y1="2680.56" x2="2192.40" y2="2680.56" style="stroke:#000000;stroke-width:11.88"/>
	<line x1="2192.40" y1="2710.80" x2="2192.40" y2="2650.32" stroke-linecap="round" style="stroke:#000000;stroke-width:11.88"/>
	<line x1="1641.60" y1="2710.80" x2="1641.60" y2="2650.32" stroke-linecap="round" style="stroke:#000000;stroke-width:11.88"/>
	<line x1="1406.70" y1="3226.14" x2="1903.50" y2="3226.14" style="stroke:#000000;stroke-width:11.88"/>
	<line x1="1903.50" y1="3256.38" x2="1903.50" y2="3195.90" stroke-linecap="round" style="stroke:#000000;stroke-width:11.88"/>
	<line x1="1406.70" y1="3256.38" x2="1406.70" y2="3195.90" stroke-linecap="round" style="stroke:#000000;stroke-width:11.88"/>
	<line x1="1543.86" y1="3499.02" x2="1988.10" y2="3499.02" style="stroke:#000000;stroke-width:11.88"/>
	<line x1="1988.10" y1="3529.26" x2="1988.10" y2="3468.78" stroke-linecap="round" style="stroke:#000000;stroke-width:11.88"/>
	<line x1="1543.86" y1="3529.26" x2="1543.86" y2="3468.78" stroke-linecap="round" style="stroke:#000000;stroke-width:11.88"/>
	<line x1="1402.74" y1="3771.72" x2="1792.26" y2="3771.72" style="stroke:#000000;stroke-width:11.88"/>
	<line x1="1792.26" y1="3801.96" x2="1792.26" y2="3741.48" stroke-linecap="round" style="stroke:#000000;stroke-width:11.88"/>
	<line x1="1402.74" y1="3801.96" x2="1402.74" y2="3741.48" stroke-linecap="round" style="stroke:#000000;stroke-width:11.88"/>
	<line x1="1525.50" y1="4044.42" x2="1965.24" y2="4044.42" style="stroke:#000000;stroke-width:11.88"/>
	<line x1="1965.24" y1="4074.66" x2="1965.24" y2="4014.18" stroke-linecap="round" style="stroke:#000000;stroke-width:11.88"/>
	<line x1="1525.50" y1="4074.66" x2="1525.50" y2="4014.18" stroke-linecap="round" style="stroke:#000000;stroke-width:11.88"/>
	<line x1="1564.74" y1="4317.30" x2="1854.00" y2="4317.30" style="stroke:#000000;stroke-width:11.88"/>
	<line x1="1854.00" y1="4347.54" x2="1854.00" y2="4287.06" stroke-linecap="round" style="stroke:#000000;stroke-width:11.88"/>
	<line x1="1564.74" y1="4347.54" x2="1564.74" y2="4287.06" stroke-linecap="round" style="stroke:#000000;stroke-width:11.88"/>
	<line x1="1425.24" y1="4590.00" x2="1987.20" y2="4590.00" style="stroke:#000000;stroke-width:11.88"/>
	<line x1="1987.20" y1="4620.24" x2="1987.20" y2="4559.76" stroke-linecap="round" style="stroke:#000000;stroke-width:11.88"/>
	<line x1="1425.24" y1="4620.24" x2="1425.24" y2="4559.76" stroke-linecap="round" style="stroke:#000000;stroke-width:11.88"/>
	<line x1="1193.22" y1="4862.70" x2="1570.86" y2="4862.70" style="stroke:#000000;stroke-width:11.88"/>
	<line x1="1570.86" y1="4892.94" x2="1570.86" y2="4832.46" stroke-linecap="round" style="stroke:#000000;stroke-width:11.88"/>
	<line x1="1193.22" y1="4892.94" x2="1193.22" y2="4832.46" stroke-linecap="round" style="stroke:#000000;stroke-width:11.88"/>
	<line x1="1803.78" y1="5135.58" x2="2254.32" y2="5135.58" style="stroke:#000000;stroke-width:11.88"/>
	<line x1="2254.32" y1="5165.82" x2="2254.32" y2="5105.34" stroke-linecap="round" style="stroke:#000000;stroke-width:11.88"/>
	<line x1="1803.78" y1="5165.82" x2="1803.78" y2="5105.34" stroke-linecap="round" style="stroke:#000000;stroke-width:11.88"/>
	<text x="324.72" y="245.04" style="font-family:'Helvetica';font-size:55.08px;fill:#000000">Presence of children or young people in household</text>
	<text x="354.06" y="517.74" style="font-family:'Helvetica';font-size:55.08px;fill:#808080">Children under 12 years</text>
	<text x="354.06" y="2972.76" style="font-family:'Helvetica';font-size:55.08px;fill:#808080">Children/young people aged 11-&lt;18 years</text>
	<text x="418.14" y="790.62" style="font-family:'Helvetica';font-size:55.08px;fill:#808080">Age under 66 years</text>
	<text x="418.14" y="1063.32" style="font-family:'Helvetica';font-size:55.08px;fill:#808080">Age 66 years and above</text>
	<text x="418.14" y="1336.20" style="font-family:'Helvetica';font-size:55.08px;fill:#808080">Time before 3rd April 2020</text>
	<text x="418.14" y="1608.90" style="font-family:'Helvetica';font-size:55.08px;fill:#808080">Time on/after 3rd April 2020</text>
	<text x="418.14" y="1881.60" style="font-family:'Helvetica';font-size:55.08px;fill:#808080">Female</text>
	<text x="418.14" y="2154.48" style="font-family:'Helvetica';font-size:55.08px;fill:#808080">Male</text>
	<text x="418.14" y="2427.18" style="font-family:'Helvetica';font-size:55.08px;fill:#808080">Unlikely to be shielding</text>
	<text x="418.14" y="2699.88" style="font-family:'Helvetica';font-size:55.08px;fill:#808080">Probable shielding</text>
	<text x="418.14" y="3245.46" style="font-family:'Helvetica';font-size:55.08px;fill:#808080">Age under 66 years</text>
	<text x="418.14" y="3518.34" style="font-family:'Helvetica';font-size:55.08px;fill:#808080">Age 66 years and above</text>
	<text x="418.14" y="3791.04" style="font-family:'Helvetica';font-size:55.08px;fill:#808080">Time before 3rd April 2020</text>
	<text x="418.14" y="4063.74" style="font-family:'Helvetica';font-size:55.08px;fill:#808080">Time on/after 3rd April 2020</text>
	<text x="418.14" y="4336.62" style="font-family:'Helvetica';font-size:55.08px;fill:#808080">Female</text>
	<text x="418.14" y="4609.32" style="font-family:'Helvetica';font-size:55.08px;fill:#808080">Male</text>
	<text x="418.14" y="4882.02" style="font-family:'Helvetica';font-size:55.08px;fill:#808080">Unlikely to be shielding</text>
	<text x="418.14" y="5154.90" style="font-family:'Helvetica';font-size:55.08px;fill:#808080">Probable shielding</text>
	<line x1="179.82" y1="5222.70" x2="179.82" y2="138.60" style="stroke:#000000;stroke-width:7.92"/>
	<line x1="179.82" y1="5222.70" x2="3821.40" y2="5222.70" style="stroke:#000000;stroke-width:7.92"/>
	<line x1="1156.50" y1="5222.70" x2="1156.50" y2="5277.60" style="stroke:#000000;stroke-width:7.92"/>
	<text x="1156.50" y="5401.31" style="font-family:'Helvetica';font-size:137.52px;fill:#000000" text-anchor="middle">.25</text>
	<line x1="1640.88" y1="5222.70" x2="1640.88" y2="5277.60" style="stroke:#000000;stroke-width:7.92"/>
	<text x="1640.88" y="5401.31" style="font-family:'Helvetica';font-size:137.52px;fill:#000000" text-anchor="middle">.5</text>
	<line x1="2125.26" y1="5222.70" x2="2125.26" y2="5277.60" style="stroke:#000000;stroke-width:7.92"/>
	<text x="2125.26" y="5401.31" style="font-family:'Helvetica';font-size:137.52px;fill:#000000" text-anchor="middle">1</text>
	<line x1="2609.64" y1="5222.70" x2="2609.64" y2="5277.60" style="stroke:#000000;stroke-width:7.92"/>
	<text x="2609.64" y="5401.31" style="font-family:'Helvetica';font-size:137.52px;fill:#000000" text-anchor="middle">2</text>
	<line x1="3249.90" y1="5222.70" x2="3249.90" y2="5277.60" style="stroke:#000000;stroke-width:7.92"/>
	<text x="3249.90" y="5401.31" style="font-family:'Helvetica';font-size:137.52px;fill:#000000" text-anchor="middle">5</text>
	<line x1="3734.28" y1="5222.70" x2="3734.28" y2="5277.60" style="stroke:#000000;stroke-width:7.92"/>
	<text x="3734.28" y="5401.31" style="font-family:'Helvetica';font-size:137.52px;fill:#000000" text-anchor="middle">10</text>
	<text x="2000.70" y="5552.51" style="font-family:'Helvetica';font-size:137.52px;fill:#000000" text-anchor="middle">Hazard Ratio &amp; 95% CI</text>
</svg>
