<?xml version="1.0" encoding="UTF-8" standalone="no"?>
<!-- This is a Stata 16.1 generated SVG file (http://www.stata.com) -->

<svg version="1.1" width="5.50in" height="8.00in" viewBox="0 0 3960 5760" xmlns="http://www.w3.org/2000/svg" xmlns:xlink="http://www.w3.org/1999/xlink">
	<desc>Stata Graph - Graph</desc>
	<rect x="0" y="0" width="3960" height="5760" style="fill:#EAF2F3;stroke:none"/>
	<rect x="0.00" y="0.00" width="3960.00" height="5760.00" style="fill:#EAF2F3"/>
	<rect x="3.96" y="3.96" width="3952.08" height="5752.08" style="fill:none;stroke:#EAF2F3;stroke-width:7.92"/>
	<rect x="179.82" y="138.60" width="3641.58" height="5084.10" style="fill:#FFFFFF"/>
	<rect x="183.78" y="142.56" width="3633.66" height="5076.18" style="fill:none;stroke:#FFFFFF;stroke-width:7.92"/>
	<line x1="2125.26" y1="5222.70" x2="2125.26" y2="5143.50" style="stroke:#C10534;stroke-width:11.88"/>
	<line x1="2125.26" y1="5103.90" x2="2125.26" y2="5024.70" style="stroke:#C10534;stroke-width:11.88"/>
	<line x1="2125.26" y1="4985.10" x2="2125.26" y2="4905.90" style="stroke:#C10534;stroke-width:11.88"/>
	<line x1="2125.26" y1="4866.30" x2="2125.26" y2="4786.92" style="stroke:#C10534;stroke-width:11.88"/>
	<line x1="2125.26" y1="4747.32" x2="2125.26" y2="4668.12" style="stroke:#C10534;stroke-width:11.88"/>
	<line x1="2125.26" y1="4628.52" x2="2125.26" y2="4549.32" style="stroke:#C10534;stroke-width:11.88"/>
	<line x1="2125.26" y1="4509.72" x2="2125.26" y2="4430.52" style="stroke:#C10534;stroke-width:11.88"/>
	<line x1="2125.26" y1="4390.92" x2="2125.26" y2="4311.72" style="stroke:#C10534;stroke-width:11.88"/>
	<line x1="2125.26" y1="4272.12" x2="2125.26" y2="4192.92" style="stroke:#C10534;stroke-width:11.88"/>
	<line x1="2125.26" y1="4153.14" x2="2125.26" y2="4073.94" style="stroke:#C10534;stroke-width:11.88"/>
	<line x1="2125.26" y1="4034.34" x2="2125.26" y2="3955.14" style="stroke:#C10534;stroke-width:11.88"/>
	<line x1="2125.26" y1="3915.54" x2="2125.26" y2="3836.34" style="stroke:#C10534;stroke-width:11.88"/>
	<line x1="2125.26" y1="3796.74" x2="2125.26" y2="3717.54" style="stroke:#C10534;stroke-width:11.88"/>
	<line x1="2125.26" y1="3677.94" x2="2125.26" y2="3598.74" style="stroke:#C10534;stroke-width:11.88"/>
	<line x1="2125.26" y1="3559.14" x2="2125.26" y2="3479.76" style="stroke:#C10534;stroke-width:11.88"/>
	<line x1="2125.26" y1="3440.16" x2="2125.26" y2="3360.96" style="stroke:#C10534;stroke-width:11.88"/>
	<line x1="2125.26" y1="3321.36" x2="2125.26" y2="3242.16" style="stroke:#C10534;stroke-width:11.88"/>
	<line x1="2125.26" y1="3202.56" x2="2125.26" y2="3123.36" style="stroke:#C10534;stroke-width:11.88"/>
	<line x1="2125.26" y1="3083.76" x2="2125.26" y2="3004.56" style="stroke:#C10534;stroke-width:11.88"/>
	<line x1="2125.26" y1="2964.96" x2="2125.26" y2="2885.76" style="stroke:#C10534;stroke-width:11.88"/>
	<line x1="2125.26" y1="2845.98" x2="2125.26" y2="2766.78" style="stroke:#C10534;stroke-width:11.88"/>
	<line x1="2125.26" y1="2727.18" x2="2125.26" y2="2647.98" style="stroke:#C10534;stroke-width:11.88"/>
	<line x1="2125.26" y1="2608.38" x2="2125.26" y2="2529.18" style="stroke:#C10534;stroke-width:11.88"/>
	<line x1="2125.26" y1="2489.58" x2="2125.26" y2="2410.38" style="stroke:#C10534;stroke-width:11.88"/>
	<line x1="2125.26" y1="2370.78" x2="2125.26" y2="2291.58" style="stroke:#C10534;stroke-width:11.88"/>
	<line x1="2125.26" y1="2251.98" x2="2125.26" y2="2172.60" style="stroke:#C10534;stroke-width:11.88"/>
	<line x1="2125.26" y1="2133.00" x2="2125.26" y2="2053.80" style="stroke:#C10534;stroke-width:11.88"/>
	<line x1="2125.26" y1="2014.20" x2="2125.26" y2="1935.00" style="stroke:#C10534;stroke-width:11.88"/>
	<line x1="2125.26" y1="1895.40" x2="2125.26" y2="1816.20" style="stroke:#C10534;stroke-width:11.88"/>
	<line x1="2125.26" y1="1776.60" x2="2125.26" y2="1697.40" style="stroke:#C10534;stroke-width:11.88"/>
	<line x1="2125.26" y1="1657.80" x2="2125.26" y2="1578.42" style="stroke:#C10534;stroke-width:11.88"/>
	<line x1="2125.26" y1="1538.82" x2="2125.26" y2="1459.62" style="stroke:#C10534;stroke-width:11.88"/>
	<line x1="2125.26" y1="1420.02" x2="2125.26" y2="1340.82" style="stroke:#C10534;stroke-width:11.88"/>
	<line x1="2125.26" y1="1301.22" x2="2125.26" y2="1222.02" style="stroke:#C10534;stroke-width:11.88"/>
	<line x1="2125.26" y1="1182.42" x2="2125.26" y2="1103.22" style="stroke:#C10534;stroke-width:11.88"/>
	<line x1="2125.26" y1="1063.62" x2="2125.26" y2="984.42" style="stroke:#C10534;stroke-width:11.88"/>
	<line x1="2125.26" y1="944.64" x2="2125.26" y2="865.44" style="stroke:#C10534;stroke-width:11.88"/>
	<line x1="2125.26" y1="825.84" x2="2125.26" y2="746.64" style="stroke:#C10534;stroke-width:11.88"/>
	<line x1="2125.26" y1="707.04" x2="2125.26" y2="627.84" style="stroke:#C10534;stroke-width:11.88"/>
	<line x1="2125.26" y1="588.24" x2="2125.26" y2="509.04" style="stroke:#C10534;stroke-width:11.88"/>
	<line x1="2125.26" y1="469.44" x2="2125.26" y2="390.24" style="stroke:#C10534;stroke-width:11.88"/>
	<line x1="2125.26" y1="350.64" x2="2125.26" y2="271.26" style="stroke:#C10534;stroke-width:11.88"/>
	<line x1="2125.26" y1="231.66" x2="2125.26" y2="152.46" style="stroke:#C10534;stroke-width:11.88"/>
	<circle cx="1968.30" cy="771.30" r="26.64" style="fill:#000000"/>
	<circle cx="1968.30" cy="771.30" r="20.70" style="fill:none;stroke:#000000;stroke-width:11.88"/>
	<circle cx="1791.00" cy="1044.18" r="26.64" style="fill:#000000"/>
	<circle cx="1791.00" cy="1044.18" r="20.70" style="fill:none;stroke:#000000;stroke-width:11.88"/>
	<circle cx="1904.04" cy="1316.88" r="26.64" style="fill:#000000"/>
	<circle cx="1904.04" cy="1316.88" r="20.70" style="fill:none;stroke:#000000;stroke-width:11.88"/>
	<circle cx="1952.28" cy="1589.58" r="26.64" style="fill:#000000"/>
	<circle cx="1952.28" cy="1589.58" r="20.70" style="fill:none;stroke:#000000;stroke-width:11.88"/>
	<circle cx="1996.20" cy="1862.46" r="26.64" style="fill:#000000"/>
	<circle cx="1996.20" cy="1862.46" r="20.70" style="fill:none;stroke:#000000;stroke-width:11.88"/>
	<circle cx="1893.60" cy="2135.16" r="26.64" style="fill:#000000"/>
	<circle cx="1893.60" cy="2135.16" r="20.70" style="fill:none;stroke:#000000;stroke-width:11.88"/>
	<circle cx="1940.40" cy="2408.04" r="26.64" style="fill:#000000"/>
	<circle cx="1940.40" cy="2408.04" r="20.70" style="fill:none;stroke:#000000;stroke-width:11.88"/>
	<circle cx="1983.06" cy="2680.74" r="26.64" style="fill:#000000"/>
	<circle cx="1983.06" cy="2680.74" r="20.70" style="fill:none;stroke:#000000;stroke-width:11.88"/>
	<circle cx="2106.00" cy="3226.32" r="26.64" style="fill:#000000"/>
	<circle cx="2106.00" cy="3226.32" r="20.70" style="fill:none;stroke:#000000;stroke-width:11.88"/>
	<circle cx="1775.88" cy="3499.02" r="26.64" style="fill:#000000"/>
	<circle cx="1775.88" cy="3499.02" r="20.70" style="fill:none;stroke:#000000;stroke-width:11.88"/>
	<circle cx="2308.68" cy="3771.72" r="26.64" style="fill:#000000"/>
	<circle cx="2308.68" cy="3771.72" r="20.70" style="fill:none;stroke:#000000;stroke-width:11.88"/>
	<circle cx="2078.64" cy="4044.60" r="26.64" style="fill:#000000"/>
	<circle cx="2078.64" cy="4044.60" r="20.70" style="fill:none;stroke:#000000;stroke-width:11.88"/>
	<circle cx="2133.18" cy="4317.30" r="26.64" style="fill:#000000"/>
	<circle cx="2133.18" cy="4317.30" r="20.70" style="fill:none;stroke:#000000;stroke-width:11.88"/>
	<circle cx="2005.20" cy="4590.18" r="26.64" style="fill:#000000"/>
	<circle cx="2005.20" cy="4590.18" r="20.70" style="fill:none;stroke:#000000;stroke-width:11.88"/>
	<circle cx="2066.04" cy="4862.88" r="26.64" style="fill:#000000"/>
	<circle cx="2066.04" cy="4862.88" r="20.70" style="fill:none;stroke:#000000;stroke-width:11.88"/>
	<circle cx="2109.96" cy="5135.58" r="26.64" style="fill:#000000"/>
	<circle cx="2109.96" cy="5135.58" r="20.70" style="fill:none;stroke:#000000;stroke-width:11.88"/>
	<line x1="1868.40" y1="771.30" x2="2068.20" y2="771.30" style="stroke:#000000;stroke-width:11.88"/>
	<line x1="2068.20" y1="801.54" x2="2068.20" y2="741.06" stroke-linecap="round" style="stroke:#000000;stroke-width:11.88"/>
	<line x1="1868.40" y1="801.54" x2="1868.40" y2="741.06" stroke-linecap="round" style="stroke:#000000;stroke-width:11.88"/>
	<line x1="1603.08" y1="1044.00" x2="1978.92" y2="1044.00" style="stroke:#000000;stroke-width:11.88"/>
	<line x1="1978.92" y1="1074.24" x2="1978.92" y2="1013.76" stroke-linecap="round" style="stroke:#000000;stroke-width:11.88"/>
	<line x1="1603.08" y1="1074.24" x2="1603.08" y2="1013.76" stroke-linecap="round" style="stroke:#000000;stroke-width:11.88"/>
	<line x1="1492.02" y1="1316.88" x2="2316.24" y2="1316.88" style="stroke:#000000;stroke-width:11.88"/>
	<line x1="2316.24" y1="1347.12" x2="2316.24" y2="1286.64" stroke-linecap="round" style="stroke:#000000;stroke-width:11.88"/>
	<line x1="1492.02" y1="1347.12" x2="1492.02" y2="1286.64" stroke-linecap="round" style="stroke:#000000;stroke-width:11.88"/>
	<line x1="1849.50" y1="1589.58" x2="2055.06" y2="1589.58" style="stroke:#000000;stroke-width:11.88"/>
	<line x1="2055.06" y1="1619.82" x2="2055.06" y2="1559.34" stroke-linecap="round" style="stroke:#000000;stroke-width:11.88"/>
	<line x1="1849.50" y1="1619.82" x2="1849.50" y2="1559.34" stroke-linecap="round" style="stroke:#000000;stroke-width:11.88"/>
	<line x1="1886.94" y1="1862.28" x2="2105.82" y2="1862.28" style="stroke:#000000;stroke-width:11.88"/>
	<line x1="2105.82" y1="1892.52" x2="2105.82" y2="1832.04" stroke-linecap="round" style="stroke:#000000;stroke-width:11.88"/>
	<line x1="1886.94" y1="1892.52" x2="1886.94" y2="1832.04" stroke-linecap="round" style="stroke:#000000;stroke-width:11.88"/>
	<line x1="1789.38" y1="2135.16" x2="1998.18" y2="2135.16" style="stroke:#000000;stroke-width:11.88"/>
	<line x1="1998.18" y1="2165.40" x2="1998.18" y2="2104.92" stroke-linecap="round" style="stroke:#000000;stroke-width:11.88"/>
	<line x1="1789.38" y1="2165.40" x2="1789.38" y2="2104.92" stroke-linecap="round" style="stroke:#000000;stroke-width:11.88"/>
	<line x1="1838.70" y1="2407.86" x2="2042.28" y2="2407.86" style="stroke:#000000;stroke-width:11.88"/>
	<line x1="2042.28" y1="2438.10" x2="2042.28" y2="2377.62" stroke-linecap="round" style="stroke:#000000;stroke-width:11.88"/>
	<line x1="1838.70" y1="2438.10" x2="1838.70" y2="2377.62" stroke-linecap="round" style="stroke:#000000;stroke-width:11.88"/>
	<line x1="1873.62" y1="2680.56" x2="2092.68" y2="2680.56" style="stroke:#000000;stroke-width:11.88"/>
	<line x1="2092.68" y1="2710.80" x2="2092.68" y2="2650.32" stroke-linecap="round" style="stroke:#000000;stroke-width:11.88"/>
	<line x1="1873.62" y1="2710.80" x2="1873.62" y2="2650.32" stroke-linecap="round" style="stroke:#000000;stroke-width:11.88"/>
	<line x1="2022.84" y1="3226.14" x2="2189.52" y2="3226.14" style="stroke:#000000;stroke-width:11.88"/>
	<line x1="2189.52" y1="3256.38" x2="2189.52" y2="3195.90" stroke-linecap="round" style="stroke:#000000;stroke-width:11.88"/>
	<line x1="2022.84" y1="3256.38" x2="2022.84" y2="3195.90" stroke-linecap="round" style="stroke:#000000;stroke-width:11.88"/>
	<line x1="1515.78" y1="3499.02" x2="2036.16" y2="3499.02" style="stroke:#000000;stroke-width:11.88"/>
	<line x1="2036.16" y1="3529.26" x2="2036.16" y2="3468.78" stroke-linecap="round" style="stroke:#000000;stroke-width:11.88"/>
	<line x1="1515.78" y1="3529.26" x2="1515.78" y2="3468.78" stroke-linecap="round" style="stroke:#000000;stroke-width:11.88"/>
	<line x1="1739.34" y1="3771.72" x2="2878.20" y2="3771.72" style="stroke:#000000;stroke-width:11.88"/>
	<line x1="2878.20" y1="3801.96" x2="2878.20" y2="3741.48" stroke-linecap="round" style="stroke:#000000;stroke-width:11.88"/>
	<line x1="1739.34" y1="3801.96" x2="1739.34" y2="3741.48" stroke-linecap="round" style="stroke:#000000;stroke-width:11.88"/>
	<line x1="1981.98" y1="4044.42" x2="2175.30" y2="4044.42" style="stroke:#000000;stroke-width:11.88"/>
	<line x1="2175.30" y1="4074.66" x2="2175.30" y2="4014.18" stroke-linecap="round" style="stroke:#000000;stroke-width:11.88"/>
	<line x1="1981.98" y1="4074.66" x2="1981.98" y2="4014.18" stroke-linecap="round" style="stroke:#000000;stroke-width:11.88"/>
	<line x1="2044.98" y1="4317.30" x2="2221.56" y2="4317.30" style="stroke:#000000;stroke-width:11.88"/>
	<line x1="2221.56" y1="4347.54" x2="2221.56" y2="4287.06" stroke-linecap="round" style="stroke:#000000;stroke-width:11.88"/>
	<line x1="2044.98" y1="4347.54" x2="2044.98" y2="4287.06" stroke-linecap="round" style="stroke:#000000;stroke-width:11.88"/>
	<line x1="1879.56" y1="4590.00" x2="2131.02" y2="4590.00" style="stroke:#000000;stroke-width:11.88"/>
	<line x1="2131.02" y1="4620.24" x2="2131.02" y2="4559.76" stroke-linecap="round" style="stroke:#000000;stroke-width:11.88"/>
	<line x1="1879.56" y1="4620.24" x2="1879.56" y2="4559.76" stroke-linecap="round" style="stroke:#000000;stroke-width:11.88"/>
	<line x1="1965.78" y1="4862.70" x2="2166.48" y2="4862.70" style="stroke:#000000;stroke-width:11.88"/>
	<line x1="2166.48" y1="4892.94" x2="2166.48" y2="4832.46" stroke-linecap="round" style="stroke:#000000;stroke-width:11.88"/>
	<line x1="1965.78" y1="4892.94" x2="1965.78" y2="4832.46" stroke-linecap="round" style="stroke:#000000;stroke-width:11.88"/>
	<line x1="2012.04" y1="5135.58" x2="2208.06" y2="5135.58" style="stroke:#000000;stroke-width:11.88"/>
	<line x1="2208.06" y1="5165.82" x2="2208.06" y2="5105.34" stroke-linecap="round" style="stroke:#000000;stroke-width:11.88"/>
	<line x1="2012.04" y1="5165.82" x2="2012.04" y2="5105.34" stroke-linecap="round" style="stroke:#000000;stroke-width:11.88"/>
	<text x="324.72" y="245.04" style="font-family:'Helvetica';font-size:55.08px;fill:#000000">Presence of children or young people in household</text>
	<text x="354.06" y="517.74" style="font-family:'Helvetica';font-size:55.08px;fill:#808080">Children under 12 years</text>
	<text x="354.06" y="2972.76" style="font-family:'Helvetica';font-size:55.08px;fill:#808080">Children/young people aged 11-&lt;18 years</text>
	<text x="418.14" y="790.62" style="font-family:'Helvetica';font-size:55.08px;fill:#808080">Age under 66 years</text>
	<text x="418.14" y="1063.32" style="font-family:'Helvetica';font-size:55.08px;fill:#808080">Age 66 years and above</text>
	<text x="418.14" y="1336.20" style="font-family:'Helvetica';font-size:55.08px;fill:#808080">Time before 3rd April 2020</text>
	<text x="418.14" y="1608.90" style="font-family:'Helvetica';font-size:55.08px;fill:#808080">Time on/after 3rd April 2020</text>
	<text x="418.14" y="1881.60" style="font-family:'Helvetica';font-size:55.08px;fill:#808080">Female</text>
	<text x="418.14" y="2154.48" style="font-family:'Helvetica';font-size:55.08px;fill:#808080">Male</text>
	<text x="418.14" y="2427.18" style="font-family:'Helvetica';font-size:55.08px;fill:#808080">Unlikely to be shielding</text>
	<text x="418.14" y="2699.88" style="font-family:'Helvetica';font-size:55.08px;fill:#808080">Probable shielding</text>
	<text x="418.14" y="3245.46" style="font-family:'Helvetica';font-size:55.08px;fill:#808080">Age under 66 years</text>
	<text x="418.14" y="3518.34" style="font-family:'Helvetica';font-size:55.08px;fill:#808080">Age 66 years and above</text>
	<text x="418.14" y="3791.04" style="font-family:'Helvetica';font-size:55.08px;fill:#808080">Time before 3rd April 2020</text>
	<text x="418.14" y="4063.74" style="font-family:'Helvetica';font-size:55.08px;fill:#808080">Time on/after 3rd April 2020</text>
	<text x="418.14" y="4336.62" style="font-family:'Helvetica';font-size:55.08px;fill:#808080">Female</text>
	<text x="418.14" y="4609.32" style="font-family:'Helvetica';font-size:55.08px;fill:#808080">Male</text>
	<text x="418.14" y="4882.02" style="font-family:'Helvetica';font-size:55.08px;fill:#808080">Unlikely to be shielding</text>
	<text x="418.14" y="5154.90" style="font-family:'Helvetica';font-size:55.08px;fill:#808080">Probable shielding</text>
	<line x1="179.82" y1="5222.70" x2="179.82" y2="138.60" style="stroke:#000000;stroke-width:7.92"/>
	<line x1="179.82" y1="5222.70" x2="3821.40" y2="5222.70" style="stroke:#000000;stroke-width:7.92"/>
	<line x1="1156.50" y1="5222.70" x2="1156.50" y2="5277.60" style="stroke:#000000;stroke-width:7.92"/>
	<text x="1156.50" y="5401.31" style="font-family:'Helvetica';font-size:137.52px;fill:#000000" text-anchor="middle">.25</text>
	<line x1="1640.88" y1="5222.70" x2="1640.88" y2="5277.60" style="stroke:#000000;stroke-width:7.92"/>
	<text x="1640.88" y="5401.31" style="font-family:'Helvetica';font-size:137.52px;fill:#000000" text-anchor="middle">.5</text>
	<line x1="2125.26" y1="5222.70" x2="2125.26" y2="5277.60" style="stroke:#000000;stroke-width:7.92"/>
	<text x="2125.26" y="5401.31" style="font-family:'Helvetica';font-size:137.52px;fill:#000000" text-anchor="middle">1</text>
	<line x1="2609.64" y1="5222.70" x2="2609.64" y2="5277.60" style="stroke:#000000;stroke-width:7.92"/>
	<text x="2609.64" y="5401.31" style="font-family:'Helvetica';font-size:137.52px;fill:#000000" text-anchor="middle">2</text>
	<line x1="3249.90" y1="5222.70" x2="3249.90" y2="5277.60" style="stroke:#000000;stroke-width:7.92"/>
	<text x="3249.90" y="5401.31" style="font-family:'Helvetica';font-size:137.52px;fill:#000000" text-anchor="middle">5</text>
	<line x1="3734.28" y1="5222.70" x2="3734.28" y2="5277.60" style="stroke:#000000;stroke-width:7.92"/>
	<text x="3734.28" y="5401.31" style="font-family:'Helvetica';font-size:137.52px;fill:#000000" text-anchor="middle">10</text>
	<text x="2000.70" y="5552.51" style="font-family:'Helvetica';font-size:137.52px;fill:#000000" text-anchor="middle">Hazard Ratio &amp; 95% CI</text>
</svg>
