<?xml version="1.0" encoding="UTF-8" standalone="no"?>
<!-- This is a Stata 16.1 generated SVG file (http://www.stata.com) -->

<svg version="1.1" width="5.50in" height="4.00in" viewBox="0 0 3960 2880" xmlns="http://www.w3.org/2000/svg" xmlns:xlink="http://www.w3.org/1999/xlink">
	<desc>Stata Graph - Graph</desc>
	<rect x="0" y="0" width="3960" height="2880" style="fill:#EAF2F3;stroke:none"/>
	<rect x="0.00" y="0.00" width="3959.88" height="2880.00" style="fill:#EAF2F3"/>
	<rect x="2.88" y="2.88" width="3954.12" height="2874.24" style="fill:none;stroke:#EAF2F3;stroke-width:5.76"/>
	<rect x="63.36" y="63.36" width="1916.64" height="1248.92" style="fill:#EAF2F3"/>
	<rect x="65.52" y="65.52" width="1912.32" height="1244.60" style="fill:none;stroke:#EAF2F3;stroke-width:4.32"/>
	<rect x="356.40" y="138.98" width="1547.99" height="880.14" style="fill:#FFFFFF"/>
	<rect x="358.56" y="141.14" width="1543.67" height="875.82" style="fill:none;stroke:#FFFFFF;stroke-width:4.32"/>
	<line x1="356.40" y1="1019.11" x2="1904.39" y2="1019.11" style="stroke:#EAF2F3;stroke-width:6.48"/>
	<line x1="356.40" y1="857.37" x2="1904.39" y2="857.37" style="stroke:#EAF2F3;stroke-width:6.48"/>
	<line x1="356.40" y1="695.62" x2="1904.39" y2="695.62" style="stroke:#EAF2F3;stroke-width:6.48"/>
	<line x1="356.40" y1="533.87" x2="1904.39" y2="533.87" style="stroke:#EAF2F3;stroke-width:6.48"/>
	<line x1="356.40" y1="372.00" x2="1904.39" y2="372.00" style="stroke:#EAF2F3;stroke-width:6.48"/>
	<line x1="356.40" y1="210.26" x2="1904.39" y2="210.26" style="stroke:#EAF2F3;stroke-width:6.48"/>
	<rect x="421.86" y="1018.49" width="35.64" height="0.62" style="fill:#CAC27E"/>
	<rect x="425.10" y="1015.87" width="29.16" height="5.86" style="fill:none;stroke:#D7D29E;stroke-width:6.48"/>
	<rect x="671.59" y="1017.38" width="35.64" height="1.73" style="fill:#CAC27E"/>
	<rect x="674.83" y="1015.87" width="29.16" height="4.75" style="fill:none;stroke:#D7D29E;stroke-width:6.48"/>
	<rect x="707.23" y="1012.55" width="35.76" height="6.56" style="fill:#CAC27E"/>
	<rect x="710.47" y="1015.79" width="29.28" height="0.08" style="fill:none;stroke:#D7D29E;stroke-width:6.48"/>
	<rect x="743.00" y="1000.43" width="35.64" height="18.69" style="fill:#CAC27E"/>
	<rect x="746.23" y="1003.67" width="29.16" height="12.21" style="fill:none;stroke:#D7D29E;stroke-width:6.48"/>
	<rect x="778.63" y="969.12" width="35.64" height="50.00" style="fill:#CAC27E"/>
	<rect x="781.87" y="972.36" width="29.16" height="43.52" style="fill:none;stroke:#D7D29E;stroke-width:6.48"/>
	<rect x="814.27" y="867.89" width="35.76" height="151.23" style="fill:#CAC27E"/>
	<rect x="817.51" y="871.13" width="29.28" height="144.75" style="fill:none;stroke:#D7D29E;stroke-width:6.48"/>
	<rect x="850.04" y="617.90" width="35.64" height="401.21" style="fill:#CAC27E"/>
	<rect x="853.28" y="621.14" width="29.16" height="394.73" style="fill:none;stroke:#D7D29E;stroke-width:6.48"/>
	<rect x="885.68" y="486.48" width="35.64" height="532.64" style="fill:#CAC27E"/>
	<rect x="888.92" y="489.72" width="29.16" height="526.16" style="fill:none;stroke:#D7D29E;stroke-width:6.48"/>
	<rect x="921.32" y="186.50" width="35.76" height="832.62" style="fill:#CAC27E"/>
	<rect x="924.56" y="189.74" width="29.28" height="826.14" style="fill:none;stroke:#D7D29E;stroke-width:6.48"/>
	<rect x="957.08" y="310.00" width="35.64" height="709.11" style="fill:#CAC27E"/>
	<rect x="960.32" y="313.24" width="29.16" height="702.63" style="fill:none;stroke:#D7D29E;stroke-width:6.48"/>
	<rect x="992.72" y="288.97" width="35.64" height="730.15" style="fill:#CAC27E"/>
	<rect x="995.96" y="292.21" width="29.16" height="723.67" style="fill:none;stroke:#D7D29E;stroke-width:6.48"/>
	<rect x="1028.36" y="428.68" width="35.76" height="590.43" style="fill:#CAC27E"/>
	<rect x="1031.60" y="431.92" width="29.28" height="583.95" style="fill:none;stroke:#D7D29E;stroke-width:6.48"/>
	<rect x="1064.13" y="606.39" width="35.64" height="412.72" style="fill:#CAC27E"/>
	<rect x="1067.37" y="609.63" width="29.16" height="406.24" style="fill:none;stroke:#D7D29E;stroke-width:6.48"/>
	<rect x="1099.77" y="588.94" width="35.64" height="430.17" style="fill:#CAC27E"/>
	<rect x="1103.01" y="592.18" width="29.16" height="423.69" style="fill:none;stroke:#D7D29E;stroke-width:6.48"/>
	<rect x="1135.41" y="668.52" width="35.76" height="350.59" style="fill:#CAC27E"/>
	<rect x="1138.65" y="671.76" width="29.28" height="344.11" style="fill:none;stroke:#D7D29E;stroke-width:6.48"/>
	<rect x="1171.17" y="782.37" width="35.64" height="236.74" style="fill:#CAC27E"/>
	<rect x="1174.41" y="785.61" width="29.16" height="230.26" style="fill:none;stroke:#D7D29E;stroke-width:6.48"/>
	<rect x="1206.81" y="776.31" width="35.64" height="242.81" style="fill:#CAC27E"/>
	<rect x="1210.05" y="779.55" width="29.16" height="236.33" style="fill:none;stroke:#D7D29E;stroke-width:6.48"/>
	<rect x="1242.45" y="862.44" width="35.76" height="156.67" style="fill:#CAC27E"/>
	<rect x="1245.69" y="865.68" width="29.28" height="150.19" style="fill:none;stroke:#D7D29E;stroke-width:6.48"/>
	<rect x="1278.21" y="813.68" width="35.64" height="205.43" style="fill:#CAC27E"/>
	<rect x="1281.45" y="816.92" width="29.16" height="198.95" style="fill:none;stroke:#D7D29E;stroke-width:6.48"/>
	<rect x="1313.85" y="858.85" width="35.64" height="160.26" style="fill:#CAC27E"/>
	<rect x="1317.09" y="862.09" width="29.16" height="153.78" style="fill:none;stroke:#D7D29E;stroke-width:6.48"/>
	<rect x="1349.49" y="892.64" width="35.76" height="126.48" style="fill:#CAC27E"/>
	<rect x="1352.73" y="895.88" width="29.28" height="120.00" style="fill:none;stroke:#D7D29E;stroke-width:6.48"/>
	<rect x="1385.26" y="883.60" width="35.64" height="135.51" style="fill:#CAC27E"/>
	<rect x="1388.50" y="886.84" width="29.16" height="129.03" style="fill:none;stroke:#D7D29E;stroke-width:6.48"/>
	<rect x="1420.90" y="914.29" width="35.64" height="104.82" style="fill:#CAC27E"/>
	<rect x="1424.14" y="917.53" width="29.16" height="98.34" style="fill:none;stroke:#D7D29E;stroke-width:6.48"/>
	<rect x="1456.54" y="955.26" width="35.76" height="63.86" style="fill:#CAC27E"/>
	<rect x="1459.78" y="958.50" width="29.28" height="57.38" style="fill:none;stroke:#D7D29E;stroke-width:6.48"/>
	<rect x="1492.30" y="949.81" width="35.64" height="69.30" style="fill:#CAC27E"/>
	<rect x="1495.54" y="953.05" width="29.16" height="62.82" style="fill:none;stroke:#D7D29E;stroke-width:6.48"/>
	<rect x="1527.94" y="975.18" width="35.76" height="43.93" style="fill:#CAC27E"/>
	<rect x="1531.18" y="978.42" width="29.28" height="37.45" style="fill:none;stroke:#D7D29E;stroke-width:6.48"/>
	<rect x="1563.70" y="954.64" width="35.64" height="64.48" style="fill:#CAC27E"/>
	<rect x="1566.94" y="957.88" width="29.16" height="58.00" style="fill:none;stroke:#D7D29E;stroke-width:6.48"/>
	<rect x="1599.35" y="976.91" width="35.64" height="42.20" style="fill:#CAC27E"/>
	<rect x="1602.58" y="980.15" width="29.16" height="35.72" style="fill:none;stroke:#D7D29E;stroke-width:6.48"/>
	<rect x="1634.98" y="989.66" width="35.76" height="29.45" style="fill:#CAC27E"/>
	<rect x="1638.22" y="992.90" width="29.28" height="22.97" style="fill:none;stroke:#D7D29E;stroke-width:6.48"/>
	<rect x="1670.75" y="989.66" width="35.64" height="29.45" style="fill:#CAC27E"/>
	<rect x="1673.99" y="992.90" width="29.16" height="22.97" style="fill:none;stroke:#D7D29E;stroke-width:6.48"/>
	<rect x="1706.39" y="990.28" width="35.64" height="28.83" style="fill:#CAC27E"/>
	<rect x="1709.63" y="993.52" width="29.16" height="22.35" style="fill:none;stroke:#D7D29E;stroke-width:6.48"/>
	<rect x="1742.03" y="1005.25" width="35.76" height="13.86" style="fill:#CAC27E"/>
	<rect x="1745.27" y="1008.49" width="29.28" height="7.38" style="fill:none;stroke:#D7D29E;stroke-width:6.48"/>
	<rect x="1777.79" y="1002.28" width="35.64" height="16.83" style="fill:#CAC27E"/>
	<rect x="1781.03" y="1005.52" width="29.16" height="10.35" style="fill:none;stroke:#D7D29E;stroke-width:6.48"/>
	<rect x="1813.43" y="1013.67" width="35.64" height="5.45" style="fill:#CAC27E"/>
	<rect x="1816.67" y="1015.87" width="29.16" height="1.03" style="fill:none;stroke:#D7D29E;stroke-width:6.48"/>
	<line x1="356.40" y1="1019.11" x2="356.40" y2="138.98" style="stroke:#000000;stroke-width:4.32"/>
	<line x1="356.40" y1="1019.11" x2="326.45" y2="1019.11" style="stroke:#000000;stroke-width:4.32"/>
	<text x="288.92" y="1019.11" style="font-family:'Helvetica';font-size:74.99px;fill:#000000" transform="rotate(-90 288.92,1019.11)" text-anchor="middle">0</text>
	<line x1="356.40" y1="857.37" x2="326.45" y2="857.37" style="stroke:#000000;stroke-width:4.32"/>
	<text x="288.92" y="857.37" style="font-family:'Helvetica';font-size:74.99px;fill:#000000" transform="rotate(-90 288.92,857.37)" text-anchor="middle">.005</text>
	<line x1="356.40" y1="695.62" x2="326.45" y2="695.62" style="stroke:#000000;stroke-width:4.32"/>
	<text x="288.92" y="695.62" style="font-family:'Helvetica';font-size:74.99px;fill:#000000" transform="rotate(-90 288.92,695.62)" text-anchor="middle">.01</text>
	<line x1="356.40" y1="533.87" x2="326.45" y2="533.87" style="stroke:#000000;stroke-width:4.32"/>
	<text x="288.92" y="533.87" style="font-family:'Helvetica';font-size:74.99px;fill:#000000" transform="rotate(-90 288.92,533.87)" text-anchor="middle">.015</text>
	<line x1="356.40" y1="372.00" x2="326.45" y2="372.00" style="stroke:#000000;stroke-width:4.32"/>
	<text x="288.92" y="372.00" style="font-family:'Helvetica';font-size:74.99px;fill:#000000" transform="rotate(-90 288.92,372.00)" text-anchor="middle">.02</text>
	<line x1="356.40" y1="210.26" x2="326.45" y2="210.26" style="stroke:#000000;stroke-width:4.32"/>
	<text x="288.92" y="210.26" style="font-family:'Helvetica';font-size:74.99px;fill:#000000" transform="rotate(-90 288.92,210.26)" text-anchor="middle">.025</text>
	<text x="206.38" y="579.04" style="font-family:'Helvetica';font-size:74.99px;fill:#000000" transform="rotate(-90 206.38,579.04)" text-anchor="middle">Density</text>
	<line x1="356.40" y1="1019.11" x2="1904.39" y2="1019.11" style="stroke:#000000;stroke-width:4.32"/>
	<line x1="452.68" y1="1019.11" x2="452.68" y2="1049.19" style="stroke:#000000;stroke-width:4.32"/>
	<text x="452.68" y="1116.59" style="font-family:'Helvetica';font-size:74.99px;fill:#000000" text-anchor="middle">01feb2020</text>
	<line x1="915.63" y1="1019.11" x2="915.63" y2="1049.19" style="stroke:#000000;stroke-width:4.32"/>
	<text x="915.63" y="1116.59" style="font-family:'Helvetica';font-size:74.99px;fill:#000000" text-anchor="middle">01apr2020</text>
	<line x1="1386.25" y1="1019.11" x2="1386.25" y2="1049.19" style="stroke:#000000;stroke-width:4.32"/>
	<text x="1386.25" y="1116.59" style="font-family:'Helvetica';font-size:74.99px;fill:#000000" text-anchor="middle">01jun2020</text>
	<line x1="1856.87" y1="1019.11" x2="1856.87" y2="1049.19" style="stroke:#000000;stroke-width:4.32"/>
	<text x="1856.87" y="1116.59" style="font-family:'Helvetica';font-size:74.99px;fill:#000000" text-anchor="middle">01aug2020</text>
	<text x="1130.33" y="1199.14" style="font-family:'Helvetica';font-size:74.99px;fill:#000000" text-anchor="middle">Date of admin censoring for covid death or ICU</text>
	<rect x="1980.00" y="63.36" width="1916.52" height="1248.92" style="fill:#EAF2F3"/>
	<rect x="1982.16" y="65.52" width="1912.20" height="1244.60" style="fill:none;stroke:#EAF2F3;stroke-width:4.32"/>
	<rect x="2273.04" y="138.98" width="1547.87" height="880.14" style="fill:#FFFFFF"/>
	<rect x="2275.20" y="141.14" width="1543.55" height="875.82" style="fill:none;stroke:#FFFFFF;stroke-width:4.32"/>
	<line x1="2273.04" y1="1019.11" x2="3820.91" y2="1019.11" style="stroke:#EAF2F3;stroke-width:6.48"/>
	<line x1="2273.04" y1="810.96" x2="3820.91" y2="810.96" style="stroke:#EAF2F3;stroke-width:6.48"/>
	<line x1="2273.04" y1="602.81" x2="3820.91" y2="602.81" style="stroke:#EAF2F3;stroke-width:6.48"/>
	<line x1="2273.04" y1="394.65" x2="3820.91" y2="394.65" style="stroke:#EAF2F3;stroke-width:6.48"/>
	<line x1="2273.04" y1="186.50" x2="3820.91" y2="186.50" style="stroke:#EAF2F3;stroke-width:6.48"/>
	<rect x="2335.53" y="401.71" width="29.95" height="617.41" style="fill:#CAC27E"/>
	<rect x="2338.77" y="404.94" width="23.47" height="610.93" style="fill:none;stroke:#D7D29E;stroke-width:6.48"/>
	<rect x="2365.48" y="371.14" width="29.95" height="647.98" style="fill:#CAC27E"/>
	<rect x="2368.72" y="374.38" width="23.47" height="641.50" style="fill:none;stroke:#D7D29E;stroke-width:6.48"/>
	<rect x="2395.43" y="392.05" width="29.95" height="627.06" style="fill:#CAC27E"/>
	<rect x="2398.67" y="395.29" width="23.47" height="620.58" style="fill:none;stroke:#D7D29E;stroke-width:6.48"/>
	<rect x="2425.38" y="355.42" width="29.95" height="663.69" style="fill:#CAC27E"/>
	<rect x="2428.62" y="358.66" width="23.47" height="657.21" style="fill:none;stroke:#D7D29E;stroke-width:6.48"/>
	<rect x="2455.32" y="534.74" width="29.95" height="484.37" style="fill:#CAC27E"/>
	<rect x="2458.56" y="537.98" width="23.47" height="477.89" style="fill:none;stroke:#D7D29E;stroke-width:6.48"/>
	<rect x="2485.27" y="367.18" width="29.95" height="651.94" style="fill:#CAC27E"/>
	<rect x="2488.51" y="370.42" width="23.47" height="645.46" style="fill:none;stroke:#D7D29E;stroke-width:6.48"/>
	<rect x="2515.22" y="357.15" width="29.95" height="661.96" style="fill:#CAC27E"/>
	<rect x="2518.46" y="360.39" width="23.47" height="655.48" style="fill:none;stroke:#D7D29E;stroke-width:6.48"/>
	<rect x="2545.17" y="307.78" width="29.95" height="711.34" style="fill:#CAC27E"/>
	<rect x="2548.41" y="311.02" width="23.47" height="704.86" style="fill:none;stroke:#D7D29E;stroke-width:6.48"/>
	<rect x="2575.11" y="535.24" width="30.07" height="483.88" style="fill:#CAC27E"/>
	<rect x="2578.35" y="538.48" width="23.59" height="477.40" style="fill:none;stroke:#D7D29E;stroke-width:6.48"/>
	<rect x="2605.06" y="363.71" width="30.07" height="655.40" style="fill:#CAC27E"/>
	<rect x="2608.30" y="366.95" width="23.59" height="648.92" style="fill:none;stroke:#D7D29E;stroke-width:6.48"/>
	<rect x="2635.13" y="348.86" width="29.95" height="670.25" style="fill:#CAC27E"/>
	<rect x="2638.37" y="352.10" width="23.47" height="663.77" style="fill:none;stroke:#D7D29E;stroke-width:6.48"/>
	<rect x="2665.08" y="304.31" width="29.95" height="714.80" style="fill:#CAC27E"/>
	<rect x="2668.32" y="307.55" width="23.47" height="708.32" style="fill:none;stroke:#D7D29E;stroke-width:6.48"/>
	<rect x="2695.03" y="312.23" width="29.95" height="706.88" style="fill:#CAC27E"/>
	<rect x="2698.27" y="315.47" width="23.47" height="700.40" style="fill:none;stroke:#D7D29E;stroke-width:6.48"/>
	<rect x="2724.97" y="476.33" width="29.95" height="542.78" style="fill:#CAC27E"/>
	<rect x="2728.21" y="479.57" width="23.47" height="536.30" style="fill:none;stroke:#D7D29E;stroke-width:6.48"/>
	<rect x="2754.92" y="327.95" width="29.95" height="691.17" style="fill:#CAC27E"/>
	<rect x="2758.16" y="331.19" width="23.47" height="684.69" style="fill:none;stroke:#D7D29E;stroke-width:6.48"/>
	<rect x="2784.87" y="268.17" width="29.95" height="750.94" style="fill:#CAC27E"/>
	<rect x="2788.11" y="271.41" width="23.47" height="744.46" style="fill:none;stroke:#D7D29E;stroke-width:6.48"/>
	<rect x="2814.82" y="230.55" width="29.95" height="788.56" style="fill:#CAC27E"/>
	<rect x="2818.06" y="233.79" width="23.47" height="782.08" style="fill:none;stroke:#D7D29E;stroke-width:6.48"/>
	<rect x="2844.76" y="461.85" width="29.95" height="557.26" style="fill:#CAC27E"/>
	<rect x="2848.00" y="465.09" width="23.47" height="550.78" style="fill:none;stroke:#D7D29E;stroke-width:6.48"/>
	<rect x="2874.71" y="284.26" width="29.95" height="734.85" style="fill:#CAC27E"/>
	<rect x="2877.95" y="287.50" width="23.47" height="728.37" style="fill:none;stroke:#D7D29E;stroke-width:6.48"/>
	<rect x="2904.66" y="344.04" width="29.95" height="675.08" style="fill:#CAC27E"/>
	<rect x="2907.90" y="347.28" width="23.47" height="668.60" style="fill:none;stroke:#D7D29E;stroke-width:6.48"/>
	<rect x="2934.61" y="368.54" width="29.95" height="650.57" style="fill:#CAC27E"/>
	<rect x="2937.85" y="371.78" width="23.47" height="644.09" style="fill:none;stroke:#D7D29E;stroke-width:6.48"/>
	<rect x="2964.55" y="543.03" width="29.95" height="476.08" style="fill:#CAC27E"/>
	<rect x="2967.79" y="546.27" width="23.47" height="469.60" style="fill:none;stroke:#D7D29E;stroke-width:6.48"/>
	<rect x="2994.50" y="388.59" width="29.95" height="630.53" style="fill:#CAC27E"/>
	<rect x="2997.74" y="391.83" width="23.47" height="624.05" style="fill:none;stroke:#D7D29E;stroke-width:6.48"/>
	<rect x="3024.45" y="409.13" width="30.07" height="609.98" style="fill:#CAC27E"/>
	<rect x="3027.69" y="412.37" width="23.59" height="603.50" style="fill:none;stroke:#D7D29E;stroke-width:6.48"/>
	<rect x="3054.40" y="405.17" width="30.07" height="613.94" style="fill:#CAC27E"/>
	<rect x="3057.64" y="408.41" width="23.59" height="607.46" style="fill:none;stroke:#D7D29E;stroke-width:6.48"/>
	<rect x="3084.47" y="398.98" width="29.95" height="620.13" style="fill:#CAC27E"/>
	<rect x="3087.71" y="402.22" width="23.47" height="613.65" style="fill:none;stroke:#D7D29E;stroke-width:6.48"/>
	<rect x="3114.42" y="583.25" width="29.95" height="435.86" style="fill:#CAC27E"/>
	<rect x="3117.66" y="586.49" width="23.47" height="429.38" style="fill:none;stroke:#D7D29E;stroke-width:6.48"/>
	<rect x="3144.36" y="421.75" width="29.95" height="597.36" style="fill:#CAC27E"/>
	<rect x="3147.60" y="424.99" width="23.47" height="590.88" style="fill:none;stroke:#D7D29E;stroke-width:6.48"/>
	<rect x="3174.31" y="433.51" width="29.95" height="585.60" style="fill:#CAC27E"/>
	<rect x="3177.55" y="436.75" width="23.47" height="579.12" style="fill:none;stroke:#D7D29E;stroke-width:6.48"/>
	<rect x="3204.26" y="503.80" width="29.95" height="515.31" style="fill:#CAC27E"/>
	<rect x="3207.50" y="507.04" width="23.47" height="508.83" style="fill:none;stroke:#D7D29E;stroke-width:6.48"/>
	<rect x="3234.21" y="593.28" width="29.95" height="425.84" style="fill:#CAC27E"/>
	<rect x="3237.45" y="596.52" width="23.47" height="419.36" style="fill:none;stroke:#D7D29E;stroke-width:6.48"/>
	<rect x="3264.15" y="480.17" width="29.95" height="538.95" style="fill:#CAC27E"/>
	<rect x="3267.39" y="483.40" width="23.47" height="532.47" style="fill:none;stroke:#D7D29E;stroke-width:6.48"/>
	<rect x="3294.10" y="439.20" width="29.95" height="579.91" style="fill:#CAC27E"/>
	<rect x="3297.34" y="442.44" width="23.47" height="573.43" style="fill:none;stroke:#D7D29E;stroke-width:6.48"/>
	<rect x="3324.05" y="468.90" width="29.95" height="550.21" style="fill:#CAC27E"/>
	<rect x="3327.29" y="472.14" width="23.47" height="543.73" style="fill:none;stroke:#D7D29E;stroke-width:6.48"/>
	<rect x="3354.00" y="602.81" width="29.95" height="416.31" style="fill:#CAC27E"/>
	<rect x="3357.24" y="606.04" width="23.47" height="409.83" style="fill:none;stroke:#D7D29E;stroke-width:6.48"/>
	<rect x="3383.94" y="486.35" width="29.95" height="532.76" style="fill:#CAC27E"/>
	<rect x="3387.18" y="489.59" width="23.47" height="526.28" style="fill:none;stroke:#D7D29E;stroke-width:6.48"/>
	<rect x="3413.89" y="454.05" width="29.95" height="565.06" style="fill:#CAC27E"/>
	<rect x="3417.13" y="457.29" width="23.47" height="558.58" style="fill:none;stroke:#D7D29E;stroke-width:6.48"/>
	<rect x="3443.84" y="442.30" width="29.95" height="576.82" style="fill:#CAC27E"/>
	<rect x="3447.08" y="445.54" width="23.47" height="570.34" style="fill:none;stroke:#D7D29E;stroke-width:6.48"/>
	<rect x="3473.79" y="428.31" width="30.07" height="590.80" style="fill:#CAC27E"/>
	<rect x="3477.03" y="431.55" width="23.59" height="584.32" style="fill:none;stroke:#D7D29E;stroke-width:6.48"/>
	<rect x="3503.73" y="612.83" width="30.07" height="406.28" style="fill:#CAC27E"/>
	<rect x="3506.97" y="616.07" width="23.59" height="399.80" style="fill:none;stroke:#D7D29E;stroke-width:6.48"/>
	<rect x="3533.80" y="463.21" width="29.95" height="555.90" style="fill:#CAC27E"/>
	<rect x="3537.04" y="466.45" width="23.47" height="549.42" style="fill:none;stroke:#D7D29E;stroke-width:6.48"/>
	<rect x="3563.75" y="495.51" width="29.95" height="523.60" style="fill:#CAC27E"/>
	<rect x="3566.99" y="498.75" width="23.47" height="517.12" style="fill:none;stroke:#D7D29E;stroke-width:6.48"/>
	<rect x="3593.70" y="466.18" width="29.95" height="552.93" style="fill:#CAC27E"/>
	<rect x="3596.94" y="469.42" width="23.47" height="546.45" style="fill:none;stroke:#D7D29E;stroke-width:6.48"/>
	<rect x="3623.65" y="630.28" width="29.95" height="388.83" style="fill:#CAC27E"/>
	<rect x="3626.89" y="633.52" width="23.47" height="382.35" style="fill:none;stroke:#D7D29E;stroke-width:6.48"/>
	<rect x="3653.59" y="464.94" width="29.95" height="554.17" style="fill:#CAC27E"/>
	<rect x="3656.83" y="468.18" width="23.47" height="547.69" style="fill:none;stroke:#D7D29E;stroke-width:6.48"/>
	<rect x="3683.54" y="500.34" width="29.95" height="518.78" style="fill:#CAC27E"/>
	<rect x="3686.78" y="503.58" width="23.47" height="512.30" style="fill:none;stroke:#D7D29E;stroke-width:6.48"/>
	<rect x="3713.49" y="596.25" width="29.95" height="422.87" style="fill:#CAC27E"/>
	<rect x="3716.73" y="599.49" width="23.47" height="416.39" style="fill:none;stroke:#D7D29E;stroke-width:6.48"/>
	<rect x="3743.44" y="892.14" width="29.95" height="126.97" style="fill:#CAC27E"/>
	<rect x="3746.68" y="895.38" width="23.47" height="120.49" style="fill:none;stroke:#D7D29E;stroke-width:6.48"/>
	<line x1="2273.04" y1="1019.11" x2="2273.04" y2="138.98" style="stroke:#000000;stroke-width:4.32"/>
	<line x1="2273.04" y1="1019.11" x2="2242.97" y2="1019.11" style="stroke:#000000;stroke-width:4.32"/>
	<text x="2205.44" y="1019.11" style="font-family:'Helvetica';font-size:74.99px;fill:#000000" transform="rotate(-90 2205.44,1019.11)" text-anchor="middle">0</text>
	<line x1="2273.04" y1="810.96" x2="2242.97" y2="810.96" style="stroke:#000000;stroke-width:4.32"/>
	<text x="2205.44" y="810.96" style="font-family:'Helvetica';font-size:74.99px;fill:#000000" transform="rotate(-90 2205.44,810.96)" text-anchor="middle">.002</text>
	<line x1="2273.04" y1="602.81" x2="2242.97" y2="602.81" style="stroke:#000000;stroke-width:4.32"/>
	<text x="2205.44" y="602.81" style="font-family:'Helvetica';font-size:74.99px;fill:#000000" transform="rotate(-90 2205.44,602.81)" text-anchor="middle">.004</text>
	<line x1="2273.04" y1="394.65" x2="2242.97" y2="394.65" style="stroke:#000000;stroke-width:4.32"/>
	<text x="2205.44" y="394.65" style="font-family:'Helvetica';font-size:74.99px;fill:#000000" transform="rotate(-90 2205.44,394.65)" text-anchor="middle">.006</text>
	<line x1="2273.04" y1="186.50" x2="2242.97" y2="186.50" style="stroke:#000000;stroke-width:4.32"/>
	<text x="2205.44" y="186.50" style="font-family:'Helvetica';font-size:74.99px;fill:#000000" transform="rotate(-90 2205.44,186.50)" text-anchor="middle">.008</text>
	<text x="2123.02" y="579.04" style="font-family:'Helvetica';font-size:74.99px;fill:#000000" transform="rotate(-90 2123.02,579.04)" text-anchor="middle">Density</text>
	<line x1="2273.04" y1="1019.11" x2="3820.91" y2="1019.11" style="stroke:#000000;stroke-width:4.32"/>
	<line x1="2327.61" y1="1019.11" x2="2327.61" y2="1049.19" style="stroke:#000000;stroke-width:4.32"/>
	<text x="2327.61" y="1116.59" style="font-family:'Helvetica';font-size:74.99px;fill:#000000" text-anchor="middle">01feb2020</text>
	<line x1="2804.18" y1="1019.11" x2="2804.18" y2="1049.19" style="stroke:#000000;stroke-width:4.32"/>
	<text x="2804.18" y="1116.59" style="font-family:'Helvetica';font-size:74.99px;fill:#000000" text-anchor="middle">01apr2020</text>
	<line x1="3288.78" y1="1019.11" x2="3288.78" y2="1049.19" style="stroke:#000000;stroke-width:4.32"/>
	<text x="3288.78" y="1116.59" style="font-family:'Helvetica';font-size:74.99px;fill:#000000" text-anchor="middle">01jun2020</text>
	<line x1="3773.39" y1="1019.11" x2="3773.39" y2="1049.19" style="stroke:#000000;stroke-width:4.32"/>
	<text x="3773.39" y="1116.59" style="font-family:'Helvetica';font-size:74.99px;fill:#000000" text-anchor="middle">01aug2020</text>
	<text x="3046.97" y="1199.14" style="font-family:'Helvetica';font-size:74.99px;fill:#000000" text-anchor="middle">Date of ONS non-COVID Death</text>
	<rect x="63.36" y="1312.29" width="1916.64" height="1248.80" style="fill:#EAF2F3"/>
	<rect x="65.52" y="1314.45" width="1912.32" height="1244.48" style="fill:none;stroke:#EAF2F3;stroke-width:4.32"/>
	<rect x="356.40" y="1387.90" width="1547.99" height="880.14" style="fill:#FFFFFF"/>
	<rect x="358.56" y="1390.06" width="1543.67" height="875.82" style="fill:none;stroke:#FFFFFF;stroke-width:4.32"/>
	<line x1="356.40" y1="2268.04" x2="1904.39" y2="2268.04" style="stroke:#EAF2F3;stroke-width:6.48"/>
	<line x1="356.40" y1="2101.46" x2="1904.39" y2="2101.46" style="stroke:#EAF2F3;stroke-width:6.48"/>
	<line x1="356.40" y1="1935.02" x2="1904.39" y2="1935.02" style="stroke:#EAF2F3;stroke-width:6.48"/>
	<line x1="356.40" y1="1768.44" x2="1904.39" y2="1768.44" style="stroke:#EAF2F3;stroke-width:6.48"/>
	<line x1="356.40" y1="1601.87" x2="1904.39" y2="1601.87" style="stroke:#EAF2F3;stroke-width:6.48"/>
	<line x1="356.40" y1="1435.42" x2="1904.39" y2="1435.42" style="stroke:#EAF2F3;stroke-width:6.48"/>
	<rect x="507.75" y="2265.31" width="28.71" height="2.72" style="fill:#CAC27E"/>
	<rect x="510.99" y="2264.80" width="22.23" height="3.76" style="fill:none;stroke:#D7D29E;stroke-width:6.48"/>
	<rect x="708.72" y="2101.22" width="28.71" height="166.82" style="fill:#CAC27E"/>
	<rect x="711.96" y="2104.46" width="22.23" height="160.34" style="fill:none;stroke:#D7D29E;stroke-width:6.48"/>
	<rect x="938.27" y="1514.25" width="28.71" height="753.78" style="fill:#CAC27E"/>
	<rect x="941.51" y="1517.49" width="22.23" height="747.31" style="fill:none;stroke:#D7D29E;stroke-width:6.48"/>
	<rect x="1167.95" y="1700.25" width="28.71" height="567.78" style="fill:#CAC27E"/>
	<rect x="1171.19" y="1703.49" width="22.23" height="561.30" style="fill:none;stroke:#D7D29E;stroke-width:6.48"/>
	<rect x="1397.51" y="1930.07" width="28.71" height="337.97" style="fill:#CAC27E"/>
	<rect x="1400.75" y="1933.31" width="22.23" height="331.49" style="fill:none;stroke:#D7D29E;stroke-width:6.48"/>
	<rect x="1598.48" y="2041.82" width="28.71" height="226.22" style="fill:#CAC27E"/>
	<rect x="1601.72" y="2045.05" width="22.23" height="219.74" style="fill:none;stroke:#D7D29E;stroke-width:6.48"/>
	<rect x="1828.16" y="2173.12" width="28.71" height="94.92" style="fill:#CAC27E"/>
	<rect x="1831.40" y="2176.36" width="22.23" height="88.44" style="fill:none;stroke:#D7D29E;stroke-width:6.48"/>
	<line x1="356.40" y1="2268.04" x2="356.40" y2="1387.90" style="stroke:#000000;stroke-width:4.32"/>
	<line x1="356.40" y1="2268.04" x2="326.45" y2="2268.04" style="stroke:#000000;stroke-width:4.32"/>
	<text x="288.92" y="2268.04" style="font-family:'Helvetica';font-size:74.99px;fill:#000000" transform="rotate(-90 288.92,2268.04)" text-anchor="middle">0</text>
	<line x1="356.40" y1="2101.46" x2="326.45" y2="2101.46" style="stroke:#000000;stroke-width:4.32"/>
	<text x="288.92" y="2101.46" style="font-family:'Helvetica';font-size:74.99px;fill:#000000" transform="rotate(-90 288.92,2101.46)" text-anchor="middle">.02</text>
	<line x1="356.40" y1="1935.02" x2="326.45" y2="1935.02" style="stroke:#000000;stroke-width:4.32"/>
	<text x="288.92" y="1935.02" style="font-family:'Helvetica';font-size:74.99px;fill:#000000" transform="rotate(-90 288.92,1935.02)" text-anchor="middle">.04</text>
	<line x1="356.40" y1="1768.44" x2="326.45" y2="1768.44" style="stroke:#000000;stroke-width:4.32"/>
	<text x="288.92" y="1768.44" style="font-family:'Helvetica';font-size:74.99px;fill:#000000" transform="rotate(-90 288.92,1768.44)" text-anchor="middle">.06</text>
	<line x1="356.40" y1="1601.87" x2="326.45" y2="1601.87" style="stroke:#000000;stroke-width:4.32"/>
	<text x="288.92" y="1601.87" style="font-family:'Helvetica';font-size:74.99px;fill:#000000" transform="rotate(-90 288.92,1601.87)" text-anchor="middle">.08</text>
	<line x1="356.40" y1="1435.42" x2="326.45" y2="1435.42" style="stroke:#000000;stroke-width:4.32"/>
	<text x="288.92" y="1435.42" style="font-family:'Helvetica';font-size:74.99px;fill:#000000" transform="rotate(-90 288.92,1435.42)" text-anchor="middle">.1</text>
	<text x="206.38" y="1827.97" style="font-family:'Helvetica';font-size:74.99px;fill:#000000" transform="rotate(-90 206.38,1827.97)" text-anchor="middle">Density</text>
	<line x1="356.40" y1="2268.04" x2="1904.39" y2="2268.04" style="stroke:#000000;stroke-width:4.32"/>
	<line x1="403.92" y1="2268.04" x2="403.92" y2="2297.99" style="stroke:#000000;stroke-width:4.32"/>
	<text x="403.92" y="2365.52" style="font-family:'Helvetica';font-size:74.99px;fill:#000000" text-anchor="middle">01feb2020</text>
	<line x1="848.68" y1="2268.04" x2="848.68" y2="2297.99" style="stroke:#000000;stroke-width:4.32"/>
	<text x="848.68" y="2365.52" style="font-family:'Helvetica';font-size:74.99px;fill:#000000" text-anchor="middle">01apr2020</text>
	<line x1="1300.86" y1="2268.04" x2="1300.86" y2="2297.99" style="stroke:#000000;stroke-width:4.32"/>
	<text x="1300.86" y="2365.52" style="font-family:'Helvetica';font-size:74.99px;fill:#000000" text-anchor="middle">01jun2020</text>
	<line x1="1753.04" y1="2268.04" x2="1753.04" y2="2297.99" style="stroke:#000000;stroke-width:4.32"/>
	<text x="1753.04" y="2365.52" style="font-family:'Helvetica';font-size:74.99px;fill:#000000" text-anchor="middle">01aug2020</text>
	<text x="1130.33" y="2447.94" style="font-family:'Helvetica';font-size:74.99px;fill:#000000" text-anchor="middle">Date of covid TPP case (probable)</text>
	<rect x="1548.98" y="2595.74" width="861.92" height="186.37" style="fill:#FFFFFF"/>
	<rect x="1551.86" y="2598.62" width="856.16" height="180.61" style="fill:none;stroke:#000000;stroke-width:5.76"/>
	<rect x="1592.17" y="2638.93" width="374.34" height="99.99" style="fill:#CAC27E"/>
	<rect x="1596.49" y="2643.25" width="365.70" height="91.35" style="fill:none;stroke:#D7D29E;stroke-width:8.64"/>
	<text x="2026.53" y="2723.95" style="font-family:'Helvetica';font-size:99.99px;fill:#000000">Density</text>
</svg>
