<?xml version="1.0" encoding="UTF-8" standalone="no"?>
<!-- This is a Stata 16.1 generated SVG file (http://www.stata.com) -->

<svg version="1.1" width="5.50in" height="4.00in" viewBox="0 0 3960 2880" xmlns="http://www.w3.org/2000/svg" xmlns:xlink="http://www.w3.org/1999/xlink">
	<desc>Stata Graph - Graph</desc>
	<rect x="0" y="0" width="3960" height="2880" style="fill:#EAF2F3;stroke:none"/>
	<rect x="0.00" y="0.00" width="3959.88" height="2880.00" style="fill:#EAF2F3"/>
	<rect x="2.88" y="2.88" width="3954.12" height="2874.24" style="fill:none;stroke:#EAF2F3;stroke-width:5.76"/>
	<rect x="297.87" y="207.91" width="1799.32" height="1958.65" style="fill:#EAF2F3"/>
	<rect x="300.03" y="210.07" width="1795.01" height="1954.33" style="fill:none;stroke:#EAF2F3;stroke-width:4.32"/>
	<rect x="659.71" y="414.45" width="1361.87" height="1459.06" style="fill:#FFFFFF"/>
	<rect x="661.87" y="416.61" width="1357.55" height="1454.74" style="fill:none;stroke:#FFFFFF;stroke-width:4.32"/>
	<line x1="659.71" y1="1825.99" x2="2021.58" y2="1825.99" style="stroke:#EAF2F3;stroke-width:6.48"/>
	<line x1="659.71" y1="1553.11" x2="2021.58" y2="1553.11" style="stroke:#EAF2F3;stroke-width:6.48"/>
	<line x1="659.71" y1="1280.36" x2="2021.58" y2="1280.36" style="stroke:#EAF2F3;stroke-width:6.48"/>
	<line x1="659.71" y1="1007.60" x2="2021.58" y2="1007.60" style="stroke:#EAF2F3;stroke-width:6.48"/>
	<line x1="659.71" y1="734.73" x2="2021.58" y2="734.73" style="stroke:#EAF2F3;stroke-width:6.48"/>
	<line x1="659.71" y1="461.97" x2="2021.58" y2="461.97" style="stroke:#EAF2F3;stroke-width:6.48"/>
	<path d=" M795.84 1825.49 L979.61 1825.49 L979.61 1790.35 L1112.64 1790.35 L1112.64 1790.10 L1175.87 1790.10 L1175.87 1633.67 L1365.95 1633.67 L1365.95 1390.00 L1562.34 1390.00 L1562.34 1218.36 L1752.30 1218.36 L1752.30 1088.17 L1872.71 1088.17 L1872.71 1088.17" stroke-linejoin="round" style="fill:none;stroke:#1A476F;stroke-width:6.48"/>
	<path d=" M795.84 1825.86 L871.94 1825.86 L871.94 1825.86 L979.61 1825.86 L979.61 1775.87 L1093.58 1775.87 L1093.58 1775.87 L1144.32 1775.87 L1144.32 1775.87 L1175.87 1775.87 L1175.87 1538.51 L1365.95 1538.51 L1365.95 1290.88 L1479.93 1290.88 L1479.93 1290.88 L1562.34 1290.88 L1562.34 1118.24 L1670.01 1118.24 L1670.01 1118.24 L1752.30 1118.24 L1752.30 988.17 L1815.66 988.17 L1815.66 988.17 L1872.71 988.17 L1872.71 988.17" stroke-linejoin="round" style="fill:none;stroke:#90353B;stroke-width:6.48"/>
	<path d=" M795.84 1824.87 L884.57 1824.87 L884.57 1824.87 L966.86 1824.87 L966.86 1824.87 L979.61 1824.87 L979.61 1765.72 L1087.27 1765.72 L1087.27 1765.72 L1093.58 1765.72 L1093.58 1765.47 L1112.64 1765.47 L1112.64 1765.23 L1150.63 1765.23 L1150.63 1765.10 L1156.94 1765.10 L1156.94 1764.85 L1163.25 1764.85 L1163.25 1764.85 L1169.56 1764.85 L1169.56 1764.61 L1175.87 1764.61 L1175.87 1432.20 L1277.22 1432.20 L1277.22 1431.96 L1302.59 1431.96 L1302.59 1431.71 L1334.27 1431.71 L1334.27 1431.71 L1346.89 1431.71 L1346.89 1431.58 L1365.95 1431.58 L1365.95 1113.91 L1486.36 1113.91 L1486.36 1113.91 L1498.98 1113.91 L1498.98 1113.91 L1505.30 1113.91 L1505.30 1113.91 L1524.35 1113.91 L1524.35 1113.91 L1562.34 1113.91 L1562.34 938.18 L1752.30 938.18 L1752.30 820.12 L1872.71 820.12 L1872.71 820.12" stroke-linejoin="round" style="fill:none;stroke:#55752F;stroke-width:6.48"/>
	<path d=" M713.54 1825.99 L764.16 1825.99 L764.16 1825.99 L783.21 1825.99 L783.21 1825.99 L795.84 1825.99 L795.84 1824.50 L852.88 1824.50 L852.88 1824.50 L878.25 1824.50 L878.25 1824.50 L960.55 1824.50 L960.55 1824.50 L973.29 1824.50 L973.29 1824.50 L979.61 1824.50 L979.61 1752.48 L1068.21 1752.48 L1068.21 1752.35 L1087.27 1752.35 L1087.27 1752.11 L1093.58 1752.11 L1093.58 1751.86 L1099.89 1751.86 L1099.89 1751.49 L1106.20 1751.49 L1106.20 1751.24 L1112.64 1751.24 L1112.64 1751.12 L1118.95 1751.12 L1118.95 1750.87 L1125.26 1750.87 L1125.26 1750.25 L1131.57 1750.25 L1131.57 1750.00 L1144.32 1750.00 L1144.32 1749.76 L1150.63 1749.76 L1150.63 1749.63 L1156.94 1749.63 L1156.94 1749.38 L1163.25 1749.38 L1163.25 1749.14 L1175.87 1749.14 L1175.87 1355.10 L1232.92 1355.10 L1232.92 1355.10 L1270.91 1355.10 L1270.91 1354.86 L1296.28 1354.86 L1296.28 1354.86 L1302.59 1354.86 L1302.59 1354.61 L1321.65 1354.61 L1321.65 1354.49 L1353.33 1354.49 L1353.33 1354.24 L1359.64 1354.24 L1359.64 1354.24 L1365.95 1354.24 L1365.95 1020.47 L1416.57 1020.47 L1416.57 1020.47 L1486.36 1020.47 L1486.36 1020.47 L1511.61 1020.47 L1511.61 1020.47 L1530.66 1020.47 L1530.66 1020.47 L1536.97 1020.47 L1536.97 1020.47 L1543.29 1020.47 L1543.29 1020.47 L1556.03 1020.47 L1556.03 1020.23 L1562.34 1020.23 L1562.34 863.55 L1695.38 863.55 L1695.38 863.55 L1701.69 863.55 L1701.69 863.55 L1720.62 863.55 L1720.62 863.55 L1752.30 863.55 L1752.30 764.68 L1872.71 764.68 L1872.71 764.68" stroke-linejoin="round" style="fill:none;stroke:#E37E00;stroke-width:6.48"/>
	<path d=" M795.84 1825.62 L802.27 1825.62 L802.27 1825.62 L852.88 1825.62 L852.88 1825.62 L909.93 1825.62 L909.93 1825.62 L922.56 1825.62 L922.56 1825.62 L935.18 1825.62 L935.18 1825.62 L941.61 1825.62 L941.61 1825.62 L954.24 1825.62 L954.24 1825.62 L979.61 1825.62 L979.61 1761.88 L985.92 1761.88 L985.92 1761.88 L1036.53 1761.88 L1036.53 1761.88 L1055.59 1761.88 L1055.59 1761.51 L1087.27 1761.51 L1087.27 1761.51 L1093.58 1761.51 L1093.58 1761.14 L1099.89 1761.14 L1099.89 1760.65 L1106.20 1760.65 L1106.20 1760.28 L1112.64 1760.28 L1112.64 1759.04 L1118.95 1759.04 L1118.95 1758.17 L1125.26 1758.17 L1125.26 1757.80 L1131.57 1757.80 L1131.57 1757.80 L1137.88 1757.80 L1137.88 1756.56 L1144.32 1756.56 L1144.32 1755.32 L1156.94 1755.32 L1156.94 1754.46 L1169.56 1754.46 L1169.56 1752.85 L1175.87 1752.85 L1175.87 1416.73 L1258.29 1416.73 L1258.29 1416.36 L1264.60 1416.36 L1264.60 1416.36 L1302.59 1416.36 L1302.59 1415.99 L1315.34 1415.99 L1315.34 1415.50 L1334.27 1415.50 L1334.27 1414.75 L1353.33 1414.75 L1353.33 1414.75 L1365.95 1414.75 L1365.95 1166.26 L1410.26 1166.26 L1410.26 1166.26 L1416.57 1166.26 L1416.57 1165.76 L1429.31 1165.76 L1429.31 1165.76 L1492.67 1165.76 L1492.67 1165.76 L1511.61 1165.76 L1511.61 1165.39 L1530.66 1165.39 L1530.66 1165.02 L1549.60 1165.02 L1549.60 1164.52 L1562.34 1164.52 L1562.34 1041.64 L1638.33 1041.64 L1638.33 1041.64 L1708.00 1041.64 L1708.00 1041.64 L1714.31 1041.64 L1714.31 1041.64 L1727.06 1041.64 L1727.06 1041.64 L1752.30 1041.64 L1752.30 966.52 L1872.71 966.52 L1872.71 966.52" stroke-linejoin="round" style="fill:none;stroke:#6E8E84;stroke-width:6.48"/>
	<line x1="659.71" y1="1873.51" x2="659.71" y2="414.45" style="stroke:#000000;stroke-width:4.32"/>
	<line x1="659.71" y1="1825.99" x2="629.76" y2="1825.99" style="stroke:#000000;stroke-width:4.32"/>
	<text x="614.79" y="1852.27" style="font-family:'Helvetica';font-size:74.99px;fill:#000000" text-anchor="end">0.000</text>
	<line x1="659.71" y1="1553.11" x2="629.76" y2="1553.11" style="stroke:#000000;stroke-width:4.32"/>
	<text x="614.79" y="1579.39" style="font-family:'Helvetica';font-size:74.99px;fill:#000000" text-anchor="end">0.001</text>
	<line x1="659.71" y1="1280.36" x2="629.76" y2="1280.36" style="stroke:#000000;stroke-width:4.32"/>
	<text x="614.79" y="1306.64" style="font-family:'Helvetica';font-size:74.99px;fill:#000000" text-anchor="end">0.002</text>
	<line x1="659.71" y1="1007.60" x2="629.76" y2="1007.60" style="stroke:#000000;stroke-width:4.32"/>
	<text x="614.79" y="1033.88" style="font-family:'Helvetica';font-size:74.99px;fill:#000000" text-anchor="end">0.003</text>
	<line x1="659.71" y1="734.73" x2="629.76" y2="734.73" style="stroke:#000000;stroke-width:4.32"/>
	<text x="614.79" y="761.01" style="font-family:'Helvetica';font-size:74.99px;fill:#000000" text-anchor="end">0.004</text>
	<line x1="659.71" y1="461.97" x2="629.76" y2="461.97" style="stroke:#000000;stroke-width:4.32"/>
	<text x="614.79" y="488.25" style="font-family:'Helvetica';font-size:74.99px;fill:#000000" text-anchor="end">0.005</text>
	<line x1="659.71" y1="1873.51" x2="2021.58" y2="1873.51" style="stroke:#000000;stroke-width:4.32"/>
	<line x1="707.23" y1="1873.51" x2="707.23" y2="1903.46" style="stroke:#000000;stroke-width:4.32"/>
	<text x="707.23" y="1970.87" style="font-family:'Helvetica';font-size:74.99px;fill:#000000" text-anchor="middle">1 Feb 20</text>
	<line x1="891.00" y1="1873.51" x2="891.00" y2="1903.46" style="stroke:#000000;stroke-width:4.32"/>
	<text x="891.00" y="1970.87" style="font-family:'Helvetica';font-size:74.99px;fill:#000000" text-anchor="middle">1 Mar 20</text>
	<line x1="1087.27" y1="1873.51" x2="1087.27" y2="1903.46" style="stroke:#000000;stroke-width:4.32"/>
	<text x="1087.27" y="1970.87" style="font-family:'Helvetica';font-size:74.99px;fill:#000000" text-anchor="middle">1 Apr 20</text>
	<line x1="1283.66" y1="1873.51" x2="1283.66" y2="1903.46" style="stroke:#000000;stroke-width:4.32"/>
	<text x="1283.66" y="1970.87" style="font-family:'Helvetica';font-size:74.99px;fill:#000000" text-anchor="middle">1 May 20</text>
	<line x1="1473.74" y1="1873.51" x2="1473.74" y2="1903.46" style="stroke:#000000;stroke-width:4.32"/>
	<text x="1473.74" y="1970.87" style="font-family:'Helvetica';font-size:74.99px;fill:#000000" text-anchor="middle">1 June 20</text>
	<line x1="1663.69" y1="1873.51" x2="1663.69" y2="1903.46" style="stroke:#000000;stroke-width:4.32"/>
	<text x="1663.69" y="1970.87" style="font-family:'Helvetica';font-size:74.99px;fill:#000000" text-anchor="middle">1 July 20</text>
	<line x1="1860.09" y1="1873.51" x2="1860.09" y2="1903.46" style="stroke:#000000;stroke-width:4.32"/>
	<text x="1860.09" y="1970.87" style="font-family:'Helvetica';font-size:74.99px;fill:#000000" text-anchor="middle">1 Aug 20</text>
	<text x="1340.71" y="2053.41" style="font-family:'Helvetica';font-size:74.99px;fill:#000000" text-anchor="middle"> </text>
	<text x="1340.71" y="369.91" style="font-family:'Helvetica';font-size:104.94px;fill:#1E2D53" text-anchor="middle">Female</text>
	<rect x="2097.19" y="207.91" width="1799.33" height="1958.65" style="fill:#EAF2F3"/>
	<rect x="2099.35" y="210.07" width="1795.01" height="1954.33" style="fill:none;stroke:#EAF2F3;stroke-width:4.32"/>
	<rect x="2459.04" y="414.45" width="1361.87" height="1459.06" style="fill:#FFFFFF"/>
	<rect x="2461.20" y="416.61" width="1357.55" height="1454.74" style="fill:none;stroke:#FFFFFF;stroke-width:4.32"/>
	<line x1="2459.04" y1="1825.99" x2="3820.91" y2="1825.99" style="stroke:#EAF2F3;stroke-width:6.48"/>
	<line x1="2459.04" y1="1553.11" x2="3820.91" y2="1553.11" style="stroke:#EAF2F3;stroke-width:6.48"/>
	<line x1="2459.04" y1="1280.36" x2="3820.91" y2="1280.36" style="stroke:#EAF2F3;stroke-width:6.48"/>
	<line x1="2459.04" y1="1007.60" x2="3820.91" y2="1007.60" style="stroke:#EAF2F3;stroke-width:6.48"/>
	<line x1="2459.04" y1="734.73" x2="3820.91" y2="734.73" style="stroke:#EAF2F3;stroke-width:6.48"/>
	<line x1="2459.04" y1="461.97" x2="3820.91" y2="461.97" style="stroke:#EAF2F3;stroke-width:6.48"/>
	<path d=" M2595.16 1824.50 L2601.47 1824.50 L2601.47 1824.50 L2626.84 1824.50 L2626.84 1824.50 L2683.89 1824.50 L2683.89 1824.50 L2766.18 1824.50 L2766.18 1824.50 L2778.93 1824.50 L2778.93 1799.75 L2930.89 1799.75 L2930.89 1799.63 L2937.21 1799.63 L2937.21 1799.38 L2949.95 1799.38 L2949.95 1799.13 L2975.20 1799.13 L2975.20 1727.98 L3165.28 1727.98 L3165.28 1607.07 L3361.67 1607.07 L3361.67 1493.59 L3488.26 1493.59 L3488.26 1493.34 L3551.63 1493.34 L3551.63 1389.51 L3672.03 1389.51 L3672.03 1389.51" stroke-linejoin="round" style="fill:none;stroke:#1A476F;stroke-width:6.48"/>
	<path d=" M2595.16 1825.25 L2702.82 1825.25 L2702.82 1825.25 L2766.18 1825.25 L2766.18 1825.00 L2778.93 1825.00 L2778.93 1783.17 L2810.49 1783.17 L2810.49 1783.17 L2880.28 1783.17 L2880.28 1783.17 L2911.84 1783.17 L2911.84 1783.05 L2924.58 1783.05 L2924.58 1782.80 L2956.26 1782.80 L2956.26 1782.67 L2975.20 1782.67 L2975.20 1652.61 L3006.88 1652.61 L3006.88 1652.61 L3108.23 1652.61 L3108.23 1652.36 L3165.28 1652.36 L3165.28 1498.78 L3361.67 1498.78 L3361.67 1360.67 L3513.63 1360.67 L3513.63 1360.67 L3551.63 1360.67 L3551.63 1253.75 L3672.03 1253.75 L3672.03 1253.75" stroke-linejoin="round" style="fill:none;stroke:#90353B;stroke-width:6.48"/>
	<path d=" M2512.87 1825.99 L2544.55 1825.99 L2544.55 1825.99 L2595.16 1825.99 L2595.16 1825.62 L2658.52 1825.62 L2658.52 1825.62 L2778.93 1825.62 L2778.93 1776.12 L2861.22 1776.12 L2861.22 1776.12 L2873.85 1776.12 L2873.85 1775.87 L2899.22 1775.87 L2899.22 1775.62 L2918.27 1775.62 L2918.27 1775.37 L2924.58 1775.37 L2924.58 1775.25 L2930.89 1775.25 L2930.89 1775.00 L2943.52 1775.00 L2943.52 1774.75 L2949.95 1774.75 L2949.95 1774.51 L2956.26 1774.51 L2956.26 1774.26 L2962.57 1774.26 L2962.57 1773.89 L2968.89 1773.89 L2968.89 1773.89 L2975.20 1773.89 L2975.20 1564.13 L3089.30 1564.13 L3089.30 1564.13 L3114.54 1564.13 L3114.54 1563.88 L3120.97 1563.88 L3120.97 1563.88 L3139.91 1563.88 L3139.91 1563.88 L3146.22 1563.88 L3146.22 1563.88 L3165.28 1563.88 L3165.28 1378.74 L3279.25 1378.74 L3279.25 1378.74 L3323.55 1378.74 L3323.55 1378.74 L3355.23 1378.74 L3355.23 1378.74 L3361.67 1378.74 L3361.67 1242.98 L3437.65 1242.98 L3437.65 1242.98 L3450.27 1242.98 L3450.27 1242.98 L3469.33 1242.98 L3469.33 1242.98 L3545.31 1242.98 L3545.31 1242.74 L3551.63 1242.74 L3551.63 1140.27 L3672.03 1140.27 L3672.03 1140.27" stroke-linejoin="round" style="fill:none;stroke:#55752F;stroke-width:6.48"/>
	<path d=" M2538.11 1825.99 L2557.17 1825.99 L2557.17 1825.99 L2569.79 1825.99 L2569.79 1825.99 L2595.16 1825.99 L2595.16 1824.01 L2607.91 1824.01 L2607.91 1824.01 L2645.90 1824.01 L2645.90 1824.01 L2658.52 1824.01 L2658.52 1824.01 L2671.14 1824.01 L2671.14 1824.01 L2683.89 1824.01 L2683.89 1824.01 L2702.82 1824.01 L2702.82 1824.01 L2709.26 1824.01 L2709.26 1824.01 L2715.57 1824.01 L2715.57 1824.01 L2721.88 1824.01 L2721.88 1824.01 L2728.19 1824.01 L2728.19 1824.01 L2740.82 1824.01 L2740.82 1824.01 L2759.87 1824.01 L2759.87 1824.01 L2778.93 1824.01 L2778.93 1746.66 L2791.55 1746.66 L2791.55 1746.66 L2854.91 1746.66 L2854.91 1746.54 L2873.85 1746.54 L2873.85 1746.54 L2880.28 1746.54 L2880.28 1746.54 L2886.59 1746.54 L2886.59 1746.29 L2892.90 1746.29 L2892.90 1745.67 L2899.22 1745.67 L2899.22 1745.05 L2905.53 1745.05 L2905.53 1744.68 L2911.84 1744.68 L2911.84 1744.06 L2918.27 1744.06 L2918.27 1743.57 L2924.58 1743.57 L2924.58 1743.32 L2930.89 1743.32 L2930.89 1742.33 L2937.21 1742.33 L2937.21 1741.34 L2943.52 1741.34 L2943.52 1740.85 L2949.95 1740.85 L2949.95 1739.86 L2956.26 1739.86 L2956.26 1738.74 L2962.57 1738.74 L2962.57 1738.00 L2968.89 1738.00 L2968.89 1736.89 L2975.20 1736.89 L2975.20 1414.26 L2987.94 1414.26 L2987.94 1414.26 L3038.56 1414.26 L3038.56 1414.26 L3057.61 1414.26 L3057.61 1414.14 L3070.24 1414.14 L3070.24 1413.89 L3082.86 1413.89 L3082.86 1413.89 L3089.30 1413.89 L3089.30 1413.89 L3101.92 1413.89 L3101.92 1413.89 L3108.23 1413.89 L3108.23 1413.89 L3120.97 1413.89 L3120.97 1413.64 L3133.60 1413.64 L3133.60 1413.39 L3139.91 1413.39 L3139.91 1413.27 L3146.22 1413.27 L3146.22 1413.02 L3152.53 1413.02 L3152.53 1412.77 L3158.97 1412.77 L3158.97 1412.40 L3165.28 1412.40 L3165.28 1184.82 L3253.88 1184.82 L3253.88 1184.57 L3260.32 1184.57 L3260.32 1184.45 L3285.56 1184.45 L3285.56 1184.45 L3304.62 1184.45 L3304.62 1184.45 L3317.24 1184.45 L3317.24 1184.45 L3323.55 1184.45 L3323.55 1184.20 L3336.30 1184.20 L3336.30 1184.20 L3361.67 1184.20 L3361.67 1060.57 L3431.34 1060.57 L3431.34 1060.57 L3450.27 1060.57 L3450.27 1060.32 L3475.64 1060.32 L3475.64 1060.32 L3488.26 1060.32 L3488.26 1060.32 L3501.01 1060.32 L3501.01 1060.32 L3507.32 1060.32 L3507.32 1060.32 L3519.95 1060.32 L3519.95 1060.32 L3539.00 1060.32 L3539.00 1060.32 L3551.63 1060.32 L3551.63 976.05 L3614.99 976.05 L3614.99 976.05 L3634.04 976.05 L3634.04 976.05 L3672.03 976.05 L3672.03 976.05" stroke-linejoin="round" style="fill:none;stroke:#E37E00;stroke-width:6.48"/>
	<path d=" M2512.87 1825.99 L2519.18 1825.99 L2519.18 1825.99 L2531.80 1825.99 L2531.80 1825.99 L2582.54 1825.99 L2582.54 1825.99 L2588.85 1825.99 L2588.85 1825.99 L2595.16 1825.99 L2595.16 1825.62 L2620.53 1825.62 L2620.53 1825.62 L2626.84 1825.62 L2626.84 1825.62 L2645.90 1825.62 L2645.90 1825.62 L2677.58 1825.62 L2677.58 1825.62 L2728.19 1825.62 L2728.19 1825.62 L2747.25 1825.62 L2747.25 1825.62 L2772.49 1825.62 L2772.49 1825.62 L2778.93 1825.62 L2778.93 1735.90 L2848.60 1735.90 L2848.60 1735.52 L2854.91 1735.52 L2854.91 1735.52 L2861.22 1735.52 L2861.22 1735.52 L2880.28 1735.52 L2880.28 1735.15 L2886.59 1735.15 L2886.59 1734.29 L2892.90 1734.29 L2892.90 1733.42 L2899.22 1733.42 L2899.22 1731.69 L2905.53 1731.69 L2905.53 1730.45 L2911.84 1730.45 L2911.84 1729.21 L2918.27 1729.21 L2918.27 1728.35 L2924.58 1728.35 L2924.58 1727.11 L2930.89 1727.11 L2930.89 1724.51 L2937.21 1724.51 L2937.21 1721.66 L2943.52 1721.66 L2943.52 1720.80 L2949.95 1720.80 L2949.95 1719.93 L2956.26 1719.93 L2956.26 1717.46 L2962.57 1717.46 L2962.57 1715.72 L2968.89 1715.72 L2968.89 1713.62 L2975.20 1713.62 L2975.20 1351.14 L2981.51 1351.14 L2981.51 1351.14 L3044.87 1351.14 L3044.87 1351.14 L3051.30 1351.14 L3051.30 1351.14 L3063.93 1351.14 L3063.93 1350.77 L3070.24 1350.77 L3070.24 1350.40 L3076.55 1350.40 L3076.55 1349.04 L3082.86 1349.04 L3082.86 1348.67 L3089.30 1348.67 L3089.30 1348.67 L3095.61 1348.67 L3095.61 1347.80 L3108.23 1347.80 L3108.23 1346.94 L3114.54 1346.94 L3114.54 1346.57 L3120.97 1346.57 L3120.97 1345.70 L3127.29 1345.70 L3127.29 1345.33 L3133.60 1345.33 L3133.60 1345.33 L3139.91 1345.33 L3139.91 1345.33 L3146.22 1345.33 L3146.22 1343.97 L3165.28 1343.97 L3165.28 1100.17 L3247.57 1100.17 L3247.57 1100.17 L3266.63 1100.17 L3266.63 1100.17 L3279.25 1100.17 L3279.25 1100.17 L3285.56 1100.17 L3285.56 1100.17 L3298.31 1100.17 L3298.31 1099.68 L3310.93 1099.68 L3310.93 1098.93 L3317.24 1098.93 L3317.24 1098.93 L3323.55 1098.93 L3323.55 1098.93 L3342.61 1098.93 L3342.61 1098.93 L3361.67 1098.93 L3361.67 987.18 L3386.91 987.18 L3386.91 987.18 L3399.66 987.18 L3399.66 987.18 L3437.65 987.18 L3437.65 987.18 L3456.59 987.18 L3456.59 987.18 L3469.33 987.18 L3469.33 987.18 L3507.32 987.18 L3507.32 987.18 L3513.63 987.18 L3513.63 987.18 L3532.69 987.18 L3532.69 987.18 L3551.63 987.18 L3551.63 902.91 L3672.03 902.91 L3672.03 902.91" stroke-linejoin="round" style="fill:none;stroke:#6E8E84;stroke-width:6.48"/>
	<line x1="2459.04" y1="1873.51" x2="2459.04" y2="414.45" style="stroke:#000000;stroke-width:4.32"/>
	<line x1="2459.04" y1="1825.99" x2="2429.09" y2="1825.99" style="stroke:#000000;stroke-width:4.32"/>
	<text x="2413.99" y="1852.27" style="font-family:'Helvetica';font-size:74.99px;fill:#000000" text-anchor="end">0.000</text>
	<line x1="2459.04" y1="1553.11" x2="2429.09" y2="1553.11" style="stroke:#000000;stroke-width:4.32"/>
	<text x="2413.99" y="1579.39" style="font-family:'Helvetica';font-size:74.99px;fill:#000000" text-anchor="end">0.001</text>
	<line x1="2459.04" y1="1280.36" x2="2429.09" y2="1280.36" style="stroke:#000000;stroke-width:4.32"/>
	<text x="2413.99" y="1306.64" style="font-family:'Helvetica';font-size:74.99px;fill:#000000" text-anchor="end">0.002</text>
	<line x1="2459.04" y1="1007.60" x2="2429.09" y2="1007.60" style="stroke:#000000;stroke-width:4.32"/>
	<text x="2413.99" y="1033.88" style="font-family:'Helvetica';font-size:74.99px;fill:#000000" text-anchor="end">0.003</text>
	<line x1="2459.04" y1="734.73" x2="2429.09" y2="734.73" style="stroke:#000000;stroke-width:4.32"/>
	<text x="2413.99" y="761.01" style="font-family:'Helvetica';font-size:74.99px;fill:#000000" text-anchor="end">0.004</text>
	<line x1="2459.04" y1="461.97" x2="2429.09" y2="461.97" style="stroke:#000000;stroke-width:4.32"/>
	<text x="2413.99" y="488.25" style="font-family:'Helvetica';font-size:74.99px;fill:#000000" text-anchor="end">0.005</text>
	<line x1="2459.04" y1="1873.51" x2="3820.91" y2="1873.51" style="stroke:#000000;stroke-width:4.32"/>
	<line x1="2506.56" y1="1873.51" x2="2506.56" y2="1903.46" style="stroke:#000000;stroke-width:4.32"/>
	<text x="2506.56" y="1970.87" style="font-family:'Helvetica';font-size:74.99px;fill:#000000" text-anchor="middle">1 Feb 20</text>
	<line x1="2690.20" y1="1873.51" x2="2690.20" y2="1903.46" style="stroke:#000000;stroke-width:4.32"/>
	<text x="2690.20" y="1970.87" style="font-family:'Helvetica';font-size:74.99px;fill:#000000" text-anchor="middle">1 Mar 20</text>
	<line x1="2886.59" y1="1873.51" x2="2886.59" y2="1903.46" style="stroke:#000000;stroke-width:4.32"/>
	<text x="2886.59" y="1970.87" style="font-family:'Helvetica';font-size:74.99px;fill:#000000" text-anchor="middle">1 Apr 20</text>
	<line x1="3082.98" y1="1873.51" x2="3082.98" y2="1903.46" style="stroke:#000000;stroke-width:4.32"/>
	<text x="3082.98" y="1970.87" style="font-family:'Helvetica';font-size:74.99px;fill:#000000" text-anchor="middle">1 May 20</text>
	<line x1="3272.94" y1="1873.51" x2="3272.94" y2="1903.46" style="stroke:#000000;stroke-width:4.32"/>
	<text x="3272.94" y="1970.87" style="font-family:'Helvetica';font-size:74.99px;fill:#000000" text-anchor="middle">1 June 20</text>
	<line x1="3463.02" y1="1873.51" x2="3463.02" y2="1903.46" style="stroke:#000000;stroke-width:4.32"/>
	<text x="3463.02" y="1970.87" style="font-family:'Helvetica';font-size:74.99px;fill:#000000" text-anchor="middle">1 July 20</text>
	<line x1="3659.41" y1="1873.51" x2="3659.41" y2="1903.46" style="stroke:#000000;stroke-width:4.32"/>
	<text x="3659.41" y="1970.87" style="font-family:'Helvetica';font-size:74.99px;fill:#000000" text-anchor="middle">1 Aug 20</text>
	<text x="3140.03" y="2053.41" style="font-family:'Helvetica';font-size:74.99px;fill:#000000" text-anchor="middle">Days since 1 Feb 2020</text>
	<text x="3140.03" y="369.91" style="font-family:'Helvetica';font-size:104.94px;fill:#1E2D53" text-anchor="middle">Male</text>
	<text x="150.62" y="1187.29" style="font-family:'Helvetica';font-size:99.99px;fill:#000000" transform="rotate(-90 150.62,1187.29)" text-anchor="middle">Cumulative probability</text>
	<text x="250.61" y="1187.29" style="font-family:'Helvetica';font-size:99.99px;fill:#000000" transform="rotate(-90 250.61,1187.29)" text-anchor="middle">TPP Covid-19 case</text>
	<text x="2097.19" y="157.51" style="font-family:'Helvetica';font-size:110.01px;fill:#000000" text-anchor="middle"> </text>
	<rect x="1114.86" y="2201.21" width="1964.66" height="580.90" style="fill:#FFFFFF"/>
	<rect x="1117.74" y="2204.09" width="1958.90" height="575.14" style="fill:none;stroke:#000000;stroke-width:5.76"/>
	<line x1="1158.05" y1="2408.87" x2="1532.52" y2="2408.87" style="stroke:#1A476F;stroke-width:8.64"/>
	<line x1="1158.05" y1="2548.83" x2="1532.52" y2="2548.83" style="stroke:#90353B;stroke-width:8.64"/>
	<line x1="1158.05" y1="2688.92" x2="1532.52" y2="2688.92" style="stroke:#55752F;stroke-width:8.64"/>
	<line x1="1996.09" y1="2408.87" x2="2370.43" y2="2408.87" style="stroke:#E37E00;stroke-width:8.64"/>
	<line x1="1996.09" y1="2548.83" x2="2370.43" y2="2548.83" style="stroke:#6E8E84;stroke-width:8.64"/>
	<text x="1592.54" y="2436.88" style="font-family:'Helvetica';font-size:79.94px;fill:#000000">18-&lt;30</text>
	<text x="1592.54" y="2576.85" style="font-family:'Helvetica';font-size:79.94px;fill:#000000">30-&lt;40</text>
	<text x="1592.54" y="2716.94" style="font-family:'Helvetica';font-size:79.94px;fill:#000000">40-&lt;50</text>
	<text x="2430.45" y="2436.88" style="font-family:'Helvetica';font-size:79.94px;fill:#000000">50-&lt;60</text>
	<text x="2430.45" y="2576.85" style="font-family:'Helvetica';font-size:79.94px;fill:#000000">60-&lt;70</text>
	<text x="2430.45" y="2716.94" style="font-family:'Helvetica';font-size:79.94px;fill:#000000">70-&lt;80</text>
	<text x="2894.02" y="2436.88" style="font-family:'Helvetica';font-size:79.94px;fill:#000000">80+</text>
	<text x="2097.19" y="2308.96" style="font-family:'Helvetica';font-size:79.94px;fill:#000000" text-anchor="middle">Age group</text>
</svg>
