<?xml version="1.0" encoding="UTF-8" standalone="no"?>
<!-- This is a Stata 16.1 generated SVG file (http://www.stata.com) -->

<svg version="1.1" width="5.50in" height="4.00in" viewBox="0 0 3960 2880" xmlns="http://www.w3.org/2000/svg" xmlns:xlink="http://www.w3.org/1999/xlink">
	<desc>Stata Graph - Graph</desc>
	<rect x="0" y="0" width="3960" height="2880" style="fill:#EAF2F3;stroke:none"/>
	<rect x="0.00" y="0.00" width="3959.88" height="2880.00" style="fill:#EAF2F3"/>
	<rect x="2.88" y="2.88" width="3954.12" height="2874.24" style="fill:none;stroke:#EAF2F3;stroke-width:5.76"/>
	<rect x="297.87" y="207.91" width="1799.32" height="1958.65" style="fill:#EAF2F3"/>
	<rect x="300.03" y="210.07" width="1795.01" height="1954.33" style="fill:none;stroke:#EAF2F3;stroke-width:4.32"/>
	<rect x="659.71" y="414.45" width="1361.87" height="1459.06" style="fill:#FFFFFF"/>
	<rect x="661.87" y="416.61" width="1357.55" height="1454.74" style="fill:none;stroke:#FFFFFF;stroke-width:4.32"/>
	<line x1="659.71" y1="1825.99" x2="2021.58" y2="1825.99" style="stroke:#EAF2F3;stroke-width:6.48"/>
	<line x1="659.71" y1="1553.11" x2="2021.58" y2="1553.11" style="stroke:#EAF2F3;stroke-width:6.48"/>
	<line x1="659.71" y1="1280.36" x2="2021.58" y2="1280.36" style="stroke:#EAF2F3;stroke-width:6.48"/>
	<line x1="659.71" y1="1007.60" x2="2021.58" y2="1007.60" style="stroke:#EAF2F3;stroke-width:6.48"/>
	<line x1="659.71" y1="734.73" x2="2021.58" y2="734.73" style="stroke:#EAF2F3;stroke-width:6.48"/>
	<line x1="659.71" y1="461.97" x2="2021.58" y2="461.97" style="stroke:#EAF2F3;stroke-width:6.48"/>
	<path d=" M795.84 1825.62 L802.27 1825.62 L802.27 1825.49 L833.83 1825.49 L833.83 1825.25 L852.88 1825.25 L852.88 1825.00 L871.94 1825.00 L871.94 1824.87 L897.19 1824.87 L897.19 1824.63 L909.93 1824.63 L909.93 1824.38 L916.25 1824.38 L916.25 1824.26 L935.18 1824.26 L935.18 1824.01 L954.24 1824.01 L954.24 1823.76 L1055.59 1823.76 L1055.59 1823.64 L1099.89 1823.64 L1099.89 1823.27 L1112.64 1823.27 L1112.64 1823.02 L1125.26 1823.02 L1125.26 1822.77 L1137.88 1822.77 L1137.88 1822.65 L1163.25 1822.65 L1163.25 1822.15 L1182.31 1822.15 L1182.31 1822.03 L1188.62 1822.03 L1188.62 1821.78 L1201.24 1821.78 L1201.24 1821.66 L1226.61 1821.66 L1226.61 1821.41 L1232.92 1821.41 L1232.92 1821.04 L1245.54 1821.04 L1245.54 1820.79 L1270.91 1820.79 L1270.91 1820.17 L1289.97 1820.17 L1289.97 1820.05 L1296.28 1820.05 L1296.28 1819.80 L1302.59 1819.80 L1302.59 1819.43 L1327.96 1819.43 L1327.96 1819.18 L1372.26 1819.18 L1372.26 1818.81 L1385.01 1818.81 L1385.01 1818.56 L1416.57 1818.56 L1416.57 1818.19 L1429.31 1818.19 L1429.31 1817.94 L1441.93 1817.94 L1441.93 1817.57 L1448.25 1817.57 L1448.25 1817.33 L1454.68 1817.33 L1454.68 1817.20 L1467.30 1817.20 L1467.30 1816.95 L1473.62 1816.95 L1473.62 1816.71 L1498.98 1816.71 L1498.98 1816.58 L1505.30 1816.58 L1505.30 1816.34 L1574.97 1816.34 L1574.97 1816.21 L1644.64 1816.21 L1644.64 1815.96 L1657.38 1815.96 L1657.38 1815.72 L1663.69 1815.72 L1663.69 1815.59 L1682.63 1815.59 L1682.63 1815.35 L1708.00 1815.35 L1708.00 1815.10 L1720.62 1815.10 L1720.62 1814.97 L1727.06 1814.97 L1727.06 1814.73 L1733.37 1814.73 L1733.37 1814.36 L1745.99 1814.36 L1745.99 1814.11 L1777.67 1814.11 L1777.67 1813.98 L1790.29 1813.98 L1790.29 1813.74 L1803.04 1813.74 L1803.04 1813.49 L1872.71 1813.49 L1872.71 1813.49" stroke-linejoin="round" style="fill:none;stroke:#1A476F;stroke-width:6.48"/>
	<path d=" M713.54 1825.62 L719.85 1825.62 L719.85 1825.49 L726.16 1825.49 L726.16 1825.00 L732.48 1825.00 L732.48 1824.87 L745.22 1824.87 L745.22 1824.50 L751.53 1824.50 L751.53 1824.26 L757.85 1824.26 L757.85 1824.01 L764.16 1824.01 L764.16 1823.88 L770.59 1823.88 L770.59 1823.39 L776.90 1823.39 L776.90 1823.27 L783.21 1823.27 L783.21 1822.65 L789.52 1822.65 L789.52 1822.03 L795.84 1822.03 L795.84 1821.90 L802.27 1821.90 L802.27 1821.41 L814.89 1821.41 L814.89 1821.04 L821.21 1821.04 L821.21 1820.91 L840.26 1820.91 L840.26 1820.67 L846.57 1820.67 L846.57 1820.42 L852.88 1820.42 L852.88 1820.30 L859.20 1820.30 L859.20 1819.80 L871.94 1819.80 L871.94 1819.68 L890.88 1819.68 L890.88 1819.43 L897.19 1819.43 L897.19 1818.44 L903.50 1818.44 L903.50 1818.32 L916.25 1818.32 L916.25 1817.82 L922.56 1817.82 L922.56 1817.33 L928.87 1817.33 L928.87 1816.83 L935.18 1816.83 L935.18 1816.71 L947.92 1816.71 L947.92 1816.46 L960.55 1816.46 L960.55 1816.21 L966.86 1816.21 L966.86 1815.84 L973.29 1815.84 L973.29 1815.72 L979.61 1815.72 L979.61 1815.47 L985.92 1815.47 L985.92 1815.10 L992.23 1815.10 L992.23 1814.48 L998.54 1814.48 L998.54 1813.86 L1004.85 1813.86 L1004.85 1813.49 L1011.28 1813.49 L1011.28 1813.24 L1017.60 1813.24 L1017.60 1812.87 L1023.91 1812.87 L1023.91 1812.62 L1030.22 1812.62 L1030.22 1812.62 L1036.53 1812.62 L1036.53 1812.13 L1042.96 1812.13 L1042.96 1811.63 L1049.28 1811.63 L1049.28 1811.51 L1055.59 1811.51 L1055.59 1811.26 L1061.90 1811.26 L1061.90 1811.14 L1068.21 1811.14 L1068.21 1810.89 L1074.52 1810.89 L1074.52 1810.64 L1080.96 1810.64 L1080.96 1810.52 L1087.27 1810.52 L1087.27 1810.27 L1093.58 1810.27 L1093.58 1810.15 L1099.89 1810.15 L1099.89 1809.65 L1106.20 1809.65 L1106.20 1809.28 L1112.64 1809.28 L1112.64 1809.16 L1118.95 1809.16 L1118.95 1808.54 L1125.26 1808.54 L1125.26 1808.29 L1131.57 1808.29 L1131.57 1808.04 L1137.88 1808.04 L1137.88 1807.55 L1144.32 1807.55 L1144.32 1807.30 L1150.63 1807.30 L1150.63 1807.05 L1156.94 1807.05 L1156.94 1806.93 L1163.25 1806.93 L1163.25 1806.68 L1169.56 1806.68 L1169.56 1806.56 L1175.87 1806.56 L1175.87 1806.31 L1182.31 1806.31 L1182.31 1805.94 L1188.62 1805.94 L1188.62 1805.57 L1194.93 1805.57 L1194.93 1804.70 L1207.55 1804.70 L1207.55 1804.46 L1213.99 1804.46 L1213.99 1804.33 L1220.30 1804.33 L1220.30 1803.96 L1226.61 1803.96 L1226.61 1803.34 L1245.54 1803.34 L1245.54 1803.09 L1251.98 1803.09 L1251.98 1802.97 L1258.29 1802.97 L1258.29 1802.48 L1270.91 1802.48 L1270.91 1802.35 L1277.22 1802.35 L1277.22 1802.10 L1289.97 1802.10 L1289.97 1801.98 L1315.34 1801.98 L1315.34 1801.73 L1327.96 1801.73 L1327.96 1801.49 L1334.27 1801.49 L1334.27 1801.36 L1340.58 1801.36 L1340.58 1801.11 L1346.89 1801.11 L1346.89 1800.37 L1359.64 1800.37 L1359.64 1800.12 L1378.58 1800.12 L1378.58 1799.75 L1391.32 1799.75 L1391.32 1799.38 L1397.63 1799.38 L1397.63 1798.89 L1410.26 1798.89 L1410.26 1798.76 L1416.57 1798.76 L1416.57 1798.39 L1423.00 1798.39 L1423.00 1797.90 L1429.31 1797.90 L1429.31 1797.52 L1435.62 1797.52 L1435.62 1797.15 L1441.93 1797.15 L1441.93 1796.91 L1448.25 1796.91 L1448.25 1796.78 L1454.68 1796.78 L1454.68 1796.29 L1479.93 1796.29 L1479.93 1795.79 L1492.67 1795.79 L1492.67 1795.54 L1505.30 1795.54 L1505.30 1795.30 L1511.61 1795.30 L1511.61 1794.80 L1517.92 1794.80 L1517.92 1794.18 L1524.35 1794.18 L1524.35 1793.81 L1530.66 1793.81 L1530.66 1793.56 L1536.97 1793.56 L1536.97 1792.95 L1543.29 1792.95 L1543.29 1792.70 L1556.03 1792.70 L1556.03 1792.33 L1581.28 1792.33 L1581.28 1792.20 L1587.59 1792.20 L1587.59 1791.58 L1606.65 1791.58 L1606.65 1791.34 L1612.96 1791.34 L1612.96 1791.21 L1619.27 1791.21 L1619.27 1790.97 L1625.70 1790.97 L1625.70 1790.59 L1632.02 1790.59 L1632.02 1790.35 L1638.33 1790.35 L1638.33 1790.22 L1657.38 1790.22 L1657.38 1789.73 L1663.69 1789.73 L1663.69 1789.60 L1670.01 1789.60 L1670.01 1789.11 L1682.63 1789.11 L1682.63 1788.99 L1701.69 1788.99 L1701.69 1788.74 L1708.00 1788.74 L1708.00 1788.61 L1714.31 1788.61 L1714.31 1788.37 L1720.62 1788.37 L1720.62 1788.12 L1727.06 1788.12 L1727.06 1788.00 L1739.68 1788.00 L1739.68 1787.62 L1752.30 1787.62 L1752.30 1787.13 L1758.73 1787.13 L1758.73 1786.76 L1765.05 1786.76 L1765.05 1786.63 L1783.98 1786.63 L1783.98 1786.39 L1790.29 1786.39 L1790.29 1786.14 L1796.73 1786.14 L1796.73 1786.02 L1803.04 1786.02 L1803.04 1785.77 L1815.66 1785.77 L1815.66 1785.52 L1828.41 1785.52 L1828.41 1785.40 L1834.72 1785.40 L1834.72 1785.15 L1841.03 1785.15 L1841.03 1785.03 L1872.71 1785.03 L1872.71 1785.03" stroke-linejoin="round" style="fill:none;stroke:#90353B;stroke-width:6.48"/>
	<path d=" M713.54 1825.37 L719.85 1825.37 L719.85 1824.87 L726.16 1824.87 L726.16 1823.76 L732.48 1823.76 L732.48 1822.89 L738.91 1822.89 L738.91 1822.28 L745.22 1822.28 L745.22 1820.91 L751.53 1820.91 L751.53 1819.80 L757.85 1819.80 L757.85 1819.55 L764.16 1819.55 L764.16 1818.81 L770.59 1818.81 L770.59 1817.57 L776.90 1817.57 L776.90 1816.58 L783.21 1816.58 L783.21 1815.96 L789.52 1815.96 L789.52 1815.47 L795.84 1815.47 L795.84 1813.98 L802.27 1813.98 L802.27 1813.24 L808.58 1813.24 L808.58 1812.38 L814.89 1812.38 L814.89 1811.88 L821.21 1811.88 L821.21 1811.01 L827.52 1811.01 L827.52 1810.64 L833.83 1810.64 L833.83 1810.40 L840.26 1810.40 L840.26 1809.90 L846.57 1809.90 L846.57 1808.79 L852.88 1808.79 L852.88 1807.18 L859.20 1807.18 L859.20 1806.06 L865.51 1806.06 L865.51 1804.83 L871.94 1804.83 L871.94 1804.08 L878.25 1804.08 L878.25 1802.48 L884.57 1802.48 L884.57 1801.86 L890.88 1801.86 L890.88 1800.99 L897.19 1800.99 L897.19 1799.63 L903.50 1799.63 L903.50 1799.13 L909.93 1799.13 L909.93 1798.76 L916.25 1798.76 L916.25 1798.51 L922.56 1798.51 L922.56 1796.91 L928.87 1796.91 L928.87 1796.53 L935.18 1796.53 L935.18 1795.79 L941.61 1795.79 L941.61 1794.43 L947.92 1794.43 L947.92 1793.32 L954.24 1793.32 L954.24 1791.96 L960.55 1791.96 L960.55 1791.58 L966.86 1791.58 L966.86 1790.84 L973.29 1790.84 L973.29 1789.48 L979.61 1789.48 L979.61 1788.37 L985.92 1788.37 L985.92 1786.88 L992.23 1786.88 L992.23 1785.27 L998.54 1785.27 L998.54 1783.91 L1004.85 1783.91 L1004.85 1783.66 L1011.28 1783.66 L1011.28 1781.93 L1017.60 1781.93 L1017.60 1781.44 L1023.91 1781.44 L1023.91 1781.31 L1030.22 1781.31 L1030.22 1780.08 L1036.53 1780.08 L1036.53 1778.84 L1042.96 1778.84 L1042.96 1777.72 L1049.28 1777.72 L1049.28 1776.98 L1055.59 1776.98 L1055.59 1776.61 L1061.90 1776.61 L1061.90 1776.12 L1068.21 1776.12 L1068.21 1775.62 L1074.52 1775.62 L1074.52 1775.00 L1080.96 1775.00 L1080.96 1774.51 L1087.27 1774.51 L1087.27 1773.39 L1093.58 1773.39 L1093.58 1772.77 L1099.89 1772.77 L1099.89 1771.91 L1106.20 1771.91 L1106.20 1769.19 L1112.64 1769.19 L1112.64 1768.44 L1118.95 1768.44 L1118.95 1767.82 L1125.26 1767.82 L1125.26 1765.84 L1131.57 1765.84 L1131.57 1765.10 L1137.88 1765.10 L1137.88 1764.48 L1144.32 1764.48 L1144.32 1763.37 L1150.63 1763.37 L1150.63 1761.76 L1156.94 1761.76 L1156.94 1761.51 L1163.25 1761.51 L1163.25 1760.15 L1169.56 1760.15 L1169.56 1759.78 L1175.87 1759.78 L1175.87 1758.91 L1182.31 1758.91 L1182.31 1758.17 L1188.62 1758.17 L1188.62 1757.30 L1194.93 1757.30 L1194.93 1756.81 L1201.24 1756.81 L1201.24 1755.32 L1207.55 1755.32 L1207.55 1755.08 L1213.99 1755.08 L1213.99 1754.83 L1220.30 1754.83 L1220.30 1753.72 L1226.61 1753.72 L1226.61 1753.22 L1232.92 1753.22 L1232.92 1752.85 L1239.23 1752.85 L1239.23 1751.74 L1245.54 1751.74 L1245.54 1751.24 L1251.98 1751.24 L1251.98 1750.75 L1258.29 1750.75 L1258.29 1750.62 L1264.60 1750.62 L1264.60 1749.63 L1270.91 1749.63 L1270.91 1748.52 L1277.22 1748.52 L1277.22 1747.90 L1283.66 1747.90 L1283.66 1747.16 L1289.97 1747.16 L1289.97 1747.03 L1296.28 1747.03 L1296.28 1746.54 L1302.59 1746.54 L1302.59 1745.92 L1308.90 1745.92 L1308.90 1745.42 L1315.34 1745.42 L1315.34 1743.44 L1321.65 1743.44 L1321.65 1742.58 L1327.96 1742.58 L1327.96 1742.08 L1334.27 1742.08 L1334.27 1740.47 L1340.58 1740.47 L1340.58 1739.61 L1346.89 1739.61 L1346.89 1738.99 L1353.33 1738.99 L1353.33 1738.00 L1359.64 1738.00 L1359.64 1737.63 L1365.95 1737.63 L1365.95 1736.89 L1372.26 1736.89 L1372.26 1736.02 L1378.58 1736.02 L1378.58 1735.52 L1385.01 1735.52 L1385.01 1734.66 L1391.32 1734.66 L1391.32 1733.79 L1397.63 1733.79 L1397.63 1733.54 L1403.94 1733.54 L1403.94 1732.93 L1410.26 1732.93 L1410.26 1732.43 L1416.57 1732.43 L1416.57 1731.81 L1423.00 1731.81 L1423.00 1731.07 L1429.31 1731.07 L1429.31 1730.70 L1435.62 1730.70 L1435.62 1730.20 L1441.93 1730.20 L1441.93 1729.58 L1448.25 1729.58 L1448.25 1729.09 L1454.68 1729.09 L1454.68 1728.47 L1460.99 1728.47 L1460.99 1728.22 L1467.30 1728.22 L1467.30 1727.98 L1473.62 1727.98 L1473.62 1726.37 L1479.93 1726.37 L1479.93 1725.75 L1486.36 1725.75 L1486.36 1724.88 L1492.67 1724.88 L1492.67 1724.63 L1498.98 1724.63 L1498.98 1722.53 L1505.30 1722.53 L1505.30 1721.66 L1511.61 1721.66 L1511.61 1721.29 L1517.92 1721.29 L1517.92 1720.55 L1524.35 1720.55 L1524.35 1718.82 L1536.97 1718.82 L1536.97 1717.46 L1543.29 1717.46 L1543.29 1717.21 L1549.60 1717.21 L1549.60 1716.71 L1556.03 1716.71 L1556.03 1716.34 L1568.65 1716.34 L1568.65 1714.73 L1574.97 1714.73 L1574.97 1713.87 L1587.59 1713.87 L1587.59 1713.00 L1594.02 1713.00 L1594.02 1712.01 L1600.34 1712.01 L1600.34 1710.90 L1606.65 1710.90 L1606.65 1710.53 L1612.96 1710.53 L1612.96 1709.66 L1619.27 1709.66 L1619.27 1709.16 L1625.70 1709.16 L1625.70 1708.30 L1632.02 1708.30 L1632.02 1707.56 L1638.33 1707.56 L1638.33 1706.19 L1644.64 1706.19 L1644.64 1705.08 L1650.95 1705.08 L1650.95 1703.97 L1657.38 1703.97 L1657.38 1703.60 L1663.69 1703.60 L1663.69 1703.35 L1670.01 1703.35 L1670.01 1702.61 L1676.32 1702.61 L1676.32 1701.49 L1682.63 1701.49 L1682.63 1700.25 L1688.94 1700.25 L1688.94 1699.26 L1695.38 1699.26 L1695.38 1698.40 L1708.00 1698.40 L1708.00 1697.90 L1714.31 1697.90 L1714.31 1696.79 L1720.62 1696.79 L1720.62 1696.17 L1727.06 1696.17 L1727.06 1694.19 L1733.37 1694.19 L1733.37 1693.70 L1739.68 1693.70 L1739.68 1693.08 L1745.99 1693.08 L1745.99 1692.33 L1752.30 1692.33 L1752.30 1691.47 L1758.73 1691.47 L1758.73 1690.11 L1765.05 1690.11 L1765.05 1689.24 L1771.36 1689.24 L1771.36 1688.99 L1777.67 1688.99 L1777.67 1688.50 L1790.29 1688.50 L1790.29 1687.01 L1796.73 1687.01 L1796.73 1686.27 L1803.04 1686.27 L1803.04 1684.91 L1809.35 1684.91 L1809.35 1684.54 L1815.66 1684.54 L1815.66 1684.04 L1821.97 1684.04 L1821.97 1684.04 L1828.41 1684.04 L1828.41 1683.80 L1834.72 1683.80 L1834.72 1683.42 L1841.03 1683.42 L1841.03 1682.93 L1847.34 1682.93 L1847.34 1682.68 L1872.71 1682.68 L1872.71 1682.68" stroke-linejoin="round" style="fill:none;stroke:#55752F;stroke-width:6.48"/>
	<path d=" M713.54 1825.00 L719.85 1825.00 L719.85 1822.52 L726.16 1822.52 L726.16 1819.92 L732.48 1819.92 L732.48 1816.83 L738.91 1816.83 L738.91 1813.86 L745.22 1813.86 L745.22 1811.26 L751.53 1811.26 L751.53 1809.90 L757.85 1809.90 L757.85 1807.92 L764.16 1807.92 L764.16 1806.06 L770.59 1806.06 L770.59 1804.83 L776.90 1804.83 L776.90 1802.48 L783.21 1802.48 L783.21 1800.12 L789.52 1800.12 L789.52 1797.65 L795.84 1797.65 L795.84 1796.16 L802.27 1796.16 L802.27 1794.68 L808.58 1794.68 L808.58 1792.57 L814.89 1792.57 L814.89 1791.34 L821.21 1791.34 L821.21 1788.99 L827.52 1788.99 L827.52 1786.88 L833.83 1786.88 L833.83 1785.40 L840.26 1785.40 L840.26 1782.06 L846.57 1782.06 L846.57 1780.57 L852.88 1780.57 L852.88 1778.96 L859.20 1778.96 L859.20 1776.86 L865.51 1776.86 L865.51 1775.62 L871.94 1775.62 L871.94 1773.52 L878.25 1773.52 L878.25 1770.92 L884.57 1770.92 L884.57 1769.93 L890.88 1769.93 L890.88 1767.58 L897.19 1767.58 L897.19 1763.37 L903.50 1763.37 L903.50 1761.27 L909.93 1761.27 L909.93 1758.91 L916.25 1758.91 L916.25 1757.06 L922.56 1757.06 L922.56 1755.45 L928.87 1755.45 L928.87 1753.96 L935.18 1753.96 L935.18 1753.10 L941.61 1753.10 L941.61 1749.76 L947.92 1749.76 L947.92 1747.16 L954.24 1747.16 L954.24 1745.67 L960.55 1745.67 L960.55 1742.95 L966.86 1742.95 L966.86 1741.96 L973.29 1741.96 L973.29 1739.61 L979.61 1739.61 L979.61 1737.13 L985.92 1737.13 L985.92 1735.15 L992.23 1735.15 L992.23 1733.79 L998.54 1733.79 L998.54 1732.31 L1004.85 1732.31 L1004.85 1730.33 L1011.28 1730.33 L1011.28 1729.34 L1017.60 1729.34 L1017.60 1726.12 L1023.91 1726.12 L1023.91 1723.89 L1030.22 1723.89 L1030.22 1721.54 L1036.53 1721.54 L1036.53 1719.06 L1042.96 1719.06 L1042.96 1716.96 L1049.28 1716.96 L1049.28 1714.36 L1055.59 1714.36 L1055.59 1711.39 L1061.90 1711.39 L1061.90 1710.03 L1068.21 1710.03 L1068.21 1707.68 L1074.52 1707.68 L1074.52 1705.33 L1080.96 1705.33 L1080.96 1702.36 L1087.27 1702.36 L1087.27 1700.75 L1093.58 1700.75 L1093.58 1699.26 L1099.89 1699.26 L1099.89 1697.16 L1106.20 1697.16 L1106.20 1693.94 L1112.64 1693.94 L1112.64 1691.10 L1118.95 1691.10 L1118.95 1688.50 L1125.26 1688.50 L1125.26 1687.88 L1131.57 1687.88 L1131.57 1684.29 L1137.88 1684.29 L1137.88 1681.32 L1144.32 1681.32 L1144.32 1677.61 L1150.63 1677.61 L1150.63 1674.27 L1156.94 1674.27 L1156.94 1671.67 L1163.25 1671.67 L1163.25 1669.44 L1169.56 1669.44 L1169.56 1667.09 L1175.87 1667.09 L1175.87 1664.74 L1182.31 1664.74 L1182.31 1662.63 L1188.62 1662.63 L1188.62 1660.53 L1194.93 1660.53 L1194.93 1658.92 L1201.24 1658.92 L1201.24 1656.82 L1207.55 1656.82 L1207.55 1653.35 L1213.99 1653.35 L1213.99 1652.11 L1220.30 1652.11 L1220.30 1650.26 L1226.61 1650.26 L1226.61 1647.54 L1232.92 1647.54 L1232.92 1646.42 L1239.23 1646.42 L1239.23 1644.32 L1245.54 1644.32 L1245.54 1641.84 L1251.98 1641.84 L1251.98 1640.36 L1258.29 1640.36 L1258.29 1639.74 L1264.60 1639.74 L1264.60 1636.40 L1270.91 1636.40 L1270.91 1633.80 L1277.22 1633.80 L1277.22 1633.06 L1283.66 1633.06 L1283.66 1631.57 L1289.97 1631.57 L1289.97 1629.84 L1296.28 1629.84 L1296.28 1627.36 L1302.59 1627.36 L1302.59 1624.76 L1308.90 1624.76 L1308.90 1623.77 L1315.34 1623.77 L1315.34 1621.67 L1321.65 1621.67 L1321.65 1620.43 L1327.96 1620.43 L1327.96 1618.33 L1334.27 1618.33 L1334.27 1616.60 L1340.58 1616.60 L1340.58 1613.87 L1346.89 1613.87 L1346.89 1612.02 L1353.33 1612.02 L1353.33 1610.04 L1359.64 1610.04 L1359.64 1607.93 L1365.95 1607.93 L1365.95 1606.70 L1372.26 1606.70 L1372.26 1604.59 L1378.58 1604.59 L1378.58 1600.39 L1385.01 1600.39 L1385.01 1597.91 L1391.32 1597.91 L1391.32 1597.04 L1397.63 1597.04 L1397.63 1595.19 L1403.94 1595.19 L1403.94 1593.45 L1410.26 1593.45 L1410.26 1591.97 L1416.57 1591.97 L1416.57 1590.11 L1423.00 1590.11 L1423.00 1589.25 L1429.31 1589.25 L1429.31 1587.02 L1435.62 1587.02 L1435.62 1585.04 L1441.93 1585.04 L1441.93 1584.05 L1448.25 1584.05 L1448.25 1582.32 L1454.68 1582.32 L1454.68 1580.46 L1460.99 1580.46 L1460.99 1579.35 L1467.30 1579.35 L1467.30 1578.11 L1473.62 1578.11 L1473.62 1576.62 L1479.93 1576.62 L1479.93 1575.88 L1486.36 1575.88 L1486.36 1573.04 L1492.67 1573.04 L1492.67 1571.80 L1498.98 1571.80 L1498.98 1569.57 L1505.30 1569.57 L1505.30 1568.70 L1511.61 1568.70 L1511.61 1566.11 L1517.92 1566.11 L1517.92 1565.36 L1524.35 1565.36 L1524.35 1564.50 L1530.66 1564.50 L1530.66 1562.39 L1536.97 1562.39 L1536.97 1560.41 L1543.29 1560.41 L1543.29 1558.80 L1549.60 1558.80 L1549.60 1557.32 L1556.03 1557.32 L1556.03 1556.33 L1562.34 1556.33 L1562.34 1554.84 L1568.65 1554.84 L1568.65 1553.11 L1574.97 1553.11 L1574.97 1551.63 L1581.28 1551.63 L1581.28 1550.39 L1587.59 1550.39 L1587.59 1548.90 L1594.02 1548.90 L1594.02 1546.80 L1600.34 1546.80 L1600.34 1544.94 L1606.65 1544.94 L1606.65 1543.46 L1612.96 1543.46 L1612.96 1540.74 L1619.27 1540.74 L1619.27 1539.25 L1625.70 1539.25 L1625.70 1537.39 L1632.02 1537.39 L1632.02 1536.28 L1638.33 1536.28 L1638.33 1534.67 L1644.64 1534.67 L1644.64 1533.31 L1650.95 1533.31 L1650.95 1532.69 L1657.38 1532.69 L1657.38 1531.45 L1663.69 1531.45 L1663.69 1529.60 L1670.01 1529.60 L1670.01 1527.49 L1676.32 1527.49 L1676.32 1525.39 L1682.63 1525.39 L1682.63 1523.66 L1688.94 1523.66 L1688.94 1523.04 L1695.38 1523.04 L1695.38 1522.42 L1701.69 1522.42 L1701.69 1520.56 L1708.00 1520.56 L1708.00 1518.83 L1714.31 1518.83 L1714.31 1517.10 L1720.62 1517.10 L1720.62 1515.49 L1727.06 1515.49 L1727.06 1512.77 L1733.37 1512.77 L1733.37 1511.90 L1739.68 1511.90 L1739.68 1509.55 L1745.99 1509.55 L1745.99 1508.31 L1752.30 1508.31 L1752.30 1506.21 L1758.73 1506.21 L1758.73 1504.35 L1765.05 1504.35 L1765.05 1502.87 L1771.36 1502.87 L1771.36 1500.52 L1777.67 1500.52 L1777.67 1498.91 L1783.98 1498.91 L1783.98 1497.42 L1790.29 1497.42 L1790.29 1496.93 L1796.73 1496.93 L1796.73 1494.82 L1803.04 1494.82 L1803.04 1493.83 L1809.35 1493.83 L1809.35 1492.72 L1815.66 1492.72 L1815.66 1491.23 L1821.97 1491.23 L1821.97 1490.49 L1828.41 1490.49 L1828.41 1489.87 L1834.72 1489.87 L1834.72 1489.01 L1841.03 1489.01 L1841.03 1488.51 L1847.34 1488.51 L1847.34 1488.39 L1872.71 1488.39 L1872.71 1488.39" stroke-linejoin="round" style="fill:none;stroke:#E37E00;stroke-width:6.48"/>
	<path d=" M713.54 1821.90 L719.85 1821.90 L719.85 1820.30 L726.16 1820.30 L726.16 1817.82 L732.48 1817.82 L732.48 1814.85 L738.91 1814.85 L738.91 1810.77 L745.22 1810.77 L745.22 1807.43 L751.53 1807.43 L751.53 1804.21 L757.85 1804.21 L757.85 1799.63 L764.16 1799.63 L764.16 1795.05 L770.59 1795.05 L770.59 1792.57 L776.90 1792.57 L776.90 1790.47 L783.21 1790.47 L783.21 1787.62 L789.52 1787.62 L789.52 1781.07 L795.84 1781.07 L795.84 1776.49 L802.27 1776.49 L802.27 1771.91 L808.58 1771.91 L808.58 1768.69 L814.89 1768.69 L814.89 1764.11 L821.21 1764.11 L821.21 1758.67 L827.52 1758.67 L827.52 1754.21 L833.83 1754.21 L833.83 1751.74 L840.26 1751.74 L840.26 1746.29 L846.57 1746.29 L846.57 1743.07 L852.88 1743.07 L852.88 1740.60 L859.20 1740.60 L859.20 1734.78 L865.51 1734.78 L865.51 1731.94 L871.94 1731.94 L871.94 1728.59 L878.25 1728.59 L878.25 1722.41 L884.57 1722.41 L884.57 1717.83 L890.88 1717.83 L890.88 1712.88 L897.19 1712.88 L897.19 1708.30 L903.50 1708.30 L903.50 1702.61 L909.93 1702.61 L909.93 1698.03 L916.25 1698.03 L916.25 1694.31 L922.56 1694.31 L922.56 1689.36 L928.87 1689.36 L928.87 1684.79 L935.18 1684.79 L935.18 1678.97 L941.61 1678.97 L941.61 1672.78 L947.92 1672.78 L947.92 1667.46 L954.24 1667.46 L954.24 1661.64 L960.55 1661.64 L960.55 1655.95 L966.86 1655.95 L966.86 1650.88 L973.29 1650.88 L973.29 1645.18 L979.61 1645.18 L979.61 1640.98 L985.92 1640.98 L985.92 1636.52 L992.23 1636.52 L992.23 1631.08 L998.54 1631.08 L998.54 1626.99 L1004.85 1626.99 L1004.85 1622.04 L1011.28 1622.04 L1011.28 1618.70 L1017.60 1618.70 L1017.60 1616.23 L1023.91 1616.23 L1023.91 1612.14 L1030.22 1612.14 L1030.22 1606.70 L1036.53 1606.70 L1036.53 1601.38 L1042.96 1601.38 L1042.96 1598.03 L1049.28 1598.03 L1049.28 1591.47 L1055.59 1591.47 L1055.59 1585.66 L1061.90 1585.66 L1061.90 1581.08 L1068.21 1581.08 L1068.21 1578.60 L1074.52 1578.60 L1074.52 1573.65 L1080.96 1573.65 L1080.96 1569.20 L1087.27 1569.20 L1087.27 1566.23 L1093.58 1566.23 L1093.58 1559.67 L1099.89 1559.67 L1099.89 1557.57 L1106.20 1557.57 L1106.20 1552.62 L1112.64 1552.62 L1112.64 1547.67 L1118.95 1547.67 L1118.95 1542.72 L1125.26 1542.72 L1125.26 1540.61 L1131.57 1540.61 L1131.57 1536.16 L1137.88 1536.16 L1137.88 1533.19 L1144.32 1533.19 L1144.32 1528.73 L1150.63 1528.73 L1150.63 1524.52 L1156.94 1524.52 L1156.94 1515.49 L1163.25 1515.49 L1163.25 1512.15 L1169.56 1512.15 L1169.56 1508.81 L1175.87 1508.81 L1175.87 1505.96 L1182.31 1505.96 L1182.31 1499.77 L1188.62 1499.77 L1188.62 1495.69 L1194.93 1495.69 L1194.93 1491.48 L1201.24 1491.48 L1201.24 1488.64 L1207.55 1488.64 L1207.55 1484.92 L1213.99 1484.92 L1213.99 1480.84 L1220.30 1480.84 L1220.30 1477.87 L1226.61 1477.87 L1226.61 1475.39 L1232.92 1475.39 L1232.92 1470.44 L1239.23 1470.44 L1239.23 1466.36 L1245.54 1466.36 L1245.54 1459.68 L1251.98 1459.68 L1251.98 1455.96 L1258.29 1455.96 L1258.29 1450.27 L1264.60 1450.27 L1264.60 1446.44 L1270.91 1446.44 L1270.91 1443.96 L1277.22 1443.96 L1277.22 1437.40 L1283.66 1437.40 L1283.66 1434.55 L1289.97 1434.55 L1289.97 1428.74 L1296.28 1428.74 L1296.28 1426.26 L1302.59 1426.26 L1302.59 1421.31 L1308.90 1421.31 L1308.90 1418.84 L1315.34 1418.84 L1315.34 1414.63 L1321.65 1414.63 L1321.65 1410.18 L1327.96 1410.18 L1327.96 1405.60 L1334.27 1405.60 L1334.27 1400.65 L1340.58 1400.65 L1340.58 1397.30 L1346.89 1397.30 L1346.89 1393.59 L1353.33 1393.59 L1353.33 1386.54 L1359.64 1386.54 L1359.64 1382.08 L1365.95 1382.08 L1365.95 1377.50 L1372.26 1377.50 L1372.26 1375.90 L1378.58 1375.90 L1378.58 1372.93 L1385.01 1372.93 L1385.01 1369.21 L1391.32 1369.21 L1391.32 1364.76 L1397.63 1364.76 L1397.63 1358.57 L1403.94 1358.57 L1403.94 1353.50 L1410.26 1353.50 L1410.26 1348.17 L1416.57 1348.17 L1416.57 1345.70 L1423.00 1345.70 L1423.00 1342.85 L1429.31 1342.85 L1429.31 1337.41 L1435.62 1337.41 L1435.62 1333.70 L1441.93 1333.70 L1441.93 1330.48 L1448.25 1330.48 L1448.25 1327.88 L1454.68 1327.88 L1454.68 1325.90 L1460.99 1325.90 L1460.99 1321.69 L1467.30 1321.69 L1467.30 1318.84 L1473.62 1318.84 L1473.62 1314.27 L1479.93 1314.27 L1479.93 1311.79 L1486.36 1311.79 L1486.36 1308.08 L1492.67 1308.08 L1492.67 1305.23 L1498.98 1305.23 L1498.98 1300.65 L1505.30 1300.65 L1505.30 1296.57 L1511.61 1296.57 L1511.61 1294.09 L1517.92 1294.09 L1517.92 1289.14 L1524.35 1289.14 L1524.35 1284.94 L1530.66 1284.94 L1530.66 1279.61 L1536.97 1279.61 L1536.97 1275.53 L1543.29 1275.53 L1543.29 1271.82 L1549.60 1271.82 L1549.60 1267.61 L1556.03 1267.61 L1556.03 1264.27 L1562.34 1264.27 L1562.34 1261.79 L1568.65 1261.79 L1568.65 1258.58 L1574.97 1258.58 L1574.97 1254.00 L1581.28 1254.00 L1581.28 1249.42 L1587.59 1249.42 L1587.59 1246.20 L1594.02 1246.20 L1594.02 1243.23 L1600.34 1243.23 L1600.34 1239.15 L1606.65 1239.15 L1606.65 1235.81 L1612.96 1235.81 L1612.96 1232.46 L1619.27 1232.46 L1619.27 1230.48 L1625.70 1230.48 L1625.70 1225.04 L1632.02 1225.04 L1632.02 1221.33 L1638.33 1221.33 L1638.33 1217.24 L1644.64 1217.24 L1644.64 1213.90 L1650.95 1213.90 L1650.95 1211.06 L1657.38 1211.06 L1657.38 1208.58 L1663.69 1208.58 L1663.69 1206.11 L1670.01 1206.11 L1670.01 1201.16 L1676.32 1201.16 L1676.32 1194.97 L1682.63 1194.97 L1682.63 1192.00 L1688.94 1192.00 L1688.94 1188.28 L1695.38 1188.28 L1695.38 1184.57 L1701.69 1184.57 L1701.69 1181.73 L1708.00 1181.73 L1708.00 1178.01 L1714.31 1178.01 L1714.31 1172.20 L1720.62 1172.20 L1720.62 1168.48 L1727.06 1168.48 L1727.06 1163.91 L1733.37 1163.91 L1733.37 1159.45 L1739.68 1159.45 L1739.68 1155.24 L1745.99 1155.24 L1745.99 1152.40 L1752.30 1152.40 L1752.30 1149.05 L1758.73 1149.05 L1758.73 1145.71 L1765.05 1145.71 L1765.05 1141.26 L1771.36 1141.26 L1771.36 1137.05 L1777.67 1137.05 L1777.67 1132.97 L1783.98 1132.97 L1783.98 1130.49 L1790.29 1130.49 L1790.29 1126.41 L1796.73 1126.41 L1796.73 1122.70 L1803.04 1122.70 L1803.04 1120.59 L1809.35 1120.59 L1809.35 1117.62 L1815.66 1117.62 L1815.66 1115.64 L1821.97 1115.64 L1821.97 1112.67 L1828.41 1112.67 L1828.41 1111.06 L1834.72 1111.06 L1834.72 1108.22 L1841.03 1108.22 L1841.03 1107.72 L1853.65 1107.72 L1853.65 1107.35 L1872.71 1107.35 L1872.71 1107.35" stroke-linejoin="round" style="fill:none;stroke:#6E8E84;stroke-width:6.48"/>
	<line x1="659.71" y1="1873.51" x2="659.71" y2="414.45" style="stroke:#000000;stroke-width:4.32"/>
	<line x1="659.71" y1="1825.99" x2="629.76" y2="1825.99" style="stroke:#000000;stroke-width:4.32"/>
	<text x="614.79" y="1852.27" style="font-family:'Helvetica';font-size:74.99px;fill:#000000" text-anchor="end">0.000</text>
	<line x1="659.71" y1="1553.11" x2="629.76" y2="1553.11" style="stroke:#000000;stroke-width:4.32"/>
	<text x="614.79" y="1579.39" style="font-family:'Helvetica';font-size:74.99px;fill:#000000" text-anchor="end">0.001</text>
	<line x1="659.71" y1="1280.36" x2="629.76" y2="1280.36" style="stroke:#000000;stroke-width:4.32"/>
	<text x="614.79" y="1306.64" style="font-family:'Helvetica';font-size:74.99px;fill:#000000" text-anchor="end">0.002</text>
	<line x1="659.71" y1="1007.60" x2="629.76" y2="1007.60" style="stroke:#000000;stroke-width:4.32"/>
	<text x="614.79" y="1033.88" style="font-family:'Helvetica';font-size:74.99px;fill:#000000" text-anchor="end">0.003</text>
	<line x1="659.71" y1="734.73" x2="629.76" y2="734.73" style="stroke:#000000;stroke-width:4.32"/>
	<text x="614.79" y="761.01" style="font-family:'Helvetica';font-size:74.99px;fill:#000000" text-anchor="end">0.004</text>
	<line x1="659.71" y1="461.97" x2="629.76" y2="461.97" style="stroke:#000000;stroke-width:4.32"/>
	<text x="614.79" y="488.25" style="font-family:'Helvetica';font-size:74.99px;fill:#000000" text-anchor="end">0.005</text>
	<line x1="659.71" y1="1873.51" x2="2021.58" y2="1873.51" style="stroke:#000000;stroke-width:4.32"/>
	<line x1="707.23" y1="1873.51" x2="707.23" y2="1903.46" style="stroke:#000000;stroke-width:4.32"/>
	<text x="707.23" y="1970.87" style="font-family:'Helvetica';font-size:74.99px;fill:#000000" text-anchor="middle">1 Feb 20</text>
	<line x1="891.00" y1="1873.51" x2="891.00" y2="1903.46" style="stroke:#000000;stroke-width:4.32"/>
	<text x="891.00" y="1970.87" style="font-family:'Helvetica';font-size:74.99px;fill:#000000" text-anchor="middle">1 Mar 20</text>
	<line x1="1087.27" y1="1873.51" x2="1087.27" y2="1903.46" style="stroke:#000000;stroke-width:4.32"/>
	<text x="1087.27" y="1970.87" style="font-family:'Helvetica';font-size:74.99px;fill:#000000" text-anchor="middle">1 Apr 20</text>
	<line x1="1283.66" y1="1873.51" x2="1283.66" y2="1903.46" style="stroke:#000000;stroke-width:4.32"/>
	<text x="1283.66" y="1970.87" style="font-family:'Helvetica';font-size:74.99px;fill:#000000" text-anchor="middle">1 May 20</text>
	<line x1="1473.74" y1="1873.51" x2="1473.74" y2="1903.46" style="stroke:#000000;stroke-width:4.32"/>
	<text x="1473.74" y="1970.87" style="font-family:'Helvetica';font-size:74.99px;fill:#000000" text-anchor="middle">1 June 20</text>
	<line x1="1663.69" y1="1873.51" x2="1663.69" y2="1903.46" style="stroke:#000000;stroke-width:4.32"/>
	<text x="1663.69" y="1970.87" style="font-family:'Helvetica';font-size:74.99px;fill:#000000" text-anchor="middle">1 July 20</text>
	<line x1="1860.09" y1="1873.51" x2="1860.09" y2="1903.46" style="stroke:#000000;stroke-width:4.32"/>
	<text x="1860.09" y="1970.87" style="font-family:'Helvetica';font-size:74.99px;fill:#000000" text-anchor="middle">1 Aug 20</text>
	<text x="1340.71" y="2053.41" style="font-family:'Helvetica';font-size:74.99px;fill:#000000" text-anchor="middle"> </text>
	<text x="1340.71" y="369.91" style="font-family:'Helvetica';font-size:104.94px;fill:#1E2D53" text-anchor="middle">Female</text>
	<rect x="2097.19" y="207.91" width="1799.33" height="1958.65" style="fill:#EAF2F3"/>
	<rect x="2099.35" y="210.07" width="1795.01" height="1954.33" style="fill:none;stroke:#EAF2F3;stroke-width:4.32"/>
	<rect x="2459.04" y="414.45" width="1361.87" height="1459.06" style="fill:#FFFFFF"/>
	<rect x="2461.20" y="416.61" width="1357.55" height="1454.74" style="fill:none;stroke:#FFFFFF;stroke-width:4.32"/>
	<line x1="2459.04" y1="1825.99" x2="3820.91" y2="1825.99" style="stroke:#EAF2F3;stroke-width:6.48"/>
	<line x1="2459.04" y1="1553.11" x2="3820.91" y2="1553.11" style="stroke:#EAF2F3;stroke-width:6.48"/>
	<line x1="2459.04" y1="1280.36" x2="3820.91" y2="1280.36" style="stroke:#EAF2F3;stroke-width:6.48"/>
	<line x1="2459.04" y1="1007.60" x2="3820.91" y2="1007.60" style="stroke:#EAF2F3;stroke-width:6.48"/>
	<line x1="2459.04" y1="734.73" x2="3820.91" y2="734.73" style="stroke:#EAF2F3;stroke-width:6.48"/>
	<line x1="2459.04" y1="461.97" x2="3820.91" y2="461.97" style="stroke:#EAF2F3;stroke-width:6.48"/>
	<path d=" M2512.87 1825.86 L2525.49 1825.86 L2525.49 1825.62 L2544.55 1825.62 L2544.55 1825.37 L2569.79 1825.37 L2569.79 1825.12 L2588.85 1825.12 L2588.85 1824.75 L2601.47 1824.75 L2601.47 1824.01 L2607.91 1824.01 L2607.91 1823.64 L2614.22 1823.64 L2614.22 1823.39 L2626.84 1823.39 L2626.84 1822.65 L2639.46 1822.65 L2639.46 1822.52 L2645.90 1822.52 L2645.90 1821.78 L2658.52 1821.78 L2658.52 1821.29 L2677.58 1821.29 L2677.58 1820.42 L2683.89 1820.42 L2683.89 1820.17 L2690.20 1820.17 L2690.20 1820.05 L2696.51 1820.05 L2696.51 1819.80 L2721.88 1819.80 L2721.88 1819.31 L2728.19 1819.31 L2728.19 1818.93 L2740.82 1818.93 L2740.82 1818.69 L2747.25 1818.69 L2747.25 1818.44 L2753.56 1818.44 L2753.56 1818.19 L2759.87 1818.19 L2759.87 1817.94 L2766.18 1817.94 L2766.18 1817.82 L2778.93 1817.82 L2778.93 1817.08 L2785.24 1817.08 L2785.24 1816.83 L2791.55 1816.83 L2791.55 1816.71 L2804.18 1816.71 L2804.18 1816.21 L2835.86 1816.21 L2835.86 1815.96 L2842.17 1815.96 L2842.17 1815.59 L2848.60 1815.59 L2848.60 1815.10 L2861.22 1815.10 L2861.22 1814.85 L2867.53 1814.85 L2867.53 1814.60 L2886.59 1814.60 L2886.59 1814.48 L2905.53 1814.48 L2905.53 1814.23 L2918.27 1814.23 L2918.27 1813.98 L2924.58 1813.98 L2924.58 1813.74 L2930.89 1813.74 L2930.89 1813.12 L2937.21 1813.12 L2937.21 1812.62 L2949.95 1812.62 L2949.95 1812.38 L2956.26 1812.38 L2956.26 1812.00 L2962.57 1812.00 L2962.57 1811.76 L2968.89 1811.76 L2968.89 1811.51 L2987.94 1811.51 L2987.94 1811.26 L3000.57 1811.26 L3000.57 1811.01 L3044.87 1811.01 L3044.87 1810.89 L3051.30 1810.89 L3051.30 1810.15 L3057.61 1810.15 L3057.61 1809.90 L3082.86 1809.90 L3082.86 1809.78 L3101.92 1809.78 L3101.92 1809.28 L3120.97 1809.28 L3120.97 1809.03 L3133.60 1809.03 L3133.60 1808.79 L3139.91 1808.79 L3139.91 1808.66 L3152.53 1808.66 L3152.53 1808.42 L3171.59 1808.42 L3171.59 1807.92 L3177.90 1807.92 L3177.90 1807.67 L3209.58 1807.67 L3209.58 1807.55 L3215.89 1807.55 L3215.89 1807.30 L3222.33 1807.30 L3222.33 1807.05 L3234.95 1807.05 L3234.95 1806.81 L3247.57 1806.81 L3247.57 1806.56 L3253.88 1806.56 L3253.88 1806.44 L3266.63 1806.44 L3266.63 1806.19 L3285.56 1806.19 L3285.56 1805.69 L3304.62 1805.69 L3304.62 1805.45 L3317.24 1805.45 L3317.24 1805.07 L3329.99 1805.07 L3329.99 1804.58 L3336.30 1804.58 L3336.30 1804.33 L3348.92 1804.33 L3348.92 1803.96 L3355.23 1803.96 L3355.23 1803.71 L3374.29 1803.71 L3374.29 1803.47 L3386.91 1803.47 L3386.91 1803.22 L3393.35 1803.22 L3393.35 1802.97 L3399.66 1802.97 L3399.66 1802.85 L3418.59 1802.85 L3418.59 1802.60 L3431.34 1802.60 L3431.34 1802.35 L3443.96 1802.35 L3443.96 1802.10 L3488.26 1802.10 L3488.26 1801.86 L3494.58 1801.86 L3494.58 1801.73 L3501.01 1801.73 L3501.01 1801.49 L3513.63 1801.49 L3513.63 1801.24 L3557.94 1801.24 L3557.94 1800.99 L3589.62 1800.99 L3589.62 1800.74 L3602.36 1800.74 L3602.36 1800.62 L3621.30 1800.62 L3621.30 1800.37 L3627.61 1800.37 L3627.61 1800.12 L3672.03 1800.12 L3672.03 1800.12" stroke-linejoin="round" style="fill:none;stroke:#1A476F;stroke-width:6.48"/>
	<path d=" M2525.49 1825.86 L2531.80 1825.86 L2531.80 1825.62 L2538.11 1825.62 L2538.11 1825.37 L2550.86 1825.37 L2550.86 1824.75 L2557.17 1824.75 L2557.17 1824.63 L2576.23 1824.63 L2576.23 1824.26 L2595.16 1824.26 L2595.16 1823.76 L2601.47 1823.76 L2601.47 1823.64 L2607.91 1823.64 L2607.91 1823.39 L2614.22 1823.39 L2614.22 1822.52 L2620.53 1822.52 L2620.53 1822.40 L2626.84 1822.40 L2626.84 1821.90 L2633.15 1821.90 L2633.15 1821.53 L2639.46 1821.53 L2639.46 1821.16 L2645.90 1821.16 L2645.90 1820.30 L2664.83 1820.30 L2664.83 1819.92 L2671.14 1819.92 L2671.14 1819.31 L2677.58 1819.31 L2677.58 1819.06 L2683.89 1819.06 L2683.89 1818.44 L2690.20 1818.44 L2690.20 1818.32 L2702.82 1818.32 L2702.82 1816.83 L2709.26 1816.83 L2709.26 1816.58 L2715.57 1816.58 L2715.57 1816.21 L2728.19 1816.21 L2728.19 1815.47 L2734.50 1815.47 L2734.50 1814.85 L2747.25 1814.85 L2747.25 1814.60 L2753.56 1814.60 L2753.56 1813.98 L2759.87 1813.98 L2759.87 1813.74 L2772.49 1813.74 L2772.49 1813.12 L2778.93 1813.12 L2778.93 1812.75 L2785.24 1812.75 L2785.24 1812.13 L2791.55 1812.13 L2791.55 1811.76 L2797.86 1811.76 L2797.86 1811.51 L2804.18 1811.51 L2804.18 1811.14 L2810.49 1811.14 L2810.49 1810.89 L2816.92 1810.89 L2816.92 1810.52 L2823.23 1810.52 L2823.23 1810.15 L2842.17 1810.15 L2842.17 1809.90 L2854.91 1809.90 L2854.91 1809.03 L2861.22 1809.03 L2861.22 1808.66 L2873.85 1808.66 L2873.85 1808.04 L2880.28 1808.04 L2880.28 1807.43 L2886.59 1807.43 L2886.59 1807.30 L2892.90 1807.30 L2892.90 1806.68 L2899.22 1806.68 L2899.22 1806.44 L2911.84 1806.44 L2911.84 1806.06 L2924.58 1806.06 L2924.58 1804.83 L2930.89 1804.83 L2930.89 1804.33 L2937.21 1804.33 L2937.21 1804.21 L2943.52 1804.21 L2943.52 1803.96 L2956.26 1803.96 L2956.26 1803.59 L2962.57 1803.59 L2962.57 1803.34 L2968.89 1803.34 L2968.89 1802.72 L2975.20 1802.72 L2975.20 1802.35 L2981.51 1802.35 L2981.51 1800.87 L2987.94 1800.87 L2987.94 1800.25 L2994.26 1800.25 L2994.26 1799.88 L3000.57 1799.88 L3000.57 1799.50 L3006.88 1799.50 L3006.88 1799.50 L3013.19 1799.50 L3013.19 1798.64 L3019.62 1798.64 L3019.62 1798.27 L3025.93 1798.27 L3025.93 1797.40 L3032.25 1797.40 L3032.25 1797.28 L3038.56 1797.28 L3038.56 1797.03 L3044.87 1797.03 L3044.87 1796.78 L3051.30 1796.78 L3051.30 1796.66 L3057.61 1796.66 L3057.61 1796.04 L3076.55 1796.04 L3076.55 1795.79 L3095.61 1795.79 L3095.61 1795.54 L3101.92 1795.54 L3101.92 1795.17 L3108.23 1795.17 L3108.23 1794.80 L3114.54 1794.80 L3114.54 1794.43 L3120.97 1794.43 L3120.97 1793.94 L3127.29 1793.94 L3127.29 1793.56 L3152.53 1793.56 L3152.53 1792.95 L3158.97 1792.95 L3158.97 1792.70 L3165.28 1792.70 L3165.28 1792.57 L3171.59 1792.57 L3171.59 1791.96 L3177.90 1791.96 L3177.90 1791.34 L3190.65 1791.34 L3190.65 1790.97 L3203.27 1790.97 L3203.27 1790.47 L3209.58 1790.47 L3209.58 1790.35 L3215.89 1790.35 L3215.89 1789.85 L3222.33 1789.85 L3222.33 1788.49 L3228.64 1788.49 L3228.64 1788.24 L3234.95 1788.24 L3234.95 1788.00 L3241.26 1788.00 L3241.26 1786.88 L3253.88 1786.88 L3253.88 1786.39 L3260.32 1786.39 L3260.32 1786.02 L3266.63 1786.02 L3266.63 1785.77 L3279.25 1785.77 L3279.25 1785.03 L3285.56 1785.03 L3285.56 1784.78 L3298.31 1784.78 L3298.31 1784.53 L3310.93 1784.53 L3310.93 1784.16 L3317.24 1784.16 L3317.24 1783.91 L3323.55 1783.91 L3323.55 1783.17 L3329.99 1783.17 L3329.99 1782.80 L3348.92 1782.80 L3348.92 1782.55 L3367.98 1782.55 L3367.98 1782.18 L3374.29 1782.18 L3374.29 1781.93 L3386.91 1781.93 L3386.91 1781.56 L3393.35 1781.56 L3393.35 1781.31 L3405.97 1781.31 L3405.97 1780.94 L3412.28 1780.94 L3412.28 1780.69 L3418.59 1780.69 L3418.59 1780.32 L3431.34 1780.32 L3431.34 1780.08 L3437.65 1780.08 L3437.65 1779.70 L3450.27 1779.70 L3450.27 1779.46 L3456.59 1779.46 L3456.59 1779.21 L3463.02 1779.21 L3463.02 1778.84 L3469.33 1778.84 L3469.33 1778.47 L3494.58 1778.47 L3494.58 1778.22 L3513.63 1778.22 L3513.63 1777.85 L3519.95 1777.85 L3519.95 1777.60 L3526.26 1777.60 L3526.26 1777.48 L3532.69 1777.48 L3532.69 1777.23 L3539.00 1777.23 L3539.00 1776.86 L3545.31 1776.86 L3545.31 1776.36 L3564.37 1776.36 L3564.37 1776.24 L3570.68 1776.24 L3570.68 1775.99 L3576.99 1775.99 L3576.99 1775.74 L3621.30 1775.74 L3621.30 1775.62 L3627.61 1775.62 L3627.61 1775.37 L3640.35 1775.37 L3640.35 1775.00 L3672.03 1775.00 L3672.03 1775.00" stroke-linejoin="round" style="fill:none;stroke:#90353B;stroke-width:6.48"/>
	<path d=" M2512.87 1825.62 L2519.18 1825.62 L2519.18 1825.00 L2525.49 1825.00 L2525.49 1823.88 L2531.80 1823.88 L2531.80 1822.28 L2538.11 1822.28 L2538.11 1821.04 L2544.55 1821.04 L2544.55 1820.54 L2550.86 1820.54 L2550.86 1818.44 L2557.17 1818.44 L2557.17 1817.33 L2563.48 1817.33 L2563.48 1815.84 L2569.79 1815.84 L2569.79 1815.10 L2576.23 1815.10 L2576.23 1813.86 L2582.54 1813.86 L2582.54 1812.75 L2588.85 1812.75 L2588.85 1812.38 L2595.16 1812.38 L2595.16 1811.39 L2601.47 1811.39 L2601.47 1810.52 L2607.91 1810.52 L2607.91 1809.90 L2614.22 1809.90 L2614.22 1808.17 L2620.53 1808.17 L2620.53 1807.55 L2626.84 1807.55 L2626.84 1805.57 L2633.15 1805.57 L2633.15 1804.70 L2639.46 1804.70 L2639.46 1803.84 L2645.90 1803.84 L2645.90 1802.48 L2652.21 1802.48 L2652.21 1801.49 L2658.52 1801.49 L2658.52 1800.12 L2664.83 1800.12 L2664.83 1798.76 L2671.14 1798.76 L2671.14 1797.90 L2677.58 1797.90 L2677.58 1796.66 L2683.89 1796.66 L2683.89 1795.79 L2690.20 1795.79 L2690.20 1795.17 L2696.51 1795.17 L2696.51 1793.32 L2702.82 1793.32 L2702.82 1792.45 L2709.26 1792.45 L2709.26 1791.83 L2715.57 1791.83 L2715.57 1791.21 L2721.88 1791.21 L2721.88 1790.10 L2728.19 1790.10 L2728.19 1789.23 L2734.50 1789.23 L2734.50 1788.12 L2740.82 1788.12 L2740.82 1786.88 L2747.25 1786.88 L2747.25 1785.52 L2753.56 1785.52 L2753.56 1784.28 L2759.87 1784.28 L2759.87 1783.29 L2766.18 1783.29 L2766.18 1782.43 L2772.49 1782.43 L2772.49 1781.81 L2778.93 1781.81 L2778.93 1781.19 L2785.24 1781.19 L2785.24 1779.83 L2791.55 1779.83 L2791.55 1778.34 L2797.86 1778.34 L2797.86 1776.86 L2804.18 1776.86 L2804.18 1775.74 L2810.49 1775.74 L2810.49 1774.01 L2816.92 1774.01 L2816.92 1772.90 L2823.23 1772.90 L2823.23 1771.41 L2829.54 1771.41 L2829.54 1769.43 L2835.86 1769.43 L2835.86 1768.94 L2842.17 1768.94 L2842.17 1767.95 L2848.60 1767.95 L2848.60 1766.59 L2854.91 1766.59 L2854.91 1765.47 L2861.22 1765.47 L2861.22 1763.37 L2867.53 1763.37 L2867.53 1762.01 L2873.85 1762.01 L2873.85 1761.64 L2880.28 1761.64 L2880.28 1760.65 L2886.59 1760.65 L2886.59 1758.91 L2892.90 1758.91 L2892.90 1758.05 L2899.22 1758.05 L2899.22 1756.81 L2905.53 1756.81 L2905.53 1755.45 L2911.84 1755.45 L2911.84 1755.08 L2918.27 1755.08 L2918.27 1754.33 L2924.58 1754.33 L2924.58 1753.96 L2930.89 1753.96 L2930.89 1752.60 L2937.21 1752.60 L2937.21 1751.36 L2943.52 1751.36 L2943.52 1750.75 L2949.95 1750.75 L2949.95 1750.00 L2956.26 1750.00 L2956.26 1748.52 L2962.57 1748.52 L2962.57 1746.79 L2968.89 1746.79 L2968.89 1745.67 L2975.20 1745.67 L2975.20 1743.94 L2981.51 1743.94 L2981.51 1743.44 L2987.94 1743.44 L2987.94 1743.07 L2994.26 1743.07 L2994.26 1742.45 L3000.57 1742.45 L3000.57 1742.21 L3006.88 1742.21 L3006.88 1739.98 L3013.19 1739.98 L3013.19 1739.11 L3019.62 1739.11 L3019.62 1738.25 L3025.93 1738.25 L3025.93 1737.13 L3032.25 1737.13 L3032.25 1736.76 L3038.56 1736.76 L3038.56 1735.90 L3044.87 1735.90 L3044.87 1735.40 L3051.30 1735.40 L3051.30 1733.67 L3057.61 1733.67 L3057.61 1732.43 L3063.93 1732.43 L3063.93 1731.32 L3070.24 1731.32 L3070.24 1729.58 L3076.55 1729.58 L3076.55 1729.09 L3082.86 1729.09 L3082.86 1728.97 L3089.30 1728.97 L3089.30 1727.85 L3095.61 1727.85 L3095.61 1726.74 L3101.92 1726.74 L3101.92 1726.24 L3108.23 1726.24 L3108.23 1725.62 L3114.54 1725.62 L3114.54 1724.51 L3120.97 1724.51 L3120.97 1722.53 L3127.29 1722.53 L3127.29 1721.66 L3133.60 1721.66 L3133.60 1720.67 L3139.91 1720.67 L3139.91 1719.56 L3146.22 1719.56 L3146.22 1718.45 L3152.53 1718.45 L3152.53 1718.20 L3158.97 1718.20 L3158.97 1716.71 L3165.28 1716.71 L3165.28 1715.35 L3171.59 1715.35 L3171.59 1714.11 L3177.90 1714.11 L3177.90 1712.75 L3184.21 1712.75 L3184.21 1711.89 L3190.65 1711.89 L3190.65 1711.64 L3196.96 1711.64 L3196.96 1711.27 L3203.27 1711.27 L3203.27 1710.40 L3209.58 1710.40 L3209.58 1709.29 L3215.89 1709.29 L3215.89 1708.05 L3222.33 1708.05 L3222.33 1707.18 L3228.64 1707.18 L3228.64 1706.07 L3234.95 1706.07 L3234.95 1705.20 L3241.26 1705.20 L3241.26 1704.96 L3247.57 1704.96 L3247.57 1704.46 L3253.88 1704.46 L3253.88 1703.60 L3260.32 1703.60 L3260.32 1701.86 L3266.63 1701.86 L3266.63 1701.00 L3272.94 1701.00 L3272.94 1700.13 L3279.25 1700.13 L3279.25 1698.15 L3285.56 1698.15 L3285.56 1698.03 L3292.00 1698.03 L3292.00 1697.16 L3298.31 1697.16 L3298.31 1695.80 L3304.62 1695.80 L3304.62 1695.18 L3310.93 1695.18 L3310.93 1694.93 L3317.24 1694.93 L3317.24 1694.07 L3323.55 1694.07 L3323.55 1691.47 L3329.99 1691.47 L3329.99 1690.85 L3336.30 1690.85 L3336.30 1689.74 L3342.61 1689.74 L3342.61 1688.87 L3348.92 1688.87 L3348.92 1688.00 L3355.23 1688.00 L3355.23 1687.14 L3361.67 1687.14 L3361.67 1686.64 L3367.98 1686.64 L3367.98 1685.40 L3374.29 1685.40 L3374.29 1684.29 L3380.60 1684.29 L3380.60 1683.42 L3386.91 1683.42 L3386.91 1682.68 L3393.35 1682.68 L3393.35 1681.69 L3399.66 1681.69 L3399.66 1680.83 L3405.97 1680.83 L3405.97 1679.71 L3412.28 1679.71 L3412.28 1678.10 L3418.59 1678.10 L3418.59 1677.24 L3424.91 1677.24 L3424.91 1676.25 L3431.34 1676.25 L3431.34 1675.75 L3437.65 1675.75 L3437.65 1675.13 L3443.96 1675.13 L3443.96 1673.65 L3450.27 1673.65 L3450.27 1672.04 L3456.59 1672.04 L3456.59 1670.92 L3463.02 1670.92 L3463.02 1670.06 L3469.33 1670.06 L3469.33 1668.82 L3475.64 1668.82 L3475.64 1668.33 L3481.95 1668.33 L3481.95 1667.95 L3488.26 1667.95 L3488.26 1667.46 L3494.58 1667.46 L3494.58 1666.84 L3501.01 1666.84 L3501.01 1666.59 L3507.32 1666.59 L3507.32 1666.22 L3513.63 1666.22 L3513.63 1665.48 L3519.95 1665.48 L3519.95 1664.61 L3526.26 1664.61 L3526.26 1663.62 L3532.69 1663.62 L3532.69 1662.51 L3539.00 1662.51 L3539.00 1661.64 L3545.31 1661.64 L3545.31 1659.91 L3551.63 1659.91 L3551.63 1659.04 L3557.94 1659.04 L3557.94 1658.18 L3564.37 1658.18 L3564.37 1657.44 L3570.68 1657.44 L3570.68 1656.57 L3576.99 1656.57 L3576.99 1655.70 L3583.30 1655.70 L3583.30 1655.08 L3589.62 1655.08 L3589.62 1654.47 L3595.93 1654.47 L3595.93 1653.97 L3602.36 1653.97 L3602.36 1653.72 L3608.67 1653.72 L3608.67 1652.86 L3614.99 1652.86 L3614.99 1651.87 L3621.30 1651.87 L3621.30 1651.37 L3627.61 1651.37 L3627.61 1650.75 L3634.04 1650.75 L3634.04 1650.26 L3640.35 1650.26 L3640.35 1649.64 L3646.66 1649.64 L3646.66 1649.14 L3672.03 1649.14 L3672.03 1649.14" stroke-linejoin="round" style="fill:none;stroke:#55752F;stroke-width:6.48"/>
	<path d=" M2512.87 1823.27 L2519.18 1823.27 L2519.18 1820.42 L2525.49 1820.42 L2525.49 1817.45 L2531.80 1817.45 L2531.80 1814.73 L2538.11 1814.73 L2538.11 1811.01 L2544.55 1811.01 L2544.55 1809.16 L2550.86 1809.16 L2550.86 1807.30 L2557.17 1807.30 L2557.17 1803.71 L2563.48 1803.71 L2563.48 1801.86 L2569.79 1801.86 L2569.79 1799.38 L2576.23 1799.38 L2576.23 1795.79 L2582.54 1795.79 L2582.54 1793.94 L2588.85 1793.94 L2588.85 1792.70 L2595.16 1792.70 L2595.16 1790.84 L2601.47 1790.84 L2601.47 1788.99 L2607.91 1788.99 L2607.91 1785.03 L2614.22 1785.03 L2614.22 1783.05 L2620.53 1783.05 L2620.53 1780.57 L2626.84 1780.57 L2626.84 1777.85 L2633.15 1777.85 L2633.15 1774.75 L2639.46 1774.75 L2639.46 1772.28 L2645.90 1772.28 L2645.90 1769.06 L2652.21 1769.06 L2652.21 1767.08 L2658.52 1767.08 L2658.52 1764.98 L2664.83 1764.98 L2664.83 1761.64 L2671.14 1761.64 L2671.14 1758.29 L2677.58 1758.29 L2677.58 1754.71 L2683.89 1754.71 L2683.89 1750.99 L2690.20 1750.99 L2690.20 1747.65 L2696.51 1747.65 L2696.51 1744.68 L2702.82 1744.68 L2702.82 1741.59 L2709.26 1741.59 L2709.26 1737.63 L2715.57 1737.63 L2715.57 1734.04 L2721.88 1734.04 L2721.88 1731.56 L2728.19 1731.56 L2728.19 1728.10 L2734.50 1728.10 L2734.50 1725.50 L2740.82 1725.50 L2740.82 1723.03 L2747.25 1723.03 L2747.25 1719.93 L2753.56 1719.93 L2753.56 1717.58 L2759.87 1717.58 L2759.87 1713.87 L2766.18 1713.87 L2766.18 1710.53 L2772.49 1710.53 L2772.49 1708.67 L2778.93 1708.67 L2778.93 1705.95 L2785.24 1705.95 L2785.24 1702.23 L2791.55 1702.23 L2791.55 1699.51 L2797.86 1699.51 L2797.86 1696.54 L2804.18 1696.54 L2804.18 1691.96 L2810.49 1691.96 L2810.49 1687.63 L2816.92 1687.63 L2816.92 1683.80 L2823.23 1683.80 L2823.23 1679.83 L2829.54 1679.83 L2829.54 1677.24 L2835.86 1677.24 L2835.86 1672.66 L2842.17 1672.66 L2842.17 1669.44 L2848.60 1669.44 L2848.60 1667.21 L2854.91 1667.21 L2854.91 1662.63 L2861.22 1662.63 L2861.22 1659.04 L2867.53 1659.04 L2867.53 1656.07 L2873.85 1656.07 L2873.85 1652.36 L2880.28 1652.36 L2880.28 1647.54 L2886.59 1647.54 L2886.59 1643.45 L2892.90 1643.45 L2892.90 1641.35 L2899.22 1641.35 L2899.22 1639.49 L2905.53 1639.49 L2905.53 1635.28 L2911.84 1635.28 L2911.84 1630.70 L2918.27 1630.70 L2918.27 1626.74 L2924.58 1626.74 L2924.58 1623.77 L2930.89 1623.77 L2930.89 1620.43 L2937.21 1620.43 L2937.21 1618.21 L2943.52 1618.21 L2943.52 1614.62 L2949.95 1614.62 L2949.95 1611.28 L2956.26 1611.28 L2956.26 1609.42 L2962.57 1609.42 L2962.57 1606.45 L2968.89 1606.45 L2968.89 1604.47 L2975.20 1604.47 L2975.20 1601.25 L2981.51 1601.25 L2981.51 1598.40 L2987.94 1598.40 L2987.94 1594.44 L2994.26 1594.44 L2994.26 1592.71 L3000.57 1592.71 L3000.57 1589.87 L3006.88 1589.87 L3006.88 1587.27 L3013.19 1587.27 L3013.19 1585.04 L3019.62 1585.04 L3019.62 1581.70 L3025.93 1581.70 L3025.93 1579.35 L3032.25 1579.35 L3032.25 1576.87 L3038.56 1576.87 L3038.56 1574.64 L3044.87 1574.64 L3044.87 1572.54 L3051.30 1572.54 L3051.30 1570.19 L3057.61 1570.19 L3057.61 1567.71 L3063.93 1567.71 L3063.93 1564.99 L3070.24 1564.99 L3070.24 1561.90 L3076.55 1561.90 L3076.55 1558.80 L3082.86 1558.80 L3082.86 1554.97 L3089.30 1554.97 L3089.30 1552.12 L3095.61 1552.12 L3095.61 1548.78 L3101.92 1548.78 L3101.92 1547.05 L3108.23 1547.05 L3108.23 1545.56 L3114.54 1545.56 L3114.54 1542.72 L3120.97 1542.72 L3120.97 1538.51 L3127.29 1538.51 L3127.29 1536.03 L3133.60 1536.03 L3133.60 1533.93 L3139.91 1533.93 L3139.91 1530.34 L3146.22 1530.34 L3146.22 1527.25 L3152.53 1527.25 L3152.53 1524.52 L3158.97 1524.52 L3158.97 1521.06 L3165.28 1521.06 L3165.28 1517.10 L3171.59 1517.10 L3171.59 1513.51 L3177.90 1513.51 L3177.90 1510.79 L3184.21 1510.79 L3184.21 1508.56 L3190.65 1508.56 L3190.65 1504.35 L3196.96 1504.35 L3196.96 1502.00 L3203.27 1502.00 L3203.27 1499.90 L3209.58 1499.90 L3209.58 1497.67 L3215.89 1497.67 L3215.89 1497.05 L3222.33 1497.05 L3222.33 1494.08 L3228.64 1494.08 L3228.64 1492.47 L3234.95 1492.47 L3234.95 1490.37 L3241.26 1490.37 L3241.26 1488.02 L3247.57 1488.02 L3247.57 1485.29 L3253.88 1485.29 L3253.88 1482.82 L3260.32 1482.82 L3260.32 1480.59 L3266.63 1480.59 L3266.63 1478.24 L3272.94 1478.24 L3272.94 1475.52 L3279.25 1475.52 L3279.25 1472.18 L3285.56 1472.18 L3285.56 1468.46 L3292.00 1468.46 L3292.00 1466.11 L3298.31 1466.11 L3298.31 1463.51 L3304.62 1463.51 L3304.62 1460.54 L3310.93 1460.54 L3310.93 1458.19 L3317.24 1458.19 L3317.24 1456.21 L3323.55 1456.21 L3323.55 1453.24 L3329.99 1453.24 L3329.99 1452.00 L3336.30 1452.00 L3336.30 1450.15 L3342.61 1450.15 L3342.61 1447.80 L3348.92 1447.80 L3348.92 1444.21 L3355.23 1444.21 L3355.23 1442.35 L3361.67 1442.35 L3361.67 1440.74 L3367.98 1440.74 L3367.98 1438.02 L3374.29 1438.02 L3374.29 1434.68 L3380.60 1434.68 L3380.60 1432.57 L3386.91 1432.57 L3386.91 1429.73 L3393.35 1429.73 L3393.35 1427.13 L3399.66 1427.13 L3399.66 1425.27 L3405.97 1425.27 L3405.97 1422.18 L3412.28 1422.18 L3412.28 1419.70 L3418.59 1419.70 L3418.59 1417.35 L3424.91 1417.35 L3424.91 1415.50 L3431.34 1415.50 L3431.34 1413.64 L3437.65 1413.64 L3437.65 1411.91 L3443.96 1411.91 L3443.96 1409.06 L3450.27 1409.06 L3450.27 1406.46 L3456.59 1406.46 L3456.59 1405.23 L3463.02 1405.23 L3463.02 1403.25 L3469.33 1403.25 L3469.33 1400.89 L3475.64 1400.89 L3475.64 1398.54 L3481.95 1398.54 L3481.95 1396.93 L3488.26 1396.93 L3488.26 1395.45 L3494.58 1395.45 L3494.58 1393.22 L3501.01 1393.22 L3501.01 1390.50 L3507.32 1390.50 L3507.32 1388.77 L3513.63 1388.77 L3513.63 1385.42 L3519.95 1385.42 L3519.95 1382.58 L3526.26 1382.58 L3526.26 1379.36 L3532.69 1379.36 L3532.69 1376.89 L3539.00 1376.89 L3539.00 1375.03 L3545.31 1375.03 L3545.31 1371.94 L3551.63 1371.94 L3551.63 1369.21 L3557.94 1369.21 L3557.94 1366.86 L3564.37 1366.86 L3564.37 1364.76 L3570.68 1364.76 L3570.68 1362.28 L3576.99 1362.28 L3576.99 1360.67 L3583.30 1360.67 L3583.30 1357.70 L3589.62 1357.70 L3589.62 1354.98 L3595.93 1354.98 L3595.93 1353.37 L3602.36 1353.37 L3602.36 1352.51 L3608.67 1352.51 L3608.67 1348.92 L3614.99 1348.92 L3614.99 1346.07 L3621.30 1346.07 L3621.30 1345.20 L3627.61 1345.20 L3627.61 1344.59 L3634.04 1344.59 L3634.04 1343.10 L3640.35 1343.10 L3640.35 1342.23 L3646.66 1342.23 L3646.66 1342.11 L3652.98 1342.11 L3652.98 1341.86 L3672.03 1341.86 L3672.03 1341.86" stroke-linejoin="round" style="fill:none;stroke:#E37E00;stroke-width:6.48"/>
	<path d=" M2512.87 1822.65 L2519.18 1822.65 L2519.18 1815.59 L2525.49 1815.59 L2525.49 1808.04 L2531.80 1808.04 L2531.80 1802.48 L2538.11 1802.48 L2538.11 1797.52 L2544.55 1797.52 L2544.55 1790.35 L2550.86 1790.35 L2550.86 1784.53 L2557.17 1784.53 L2557.17 1778.22 L2563.48 1778.22 L2563.48 1771.91 L2569.79 1771.91 L2569.79 1765.10 L2576.23 1765.10 L2576.23 1757.55 L2582.54 1757.55 L2582.54 1752.60 L2588.85 1752.60 L2588.85 1743.69 L2595.16 1743.69 L2595.16 1736.64 L2601.47 1736.64 L2601.47 1729.46 L2607.91 1729.46 L2607.91 1725.75 L2614.22 1725.75 L2614.22 1719.44 L2620.53 1719.44 L2620.53 1711.02 L2626.84 1711.02 L2626.84 1703.84 L2633.15 1703.84 L2633.15 1702.61 L2639.46 1702.61 L2639.46 1695.06 L2645.90 1695.06 L2645.90 1685.78 L2652.21 1685.78 L2652.21 1678.23 L2658.52 1678.23 L2658.52 1670.68 L2664.83 1670.68 L2664.83 1664.37 L2671.14 1664.37 L2671.14 1659.42 L2677.58 1659.42 L2677.58 1655.21 L2683.89 1655.21 L2683.89 1650.51 L2690.20 1650.51 L2690.20 1640.85 L2696.51 1640.85 L2696.51 1633.30 L2702.82 1633.30 L2702.82 1626.25 L2709.26 1626.25 L2709.26 1622.41 L2715.57 1622.41 L2715.57 1617.83 L2721.88 1617.83 L2721.88 1613.13 L2728.19 1613.13 L2728.19 1605.58 L2734.50 1605.58 L2734.50 1598.53 L2740.82 1598.53 L2740.82 1592.96 L2747.25 1592.96 L2747.25 1586.28 L2753.56 1586.28 L2753.56 1581.20 L2759.87 1581.20 L2759.87 1574.52 L2766.18 1574.52 L2766.18 1567.47 L2772.49 1567.47 L2772.49 1560.66 L2778.93 1560.66 L2778.93 1553.98 L2785.24 1553.98 L2785.24 1546.43 L2791.55 1546.43 L2791.55 1538.01 L2797.86 1538.01 L2797.86 1531.70 L2804.18 1531.70 L2804.18 1526.26 L2810.49 1526.26 L2810.49 1519.08 L2816.92 1519.08 L2816.92 1512.40 L2823.23 1512.40 L2823.23 1509.05 L2829.54 1509.05 L2829.54 1499.40 L2835.86 1499.40 L2835.86 1490.62 L2842.17 1490.62 L2842.17 1487.27 L2848.60 1487.27 L2848.60 1480.96 L2854.91 1480.96 L2854.91 1472.05 L2861.22 1472.05 L2861.22 1464.13 L2867.53 1464.13 L2867.53 1456.09 L2873.85 1456.09 L2873.85 1450.27 L2880.28 1450.27 L2880.28 1442.35 L2886.59 1442.35 L2886.59 1436.04 L2892.90 1436.04 L2892.90 1431.34 L2899.22 1431.34 L2899.22 1422.55 L2905.53 1422.55 L2905.53 1414.14 L2911.84 1414.14 L2911.84 1406.96 L2918.27 1406.96 L2918.27 1396.07 L2924.58 1396.07 L2924.58 1386.41 L2930.89 1386.41 L2930.89 1380.60 L2937.21 1380.60 L2937.21 1374.66 L2943.52 1374.66 L2943.52 1368.84 L2949.95 1368.84 L2949.95 1363.40 L2956.26 1363.40 L2956.26 1357.83 L2962.57 1357.83 L2962.57 1352.38 L2968.89 1352.38 L2968.89 1347.43 L2975.20 1347.43 L2975.20 1343.60 L2981.51 1343.60 L2981.51 1337.66 L2987.94 1337.66 L2987.94 1330.97 L2994.26 1330.97 L2994.26 1325.53 L3000.57 1325.53 L3000.57 1320.95 L3006.88 1320.95 L3006.88 1313.77 L3013.19 1313.77 L3013.19 1305.85 L3019.62 1305.85 L3019.62 1298.67 L3025.93 1298.67 L3025.93 1295.33 L3032.25 1295.33 L3032.25 1288.15 L3038.56 1288.15 L3038.56 1282.21 L3044.87 1282.21 L3044.87 1274.29 L3051.30 1274.29 L3051.30 1267.98 L3057.61 1267.98 L3057.61 1262.54 L3063.93 1262.54 L3063.93 1257.96 L3070.24 1257.96 L3070.24 1252.02 L3076.55 1252.02 L3076.55 1247.44 L3082.86 1247.44 L3082.86 1242.74 L3089.30 1242.74 L3089.30 1236.92 L3095.61 1236.92 L3095.61 1230.98 L3101.92 1230.98 L3101.92 1224.67 L3108.23 1224.67 L3108.23 1219.22 L3114.54 1219.22 L3114.54 1211.30 L3120.97 1211.30 L3120.97 1206.60 L3127.29 1206.60 L3127.29 1201.16 L3133.60 1201.16 L3133.60 1195.71 L3139.91 1195.71 L3139.91 1189.89 L3146.22 1189.89 L3146.22 1186.06 L3152.53 1186.06 L3152.53 1180.61 L3158.97 1180.61 L3158.97 1172.57 L3165.28 1172.57 L3165.28 1165.51 L3171.59 1165.51 L3171.59 1161.68 L3177.90 1161.68 L3177.90 1155.86 L3184.21 1155.86 L3184.21 1150.79 L3190.65 1150.79 L3190.65 1143.61 L3196.96 1143.61 L3196.96 1134.82 L3203.27 1134.82 L3203.27 1126.41 L3209.58 1126.41 L3209.58 1120.47 L3215.89 1120.47 L3215.89 1115.52 L3222.33 1115.52 L3222.33 1110.81 L3228.64 1110.81 L3228.64 1105.37 L3234.95 1105.37 L3234.95 1099.06 L3241.26 1099.06 L3241.26 1094.48 L3247.57 1094.48 L3247.57 1089.90 L3253.88 1089.90 L3253.88 1085.69 L3260.32 1085.69 L3260.32 1081.86 L3266.63 1081.86 L3266.63 1075.54 L3272.94 1075.54 L3272.94 1068.00 L3279.25 1068.00 L3279.25 1064.65 L3285.56 1064.65 L3285.56 1060.08 L3292.00 1060.08 L3292.00 1057.11 L3298.31 1057.11 L3298.31 1051.66 L3304.62 1051.66 L3304.62 1045.72 L3310.93 1045.72 L3310.93 1041.51 L3317.24 1041.51 L3317.24 1035.70 L3323.55 1035.70 L3323.55 1031.86 L3329.99 1031.86 L3329.99 1028.15 L3336.30 1028.15 L3336.30 1019.73 L3342.61 1019.73 L3342.61 1013.42 L3348.92 1013.42 L3348.92 1007.48 L3355.23 1007.48 L3355.23 1000.80 L3361.67 1000.80 L3361.67 995.72 L3367.98 995.72 L3367.98 990.65 L3374.29 990.65 L3374.29 986.94 L3380.60 986.94 L3380.60 982.36 L3386.91 982.36 L3386.91 976.79 L3393.35 976.79 L3393.35 973.45 L3399.66 973.45 L3399.66 967.14 L3405.97 967.14 L3405.97 962.19 L3412.28 962.19 L3412.28 960.08 L3418.59 960.08 L3418.59 953.28 L3424.91 953.28 L3424.91 944.86 L3431.34 944.86 L3431.34 939.91 L3437.65 939.91 L3437.65 935.21 L3443.96 935.21 L3443.96 931.00 L3450.27 931.00 L3450.27 928.53 L3456.59 928.53 L3456.59 921.35 L3463.02 921.35 L3463.02 916.77 L3469.33 916.77 L3469.33 911.69 L3475.64 911.69 L3475.64 904.52 L3481.95 904.52 L3481.95 898.70 L3488.26 898.70 L3488.26 894.49 L3494.58 894.49 L3494.58 892.02 L3501.01 892.02 L3501.01 886.08 L3507.32 886.08 L3507.32 877.66 L3513.63 877.66 L3513.63 873.95 L3519.95 873.95 L3519.95 868.38 L3526.26 868.38 L3526.26 861.70 L3532.69 861.70 L3532.69 857.12 L3539.00 857.12 L3539.00 853.28 L3545.31 853.28 L3545.31 850.81 L3551.63 850.81 L3551.63 843.63 L3557.94 843.63 L3557.94 839.92 L3564.37 839.92 L3564.37 834.47 L3570.68 834.47 L3570.68 828.16 L3576.99 828.16 L3576.99 822.22 L3583.30 822.22 L3583.30 818.01 L3589.62 818.01 L3589.62 814.67 L3595.93 814.67 L3595.93 810.09 L3602.36 810.09 L3602.36 808.36 L3608.67 808.36 L3608.67 805.02 L3614.99 805.02 L3614.99 802.92 L3621.30 802.92 L3621.30 799.94 L3627.61 799.94 L3627.61 796.23 L3634.04 796.23 L3634.04 793.63 L3640.35 793.63 L3640.35 793.26 L3646.66 793.26 L3646.66 792.02 L3659.29 792.02 L3659.29 791.53 L3672.03 791.53 L3672.03 791.53" stroke-linejoin="round" style="fill:none;stroke:#6E8E84;stroke-width:6.48"/>
	<line x1="2459.04" y1="1873.51" x2="2459.04" y2="414.45" style="stroke:#000000;stroke-width:4.32"/>
	<line x1="2459.04" y1="1825.99" x2="2429.09" y2="1825.99" style="stroke:#000000;stroke-width:4.32"/>
	<text x="2413.99" y="1852.27" style="font-family:'Helvetica';font-size:74.99px;fill:#000000" text-anchor="end">0.000</text>
	<line x1="2459.04" y1="1553.11" x2="2429.09" y2="1553.11" style="stroke:#000000;stroke-width:4.32"/>
	<text x="2413.99" y="1579.39" style="font-family:'Helvetica';font-size:74.99px;fill:#000000" text-anchor="end">0.001</text>
	<line x1="2459.04" y1="1280.36" x2="2429.09" y2="1280.36" style="stroke:#000000;stroke-width:4.32"/>
	<text x="2413.99" y="1306.64" style="font-family:'Helvetica';font-size:74.99px;fill:#000000" text-anchor="end">0.002</text>
	<line x1="2459.04" y1="1007.60" x2="2429.09" y2="1007.60" style="stroke:#000000;stroke-width:4.32"/>
	<text x="2413.99" y="1033.88" style="font-family:'Helvetica';font-size:74.99px;fill:#000000" text-anchor="end">0.003</text>
	<line x1="2459.04" y1="734.73" x2="2429.09" y2="734.73" style="stroke:#000000;stroke-width:4.32"/>
	<text x="2413.99" y="761.01" style="font-family:'Helvetica';font-size:74.99px;fill:#000000" text-anchor="end">0.004</text>
	<line x1="2459.04" y1="461.97" x2="2429.09" y2="461.97" style="stroke:#000000;stroke-width:4.32"/>
	<text x="2413.99" y="488.25" style="font-family:'Helvetica';font-size:74.99px;fill:#000000" text-anchor="end">0.005</text>
	<line x1="2459.04" y1="1873.51" x2="3820.91" y2="1873.51" style="stroke:#000000;stroke-width:4.32"/>
	<line x1="2506.56" y1="1873.51" x2="2506.56" y2="1903.46" style="stroke:#000000;stroke-width:4.32"/>
	<text x="2506.56" y="1970.87" style="font-family:'Helvetica';font-size:74.99px;fill:#000000" text-anchor="middle">1 Feb 20</text>
	<line x1="2690.20" y1="1873.51" x2="2690.20" y2="1903.46" style="stroke:#000000;stroke-width:4.32"/>
	<text x="2690.20" y="1970.87" style="font-family:'Helvetica';font-size:74.99px;fill:#000000" text-anchor="middle">1 Mar 20</text>
	<line x1="2886.59" y1="1873.51" x2="2886.59" y2="1903.46" style="stroke:#000000;stroke-width:4.32"/>
	<text x="2886.59" y="1970.87" style="font-family:'Helvetica';font-size:74.99px;fill:#000000" text-anchor="middle">1 Apr 20</text>
	<line x1="3082.98" y1="1873.51" x2="3082.98" y2="1903.46" style="stroke:#000000;stroke-width:4.32"/>
	<text x="3082.98" y="1970.87" style="font-family:'Helvetica';font-size:74.99px;fill:#000000" text-anchor="middle">1 May 20</text>
	<line x1="3272.94" y1="1873.51" x2="3272.94" y2="1903.46" style="stroke:#000000;stroke-width:4.32"/>
	<text x="3272.94" y="1970.87" style="font-family:'Helvetica';font-size:74.99px;fill:#000000" text-anchor="middle">1 June 20</text>
	<line x1="3463.02" y1="1873.51" x2="3463.02" y2="1903.46" style="stroke:#000000;stroke-width:4.32"/>
	<text x="3463.02" y="1970.87" style="font-family:'Helvetica';font-size:74.99px;fill:#000000" text-anchor="middle">1 July 20</text>
	<line x1="3659.41" y1="1873.51" x2="3659.41" y2="1903.46" style="stroke:#000000;stroke-width:4.32"/>
	<text x="3659.41" y="1970.87" style="font-family:'Helvetica';font-size:74.99px;fill:#000000" text-anchor="middle">1 Aug 20</text>
	<text x="3140.03" y="2053.41" style="font-family:'Helvetica';font-size:74.99px;fill:#000000" text-anchor="middle">Days since 1 Feb 2020</text>
	<text x="3140.03" y="369.91" style="font-family:'Helvetica';font-size:104.94px;fill:#1E2D53" text-anchor="middle">Male</text>
	<text x="150.62" y="1187.29" style="font-family:'Helvetica';font-size:99.99px;fill:#000000" transform="rotate(-90 150.62,1187.29)" text-anchor="middle">Cumulative probability</text>
	<text x="250.61" y="1187.29" style="font-family:'Helvetica';font-size:99.99px;fill:#000000" transform="rotate(-90 250.61,1187.29)" text-anchor="middle">Non covid death</text>
	<text x="2097.19" y="157.51" style="font-family:'Helvetica';font-size:110.01px;fill:#000000" text-anchor="middle"> </text>
	<rect x="1114.86" y="2201.21" width="1964.66" height="580.90" style="fill:#FFFFFF"/>
	<rect x="1117.74" y="2204.09" width="1958.90" height="575.14" style="fill:none;stroke:#000000;stroke-width:5.76"/>
	<line x1="1158.05" y1="2408.87" x2="1532.52" y2="2408.87" style="stroke:#1A476F;stroke-width:8.64"/>
	<line x1="1158.05" y1="2548.83" x2="1532.52" y2="2548.83" style="stroke:#90353B;stroke-width:8.64"/>
	<line x1="1158.05" y1="2688.92" x2="1532.52" y2="2688.92" style="stroke:#55752F;stroke-width:8.64"/>
	<line x1="1996.09" y1="2408.87" x2="2370.43" y2="2408.87" style="stroke:#E37E00;stroke-width:8.64"/>
	<line x1="1996.09" y1="2548.83" x2="2370.43" y2="2548.83" style="stroke:#6E8E84;stroke-width:8.64"/>
	<text x="1592.54" y="2436.88" style="font-family:'Helvetica';font-size:79.94px;fill:#000000">18-&lt;30</text>
	<text x="1592.54" y="2576.85" style="font-family:'Helvetica';font-size:79.94px;fill:#000000">30-&lt;40</text>
	<text x="1592.54" y="2716.94" style="font-family:'Helvetica';font-size:79.94px;fill:#000000">40-&lt;50</text>
	<text x="2430.45" y="2436.88" style="font-family:'Helvetica';font-size:79.94px;fill:#000000">50-&lt;60</text>
	<text x="2430.45" y="2576.85" style="font-family:'Helvetica';font-size:79.94px;fill:#000000">60-&lt;70</text>
	<text x="2430.45" y="2716.94" style="font-family:'Helvetica';font-size:79.94px;fill:#000000">70-&lt;80</text>
	<text x="2894.02" y="2436.88" style="font-family:'Helvetica';font-size:79.94px;fill:#000000">80+</text>
	<text x="2097.19" y="2308.96" style="font-family:'Helvetica';font-size:79.94px;fill:#000000" text-anchor="middle">Age group</text>
</svg>
