<?xml version="1.0" encoding="UTF-8" standalone="no"?>
<!-- This is a Stata 16.1 generated SVG file (http://www.stata.com) -->

<svg version="1.1" width="5.50in" height="4.00in" viewBox="0 0 3960 2880" xmlns="http://www.w3.org/2000/svg" xmlns:xlink="http://www.w3.org/1999/xlink">
	<desc>Stata Graph - Graph</desc>
	<rect x="0" y="0" width="3960" height="2880" style="fill:#EAF2F3;stroke:none"/>
	<rect x="0.00" y="0.00" width="3959.88" height="2880.00" style="fill:#EAF2F3"/>
	<rect x="2.88" y="2.88" width="3954.12" height="2874.24" style="fill:none;stroke:#EAF2F3;stroke-width:5.76"/>
	<rect x="297.87" y="207.91" width="1799.32" height="1958.65" style="fill:#EAF2F3"/>
	<rect x="300.03" y="210.07" width="1795.01" height="1954.33" style="fill:none;stroke:#EAF2F3;stroke-width:4.32"/>
	<rect x="659.71" y="414.45" width="1361.87" height="1459.06" style="fill:#FFFFFF"/>
	<rect x="661.87" y="416.61" width="1357.55" height="1454.74" style="fill:none;stroke:#FFFFFF;stroke-width:4.32"/>
	<line x1="659.71" y1="1825.99" x2="2021.58" y2="1825.99" style="stroke:#EAF2F3;stroke-width:6.48"/>
	<line x1="659.71" y1="1280.36" x2="2021.58" y2="1280.36" style="stroke:#EAF2F3;stroke-width:6.48"/>
	<line x1="659.71" y1="734.73" x2="2021.58" y2="734.73" style="stroke:#EAF2F3;stroke-width:6.48"/>
	<path d=" M1017.60 1825.86 L1042.96 1825.86 L1042.96 1825.62 L1061.90 1825.62 L1061.90 1825.49 L1087.27 1825.49 L1087.27 1825.25 L1099.89 1825.25 L1099.89 1825.00 L1112.64 1825.00 L1112.64 1824.87 L1131.57 1824.87 L1131.57 1824.63 L1150.63 1824.63 L1150.63 1824.38 L1163.25 1824.38 L1163.25 1824.26 L1188.62 1824.26 L1188.62 1824.01 L1194.93 1824.01 L1194.93 1823.76 L1201.24 1823.76 L1201.24 1823.64 L1207.55 1823.64 L1207.55 1823.39 L1232.92 1823.39 L1232.92 1823.27 L1245.54 1823.27 L1245.54 1823.02 L1277.22 1823.02 L1277.22 1822.77 L1429.31 1822.77 L1429.31 1822.77 L1492.67 1822.77 L1492.67 1822.65 L1530.66 1822.65 L1530.66 1822.40 L1581.28 1822.40 L1581.28 1822.15 L1872.71 1822.15 L1872.71 1822.15" stroke-linejoin="round" style="fill:none;stroke:#1A476F;stroke-width:6.48"/>
	<path d=" M871.94 1825.99 L992.23 1825.99 L992.23 1825.86 L1011.28 1825.86 L1011.28 1825.62 L1017.60 1825.62 L1017.60 1825.49 L1030.22 1825.49 L1030.22 1825.00 L1036.53 1825.00 L1036.53 1824.87 L1042.96 1824.87 L1042.96 1824.63 L1049.28 1824.63 L1049.28 1824.50 L1055.59 1824.50 L1055.59 1824.26 L1061.90 1824.26 L1061.90 1823.39 L1068.21 1823.39 L1068.21 1823.27 L1074.52 1823.27 L1074.52 1822.89 L1087.27 1822.89 L1087.27 1822.65 L1093.58 1822.65 L1093.58 1822.40 L1099.89 1822.40 L1099.89 1822.28 L1106.20 1822.28 L1106.20 1821.66 L1112.64 1821.66 L1112.64 1820.42 L1125.26 1820.42 L1125.26 1819.68 L1131.57 1819.68 L1131.57 1819.31 L1137.88 1819.31 L1137.88 1818.81 L1144.32 1818.81 L1144.32 1818.69 L1150.63 1818.69 L1150.63 1818.44 L1156.94 1818.44 L1156.94 1818.32 L1163.25 1818.32 L1163.25 1817.82 L1175.87 1817.82 L1175.87 1817.70 L1182.31 1817.70 L1182.31 1817.45 L1194.93 1817.45 L1194.93 1817.33 L1201.24 1817.33 L1201.24 1816.83 L1213.99 1816.83 L1213.99 1816.46 L1220.30 1816.46 L1220.30 1816.21 L1270.91 1816.21 L1270.91 1816.09 L1277.22 1816.09 L1277.22 1815.84 L1296.28 1815.84 L1296.28 1815.72 L1308.90 1815.72 L1308.90 1815.47 L1372.26 1815.47 L1372.26 1815.10 L1391.32 1815.10 L1391.32 1814.85 L1429.31 1814.85 L1429.31 1814.73 L1448.25 1814.73 L1448.25 1814.48 L1473.62 1814.48 L1473.62 1814.11 L1479.93 1814.11 L1479.93 1814.11 L1492.67 1814.11 L1492.67 1813.86 L1600.34 1813.86 L1600.34 1813.74 L1670.01 1813.74 L1670.01 1813.49 L1708.00 1813.49 L1708.00 1813.24 L1815.66 1813.24 L1815.66 1813.24 L1872.71 1813.24 L1872.71 1813.24" stroke-linejoin="round" style="fill:none;stroke:#90353B;stroke-width:6.48"/>
	<path d=" M884.57 1825.99 L966.86 1825.99 L966.86 1825.99 L973.29 1825.99 L973.29 1825.86 L985.92 1825.86 L985.92 1825.62 L1004.85 1825.62 L1004.85 1825.62 L1011.28 1825.62 L1011.28 1825.37 L1017.60 1825.37 L1017.60 1825.12 L1023.91 1825.12 L1023.91 1824.87 L1030.22 1824.87 L1030.22 1824.75 L1042.96 1824.75 L1042.96 1824.26 L1049.28 1824.26 L1049.28 1824.01 L1055.59 1824.01 L1055.59 1823.39 L1061.90 1823.39 L1061.90 1822.89 L1068.21 1822.89 L1068.21 1822.28 L1074.52 1822.28 L1074.52 1821.16 L1080.96 1821.16 L1080.96 1819.80 L1087.27 1819.80 L1087.27 1819.06 L1093.58 1819.06 L1093.58 1817.70 L1099.89 1817.70 L1099.89 1816.83 L1106.20 1816.83 L1106.20 1816.58 L1112.64 1816.58 L1112.64 1815.35 L1118.95 1815.35 L1118.95 1813.49 L1125.26 1813.49 L1125.26 1812.87 L1131.57 1812.87 L1131.57 1811.51 L1137.88 1811.51 L1137.88 1810.64 L1144.32 1810.64 L1144.32 1809.90 L1150.63 1809.90 L1150.63 1809.28 L1156.94 1809.28 L1156.94 1809.03 L1163.25 1809.03 L1163.25 1808.79 L1169.56 1808.79 L1169.56 1807.18 L1175.87 1807.18 L1175.87 1806.81 L1182.31 1806.81 L1182.31 1805.94 L1188.62 1805.94 L1188.62 1805.45 L1194.93 1805.45 L1194.93 1805.20 L1201.24 1805.20 L1201.24 1804.33 L1207.55 1804.33 L1207.55 1804.08 L1213.99 1804.08 L1213.99 1803.84 L1220.30 1803.84 L1220.30 1803.22 L1226.61 1803.22 L1226.61 1802.48 L1232.92 1802.48 L1232.92 1801.86 L1239.23 1801.86 L1239.23 1801.61 L1245.54 1801.61 L1245.54 1800.50 L1251.98 1800.50 L1251.98 1799.38 L1258.29 1799.38 L1258.29 1798.89 L1264.60 1798.89 L1264.60 1798.51 L1270.91 1798.51 L1270.91 1798.02 L1277.22 1798.02 L1277.22 1797.77 L1283.66 1797.77 L1283.66 1797.40 L1289.97 1797.40 L1289.97 1797.15 L1308.90 1797.15 L1308.90 1796.91 L1315.34 1796.91 L1315.34 1796.04 L1321.65 1796.04 L1321.65 1795.54 L1334.27 1795.54 L1334.27 1795.30 L1340.58 1795.30 L1340.58 1794.68 L1346.89 1794.68 L1346.89 1794.43 L1378.58 1794.43 L1378.58 1794.18 L1385.01 1794.18 L1385.01 1794.06 L1403.94 1794.06 L1403.94 1793.32 L1416.57 1793.32 L1416.57 1793.07 L1423.00 1793.07 L1423.00 1792.95 L1429.31 1792.95 L1429.31 1792.70 L1448.25 1792.70 L1448.25 1792.45 L1454.68 1792.45 L1454.68 1792.20 L1460.99 1792.20 L1460.99 1791.83 L1479.93 1791.83 L1479.93 1791.34 L1486.36 1791.34 L1486.36 1791.34 L1498.98 1791.34 L1498.98 1791.09 L1505.30 1791.09 L1505.30 1791.09 L1524.35 1791.09 L1524.35 1790.84 L1536.97 1790.84 L1536.97 1790.59 L1581.28 1790.59 L1581.28 1790.47 L1600.34 1790.47 L1600.34 1790.22 L1606.65 1790.22 L1606.65 1789.98 L1612.96 1789.98 L1612.96 1789.73 L1638.33 1789.73 L1638.33 1789.36 L1720.62 1789.36 L1720.62 1789.11 L1739.68 1789.11 L1739.68 1788.86 L1872.71 1788.86 L1872.71 1788.86" stroke-linejoin="round" style="fill:none;stroke:#55752F;stroke-width:6.48"/>
	<path d=" M713.54 1825.99 L764.16 1825.99 L764.16 1825.99 L783.21 1825.99 L783.21 1825.99 L814.89 1825.99 L814.89 1825.99 L852.88 1825.99 L852.88 1825.99 L878.25 1825.99 L878.25 1825.99 L897.19 1825.99 L897.19 1825.86 L954.24 1825.86 L954.24 1825.62 L960.55 1825.62 L960.55 1825.62 L973.29 1825.62 L973.29 1825.62 L985.92 1825.62 L985.92 1825.25 L992.23 1825.25 L992.23 1825.25 L998.54 1825.25 L998.54 1824.75 L1004.85 1824.75 L1004.85 1824.13 L1011.28 1824.13 L1011.28 1823.51 L1017.60 1823.51 L1017.60 1823.14 L1023.91 1823.14 L1023.91 1822.40 L1030.22 1822.40 L1030.22 1821.41 L1036.53 1821.41 L1036.53 1820.54 L1042.96 1820.54 L1042.96 1820.17 L1049.28 1820.17 L1049.28 1819.31 L1055.59 1819.31 L1055.59 1817.82 L1061.90 1817.82 L1061.90 1816.95 L1068.21 1816.95 L1068.21 1814.85 L1074.52 1814.85 L1074.52 1812.62 L1080.96 1812.62 L1080.96 1810.27 L1087.27 1810.27 L1087.27 1809.03 L1093.58 1809.03 L1093.58 1806.93 L1099.89 1806.93 L1099.89 1804.95 L1106.20 1804.95 L1106.20 1802.48 L1112.64 1802.48 L1112.64 1800.37 L1118.95 1800.37 L1118.95 1797.90 L1125.26 1797.90 L1125.26 1794.93 L1131.57 1794.93 L1131.57 1791.58 L1137.88 1791.58 L1137.88 1788.61 L1144.32 1788.61 L1144.32 1787.38 L1150.63 1787.38 L1150.63 1785.27 L1156.94 1785.27 L1156.94 1783.79 L1163.25 1783.79 L1163.25 1782.30 L1169.56 1782.30 L1169.56 1780.82 L1175.87 1780.82 L1175.87 1779.58 L1182.31 1779.58 L1182.31 1779.09 L1188.62 1779.09 L1188.62 1777.23 L1194.93 1777.23 L1194.93 1775.99 L1201.24 1775.99 L1201.24 1774.88 L1207.55 1774.88 L1207.55 1774.51 L1213.99 1774.51 L1213.99 1773.02 L1220.30 1773.02 L1220.30 1772.65 L1226.61 1772.65 L1226.61 1771.29 L1232.92 1771.29 L1232.92 1770.55 L1239.23 1770.55 L1239.23 1769.68 L1245.54 1769.68 L1245.54 1768.81 L1251.98 1768.81 L1251.98 1767.95 L1258.29 1767.95 L1258.29 1767.58 L1264.60 1767.58 L1264.60 1766.96 L1270.91 1766.96 L1270.91 1766.46 L1277.22 1766.46 L1277.22 1766.34 L1283.66 1766.34 L1283.66 1765.84 L1289.97 1765.84 L1289.97 1765.47 L1296.28 1765.47 L1296.28 1764.85 L1302.59 1764.85 L1302.59 1764.36 L1308.90 1764.36 L1308.90 1763.99 L1315.34 1763.99 L1315.34 1763.74 L1321.65 1763.74 L1321.65 1763.37 L1327.96 1763.37 L1327.96 1763.12 L1334.27 1763.12 L1334.27 1762.87 L1340.58 1762.87 L1340.58 1762.75 L1346.89 1762.75 L1346.89 1762.26 L1353.33 1762.26 L1353.33 1762.13 L1359.64 1762.13 L1359.64 1761.88 L1365.95 1761.88 L1365.95 1761.51 L1372.26 1761.51 L1372.26 1761.27 L1378.58 1761.27 L1378.58 1760.77 L1385.01 1760.77 L1385.01 1760.40 L1397.63 1760.40 L1397.63 1759.78 L1403.94 1759.78 L1403.94 1759.41 L1410.26 1759.41 L1410.26 1758.91 L1416.57 1758.91 L1416.57 1758.67 L1429.31 1758.67 L1429.31 1758.05 L1435.62 1758.05 L1435.62 1757.92 L1454.68 1757.92 L1454.68 1756.81 L1473.62 1756.81 L1473.62 1756.56 L1479.93 1756.56 L1479.93 1755.82 L1486.36 1755.82 L1486.36 1755.82 L1492.67 1755.82 L1492.67 1755.32 L1498.98 1755.32 L1498.98 1755.20 L1505.30 1755.20 L1505.30 1754.95 L1511.61 1754.95 L1511.61 1754.46 L1517.92 1754.46 L1517.92 1754.09 L1530.66 1754.09 L1530.66 1753.84 L1536.97 1753.84 L1536.97 1753.84 L1543.29 1753.84 L1543.29 1753.84 L1549.60 1753.84 L1549.60 1753.47 L1556.03 1753.47 L1556.03 1753.22 L1568.65 1753.22 L1568.65 1753.10 L1574.97 1753.10 L1574.97 1752.85 L1581.28 1752.85 L1581.28 1752.35 L1612.96 1752.35 L1612.96 1752.23 L1619.27 1752.23 L1619.27 1751.74 L1625.70 1751.74 L1625.70 1751.61 L1632.02 1751.61 L1632.02 1751.36 L1638.33 1751.36 L1638.33 1751.36 L1670.01 1751.36 L1670.01 1751.12 L1688.94 1751.12 L1688.94 1750.87 L1695.38 1750.87 L1695.38 1750.87 L1701.69 1750.87 L1701.69 1750.87 L1720.62 1750.87 L1720.62 1750.75 L1752.30 1750.75 L1752.30 1750.50 L1758.73 1750.50 L1758.73 1750.25 L1765.05 1750.25 L1765.05 1750.13 L1777.67 1750.13 L1777.67 1749.88 L1783.98 1749.88 L1783.98 1749.63 L1796.73 1749.63 L1796.73 1749.51 L1872.71 1749.51 L1872.71 1749.51" stroke-linejoin="round" style="fill:none;stroke:#E37E00;stroke-width:6.48"/>
	<path d=" M802.27 1825.99 L827.52 1825.99 L827.52 1825.99 L852.88 1825.99 L852.88 1825.99 L859.20 1825.99 L859.20 1825.99 L909.93 1825.99 L909.93 1825.99 L922.56 1825.99 L922.56 1825.99 L935.18 1825.99 L935.18 1825.99 L941.61 1825.99 L941.61 1825.99 L954.24 1825.99 L954.24 1825.99 L960.55 1825.99 L960.55 1825.25 L985.92 1825.25 L985.92 1824.75 L998.54 1824.75 L998.54 1824.38 L1004.85 1824.38 L1004.85 1823.51 L1017.60 1823.51 L1017.60 1823.14 L1023.91 1823.14 L1023.91 1822.28 L1030.22 1822.28 L1030.22 1822.28 L1036.53 1822.28 L1036.53 1820.67 L1042.96 1820.67 L1042.96 1819.06 L1049.28 1819.06 L1049.28 1816.09 L1055.59 1816.09 L1055.59 1812.87 L1061.90 1812.87 L1061.90 1811.14 L1068.21 1811.14 L1068.21 1808.66 L1074.52 1808.66 L1074.52 1805.32 L1080.96 1805.32 L1080.96 1803.34 L1087.27 1803.34 L1087.27 1798.76 L1093.58 1798.76 L1093.58 1795.42 L1099.89 1795.42 L1099.89 1792.08 L1106.20 1792.08 L1106.20 1786.76 L1112.64 1786.76 L1112.64 1783.05 L1118.95 1783.05 L1118.95 1780.20 L1125.26 1780.20 L1125.26 1777.72 L1131.57 1777.72 L1131.57 1775.62 L1137.88 1775.62 L1137.88 1772.28 L1144.32 1772.28 L1144.32 1768.94 L1150.63 1768.94 L1150.63 1766.09 L1156.94 1766.09 L1156.94 1763.25 L1163.25 1763.25 L1163.25 1761.14 L1169.56 1761.14 L1169.56 1758.67 L1175.87 1758.67 L1175.87 1755.70 L1182.31 1755.70 L1182.31 1754.09 L1188.62 1754.09 L1188.62 1751.24 L1194.93 1751.24 L1194.93 1749.14 L1201.24 1749.14 L1201.24 1748.77 L1207.55 1748.77 L1207.55 1747.03 L1213.99 1747.03 L1213.99 1745.05 L1220.30 1745.05 L1220.30 1743.32 L1226.61 1743.32 L1226.61 1741.71 L1232.92 1741.71 L1232.92 1739.24 L1239.23 1739.24 L1239.23 1736.27 L1245.54 1736.27 L1245.54 1734.66 L1251.98 1734.66 L1251.98 1733.05 L1258.29 1733.05 L1258.29 1730.95 L1264.60 1730.95 L1264.60 1729.71 L1270.91 1729.71 L1270.91 1728.84 L1283.66 1728.84 L1283.66 1728.10 L1289.97 1728.10 L1289.97 1727.60 L1296.28 1727.60 L1296.28 1726.86 L1302.59 1726.86 L1302.59 1725.62 L1308.90 1725.62 L1308.90 1724.76 L1315.34 1724.76 L1315.34 1723.89 L1321.65 1723.89 L1321.65 1723.03 L1327.96 1723.03 L1327.96 1721.79 L1334.27 1721.79 L1334.27 1721.05 L1346.89 1721.05 L1346.89 1719.31 L1353.33 1719.31 L1353.33 1718.57 L1359.64 1718.57 L1359.64 1718.07 L1372.26 1718.07 L1372.26 1717.70 L1378.58 1717.70 L1378.58 1717.33 L1385.01 1717.33 L1385.01 1716.09 L1391.32 1716.09 L1391.32 1715.60 L1397.63 1715.60 L1397.63 1714.86 L1403.94 1714.86 L1403.94 1713.12 L1410.26 1713.12 L1410.26 1712.75 L1416.57 1712.75 L1416.57 1712.38 L1423.00 1712.38 L1423.00 1711.89 L1429.31 1711.89 L1429.31 1710.65 L1435.62 1710.65 L1435.62 1710.28 L1441.93 1710.28 L1441.93 1707.80 L1454.68 1707.80 L1454.68 1707.31 L1460.99 1707.31 L1460.99 1706.94 L1473.62 1706.94 L1473.62 1706.57 L1486.36 1706.57 L1486.36 1705.70 L1492.67 1705.70 L1492.67 1705.33 L1498.98 1705.33 L1498.98 1704.83 L1505.30 1704.83 L1505.30 1704.09 L1511.61 1704.09 L1511.61 1704.09 L1517.92 1704.09 L1517.92 1703.60 L1543.29 1703.60 L1543.29 1702.36 L1549.60 1702.36 L1549.60 1701.99 L1556.03 1701.99 L1556.03 1701.62 L1562.34 1701.62 L1562.34 1701.12 L1568.65 1701.12 L1568.65 1700.75 L1581.28 1700.75 L1581.28 1700.38 L1587.59 1700.38 L1587.59 1699.88 L1594.02 1699.88 L1594.02 1699.51 L1625.70 1699.51 L1625.70 1699.14 L1638.33 1699.14 L1638.33 1699.14 L1670.01 1699.14 L1670.01 1698.65 L1708.00 1698.65 L1708.00 1698.65 L1714.31 1698.65 L1714.31 1698.65 L1727.06 1698.65 L1727.06 1698.65 L1783.98 1698.65 L1783.98 1698.65 L1790.29 1698.65 L1790.29 1698.27 L1828.41 1698.27 L1828.41 1698.27 L1872.71 1698.27 L1872.71 1698.27" stroke-linejoin="round" style="fill:none;stroke:#6E8E84;stroke-width:6.48"/>
	<line x1="659.71" y1="1873.51" x2="659.71" y2="414.45" style="stroke:#000000;stroke-width:4.32"/>
	<line x1="659.71" y1="1825.99" x2="629.76" y2="1825.99" style="stroke:#000000;stroke-width:4.32"/>
	<text x="614.79" y="1852.27" style="font-family:'Helvetica';font-size:74.99px;fill:#000000" text-anchor="end">0.000</text>
	<line x1="659.71" y1="1280.36" x2="629.76" y2="1280.36" style="stroke:#000000;stroke-width:4.32"/>
	<text x="614.79" y="1306.64" style="font-family:'Helvetica';font-size:74.99px;fill:#000000" text-anchor="end">0.002</text>
	<line x1="659.71" y1="734.73" x2="629.76" y2="734.73" style="stroke:#000000;stroke-width:4.32"/>
	<text x="614.79" y="761.01" style="font-family:'Helvetica';font-size:74.99px;fill:#000000" text-anchor="end">0.004</text>
	<line x1="659.71" y1="1873.51" x2="2021.58" y2="1873.51" style="stroke:#000000;stroke-width:4.32"/>
	<line x1="707.23" y1="1873.51" x2="707.23" y2="1903.46" style="stroke:#000000;stroke-width:4.32"/>
	<text x="707.23" y="1970.87" style="font-family:'Helvetica';font-size:74.99px;fill:#000000" text-anchor="middle">1 Feb 20</text>
	<line x1="891.00" y1="1873.51" x2="891.00" y2="1903.46" style="stroke:#000000;stroke-width:4.32"/>
	<text x="891.00" y="1970.87" style="font-family:'Helvetica';font-size:74.99px;fill:#000000" text-anchor="middle">1 Mar 20</text>
	<line x1="1087.27" y1="1873.51" x2="1087.27" y2="1903.46" style="stroke:#000000;stroke-width:4.32"/>
	<text x="1087.27" y="1970.87" style="font-family:'Helvetica';font-size:74.99px;fill:#000000" text-anchor="middle">1 Apr 20</text>
	<line x1="1283.66" y1="1873.51" x2="1283.66" y2="1903.46" style="stroke:#000000;stroke-width:4.32"/>
	<text x="1283.66" y="1970.87" style="font-family:'Helvetica';font-size:74.99px;fill:#000000" text-anchor="middle">1 May 20</text>
	<line x1="1473.74" y1="1873.51" x2="1473.74" y2="1903.46" style="stroke:#000000;stroke-width:4.32"/>
	<text x="1473.74" y="1970.87" style="font-family:'Helvetica';font-size:74.99px;fill:#000000" text-anchor="middle">1 June 20</text>
	<line x1="1663.69" y1="1873.51" x2="1663.69" y2="1903.46" style="stroke:#000000;stroke-width:4.32"/>
	<text x="1663.69" y="1970.87" style="font-family:'Helvetica';font-size:74.99px;fill:#000000" text-anchor="middle">1 July 20</text>
	<line x1="1860.09" y1="1873.51" x2="1860.09" y2="1903.46" style="stroke:#000000;stroke-width:4.32"/>
	<text x="1860.09" y="1970.87" style="font-family:'Helvetica';font-size:74.99px;fill:#000000" text-anchor="middle">1 Aug 20</text>
	<text x="1340.71" y="2053.41" style="font-family:'Helvetica';font-size:74.99px;fill:#000000" text-anchor="middle"> </text>
	<text x="1340.71" y="369.91" style="font-family:'Helvetica';font-size:104.94px;fill:#1E2D53" text-anchor="middle">Female</text>
	<rect x="2097.19" y="207.91" width="1799.33" height="1958.65" style="fill:#EAF2F3"/>
	<rect x="2099.35" y="210.07" width="1795.01" height="1954.33" style="fill:none;stroke:#EAF2F3;stroke-width:4.32"/>
	<rect x="2459.04" y="414.45" width="1361.87" height="1459.06" style="fill:#FFFFFF"/>
	<rect x="2461.20" y="416.61" width="1357.55" height="1454.74" style="fill:none;stroke:#FFFFFF;stroke-width:4.32"/>
	<line x1="2459.04" y1="1825.99" x2="3820.91" y2="1825.99" style="stroke:#EAF2F3;stroke-width:6.48"/>
	<line x1="2459.04" y1="1280.36" x2="3820.91" y2="1280.36" style="stroke:#EAF2F3;stroke-width:6.48"/>
	<line x1="2459.04" y1="734.73" x2="3820.91" y2="734.73" style="stroke:#EAF2F3;stroke-width:6.48"/>
	<path d=" M2601.47 1825.99 L2607.91 1825.99 L2607.91 1825.99 L2626.84 1825.99 L2626.84 1825.99 L2683.89 1825.99 L2683.89 1825.99 L2766.18 1825.99 L2766.18 1825.99 L2785.24 1825.99 L2785.24 1825.86 L2829.54 1825.86 L2829.54 1825.62 L2835.86 1825.62 L2835.86 1824.87 L2842.17 1824.87 L2842.17 1824.75 L2854.91 1824.75 L2854.91 1824.01 L2867.53 1824.01 L2867.53 1823.39 L2873.85 1823.39 L2873.85 1822.65 L2880.28 1822.65 L2880.28 1822.52 L2899.22 1822.52 L2899.22 1822.28 L2911.84 1822.28 L2911.84 1821.78 L2924.58 1821.78 L2924.58 1821.53 L2943.52 1821.53 L2943.52 1821.16 L2956.26 1821.16 L2956.26 1820.91 L3000.57 1820.91 L3000.57 1820.67 L3006.88 1820.67 L3006.88 1820.42 L3051.30 1820.42 L3051.30 1820.17 L3114.54 1820.17 L3114.54 1820.05 L3165.28 1820.05 L3165.28 1819.80 L3184.21 1819.80 L3184.21 1819.55 L3272.94 1819.55 L3272.94 1819.31 L3443.96 1819.31 L3443.96 1819.06 L3488.26 1819.06 L3488.26 1819.06 L3494.58 1819.06 L3494.58 1818.93 L3672.03 1818.93 L3672.03 1818.93" stroke-linejoin="round" style="fill:none;stroke:#1A476F;stroke-width:6.48"/>
	<path d=" M2639.46 1825.99 L2702.82 1825.99 L2702.82 1825.99 L2747.25 1825.99 L2747.25 1825.86 L2766.18 1825.86 L2766.18 1825.62 L2772.49 1825.62 L2772.49 1825.37 L2785.24 1825.37 L2785.24 1825.25 L2791.55 1825.25 L2791.55 1825.00 L2804.18 1825.00 L2804.18 1824.75 L2810.49 1824.75 L2810.49 1824.63 L2816.92 1824.63 L2816.92 1824.38 L2823.23 1824.38 L2823.23 1823.76 L2829.54 1823.76 L2829.54 1823.64 L2835.86 1823.64 L2835.86 1822.77 L2842.17 1822.77 L2842.17 1821.78 L2848.60 1821.78 L2848.60 1820.54 L2854.91 1820.54 L2854.91 1819.92 L2861.22 1819.92 L2861.22 1819.31 L2867.53 1819.31 L2867.53 1819.06 L2880.28 1819.06 L2880.28 1818.93 L2886.59 1818.93 L2886.59 1818.07 L2892.90 1818.07 L2892.90 1817.08 L2899.22 1817.08 L2899.22 1816.46 L2905.53 1816.46 L2905.53 1816.21 L2911.84 1816.21 L2911.84 1815.22 L2918.27 1815.22 L2918.27 1814.36 L2924.58 1814.36 L2924.58 1813.61 L2930.89 1813.61 L2930.89 1812.75 L2937.21 1812.75 L2937.21 1812.13 L2943.52 1812.13 L2943.52 1811.51 L2949.95 1811.51 L2949.95 1811.39 L2956.26 1811.39 L2956.26 1810.52 L2962.57 1810.52 L2962.57 1810.27 L2968.89 1810.27 L2968.89 1810.15 L2981.51 1810.15 L2981.51 1809.90 L2987.94 1809.90 L2987.94 1809.53 L2994.26 1809.53 L2994.26 1809.28 L3000.57 1809.28 L3000.57 1808.66 L3006.88 1808.66 L3006.88 1808.29 L3013.19 1808.29 L3013.19 1808.04 L3019.62 1808.04 L3019.62 1807.80 L3025.93 1807.80 L3025.93 1807.30 L3038.56 1807.30 L3038.56 1807.05 L3051.30 1807.05 L3051.30 1806.81 L3057.61 1806.81 L3057.61 1806.44 L3082.86 1806.44 L3082.86 1806.19 L3089.30 1806.19 L3089.30 1806.06 L3108.23 1806.06 L3108.23 1805.82 L3114.54 1805.82 L3114.54 1805.57 L3120.97 1805.57 L3120.97 1805.45 L3127.29 1805.45 L3127.29 1804.95 L3158.97 1804.95 L3158.97 1804.83 L3177.90 1804.83 L3177.90 1804.58 L3184.21 1804.58 L3184.21 1804.33 L3234.95 1804.33 L3234.95 1804.21 L3266.63 1804.21 L3266.63 1803.96 L3272.94 1803.96 L3272.94 1803.71 L3298.31 1803.71 L3298.31 1803.59 L3304.62 1803.59 L3304.62 1803.34 L3355.23 1803.34 L3355.23 1802.97 L3374.29 1802.97 L3374.29 1802.72 L3399.66 1802.72 L3399.66 1802.60 L3431.34 1802.60 L3431.34 1802.35 L3437.65 1802.35 L3437.65 1802.10 L3475.64 1802.10 L3475.64 1801.98 L3513.63 1801.98 L3513.63 1801.98 L3672.03 1801.98 L3672.03 1801.98" stroke-linejoin="round" style="fill:none;stroke:#90353B;stroke-width:6.48"/>
	<path d=" M2512.87 1825.99 L2544.55 1825.99 L2544.55 1825.99 L2614.22 1825.99 L2614.22 1825.99 L2620.53 1825.99 L2620.53 1825.99 L2658.52 1825.99 L2658.52 1825.99 L2753.56 1825.99 L2753.56 1825.86 L2785.24 1825.86 L2785.24 1825.12 L2797.86 1825.12 L2797.86 1825.00 L2804.18 1825.00 L2804.18 1824.50 L2810.49 1824.50 L2810.49 1823.88 L2816.92 1823.88 L2816.92 1823.64 L2823.23 1823.64 L2823.23 1823.02 L2829.54 1823.02 L2829.54 1822.28 L2835.86 1822.28 L2835.86 1821.41 L2842.17 1821.41 L2842.17 1820.79 L2848.60 1820.79 L2848.60 1817.94 L2854.91 1817.94 L2854.91 1817.08 L2861.22 1817.08 L2861.22 1816.46 L2867.53 1816.46 L2867.53 1813.86 L2873.85 1813.86 L2873.85 1811.63 L2880.28 1811.63 L2880.28 1810.15 L2886.59 1810.15 L2886.59 1807.92 L2892.90 1807.92 L2892.90 1804.95 L2899.22 1804.95 L2899.22 1803.59 L2905.53 1803.59 L2905.53 1800.50 L2911.84 1800.50 L2911.84 1798.14 L2918.27 1798.14 L2918.27 1796.91 L2924.58 1796.91 L2924.58 1795.54 L2930.89 1795.54 L2930.89 1792.70 L2937.21 1792.70 L2937.21 1791.21 L2943.52 1791.21 L2943.52 1788.99 L2949.95 1788.99 L2949.95 1787.01 L2956.26 1787.01 L2956.26 1785.27 L2962.57 1785.27 L2962.57 1784.65 L2968.89 1784.65 L2968.89 1783.17 L2975.20 1783.17 L2975.20 1781.81 L2981.51 1781.81 L2981.51 1781.19 L2987.94 1781.19 L2987.94 1779.83 L2994.26 1779.83 L2994.26 1778.71 L3000.57 1778.71 L3000.57 1778.10 L3006.88 1778.10 L3006.88 1776.98 L3013.19 1776.98 L3013.19 1775.99 L3019.62 1775.99 L3019.62 1775.13 L3025.93 1775.13 L3025.93 1774.38 L3032.25 1774.38 L3032.25 1774.14 L3038.56 1774.14 L3038.56 1773.76 L3051.30 1773.76 L3051.30 1772.40 L3057.61 1772.40 L3057.61 1772.03 L3063.93 1772.03 L3063.93 1771.54 L3070.24 1771.54 L3070.24 1770.92 L3082.86 1770.92 L3082.86 1770.67 L3089.30 1770.67 L3089.30 1769.68 L3095.61 1769.68 L3095.61 1768.94 L3108.23 1768.94 L3108.23 1768.69 L3120.97 1768.69 L3120.97 1768.32 L3133.60 1768.32 L3133.60 1767.70 L3139.91 1767.70 L3139.91 1767.70 L3146.22 1767.70 L3146.22 1767.70 L3152.53 1767.70 L3152.53 1767.21 L3158.97 1767.21 L3158.97 1766.96 L3171.59 1766.96 L3171.59 1766.83 L3177.90 1766.83 L3177.90 1766.34 L3184.21 1766.34 L3184.21 1766.09 L3203.27 1766.09 L3203.27 1765.97 L3209.58 1765.97 L3209.58 1765.72 L3215.89 1765.72 L3215.89 1765.47 L3234.95 1765.47 L3234.95 1765.10 L3241.26 1765.10 L3241.26 1764.61 L3279.25 1764.61 L3279.25 1764.61 L3304.62 1764.61 L3304.62 1764.36 L3310.93 1764.36 L3310.93 1763.99 L3317.24 1763.99 L3317.24 1763.49 L3323.55 1763.49 L3323.55 1763.49 L3342.61 1763.49 L3342.61 1763.12 L3348.92 1763.12 L3348.92 1762.87 L3355.23 1762.87 L3355.23 1762.87 L3361.67 1762.87 L3361.67 1762.63 L3374.29 1762.63 L3374.29 1762.63 L3380.60 1762.63 L3380.60 1762.38 L3393.35 1762.38 L3393.35 1762.38 L3424.91 1762.38 L3424.91 1762.26 L3437.65 1762.26 L3437.65 1762.26 L3443.96 1762.26 L3443.96 1762.26 L3450.27 1762.26 L3450.27 1762.01 L3501.01 1762.01 L3501.01 1761.76 L3545.31 1761.76 L3545.31 1761.51 L3614.99 1761.51 L3614.99 1761.51 L3621.30 1761.51 L3621.30 1761.39 L3672.03 1761.39 L3672.03 1761.39" stroke-linejoin="round" style="fill:none;stroke:#55752F;stroke-width:6.48"/>
	<path d=" M2538.11 1825.99 L2557.17 1825.99 L2557.17 1825.99 L2569.79 1825.99 L2569.79 1825.99 L2607.91 1825.99 L2607.91 1825.99 L2639.46 1825.99 L2639.46 1825.99 L2645.90 1825.99 L2645.90 1825.99 L2658.52 1825.99 L2658.52 1825.99 L2671.14 1825.99 L2671.14 1825.99 L2683.89 1825.99 L2683.89 1825.99 L2702.82 1825.99 L2702.82 1825.99 L2709.26 1825.99 L2709.26 1825.99 L2715.57 1825.99 L2715.57 1825.99 L2721.88 1825.99 L2721.88 1825.99 L2728.19 1825.99 L2728.19 1825.99 L2740.82 1825.99 L2740.82 1825.99 L2747.25 1825.99 L2747.25 1825.86 L2753.56 1825.86 L2753.56 1825.25 L2759.87 1825.25 L2759.87 1825.25 L2778.93 1825.25 L2778.93 1825.00 L2785.24 1825.00 L2785.24 1824.75 L2791.55 1824.75 L2791.55 1824.63 L2797.86 1824.63 L2797.86 1823.76 L2804.18 1823.76 L2804.18 1822.03 L2810.49 1822.03 L2810.49 1820.79 L2816.92 1820.79 L2816.92 1819.80 L2823.23 1819.80 L2823.23 1818.93 L2829.54 1818.93 L2829.54 1818.07 L2835.86 1818.07 L2835.86 1815.35 L2842.17 1815.35 L2842.17 1811.88 L2848.60 1811.88 L2848.60 1807.43 L2854.91 1807.43 L2854.91 1802.10 L2861.22 1802.10 L2861.22 1798.14 L2867.53 1798.14 L2867.53 1794.80 L2873.85 1794.80 L2873.85 1790.84 L2880.28 1790.84 L2880.28 1784.90 L2886.59 1784.90 L2886.59 1779.33 L2892.90 1779.33 L2892.90 1774.88 L2899.22 1774.88 L2899.22 1770.55 L2905.53 1770.55 L2905.53 1766.59 L2911.84 1766.59 L2911.84 1762.01 L2918.27 1762.01 L2918.27 1757.18 L2924.58 1757.18 L2924.58 1752.60 L2930.89 1752.60 L2930.89 1747.16 L2937.21 1747.16 L2937.21 1743.69 L2943.52 1743.69 L2943.52 1740.35 L2949.95 1740.35 L2949.95 1737.63 L2956.26 1737.63 L2956.26 1734.66 L2962.57 1734.66 L2962.57 1731.94 L2968.89 1731.94 L2968.89 1729.09 L2975.20 1729.09 L2975.20 1725.75 L2981.51 1725.75 L2981.51 1723.64 L2987.94 1723.64 L2987.94 1722.16 L2994.26 1722.16 L2994.26 1720.30 L3000.57 1720.30 L3000.57 1718.57 L3006.88 1718.57 L3006.88 1716.34 L3013.19 1716.34 L3013.19 1714.24 L3019.62 1714.24 L3019.62 1712.13 L3025.93 1712.13 L3025.93 1711.27 L3032.25 1711.27 L3032.25 1709.04 L3038.56 1709.04 L3038.56 1706.94 L3044.87 1706.94 L3044.87 1705.70 L3051.30 1705.70 L3051.30 1704.83 L3057.61 1704.83 L3057.61 1703.97 L3063.93 1703.97 L3063.93 1702.98 L3070.24 1702.98 L3070.24 1701.49 L3076.55 1701.49 L3076.55 1700.63 L3082.86 1700.63 L3082.86 1700.01 L3089.30 1700.01 L3089.30 1699.39 L3095.61 1699.39 L3095.61 1698.40 L3101.92 1698.40 L3101.92 1697.78 L3108.23 1697.78 L3108.23 1697.28 L3114.54 1697.28 L3114.54 1696.67 L3120.97 1696.67 L3120.97 1694.56 L3127.29 1694.56 L3127.29 1694.44 L3133.60 1694.44 L3133.60 1693.94 L3139.91 1693.94 L3139.91 1693.57 L3146.22 1693.57 L3146.22 1692.95 L3152.53 1692.95 L3152.53 1692.09 L3158.97 1692.09 L3158.97 1691.72 L3165.28 1691.72 L3165.28 1690.60 L3177.90 1690.60 L3177.90 1689.86 L3184.21 1689.86 L3184.21 1688.75 L3190.65 1688.75 L3190.65 1688.50 L3196.96 1688.50 L3196.96 1688.13 L3203.27 1688.13 L3203.27 1687.88 L3209.58 1687.88 L3209.58 1687.76 L3215.89 1687.76 L3215.89 1686.52 L3222.33 1686.52 L3222.33 1686.27 L3234.95 1686.27 L3234.95 1685.90 L3241.26 1685.90 L3241.26 1685.03 L3247.57 1685.03 L3247.57 1684.54 L3253.88 1684.54 L3253.88 1684.17 L3260.32 1684.17 L3260.32 1683.80 L3266.63 1683.80 L3266.63 1683.30 L3272.94 1683.30 L3272.94 1683.18 L3279.25 1683.18 L3279.25 1682.68 L3285.56 1682.68 L3285.56 1682.68 L3292.00 1682.68 L3292.00 1682.56 L3298.31 1682.56 L3298.31 1682.31 L3304.62 1682.31 L3304.62 1681.94 L3310.93 1681.94 L3310.93 1681.69 L3317.24 1681.69 L3317.24 1681.69 L3323.55 1681.69 L3323.55 1680.83 L3336.30 1680.83 L3336.30 1680.21 L3348.92 1680.21 L3348.92 1679.59 L3367.98 1679.59 L3367.98 1679.22 L3374.29 1679.22 L3374.29 1679.22 L3386.91 1679.22 L3386.91 1678.97 L3393.35 1678.97 L3393.35 1678.72 L3399.66 1678.72 L3399.66 1678.60 L3405.97 1678.60 L3405.97 1678.35 L3412.28 1678.35 L3412.28 1678.10 L3431.34 1678.10 L3431.34 1677.73 L3450.27 1677.73 L3450.27 1677.24 L3475.64 1677.24 L3475.64 1677.11 L3488.26 1677.11 L3488.26 1676.86 L3501.01 1676.86 L3501.01 1676.62 L3507.32 1676.62 L3507.32 1676.62 L3513.63 1676.62 L3513.63 1676.49 L3519.95 1676.49 L3519.95 1676.49 L3539.00 1676.49 L3539.00 1676.49 L3545.31 1676.49 L3545.31 1676.00 L3551.63 1676.00 L3551.63 1676.00 L3564.37 1676.00 L3564.37 1675.87 L3576.99 1675.87 L3576.99 1675.63 L3583.30 1675.63 L3583.30 1675.38 L3589.62 1675.38 L3589.62 1675.38 L3602.36 1675.38 L3602.36 1675.26 L3608.67 1675.26 L3608.67 1675.26 L3614.99 1675.26 L3614.99 1675.26 L3627.61 1675.26 L3627.61 1675.01 L3634.04 1675.01 L3634.04 1675.01 L3640.35 1675.01 L3640.35 1674.76 L3646.66 1674.76 L3646.66 1674.51 L3672.03 1674.51 L3672.03 1674.51" stroke-linejoin="round" style="fill:none;stroke:#E37E00;stroke-width:6.48"/>
	<path d=" M2512.87 1825.99 L2519.18 1825.99 L2519.18 1825.99 L2531.80 1825.99 L2531.80 1825.99 L2582.54 1825.99 L2582.54 1825.99 L2588.85 1825.99 L2588.85 1825.99 L2620.53 1825.99 L2620.53 1825.99 L2626.84 1825.99 L2626.84 1825.99 L2645.90 1825.99 L2645.90 1825.99 L2677.58 1825.99 L2677.58 1825.99 L2696.51 1825.99 L2696.51 1825.62 L2728.19 1825.62 L2728.19 1825.25 L2747.25 1825.25 L2747.25 1825.25 L2753.56 1825.25 L2753.56 1823.88 L2766.18 1823.88 L2766.18 1823.14 L2772.49 1823.14 L2772.49 1823.14 L2778.93 1823.14 L2778.93 1822.65 L2785.24 1822.65 L2785.24 1821.78 L2791.55 1821.78 L2791.55 1819.68 L2797.86 1819.68 L2797.86 1818.07 L2804.18 1818.07 L2804.18 1817.57 L2810.49 1817.57 L2810.49 1815.47 L2816.92 1815.47 L2816.92 1813.37 L2823.23 1813.37 L2823.23 1811.26 L2829.54 1811.26 L2829.54 1806.68 L2835.86 1806.68 L2835.86 1803.34 L2842.17 1803.34 L2842.17 1801.24 L2848.60 1801.24 L2848.60 1799.13 L2854.91 1799.13 L2854.91 1793.69 L2861.22 1793.69 L2861.22 1787.38 L2867.53 1787.38 L2867.53 1779.83 L2873.85 1779.83 L2873.85 1773.89 L2880.28 1773.89 L2880.28 1763.74 L2886.59 1763.74 L2886.59 1757.06 L2892.90 1757.06 L2892.90 1751.98 L2899.22 1751.98 L2899.22 1747.03 L2905.53 1747.03 L2905.53 1738.12 L2911.84 1738.12 L2911.84 1729.71 L2918.27 1729.71 L2918.27 1722.53 L2924.58 1722.53 L2924.58 1714.98 L2930.89 1714.98 L2930.89 1704.96 L2937.21 1704.96 L2937.21 1695.18 L2943.52 1695.18 L2943.52 1690.60 L2949.95 1690.60 L2949.95 1684.66 L2956.26 1684.66 L2956.26 1678.35 L2962.57 1678.35 L2962.57 1673.40 L2968.89 1673.40 L2968.89 1669.56 L2975.20 1669.56 L2975.20 1664.98 L2981.51 1664.98 L2981.51 1662.88 L2987.94 1662.88 L2987.94 1657.81 L2994.26 1657.81 L2994.26 1654.84 L3000.57 1654.84 L3000.57 1651.50 L3006.88 1651.50 L3006.88 1648.53 L3013.19 1648.53 L3013.19 1644.32 L3019.62 1644.32 L3019.62 1643.08 L3025.93 1643.08 L3025.93 1640.98 L3032.25 1640.98 L3032.25 1636.27 L3038.56 1636.27 L3038.56 1633.80 L3044.87 1633.80 L3044.87 1632.07 L3051.30 1632.07 L3051.30 1629.59 L3057.61 1629.59 L3057.61 1627.12 L3063.93 1627.12 L3063.93 1624.52 L3070.24 1624.52 L3070.24 1621.55 L3076.55 1621.55 L3076.55 1619.94 L3082.86 1619.94 L3082.86 1618.70 L3089.30 1618.70 L3089.30 1617.34 L3095.61 1617.34 L3095.61 1616.10 L3101.92 1616.10 L3101.92 1615.24 L3108.23 1615.24 L3108.23 1611.89 L3114.54 1611.89 L3114.54 1609.42 L3120.97 1609.42 L3120.97 1606.45 L3127.29 1606.45 L3127.29 1605.21 L3133.60 1605.21 L3133.60 1603.97 L3139.91 1603.97 L3139.91 1603.48 L3146.22 1603.48 L3146.22 1601.00 L3152.53 1601.00 L3152.53 1599.27 L3158.97 1599.27 L3158.97 1597.66 L3171.59 1597.66 L3171.59 1596.30 L3177.90 1596.30 L3177.90 1595.93 L3184.21 1595.93 L3184.21 1595.06 L3190.65 1595.06 L3190.65 1593.83 L3196.96 1593.83 L3196.96 1592.59 L3203.27 1592.59 L3203.27 1592.09 L3209.58 1592.09 L3209.58 1590.86 L3215.89 1590.86 L3215.89 1590.48 L3241.26 1590.48 L3241.26 1589.99 L3247.57 1589.99 L3247.57 1588.75 L3253.88 1588.75 L3253.88 1587.14 L3260.32 1587.14 L3260.32 1586.65 L3266.63 1586.65 L3266.63 1584.54 L3279.25 1584.54 L3279.25 1583.31 L3285.56 1583.31 L3285.56 1582.94 L3292.00 1582.94 L3292.00 1581.57 L3298.31 1581.57 L3298.31 1581.20 L3304.62 1581.20 L3304.62 1580.34 L3310.93 1580.34 L3310.93 1579.10 L3317.24 1579.10 L3317.24 1579.10 L3323.55 1579.10 L3323.55 1578.23 L3329.99 1578.23 L3329.99 1577.86 L3336.30 1577.86 L3336.30 1577.37 L3342.61 1577.37 L3342.61 1577.00 L3355.23 1577.00 L3355.23 1576.13 L3374.29 1576.13 L3374.29 1574.89 L3386.91 1574.89 L3386.91 1574.89 L3393.35 1574.89 L3393.35 1574.89 L3399.66 1574.89 L3399.66 1574.89 L3412.28 1574.89 L3412.28 1574.03 L3418.59 1574.03 L3418.59 1573.65 L3424.91 1573.65 L3424.91 1572.79 L3431.34 1572.79 L3431.34 1572.29 L3437.65 1572.29 L3437.65 1572.29 L3450.27 1572.29 L3450.27 1571.55 L3456.59 1571.55 L3456.59 1571.55 L3463.02 1571.55 L3463.02 1571.06 L3469.33 1571.06 L3469.33 1571.06 L3507.32 1571.06 L3507.32 1571.06 L3513.63 1571.06 L3513.63 1570.68 L3519.95 1570.68 L3519.95 1569.82 L3532.69 1569.82 L3532.69 1569.82 L3551.63 1569.82 L3551.63 1569.82 L3595.93 1569.82 L3595.93 1569.82 L3602.36 1569.82 L3602.36 1569.45 L3621.30 1569.45 L3621.30 1569.45 L3634.04 1569.45 L3634.04 1569.45 L3672.03 1569.45 L3672.03 1569.45" stroke-linejoin="round" style="fill:none;stroke:#6E8E84;stroke-width:6.48"/>
	<line x1="2459.04" y1="1873.51" x2="2459.04" y2="414.45" style="stroke:#000000;stroke-width:4.32"/>
	<line x1="2459.04" y1="1825.99" x2="2429.09" y2="1825.99" style="stroke:#000000;stroke-width:4.32"/>
	<text x="2413.99" y="1852.27" style="font-family:'Helvetica';font-size:74.99px;fill:#000000" text-anchor="end">0.000</text>
	<line x1="2459.04" y1="1280.36" x2="2429.09" y2="1280.36" style="stroke:#000000;stroke-width:4.32"/>
	<text x="2413.99" y="1306.64" style="font-family:'Helvetica';font-size:74.99px;fill:#000000" text-anchor="end">0.002</text>
	<line x1="2459.04" y1="734.73" x2="2429.09" y2="734.73" style="stroke:#000000;stroke-width:4.32"/>
	<text x="2413.99" y="761.01" style="font-family:'Helvetica';font-size:74.99px;fill:#000000" text-anchor="end">0.004</text>
	<line x1="2459.04" y1="1873.51" x2="3820.91" y2="1873.51" style="stroke:#000000;stroke-width:4.32"/>
	<line x1="2506.56" y1="1873.51" x2="2506.56" y2="1903.46" style="stroke:#000000;stroke-width:4.32"/>
	<text x="2506.56" y="1970.87" style="font-family:'Helvetica';font-size:74.99px;fill:#000000" text-anchor="middle">1 Feb 20</text>
	<line x1="2690.20" y1="1873.51" x2="2690.20" y2="1903.46" style="stroke:#000000;stroke-width:4.32"/>
	<text x="2690.20" y="1970.87" style="font-family:'Helvetica';font-size:74.99px;fill:#000000" text-anchor="middle">1 Mar 20</text>
	<line x1="2886.59" y1="1873.51" x2="2886.59" y2="1903.46" style="stroke:#000000;stroke-width:4.32"/>
	<text x="2886.59" y="1970.87" style="font-family:'Helvetica';font-size:74.99px;fill:#000000" text-anchor="middle">1 Apr 20</text>
	<line x1="3082.98" y1="1873.51" x2="3082.98" y2="1903.46" style="stroke:#000000;stroke-width:4.32"/>
	<text x="3082.98" y="1970.87" style="font-family:'Helvetica';font-size:74.99px;fill:#000000" text-anchor="middle">1 May 20</text>
	<line x1="3272.94" y1="1873.51" x2="3272.94" y2="1903.46" style="stroke:#000000;stroke-width:4.32"/>
	<text x="3272.94" y="1970.87" style="font-family:'Helvetica';font-size:74.99px;fill:#000000" text-anchor="middle">1 June 20</text>
	<line x1="3463.02" y1="1873.51" x2="3463.02" y2="1903.46" style="stroke:#000000;stroke-width:4.32"/>
	<text x="3463.02" y="1970.87" style="font-family:'Helvetica';font-size:74.99px;fill:#000000" text-anchor="middle">1 July 20</text>
	<line x1="3659.41" y1="1873.51" x2="3659.41" y2="1903.46" style="stroke:#000000;stroke-width:4.32"/>
	<text x="3659.41" y="1970.87" style="font-family:'Helvetica';font-size:74.99px;fill:#000000" text-anchor="middle">1 Aug 20</text>
	<text x="3140.03" y="2053.41" style="font-family:'Helvetica';font-size:74.99px;fill:#000000" text-anchor="middle"> </text>
	<text x="3140.03" y="369.91" style="font-family:'Helvetica';font-size:104.94px;fill:#1E2D53" text-anchor="middle">Male</text>
	<text x="150.62" y="1187.29" style="font-family:'Helvetica';font-size:99.99px;fill:#000000" transform="rotate(-90 150.62,1187.29)" text-anchor="middle">Cumulative probability</text>
	<text x="250.61" y="1187.29" style="font-family:'Helvetica';font-size:99.99px;fill:#000000" transform="rotate(-90 250.61,1187.29)" text-anchor="middle">of COVID-19 death</text>
	<text x="2097.19" y="157.51" style="font-family:'Helvetica';font-size:110.01px;fill:#000000" text-anchor="middle"> </text>
	<rect x="1114.86" y="2201.21" width="1964.66" height="580.90" style="fill:#FFFFFF"/>
	<rect x="1117.74" y="2204.09" width="1958.90" height="575.14" style="fill:none;stroke:#000000;stroke-width:5.76"/>
	<line x1="1158.05" y1="2408.87" x2="1532.52" y2="2408.87" style="stroke:#1A476F;stroke-width:8.64"/>
	<line x1="1158.05" y1="2548.83" x2="1532.52" y2="2548.83" style="stroke:#90353B;stroke-width:8.64"/>
	<line x1="1158.05" y1="2688.92" x2="1532.52" y2="2688.92" style="stroke:#55752F;stroke-width:8.64"/>
	<line x1="1996.09" y1="2408.87" x2="2370.43" y2="2408.87" style="stroke:#E37E00;stroke-width:8.64"/>
	<line x1="1996.09" y1="2548.83" x2="2370.43" y2="2548.83" style="stroke:#6E8E84;stroke-width:8.64"/>
	<text x="1592.54" y="2436.88" style="font-family:'Helvetica';font-size:79.94px;fill:#000000">18-&lt;30</text>
	<text x="1592.54" y="2576.85" style="font-family:'Helvetica';font-size:79.94px;fill:#000000">30-&lt;40</text>
	<text x="1592.54" y="2716.94" style="font-family:'Helvetica';font-size:79.94px;fill:#000000">40-&lt;50</text>
	<text x="2430.45" y="2436.88" style="font-family:'Helvetica';font-size:79.94px;fill:#000000">50-&lt;60</text>
	<text x="2430.45" y="2576.85" style="font-family:'Helvetica';font-size:79.94px;fill:#000000">60-&lt;70</text>
	<text x="2430.45" y="2716.94" style="font-family:'Helvetica';font-size:79.94px;fill:#000000">70-&lt;80</text>
	<text x="2894.02" y="2436.88" style="font-family:'Helvetica';font-size:79.94px;fill:#000000">80+</text>
	<text x="2097.19" y="2308.96" style="font-family:'Helvetica';font-size:79.94px;fill:#000000" text-anchor="middle">Age group</text>
</svg>
