<?xml version="1.0" encoding="UTF-8" standalone="no"?>
<!-- This is a Stata 16.1 generated SVG file (http://www.stata.com) -->

<svg version="1.1" width="5.50in" height="4.00in" viewBox="0 0 3960 2880" xmlns="http://www.w3.org/2000/svg" xmlns:xlink="http://www.w3.org/1999/xlink">
	<desc>Stata Graph - Graph</desc>
	<rect x="0" y="0" width="3960" height="2880" style="fill:#EAF2F3;stroke:none"/>
	<rect x="0.00" y="0.00" width="3959.88" height="2880.00" style="fill:#EAF2F3"/>
	<rect x="2.88" y="2.88" width="3954.12" height="2874.24" style="fill:none;stroke:#EAF2F3;stroke-width:5.76"/>
	<rect x="297.87" y="207.91" width="1799.32" height="2098.62" style="fill:#EAF2F3"/>
	<rect x="300.03" y="210.07" width="1795.01" height="2094.30" style="fill:none;stroke:#EAF2F3;stroke-width:4.32"/>
	<rect x="659.71" y="414.45" width="1361.87" height="1599.02" style="fill:#FFFFFF"/>
	<rect x="661.87" y="416.61" width="1357.55" height="1594.70" style="fill:none;stroke:#FFFFFF;stroke-width:4.32"/>
	<line x1="659.71" y1="1965.95" x2="2021.58" y2="1965.95" style="stroke:#EAF2F3;stroke-width:6.48"/>
	<line x1="659.71" y1="1665.11" x2="2021.58" y2="1665.11" style="stroke:#EAF2F3;stroke-width:6.48"/>
	<line x1="659.71" y1="1364.39" x2="2021.58" y2="1364.39" style="stroke:#EAF2F3;stroke-width:6.48"/>
	<line x1="659.71" y1="1063.54" x2="2021.58" y2="1063.54" style="stroke:#EAF2F3;stroke-width:6.48"/>
	<line x1="659.71" y1="762.82" x2="2021.58" y2="762.82" style="stroke:#EAF2F3;stroke-width:6.48"/>
	<line x1="659.71" y1="461.97" x2="2021.58" y2="461.97" style="stroke:#EAF2F3;stroke-width:6.48"/>
	<path d=" M755.74 1959.27 L853.01 1959.27 L853.01 1953.83 L960.55 1953.83 L960.55 1948.88 L1064.74 1948.88 L1064.74 1942.44 L1172.28 1942.44 L1172.28 1936.62 L1276.36 1936.62 L1276.36 1929.32 L1384.02 1929.32 L1384.02 1923.88 L1491.56 1923.88 L1491.56 1916.95 L1595.76 1916.95 L1595.76 1911.13 L1703.30 1911.13 L1703.30 1905.69 L1807.49 1905.69 L1807.49 1902.22 L1915.03 1902.22 L1915.03 1896.40 L1974.06 1896.40 L1974.06 1896.40" stroke-linejoin="round" style="fill:none;stroke:#FF0000;stroke-width:6.48"/>
	<path d=" M755.74 1958.16 L853.01 1958.16 L853.01 1950.98 L960.55 1950.98 L960.55 1943.31 L1064.74 1943.31 L1064.74 1938.23 L1172.28 1938.23 L1172.28 1931.18 L1276.36 1931.18 L1276.36 1924.99 L1384.02 1924.99 L1384.02 1919.55 L1491.56 1919.55 L1491.56 1910.14 L1595.76 1910.14 L1595.76 1900.74 L1703.30 1900.74 L1703.30 1894.80 L1807.49 1894.80 L1807.49 1888.24 L1915.03 1888.24 L1915.03 1883.16 L1974.06 1883.16 L1974.06 1883.16" stroke-linejoin="round" style="fill:none;stroke:#0000FF;stroke-width:6.48"/>
	<line x1="755.74" y1="1962.86" x2="813.28" y2="1962.86" style="stroke:#FF7F00;stroke-width:6.48"/>
	<line x1="842.12" y1="1962.86" x2="853.01" y2="1962.86" style="stroke:#FF7F00;stroke-width:6.48"/>
	<line x1="853.01" y1="1962.86" x2="853.01" y2="1958.40" style="stroke:#FF7F00;stroke-width:6.48"/>
	<line x1="853.01" y1="1958.40" x2="895.21" y2="1958.40" style="stroke:#FF7F00;stroke-width:6.48"/>
	<line x1="924.04" y1="1958.40" x2="960.55" y2="1958.40" style="stroke:#FF7F00;stroke-width:6.48"/>
	<line x1="960.55" y1="1958.40" x2="960.55" y2="1955.81" style="stroke:#FF7F00;stroke-width:6.48"/>
	<line x1="960.55" y1="1955.81" x2="979.11" y2="1955.81" style="stroke:#FF7F00;stroke-width:6.48"/>
	<line x1="1007.94" y1="1955.81" x2="1064.74" y2="1955.81" style="stroke:#FF7F00;stroke-width:6.48"/>
	<line x1="1064.74" y1="1955.81" x2="1064.74" y2="1955.06" style="stroke:#FF7F00;stroke-width:6.48"/>
	<line x1="1091.10" y1="1952.59" x2="1148.65" y2="1952.59" style="stroke:#FF7F00;stroke-width:6.48"/>
	<line x1="1174.02" y1="1949.12" x2="1231.56" y2="1949.12" style="stroke:#FF7F00;stroke-width:6.48"/>
	<line x1="1260.39" y1="1949.12" x2="1276.36" y2="1949.12" style="stroke:#FF7F00;stroke-width:6.48"/>
	<line x1="1276.36" y1="1949.12" x2="1276.36" y2="1946.77" style="stroke:#FF7F00;stroke-width:6.48"/>
	<line x1="1276.36" y1="1946.77" x2="1315.59" y2="1946.77" style="stroke:#FF7F00;stroke-width:6.48"/>
	<line x1="1344.42" y1="1946.77" x2="1384.02" y2="1946.77" style="stroke:#FF7F00;stroke-width:6.48"/>
	<line x1="1384.02" y1="1946.77" x2="1384.02" y2="1943.06" style="stroke:#FF7F00;stroke-width:6.48"/>
	<line x1="1384.02" y1="1943.06" x2="1398.25" y2="1943.06" style="stroke:#FF7F00;stroke-width:6.48"/>
	<line x1="1427.09" y1="1943.06" x2="1484.63" y2="1943.06" style="stroke:#FF7F00;stroke-width:6.48"/>
	<line x1="1509.26" y1="1938.85" x2="1566.80" y2="1938.85" style="stroke:#FF7F00;stroke-width:6.48"/>
	<line x1="1595.63" y1="1938.85" x2="1595.76" y2="1938.85" style="stroke:#FF7F00;stroke-width:6.48"/>
	<line x1="1595.76" y1="1938.85" x2="1595.76" y2="1935.51" style="stroke:#FF7F00;stroke-width:6.48"/>
	<line x1="1595.76" y1="1935.51" x2="1649.84" y2="1935.51" style="stroke:#FF7F00;stroke-width:6.48"/>
	<line x1="1678.67" y1="1935.51" x2="1703.30" y2="1935.51" style="stroke:#FF7F00;stroke-width:6.48"/>
	<line x1="1703.30" y1="1935.51" x2="1703.30" y2="1932.29" style="stroke:#FF7F00;stroke-width:6.48"/>
	<line x1="1703.30" y1="1932.29" x2="1733.12" y2="1932.29" style="stroke:#FF7F00;stroke-width:6.48"/>
	<line x1="1761.95" y1="1932.29" x2="1807.49" y2="1932.29" style="stroke:#FF7F00;stroke-width:6.48"/>
	<line x1="1807.49" y1="1932.29" x2="1807.49" y2="1930.56" style="stroke:#FF7F00;stroke-width:6.48"/>
	<line x1="1807.49" y1="1930.56" x2="1817.64" y2="1930.56" style="stroke:#FF7F00;stroke-width:6.48"/>
	<line x1="1846.47" y1="1930.56" x2="1904.14" y2="1930.56" style="stroke:#FF7F00;stroke-width:6.48"/>
	<line x1="1929.51" y1="1927.22" x2="1974.06" y2="1927.22" style="stroke:#FF7F00;stroke-width:6.48"/>
	<line x1="1974.06" y1="1927.22" x2="1974.06" y2="1927.22" style="stroke:#FF7F00;stroke-width:6.48"/>
	<path d="" stroke-linejoin="round" style="fill:none;stroke:#FF7F00;stroke-width:6.48"/>
	<line x1="755.74" y1="1964.59" x2="813.28" y2="1964.59" style="stroke:#008000;stroke-width:6.48"/>
	<line x1="842.12" y1="1964.59" x2="853.01" y2="1964.59" style="stroke:#008000;stroke-width:6.48"/>
	<line x1="853.01" y1="1964.59" x2="853.01" y2="1962.61" style="stroke:#008000;stroke-width:6.48"/>
	<line x1="853.01" y1="1962.61" x2="897.68" y2="1962.61" style="stroke:#008000;stroke-width:6.48"/>
	<line x1="926.52" y1="1962.61" x2="960.55" y2="1962.61" style="stroke:#008000;stroke-width:6.48"/>
	<line x1="960.55" y1="1962.61" x2="960.55" y2="1959.77" style="stroke:#008000;stroke-width:6.48"/>
	<line x1="960.55" y1="1959.77" x2="981.34" y2="1959.77" style="stroke:#008000;stroke-width:6.48"/>
	<line x1="1010.05" y1="1959.77" x2="1064.74" y2="1959.77" style="stroke:#008000;stroke-width:6.48"/>
	<line x1="1064.74" y1="1959.77" x2="1064.74" y2="1957.66" style="stroke:#008000;stroke-width:6.48"/>
	<line x1="1064.74" y1="1957.66" x2="1065.49" y2="1957.66" style="stroke:#008000;stroke-width:6.48"/>
	<line x1="1094.32" y1="1957.66" x2="1151.99" y2="1957.66" style="stroke:#008000;stroke-width:6.48"/>
	<line x1="1178.60" y1="1955.43" x2="1236.14" y2="1955.43" style="stroke:#008000;stroke-width:6.48"/>
	<line x1="1264.97" y1="1955.43" x2="1276.36" y2="1955.43" style="stroke:#008000;stroke-width:6.48"/>
	<line x1="1276.36" y1="1955.43" x2="1276.36" y2="1952.84" style="stroke:#008000;stroke-width:6.48"/>
	<line x1="1276.36" y1="1952.84" x2="1319.92" y2="1952.84" style="stroke:#008000;stroke-width:6.48"/>
	<line x1="1348.75" y1="1952.84" x2="1384.02" y2="1952.84" style="stroke:#008000;stroke-width:6.48"/>
	<line x1="1384.02" y1="1952.84" x2="1384.02" y2="1950.98" style="stroke:#008000;stroke-width:6.48"/>
	<line x1="1384.02" y1="1950.98" x2="1404.44" y2="1950.98" style="stroke:#008000;stroke-width:6.48"/>
	<line x1="1433.27" y1="1950.98" x2="1490.82" y2="1950.98" style="stroke:#008000;stroke-width:6.48"/>
	<line x1="1517.55" y1="1948.88" x2="1575.09" y2="1948.88" style="stroke:#008000;stroke-width:6.48"/>
	<line x1="1602.56" y1="1947.51" x2="1660.11" y2="1947.51" style="stroke:#008000;stroke-width:6.48"/>
	<line x1="1688.94" y1="1947.51" x2="1703.30" y2="1947.51" style="stroke:#008000;stroke-width:6.48"/>
	<line x1="1703.30" y1="1947.51" x2="1703.30" y2="1945.41" style="stroke:#008000;stroke-width:6.48"/>
	<line x1="1703.30" y1="1945.41" x2="1744.38" y2="1945.41" style="stroke:#008000;stroke-width:6.48"/>
	<line x1="1773.21" y1="1945.41" x2="1807.49" y2="1945.41" style="stroke:#008000;stroke-width:6.48"/>
	<line x1="1807.49" y1="1945.41" x2="1807.49" y2="1944.54" style="stroke:#008000;stroke-width:6.48"/>
	<line x1="1807.49" y1="1944.54" x2="1829.89" y2="1944.54" style="stroke:#008000;stroke-width:6.48"/>
	<line x1="1858.72" y1="1944.54" x2="1915.03" y2="1944.54" style="stroke:#008000;stroke-width:6.48"/>
	<line x1="1915.03" y1="1944.54" x2="1915.03" y2="1943.31" style="stroke:#008000;stroke-width:6.48"/>
	<line x1="1942.50" y1="1941.95" x2="1974.06" y2="1941.95" style="stroke:#008000;stroke-width:6.48"/>
	<line x1="1974.06" y1="1941.95" x2="1974.06" y2="1941.95" style="stroke:#008000;stroke-width:6.48"/>
	<path d="" stroke-linejoin="round" style="fill:none;stroke:#008000;stroke-width:6.48"/>
	<line x1="755.74" y1="1963.73" x2="813.28" y2="1963.73" style="stroke:#FF0080;stroke-width:6.48"/>
	<line x1="839.27" y1="1963.73" x2="842.12" y2="1963.73" style="stroke:#FF0080;stroke-width:6.48"/>
	<line x1="866.99" y1="1962.61" x2="924.54" y2="1962.61" style="stroke:#FF0080;stroke-width:6.48"/>
	<line x1="950.40" y1="1962.61" x2="953.37" y2="1962.61" style="stroke:#FF0080;stroke-width:6.48"/>
	<line x1="978.49" y1="1961.87" x2="1036.16" y2="1961.87" style="stroke:#FF0080;stroke-width:6.48"/>
	<line x1="1062.02" y1="1961.87" x2="1064.74" y2="1961.87" style="stroke:#FF0080;stroke-width:6.48"/>
	<line x1="1064.74" y1="1961.87" x2="1064.74" y2="1961.62" style="stroke:#FF0080;stroke-width:6.48"/>
	<line x1="1089.00" y1="1959.89" x2="1146.54" y2="1959.89" style="stroke:#FF0080;stroke-width:6.48"/>
	<line x1="1172.28" y1="1959.77" x2="1172.28" y2="1958.78" style="stroke:#FF0080;stroke-width:6.48"/>
	<line x1="1172.28" y1="1958.78" x2="1174.14" y2="1958.78" style="stroke:#FF0080;stroke-width:6.48"/>
	<line x1="1200.13" y1="1958.78" x2="1257.67" y2="1958.78" style="stroke:#FF0080;stroke-width:6.48"/>
	<line x1="1282.17" y1="1957.29" x2="1285.02" y2="1957.29" style="stroke:#FF0080;stroke-width:6.48"/>
	<line x1="1311.01" y1="1957.29" x2="1368.55" y2="1957.29" style="stroke:#FF0080;stroke-width:6.48"/>
	<line x1="1394.29" y1="1957.04" x2="1397.14" y2="1957.04" style="stroke:#FF0080;stroke-width:6.48"/>
	<line x1="1423.13" y1="1957.04" x2="1480.67" y2="1957.04" style="stroke:#FF0080;stroke-width:6.48"/>
	<line x1="1505.54" y1="1955.93" x2="1508.39" y2="1955.93" style="stroke:#FF0080;stroke-width:6.48"/>
	<line x1="1534.38" y1="1955.93" x2="1591.92" y2="1955.93" style="stroke:#FF0080;stroke-width:6.48"/>
	<line x1="1615.68" y1="1953.70" x2="1618.53" y2="1953.70" style="stroke:#FF0080;stroke-width:6.48"/>
	<line x1="1644.39" y1="1953.70" x2="1702.06" y2="1953.70" style="stroke:#FF0080;stroke-width:6.48"/>
	<line x1="1725.32" y1="1951.10" x2="1728.17" y2="1951.10" style="stroke:#FF0080;stroke-width:6.48"/>
	<line x1="1754.16" y1="1951.10" x2="1807.49" y2="1951.10" style="stroke:#FF0080;stroke-width:6.48"/>
	<line x1="1807.49" y1="1951.10" x2="1807.49" y2="1950.36" style="stroke:#FF0080;stroke-width:6.48"/>
	<line x1="1807.49" y1="1950.36" x2="1810.96" y2="1950.36" style="stroke:#FF0080;stroke-width:6.48"/>
	<line x1="1836.94" y1="1950.36" x2="1839.79" y2="1950.36" style="stroke:#FF0080;stroke-width:6.48"/>
	<line x1="1865.78" y1="1950.36" x2="1915.03" y2="1950.36" style="stroke:#FF0080;stroke-width:6.48"/>
	<line x1="1915.03" y1="1950.36" x2="1915.03" y2="1949.49" style="stroke:#FF0080;stroke-width:6.48"/>
	<line x1="1915.03" y1="1949.49" x2="1922.46" y2="1949.49" style="stroke:#FF0080;stroke-width:6.48"/>
	<line x1="1948.44" y1="1949.49" x2="1951.29" y2="1949.49" style="stroke:#FF0080;stroke-width:6.48"/>
	<path d="" stroke-linejoin="round" style="fill:none;stroke:#FF0080;stroke-width:6.48"/>
	<line x1="755.74" y1="1964.96" x2="813.28" y2="1964.96" style="stroke:#A0522D;stroke-width:6.48"/>
	<line x1="839.27" y1="1964.96" x2="842.12" y2="1964.96" style="stroke:#A0522D;stroke-width:6.48"/>
	<line x1="866.75" y1="1963.60" x2="924.29" y2="1963.60" style="stroke:#A0522D;stroke-width:6.48"/>
	<line x1="950.28" y1="1963.60" x2="953.12" y2="1963.60" style="stroke:#A0522D;stroke-width:6.48"/>
	<line x1="978.62" y1="1963.23" x2="1036.28" y2="1963.23" style="stroke:#A0522D;stroke-width:6.48"/>
	<line x1="1062.15" y1="1963.23" x2="1064.74" y2="1963.23" style="stroke:#A0522D;stroke-width:6.48"/>
	<line x1="1064.74" y1="1963.23" x2="1064.74" y2="1962.86" style="stroke:#A0522D;stroke-width:6.48"/>
	<line x1="1089.00" y1="1961.25" x2="1146.67" y2="1961.25" style="stroke:#A0522D;stroke-width:6.48"/>
	<line x1="1172.28" y1="1961.00" x2="1172.28" y2="1960.14" style="stroke:#A0522D;stroke-width:6.48"/>
	<line x1="1172.28" y1="1960.14" x2="1174.39" y2="1960.14" style="stroke:#A0522D;stroke-width:6.48"/>
	<line x1="1200.25" y1="1960.14" x2="1257.92" y2="1960.14" style="stroke:#A0522D;stroke-width:6.48"/>
	<line x1="1281.68" y1="1958.03" x2="1284.53" y2="1958.03" style="stroke:#A0522D;stroke-width:6.48"/>
	<line x1="1310.51" y1="1958.03" x2="1368.06" y2="1958.03" style="stroke:#A0522D;stroke-width:6.48"/>
	<line x1="1393.42" y1="1957.41" x2="1396.27" y2="1957.41" style="stroke:#A0522D;stroke-width:6.48"/>
	<line x1="1422.26" y1="1957.41" x2="1479.80" y2="1957.41" style="stroke:#A0522D;stroke-width:6.48"/>
	<line x1="1504.06" y1="1955.68" x2="1506.90" y2="1955.68" style="stroke:#A0522D;stroke-width:6.48"/>
	<line x1="1532.89" y1="1955.68" x2="1590.43" y2="1955.68" style="stroke:#A0522D;stroke-width:6.48"/>
	<line x1="1614.69" y1="1953.95" x2="1617.54" y2="1953.95" style="stroke:#A0522D;stroke-width:6.48"/>
	<line x1="1643.40" y1="1953.95" x2="1701.07" y2="1953.95" style="stroke:#A0522D;stroke-width:6.48"/>
	<line x1="1724.95" y1="1951.85" x2="1727.80" y2="1951.85" style="stroke:#A0522D;stroke-width:6.48"/>
	<line x1="1753.79" y1="1951.85" x2="1807.49" y2="1951.85" style="stroke:#A0522D;stroke-width:6.48"/>
	<line x1="1807.49" y1="1951.85" x2="1807.49" y2="1950.86" style="stroke:#A0522D;stroke-width:6.48"/>
	<line x1="1807.49" y1="1950.86" x2="1810.21" y2="1950.86" style="stroke:#A0522D;stroke-width:6.48"/>
	<line x1="1836.20" y1="1950.86" x2="1839.05" y2="1950.86" style="stroke:#A0522D;stroke-width:6.48"/>
	<line x1="1865.04" y1="1950.86" x2="1915.03" y2="1950.86" style="stroke:#A0522D;stroke-width:6.48"/>
	<line x1="1915.03" y1="1950.86" x2="1915.03" y2="1948.75" style="stroke:#A0522D;stroke-width:6.48"/>
	<line x1="1915.03" y1="1948.75" x2="1920.60" y2="1948.75" style="stroke:#A0522D;stroke-width:6.48"/>
	<line x1="1946.46" y1="1948.75" x2="1949.31" y2="1948.75" style="stroke:#A0522D;stroke-width:6.48"/>
	<path d="" stroke-linejoin="round" style="fill:none;stroke:#A0522D;stroke-width:6.48"/>
	<path d=" M755.74 1965.46 L1064.74 1965.46 L1064.74 1962.98 L1172.28 1962.98 L1172.28 1962.49 L1276.36 1962.49 L1276.36 1961.87 L1384.02 1961.87 L1384.02 1961.25 L1491.56 1961.25 L1491.56 1958.90 L1595.76 1958.90 L1595.76 1957.66 L1703.30 1957.66 L1703.30 1955.93 L1974.06 1955.93 L1974.06 1955.93" stroke-linejoin="round" style="fill:none;stroke:#938DD2;stroke-width:6.48"/>
	<line x1="659.71" y1="2013.48" x2="659.71" y2="414.45" style="stroke:#000000;stroke-width:4.32"/>
	<line x1="659.71" y1="1965.95" x2="629.76" y2="1965.95" style="stroke:#000000;stroke-width:4.32"/>
	<text x="614.79" y="1992.23" style="font-family:'Helvetica';font-size:74.99px;fill:#000000" text-anchor="end">0.000</text>
	<line x1="659.71" y1="1665.11" x2="629.76" y2="1665.11" style="stroke:#000000;stroke-width:4.32"/>
	<text x="614.79" y="1691.39" style="font-family:'Helvetica';font-size:74.99px;fill:#000000" text-anchor="end">0.001</text>
	<line x1="659.71" y1="1364.39" x2="629.76" y2="1364.39" style="stroke:#000000;stroke-width:4.32"/>
	<text x="614.79" y="1390.67" style="font-family:'Helvetica';font-size:74.99px;fill:#000000" text-anchor="end">0.002</text>
	<line x1="659.71" y1="1063.54" x2="629.76" y2="1063.54" style="stroke:#000000;stroke-width:4.32"/>
	<text x="614.79" y="1089.82" style="font-family:'Helvetica';font-size:74.99px;fill:#000000" text-anchor="end">0.003</text>
	<line x1="659.71" y1="762.82" x2="629.76" y2="762.82" style="stroke:#000000;stroke-width:4.32"/>
	<text x="614.79" y="789.10" style="font-family:'Helvetica';font-size:74.99px;fill:#000000" text-anchor="end">0.004</text>
	<line x1="659.71" y1="461.97" x2="629.76" y2="461.97" style="stroke:#000000;stroke-width:4.32"/>
	<text x="614.79" y="488.25" style="font-family:'Helvetica';font-size:74.99px;fill:#000000" text-anchor="end">0.005</text>
	<line x1="659.71" y1="2013.48" x2="2021.58" y2="2013.48" style="stroke:#000000;stroke-width:4.32"/>
	<line x1="707.23" y1="2013.48" x2="707.23" y2="2043.55" style="stroke:#000000;stroke-width:4.32"/>
	<text x="707.23" y="2110.96" style="font-family:'Helvetica';font-size:74.99px;fill:#000000" text-anchor="middle">1 Feb 20</text>
	<line x1="807.96" y1="2013.48" x2="807.96" y2="2043.55" style="stroke:#000000;stroke-width:4.32"/>
	<text x="807.96" y="2110.96" style="font-family:'Helvetica';font-size:74.99px;fill:#000000" text-anchor="middle">1 Mar 20</text>
	<line x1="915.50" y1="2013.48" x2="915.50" y2="2043.55" style="stroke:#000000;stroke-width:4.32"/>
	<text x="915.50" y="2110.96" style="font-family:'Helvetica';font-size:74.99px;fill:#000000" text-anchor="middle">1 Apr 20</text>
	<line x1="998.79" y1="2013.48" x2="998.79" y2="2043.55" style="stroke:#000000;stroke-width:4.32"/>
	<text x="998.79" y="2110.96" style="font-family:'Helvetica';font-size:74.99px;fill:#000000" text-anchor="middle">25 Apr 20</text>
	<text x="1340.71" y="2193.38" style="font-family:'Helvetica';font-size:74.99px;fill:#000000" text-anchor="middle"> </text>
	<text x="1340.71" y="369.91" style="font-family:'Helvetica';font-size:104.94px;fill:#1E2D53" text-anchor="middle">Female</text>
	<rect x="2097.19" y="207.91" width="1799.33" height="2098.62" style="fill:#EAF2F3"/>
	<rect x="2099.35" y="210.07" width="1795.01" height="2094.30" style="fill:none;stroke:#EAF2F3;stroke-width:4.32"/>
	<rect x="2459.04" y="414.45" width="1361.87" height="1599.02" style="fill:#FFFFFF"/>
	<rect x="2461.20" y="416.61" width="1357.55" height="1594.70" style="fill:none;stroke:#FFFFFF;stroke-width:4.32"/>
	<line x1="2459.04" y1="1965.95" x2="3820.91" y2="1965.95" style="stroke:#EAF2F3;stroke-width:6.48"/>
	<line x1="2459.04" y1="1665.11" x2="3820.91" y2="1665.11" style="stroke:#EAF2F3;stroke-width:6.48"/>
	<line x1="2459.04" y1="1364.39" x2="3820.91" y2="1364.39" style="stroke:#EAF2F3;stroke-width:6.48"/>
	<line x1="2459.04" y1="1063.54" x2="3820.91" y2="1063.54" style="stroke:#EAF2F3;stroke-width:6.48"/>
	<line x1="2459.04" y1="762.82" x2="3820.91" y2="762.82" style="stroke:#EAF2F3;stroke-width:6.48"/>
	<line x1="2459.04" y1="461.97" x2="3820.91" y2="461.97" style="stroke:#EAF2F3;stroke-width:6.48"/>
	<path d=" M2555.07 1963.23 L2652.33 1963.23 L2652.33 1960.26 L2759.87 1960.26 L2759.87 1958.40 L2863.95 1958.40 L2863.95 1956.42 L2971.61 1956.42 L2971.61 1953.33 L3075.68 1953.33 L3075.68 1950.61 L3183.34 1950.61 L3183.34 1946.40 L3290.88 1946.40 L3290.88 1942.94 L3395.08 1942.94 L3395.08 1939.72 L3502.62 1939.72 L3502.62 1936.25 L3606.69 1936.25 L3606.69 1934.15 L3714.36 1934.15 L3714.36 1931.30 L3773.39 1931.30 L3773.39 1931.30" stroke-linejoin="round" style="fill:none;stroke:#FF0000;stroke-width:6.48"/>
	<path d=" M2555.07 1964.10 L2652.33 1964.10 L2652.33 1961.25 L2759.87 1961.25 L2759.87 1958.03 L2863.95 1958.03 L2863.95 1954.94 L2971.61 1954.94 L2971.61 1952.96 L3075.68 1952.96 L3075.68 1951.35 L3183.34 1951.35 L3183.34 1948.75 L3290.88 1948.75 L3290.88 1945.41 L3395.08 1945.41 L3395.08 1942.44 L3502.62 1942.44 L3502.62 1941.20 L3606.69 1941.20 L3606.69 1939.35 L3714.36 1939.35 L3714.36 1935.39 L3773.39 1935.39 L3773.39 1935.39" stroke-linejoin="round" style="fill:none;stroke:#0000FF;stroke-width:6.48"/>
	<line x1="2555.07" y1="1963.48" x2="2612.61" y2="1963.48" style="stroke:#FF7F00;stroke-width:6.48"/>
	<line x1="2641.44" y1="1963.48" x2="2652.33" y2="1963.48" style="stroke:#FF7F00;stroke-width:6.48"/>
	<line x1="2652.33" y1="1963.48" x2="2652.33" y2="1961.38" style="stroke:#FF7F00;stroke-width:6.48"/>
	<line x1="2652.33" y1="1961.38" x2="2696.88" y2="1961.38" style="stroke:#FF7F00;stroke-width:6.48"/>
	<line x1="2725.72" y1="1961.38" x2="2759.87" y2="1961.38" style="stroke:#FF7F00;stroke-width:6.48"/>
	<line x1="2759.87" y1="1961.38" x2="2759.87" y2="1958.40" style="stroke:#FF7F00;stroke-width:6.48"/>
	<line x1="2759.87" y1="1958.40" x2="2780.29" y2="1958.40" style="stroke:#FF7F00;stroke-width:6.48"/>
	<line x1="2809.13" y1="1958.40" x2="2863.95" y2="1958.40" style="stroke:#FF7F00;stroke-width:6.48"/>
	<line x1="2863.95" y1="1958.40" x2="2863.95" y2="1956.55" style="stroke:#FF7F00;stroke-width:6.48"/>
	<line x1="2863.95" y1="1956.55" x2="2864.81" y2="1956.55" style="stroke:#FF7F00;stroke-width:6.48"/>
	<line x1="2893.65" y1="1956.55" x2="2951.19" y2="1956.55" style="stroke:#FF7F00;stroke-width:6.48"/>
	<line x1="2978.04" y1="1954.57" x2="3035.59" y2="1954.57" style="stroke:#FF7F00;stroke-width:6.48"/>
	<line x1="3064.42" y1="1954.57" x2="3075.68" y2="1954.57" style="stroke:#FF7F00;stroke-width:6.48"/>
	<line x1="3075.68" y1="1954.57" x2="3075.68" y2="1952.96" style="stroke:#FF7F00;stroke-width:6.48"/>
	<line x1="3075.68" y1="1952.96" x2="3120.48" y2="1952.96" style="stroke:#FF7F00;stroke-width:6.48"/>
	<line x1="3149.19" y1="1952.96" x2="3183.34" y2="1952.96" style="stroke:#FF7F00;stroke-width:6.48"/>
	<line x1="3183.34" y1="1952.96" x2="3183.34" y2="1950.61" style="stroke:#FF7F00;stroke-width:6.48"/>
	<line x1="3183.34" y1="1950.61" x2="3204.38" y2="1950.61" style="stroke:#FF7F00;stroke-width:6.48"/>
	<line x1="3233.22" y1="1950.61" x2="3290.76" y2="1950.61" style="stroke:#FF7F00;stroke-width:6.48"/>
	<line x1="3317.49" y1="1948.38" x2="3375.03" y2="1948.38" style="stroke:#FF7F00;stroke-width:6.48"/>
	<line x1="3401.27" y1="1945.78" x2="3458.81" y2="1945.78" style="stroke:#FF7F00;stroke-width:6.48"/>
	<line x1="3487.65" y1="1945.78" x2="3502.62" y2="1945.78" style="stroke:#FF7F00;stroke-width:6.48"/>
	<line x1="3502.62" y1="1945.78" x2="3502.62" y2="1944.17" style="stroke:#FF7F00;stroke-width:6.48"/>
	<line x1="3502.62" y1="1944.17" x2="3543.58" y2="1944.17" style="stroke:#FF7F00;stroke-width:6.48"/>
	<line x1="3572.41" y1="1944.17" x2="3606.69" y2="1944.17" style="stroke:#FF7F00;stroke-width:6.48"/>
	<line x1="3606.69" y1="1944.17" x2="3606.69" y2="1941.70" style="stroke:#FF7F00;stroke-width:6.48"/>
	<line x1="3606.69" y1="1941.70" x2="3627.48" y2="1941.70" style="stroke:#FF7F00;stroke-width:6.48"/>
	<line x1="3656.32" y1="1941.70" x2="3713.86" y2="1941.70" style="stroke:#FF7F00;stroke-width:6.48"/>
	<line x1="3738.98" y1="1937.99" x2="3773.39" y2="1937.99" style="stroke:#FF7F00;stroke-width:6.48"/>
	<line x1="3773.39" y1="1937.99" x2="3773.39" y2="1937.99" style="stroke:#FF7F00;stroke-width:6.48"/>
	<path d="" stroke-linejoin="round" style="fill:none;stroke:#FF7F00;stroke-width:6.48"/>
	<line x1="2555.07" y1="1964.22" x2="2612.61" y2="1964.22" style="stroke:#008000;stroke-width:6.48"/>
	<line x1="2641.44" y1="1964.22" x2="2652.33" y2="1964.22" style="stroke:#008000;stroke-width:6.48"/>
	<line x1="2652.33" y1="1964.22" x2="2652.33" y2="1962.37" style="stroke:#008000;stroke-width:6.48"/>
	<line x1="2652.33" y1="1962.37" x2="2697.13" y2="1962.37" style="stroke:#008000;stroke-width:6.48"/>
	<line x1="2725.97" y1="1962.37" x2="2759.87" y2="1962.37" style="stroke:#008000;stroke-width:6.48"/>
	<line x1="2759.87" y1="1962.37" x2="2759.87" y2="1960.14" style="stroke:#008000;stroke-width:6.48"/>
	<line x1="2759.87" y1="1960.14" x2="2781.28" y2="1960.14" style="stroke:#008000;stroke-width:6.48"/>
	<line x1="2810.11" y1="1960.14" x2="2863.95" y2="1960.14" style="stroke:#008000;stroke-width:6.48"/>
	<line x1="2863.95" y1="1960.14" x2="2863.95" y2="1958.78" style="stroke:#008000;stroke-width:6.48"/>
	<line x1="2863.95" y1="1958.78" x2="2866.30" y2="1958.78" style="stroke:#008000;stroke-width:6.48"/>
	<line x1="2895.13" y1="1958.78" x2="2952.68" y2="1958.78" style="stroke:#008000;stroke-width:6.48"/>
	<line x1="2979.78" y1="1957.04" x2="3037.32" y2="1957.04" style="stroke:#008000;stroke-width:6.48"/>
	<line x1="3066.15" y1="1957.04" x2="3075.68" y2="1957.04" style="stroke:#008000;stroke-width:6.48"/>
	<line x1="3075.68" y1="1957.04" x2="3075.68" y2="1954.69" style="stroke:#008000;stroke-width:6.48"/>
	<line x1="3075.68" y1="1954.69" x2="3121.35" y2="1954.69" style="stroke:#008000;stroke-width:6.48"/>
	<line x1="3150.18" y1="1954.69" x2="3183.34" y2="1954.69" style="stroke:#008000;stroke-width:6.48"/>
	<line x1="3183.34" y1="1954.69" x2="3183.34" y2="1954.32" style="stroke:#008000;stroke-width:6.48"/>
	<line x1="3183.34" y1="1954.32" x2="3207.48" y2="1954.32" style="stroke:#008000;stroke-width:6.48"/>
	<line x1="3236.19" y1="1954.32" x2="3290.88" y2="1954.32" style="stroke:#008000;stroke-width:6.48"/>
	<line x1="3290.88" y1="1954.32" x2="3290.88" y2="1952.22" style="stroke:#008000;stroke-width:6.48"/>
	<line x1="3290.88" y1="1952.22" x2="3291.75" y2="1952.22" style="stroke:#008000;stroke-width:6.48"/>
	<line x1="3320.58" y1="1952.22" x2="3378.13" y2="1952.22" style="stroke:#008000;stroke-width:6.48"/>
	<line x1="3404.98" y1="1950.24" x2="3462.53" y2="1950.24" style="stroke:#008000;stroke-width:6.48"/>
	<line x1="3491.36" y1="1950.24" x2="3502.62" y2="1950.24" style="stroke:#008000;stroke-width:6.48"/>
	<line x1="3502.62" y1="1950.24" x2="3502.62" y2="1948.13" style="stroke:#008000;stroke-width:6.48"/>
	<line x1="3502.62" y1="1948.13" x2="3546.80" y2="1948.13" style="stroke:#008000;stroke-width:6.48"/>
	<line x1="3575.63" y1="1948.13" x2="3606.69" y2="1948.13" style="stroke:#008000;stroke-width:6.48"/>
	<line x1="3606.69" y1="1948.13" x2="3606.69" y2="1947.27" style="stroke:#008000;stroke-width:6.48"/>
	<line x1="3606.69" y1="1947.27" x2="3632.31" y2="1947.27" style="stroke:#008000;stroke-width:6.48"/>
	<line x1="3661.14" y1="1947.27" x2="3714.36" y2="1947.27" style="stroke:#008000;stroke-width:6.48"/>
	<line x1="3714.36" y1="1947.27" x2="3714.36" y2="1945.91" style="stroke:#008000;stroke-width:6.48"/>
	<line x1="3714.36" y1="1945.91" x2="3717.33" y2="1945.91" style="stroke:#008000;stroke-width:6.48"/>
	<line x1="3746.16" y1="1945.91" x2="3773.39" y2="1945.91" style="stroke:#008000;stroke-width:6.48"/>
	<line x1="3773.39" y1="1945.91" x2="3773.39" y2="1945.91" style="stroke:#008000;stroke-width:6.48"/>
	<path d="" stroke-linejoin="round" style="fill:none;stroke:#008000;stroke-width:6.48"/>
	<line x1="2555.07" y1="1964.35" x2="2612.61" y2="1964.35" style="stroke:#FF0080;stroke-width:6.48"/>
	<line x1="2638.60" y1="1964.35" x2="2641.44" y2="1964.35" style="stroke:#FF0080;stroke-width:6.48"/>
	<line x1="2666.07" y1="1963.11" x2="2723.74" y2="1963.11" style="stroke:#FF0080;stroke-width:6.48"/>
	<line x1="2749.60" y1="1963.11" x2="2752.45" y2="1963.11" style="stroke:#FF0080;stroke-width:6.48"/>
	<line x1="2777.57" y1="1962.24" x2="2835.24" y2="1962.24" style="stroke:#FF0080;stroke-width:6.48"/>
	<line x1="2861.10" y1="1962.24" x2="2863.95" y2="1962.24" style="stroke:#FF0080;stroke-width:6.48"/>
	<line x1="2863.95" y1="1962.24" x2="2863.95" y2="1962.12" style="stroke:#FF0080;stroke-width:6.48"/>
	<line x1="2889.32" y1="1961.62" x2="2946.86" y2="1961.62" style="stroke:#FF0080;stroke-width:6.48"/>
	<line x1="2971.98" y1="1960.76" x2="2974.83" y2="1960.76" style="stroke:#FF0080;stroke-width:6.48"/>
	<line x1="3000.81" y1="1960.76" x2="3058.36" y2="1960.76" style="stroke:#FF0080;stroke-width:6.48"/>
	<line x1="3083.85" y1="1960.26" x2="3086.70" y2="1960.26" style="stroke:#FF0080;stroke-width:6.48"/>
	<line x1="3112.68" y1="1960.26" x2="3170.23" y2="1960.26" style="stroke:#FF0080;stroke-width:6.48"/>
	<line x1="3195.60" y1="1959.64" x2="3198.44" y2="1959.64" style="stroke:#FF0080;stroke-width:6.48"/>
	<line x1="3224.43" y1="1959.64" x2="3281.97" y2="1959.64" style="stroke:#FF0080;stroke-width:6.48"/>
	<line x1="3306.23" y1="1957.91" x2="3309.07" y2="1957.91" style="stroke:#FF0080;stroke-width:6.48"/>
	<line x1="3334.94" y1="1957.91" x2="3392.61" y2="1957.91" style="stroke:#FF0080;stroke-width:6.48"/>
	<line x1="3417.36" y1="1956.67" x2="3420.20" y2="1956.67" style="stroke:#FF0080;stroke-width:6.48"/>
	<line x1="3446.07" y1="1956.67" x2="3502.62" y2="1956.67" style="stroke:#FF0080;stroke-width:6.48"/>
	<line x1="3502.62" y1="1956.67" x2="3502.62" y2="1955.68" style="stroke:#FF0080;stroke-width:6.48"/>
	<line x1="3528.48" y1="1955.56" x2="3531.45" y2="1955.56" style="stroke:#FF0080;stroke-width:6.48"/>
	<line x1="3557.32" y1="1955.56" x2="3606.69" y2="1955.56" style="stroke:#FF0080;stroke-width:6.48"/>
	<line x1="3606.69" y1="1955.56" x2="3606.69" y2="1954.44" style="stroke:#FF0080;stroke-width:6.48"/>
	<line x1="3606.69" y1="1954.44" x2="3613.75" y2="1954.44" style="stroke:#FF0080;stroke-width:6.48"/>
	<line x1="3639.74" y1="1954.44" x2="3642.58" y2="1954.44" style="stroke:#FF0080;stroke-width:6.48"/>
	<line x1="3668.57" y1="1954.44" x2="3714.36" y2="1954.44" style="stroke:#FF0080;stroke-width:6.48"/>
	<line x1="3714.36" y1="1954.44" x2="3714.36" y2="1953.83" style="stroke:#FF0080;stroke-width:6.48"/>
	<line x1="3714.36" y1="1953.83" x2="3725.49" y2="1953.83" style="stroke:#FF0080;stroke-width:6.48"/>
	<line x1="3751.48" y1="1953.83" x2="3754.33" y2="1953.83" style="stroke:#FF0080;stroke-width:6.48"/>
	<path d="" stroke-linejoin="round" style="fill:none;stroke:#FF0080;stroke-width:6.48"/>
	<line x1="2555.07" y1="1965.21" x2="2612.61" y2="1965.21" style="stroke:#A0522D;stroke-width:6.48"/>
	<line x1="2638.60" y1="1965.21" x2="2641.44" y2="1965.21" style="stroke:#A0522D;stroke-width:6.48"/>
	<line x1="2667.06" y1="1964.84" x2="2724.60" y2="1964.84" style="stroke:#A0522D;stroke-width:6.48"/>
	<line x1="2750.59" y1="1964.84" x2="2753.44" y2="1964.84" style="stroke:#A0522D;stroke-width:6.48"/>
	<line x1="2778.31" y1="1963.73" x2="2835.86" y2="1963.73" style="stroke:#A0522D;stroke-width:6.48"/>
	<line x1="2861.84" y1="1963.73" x2="2863.95" y2="1963.73" style="stroke:#A0522D;stroke-width:6.48"/>
	<line x1="2863.95" y1="1963.73" x2="2863.95" y2="1962.98" style="stroke:#A0522D;stroke-width:6.48"/>
	<line x1="2889.44" y1="1962.61" x2="2946.98" y2="1962.61" style="stroke:#A0522D;stroke-width:6.48"/>
	<line x1="2972.23" y1="1961.87" x2="2975.07" y2="1961.87" style="stroke:#A0522D;stroke-width:6.48"/>
	<line x1="3001.06" y1="1961.87" x2="3058.61" y2="1961.87" style="stroke:#A0522D;stroke-width:6.48"/>
	<line x1="3084.59" y1="1961.87" x2="3087.44" y2="1961.87" style="stroke:#A0522D;stroke-width:6.48"/>
	<line x1="3113.43" y1="1961.87" x2="3170.97" y2="1961.87" style="stroke:#A0522D;stroke-width:6.48"/>
	<line x1="3195.72" y1="1960.63" x2="3198.57" y2="1960.63" style="stroke:#A0522D;stroke-width:6.48"/>
	<line x1="3224.55" y1="1960.63" x2="3282.10" y2="1960.63" style="stroke:#A0522D;stroke-width:6.48"/>
	<line x1="3307.34" y1="1959.89" x2="3310.19" y2="1959.89" style="stroke:#A0522D;stroke-width:6.48"/>
	<line x1="3336.18" y1="1959.89" x2="3393.72" y2="1959.89" style="stroke:#A0522D;stroke-width:6.48"/>
	<line x1="3419.34" y1="1959.52" x2="3422.18" y2="1959.52" style="stroke:#A0522D;stroke-width:6.48"/>
	<line x1="3448.17" y1="1959.52" x2="3502.62" y2="1959.52" style="stroke:#A0522D;stroke-width:6.48"/>
	<line x1="3502.62" y1="1959.52" x2="3502.62" y2="1958.40" style="stroke:#A0522D;stroke-width:6.48"/>
	<line x1="3502.62" y1="1958.40" x2="3504.60" y2="1958.40" style="stroke:#A0522D;stroke-width:6.48"/>
	<line x1="3530.46" y1="1958.40" x2="3533.31" y2="1958.40" style="stroke:#A0522D;stroke-width:6.48"/>
	<line x1="3559.30" y1="1958.40" x2="3606.69" y2="1958.40" style="stroke:#A0522D;stroke-width:6.48"/>
	<line x1="3606.69" y1="1958.40" x2="3606.69" y2="1957.66" style="stroke:#A0522D;stroke-width:6.48"/>
	<line x1="3606.69" y1="1957.66" x2="3616.10" y2="1957.66" style="stroke:#A0522D;stroke-width:6.48"/>
	<line x1="3642.09" y1="1957.66" x2="3644.93" y2="1957.66" style="stroke:#A0522D;stroke-width:6.48"/>
	<line x1="3670.92" y1="1957.66" x2="3714.36" y2="1957.66" style="stroke:#A0522D;stroke-width:6.48"/>
	<line x1="3714.36" y1="1957.66" x2="3714.36" y2="1957.17" style="stroke:#A0522D;stroke-width:6.48"/>
	<line x1="3714.36" y1="1957.17" x2="3727.97" y2="1957.17" style="stroke:#A0522D;stroke-width:6.48"/>
	<line x1="3753.96" y1="1957.17" x2="3756.80" y2="1957.17" style="stroke:#A0522D;stroke-width:6.48"/>
	<path d="" stroke-linejoin="round" style="fill:none;stroke:#A0522D;stroke-width:6.48"/>
	<path d=" M2555.07 1965.21 L2652.33 1965.21 L2652.33 1964.35 L2971.61 1964.35 L2971.61 1963.48 L3075.68 1963.48 L3075.68 1962.61 L3290.88 1962.61 L3290.88 1961.87 L3773.39 1961.87 L3773.39 1961.87" stroke-linejoin="round" style="fill:none;stroke:#938DD2;stroke-width:6.48"/>
	<line x1="2459.04" y1="2013.48" x2="2459.04" y2="414.45" style="stroke:#000000;stroke-width:4.32"/>
	<line x1="2459.04" y1="1965.95" x2="2429.09" y2="1965.95" style="stroke:#000000;stroke-width:4.32"/>
	<text x="2413.99" y="1992.23" style="font-family:'Helvetica';font-size:74.99px;fill:#000000" text-anchor="end">0.000</text>
	<line x1="2459.04" y1="1665.11" x2="2429.09" y2="1665.11" style="stroke:#000000;stroke-width:4.32"/>
	<text x="2413.99" y="1691.39" style="font-family:'Helvetica';font-size:74.99px;fill:#000000" text-anchor="end">0.001</text>
	<line x1="2459.04" y1="1364.39" x2="2429.09" y2="1364.39" style="stroke:#000000;stroke-width:4.32"/>
	<text x="2413.99" y="1390.67" style="font-family:'Helvetica';font-size:74.99px;fill:#000000" text-anchor="end">0.002</text>
	<line x1="2459.04" y1="1063.54" x2="2429.09" y2="1063.54" style="stroke:#000000;stroke-width:4.32"/>
	<text x="2413.99" y="1089.82" style="font-family:'Helvetica';font-size:74.99px;fill:#000000" text-anchor="end">0.003</text>
	<line x1="2459.04" y1="762.82" x2="2429.09" y2="762.82" style="stroke:#000000;stroke-width:4.32"/>
	<text x="2413.99" y="789.10" style="font-family:'Helvetica';font-size:74.99px;fill:#000000" text-anchor="end">0.004</text>
	<line x1="2459.04" y1="461.97" x2="2429.09" y2="461.97" style="stroke:#000000;stroke-width:4.32"/>
	<text x="2413.99" y="488.25" style="font-family:'Helvetica';font-size:74.99px;fill:#000000" text-anchor="end">0.005</text>
	<line x1="2459.04" y1="2013.48" x2="3820.91" y2="2013.48" style="stroke:#000000;stroke-width:4.32"/>
	<line x1="2506.56" y1="2013.48" x2="2506.56" y2="2043.55" style="stroke:#000000;stroke-width:4.32"/>
	<text x="2506.56" y="2110.96" style="font-family:'Helvetica';font-size:74.99px;fill:#000000" text-anchor="middle">1 Feb 20</text>
	<line x1="2607.16" y1="2013.48" x2="2607.16" y2="2043.55" style="stroke:#000000;stroke-width:4.32"/>
	<text x="2607.16" y="2110.96" style="font-family:'Helvetica';font-size:74.99px;fill:#000000" text-anchor="middle">1 Mar 20</text>
	<line x1="2714.83" y1="2013.48" x2="2714.83" y2="2043.55" style="stroke:#000000;stroke-width:4.32"/>
	<text x="2714.83" y="2110.96" style="font-family:'Helvetica';font-size:74.99px;fill:#000000" text-anchor="middle">1 Apr 20</text>
	<line x1="2798.11" y1="2013.48" x2="2798.11" y2="2043.55" style="stroke:#000000;stroke-width:4.32"/>
	<text x="2798.11" y="2110.96" style="font-family:'Helvetica';font-size:74.99px;fill:#000000" text-anchor="middle">25 Apr 20</text>
	<text x="3140.03" y="2193.38" style="font-family:'Helvetica';font-size:74.99px;fill:#000000" text-anchor="middle">Days since 1 Feb 2020</text>
	<text x="3140.03" y="369.91" style="font-family:'Helvetica';font-size:104.94px;fill:#1E2D53" text-anchor="middle">Male</text>
	<text x="150.62" y="1257.22" style="font-family:'Helvetica';font-size:99.99px;fill:#000000" transform="rotate(-90 150.62,1257.22)" text-anchor="middle">Cumulative probability</text>
	<text x="250.61" y="1257.22" style="font-family:'Helvetica';font-size:99.99px;fill:#000000" transform="rotate(-90 250.61,1257.22)" text-anchor="middle">TPP Worms case</text>
	<text x="2097.19" y="157.51" style="font-family:'Helvetica';font-size:110.01px;fill:#000000" text-anchor="middle"> </text>
	<rect x="867.12" y="2341.18" width="2460.27" height="440.94" style="fill:#FFFFFF"/>
	<rect x="870.00" y="2344.06" width="2454.51" height="435.18" style="fill:none;stroke:#000000;stroke-width:5.76"/>
	<line x1="910.30" y1="2548.83" x2="1284.65" y2="2548.83" style="stroke:#FF0000;stroke-width:8.64"/>
	<line x1="910.30" y1="2688.92" x2="1284.65" y2="2688.92" style="stroke:#0000FF;stroke-width:8.64"/>
	<line x1="1748.22" y1="2548.83" x2="1805.76" y2="2548.83" style="stroke:#FF7F00;stroke-width:8.64"/>
	<line x1="1834.59" y1="2548.83" x2="1892.14" y2="2548.83" style="stroke:#FF7F00;stroke-width:8.64"/>
	<line x1="1920.97" y1="2548.83" x2="1978.52" y2="2548.83" style="stroke:#FF7F00;stroke-width:8.64"/>
	<line x1="2007.35" y1="2548.83" x2="2064.89" y2="2548.83" style="stroke:#FF7F00;stroke-width:8.64"/>
	<line x1="2093.73" y1="2548.83" x2="2122.56" y2="2548.83" style="stroke:#FF7F00;stroke-width:8.64"/>
	<line x1="1748.22" y1="2688.92" x2="1805.76" y2="2688.92" style="stroke:#008000;stroke-width:8.64"/>
	<line x1="1834.59" y1="2688.92" x2="1892.14" y2="2688.92" style="stroke:#008000;stroke-width:8.64"/>
	<line x1="1920.97" y1="2688.92" x2="1978.52" y2="2688.92" style="stroke:#008000;stroke-width:8.64"/>
	<line x1="2007.35" y1="2688.92" x2="2064.89" y2="2688.92" style="stroke:#008000;stroke-width:8.64"/>
	<line x1="2093.73" y1="2688.92" x2="2122.56" y2="2688.92" style="stroke:#008000;stroke-width:8.64"/>
	<line x1="2586.25" y1="2548.83" x2="2643.80" y2="2548.83" style="stroke:#FF0080;stroke-width:8.64"/>
	<line x1="2669.78" y1="2548.83" x2="2672.63" y2="2548.83" style="stroke:#FF0080;stroke-width:8.64"/>
	<line x1="2698.62" y1="2548.83" x2="2756.16" y2="2548.83" style="stroke:#FF0080;stroke-width:8.64"/>
	<line x1="2782.15" y1="2548.83" x2="2784.99" y2="2548.83" style="stroke:#FF0080;stroke-width:8.64"/>
	<line x1="2810.98" y1="2548.83" x2="2868.53" y2="2548.83" style="stroke:#FF0080;stroke-width:8.64"/>
	<line x1="2894.51" y1="2548.83" x2="2897.36" y2="2548.83" style="stroke:#FF0080;stroke-width:8.64"/>
	<line x1="2923.22" y1="2548.83" x2="2960.59" y2="2548.83" style="stroke:#FF0080;stroke-width:8.64"/>
	<line x1="2586.25" y1="2688.92" x2="2643.80" y2="2688.92" style="stroke:#A0522D;stroke-width:8.64"/>
	<line x1="2669.78" y1="2688.92" x2="2672.63" y2="2688.92" style="stroke:#A0522D;stroke-width:8.64"/>
	<line x1="2698.62" y1="2688.92" x2="2756.16" y2="2688.92" style="stroke:#A0522D;stroke-width:8.64"/>
	<line x1="2782.15" y1="2688.92" x2="2784.99" y2="2688.92" style="stroke:#A0522D;stroke-width:8.64"/>
	<line x1="2810.98" y1="2688.92" x2="2868.53" y2="2688.92" style="stroke:#A0522D;stroke-width:8.64"/>
	<line x1="2894.51" y1="2688.92" x2="2897.36" y2="2688.92" style="stroke:#A0522D;stroke-width:8.64"/>
	<line x1="2923.22" y1="2688.92" x2="2960.59" y2="2688.92" style="stroke:#A0522D;stroke-width:8.64"/>
	<text x="1344.67" y="2576.85" style="font-family:'Helvetica';font-size:79.94px;fill:#000000">18-&lt;40</text>
	<text x="1344.67" y="2716.94" style="font-family:'Helvetica';font-size:79.94px;fill:#000000">40-&lt;50</text>
	<text x="2182.58" y="2576.85" style="font-family:'Helvetica';font-size:79.94px;fill:#000000">50-&lt;60</text>
	<text x="2182.58" y="2716.94" style="font-family:'Helvetica';font-size:79.94px;fill:#000000">60-&lt;70</text>
	<text x="3020.61" y="2576.85" style="font-family:'Helvetica';font-size:79.94px;fill:#000000">70-&lt;80</text>
	<text x="3020.61" y="2716.94" style="font-family:'Helvetica';font-size:79.94px;fill:#000000">80+</text>
	<text x="2097.19" y="2448.93" style="font-family:'Helvetica';font-size:79.94px;fill:#000000" text-anchor="middle">Age group</text>
</svg>
