<?xml version="1.0" encoding="UTF-8" standalone="no"?>
<!-- This is a Stata 16.1 generated SVG file (http://www.stata.com) -->

<svg version="1.1" width="5.50in" height="4.00in" viewBox="0 0 3960 2880" xmlns="http://www.w3.org/2000/svg" xmlns:xlink="http://www.w3.org/1999/xlink">
	<desc>Stata Graph - Graph</desc>
	<rect x="0" y="0" width="3960" height="2880" style="fill:#EAF2F3;stroke:none"/>
	<rect x="0.00" y="0.00" width="3959.88" height="2880.00" style="fill:#EAF2F3"/>
	<rect x="2.88" y="2.88" width="3954.12" height="2874.24" style="fill:none;stroke:#EAF2F3;stroke-width:5.76"/>
	<rect x="297.87" y="207.91" width="1799.32" height="1958.65" style="fill:#EAF2F3"/>
	<rect x="300.03" y="210.07" width="1795.01" height="1954.33" style="fill:none;stroke:#EAF2F3;stroke-width:4.32"/>
	<rect x="659.71" y="414.45" width="1361.87" height="1459.06" style="fill:#FFFFFF"/>
	<rect x="661.87" y="416.61" width="1357.55" height="1454.74" style="fill:none;stroke:#FFFFFF;stroke-width:4.32"/>
	<line x1="659.71" y1="1825.99" x2="2021.58" y2="1825.99" style="stroke:#EAF2F3;stroke-width:6.48"/>
	<line x1="659.71" y1="1633.43" x2="2021.58" y2="1633.43" style="stroke:#EAF2F3;stroke-width:6.48"/>
	<line x1="659.71" y1="1440.74" x2="2021.58" y2="1440.74" style="stroke:#EAF2F3;stroke-width:6.48"/>
	<line x1="659.71" y1="1248.18" x2="2021.58" y2="1248.18" style="stroke:#EAF2F3;stroke-width:6.48"/>
	<line x1="659.71" y1="1055.62" x2="2021.58" y2="1055.62" style="stroke:#EAF2F3;stroke-width:6.48"/>
	<line x1="659.71" y1="863.06" x2="2021.58" y2="863.06" style="stroke:#EAF2F3;stroke-width:6.48"/>
	<path d=" M732.48 1825.99 L757.85 1825.99 L757.85 1825.99 L764.16 1825.99 L764.16 1825.99 L770.59 1825.99 L770.59 1825.99 L776.90 1825.99 L776.90 1825.99 L783.21 1825.99 L783.21 1825.99 L795.84 1825.99 L795.84 1825.12 L808.58 1825.12 L808.58 1825.12 L821.21 1825.12 L821.21 1825.12 L922.56 1825.12 L922.56 1825.12 L941.61 1825.12 L941.61 1824.63 L979.61 1824.63 L979.61 1774.75 L1080.96 1774.75 L1080.96 1774.26 L1087.27 1774.26 L1087.27 1773.76 L1099.89 1773.76 L1099.89 1773.27 L1106.20 1773.27 L1106.20 1772.28 L1112.64 1772.28 L1112.64 1771.41 L1118.95 1771.41 L1118.95 1769.43 L1125.26 1769.43 L1125.26 1768.57 L1131.57 1768.57 L1131.57 1767.58 L1137.88 1767.58 L1137.88 1766.09 L1144.32 1766.09 L1144.32 1765.60 L1150.63 1765.60 L1150.63 1763.25 L1156.94 1763.25 L1156.94 1761.39 L1175.87 1761.39 L1175.87 1549.52 L1264.60 1549.52 L1264.60 1549.52 L1270.91 1549.52 L1270.91 1549.52 L1277.22 1549.52 L1277.22 1549.03 L1283.66 1549.03 L1283.66 1548.53 L1289.97 1548.53 L1289.97 1548.53 L1296.28 1548.53 L1296.28 1548.53 L1302.59 1548.53 L1302.59 1548.04 L1308.90 1548.04 L1308.90 1547.17 L1346.89 1547.17 L1346.89 1546.68 L1353.33 1546.68 L1353.33 1546.68 L1359.64 1546.68 L1359.64 1546.18 L1365.95 1546.18 L1365.95 1446.06 L1416.57 1446.06 L1416.57 1446.06 L1448.25 1446.06 L1448.25 1446.06 L1454.68 1446.06 L1454.68 1446.06 L1467.30 1446.06 L1467.30 1446.06 L1492.67 1446.06 L1492.67 1446.06 L1511.61 1446.06 L1511.61 1446.06 L1517.92 1446.06 L1517.92 1446.06 L1530.66 1446.06 L1530.66 1446.06 L1543.29 1446.06 L1543.29 1446.06 L1562.34 1446.06 L1562.34 1367.85 L1594.02 1367.85 L1594.02 1367.85 L1650.95 1367.85 L1650.95 1367.85 L1670.01 1367.85 L1670.01 1367.36 L1676.32 1367.36 L1676.32 1367.36 L1688.94 1367.36 L1688.94 1367.36 L1708.00 1367.36 L1708.00 1366.86 L1720.62 1366.86 L1720.62 1366.86 L1727.06 1366.86 L1727.06 1366.86 L1752.30 1366.86 L1752.30 1322.43 L1841.03 1322.43 L1841.03 1322.43 L1872.71 1322.43 L1872.71 1322.43" stroke-linejoin="round" style="fill:none;stroke:#1A476F;stroke-width:6.48"/>
	<path d=" M713.54 1825.99 L726.16 1825.99 L726.16 1825.99 L732.48 1825.99 L732.48 1825.99 L738.91 1825.99 L738.91 1825.99 L745.22 1825.99 L745.22 1825.99 L751.53 1825.99 L751.53 1825.99 L757.85 1825.99 L757.85 1825.99 L764.16 1825.99 L764.16 1825.99 L776.90 1825.99 L776.90 1825.99 L783.21 1825.99 L783.21 1825.99 L795.84 1825.99 L795.84 1825.37 L821.21 1825.37 L821.21 1825.37 L833.83 1825.37 L833.83 1825.37 L859.20 1825.37 L859.20 1825.37 L865.51 1825.37 L865.51 1825.37 L878.25 1825.37 L878.25 1825.37 L884.57 1825.37 L884.57 1825.37 L890.88 1825.37 L890.88 1825.37 L897.19 1825.37 L897.19 1825.37 L909.93 1825.37 L909.93 1825.37 L916.25 1825.37 L916.25 1825.37 L922.56 1825.37 L922.56 1825.37 L935.18 1825.37 L935.18 1825.37 L947.92 1825.37 L947.92 1825.37 L954.24 1825.37 L954.24 1825.37 L973.29 1825.37 L973.29 1825.12 L979.61 1825.12 L979.61 1761.51 L1011.28 1761.51 L1011.28 1761.51 L1023.91 1761.51 L1023.91 1761.51 L1036.53 1761.51 L1036.53 1761.51 L1042.96 1761.51 L1042.96 1761.27 L1049.28 1761.27 L1049.28 1761.27 L1055.59 1761.27 L1055.59 1760.65 L1061.90 1760.65 L1061.90 1760.40 L1068.21 1760.40 L1068.21 1759.90 L1074.52 1759.90 L1074.52 1759.78 L1080.96 1759.78 L1080.96 1759.04 L1087.27 1759.04 L1087.27 1758.05 L1093.58 1758.05 L1093.58 1757.80 L1099.89 1757.80 L1099.89 1756.31 L1106.20 1756.31 L1106.20 1754.95 L1112.64 1754.95 L1112.64 1753.72 L1118.95 1753.72 L1118.95 1751.74 L1125.26 1751.74 L1125.26 1750.25 L1131.57 1750.25 L1131.57 1749.01 L1137.88 1749.01 L1137.88 1747.90 L1144.32 1747.90 L1144.32 1746.41 L1150.63 1746.41 L1150.63 1745.30 L1156.94 1745.30 L1156.94 1743.20 L1163.25 1743.20 L1163.25 1742.58 L1169.56 1742.58 L1169.56 1741.84 L1175.87 1741.84 L1175.87 1486.90 L1188.62 1486.90 L1188.62 1486.90 L1194.93 1486.90 L1194.93 1486.90 L1258.29 1486.90 L1258.29 1486.66 L1264.60 1486.66 L1264.60 1486.66 L1277.22 1486.66 L1277.22 1486.28 L1283.66 1486.28 L1283.66 1485.79 L1289.97 1485.79 L1289.97 1485.17 L1296.28 1485.17 L1296.28 1484.68 L1302.59 1484.68 L1302.59 1484.30 L1308.90 1484.30 L1308.90 1483.81 L1315.34 1483.81 L1315.34 1483.69 L1321.65 1483.69 L1321.65 1483.19 L1327.96 1483.19 L1327.96 1482.94 L1334.27 1482.94 L1334.27 1482.82 L1340.58 1482.82 L1340.58 1482.32 L1346.89 1482.32 L1346.89 1482.08 L1353.33 1482.08 L1353.33 1482.08 L1359.64 1482.08 L1359.64 1481.95 L1365.95 1481.95 L1365.95 1349.54 L1391.32 1349.54 L1391.32 1349.54 L1403.94 1349.54 L1403.94 1349.54 L1429.31 1349.54 L1429.31 1349.54 L1441.93 1349.54 L1441.93 1349.54 L1448.25 1349.54 L1448.25 1349.29 L1460.99 1349.29 L1460.99 1349.29 L1467.30 1349.29 L1467.30 1349.29 L1473.62 1349.29 L1473.62 1349.16 L1479.93 1349.16 L1479.93 1349.16 L1492.67 1349.16 L1492.67 1348.92 L1498.98 1348.92 L1498.98 1348.92 L1505.30 1348.92 L1505.30 1348.67 L1511.61 1348.67 L1511.61 1348.42 L1517.92 1348.42 L1517.92 1348.30 L1524.35 1348.30 L1524.35 1348.30 L1530.66 1348.30 L1530.66 1348.05 L1536.97 1348.05 L1536.97 1347.80 L1543.29 1347.80 L1543.29 1347.80 L1549.60 1347.80 L1549.60 1347.56 L1556.03 1347.56 L1556.03 1347.43 L1562.34 1347.43 L1562.34 1274.17 L1581.28 1274.17 L1581.28 1274.17 L1612.96 1274.17 L1612.96 1274.17 L1619.27 1274.17 L1619.27 1274.17 L1625.70 1274.17 L1625.70 1274.17 L1632.02 1274.17 L1632.02 1274.17 L1638.33 1274.17 L1638.33 1274.17 L1650.95 1274.17 L1650.95 1274.17 L1657.38 1274.17 L1657.38 1274.17 L1663.69 1274.17 L1663.69 1274.17 L1670.01 1274.17 L1670.01 1274.17 L1676.32 1274.17 L1676.32 1274.17 L1682.63 1274.17 L1682.63 1274.17 L1688.94 1274.17 L1688.94 1274.17 L1695.38 1274.17 L1695.38 1274.17 L1701.69 1274.17 L1701.69 1274.17 L1720.62 1274.17 L1720.62 1274.17 L1727.06 1274.17 L1727.06 1274.17 L1733.37 1274.17 L1733.37 1274.17 L1745.99 1274.17 L1745.99 1274.17 L1752.30 1274.17 L1752.30 1231.10 L1796.73 1231.10 L1796.73 1231.10 L1809.35 1231.10 L1809.35 1231.10 L1841.03 1231.10 L1841.03 1231.10 L1872.71 1231.10 L1872.71 1231.10" stroke-linejoin="round" style="fill:none;stroke:#90353B;stroke-width:6.48"/>
	<path d=" M713.54 1825.99 L719.85 1825.99 L719.85 1825.99 L726.16 1825.99 L726.16 1825.99 L732.48 1825.99 L732.48 1825.99 L738.91 1825.99 L738.91 1825.99 L745.22 1825.99 L745.22 1825.99 L751.53 1825.99 L751.53 1825.99 L757.85 1825.99 L757.85 1825.99 L764.16 1825.99 L764.16 1825.99 L776.90 1825.99 L776.90 1825.99 L783.21 1825.99 L783.21 1825.99 L789.52 1825.99 L789.52 1825.99 L795.84 1825.99 L795.84 1825.00 L802.27 1825.00 L802.27 1825.00 L827.52 1825.00 L827.52 1825.00 L840.26 1825.00 L840.26 1825.00 L846.57 1825.00 L846.57 1825.00 L852.88 1825.00 L852.88 1825.00 L859.20 1825.00 L859.20 1825.00 L865.51 1825.00 L865.51 1825.00 L871.94 1825.00 L871.94 1825.00 L878.25 1825.00 L878.25 1825.00 L884.57 1825.00 L884.57 1825.00 L890.88 1825.00 L890.88 1825.00 L897.19 1825.00 L897.19 1825.00 L903.50 1825.00 L903.50 1825.00 L909.93 1825.00 L909.93 1825.00 L916.25 1825.00 L916.25 1825.00 L922.56 1825.00 L922.56 1825.00 L928.87 1825.00 L928.87 1825.00 L935.18 1825.00 L935.18 1825.00 L941.61 1825.00 L941.61 1825.00 L947.92 1825.00 L947.92 1825.00 L954.24 1825.00 L954.24 1825.00 L960.55 1825.00 L960.55 1825.00 L973.29 1825.00 L973.29 1825.00 L979.61 1825.00 L979.61 1702.36 L992.23 1702.36 L992.23 1702.36 L998.54 1702.36 L998.54 1702.36 L1011.28 1702.36 L1011.28 1702.36 L1017.60 1702.36 L1017.60 1702.36 L1023.91 1702.36 L1023.91 1702.36 L1030.22 1702.36 L1030.22 1701.99 L1036.53 1701.99 L1036.53 1701.99 L1049.28 1701.99 L1049.28 1701.99 L1055.59 1701.99 L1055.59 1701.62 L1061.90 1701.62 L1061.90 1701.62 L1068.21 1701.62 L1068.21 1700.63 L1074.52 1700.63 L1074.52 1699.88 L1080.96 1699.88 L1080.96 1698.52 L1087.27 1698.52 L1087.27 1696.67 L1093.58 1696.67 L1093.58 1693.57 L1099.89 1693.57 L1099.89 1689.98 L1106.20 1689.98 L1106.20 1684.29 L1112.64 1684.29 L1112.64 1680.45 L1118.95 1680.45 L1118.95 1676.49 L1125.26 1676.49 L1125.26 1671.17 L1131.57 1671.17 L1131.57 1665.23 L1137.88 1665.23 L1137.88 1659.91 L1144.32 1659.91 L1144.32 1653.85 L1150.63 1653.85 L1150.63 1649.64 L1156.94 1649.64 L1156.94 1641.47 L1163.25 1641.47 L1163.25 1635.78 L1169.56 1635.78 L1169.56 1632.93 L1175.87 1632.93 L1175.87 1068.12 L1182.31 1068.12 L1182.31 1068.12 L1188.62 1068.12 L1188.62 1068.12 L1194.93 1068.12 L1194.93 1068.12 L1201.24 1068.12 L1201.24 1068.12 L1251.98 1068.12 L1251.98 1068.12 L1258.29 1068.12 L1258.29 1067.38 L1264.60 1067.38 L1264.60 1067.01 L1270.91 1067.01 L1270.91 1066.26 L1277.22 1066.26 L1277.22 1062.67 L1283.66 1062.67 L1283.66 1061.68 L1289.97 1061.68 L1289.97 1060.94 L1296.28 1060.94 L1296.28 1056.98 L1302.59 1056.98 L1302.59 1054.88 L1308.90 1054.88 L1308.90 1054.14 L1315.34 1054.14 L1315.34 1052.77 L1321.65 1052.77 L1321.65 1051.29 L1327.96 1051.29 L1327.96 1048.07 L1334.27 1048.07 L1334.27 1045.23 L1340.58 1045.23 L1340.58 1044.48 L1346.89 1044.48 L1346.89 1042.75 L1353.33 1042.75 L1353.33 1040.89 L1359.64 1040.89 L1359.64 1037.30 L1365.95 1037.30 L1365.95 696.49 L1423.00 696.49 L1423.00 696.49 L1429.31 696.49 L1429.31 696.49 L1441.93 696.49 L1441.93 696.49 L1448.25 696.49 L1448.25 696.12 L1454.68 696.12 L1454.68 695.74 L1460.99 695.74 L1460.99 695.74 L1473.62 695.74 L1473.62 695.37 L1479.93 695.37 L1479.93 695.37 L1486.36 695.37 L1486.36 695.00 L1492.67 695.00 L1492.67 693.64 L1498.98 693.64 L1498.98 693.27 L1505.30 693.27 L1505.30 691.78 L1511.61 691.78 L1511.61 691.41 L1517.92 691.41 L1517.92 690.42 L1524.35 690.42 L1524.35 689.68 L1530.66 689.68 L1530.66 688.94 L1536.97 688.94 L1536.97 688.57 L1543.29 688.57 L1543.29 687.45 L1549.60 687.45 L1549.60 687.08 L1556.03 687.08 L1556.03 686.46 L1562.34 686.46 L1562.34 524.96 L1594.02 524.96 L1594.02 524.96 L1606.65 524.96 L1606.65 524.96 L1612.96 524.96 L1612.96 524.96 L1619.27 524.96 L1619.27 524.96 L1625.70 524.96 L1625.70 524.96 L1632.02 524.96 L1632.02 524.96 L1638.33 524.96 L1638.33 524.96 L1644.64 524.96 L1644.64 524.59 L1650.95 524.59 L1650.95 524.59 L1657.38 524.59 L1657.38 524.59 L1663.69 524.59 L1663.69 524.59 L1676.32 524.59 L1676.32 524.22 L1682.63 524.22 L1682.63 524.22 L1688.94 524.22 L1688.94 524.22 L1695.38 524.22 L1695.38 524.22 L1701.69 524.22 L1701.69 524.22 L1708.00 524.22 L1708.00 523.97 L1714.31 523.97 L1714.31 523.97 L1720.62 523.97 L1720.62 523.97 L1727.06 523.97 L1727.06 523.97 L1733.37 523.97 L1733.37 523.97 L1745.99 523.97 L1745.99 523.60 L1752.30 523.60 L1752.30 461.97 L1783.98 461.97 L1783.98 461.97 L1790.29 461.97 L1790.29 461.97 L1796.73 461.97 L1796.73 461.97 L1809.35 461.97 L1809.35 461.97 L1815.66 461.97 L1815.66 461.97 L1821.97 461.97 L1821.97 461.97 L1834.72 461.97 L1834.72 461.97 L1841.03 461.97 L1841.03 461.97 L1847.34 461.97 L1847.34 461.97 L1872.71 461.97 L1872.71 461.97" stroke-linejoin="round" style="fill:none;stroke:#55752F;stroke-width:6.48"/>
	<line x1="659.71" y1="1873.51" x2="659.71" y2="414.45" style="stroke:#000000;stroke-width:4.32"/>
	<line x1="659.71" y1="1825.99" x2="629.76" y2="1825.99" style="stroke:#000000;stroke-width:4.32"/>
	<text x="614.79" y="1852.27" style="font-family:'Helvetica';font-size:74.99px;fill:#000000" text-anchor="end">0.000</text>
	<line x1="659.71" y1="1633.43" x2="629.76" y2="1633.43" style="stroke:#000000;stroke-width:4.32"/>
	<text x="614.79" y="1659.71" style="font-family:'Helvetica';font-size:74.99px;fill:#000000" text-anchor="end">0.001</text>
	<line x1="659.71" y1="1440.74" x2="629.76" y2="1440.74" style="stroke:#000000;stroke-width:4.32"/>
	<text x="614.79" y="1467.02" style="font-family:'Helvetica';font-size:74.99px;fill:#000000" text-anchor="end">0.002</text>
	<line x1="659.71" y1="1248.18" x2="629.76" y2="1248.18" style="stroke:#000000;stroke-width:4.32"/>
	<text x="614.79" y="1274.46" style="font-family:'Helvetica';font-size:74.99px;fill:#000000" text-anchor="end">0.003</text>
	<line x1="659.71" y1="1055.62" x2="629.76" y2="1055.62" style="stroke:#000000;stroke-width:4.32"/>
	<text x="614.79" y="1081.90" style="font-family:'Helvetica';font-size:74.99px;fill:#000000" text-anchor="end">0.004</text>
	<line x1="659.71" y1="863.06" x2="629.76" y2="863.06" style="stroke:#000000;stroke-width:4.32"/>
	<text x="614.79" y="889.34" style="font-family:'Helvetica';font-size:74.99px;fill:#000000" text-anchor="end">0.005</text>
	<line x1="659.71" y1="1873.51" x2="2021.58" y2="1873.51" style="stroke:#000000;stroke-width:4.32"/>
	<line x1="707.23" y1="1873.51" x2="707.23" y2="1903.46" style="stroke:#000000;stroke-width:4.32"/>
	<text x="707.23" y="1970.87" style="font-family:'Helvetica';font-size:74.99px;fill:#000000" text-anchor="middle">1 Feb 20</text>
	<line x1="891.00" y1="1873.51" x2="891.00" y2="1903.46" style="stroke:#000000;stroke-width:4.32"/>
	<text x="891.00" y="1970.87" style="font-family:'Helvetica';font-size:74.99px;fill:#000000" text-anchor="middle">1 Mar 20</text>
	<line x1="1087.27" y1="1873.51" x2="1087.27" y2="1903.46" style="stroke:#000000;stroke-width:4.32"/>
	<text x="1087.27" y="1970.87" style="font-family:'Helvetica';font-size:74.99px;fill:#000000" text-anchor="middle">1 Apr 20</text>
	<line x1="1283.66" y1="1873.51" x2="1283.66" y2="1903.46" style="stroke:#000000;stroke-width:4.32"/>
	<text x="1283.66" y="1970.87" style="font-family:'Helvetica';font-size:74.99px;fill:#000000" text-anchor="middle">1 May 20</text>
	<line x1="1473.74" y1="1873.51" x2="1473.74" y2="1903.46" style="stroke:#000000;stroke-width:4.32"/>
	<text x="1473.74" y="1970.87" style="font-family:'Helvetica';font-size:74.99px;fill:#000000" text-anchor="middle">1 June 20</text>
	<line x1="1663.69" y1="1873.51" x2="1663.69" y2="1903.46" style="stroke:#000000;stroke-width:4.32"/>
	<text x="1663.69" y="1970.87" style="font-family:'Helvetica';font-size:74.99px;fill:#000000" text-anchor="middle">1 July 20</text>
	<line x1="1860.09" y1="1873.51" x2="1860.09" y2="1903.46" style="stroke:#000000;stroke-width:4.32"/>
	<text x="1860.09" y="1970.87" style="font-family:'Helvetica';font-size:74.99px;fill:#000000" text-anchor="middle">1 Aug 20</text>
	<text x="1340.71" y="2053.41" style="font-family:'Helvetica';font-size:74.99px;fill:#000000" text-anchor="middle"> </text>
	<text x="1340.71" y="369.91" style="font-family:'Helvetica';font-size:104.94px;fill:#1E2D53" text-anchor="middle">Female</text>
	<rect x="2097.19" y="207.91" width="1799.33" height="1958.65" style="fill:#EAF2F3"/>
	<rect x="2099.35" y="210.07" width="1795.01" height="1954.33" style="fill:none;stroke:#EAF2F3;stroke-width:4.32"/>
	<rect x="2459.04" y="414.45" width="1361.87" height="1459.06" style="fill:#FFFFFF"/>
	<rect x="2461.20" y="416.61" width="1357.55" height="1454.74" style="fill:none;stroke:#FFFFFF;stroke-width:4.32"/>
	<line x1="2459.04" y1="1825.99" x2="3820.91" y2="1825.99" style="stroke:#EAF2F3;stroke-width:6.48"/>
	<line x1="2459.04" y1="1669.69" x2="3820.91" y2="1669.69" style="stroke:#EAF2F3;stroke-width:6.48"/>
	<line x1="2459.04" y1="1513.26" x2="3820.91" y2="1513.26" style="stroke:#EAF2F3;stroke-width:6.48"/>
	<line x1="2459.04" y1="1356.96" x2="3820.91" y2="1356.96" style="stroke:#EAF2F3;stroke-width:6.48"/>
	<line x1="2459.04" y1="1200.66" x2="3820.91" y2="1200.66" style="stroke:#EAF2F3;stroke-width:6.48"/>
	<line x1="2459.04" y1="1044.36" x2="3820.91" y2="1044.36" style="stroke:#EAF2F3;stroke-width:6.48"/>
	<path d=" M2512.87 1825.99 L2538.11 1825.99 L2538.11 1825.99 L2544.55 1825.99 L2544.55 1825.99 L2550.86 1825.99 L2550.86 1825.99 L2563.48 1825.99 L2563.48 1825.99 L2576.23 1825.99 L2576.23 1825.99 L2582.54 1825.99 L2582.54 1825.99 L2588.85 1825.99 L2588.85 1825.99 L2595.16 1825.99 L2595.16 1824.87 L2626.84 1824.87 L2626.84 1824.87 L2696.51 1824.87 L2696.51 1824.87 L2709.26 1824.87 L2709.26 1824.87 L2734.50 1824.87 L2734.50 1824.87 L2753.56 1824.87 L2753.56 1824.87 L2766.18 1824.87 L2766.18 1824.87 L2778.93 1824.87 L2778.93 1766.59 L2804.18 1766.59 L2804.18 1766.59 L2810.49 1766.59 L2810.49 1766.59 L2816.92 1766.59 L2816.92 1766.59 L2854.91 1766.59 L2854.91 1766.09 L2867.53 1766.09 L2867.53 1765.72 L2886.59 1765.72 L2886.59 1765.35 L2892.90 1765.35 L2892.90 1764.11 L2899.22 1764.11 L2899.22 1762.50 L2905.53 1762.50 L2905.53 1762.01 L2911.84 1762.01 L2911.84 1761.27 L2918.27 1761.27 L2918.27 1759.66 L2924.58 1759.66 L2924.58 1759.16 L2930.89 1759.16 L2930.89 1757.92 L2937.21 1757.92 L2937.21 1756.69 L2943.52 1756.69 L2943.52 1753.84 L2949.95 1753.84 L2949.95 1753.10 L2956.26 1753.10 L2956.26 1752.60 L2962.57 1752.60 L2962.57 1751.36 L2968.89 1751.36 L2968.89 1750.62 L2975.20 1750.62 L2975.20 1544.57 L3038.56 1544.57 L3038.56 1544.57 L3044.87 1544.57 L3044.87 1544.08 L3051.30 1544.08 L3051.30 1544.08 L3070.24 1544.08 L3070.24 1543.71 L3076.55 1543.71 L3076.55 1542.96 L3082.86 1542.96 L3082.86 1542.96 L3089.30 1542.96 L3089.30 1542.47 L3101.92 1542.47 L3101.92 1542.10 L3108.23 1542.10 L3108.23 1542.10 L3127.29 1542.10 L3127.29 1541.73 L3133.60 1541.73 L3133.60 1541.23 L3139.91 1541.23 L3139.91 1540.86 L3146.22 1540.86 L3146.22 1540.49 L3158.97 1540.49 L3158.97 1539.99 L3165.28 1539.99 L3165.28 1432.20 L3215.89 1432.20 L3215.89 1432.20 L3228.64 1432.20 L3228.64 1432.20 L3234.95 1432.20 L3234.95 1432.20 L3241.26 1432.20 L3241.26 1432.20 L3260.32 1432.20 L3260.32 1432.20 L3298.31 1432.20 L3298.31 1431.83 L3310.93 1431.83 L3310.93 1431.83 L3317.24 1431.83 L3317.24 1431.83 L3336.30 1431.83 L3336.30 1431.83 L3342.61 1431.83 L3342.61 1431.83 L3355.23 1431.83 L3355.23 1431.46 L3361.67 1431.46 L3361.67 1373.54 L3412.28 1373.54 L3412.28 1373.54 L3443.96 1373.54 L3443.96 1373.54 L3463.02 1373.54 L3463.02 1373.54 L3488.26 1373.54 L3488.26 1373.54 L3519.95 1373.54 L3519.95 1373.54 L3526.26 1373.54 L3526.26 1373.54 L3539.00 1373.54 L3539.00 1373.17 L3551.63 1373.17 L3551.63 1331.59 L3672.03 1331.59 L3672.03 1331.59" stroke-linejoin="round" style="fill:none;stroke:#1A476F;stroke-width:6.48"/>
	<path d=" M2512.87 1825.99 L2525.49 1825.99 L2525.49 1825.99 L2538.11 1825.99 L2538.11 1825.99 L2544.55 1825.99 L2544.55 1825.99 L2550.86 1825.99 L2550.86 1825.99 L2557.17 1825.99 L2557.17 1825.99 L2563.48 1825.99 L2563.48 1825.99 L2569.79 1825.99 L2569.79 1825.99 L2576.23 1825.99 L2576.23 1825.99 L2595.16 1825.99 L2595.16 1824.87 L2639.46 1824.87 L2639.46 1824.87 L2645.90 1824.87 L2645.90 1824.87 L2652.21 1824.87 L2652.21 1824.87 L2658.52 1824.87 L2658.52 1824.87 L2664.83 1824.87 L2664.83 1824.87 L2671.14 1824.87 L2671.14 1824.87 L2677.58 1824.87 L2677.58 1824.87 L2683.89 1824.87 L2683.89 1824.87 L2690.20 1824.87 L2690.20 1824.87 L2696.51 1824.87 L2696.51 1824.87 L2702.82 1824.87 L2702.82 1824.87 L2721.88 1824.87 L2721.88 1824.87 L2734.50 1824.87 L2734.50 1824.87 L2740.82 1824.87 L2740.82 1824.87 L2747.25 1824.87 L2747.25 1824.75 L2759.87 1824.75 L2759.87 1824.75 L2772.49 1824.75 L2772.49 1824.75 L2778.93 1824.75 L2778.93 1751.24 L2797.86 1751.24 L2797.86 1751.24 L2810.49 1751.24 L2810.49 1750.99 L2816.92 1750.99 L2816.92 1750.99 L2823.23 1750.99 L2823.23 1750.99 L2829.54 1750.99 L2829.54 1750.99 L2842.17 1750.99 L2842.17 1750.99 L2854.91 1750.99 L2854.91 1750.62 L2861.22 1750.62 L2861.22 1749.63 L2867.53 1749.63 L2867.53 1749.51 L2873.85 1749.51 L2873.85 1749.14 L2880.28 1749.14 L2880.28 1748.02 L2886.59 1748.02 L2886.59 1745.30 L2892.90 1745.30 L2892.90 1741.96 L2899.22 1741.96 L2899.22 1740.47 L2905.53 1740.47 L2905.53 1738.99 L2911.84 1738.99 L2911.84 1736.89 L2918.27 1736.89 L2918.27 1734.53 L2924.58 1734.53 L2924.58 1731.44 L2930.89 1731.44 L2930.89 1728.35 L2937.21 1728.35 L2937.21 1725.75 L2943.52 1725.75 L2943.52 1722.65 L2949.95 1722.65 L2949.95 1720.55 L2956.26 1720.55 L2956.26 1718.57 L2962.57 1718.57 L2962.57 1716.71 L2968.89 1716.71 L2968.89 1713.99 L2975.20 1713.99 L2975.20 1444.46 L3006.88 1444.46 L3006.88 1444.46 L3032.25 1444.46 L3032.25 1444.33 L3038.56 1444.33 L3038.56 1444.33 L3051.30 1444.33 L3051.30 1444.33 L3057.61 1444.33 L3057.61 1444.08 L3063.93 1444.08 L3063.93 1443.96 L3070.24 1443.96 L3070.24 1443.34 L3076.55 1443.34 L3076.55 1442.97 L3082.86 1442.97 L3082.86 1442.60 L3089.30 1442.60 L3089.30 1442.35 L3095.61 1442.35 L3095.61 1441.98 L3101.92 1441.98 L3101.92 1441.36 L3108.23 1441.36 L3108.23 1441.24 L3114.54 1441.24 L3114.54 1441.24 L3120.97 1441.24 L3120.97 1440.99 L3127.29 1440.99 L3127.29 1440.62 L3133.60 1440.62 L3133.60 1440.12 L3139.91 1440.12 L3139.91 1439.88 L3146.22 1439.88 L3146.22 1439.26 L3152.53 1439.26 L3152.53 1438.89 L3158.97 1438.89 L3158.97 1438.14 L3165.28 1438.14 L3165.28 1312.04 L3171.59 1312.04 L3171.59 1312.04 L3177.90 1312.04 L3177.90 1312.04 L3215.89 1312.04 L3215.89 1312.04 L3228.64 1312.04 L3228.64 1312.04 L3234.95 1312.04 L3234.95 1312.04 L3253.88 1312.04 L3253.88 1312.04 L3260.32 1312.04 L3260.32 1311.79 L3272.94 1311.79 L3272.94 1311.79 L3285.56 1311.79 L3285.56 1311.79 L3292.00 1311.79 L3292.00 1311.42 L3298.31 1311.42 L3298.31 1311.05 L3304.62 1311.05 L3304.62 1311.05 L3310.93 1311.05 L3310.93 1310.80 L3323.55 1310.80 L3323.55 1310.43 L3329.99 1310.43 L3329.99 1310.43 L3336.30 1310.43 L3336.30 1310.43 L3342.61 1310.43 L3342.61 1310.18 L3348.92 1310.18 L3348.92 1310.06 L3355.23 1310.06 L3355.23 1309.81 L3361.67 1309.81 L3361.67 1240.14 L3380.60 1240.14 L3380.60 1240.14 L3405.97 1240.14 L3405.97 1240.14 L3412.28 1240.14 L3412.28 1240.14 L3418.59 1240.14 L3418.59 1240.14 L3431.34 1240.14 L3431.34 1240.14 L3437.65 1240.14 L3437.65 1240.14 L3443.96 1240.14 L3443.96 1240.14 L3450.27 1240.14 L3450.27 1240.14 L3456.59 1240.14 L3456.59 1239.77 L3469.33 1239.77 L3469.33 1239.64 L3475.64 1239.64 L3475.64 1239.64 L3481.95 1239.64 L3481.95 1239.64 L3488.26 1239.64 L3488.26 1239.39 L3494.58 1239.39 L3494.58 1239.27 L3501.01 1239.27 L3501.01 1239.02 L3513.63 1239.02 L3513.63 1239.02 L3519.95 1239.02 L3519.95 1239.02 L3526.26 1239.02 L3526.26 1238.78 L3532.69 1238.78 L3532.69 1238.40 L3551.63 1238.40 L3551.63 1203.26 L3634.04 1203.26 L3634.04 1203.26 L3672.03 1203.26 L3672.03 1203.26" stroke-linejoin="round" style="fill:none;stroke:#90353B;stroke-width:6.48"/>
	<path d=" M2512.87 1825.99 L2519.18 1825.99 L2519.18 1825.99 L2525.49 1825.99 L2525.49 1825.99 L2531.80 1825.99 L2531.80 1825.99 L2538.11 1825.99 L2538.11 1825.99 L2544.55 1825.99 L2544.55 1825.99 L2550.86 1825.99 L2550.86 1825.99 L2557.17 1825.99 L2557.17 1825.99 L2563.48 1825.99 L2563.48 1825.99 L2569.79 1825.99 L2569.79 1825.99 L2576.23 1825.99 L2576.23 1825.99 L2582.54 1825.99 L2582.54 1825.99 L2588.85 1825.99 L2588.85 1825.99 L2595.16 1825.99 L2595.16 1822.65 L2601.47 1822.65 L2601.47 1822.65 L2614.22 1822.65 L2614.22 1822.65 L2620.53 1822.65 L2620.53 1822.65 L2626.84 1822.65 L2626.84 1822.65 L2652.21 1822.65 L2652.21 1822.65 L2658.52 1822.65 L2658.52 1822.65 L2664.83 1822.65 L2664.83 1822.65 L2671.14 1822.65 L2671.14 1822.65 L2677.58 1822.65 L2677.58 1822.65 L2683.89 1822.65 L2683.89 1822.65 L2690.20 1822.65 L2690.20 1822.65 L2696.51 1822.65 L2696.51 1822.65 L2702.82 1822.65 L2702.82 1822.65 L2709.26 1822.65 L2709.26 1822.65 L2715.57 1822.65 L2715.57 1822.65 L2721.88 1822.65 L2721.88 1822.65 L2728.19 1822.65 L2728.19 1822.65 L2734.50 1822.65 L2734.50 1822.65 L2740.82 1822.65 L2740.82 1822.65 L2747.25 1822.65 L2747.25 1822.65 L2753.56 1822.65 L2753.56 1822.65 L2759.87 1822.65 L2759.87 1822.65 L2766.18 1822.65 L2766.18 1822.65 L2772.49 1822.65 L2772.49 1821.78 L2778.93 1821.78 L2778.93 1668.57 L2797.86 1668.57 L2797.86 1668.57 L2804.18 1668.57 L2804.18 1668.57 L2816.92 1668.57 L2816.92 1668.57 L2829.54 1668.57 L2829.54 1668.20 L2835.86 1668.20 L2835.86 1668.20 L2842.17 1668.20 L2842.17 1668.20 L2848.60 1668.20 L2848.60 1668.20 L2854.91 1668.20 L2854.91 1667.46 L2861.22 1667.46 L2861.22 1666.59 L2867.53 1666.59 L2867.53 1665.11 L2873.85 1665.11 L2873.85 1663.50 L2880.28 1663.50 L2880.28 1660.90 L2886.59 1660.90 L2886.59 1655.46 L2892.90 1655.46 L2892.90 1650.01 L2899.22 1650.01 L2899.22 1641.84 L2905.53 1641.84 L2905.53 1634.05 L2911.84 1634.05 L2911.84 1624.76 L2918.27 1624.76 L2918.27 1614.74 L2924.58 1614.74 L2924.58 1608.43 L2930.89 1608.43 L2930.89 1596.42 L2937.21 1596.42 L2937.21 1587.51 L2943.52 1587.51 L2943.52 1579.72 L2949.95 1579.72 L2949.95 1568.83 L2956.26 1568.83 L2956.26 1561.40 L2962.57 1561.40 L2962.57 1550.14 L2968.89 1550.14 L2968.89 1544.32 L2975.20 1544.32 L2975.20 992.26 L3019.62 992.26 L3019.62 992.26 L3025.93 992.26 L3025.93 992.26 L3032.25 992.26 L3032.25 992.26 L3038.56 992.26 L3038.56 992.26 L3044.87 992.26 L3044.87 991.89 L3051.30 991.89 L3051.30 991.52 L3057.61 991.52 L3057.61 991.14 L3063.93 991.14 L3063.93 990.77 L3070.24 990.77 L3070.24 990.40 L3076.55 990.40 L3076.55 987.18 L3082.86 987.18 L3082.86 984.09 L3089.30 984.09 L3089.30 982.11 L3095.61 982.11 L3095.61 979.39 L3101.92 979.39 L3101.92 976.67 L3108.23 976.67 L3108.23 972.71 L3114.54 972.71 L3114.54 969.61 L3120.97 969.61 L3120.97 967.26 L3127.29 967.26 L3127.29 962.93 L3133.60 962.93 L3133.60 960.21 L3139.91 960.21 L3139.91 959.71 L3146.22 959.71 L3146.22 957.36 L3152.53 957.36 L3152.53 955.87 L3158.97 955.87 L3158.97 952.66 L3165.28 952.66 L3165.28 666.66 L3190.65 666.66 L3190.65 666.66 L3209.58 666.66 L3209.58 666.66 L3215.89 666.66 L3215.89 666.29 L3222.33 666.29 L3222.33 666.29 L3228.64 666.29 L3228.64 666.29 L3234.95 666.29 L3234.95 665.80 L3241.26 665.80 L3241.26 665.80 L3247.57 665.80 L3247.57 665.42 L3253.88 665.42 L3253.88 664.31 L3260.32 664.31 L3260.32 663.82 L3266.63 663.82 L3266.63 663.44 L3272.94 663.44 L3272.94 662.70 L3279.25 662.70 L3279.25 661.46 L3285.56 661.46 L3285.56 660.72 L3292.00 660.72 L3292.00 659.11 L3298.31 659.11 L3298.31 658.37 L3304.62 658.37 L3304.62 657.50 L3310.93 657.50 L3310.93 655.90 L3317.24 655.90 L3317.24 655.52 L3323.55 655.52 L3323.55 654.41 L3329.99 654.41 L3329.99 653.54 L3336.30 653.54 L3336.30 653.17 L3342.61 653.17 L3342.61 652.80 L3348.92 652.80 L3348.92 652.43 L3355.23 652.43 L3355.23 651.19 L3361.67 651.19 L3361.67 516.42 L3380.60 516.42 L3380.60 516.42 L3386.91 516.42 L3386.91 516.42 L3405.97 516.42 L3405.97 516.42 L3412.28 516.42 L3412.28 516.42 L3424.91 516.42 L3424.91 516.42 L3431.34 516.42 L3431.34 516.42 L3437.65 516.42 L3437.65 516.42 L3443.96 516.42 L3443.96 516.42 L3450.27 516.42 L3450.27 516.42 L3456.59 516.42 L3456.59 516.42 L3463.02 516.42 L3463.02 516.42 L3469.33 516.42 L3469.33 516.42 L3475.64 516.42 L3475.64 516.42 L3481.95 516.42 L3481.95 516.42 L3488.26 516.42 L3488.26 515.93 L3494.58 515.93 L3494.58 515.93 L3501.01 515.93 L3501.01 515.56 L3507.32 515.56 L3507.32 515.56 L3513.63 515.56 L3513.63 515.56 L3519.95 515.56 L3519.95 515.56 L3532.69 515.56 L3532.69 515.19 L3539.00 515.19 L3539.00 514.82 L3545.31 514.82 L3545.31 514.82 L3551.63 514.82 L3551.63 461.97 L3570.68 461.97 L3570.68 461.97 L3576.99 461.97 L3576.99 461.97 L3583.30 461.97 L3583.30 461.97 L3634.04 461.97 L3634.04 461.97 L3640.35 461.97 L3640.35 461.97 L3659.29 461.97 L3659.29 461.97 L3672.03 461.97 L3672.03 461.97" stroke-linejoin="round" style="fill:none;stroke:#55752F;stroke-width:6.48"/>
	<line x1="2459.04" y1="1873.51" x2="2459.04" y2="414.45" style="stroke:#000000;stroke-width:4.32"/>
	<line x1="2459.04" y1="1825.99" x2="2429.09" y2="1825.99" style="stroke:#000000;stroke-width:4.32"/>
	<text x="2413.99" y="1852.27" style="font-family:'Helvetica';font-size:74.99px;fill:#000000" text-anchor="end">0.000</text>
	<line x1="2459.04" y1="1669.69" x2="2429.09" y2="1669.69" style="stroke:#000000;stroke-width:4.32"/>
	<text x="2413.99" y="1695.97" style="font-family:'Helvetica';font-size:74.99px;fill:#000000" text-anchor="end">0.001</text>
	<line x1="2459.04" y1="1513.26" x2="2429.09" y2="1513.26" style="stroke:#000000;stroke-width:4.32"/>
	<text x="2413.99" y="1539.54" style="font-family:'Helvetica';font-size:74.99px;fill:#000000" text-anchor="end">0.002</text>
	<line x1="2459.04" y1="1356.96" x2="2429.09" y2="1356.96" style="stroke:#000000;stroke-width:4.32"/>
	<text x="2413.99" y="1383.24" style="font-family:'Helvetica';font-size:74.99px;fill:#000000" text-anchor="end">0.003</text>
	<line x1="2459.04" y1="1200.66" x2="2429.09" y2="1200.66" style="stroke:#000000;stroke-width:4.32"/>
	<text x="2413.99" y="1226.94" style="font-family:'Helvetica';font-size:74.99px;fill:#000000" text-anchor="end">0.004</text>
	<line x1="2459.04" y1="1044.36" x2="2429.09" y2="1044.36" style="stroke:#000000;stroke-width:4.32"/>
	<text x="2413.99" y="1070.64" style="font-family:'Helvetica';font-size:74.99px;fill:#000000" text-anchor="end">0.005</text>
	<line x1="2459.04" y1="1873.51" x2="3820.91" y2="1873.51" style="stroke:#000000;stroke-width:4.32"/>
	<line x1="2506.56" y1="1873.51" x2="2506.56" y2="1903.46" style="stroke:#000000;stroke-width:4.32"/>
	<text x="2506.56" y="1970.87" style="font-family:'Helvetica';font-size:74.99px;fill:#000000" text-anchor="middle">1 Feb 20</text>
	<line x1="2690.20" y1="1873.51" x2="2690.20" y2="1903.46" style="stroke:#000000;stroke-width:4.32"/>
	<text x="2690.20" y="1970.87" style="font-family:'Helvetica';font-size:74.99px;fill:#000000" text-anchor="middle">1 Mar 20</text>
	<line x1="2886.59" y1="1873.51" x2="2886.59" y2="1903.46" style="stroke:#000000;stroke-width:4.32"/>
	<text x="2886.59" y="1970.87" style="font-family:'Helvetica';font-size:74.99px;fill:#000000" text-anchor="middle">1 Apr 20</text>
	<line x1="3082.98" y1="1873.51" x2="3082.98" y2="1903.46" style="stroke:#000000;stroke-width:4.32"/>
	<text x="3082.98" y="1970.87" style="font-family:'Helvetica';font-size:74.99px;fill:#000000" text-anchor="middle">1 May 20</text>
	<line x1="3272.94" y1="1873.51" x2="3272.94" y2="1903.46" style="stroke:#000000;stroke-width:4.32"/>
	<text x="3272.94" y="1970.87" style="font-family:'Helvetica';font-size:74.99px;fill:#000000" text-anchor="middle">1 June 20</text>
	<line x1="3463.02" y1="1873.51" x2="3463.02" y2="1903.46" style="stroke:#000000;stroke-width:4.32"/>
	<text x="3463.02" y="1970.87" style="font-family:'Helvetica';font-size:74.99px;fill:#000000" text-anchor="middle">1 July 20</text>
	<line x1="3659.41" y1="1873.51" x2="3659.41" y2="1903.46" style="stroke:#000000;stroke-width:4.32"/>
	<text x="3659.41" y="1970.87" style="font-family:'Helvetica';font-size:74.99px;fill:#000000" text-anchor="middle">1 Aug 20</text>
	<text x="3140.03" y="2053.41" style="font-family:'Helvetica';font-size:74.99px;fill:#000000" text-anchor="middle">Days since 1 Feb 2020</text>
	<text x="3140.03" y="369.91" style="font-family:'Helvetica';font-size:104.94px;fill:#1E2D53" text-anchor="middle">Male</text>
	<text x="150.62" y="1187.29" style="font-family:'Helvetica';font-size:99.99px;fill:#000000" transform="rotate(-90 150.62,1187.29)" text-anchor="middle">Cumulative probability</text>
	<text x="250.61" y="1187.29" style="font-family:'Helvetica';font-size:99.99px;fill:#000000" transform="rotate(-90 250.61,1187.29)" text-anchor="middle">TPP Covid-19 case</text>
	<text x="2097.19" y="157.51" style="font-family:'Helvetica';font-size:110.01px;fill:#000000" text-anchor="middle"> </text>
	<rect x="1302.10" y="2201.21" width="1590.19" height="580.90" style="fill:#FFFFFF"/>
	<rect x="1304.98" y="2204.09" width="1584.43" height="575.14" style="fill:none;stroke:#000000;stroke-width:5.76"/>
	<line x1="1345.29" y1="2408.87" x2="1719.63" y2="2408.87" style="stroke:#1A476F;stroke-width:8.64"/>
	<line x1="1345.29" y1="2548.83" x2="1719.63" y2="2548.83" style="stroke:#90353B;stroke-width:8.64"/>
	<line x1="1345.29" y1="2688.92" x2="1719.63" y2="2688.92" style="stroke:#55752F;stroke-width:8.64"/>
	<text x="1779.65" y="2436.88" style="font-family:'Helvetica';font-size:79.94px;fill:#000000">18-&lt;30</text>
	<text x="1779.65" y="2576.85" style="font-family:'Helvetica';font-size:79.94px;fill:#000000">30-&lt;40</text>
	<text x="1779.65" y="2716.94" style="font-family:'Helvetica';font-size:79.94px;fill:#000000">40-&lt;50</text>
	<text x="2243.22" y="2436.88" style="font-family:'Helvetica';font-size:79.94px;fill:#000000">50-&lt;60</text>
	<text x="2243.22" y="2576.85" style="font-family:'Helvetica';font-size:79.94px;fill:#000000">60-&lt;70</text>
	<text x="2243.22" y="2716.94" style="font-family:'Helvetica';font-size:79.94px;fill:#000000">70-&lt;80</text>
	<text x="2706.78" y="2436.88" style="font-family:'Helvetica';font-size:79.94px;fill:#000000">80+</text>
	<text x="2097.19" y="2308.96" style="font-family:'Helvetica';font-size:79.94px;fill:#000000" text-anchor="middle">Age group</text>
</svg>
