<?xml version="1.0" encoding="UTF-8" standalone="no"?>
<!-- This is a Stata 16.1 generated SVG file (http://www.stata.com) -->

<svg version="1.1" width="5.50in" height="4.00in" viewBox="0 0 3960 2880" xmlns="http://www.w3.org/2000/svg" xmlns:xlink="http://www.w3.org/1999/xlink">
	<desc>Stata Graph - Graph</desc>
	<rect x="0" y="0" width="3960" height="2880" style="fill:#EAF2F3;stroke:none"/>
	<rect x="0.00" y="0.00" width="3959.88" height="2880.00" style="fill:#EAF2F3"/>
	<rect x="2.88" y="2.88" width="3954.12" height="2874.24" style="fill:none;stroke:#EAF2F3;stroke-width:5.76"/>
	<rect x="297.87" y="207.91" width="1799.32" height="1958.65" style="fill:#EAF2F3"/>
	<rect x="300.03" y="210.07" width="1795.01" height="1954.33" style="fill:none;stroke:#EAF2F3;stroke-width:4.32"/>
	<rect x="659.71" y="414.45" width="1361.87" height="1459.06" style="fill:#FFFFFF"/>
	<rect x="661.87" y="416.61" width="1357.55" height="1454.74" style="fill:none;stroke:#FFFFFF;stroke-width:4.32"/>
	<line x1="659.71" y1="1825.99" x2="2021.58" y2="1825.99" style="stroke:#EAF2F3;stroke-width:6.48"/>
	<line x1="659.71" y1="1280.36" x2="2021.58" y2="1280.36" style="stroke:#EAF2F3;stroke-width:6.48"/>
	<line x1="659.71" y1="734.73" x2="2021.58" y2="734.73" style="stroke:#EAF2F3;stroke-width:6.48"/>
	<path d=" M732.48 1825.99 L757.85 1825.99 L757.85 1825.99 L764.16 1825.99 L764.16 1825.99 L770.59 1825.99 L770.59 1825.99 L776.90 1825.99 L776.90 1825.99 L783.21 1825.99 L783.21 1825.99 L808.58 1825.99 L808.58 1825.99 L821.21 1825.99 L821.21 1825.99 L922.56 1825.99 L922.56 1825.99 L928.87 1825.99 L928.87 1825.37 L935.18 1825.37 L935.18 1824.75 L941.61 1824.75 L941.61 1824.01 L960.55 1824.01 L960.55 1823.39 L979.61 1823.39 L979.61 1822.65 L985.92 1822.65 L985.92 1822.03 L992.23 1822.03 L992.23 1821.29 L998.54 1821.29 L998.54 1820.67 L1004.85 1820.67 L1004.85 1819.92 L1011.28 1819.92 L1011.28 1819.31 L1023.91 1819.31 L1023.91 1817.33 L1036.53 1817.33 L1036.53 1814.60 L1042.96 1814.60 L1042.96 1812.62 L1049.28 1812.62 L1049.28 1809.90 L1055.59 1809.90 L1055.59 1805.20 L1061.90 1805.20 L1061.90 1802.48 L1068.21 1802.48 L1068.21 1801.11 L1074.52 1801.11 L1074.52 1799.75 L1080.96 1799.75 L1080.96 1795.79 L1087.27 1795.79 L1087.27 1793.69 L1093.58 1793.69 L1093.58 1790.35 L1099.89 1790.35 L1099.89 1785.64 L1106.20 1785.64 L1106.20 1781.56 L1112.64 1781.56 L1112.64 1776.86 L1118.95 1776.86 L1118.95 1772.90 L1125.26 1772.90 L1125.26 1768.20 L1131.57 1768.20 L1131.57 1764.85 L1137.88 1764.85 L1137.88 1761.39 L1144.32 1761.39 L1144.32 1756.07 L1150.63 1756.07 L1150.63 1748.64 L1156.94 1748.64 L1156.94 1744.56 L1163.25 1744.56 L1163.25 1742.58 L1169.56 1742.58 L1169.56 1739.86 L1175.87 1739.86 L1175.87 1739.24 L1182.31 1739.24 L1182.31 1735.90 L1188.62 1735.90 L1188.62 1733.17 L1194.93 1733.17 L1194.93 1731.19 L1201.24 1731.19 L1201.24 1726.37 L1207.55 1726.37 L1207.55 1725.75 L1213.99 1725.75 L1213.99 1722.41 L1220.30 1722.41 L1220.30 1721.05 L1226.61 1721.05 L1226.61 1719.06 L1232.92 1719.06 L1232.92 1716.96 L1239.23 1716.96 L1239.23 1714.36 L1245.54 1714.36 L1245.54 1713.00 L1251.98 1713.00 L1251.98 1711.64 L1258.29 1711.64 L1258.29 1710.90 L1264.60 1710.90 L1264.60 1708.92 L1270.91 1708.92 L1270.91 1706.19 L1277.22 1706.19 L1277.22 1703.47 L1283.66 1703.47 L1283.66 1702.23 L1289.97 1702.23 L1289.97 1702.23 L1296.28 1702.23 L1296.28 1700.87 L1302.59 1700.87 L1302.59 1698.77 L1308.90 1698.77 L1308.90 1696.79 L1315.34 1696.79 L1315.34 1696.17 L1321.65 1696.17 L1321.65 1694.81 L1327.96 1694.81 L1327.96 1692.09 L1334.27 1692.09 L1334.27 1691.47 L1340.58 1691.47 L1340.58 1689.36 L1346.89 1689.36 L1346.89 1686.02 L1353.33 1686.02 L1353.33 1684.66 L1359.64 1684.66 L1359.64 1684.04 L1365.95 1684.04 L1365.95 1681.94 L1378.58 1681.94 L1378.58 1681.32 L1391.32 1681.32 L1391.32 1681.32 L1397.63 1681.32 L1397.63 1679.96 L1410.26 1679.96 L1410.26 1679.34 L1416.57 1679.34 L1416.57 1679.34 L1423.00 1679.34 L1423.00 1677.98 L1448.25 1677.98 L1448.25 1677.24 L1454.68 1677.24 L1454.68 1675.87 L1467.30 1675.87 L1467.30 1675.26 L1479.93 1675.26 L1479.93 1672.53 L1486.36 1672.53 L1486.36 1671.91 L1492.67 1671.91 L1492.67 1671.17 L1511.61 1671.17 L1511.61 1671.17 L1517.92 1671.17 L1517.92 1669.81 L1530.66 1669.81 L1530.66 1669.81 L1543.29 1669.81 L1543.29 1669.19 L1562.34 1669.19 L1562.34 1667.83 L1568.65 1667.83 L1568.65 1667.21 L1594.02 1667.21 L1594.02 1667.21 L1600.34 1667.21 L1600.34 1666.47 L1606.65 1666.47 L1606.65 1665.11 L1612.96 1665.11 L1612.96 1664.49 L1619.27 1664.49 L1619.27 1663.75 L1632.02 1663.75 L1632.02 1663.13 L1638.33 1663.13 L1638.33 1662.39 L1650.95 1662.39 L1650.95 1662.39 L1657.38 1662.39 L1657.38 1661.77 L1670.01 1661.77 L1670.01 1661.02 L1676.32 1661.02 L1676.32 1661.02 L1688.94 1661.02 L1688.94 1660.41 L1720.62 1660.41 L1720.62 1659.79 L1727.06 1659.79 L1727.06 1659.79 L1745.99 1659.79 L1745.99 1659.04 L1765.05 1659.04 L1765.05 1658.43 L1803.04 1658.43 L1803.04 1657.68 L1809.35 1657.68 L1809.35 1657.68 L1815.66 1657.68 L1815.66 1657.06 L1841.03 1657.06 L1841.03 1657.06 L1872.71 1657.06 L1872.71 1657.06" stroke-linejoin="round" style="fill:none;stroke:#1A476F;stroke-width:6.48"/>
	<path d=" M713.54 1825.99 L726.16 1825.99 L726.16 1825.99 L732.48 1825.99 L732.48 1825.99 L738.91 1825.99 L738.91 1825.99 L745.22 1825.99 L745.22 1825.99 L751.53 1825.99 L751.53 1825.99 L757.85 1825.99 L757.85 1825.99 L764.16 1825.99 L764.16 1825.99 L776.90 1825.99 L776.90 1825.99 L783.21 1825.99 L783.21 1825.99 L795.84 1825.99 L795.84 1825.99 L808.58 1825.99 L808.58 1825.99 L821.21 1825.99 L821.21 1825.99 L833.83 1825.99 L833.83 1825.99 L859.20 1825.99 L859.20 1825.99 L865.51 1825.99 L865.51 1825.99 L878.25 1825.99 L878.25 1825.99 L884.57 1825.99 L884.57 1825.99 L890.88 1825.99 L890.88 1825.99 L897.19 1825.99 L897.19 1825.99 L909.93 1825.99 L909.93 1825.99 L916.25 1825.99 L916.25 1825.99 L922.56 1825.99 L922.56 1825.99 L935.18 1825.99 L935.18 1825.99 L941.61 1825.99 L941.61 1825.74 L947.92 1825.74 L947.92 1825.74 L954.24 1825.74 L954.24 1825.74 L973.29 1825.74 L973.29 1825.74 L979.61 1825.74 L979.61 1825.74 L992.23 1825.74 L992.23 1825.74 L998.54 1825.74 L998.54 1825.12 L1004.85 1825.12 L1004.85 1825.12 L1011.28 1825.12 L1011.28 1824.26 L1017.60 1824.26 L1017.60 1823.02 L1023.91 1823.02 L1023.91 1821.78 L1030.22 1821.78 L1030.22 1819.92 L1036.53 1819.92 L1036.53 1817.57 L1042.96 1817.57 L1042.96 1814.23 L1049.28 1814.23 L1049.28 1810.89 L1055.59 1810.89 L1055.59 1807.18 L1061.90 1807.18 L1061.90 1801.98 L1068.21 1801.98 L1068.21 1796.91 L1074.52 1796.91 L1074.52 1793.19 L1080.96 1793.19 L1080.96 1788.00 L1087.27 1788.00 L1087.27 1783.17 L1093.58 1783.17 L1093.58 1775.25 L1099.89 1775.25 L1099.89 1766.71 L1106.20 1766.71 L1106.20 1757.92 L1112.64 1757.92 L1112.64 1748.52 L1118.95 1748.52 L1118.95 1741.46 L1125.26 1741.46 L1125.26 1733.54 L1131.57 1733.54 L1131.57 1725.38 L1137.88 1725.38 L1137.88 1718.07 L1144.32 1718.07 L1144.32 1711.64 L1150.63 1711.64 L1150.63 1705.33 L1156.94 1705.33 L1156.94 1697.04 L1163.25 1697.04 L1163.25 1692.21 L1169.56 1692.21 L1169.56 1686.39 L1175.87 1686.39 L1175.87 1680.58 L1182.31 1680.58 L1182.31 1675.75 L1188.62 1675.75 L1188.62 1672.16 L1194.93 1672.16 L1194.93 1668.20 L1201.24 1668.20 L1201.24 1664.24 L1207.55 1664.24 L1207.55 1659.66 L1213.99 1659.66 L1213.99 1655.70 L1220.30 1655.70 L1220.30 1651.37 L1226.61 1651.37 L1226.61 1645.93 L1232.92 1645.93 L1232.92 1643.20 L1239.23 1643.20 L1239.23 1638.87 L1245.54 1638.87 L1245.54 1635.28 L1251.98 1635.28 L1251.98 1630.95 L1258.29 1630.95 L1258.29 1628.85 L1264.60 1628.85 L1264.60 1623.65 L1270.91 1623.65 L1270.91 1619.44 L1277.22 1619.44 L1277.22 1615.24 L1283.66 1615.24 L1283.66 1613.63 L1289.97 1613.63 L1289.97 1611.52 L1296.28 1611.52 L1296.28 1606.08 L1302.59 1606.08 L1302.59 1602.98 L1308.90 1602.98 L1308.90 1600.88 L1315.34 1600.88 L1315.34 1599.64 L1321.65 1599.64 L1321.65 1597.54 L1327.96 1597.54 L1327.96 1596.30 L1334.27 1596.30 L1334.27 1594.82 L1340.58 1594.82 L1340.58 1593.83 L1346.89 1593.83 L1346.89 1591.97 L1353.33 1591.97 L1353.33 1589.62 L1359.64 1589.62 L1359.64 1588.63 L1365.95 1588.63 L1365.95 1586.52 L1372.26 1586.52 L1372.26 1586.28 L1378.58 1586.28 L1378.58 1584.42 L1385.01 1584.42 L1385.01 1582.32 L1391.32 1582.32 L1391.32 1581.08 L1397.63 1581.08 L1397.63 1579.22 L1403.94 1579.22 L1403.94 1576.75 L1410.26 1576.75 L1410.26 1574.64 L1416.57 1574.64 L1416.57 1572.17 L1423.00 1572.17 L1423.00 1571.06 L1429.31 1571.06 L1429.31 1568.58 L1435.62 1568.58 L1435.62 1567.10 L1441.93 1567.10 L1441.93 1567.10 L1448.25 1567.10 L1448.25 1565.49 L1454.68 1565.49 L1454.68 1564.00 L1460.99 1564.00 L1460.99 1561.28 L1467.30 1561.28 L1467.30 1560.29 L1473.62 1560.29 L1473.62 1557.94 L1479.93 1557.94 L1479.93 1557.32 L1486.36 1557.32 L1486.36 1556.08 L1492.67 1556.08 L1492.67 1555.09 L1498.98 1555.09 L1498.98 1553.98 L1505.30 1553.98 L1505.30 1553.36 L1511.61 1553.36 L1511.61 1552.37 L1517.92 1552.37 L1517.92 1551.13 L1524.35 1551.13 L1524.35 1550.26 L1530.66 1550.26 L1530.66 1549.03 L1536.97 1549.03 L1536.97 1548.41 L1543.29 1548.41 L1543.29 1548.16 L1549.60 1548.16 L1549.60 1547.17 L1556.03 1547.17 L1556.03 1546.55 L1562.34 1546.55 L1562.34 1545.07 L1568.65 1545.07 L1568.65 1544.20 L1574.97 1544.20 L1574.97 1543.58 L1581.28 1543.58 L1581.28 1543.21 L1587.59 1543.21 L1587.59 1542.59 L1594.02 1542.59 L1594.02 1541.73 L1600.34 1541.73 L1600.34 1541.48 L1606.65 1541.48 L1606.65 1541.48 L1612.96 1541.48 L1612.96 1540.49 L1619.27 1540.49 L1619.27 1539.62 L1625.70 1539.62 L1625.70 1539.00 L1632.02 1539.00 L1632.02 1538.01 L1638.33 1538.01 L1638.33 1538.01 L1644.64 1538.01 L1644.64 1537.77 L1650.95 1537.77 L1650.95 1536.90 L1657.38 1536.90 L1657.38 1536.28 L1663.69 1536.28 L1663.69 1536.28 L1670.01 1536.28 L1670.01 1536.28 L1676.32 1536.28 L1676.32 1535.91 L1682.63 1535.91 L1682.63 1534.42 L1688.94 1534.42 L1688.94 1534.05 L1695.38 1534.05 L1695.38 1534.05 L1701.69 1534.05 L1701.69 1533.81 L1708.00 1533.81 L1708.00 1532.57 L1720.62 1532.57 L1720.62 1532.57 L1727.06 1532.57 L1727.06 1532.57 L1733.37 1532.57 L1733.37 1531.95 L1739.68 1531.95 L1739.68 1531.33 L1745.99 1531.33 L1745.99 1531.08 L1752.30 1531.08 L1752.30 1530.09 L1758.73 1530.09 L1758.73 1529.85 L1765.05 1529.85 L1765.05 1529.23 L1771.36 1529.23 L1771.36 1528.61 L1783.98 1528.61 L1783.98 1527.99 L1790.29 1527.99 L1790.29 1527.99 L1796.73 1527.99 L1796.73 1527.74 L1803.04 1527.74 L1803.04 1527.37 L1809.35 1527.37 L1809.35 1527.37 L1815.66 1527.37 L1815.66 1527.37 L1821.97 1527.37 L1821.97 1526.75 L1841.03 1526.75 L1841.03 1526.75 L1872.71 1526.75 L1872.71 1526.75" stroke-linejoin="round" style="fill:none;stroke:#90353B;stroke-width:6.48"/>
	<path d=" M713.54 1825.99 L719.85 1825.99 L719.85 1825.99 L726.16 1825.99 L726.16 1825.99 L732.48 1825.99 L732.48 1825.99 L738.91 1825.99 L738.91 1825.99 L745.22 1825.99 L745.22 1825.99 L751.53 1825.99 L751.53 1825.99 L757.85 1825.99 L757.85 1825.99 L764.16 1825.99 L764.16 1825.99 L776.90 1825.99 L776.90 1825.99 L783.21 1825.99 L783.21 1825.99 L789.52 1825.99 L789.52 1825.99 L795.84 1825.99 L795.84 1825.99 L802.27 1825.99 L802.27 1825.99 L814.89 1825.99 L814.89 1825.99 L821.21 1825.99 L821.21 1825.99 L827.52 1825.99 L827.52 1825.99 L833.83 1825.99 L833.83 1825.99 L840.26 1825.99 L840.26 1825.99 L846.57 1825.99 L846.57 1825.99 L852.88 1825.99 L852.88 1825.99 L859.20 1825.99 L859.20 1825.99 L865.51 1825.99 L865.51 1825.99 L871.94 1825.99 L871.94 1825.99 L878.25 1825.99 L878.25 1825.99 L884.57 1825.99 L884.57 1825.99 L890.88 1825.99 L890.88 1825.99 L897.19 1825.99 L897.19 1825.99 L903.50 1825.99 L903.50 1825.99 L909.93 1825.99 L909.93 1825.99 L916.25 1825.99 L916.25 1825.99 L922.56 1825.99 L922.56 1825.99 L928.87 1825.99 L928.87 1825.99 L935.18 1825.99 L935.18 1825.99 L941.61 1825.99 L941.61 1825.99 L947.92 1825.99 L947.92 1825.49 L954.24 1825.49 L954.24 1825.49 L960.55 1825.49 L960.55 1825.49 L973.29 1825.49 L973.29 1825.49 L979.61 1825.49 L979.61 1825.49 L985.92 1825.49 L985.92 1823.51 L992.23 1823.51 L992.23 1822.52 L998.54 1822.52 L998.54 1822.03 L1004.85 1822.03 L1004.85 1821.04 L1011.28 1821.04 L1011.28 1820.05 L1017.60 1820.05 L1017.60 1817.57 L1023.91 1817.57 L1023.91 1815.59 L1030.22 1815.59 L1030.22 1811.01 L1036.53 1811.01 L1036.53 1805.57 L1042.96 1805.57 L1042.96 1803.09 L1049.28 1803.09 L1049.28 1797.52 L1055.59 1797.52 L1055.59 1787.62 L1061.90 1787.62 L1061.90 1779.09 L1068.21 1779.09 L1068.21 1772.65 L1074.52 1772.65 L1074.52 1757.06 L1080.96 1757.06 L1080.96 1743.07 L1087.27 1743.07 L1087.27 1729.58 L1093.58 1729.58 L1093.58 1715.10 L1099.89 1715.10 L1099.89 1698.15 L1106.20 1698.15 L1106.20 1674.14 L1112.64 1674.14 L1112.64 1656.57 L1118.95 1656.57 L1118.95 1640.61 L1125.26 1640.61 L1125.26 1618.08 L1131.57 1618.08 L1131.57 1587.02 L1137.88 1587.02 L1137.88 1558.93 L1144.32 1558.93 L1144.32 1527.37 L1150.63 1527.37 L1150.63 1506.33 L1156.94 1506.33 L1156.94 1476.75 L1163.25 1476.75 L1163.25 1452.25 L1169.56 1452.25 L1169.56 1429.60 L1175.87 1429.60 L1175.87 1397.55 L1182.31 1397.55 L1182.31 1370.45 L1188.62 1370.45 L1188.62 1344.34 L1194.93 1344.34 L1194.93 1317.73 L1201.24 1317.73 L1201.24 1293.72 L1207.55 1293.72 L1207.55 1271.57 L1213.99 1271.57 L1213.99 1251.03 L1220.30 1251.03 L1220.30 1231.85 L1226.61 1231.85 L1226.61 1214.77 L1232.92 1214.77 L1232.92 1193.73 L1239.23 1193.73 L1239.23 1178.63 L1245.54 1178.63 L1245.54 1162.05 L1251.98 1162.05 L1251.98 1142.50 L1258.29 1142.50 L1258.29 1124.43 L1264.60 1124.43 L1264.60 1105.74 L1270.91 1105.74 L1270.91 1092.75 L1277.22 1092.75 L1277.22 1073.56 L1283.66 1073.56 L1283.66 1060.57 L1289.97 1060.57 L1289.97 1050.92 L1296.28 1050.92 L1296.28 1031.86 L1302.59 1031.86 L1302.59 1018.25 L1308.90 1018.25 L1308.90 1005.75 L1315.34 1005.75 L1315.34 994.11 L1321.65 994.11 L1321.65 981.99 L1327.96 981.99 L1327.96 965.90 L1334.27 965.90 L1334.27 950.80 L1340.58 950.80 L1340.58 941.27 L1346.89 941.27 L1346.89 932.73 L1353.33 932.73 L1353.33 922.59 L1359.64 922.59 L1359.64 908.97 L1365.95 908.97 L1365.95 897.96 L1372.26 897.96 L1372.26 890.41 L1378.58 890.41 L1378.58 878.28 L1385.01 878.28 L1385.01 867.64 L1391.32 867.64 L1391.32 856.13 L1397.63 856.13 L1397.63 844.99 L1403.94 844.99 L1403.94 835.96 L1410.26 835.96 L1410.26 826.80 L1416.57 826.80 L1416.57 822.34 L1423.00 822.34 L1423.00 817.27 L1429.31 817.27 L1429.31 806.63 L1435.62 806.63 L1435.62 798.58 L1441.93 798.58 L1441.93 791.03 L1448.25 791.03 L1448.25 783.98 L1454.68 783.98 L1454.68 777.42 L1460.99 777.42 L1460.99 770.37 L1467.30 770.37 L1467.30 761.21 L1473.62 761.21 L1473.62 755.15 L1479.93 755.15 L1479.93 749.58 L1486.36 749.58 L1486.36 744.01 L1492.67 744.01 L1492.67 737.45 L1498.98 737.45 L1498.98 730.40 L1505.30 730.40 L1505.30 725.82 L1511.61 725.82 L1511.61 722.35 L1517.92 722.35 L1517.92 717.28 L1524.35 717.28 L1524.35 713.19 L1530.66 713.19 L1530.66 709.23 L1536.97 709.23 L1536.97 706.63 L1543.29 706.63 L1543.29 701.07 L1549.60 701.07 L1549.60 697.60 L1556.03 697.60 L1556.03 692.53 L1562.34 692.53 L1562.34 691.04 L1568.65 691.04 L1568.65 688.44 L1574.97 688.44 L1574.97 686.46 L1581.28 686.46 L1581.28 682.38 L1587.59 682.38 L1587.59 679.28 L1594.02 679.28 L1594.02 676.81 L1600.34 676.81 L1600.34 675.82 L1606.65 675.82 L1606.65 674.83 L1612.96 674.83 L1612.96 672.73 L1619.27 672.73 L1619.27 669.76 L1625.70 669.76 L1625.70 668.15 L1632.02 668.15 L1632.02 665.18 L1638.33 665.18 L1638.33 662.08 L1644.64 662.08 L1644.64 659.61 L1650.95 659.61 L1650.95 658.62 L1657.38 658.62 L1657.38 656.02 L1663.69 656.02 L1663.69 654.53 L1670.01 654.53 L1670.01 653.05 L1676.32 653.05 L1676.32 649.96 L1682.63 649.96 L1682.63 648.47 L1688.94 648.47 L1688.94 647.36 L1695.38 647.36 L1695.38 645.87 L1701.69 645.87 L1701.69 644.39 L1708.00 644.39 L1708.00 642.90 L1714.31 642.90 L1714.31 641.79 L1720.62 641.79 L1720.62 640.30 L1727.06 640.30 L1727.06 640.30 L1733.37 640.30 L1733.37 639.81 L1739.68 639.81 L1739.68 638.32 L1745.99 638.32 L1745.99 637.21 L1752.30 637.21 L1752.30 636.71 L1758.73 636.71 L1758.73 636.22 L1765.05 636.22 L1765.05 635.72 L1771.36 635.72 L1771.36 635.23 L1777.67 635.23 L1777.67 634.73 L1783.98 634.73 L1783.98 634.73 L1790.29 634.73 L1790.29 633.74 L1796.73 633.74 L1796.73 633.12 L1803.04 633.12 L1803.04 631.14 L1809.35 631.14 L1809.35 630.15 L1815.66 630.15 L1815.66 630.15 L1821.97 630.15 L1821.97 629.66 L1828.41 629.66 L1828.41 629.66 L1834.72 629.66 L1834.72 629.66 L1841.03 629.66 L1841.03 629.66 L1847.34 629.66 L1847.34 629.16 L1853.65 629.16 L1853.65 628.55 L1872.71 628.55 L1872.71 628.55" stroke-linejoin="round" style="fill:none;stroke:#55752F;stroke-width:6.48"/>
	<line x1="659.71" y1="1873.51" x2="659.71" y2="414.45" style="stroke:#000000;stroke-width:4.32"/>
	<line x1="659.71" y1="1825.99" x2="629.76" y2="1825.99" style="stroke:#000000;stroke-width:4.32"/>
	<text x="614.79" y="1852.27" style="font-family:'Helvetica';font-size:74.99px;fill:#000000" text-anchor="end">0.000</text>
	<line x1="659.71" y1="1280.36" x2="629.76" y2="1280.36" style="stroke:#000000;stroke-width:4.32"/>
	<text x="614.79" y="1306.64" style="font-family:'Helvetica';font-size:74.99px;fill:#000000" text-anchor="end">0.002</text>
	<line x1="659.71" y1="734.73" x2="629.76" y2="734.73" style="stroke:#000000;stroke-width:4.32"/>
	<text x="614.79" y="761.01" style="font-family:'Helvetica';font-size:74.99px;fill:#000000" text-anchor="end">0.004</text>
	<line x1="659.71" y1="1873.51" x2="2021.58" y2="1873.51" style="stroke:#000000;stroke-width:4.32"/>
	<line x1="707.23" y1="1873.51" x2="707.23" y2="1903.46" style="stroke:#000000;stroke-width:4.32"/>
	<text x="707.23" y="1970.87" style="font-family:'Helvetica';font-size:74.99px;fill:#000000" text-anchor="middle">1 Feb 20</text>
	<line x1="891.00" y1="1873.51" x2="891.00" y2="1903.46" style="stroke:#000000;stroke-width:4.32"/>
	<text x="891.00" y="1970.87" style="font-family:'Helvetica';font-size:74.99px;fill:#000000" text-anchor="middle">1 Mar 20</text>
	<line x1="1087.27" y1="1873.51" x2="1087.27" y2="1903.46" style="stroke:#000000;stroke-width:4.32"/>
	<text x="1087.27" y="1970.87" style="font-family:'Helvetica';font-size:74.99px;fill:#000000" text-anchor="middle">1 Apr 20</text>
	<line x1="1283.66" y1="1873.51" x2="1283.66" y2="1903.46" style="stroke:#000000;stroke-width:4.32"/>
	<text x="1283.66" y="1970.87" style="font-family:'Helvetica';font-size:74.99px;fill:#000000" text-anchor="middle">1 May 20</text>
	<line x1="1473.74" y1="1873.51" x2="1473.74" y2="1903.46" style="stroke:#000000;stroke-width:4.32"/>
	<text x="1473.74" y="1970.87" style="font-family:'Helvetica';font-size:74.99px;fill:#000000" text-anchor="middle">1 June 20</text>
	<line x1="1663.69" y1="1873.51" x2="1663.69" y2="1903.46" style="stroke:#000000;stroke-width:4.32"/>
	<text x="1663.69" y="1970.87" style="font-family:'Helvetica';font-size:74.99px;fill:#000000" text-anchor="middle">1 July 20</text>
	<line x1="1860.09" y1="1873.51" x2="1860.09" y2="1903.46" style="stroke:#000000;stroke-width:4.32"/>
	<text x="1860.09" y="1970.87" style="font-family:'Helvetica';font-size:74.99px;fill:#000000" text-anchor="middle">1 Aug 20</text>
	<text x="1340.71" y="2053.41" style="font-family:'Helvetica';font-size:74.99px;fill:#000000" text-anchor="middle"> </text>
	<text x="1340.71" y="369.91" style="font-family:'Helvetica';font-size:104.94px;fill:#1E2D53" text-anchor="middle">Female</text>
	<rect x="2097.19" y="207.91" width="1799.33" height="1958.65" style="fill:#EAF2F3"/>
	<rect x="2099.35" y="210.07" width="1795.01" height="1954.33" style="fill:none;stroke:#EAF2F3;stroke-width:4.32"/>
	<rect x="2459.04" y="414.45" width="1361.87" height="1459.06" style="fill:#FFFFFF"/>
	<rect x="2461.20" y="416.61" width="1357.55" height="1454.74" style="fill:none;stroke:#FFFFFF;stroke-width:4.32"/>
	<line x1="2459.04" y1="1825.99" x2="3820.91" y2="1825.99" style="stroke:#EAF2F3;stroke-width:6.48"/>
	<line x1="2459.04" y1="1466.48" x2="3820.91" y2="1466.48" style="stroke:#EAF2F3;stroke-width:6.48"/>
	<line x1="2459.04" y1="1106.98" x2="3820.91" y2="1106.98" style="stroke:#EAF2F3;stroke-width:6.48"/>
	<path d=" M2512.87 1825.99 L2538.11 1825.99 L2538.11 1825.99 L2544.55 1825.99 L2544.55 1825.99 L2550.86 1825.99 L2550.86 1825.99 L2563.48 1825.99 L2563.48 1825.99 L2576.23 1825.99 L2576.23 1825.99 L2582.54 1825.99 L2582.54 1825.99 L2588.85 1825.99 L2588.85 1825.99 L2607.91 1825.99 L2607.91 1825.99 L2626.84 1825.99 L2626.84 1825.99 L2645.90 1825.99 L2645.90 1825.99 L2696.51 1825.99 L2696.51 1825.99 L2709.26 1825.99 L2709.26 1825.99 L2728.19 1825.99 L2728.19 1825.62 L2734.50 1825.62 L2734.50 1825.12 L2753.56 1825.12 L2753.56 1825.12 L2766.18 1825.12 L2766.18 1824.63 L2772.49 1824.63 L2772.49 1824.13 L2778.93 1824.13 L2778.93 1823.64 L2791.55 1823.64 L2791.55 1823.27 L2797.86 1823.27 L2797.86 1821.78 L2804.18 1821.78 L2804.18 1819.06 L2810.49 1819.06 L2810.49 1817.20 L2816.92 1817.20 L2816.92 1816.21 L2823.23 1816.21 L2823.23 1813.86 L2829.54 1813.86 L2829.54 1812.87 L2835.86 1812.87 L2835.86 1810.64 L2842.17 1810.64 L2842.17 1807.80 L2848.60 1807.80 L2848.60 1805.94 L2854.91 1805.94 L2854.91 1802.60 L2861.22 1802.60 L2861.22 1797.90 L2867.53 1797.90 L2867.53 1792.82 L2873.85 1792.82 L2873.85 1788.61 L2880.28 1788.61 L2880.28 1782.43 L2886.59 1782.43 L2886.59 1774.51 L2892.90 1774.51 L2892.90 1765.10 L2899.22 1765.10 L2899.22 1757.68 L2905.53 1757.68 L2905.53 1751.49 L2911.84 1751.49 L2911.84 1744.06 L2918.27 1744.06 L2918.27 1738.00 L2924.58 1738.00 L2924.58 1733.30 L2930.89 1733.30 L2930.89 1727.60 L2937.21 1727.60 L2937.21 1724.39 L2943.52 1724.39 L2943.52 1718.69 L2949.95 1718.69 L2949.95 1713.99 L2956.26 1713.99 L2956.26 1711.76 L2962.57 1711.76 L2962.57 1703.22 L2968.89 1703.22 L2968.89 1700.50 L2975.20 1700.50 L2975.20 1695.80 L2981.51 1695.80 L2981.51 1692.46 L2987.94 1692.46 L2987.94 1690.60 L2994.26 1690.60 L2994.26 1689.24 L3000.57 1689.24 L3000.57 1685.40 L3006.88 1685.40 L3006.88 1683.05 L3013.19 1683.05 L3013.19 1678.84 L3019.62 1678.84 L3019.62 1676.12 L3025.93 1676.12 L3025.93 1673.77 L3032.25 1673.77 L3032.25 1672.78 L3038.56 1672.78 L3038.56 1670.92 L3044.87 1670.92 L3044.87 1668.08 L3051.30 1668.08 L3051.30 1664.37 L3057.61 1664.37 L3057.61 1661.52 L3063.93 1661.52 L3063.93 1659.66 L3070.24 1659.66 L3070.24 1658.30 L3076.55 1658.30 L3076.55 1656.82 L3082.86 1656.82 L3082.86 1656.82 L3089.30 1656.82 L3089.30 1655.46 L3095.61 1655.46 L3095.61 1653.97 L3101.92 1653.97 L3101.92 1653.10 L3108.23 1653.10 L3108.23 1649.39 L3114.54 1649.39 L3114.54 1647.91 L3120.97 1647.91 L3120.97 1645.56 L3127.29 1645.56 L3127.29 1645.06 L3133.60 1645.06 L3133.60 1644.19 L3139.91 1644.19 L3139.91 1642.71 L3146.22 1642.71 L3146.22 1641.84 L3152.53 1641.84 L3152.53 1641.35 L3158.97 1641.35 L3158.97 1640.36 L3165.28 1640.36 L3165.28 1639.49 L3171.59 1639.49 L3171.59 1639.00 L3177.90 1639.00 L3177.90 1639.00 L3184.21 1639.00 L3184.21 1636.64 L3190.65 1636.64 L3190.65 1634.79 L3196.96 1634.79 L3196.96 1633.43 L3203.27 1633.43 L3203.27 1632.93 L3209.58 1632.93 L3209.58 1631.94 L3215.89 1631.94 L3215.89 1631.08 L3228.64 1631.08 L3228.64 1630.58 L3234.95 1630.58 L3234.95 1630.58 L3241.26 1630.58 L3241.26 1630.09 L3247.57 1630.09 L3247.57 1629.10 L3253.88 1629.10 L3253.88 1628.23 L3260.32 1628.23 L3260.32 1627.73 L3266.63 1627.73 L3266.63 1626.37 L3272.94 1626.37 L3272.94 1625.88 L3279.25 1625.88 L3279.25 1624.89 L3292.00 1624.89 L3292.00 1624.39 L3298.31 1624.39 L3298.31 1623.53 L3304.62 1623.53 L3304.62 1622.54 L3310.93 1622.54 L3310.93 1622.04 L3317.24 1622.04 L3317.24 1621.67 L3323.55 1621.67 L3323.55 1620.68 L3329.99 1620.68 L3329.99 1620.19 L3336.30 1620.19 L3336.30 1620.19 L3342.61 1620.19 L3342.61 1620.19 L3355.23 1620.19 L3355.23 1619.32 L3361.67 1619.32 L3361.67 1618.33 L3367.98 1618.33 L3367.98 1617.83 L3374.29 1617.83 L3374.29 1617.34 L3380.60 1617.34 L3380.60 1616.47 L3386.91 1616.47 L3386.91 1615.48 L3393.35 1615.48 L3393.35 1614.99 L3405.97 1614.99 L3405.97 1614.62 L3412.28 1614.62 L3412.28 1613.63 L3418.59 1613.63 L3418.59 1613.13 L3437.65 1613.13 L3437.65 1612.27 L3443.96 1612.27 L3443.96 1611.77 L3450.27 1611.77 L3450.27 1611.77 L3456.59 1611.77 L3456.59 1611.28 L3463.02 1611.28 L3463.02 1610.78 L3488.26 1610.78 L3488.26 1610.78 L3513.63 1610.78 L3513.63 1610.29 L3519.95 1610.29 L3519.95 1610.29 L3526.26 1610.29 L3526.26 1609.91 L3532.69 1609.91 L3532.69 1609.42 L3570.68 1609.42 L3570.68 1608.92 L3589.62 1608.92 L3589.62 1608.43 L3595.93 1608.43 L3595.93 1608.43 L3614.99 1608.43 L3614.99 1607.93 L3621.30 1607.93 L3621.30 1607.56 L3672.03 1607.56 L3672.03 1607.56" stroke-linejoin="round" style="fill:none;stroke:#1A476F;stroke-width:6.48"/>
	<path d=" M2512.87 1825.99 L2525.49 1825.99 L2525.49 1825.99 L2538.11 1825.99 L2538.11 1825.99 L2544.55 1825.99 L2544.55 1825.99 L2550.86 1825.99 L2550.86 1825.99 L2557.17 1825.99 L2557.17 1825.99 L2563.48 1825.99 L2563.48 1825.99 L2569.79 1825.99 L2569.79 1825.99 L2576.23 1825.99 L2576.23 1825.99 L2595.16 1825.99 L2595.16 1825.99 L2601.47 1825.99 L2601.47 1825.99 L2607.91 1825.99 L2607.91 1825.99 L2614.22 1825.99 L2614.22 1825.99 L2620.53 1825.99 L2620.53 1825.99 L2626.84 1825.99 L2626.84 1825.99 L2633.15 1825.99 L2633.15 1825.99 L2639.46 1825.99 L2639.46 1825.99 L2645.90 1825.99 L2645.90 1825.99 L2652.21 1825.99 L2652.21 1825.99 L2658.52 1825.99 L2658.52 1825.99 L2664.83 1825.99 L2664.83 1825.99 L2671.14 1825.99 L2671.14 1825.99 L2677.58 1825.99 L2677.58 1825.99 L2683.89 1825.99 L2683.89 1825.99 L2690.20 1825.99 L2690.20 1825.86 L2696.51 1825.86 L2696.51 1825.86 L2702.82 1825.86 L2702.82 1825.86 L2721.88 1825.86 L2721.88 1825.62 L2734.50 1825.62 L2734.50 1825.62 L2740.82 1825.62 L2740.82 1825.62 L2747.25 1825.62 L2747.25 1825.12 L2759.87 1825.12 L2759.87 1825.00 L2766.18 1825.00 L2766.18 1824.75 L2772.49 1824.75 L2772.49 1824.50 L2778.93 1824.50 L2778.93 1823.64 L2785.24 1823.64 L2785.24 1822.28 L2791.55 1822.28 L2791.55 1821.04 L2797.86 1821.04 L2797.86 1820.30 L2804.18 1820.30 L2804.18 1818.56 L2810.49 1818.56 L2810.49 1816.58 L2816.92 1816.58 L2816.92 1815.72 L2823.23 1815.72 L2823.23 1813.74 L2829.54 1813.74 L2829.54 1810.89 L2835.86 1810.89 L2835.86 1807.80 L2842.17 1807.80 L2842.17 1802.72 L2848.60 1802.72 L2848.60 1799.26 L2854.91 1799.26 L2854.91 1794.18 L2861.22 1794.18 L2861.22 1788.00 L2867.53 1788.00 L2867.53 1781.56 L2873.85 1781.56 L2873.85 1772.77 L2880.28 1772.77 L2880.28 1761.76 L2886.59 1761.76 L2886.59 1749.76 L2892.90 1749.76 L2892.90 1739.61 L2899.22 1739.61 L2899.22 1729.71 L2905.53 1729.71 L2905.53 1720.18 L2911.84 1720.18 L2911.84 1710.28 L2918.27 1710.28 L2918.27 1698.89 L2924.58 1698.89 L2924.58 1686.27 L2930.89 1686.27 L2930.89 1674.88 L2937.21 1674.88 L2937.21 1666.72 L2943.52 1666.72 L2943.52 1659.17 L2949.95 1659.17 L2949.95 1649.27 L2956.26 1649.27 L2956.26 1642.21 L2962.57 1642.21 L2962.57 1634.54 L2968.89 1634.54 L2968.89 1624.89 L2975.20 1624.89 L2975.20 1615.85 L2981.51 1615.85 L2981.51 1609.67 L2987.94 1609.67 L2987.94 1601.75 L2994.26 1601.75 L2994.26 1595.81 L3000.57 1595.81 L3000.57 1589.12 L3006.88 1589.12 L3006.88 1583.43 L3013.19 1583.43 L3013.19 1578.36 L3019.62 1578.36 L3019.62 1574.64 L3025.93 1574.64 L3025.93 1568.46 L3032.25 1568.46 L3032.25 1561.16 L3038.56 1561.16 L3038.56 1556.82 L3044.87 1556.82 L3044.87 1551.75 L3051.30 1551.75 L3051.30 1547.79 L3057.61 1547.79 L3057.61 1542.84 L3063.93 1542.84 L3063.93 1539.62 L3070.24 1539.62 L3070.24 1535.66 L3076.55 1535.66 L3076.55 1532.57 L3082.86 1532.57 L3082.86 1527.62 L3089.30 1527.62 L3089.30 1525.51 L3095.61 1525.51 L3095.61 1522.17 L3101.92 1522.17 L3101.92 1520.19 L3108.23 1520.19 L3108.23 1517.35 L3114.54 1517.35 L3114.54 1514.25 L3120.97 1514.25 L3120.97 1511.53 L3127.29 1511.53 L3127.29 1508.93 L3133.60 1508.93 L3133.60 1506.95 L3139.91 1506.95 L3139.91 1505.34 L3146.22 1505.34 L3146.22 1501.88 L3152.53 1501.88 L3152.53 1499.03 L3158.97 1499.03 L3158.97 1497.42 L3165.28 1497.42 L3165.28 1496.31 L3171.59 1496.31 L3171.59 1493.46 L3177.90 1493.46 L3177.90 1491.73 L3184.21 1491.73 L3184.21 1489.50 L3190.65 1489.50 L3190.65 1487.77 L3196.96 1487.77 L3196.96 1485.29 L3203.27 1485.29 L3203.27 1483.56 L3209.58 1483.56 L3209.58 1482.70 L3215.89 1482.70 L3215.89 1481.95 L3222.33 1481.95 L3222.33 1479.97 L3228.64 1479.97 L3228.64 1478.49 L3234.95 1478.49 L3234.95 1476.26 L3241.26 1476.26 L3241.26 1473.78 L3247.57 1473.78 L3247.57 1472.92 L3253.88 1472.92 L3253.88 1470.94 L3260.32 1470.94 L3260.32 1469.21 L3266.63 1469.21 L3266.63 1468.46 L3272.94 1468.46 L3272.94 1468.09 L3279.25 1468.09 L3279.25 1467.47 L3285.56 1467.47 L3285.56 1465.37 L3292.00 1465.37 L3292.00 1463.27 L3298.31 1463.27 L3298.31 1461.90 L3304.62 1461.90 L3304.62 1461.66 L3310.93 1461.66 L3310.93 1460.79 L3317.24 1460.79 L3317.24 1459.43 L3323.55 1459.43 L3323.55 1458.56 L3329.99 1458.56 L3329.99 1458.19 L3336.30 1458.19 L3336.30 1457.70 L3342.61 1457.70 L3342.61 1457.20 L3348.92 1457.20 L3348.92 1455.72 L3355.23 1455.72 L3355.23 1455.47 L3361.67 1455.47 L3361.67 1454.60 L3367.98 1454.60 L3367.98 1453.49 L3374.29 1453.49 L3374.29 1452.38 L3380.60 1452.38 L3380.60 1451.88 L3386.91 1451.88 L3386.91 1451.51 L3393.35 1451.51 L3393.35 1451.26 L3399.66 1451.26 L3399.66 1450.15 L3405.97 1450.15 L3405.97 1449.78 L3412.28 1449.78 L3412.28 1449.53 L3418.59 1449.53 L3418.59 1449.53 L3424.91 1449.53 L3424.91 1448.17 L3431.34 1448.17 L3431.34 1447.80 L3437.65 1447.80 L3437.65 1447.30 L3443.96 1447.30 L3443.96 1446.44 L3450.27 1446.44 L3450.27 1445.69 L3456.59 1445.69 L3456.59 1444.70 L3463.02 1444.70 L3463.02 1444.21 L3469.33 1444.21 L3469.33 1443.71 L3475.64 1443.71 L3475.64 1443.34 L3481.95 1443.34 L3481.95 1442.60 L3488.26 1442.60 L3488.26 1440.87 L3494.58 1440.87 L3494.58 1440.62 L3501.01 1440.62 L3501.01 1440.50 L3513.63 1440.50 L3513.63 1440.25 L3519.95 1440.25 L3519.95 1440.00 L3526.26 1440.00 L3526.26 1439.38 L3532.69 1439.38 L3532.69 1439.13 L3545.31 1439.13 L3545.31 1438.64 L3551.63 1438.64 L3551.63 1438.27 L3557.94 1438.27 L3557.94 1438.02 L3564.37 1438.02 L3564.37 1437.52 L3570.68 1437.52 L3570.68 1437.52 L3576.99 1437.52 L3576.99 1437.15 L3589.62 1437.15 L3589.62 1436.91 L3602.36 1436.91 L3602.36 1436.91 L3614.99 1436.91 L3614.99 1436.66 L3621.30 1436.66 L3621.30 1436.41 L3627.61 1436.41 L3627.61 1436.29 L3634.04 1436.29 L3634.04 1436.04 L3672.03 1436.04 L3672.03 1436.04" stroke-linejoin="round" style="fill:none;stroke:#90353B;stroke-width:6.48"/>
	<path d=" M2512.87 1825.99 L2519.18 1825.99 L2519.18 1825.99 L2525.49 1825.99 L2525.49 1825.99 L2531.80 1825.99 L2531.80 1825.99 L2538.11 1825.99 L2538.11 1825.99 L2544.55 1825.99 L2544.55 1825.99 L2550.86 1825.99 L2550.86 1825.99 L2557.17 1825.99 L2557.17 1825.99 L2563.48 1825.99 L2563.48 1825.99 L2569.79 1825.99 L2569.79 1825.99 L2576.23 1825.99 L2576.23 1825.99 L2582.54 1825.99 L2582.54 1825.99 L2588.85 1825.99 L2588.85 1825.99 L2595.16 1825.99 L2595.16 1825.99 L2601.47 1825.99 L2601.47 1825.99 L2607.91 1825.99 L2607.91 1825.99 L2614.22 1825.99 L2614.22 1825.99 L2620.53 1825.99 L2620.53 1825.99 L2626.84 1825.99 L2626.84 1825.99 L2633.15 1825.99 L2633.15 1825.99 L2639.46 1825.99 L2639.46 1825.99 L2645.90 1825.99 L2645.90 1825.99 L2652.21 1825.99 L2652.21 1825.99 L2658.52 1825.99 L2658.52 1825.99 L2664.83 1825.99 L2664.83 1825.99 L2671.14 1825.99 L2671.14 1825.99 L2677.58 1825.99 L2677.58 1825.99 L2683.89 1825.99 L2683.89 1825.99 L2690.20 1825.99 L2690.20 1825.99 L2696.51 1825.99 L2696.51 1825.99 L2702.82 1825.99 L2702.82 1825.99 L2709.26 1825.99 L2709.26 1825.99 L2715.57 1825.99 L2715.57 1825.62 L2721.88 1825.62 L2721.88 1825.62 L2728.19 1825.62 L2728.19 1825.62 L2734.50 1825.62 L2734.50 1825.12 L2740.82 1825.12 L2740.82 1824.75 L2747.25 1824.75 L2747.25 1824.26 L2753.56 1824.26 L2753.56 1824.26 L2759.87 1824.26 L2759.87 1824.26 L2766.18 1824.26 L2766.18 1823.88 L2772.49 1823.88 L2772.49 1822.52 L2778.93 1822.52 L2778.93 1821.16 L2785.24 1821.16 L2785.24 1820.30 L2791.55 1820.30 L2791.55 1818.93 L2797.86 1818.93 L2797.86 1817.20 L2804.18 1817.20 L2804.18 1814.97 L2810.49 1814.97 L2810.49 1812.75 L2816.92 1812.75 L2816.92 1807.92 L2823.23 1807.92 L2823.23 1802.10 L2829.54 1802.10 L2829.54 1799.01 L2835.86 1799.01 L2835.86 1791.09 L2842.17 1791.09 L2842.17 1781.81 L2848.60 1781.81 L2848.60 1766.22 L2854.91 1766.22 L2854.91 1759.53 L2861.22 1759.53 L2861.22 1744.93 L2867.53 1744.93 L2867.53 1728.47 L2873.85 1728.47 L2873.85 1709.41 L2880.28 1709.41 L2880.28 1688.13 L2886.59 1688.13 L2886.59 1664.12 L2892.90 1664.12 L2892.90 1641.47 L2899.22 1641.47 L2899.22 1614.74 L2905.53 1614.74 L2905.53 1584.17 L2911.84 1584.17 L2911.84 1552.12 L2918.27 1552.12 L2918.27 1516.97 L2924.58 1516.97 L2924.58 1492.97 L2930.89 1492.97 L2930.89 1453.74 L2937.21 1453.74 L2937.21 1421.68 L2943.52 1421.68 L2943.52 1386.04 L2949.95 1386.04 L2949.95 1348.17 L2956.26 1348.17 L2956.26 1324.54 L2962.57 1324.54 L2962.57 1295.58 L2968.89 1295.58 L2968.89 1270.21 L2975.20 1270.21 L2975.20 1244.35 L2981.51 1244.35 L2981.51 1217.99 L2987.94 1217.99 L2987.94 1186.80 L2994.26 1186.80 L2994.26 1160.44 L3000.57 1160.44 L3000.57 1138.16 L3006.88 1138.16 L3006.88 1117.62 L3013.19 1117.62 L3013.19 1088.17 L3019.62 1088.17 L3019.62 1066.26 L3025.93 1066.26 L3025.93 1046.09 L3032.25 1046.09 L3032.25 1025.55 L3038.56 1025.55 L3038.56 1007.73 L3044.87 1007.73 L3044.87 988.92 L3051.30 988.92 L3051.30 970.97 L3057.61 970.97 L3057.61 949.93 L3063.93 949.93 L3063.93 932.98 L3070.24 932.98 L3070.24 908.35 L3076.55 908.35 L3076.55 890.41 L3082.86 890.41 L3082.86 875.68 L3089.30 875.68 L3089.30 860.46 L3095.61 860.46 L3095.61 847.47 L3101.92 847.47 L3101.92 835.83 L3108.23 835.83 L3108.23 821.97 L3114.54 821.97 L3114.54 804.03 L3120.97 804.03 L3120.97 794.13 L3127.29 794.13 L3127.29 778.91 L3133.60 778.91 L3133.60 766.78 L3139.91 766.78 L3139.91 756.51 L3146.22 756.51 L3146.22 749.70 L3152.53 749.70 L3152.53 740.30 L3158.97 740.30 L3158.97 730.40 L3165.28 730.40 L3165.28 725.07 L3171.59 725.07 L3171.59 715.17 L3177.90 715.17 L3177.90 707.13 L3184.21 707.13 L3184.21 697.23 L3190.65 697.23 L3190.65 686.83 L3196.96 686.83 L3196.96 678.79 L3203.27 678.79 L3203.27 670.62 L3209.58 670.62 L3209.58 663.94 L3215.89 663.94 L3215.89 655.77 L3222.33 655.77 L3222.33 645.87 L3228.64 645.87 L3228.64 639.19 L3234.95 639.19 L3234.95 630.65 L3241.26 630.65 L3241.26 627.06 L3247.57 627.06 L3247.57 617.53 L3253.88 617.53 L3253.88 609.86 L3260.32 609.86 L3260.32 605.78 L3266.63 605.78 L3266.63 600.45 L3272.94 600.45 L3272.94 595.01 L3279.25 595.01 L3279.25 588.70 L3285.56 588.70 L3285.56 582.88 L3292.00 582.88 L3292.00 576.94 L3298.31 576.94 L3298.31 571.12 L3304.62 571.12 L3304.62 563.95 L3310.93 563.95 L3310.93 558.50 L3317.24 558.50 L3317.24 553.92 L3323.55 553.92 L3323.55 550.83 L3329.99 550.83 L3329.99 544.89 L3336.30 544.89 L3336.30 543.16 L3342.61 543.16 L3342.61 539.07 L3348.92 539.07 L3348.92 538.21 L3355.23 538.21 L3355.23 533.26 L3361.67 533.26 L3361.67 529.17 L3367.98 529.17 L3367.98 527.32 L3374.29 527.32 L3374.29 525.09 L3380.60 525.09 L3380.60 523.73 L3386.91 523.73 L3386.91 520.51 L3393.35 520.51 L3393.35 518.78 L3399.66 518.78 L3399.66 516.42 L3405.97 516.42 L3405.97 513.70 L3412.28 513.70 L3412.28 510.11 L3418.59 510.11 L3418.59 506.03 L3424.91 506.03 L3424.91 502.44 L3431.34 502.44 L3431.34 500.21 L3437.65 500.21 L3437.65 497.00 L3443.96 497.00 L3443.96 494.77 L3450.27 494.77 L3450.27 492.42 L3456.59 492.42 L3456.59 490.19 L3463.02 490.19 L3463.02 488.83 L3469.33 488.83 L3469.33 488.83 L3475.64 488.83 L3475.64 487.47 L3481.95 487.47 L3481.95 486.11 L3488.26 486.11 L3488.26 485.24 L3494.58 485.24 L3494.58 483.88 L3501.01 483.88 L3501.01 482.02 L3507.32 482.02 L3507.32 482.02 L3513.63 482.02 L3513.63 479.30 L3519.95 479.30 L3519.95 477.44 L3526.26 477.44 L3526.26 476.08 L3532.69 476.08 L3532.69 474.35 L3539.00 474.35 L3539.00 472.49 L3545.31 472.49 L3545.31 471.13 L3551.63 471.13 L3551.63 469.27 L3557.94 469.27 L3557.94 468.90 L3564.37 468.90 L3564.37 467.91 L3570.68 467.91 L3570.68 467.91 L3576.99 467.91 L3576.99 467.54 L3583.30 467.54 L3583.30 466.55 L3589.62 466.55 L3589.62 465.69 L3595.93 465.69 L3595.93 464.70 L3602.36 464.70 L3602.36 464.70 L3608.67 464.70 L3608.67 464.70 L3614.99 464.70 L3614.99 464.32 L3621.30 464.32 L3621.30 462.96 L3627.61 462.96 L3627.61 462.96 L3634.04 462.96 L3634.04 462.47 L3640.35 462.47 L3640.35 462.47 L3646.66 462.47 L3646.66 461.97 L3659.29 461.97 L3659.29 461.97 L3672.03 461.97 L3672.03 461.97" stroke-linejoin="round" style="fill:none;stroke:#55752F;stroke-width:6.48"/>
	<line x1="2459.04" y1="1873.51" x2="2459.04" y2="414.45" style="stroke:#000000;stroke-width:4.32"/>
	<line x1="2459.04" y1="1825.99" x2="2429.09" y2="1825.99" style="stroke:#000000;stroke-width:4.32"/>
	<text x="2413.99" y="1852.27" style="font-family:'Helvetica';font-size:74.99px;fill:#000000" text-anchor="end">0.000</text>
	<line x1="2459.04" y1="1466.48" x2="2429.09" y2="1466.48" style="stroke:#000000;stroke-width:4.32"/>
	<text x="2413.99" y="1492.76" style="font-family:'Helvetica';font-size:74.99px;fill:#000000" text-anchor="end">0.002</text>
	<line x1="2459.04" y1="1106.98" x2="2429.09" y2="1106.98" style="stroke:#000000;stroke-width:4.32"/>
	<text x="2413.99" y="1133.26" style="font-family:'Helvetica';font-size:74.99px;fill:#000000" text-anchor="end">0.004</text>
	<line x1="2459.04" y1="1873.51" x2="3820.91" y2="1873.51" style="stroke:#000000;stroke-width:4.32"/>
	<line x1="2506.56" y1="1873.51" x2="2506.56" y2="1903.46" style="stroke:#000000;stroke-width:4.32"/>
	<text x="2506.56" y="1970.87" style="font-family:'Helvetica';font-size:74.99px;fill:#000000" text-anchor="middle">1 Feb 20</text>
	<line x1="2690.20" y1="1873.51" x2="2690.20" y2="1903.46" style="stroke:#000000;stroke-width:4.32"/>
	<text x="2690.20" y="1970.87" style="font-family:'Helvetica';font-size:74.99px;fill:#000000" text-anchor="middle">1 Mar 20</text>
	<line x1="2886.59" y1="1873.51" x2="2886.59" y2="1903.46" style="stroke:#000000;stroke-width:4.32"/>
	<text x="2886.59" y="1970.87" style="font-family:'Helvetica';font-size:74.99px;fill:#000000" text-anchor="middle">1 Apr 20</text>
	<line x1="3082.98" y1="1873.51" x2="3082.98" y2="1903.46" style="stroke:#000000;stroke-width:4.32"/>
	<text x="3082.98" y="1970.87" style="font-family:'Helvetica';font-size:74.99px;fill:#000000" text-anchor="middle">1 May 20</text>
	<line x1="3272.94" y1="1873.51" x2="3272.94" y2="1903.46" style="stroke:#000000;stroke-width:4.32"/>
	<text x="3272.94" y="1970.87" style="font-family:'Helvetica';font-size:74.99px;fill:#000000" text-anchor="middle">1 June 20</text>
	<line x1="3463.02" y1="1873.51" x2="3463.02" y2="1903.46" style="stroke:#000000;stroke-width:4.32"/>
	<text x="3463.02" y="1970.87" style="font-family:'Helvetica';font-size:74.99px;fill:#000000" text-anchor="middle">1 July 20</text>
	<line x1="3659.41" y1="1873.51" x2="3659.41" y2="1903.46" style="stroke:#000000;stroke-width:4.32"/>
	<text x="3659.41" y="1970.87" style="font-family:'Helvetica';font-size:74.99px;fill:#000000" text-anchor="middle">1 Aug 20</text>
	<text x="3140.03" y="2053.41" style="font-family:'Helvetica';font-size:74.99px;fill:#000000" text-anchor="middle"> </text>
	<text x="3140.03" y="369.91" style="font-family:'Helvetica';font-size:104.94px;fill:#1E2D53" text-anchor="middle">Male</text>
	<text x="150.62" y="1187.29" style="font-family:'Helvetica';font-size:99.99px;fill:#000000" transform="rotate(-90 150.62,1187.29)" text-anchor="middle">Cumulative probability</text>
	<text x="250.61" y="1187.29" style="font-family:'Helvetica';font-size:99.99px;fill:#000000" transform="rotate(-90 250.61,1187.29)" text-anchor="middle">of COVID-19 death</text>
	<text x="2097.19" y="157.51" style="font-family:'Helvetica';font-size:110.01px;fill:#000000" text-anchor="middle"> </text>
	<rect x="1302.10" y="2201.21" width="1590.19" height="580.90" style="fill:#FFFFFF"/>
	<rect x="1304.98" y="2204.09" width="1584.43" height="575.14" style="fill:none;stroke:#000000;stroke-width:5.76"/>
	<line x1="1345.29" y1="2408.87" x2="1719.63" y2="2408.87" style="stroke:#1A476F;stroke-width:8.64"/>
	<line x1="1345.29" y1="2548.83" x2="1719.63" y2="2548.83" style="stroke:#90353B;stroke-width:8.64"/>
	<line x1="1345.29" y1="2688.92" x2="1719.63" y2="2688.92" style="stroke:#55752F;stroke-width:8.64"/>
	<text x="1779.65" y="2436.88" style="font-family:'Helvetica';font-size:79.94px;fill:#000000">18-&lt;30</text>
	<text x="1779.65" y="2576.85" style="font-family:'Helvetica';font-size:79.94px;fill:#000000">30-&lt;40</text>
	<text x="1779.65" y="2716.94" style="font-family:'Helvetica';font-size:79.94px;fill:#000000">40-&lt;50</text>
	<text x="2243.22" y="2436.88" style="font-family:'Helvetica';font-size:79.94px;fill:#000000">50-&lt;60</text>
	<text x="2243.22" y="2576.85" style="font-family:'Helvetica';font-size:79.94px;fill:#000000">60-&lt;70</text>
	<text x="2243.22" y="2716.94" style="font-family:'Helvetica';font-size:79.94px;fill:#000000">70-&lt;80</text>
	<text x="2706.78" y="2436.88" style="font-family:'Helvetica';font-size:79.94px;fill:#000000">80+</text>
	<text x="2097.19" y="2308.96" style="font-family:'Helvetica';font-size:79.94px;fill:#000000" text-anchor="middle">Age group</text>
</svg>
