<?xml version="1.0" encoding="UTF-8" standalone="no"?>
<!-- This is a Stata 16.1 generated SVG file (http://www.stata.com) -->

<svg version="1.1" width="5.50in" height="4.00in" viewBox="0 0 3960 2880" xmlns="http://www.w3.org/2000/svg" xmlns:xlink="http://www.w3.org/1999/xlink">
	<desc>Stata Graph - Graph</desc>
	<rect x="0" y="0" width="3960" height="2880" style="fill:#EAF2F3;stroke:none"/>
	<rect x="0.00" y="0.00" width="3959.88" height="2880.00" style="fill:#EAF2F3"/>
	<rect x="2.88" y="2.88" width="3954.12" height="2874.24" style="fill:none;stroke:#EAF2F3;stroke-width:5.76"/>
	<rect x="297.87" y="207.91" width="1799.32" height="1958.65" style="fill:#EAF2F3"/>
	<rect x="300.03" y="210.07" width="1795.01" height="1954.33" style="fill:none;stroke:#EAF2F3;stroke-width:4.32"/>
	<rect x="659.71" y="414.45" width="1361.87" height="1459.06" style="fill:#FFFFFF"/>
	<rect x="661.87" y="416.61" width="1357.55" height="1454.74" style="fill:none;stroke:#FFFFFF;stroke-width:4.32"/>
	<line x1="659.71" y1="1825.99" x2="2021.58" y2="1825.99" style="stroke:#EAF2F3;stroke-width:6.48"/>
	<line x1="659.71" y1="1782.18" x2="2021.58" y2="1782.18" style="stroke:#EAF2F3;stroke-width:6.48"/>
	<line x1="659.71" y1="1738.49" x2="2021.58" y2="1738.49" style="stroke:#EAF2F3;stroke-width:6.48"/>
	<line x1="659.71" y1="1694.69" x2="2021.58" y2="1694.69" style="stroke:#EAF2F3;stroke-width:6.48"/>
	<line x1="659.71" y1="1651.00" x2="2021.58" y2="1651.00" style="stroke:#EAF2F3;stroke-width:6.48"/>
	<line x1="659.71" y1="1607.19" x2="2021.58" y2="1607.19" style="stroke:#EAF2F3;stroke-width:6.48"/>
	<path d=" M713.54 1825.00 L719.85 1825.00 L719.85 1824.01 L726.16 1824.01 L726.16 1822.89 L732.48 1822.89 L732.48 1821.66 L738.91 1821.66 L738.91 1820.91 L745.22 1820.91 L745.22 1820.67 L751.53 1820.67 L751.53 1820.17 L757.85 1820.17 L757.85 1819.06 L764.16 1819.06 L764.16 1818.19 L770.59 1818.19 L770.59 1816.83 L776.90 1816.83 L776.90 1815.72 L783.21 1815.72 L783.21 1814.36 L789.52 1814.36 L789.52 1813.37 L795.84 1813.37 L795.84 1811.88 L802.27 1811.88 L802.27 1811.14 L808.58 1811.14 L808.58 1810.15 L814.89 1810.15 L814.89 1809.03 L821.21 1809.03 L821.21 1808.04 L827.52 1808.04 L827.52 1807.43 L833.83 1807.43 L833.83 1806.81 L840.26 1806.81 L840.26 1806.19 L846.57 1806.19 L846.57 1805.32 L852.88 1805.32 L852.88 1804.70 L859.20 1804.70 L859.20 1803.71 L865.51 1803.71 L865.51 1802.72 L871.94 1802.72 L871.94 1800.50 L878.25 1800.50 L878.25 1800.00 L884.57 1800.00 L884.57 1799.01 L890.88 1799.01 L890.88 1798.27 L897.19 1798.27 L897.19 1797.28 L903.50 1797.28 L903.50 1796.53 L909.93 1796.53 L909.93 1795.92 L916.25 1795.92 L916.25 1794.31 L922.56 1794.31 L922.56 1793.32 L928.87 1793.32 L928.87 1792.45 L935.18 1792.45 L935.18 1792.08 L941.61 1792.08 L941.61 1791.21 L947.92 1791.21 L947.92 1790.59 L954.24 1790.59 L954.24 1789.98 L960.55 1789.98 L960.55 1788.99 L966.86 1788.99 L966.86 1788.37 L973.29 1788.37 L973.29 1787.50 L979.61 1787.50 L979.61 1787.38 L985.92 1787.38 L985.92 1786.14 L992.23 1786.14 L992.23 1785.15 L998.54 1785.15 L998.54 1783.79 L1004.85 1783.79 L1004.85 1782.67 L1011.28 1782.67 L1011.28 1782.18 L1017.60 1782.18 L1017.60 1781.19 L1023.91 1781.19 L1023.91 1779.46 L1030.22 1779.46 L1030.22 1778.59 L1036.53 1778.59 L1036.53 1776.86 L1042.96 1776.86 L1042.96 1775.74 L1049.28 1775.74 L1049.28 1775.13 L1055.59 1775.13 L1055.59 1774.01 L1061.90 1774.01 L1061.90 1772.53 L1068.21 1772.53 L1068.21 1771.04 L1074.52 1771.04 L1074.52 1769.93 L1080.96 1769.93 L1080.96 1769.06 L1087.27 1769.06 L1087.27 1768.20 L1093.58 1768.20 L1093.58 1766.96 L1099.89 1766.96 L1099.89 1766.09 L1106.20 1766.09 L1106.20 1765.84 L1112.64 1765.84 L1112.64 1764.73 L1118.95 1764.73 L1118.95 1762.87 L1125.26 1762.87 L1125.26 1761.88 L1131.57 1761.88 L1131.57 1761.02 L1137.88 1761.02 L1137.88 1759.41 L1144.32 1759.41 L1144.32 1758.91 L1150.63 1758.91 L1150.63 1757.55 L1156.94 1757.55 L1156.94 1756.31 L1163.25 1756.31 L1163.25 1755.20 L1169.56 1755.20 L1169.56 1754.46 L1175.87 1754.46 L1175.87 1754.09 L1182.31 1754.09 L1182.31 1752.85 L1188.62 1752.85 L1188.62 1751.86 L1194.93 1751.86 L1194.93 1751.12 L1201.24 1751.12 L1201.24 1750.00 L1207.55 1750.00 L1207.55 1748.77 L1213.99 1748.77 L1213.99 1747.16 L1220.30 1747.16 L1220.30 1746.17 L1226.61 1746.17 L1226.61 1745.18 L1232.92 1745.18 L1232.92 1744.43 L1239.23 1744.43 L1239.23 1743.20 L1245.54 1743.20 L1245.54 1742.08 L1251.98 1742.08 L1251.98 1741.22 L1258.29 1741.22 L1258.29 1740.85 L1264.60 1740.85 L1264.60 1739.61 L1270.91 1739.61 L1270.91 1738.37 L1277.22 1738.37 L1277.22 1737.63 L1283.66 1737.63 L1283.66 1736.89 L1289.97 1736.89 L1289.97 1735.40 L1296.28 1735.40 L1296.28 1734.16 L1302.59 1734.16 L1302.59 1732.80 L1308.90 1732.80 L1308.90 1731.69 L1315.34 1731.69 L1315.34 1730.70 L1321.65 1730.70 L1321.65 1729.58 L1327.96 1729.58 L1327.96 1728.97 L1334.27 1728.97 L1334.27 1728.47 L1340.58 1728.47 L1340.58 1726.86 L1346.89 1726.86 L1346.89 1726.24 L1353.33 1726.24 L1353.33 1724.63 L1359.64 1724.63 L1359.64 1724.14 L1365.95 1724.14 L1365.95 1723.15 L1372.26 1723.15 L1372.26 1722.28 L1378.58 1722.28 L1378.58 1720.92 L1385.01 1720.92 L1385.01 1720.55 L1391.32 1720.55 L1391.32 1719.31 L1397.63 1719.31 L1397.63 1719.06 L1403.94 1719.06 L1403.94 1718.20 L1410.26 1718.20 L1410.26 1717.08 L1416.57 1717.08 L1416.57 1716.34 L1423.00 1716.34 L1423.00 1715.72 L1429.31 1715.72 L1429.31 1714.73 L1435.62 1714.73 L1435.62 1713.50 L1441.93 1713.50 L1441.93 1712.63 L1448.25 1712.63 L1448.25 1711.27 L1454.68 1711.27 L1454.68 1710.28 L1460.99 1710.28 L1460.99 1710.03 L1467.30 1710.03 L1467.30 1709.16 L1473.62 1709.16 L1473.62 1708.30 L1479.93 1708.30 L1479.93 1707.56 L1486.36 1707.56 L1486.36 1707.06 L1492.67 1707.06 L1492.67 1705.33 L1498.98 1705.33 L1498.98 1704.21 L1505.30 1704.21 L1505.30 1703.47 L1511.61 1703.47 L1511.61 1702.73 L1517.92 1702.73 L1517.92 1701.62 L1524.35 1701.62 L1524.35 1700.63 L1530.66 1700.63 L1530.66 1699.26 L1536.97 1699.26 L1536.97 1698.27 L1543.29 1698.27 L1543.29 1697.41 L1549.60 1697.41 L1549.60 1696.54 L1556.03 1696.54 L1556.03 1695.80 L1562.34 1695.80 L1562.34 1695.43 L1568.65 1695.43 L1568.65 1694.07 L1574.97 1694.07 L1574.97 1693.45 L1581.28 1693.45 L1581.28 1692.71 L1587.59 1692.71 L1587.59 1692.33 L1594.02 1692.33 L1594.02 1691.10 L1600.34 1691.10 L1600.34 1690.73 L1606.65 1690.73 L1606.65 1689.74 L1612.96 1689.74 L1612.96 1688.75 L1619.27 1688.75 L1619.27 1687.63 L1625.70 1687.63 L1625.70 1686.52 L1632.02 1686.52 L1632.02 1685.65 L1638.33 1685.65 L1638.33 1684.54 L1644.64 1684.54 L1644.64 1683.55 L1650.95 1683.55 L1650.95 1682.68 L1657.38 1682.68 L1657.38 1681.44 L1663.69 1681.44 L1663.69 1680.70 L1670.01 1680.70 L1670.01 1679.46 L1676.32 1679.46 L1676.32 1678.23 L1682.63 1678.23 L1682.63 1677.11 L1688.94 1677.11 L1688.94 1676.49 L1695.38 1676.49 L1695.38 1675.50 L1701.69 1675.50 L1701.69 1674.76 L1708.00 1674.76 L1708.00 1673.89 L1714.31 1673.89 L1714.31 1673.15 L1720.62 1673.15 L1720.62 1672.04 L1727.06 1672.04 L1727.06 1671.17 L1733.37 1671.17 L1733.37 1670.31 L1739.68 1670.31 L1739.68 1669.32 L1745.99 1669.32 L1745.99 1668.08 L1752.30 1668.08 L1752.30 1667.21 L1758.73 1667.21 L1758.73 1666.47 L1765.05 1666.47 L1765.05 1665.36 L1771.36 1665.36 L1771.36 1664.74 L1777.67 1664.74 L1777.67 1663.75 L1783.98 1663.75 L1783.98 1662.88 L1790.29 1662.88 L1790.29 1661.89 L1796.73 1661.89 L1796.73 1661.02 L1803.04 1661.02 L1803.04 1660.28 L1809.35 1660.28 L1809.35 1659.29 L1815.66 1659.29 L1815.66 1658.80 L1821.97 1658.80 L1821.97 1658.05 L1828.41 1658.05 L1828.41 1657.81 L1834.72 1657.81 L1834.72 1657.19 L1841.03 1657.19 L1841.03 1656.94 L1847.34 1656.94 L1847.34 1656.69 L1872.71 1656.69 L1872.71 1656.69" stroke-linejoin="round" style="fill:none;stroke:#1A476F;stroke-width:6.48"/>
	<path d=" M713.54 1823.51 L719.85 1823.51 L719.85 1821.66 L726.16 1821.66 L726.16 1820.05 L732.48 1820.05 L732.48 1818.19 L738.91 1818.19 L738.91 1816.21 L745.22 1816.21 L745.22 1814.23 L751.53 1814.23 L751.53 1812.13 L757.85 1812.13 L757.85 1810.02 L764.16 1810.02 L764.16 1808.04 L770.59 1808.04 L770.59 1806.19 L776.90 1806.19 L776.90 1804.33 L783.21 1804.33 L783.21 1802.60 L789.52 1802.60 L789.52 1800.74 L795.84 1800.74 L795.84 1798.27 L802.27 1798.27 L802.27 1796.53 L808.58 1796.53 L808.58 1794.80 L814.89 1794.80 L814.89 1792.70 L821.21 1792.70 L821.21 1790.84 L827.52 1790.84 L827.52 1789.23 L833.83 1789.23 L833.83 1787.38 L840.26 1787.38 L840.26 1785.15 L846.57 1785.15 L846.57 1783.05 L852.88 1783.05 L852.88 1781.44 L859.20 1781.44 L859.20 1779.58 L865.51 1779.58 L865.51 1777.97 L871.94 1777.97 L871.94 1776.12 L878.25 1776.12 L878.25 1774.14 L884.57 1774.14 L884.57 1771.91 L890.88 1771.91 L890.88 1770.05 L897.19 1770.05 L897.19 1767.82 L903.50 1767.82 L903.50 1765.60 L909.93 1765.60 L909.93 1763.99 L916.25 1763.99 L916.25 1762.50 L922.56 1762.50 L922.56 1760.28 L928.87 1760.28 L928.87 1757.92 L935.18 1757.92 L935.18 1755.82 L941.61 1755.82 L941.61 1753.96 L947.92 1753.96 L947.92 1752.11 L954.24 1752.11 L954.24 1750.00 L960.55 1750.00 L960.55 1748.02 L966.86 1748.02 L966.86 1746.29 L973.29 1746.29 L973.29 1743.94 L979.61 1743.94 L979.61 1741.71 L985.92 1741.71 L985.92 1739.24 L992.23 1739.24 L992.23 1737.01 L998.54 1737.01 L998.54 1734.53 L1004.85 1734.53 L1004.85 1732.43 L1011.28 1732.43 L1011.28 1729.71 L1017.60 1729.71 L1017.60 1727.36 L1023.91 1727.36 L1023.91 1725.38 L1030.22 1725.38 L1030.22 1723.27 L1036.53 1723.27 L1036.53 1721.42 L1042.96 1721.42 L1042.96 1718.94 L1049.28 1718.94 L1049.28 1716.34 L1055.59 1716.34 L1055.59 1714.61 L1061.90 1714.61 L1061.90 1712.63 L1068.21 1712.63 L1068.21 1710.15 L1074.52 1710.15 L1074.52 1707.93 L1080.96 1707.93 L1080.96 1705.95 L1087.27 1705.95 L1087.27 1703.60 L1093.58 1703.60 L1093.58 1700.87 L1099.89 1700.87 L1099.89 1698.77 L1106.20 1698.77 L1106.20 1696.91 L1112.64 1696.91 L1112.64 1694.19 L1118.95 1694.19 L1118.95 1692.09 L1125.26 1692.09 L1125.26 1689.86 L1131.57 1689.86 L1131.57 1688.00 L1137.88 1688.00 L1137.88 1685.65 L1144.32 1685.65 L1144.32 1683.18 L1150.63 1683.18 L1150.63 1680.08 L1156.94 1680.08 L1156.94 1677.48 L1163.25 1677.48 L1163.25 1675.38 L1169.56 1675.38 L1169.56 1673.52 L1175.87 1673.52 L1175.87 1670.92 L1182.31 1670.92 L1182.31 1668.94 L1188.62 1668.94 L1188.62 1667.58 L1194.93 1667.58 L1194.93 1665.73 L1201.24 1665.73 L1201.24 1663.75 L1207.55 1663.75 L1207.55 1661.89 L1213.99 1661.89 L1213.99 1660.28 L1220.30 1660.28 L1220.30 1657.93 L1226.61 1657.93 L1226.61 1655.70 L1232.92 1655.70 L1232.92 1653.85 L1239.23 1653.85 L1239.23 1652.24 L1245.54 1652.24 L1245.54 1650.38 L1251.98 1650.38 L1251.98 1648.53 L1258.29 1648.53 L1258.29 1646.79 L1264.60 1646.79 L1264.60 1644.94 L1270.91 1644.94 L1270.91 1643.20 L1277.22 1643.20 L1277.22 1641.10 L1283.66 1641.10 L1283.66 1639.24 L1289.97 1639.24 L1289.97 1637.14 L1296.28 1637.14 L1296.28 1635.28 L1302.59 1635.28 L1302.59 1633.06 L1308.90 1633.06 L1308.90 1631.32 L1315.34 1631.32 L1315.34 1629.47 L1321.65 1629.47 L1321.65 1627.98 L1327.96 1627.98 L1327.96 1626.37 L1334.27 1626.37 L1334.27 1624.64 L1340.58 1624.64 L1340.58 1622.66 L1346.89 1622.66 L1346.89 1620.68 L1353.33 1620.68 L1353.33 1618.70 L1359.64 1618.70 L1359.64 1617.22 L1365.95 1617.22 L1365.95 1614.99 L1372.26 1614.99 L1372.26 1613.38 L1378.58 1613.38 L1378.58 1611.40 L1385.01 1611.40 L1385.01 1609.91 L1391.32 1609.91 L1391.32 1608.43 L1397.63 1608.43 L1397.63 1606.45 L1403.94 1606.45 L1403.94 1605.09 L1410.26 1605.09 L1410.26 1603.36 L1416.57 1603.36 L1416.57 1601.38 L1423.00 1601.38 L1423.00 1600.26 L1429.31 1600.26 L1429.31 1598.53 L1435.62 1598.53 L1435.62 1597.04 L1441.93 1597.04 L1441.93 1594.94 L1448.25 1594.94 L1448.25 1593.21 L1454.68 1593.21 L1454.68 1591.23 L1460.99 1591.23 L1460.99 1589.49 L1467.30 1589.49 L1467.30 1587.39 L1473.62 1587.39 L1473.62 1585.78 L1479.93 1585.78 L1479.93 1583.80 L1486.36 1583.80 L1486.36 1581.20 L1492.67 1581.20 L1492.67 1579.35 L1498.98 1579.35 L1498.98 1577.49 L1505.30 1577.49 L1505.30 1575.88 L1511.61 1575.88 L1511.61 1573.65 L1517.92 1573.65 L1517.92 1571.92 L1524.35 1571.92 L1524.35 1570.07 L1530.66 1570.07 L1530.66 1568.33 L1536.97 1568.33 L1536.97 1566.60 L1543.29 1566.60 L1543.29 1564.74 L1549.60 1564.74 L1549.60 1562.89 L1556.03 1562.89 L1556.03 1560.91 L1562.34 1560.91 L1562.34 1559.05 L1568.65 1559.05 L1568.65 1557.19 L1574.97 1557.19 L1574.97 1555.46 L1581.28 1555.46 L1581.28 1553.48 L1587.59 1553.48 L1587.59 1551.01 L1594.02 1551.01 L1594.02 1549.27 L1600.34 1549.27 L1600.34 1547.67 L1606.65 1547.67 L1606.65 1546.06 L1612.96 1546.06 L1612.96 1543.58 L1619.27 1543.58 L1619.27 1541.73 L1625.70 1541.73 L1625.70 1538.88 L1632.02 1538.88 L1632.02 1536.65 L1638.33 1536.65 L1638.33 1534.92 L1644.64 1534.92 L1644.64 1533.31 L1650.95 1533.31 L1650.95 1530.96 L1657.38 1530.96 L1657.38 1528.98 L1663.69 1528.98 L1663.69 1527.12 L1670.01 1527.12 L1670.01 1525.27 L1676.32 1525.27 L1676.32 1523.66 L1682.63 1523.66 L1682.63 1522.17 L1688.94 1522.17 L1688.94 1520.07 L1695.38 1520.07 L1695.38 1518.46 L1701.69 1518.46 L1701.69 1516.97 L1708.00 1516.97 L1708.00 1515.37 L1714.31 1515.37 L1714.31 1513.39 L1720.62 1513.39 L1720.62 1511.41 L1727.06 1511.41 L1727.06 1509.80 L1733.37 1509.80 L1733.37 1507.69 L1739.68 1507.69 L1739.68 1505.59 L1745.99 1505.59 L1745.99 1503.36 L1752.30 1503.36 L1752.30 1501.51 L1758.73 1501.51 L1758.73 1500.14 L1765.05 1500.14 L1765.05 1498.04 L1771.36 1498.04 L1771.36 1496.31 L1777.67 1496.31 L1777.67 1494.58 L1783.98 1494.58 L1783.98 1492.84 L1790.29 1492.84 L1790.29 1490.74 L1796.73 1490.74 L1796.73 1489.25 L1803.04 1489.25 L1803.04 1487.52 L1809.35 1487.52 L1809.35 1486.16 L1815.66 1486.16 L1815.66 1484.92 L1821.97 1484.92 L1821.97 1483.56 L1828.41 1483.56 L1828.41 1482.08 L1834.72 1482.08 L1834.72 1481.09 L1841.03 1481.09 L1841.03 1480.22 L1847.34 1480.22 L1847.34 1479.72 L1853.65 1479.72 L1853.65 1479.60 L1872.71 1479.60 L1872.71 1479.60" stroke-linejoin="round" style="fill:none;stroke:#90353B;stroke-width:6.48"/>
	<path d=" M713.54 1818.56 L719.85 1818.56 L719.85 1811.63 L726.16 1811.63 L726.16 1804.08 L732.48 1804.08 L732.48 1796.04 L738.91 1796.04 L738.91 1788.86 L745.22 1788.86 L745.22 1779.83 L751.53 1779.83 L751.53 1772.16 L757.85 1772.16 L757.85 1764.85 L764.16 1764.85 L764.16 1756.44 L770.59 1756.44 L770.59 1749.38 L776.90 1749.38 L776.90 1742.21 L783.21 1742.21 L783.21 1733.17 L789.52 1733.17 L789.52 1724.14 L795.84 1724.14 L795.84 1716.71 L802.27 1716.71 L802.27 1708.05 L808.58 1708.05 L808.58 1700.75 L814.89 1700.75 L814.89 1692.21 L821.21 1692.21 L821.21 1683.92 L827.52 1683.92 L827.52 1676.25 L833.83 1676.25 L833.83 1667.34 L840.26 1667.34 L840.26 1658.30 L846.57 1658.30 L846.57 1651.74 L852.88 1651.74 L852.88 1644.19 L859.20 1644.19 L859.20 1635.28 L865.51 1635.28 L865.51 1627.12 L871.94 1627.12 L871.94 1620.06 L878.25 1620.06 L878.25 1612.27 L884.57 1612.27 L884.57 1603.85 L890.88 1603.85 L890.88 1596.18 L897.19 1596.18 L897.19 1586.90 L903.50 1586.90 L903.50 1577.99 L909.93 1577.99 L909.93 1570.19 L916.25 1570.19 L916.25 1562.52 L922.56 1562.52 L922.56 1552.00 L928.87 1552.00 L928.87 1545.69 L935.18 1545.69 L935.18 1537.89 L941.61 1537.89 L941.61 1529.97 L947.92 1529.97 L947.92 1520.44 L954.24 1520.44 L954.24 1511.78 L960.55 1511.78 L960.55 1503.24 L966.86 1503.24 L966.86 1495.81 L973.29 1495.81 L973.29 1486.66 L979.61 1486.66 L979.61 1479.35 L985.92 1479.35 L985.92 1470.44 L992.23 1470.44 L992.23 1462.52 L998.54 1462.52 L998.54 1453.74 L1004.85 1453.74 L1004.85 1445.69 L1011.28 1445.69 L1011.28 1436.66 L1017.60 1436.66 L1017.60 1428.00 L1023.91 1428.00 L1023.91 1420.32 L1030.22 1420.32 L1030.22 1412.03 L1036.53 1412.03 L1036.53 1403.49 L1042.96 1403.49 L1042.96 1394.58 L1049.28 1394.58 L1049.28 1386.41 L1055.59 1386.41 L1055.59 1376.76 L1061.90 1376.76 L1061.90 1368.59 L1068.21 1368.59 L1068.21 1361.54 L1074.52 1361.54 L1074.52 1351.76 L1080.96 1351.76 L1080.96 1343.72 L1087.27 1343.72 L1087.27 1332.83 L1093.58 1332.83 L1093.58 1324.41 L1099.89 1324.41 L1099.89 1315.75 L1106.20 1315.75 L1106.20 1304.37 L1112.64 1304.37 L1112.64 1295.70 L1118.95 1295.70 L1118.95 1284.81 L1125.26 1284.81 L1125.26 1276.03 L1131.57 1276.03 L1131.57 1266.87 L1137.88 1266.87 L1137.88 1256.97 L1144.32 1256.97 L1144.32 1246.70 L1150.63 1246.70 L1150.63 1237.54 L1156.94 1237.54 L1156.94 1226.77 L1163.25 1226.77 L1163.25 1218.60 L1169.56 1218.60 L1169.56 1210.07 L1175.87 1210.07 L1175.87 1201.16 L1182.31 1201.16 L1182.31 1193.48 L1188.62 1193.48 L1188.62 1184.57 L1194.93 1184.57 L1194.93 1176.03 L1201.24 1176.03 L1201.24 1167.37 L1207.55 1167.37 L1207.55 1159.82 L1213.99 1159.82 L1213.99 1151.03 L1220.30 1151.03 L1220.30 1143.73 L1226.61 1143.73 L1226.61 1134.82 L1232.92 1134.82 L1232.92 1126.66 L1239.23 1126.66 L1239.23 1118.73 L1245.54 1118.73 L1245.54 1110.94 L1251.98 1110.94 L1251.98 1102.40 L1258.29 1102.40 L1258.29 1094.36 L1264.60 1094.36 L1264.60 1086.44 L1270.91 1086.44 L1270.91 1079.75 L1277.22 1079.75 L1277.22 1071.96 L1283.66 1071.96 L1283.66 1064.04 L1289.97 1064.04 L1289.97 1055.37 L1296.28 1055.37 L1296.28 1048.94 L1302.59 1048.94 L1302.59 1042.26 L1308.90 1042.26 L1308.90 1034.21 L1315.34 1034.21 L1315.34 1026.04 L1321.65 1026.04 L1321.65 1017.13 L1327.96 1017.13 L1327.96 1010.08 L1334.27 1010.08 L1334.27 1002.41 L1340.58 1002.41 L1340.58 996.71 L1346.89 996.71 L1346.89 990.28 L1353.33 990.28 L1353.33 982.85 L1359.64 982.85 L1359.64 975.06 L1365.95 975.06 L1365.95 967.26 L1372.26 967.26 L1372.26 961.07 L1378.58 961.07 L1378.58 954.51 L1385.01 954.51 L1385.01 946.35 L1391.32 946.35 L1391.32 938.55 L1397.63 938.55 L1397.63 931.37 L1403.94 931.37 L1403.94 923.70 L1410.26 923.70 L1410.26 917.63 L1416.57 917.63 L1416.57 912.19 L1423.00 912.19 L1423.00 906.37 L1429.31 906.37 L1429.31 899.44 L1435.62 899.44 L1435.62 892.27 L1441.93 892.27 L1441.93 885.58 L1448.25 885.58 L1448.25 879.15 L1454.68 879.15 L1454.68 873.33 L1460.99 873.33 L1460.99 866.52 L1467.30 866.52 L1467.30 861.08 L1473.62 861.08 L1473.62 852.91 L1479.93 852.91 L1479.93 845.73 L1486.36 845.73 L1486.36 838.68 L1492.67 838.68 L1492.67 832.62 L1498.98 832.62 L1498.98 825.81 L1505.30 825.81 L1505.30 819.13 L1511.61 819.13 L1511.61 812.44 L1517.92 812.44 L1517.92 804.65 L1524.35 804.65 L1524.35 797.59 L1530.66 797.59 L1530.66 791.78 L1536.97 791.78 L1536.97 785.22 L1543.29 785.22 L1543.29 777.92 L1549.60 777.92 L1549.60 771.61 L1556.03 771.61 L1556.03 766.04 L1562.34 766.04 L1562.34 758.86 L1568.65 758.86 L1568.65 753.04 L1574.97 753.04 L1574.97 743.76 L1581.28 743.76 L1581.28 735.72 L1587.59 735.72 L1587.59 729.90 L1594.02 729.90 L1594.02 721.86 L1600.34 721.86 L1600.34 715.67 L1606.65 715.67 L1606.65 708.12 L1612.96 708.12 L1612.96 701.19 L1619.27 701.19 L1619.27 694.38 L1625.70 694.38 L1625.70 686.59 L1632.02 686.59 L1632.02 678.79 L1638.33 678.79 L1638.33 671.24 L1644.64 671.24 L1644.64 665.42 L1650.95 665.42 L1650.95 659.61 L1657.38 659.61 L1657.38 654.53 L1663.69 654.53 L1663.69 647.60 L1670.01 647.60 L1670.01 640.67 L1676.32 640.67 L1676.32 634.36 L1682.63 634.36 L1682.63 625.95 L1688.94 625.95 L1688.94 618.89 L1695.38 618.89 L1695.38 612.21 L1701.69 612.21 L1701.69 606.89 L1708.00 606.89 L1708.00 599.71 L1714.31 599.71 L1714.31 593.40 L1720.62 593.40 L1720.62 587.09 L1727.06 587.09 L1727.06 578.80 L1733.37 578.80 L1733.37 572.73 L1739.68 572.73 L1739.68 565.80 L1745.99 565.80 L1745.99 558.87 L1752.30 558.87 L1752.30 553.18 L1758.73 553.18 L1758.73 547.12 L1765.05 547.12 L1765.05 540.93 L1771.36 540.93 L1771.36 534.25 L1777.67 534.25 L1777.67 526.82 L1783.98 526.82 L1783.98 520.14 L1790.29 520.14 L1790.29 512.71 L1796.73 512.71 L1796.73 505.41 L1803.04 505.41 L1803.04 498.23 L1809.35 498.23 L1809.35 490.93 L1815.66 490.93 L1815.66 485.36 L1821.97 485.36 L1821.97 478.43 L1828.41 478.43 L1828.41 472.86 L1834.72 472.86 L1834.72 468.66 L1841.03 468.66 L1841.03 466.30 L1847.34 466.30 L1847.34 463.33 L1853.65 463.33 L1853.65 462.47 L1859.96 462.47 L1859.96 461.97 L1872.71 461.97 L1872.71 461.97" stroke-linejoin="round" style="fill:none;stroke:#55752F;stroke-width:6.48"/>
	<line x1="659.71" y1="1873.51" x2="659.71" y2="414.45" style="stroke:#000000;stroke-width:4.32"/>
	<line x1="659.71" y1="1825.99" x2="629.76" y2="1825.99" style="stroke:#000000;stroke-width:4.32"/>
	<text x="614.79" y="1852.27" style="font-family:'Helvetica';font-size:74.99px;fill:#000000" text-anchor="end">0.000</text>
	<line x1="659.71" y1="1782.18" x2="629.76" y2="1782.18" style="stroke:#000000;stroke-width:4.32"/>
	<text x="614.79" y="1808.46" style="font-family:'Helvetica';font-size:74.99px;fill:#000000" text-anchor="end">0.001</text>
	<line x1="659.71" y1="1738.49" x2="629.76" y2="1738.49" style="stroke:#000000;stroke-width:4.32"/>
	<text x="614.79" y="1764.77" style="font-family:'Helvetica';font-size:74.99px;fill:#000000" text-anchor="end">0.002</text>
	<line x1="659.71" y1="1694.69" x2="629.76" y2="1694.69" style="stroke:#000000;stroke-width:4.32"/>
	<text x="614.79" y="1720.96" style="font-family:'Helvetica';font-size:74.99px;fill:#000000" text-anchor="end">0.003</text>
	<line x1="659.71" y1="1651.00" x2="629.76" y2="1651.00" style="stroke:#000000;stroke-width:4.32"/>
	<text x="614.79" y="1677.28" style="font-family:'Helvetica';font-size:74.99px;fill:#000000" text-anchor="end">0.004</text>
	<line x1="659.71" y1="1607.19" x2="629.76" y2="1607.19" style="stroke:#000000;stroke-width:4.32"/>
	<text x="614.79" y="1633.47" style="font-family:'Helvetica';font-size:74.99px;fill:#000000" text-anchor="end">0.005</text>
	<line x1="659.71" y1="1873.51" x2="2021.58" y2="1873.51" style="stroke:#000000;stroke-width:4.32"/>
	<line x1="707.23" y1="1873.51" x2="707.23" y2="1903.46" style="stroke:#000000;stroke-width:4.32"/>
	<text x="707.23" y="1970.87" style="font-family:'Helvetica';font-size:74.99px;fill:#000000" text-anchor="middle">1 Feb 20</text>
	<line x1="891.00" y1="1873.51" x2="891.00" y2="1903.46" style="stroke:#000000;stroke-width:4.32"/>
	<text x="891.00" y="1970.87" style="font-family:'Helvetica';font-size:74.99px;fill:#000000" text-anchor="middle">1 Mar 20</text>
	<line x1="1087.27" y1="1873.51" x2="1087.27" y2="1903.46" style="stroke:#000000;stroke-width:4.32"/>
	<text x="1087.27" y="1970.87" style="font-family:'Helvetica';font-size:74.99px;fill:#000000" text-anchor="middle">1 Apr 20</text>
	<line x1="1283.66" y1="1873.51" x2="1283.66" y2="1903.46" style="stroke:#000000;stroke-width:4.32"/>
	<text x="1283.66" y="1970.87" style="font-family:'Helvetica';font-size:74.99px;fill:#000000" text-anchor="middle">1 May 20</text>
	<line x1="1473.74" y1="1873.51" x2="1473.74" y2="1903.46" style="stroke:#000000;stroke-width:4.32"/>
	<text x="1473.74" y="1970.87" style="font-family:'Helvetica';font-size:74.99px;fill:#000000" text-anchor="middle">1 June 20</text>
	<line x1="1663.69" y1="1873.51" x2="1663.69" y2="1903.46" style="stroke:#000000;stroke-width:4.32"/>
	<text x="1663.69" y="1970.87" style="font-family:'Helvetica';font-size:74.99px;fill:#000000" text-anchor="middle">1 July 20</text>
	<line x1="1860.09" y1="1873.51" x2="1860.09" y2="1903.46" style="stroke:#000000;stroke-width:4.32"/>
	<text x="1860.09" y="1970.87" style="font-family:'Helvetica';font-size:74.99px;fill:#000000" text-anchor="middle">1 Aug 20</text>
	<text x="1340.71" y="2053.41" style="font-family:'Helvetica';font-size:74.99px;fill:#000000" text-anchor="middle"> </text>
	<text x="1340.71" y="369.91" style="font-family:'Helvetica';font-size:104.94px;fill:#1E2D53" text-anchor="middle">Female</text>
	<rect x="2097.19" y="207.91" width="1799.33" height="1958.65" style="fill:#EAF2F3"/>
	<rect x="2099.35" y="210.07" width="1795.01" height="1954.33" style="fill:none;stroke:#EAF2F3;stroke-width:4.32"/>
	<rect x="2459.04" y="414.45" width="1361.87" height="1459.06" style="fill:#FFFFFF"/>
	<rect x="2461.20" y="416.61" width="1357.55" height="1454.74" style="fill:none;stroke:#FFFFFF;stroke-width:4.32"/>
	<line x1="2459.04" y1="1825.99" x2="3820.91" y2="1825.99" style="stroke:#EAF2F3;stroke-width:6.48"/>
	<line x1="2459.04" y1="1790.35" x2="3820.91" y2="1790.35" style="stroke:#EAF2F3;stroke-width:6.48"/>
	<line x1="2459.04" y1="1754.58" x2="3820.91" y2="1754.58" style="stroke:#EAF2F3;stroke-width:6.48"/>
	<line x1="2459.04" y1="1718.94" x2="3820.91" y2="1718.94" style="stroke:#EAF2F3;stroke-width:6.48"/>
	<line x1="2459.04" y1="1683.30" x2="3820.91" y2="1683.30" style="stroke:#EAF2F3;stroke-width:6.48"/>
	<line x1="2459.04" y1="1647.54" x2="3820.91" y2="1647.54" style="stroke:#EAF2F3;stroke-width:6.48"/>
	<path d=" M2512.87 1824.50 L2519.18 1824.50 L2519.18 1823.51 L2525.49 1823.51 L2525.49 1822.65 L2531.80 1822.65 L2531.80 1821.16 L2538.11 1821.16 L2538.11 1819.68 L2544.55 1819.68 L2544.55 1819.06 L2550.86 1819.06 L2550.86 1817.08 L2557.17 1817.08 L2557.17 1816.09 L2563.48 1816.09 L2563.48 1814.48 L2569.79 1814.48 L2569.79 1813.37 L2576.23 1813.37 L2576.23 1811.14 L2582.54 1811.14 L2582.54 1809.65 L2588.85 1809.65 L2588.85 1808.04 L2595.16 1808.04 L2595.16 1806.19 L2601.47 1806.19 L2601.47 1804.83 L2607.91 1804.83 L2607.91 1803.34 L2614.22 1803.34 L2614.22 1801.86 L2620.53 1801.86 L2620.53 1800.37 L2626.84 1800.37 L2626.84 1798.39 L2633.15 1798.39 L2633.15 1796.29 L2639.46 1796.29 L2639.46 1794.80 L2645.90 1794.80 L2645.90 1793.56 L2652.21 1793.56 L2652.21 1792.33 L2658.52 1792.33 L2658.52 1791.58 L2664.83 1791.58 L2664.83 1790.72 L2671.14 1790.72 L2671.14 1789.60 L2677.58 1789.60 L2677.58 1788.37 L2683.89 1788.37 L2683.89 1787.38 L2690.20 1787.38 L2690.20 1785.77 L2696.51 1785.77 L2696.51 1783.66 L2702.82 1783.66 L2702.82 1782.43 L2709.26 1782.43 L2709.26 1781.07 L2715.57 1781.07 L2715.57 1780.08 L2721.88 1780.08 L2721.88 1778.96 L2728.19 1778.96 L2728.19 1778.10 L2734.50 1778.10 L2734.50 1777.11 L2740.82 1777.11 L2740.82 1775.74 L2747.25 1775.74 L2747.25 1774.75 L2753.56 1774.75 L2753.56 1772.53 L2759.87 1772.53 L2759.87 1771.29 L2766.18 1771.29 L2766.18 1769.93 L2772.49 1769.93 L2772.49 1768.94 L2778.93 1768.94 L2778.93 1767.58 L2785.24 1767.58 L2785.24 1766.09 L2791.55 1766.09 L2791.55 1764.61 L2797.86 1764.61 L2797.86 1762.63 L2804.18 1762.63 L2804.18 1760.65 L2810.49 1760.65 L2810.49 1759.16 L2816.92 1759.16 L2816.92 1757.92 L2823.23 1757.92 L2823.23 1756.56 L2829.54 1756.56 L2829.54 1755.57 L2835.86 1755.57 L2835.86 1754.09 L2842.17 1754.09 L2842.17 1752.97 L2848.60 1752.97 L2848.60 1751.74 L2854.91 1751.74 L2854.91 1750.50 L2861.22 1750.50 L2861.22 1749.51 L2867.53 1749.51 L2867.53 1748.39 L2873.85 1748.39 L2873.85 1747.16 L2880.28 1747.16 L2880.28 1745.80 L2886.59 1745.80 L2886.59 1744.93 L2892.90 1744.93 L2892.90 1743.20 L2899.22 1743.20 L2899.22 1741.71 L2905.53 1741.71 L2905.53 1739.73 L2911.84 1739.73 L2911.84 1738.00 L2918.27 1738.00 L2918.27 1736.64 L2924.58 1736.64 L2924.58 1735.03 L2930.89 1735.03 L2930.89 1733.54 L2937.21 1733.54 L2937.21 1732.18 L2943.52 1732.18 L2943.52 1731.44 L2949.95 1731.44 L2949.95 1730.33 L2956.26 1730.33 L2956.26 1729.21 L2962.57 1729.21 L2962.57 1727.85 L2968.89 1727.85 L2968.89 1726.74 L2975.20 1726.74 L2975.20 1725.13 L2981.51 1725.13 L2981.51 1723.40 L2987.94 1723.40 L2987.94 1721.79 L2994.26 1721.79 L2994.26 1720.30 L3000.57 1720.30 L3000.57 1719.19 L3006.88 1719.19 L3006.88 1717.95 L3013.19 1717.95 L3013.19 1717.08 L3019.62 1717.08 L3019.62 1715.72 L3025.93 1715.72 L3025.93 1714.36 L3032.25 1714.36 L3032.25 1713.00 L3038.56 1713.00 L3038.56 1711.76 L3044.87 1711.76 L3044.87 1710.77 L3051.30 1710.77 L3051.30 1708.92 L3057.61 1708.92 L3057.61 1707.80 L3063.93 1707.80 L3063.93 1705.95 L3070.24 1705.95 L3070.24 1704.83 L3076.55 1704.83 L3076.55 1703.97 L3082.86 1703.97 L3082.86 1702.36 L3089.30 1702.36 L3089.30 1701.24 L3095.61 1701.24 L3095.61 1700.63 L3101.92 1700.63 L3101.92 1699.26 L3108.23 1699.26 L3108.23 1698.15 L3114.54 1698.15 L3114.54 1697.04 L3120.97 1697.04 L3120.97 1695.80 L3127.29 1695.80 L3127.29 1694.81 L3133.60 1694.81 L3133.60 1693.57 L3139.91 1693.57 L3139.91 1692.21 L3146.22 1692.21 L3146.22 1690.73 L3152.53 1690.73 L3152.53 1689.86 L3158.97 1689.86 L3158.97 1688.37 L3165.28 1688.37 L3165.28 1687.63 L3171.59 1687.63 L3171.59 1686.89 L3177.90 1686.89 L3177.90 1685.90 L3184.21 1685.90 L3184.21 1684.79 L3190.65 1684.79 L3190.65 1683.92 L3196.96 1683.92 L3196.96 1683.30 L3203.27 1683.30 L3203.27 1682.06 L3209.58 1682.06 L3209.58 1680.95 L3215.89 1680.95 L3215.89 1680.21 L3222.33 1680.21 L3222.33 1678.84 L3228.64 1678.84 L3228.64 1678.10 L3234.95 1678.10 L3234.95 1676.86 L3241.26 1676.86 L3241.26 1675.38 L3247.57 1675.38 L3247.57 1673.77 L3253.88 1673.77 L3253.88 1672.66 L3260.32 1672.66 L3260.32 1671.79 L3266.63 1671.79 L3266.63 1671.17 L3272.94 1671.17 L3272.94 1670.06 L3279.25 1670.06 L3279.25 1668.94 L3285.56 1668.94 L3285.56 1667.83 L3292.00 1667.83 L3292.00 1666.47 L3298.31 1666.47 L3298.31 1664.86 L3304.62 1664.86 L3304.62 1664.12 L3310.93 1664.12 L3310.93 1663.00 L3317.24 1663.00 L3317.24 1662.14 L3323.55 1662.14 L3323.55 1661.15 L3329.99 1661.15 L3329.99 1660.03 L3336.30 1660.03 L3336.30 1658.80 L3342.61 1658.80 L3342.61 1657.81 L3348.92 1657.81 L3348.92 1656.20 L3355.23 1656.20 L3355.23 1655.33 L3361.67 1655.33 L3361.67 1653.85 L3367.98 1653.85 L3367.98 1652.86 L3374.29 1652.86 L3374.29 1651.74 L3380.60 1651.74 L3380.60 1650.75 L3386.91 1650.75 L3386.91 1648.90 L3393.35 1648.90 L3393.35 1647.66 L3399.66 1647.66 L3399.66 1646.17 L3405.97 1646.17 L3405.97 1645.06 L3412.28 1645.06 L3412.28 1643.20 L3418.59 1643.20 L3418.59 1641.97 L3424.91 1641.97 L3424.91 1640.98 L3431.34 1640.98 L3431.34 1639.49 L3437.65 1639.49 L3437.65 1638.25 L3443.96 1638.25 L3443.96 1636.89 L3450.27 1636.89 L3450.27 1635.78 L3456.59 1635.78 L3456.59 1634.54 L3463.02 1634.54 L3463.02 1632.68 L3469.33 1632.68 L3469.33 1631.45 L3475.64 1631.45 L3475.64 1630.70 L3481.95 1630.70 L3481.95 1629.71 L3488.26 1629.71 L3488.26 1627.98 L3494.58 1627.98 L3494.58 1626.37 L3501.01 1626.37 L3501.01 1625.14 L3507.32 1625.14 L3507.32 1623.90 L3513.63 1623.90 L3513.63 1622.78 L3519.95 1622.78 L3519.95 1621.79 L3526.26 1621.79 L3526.26 1620.06 L3532.69 1620.06 L3532.69 1618.95 L3539.00 1618.95 L3539.00 1617.96 L3545.31 1617.96 L3545.31 1617.09 L3551.63 1617.09 L3551.63 1616.47 L3557.94 1616.47 L3557.94 1615.98 L3564.37 1615.98 L3564.37 1615.48 L3570.68 1615.48 L3570.68 1613.87 L3576.99 1613.87 L3576.99 1613.38 L3583.30 1613.38 L3583.30 1612.27 L3589.62 1612.27 L3589.62 1611.40 L3595.93 1611.40 L3595.93 1610.41 L3602.36 1610.41 L3602.36 1609.67 L3608.67 1609.67 L3608.67 1608.80 L3614.99 1608.80 L3614.99 1608.18 L3621.30 1608.18 L3621.30 1607.32 L3627.61 1607.32 L3627.61 1606.45 L3634.04 1606.45 L3634.04 1605.83 L3640.35 1605.83 L3640.35 1605.58 L3646.66 1605.58 L3646.66 1605.58 L3672.03 1605.58 L3672.03 1605.58" stroke-linejoin="round" style="fill:none;stroke:#1A476F;stroke-width:6.48"/>
	<path d=" M2512.87 1823.88 L2519.18 1823.88 L2519.18 1821.90 L2525.49 1821.90 L2525.49 1819.68 L2531.80 1819.68 L2531.80 1817.94 L2538.11 1817.94 L2538.11 1815.72 L2544.55 1815.72 L2544.55 1813.49 L2550.86 1813.49 L2550.86 1810.52 L2557.17 1810.52 L2557.17 1807.67 L2563.48 1807.67 L2563.48 1804.83 L2569.79 1804.83 L2569.79 1802.35 L2576.23 1802.35 L2576.23 1800.25 L2582.54 1800.25 L2582.54 1798.02 L2588.85 1798.02 L2588.85 1795.05 L2595.16 1795.05 L2595.16 1792.82 L2601.47 1792.82 L2601.47 1790.47 L2607.91 1790.47 L2607.91 1788.12 L2614.22 1788.12 L2614.22 1786.39 L2620.53 1786.39 L2620.53 1784.41 L2626.84 1784.41 L2626.84 1781.93 L2633.15 1781.93 L2633.15 1779.46 L2639.46 1779.46 L2639.46 1777.23 L2645.90 1777.23 L2645.90 1774.63 L2652.21 1774.63 L2652.21 1772.16 L2658.52 1772.16 L2658.52 1769.43 L2664.83 1769.43 L2664.83 1767.08 L2671.14 1767.08 L2671.14 1764.36 L2677.58 1764.36 L2677.58 1761.76 L2683.89 1761.76 L2683.89 1759.90 L2690.20 1759.90 L2690.20 1756.93 L2696.51 1756.93 L2696.51 1754.58 L2702.82 1754.58 L2702.82 1751.74 L2709.26 1751.74 L2709.26 1749.88 L2715.57 1749.88 L2715.57 1747.78 L2721.88 1747.78 L2721.88 1745.55 L2728.19 1745.55 L2728.19 1743.32 L2734.50 1743.32 L2734.50 1740.47 L2740.82 1740.47 L2740.82 1737.88 L2747.25 1737.88 L2747.25 1735.03 L2753.56 1735.03 L2753.56 1732.68 L2759.87 1732.68 L2759.87 1729.58 L2766.18 1729.58 L2766.18 1727.60 L2772.49 1727.60 L2772.49 1725.13 L2778.93 1725.13 L2778.93 1722.65 L2785.24 1722.65 L2785.24 1719.68 L2791.55 1719.68 L2791.55 1717.70 L2797.86 1717.70 L2797.86 1715.48 L2804.18 1715.48 L2804.18 1712.88 L2810.49 1712.88 L2810.49 1710.03 L2816.92 1710.03 L2816.92 1707.93 L2823.23 1707.93 L2823.23 1705.08 L2829.54 1705.08 L2829.54 1702.36 L2835.86 1702.36 L2835.86 1699.51 L2842.17 1699.51 L2842.17 1696.67 L2848.60 1696.67 L2848.60 1694.31 L2854.91 1694.31 L2854.91 1691.96 L2861.22 1691.96 L2861.22 1689.36 L2867.53 1689.36 L2867.53 1687.01 L2873.85 1687.01 L2873.85 1684.29 L2880.28 1684.29 L2880.28 1681.94 L2886.59 1681.94 L2886.59 1678.60 L2892.90 1678.60 L2892.90 1675.75 L2899.22 1675.75 L2899.22 1673.03 L2905.53 1673.03 L2905.53 1670.31 L2911.84 1670.31 L2911.84 1667.34 L2918.27 1667.34 L2918.27 1664.74 L2924.58 1664.74 L2924.58 1662.39 L2930.89 1662.39 L2930.89 1659.17 L2937.21 1659.17 L2937.21 1656.57 L2943.52 1656.57 L2943.52 1653.72 L2949.95 1653.72 L2949.95 1651.74 L2956.26 1651.74 L2956.26 1649.52 L2962.57 1649.52 L2962.57 1646.92 L2968.89 1646.92 L2968.89 1644.69 L2975.20 1644.69 L2975.20 1642.83 L2981.51 1642.83 L2981.51 1640.36 L2987.94 1640.36 L2987.94 1638.01 L2994.26 1638.01 L2994.26 1635.90 L3000.57 1635.90 L3000.57 1633.06 L3006.88 1633.06 L3006.88 1630.70 L3013.19 1630.70 L3013.19 1628.85 L3019.62 1628.85 L3019.62 1626.99 L3025.93 1626.99 L3025.93 1624.89 L3032.25 1624.89 L3032.25 1622.41 L3038.56 1622.41 L3038.56 1620.43 L3044.87 1620.43 L3044.87 1618.08 L3051.30 1618.08 L3051.30 1615.61 L3057.61 1615.61 L3057.61 1613.63 L3063.93 1613.63 L3063.93 1611.77 L3070.24 1611.77 L3070.24 1609.42 L3076.55 1609.42 L3076.55 1607.19 L3082.86 1607.19 L3082.86 1605.09 L3089.30 1605.09 L3089.30 1602.37 L3095.61 1602.37 L3095.61 1600.01 L3101.92 1600.01 L3101.92 1598.03 L3108.23 1598.03 L3108.23 1595.43 L3114.54 1595.43 L3114.54 1593.08 L3120.97 1593.08 L3120.97 1591.47 L3127.29 1591.47 L3127.29 1589.12 L3133.60 1589.12 L3133.60 1586.65 L3139.91 1586.65 L3139.91 1584.67 L3146.22 1584.67 L3146.22 1583.18 L3152.53 1583.18 L3152.53 1580.71 L3158.97 1580.71 L3158.97 1578.23 L3165.28 1578.23 L3165.28 1576.13 L3171.59 1576.13 L3171.59 1574.03 L3177.90 1574.03 L3177.90 1571.67 L3184.21 1571.67 L3184.21 1569.69 L3190.65 1569.69 L3190.65 1567.47 L3196.96 1567.47 L3196.96 1564.87 L3203.27 1564.87 L3203.27 1562.52 L3209.58 1562.52 L3209.58 1560.41 L3215.89 1560.41 L3215.89 1558.80 L3222.33 1558.80 L3222.33 1557.19 L3228.64 1557.19 L3228.64 1554.72 L3234.95 1554.72 L3234.95 1552.49 L3241.26 1552.49 L3241.26 1550.14 L3247.57 1550.14 L3247.57 1548.16 L3253.88 1548.16 L3253.88 1545.69 L3260.32 1545.69 L3260.32 1543.83 L3266.63 1543.83 L3266.63 1542.22 L3272.94 1542.22 L3272.94 1539.99 L3279.25 1539.99 L3279.25 1537.64 L3285.56 1537.64 L3285.56 1535.29 L3292.00 1535.29 L3292.00 1532.94 L3298.31 1532.94 L3298.31 1530.71 L3304.62 1530.71 L3304.62 1528.98 L3310.93 1528.98 L3310.93 1527.00 L3317.24 1527.00 L3317.24 1525.39 L3323.55 1525.39 L3323.55 1523.66 L3329.99 1523.66 L3329.99 1521.43 L3336.30 1521.43 L3336.30 1519.08 L3342.61 1519.08 L3342.61 1517.22 L3348.92 1517.22 L3348.92 1515.24 L3355.23 1515.24 L3355.23 1513.39 L3361.67 1513.39 L3361.67 1511.41 L3367.98 1511.41 L3367.98 1509.43 L3374.29 1509.43 L3374.29 1507.20 L3380.60 1507.20 L3380.60 1505.84 L3386.91 1505.84 L3386.91 1504.10 L3393.35 1504.10 L3393.35 1502.12 L3399.66 1502.12 L3399.66 1500.39 L3405.97 1500.39 L3405.97 1498.04 L3412.28 1498.04 L3412.28 1495.81 L3418.59 1495.81 L3418.59 1493.21 L3424.91 1493.21 L3424.91 1491.23 L3431.34 1491.23 L3431.34 1488.76 L3437.65 1488.76 L3437.65 1486.90 L3443.96 1486.90 L3443.96 1485.17 L3450.27 1485.17 L3450.27 1482.70 L3456.59 1482.70 L3456.59 1480.34 L3463.02 1480.34 L3463.02 1478.24 L3469.33 1478.24 L3469.33 1476.38 L3475.64 1476.38 L3475.64 1474.03 L3481.95 1474.03 L3481.95 1472.42 L3488.26 1472.42 L3488.26 1469.82 L3494.58 1469.82 L3494.58 1467.97 L3501.01 1467.97 L3501.01 1465.99 L3507.32 1465.99 L3507.32 1464.38 L3513.63 1464.38 L3513.63 1462.28 L3519.95 1462.28 L3519.95 1460.42 L3526.26 1460.42 L3526.26 1458.19 L3532.69 1458.19 L3532.69 1456.34 L3539.00 1456.34 L3539.00 1454.48 L3545.31 1454.48 L3545.31 1452.75 L3551.63 1452.75 L3551.63 1451.26 L3557.94 1451.26 L3557.94 1449.28 L3564.37 1449.28 L3564.37 1447.30 L3570.68 1447.30 L3570.68 1444.95 L3576.99 1444.95 L3576.99 1442.85 L3583.30 1442.85 L3583.30 1440.74 L3589.62 1440.74 L3589.62 1438.89 L3595.93 1438.89 L3595.93 1437.52 L3602.36 1437.52 L3602.36 1435.92 L3608.67 1435.92 L3608.67 1434.06 L3614.99 1434.06 L3614.99 1432.57 L3621.30 1432.57 L3621.30 1431.34 L3627.61 1431.34 L3627.61 1429.60 L3634.04 1429.60 L3634.04 1428.49 L3640.35 1428.49 L3640.35 1427.38 L3646.66 1427.38 L3646.66 1426.63 L3652.98 1426.63 L3652.98 1426.51 L3659.29 1426.51 L3659.29 1426.26 L3672.03 1426.26 L3672.03 1426.26" stroke-linejoin="round" style="fill:none;stroke:#90353B;stroke-width:6.48"/>
	<path d=" M2512.87 1816.83 L2519.18 1816.83 L2519.18 1808.91 L2525.49 1808.91 L2525.49 1801.36 L2531.80 1801.36 L2531.80 1793.44 L2538.11 1793.44 L2538.11 1786.02 L2544.55 1786.02 L2544.55 1776.61 L2550.86 1776.61 L2550.86 1769.19 L2557.17 1769.19 L2557.17 1761.14 L2563.48 1761.14 L2563.48 1752.73 L2569.79 1752.73 L2569.79 1746.17 L2576.23 1746.17 L2576.23 1739.48 L2582.54 1739.48 L2582.54 1732.68 L2588.85 1732.68 L2588.85 1724.51 L2595.16 1724.51 L2595.16 1716.71 L2601.47 1716.71 L2601.47 1707.80 L2607.91 1707.80 L2607.91 1699.64 L2614.22 1699.64 L2614.22 1691.59 L2620.53 1691.59 L2620.53 1684.79 L2626.84 1684.79 L2626.84 1675.87 L2633.15 1675.87 L2633.15 1666.22 L2639.46 1666.22 L2639.46 1658.30 L2645.90 1658.30 L2645.90 1651.50 L2652.21 1651.50 L2652.21 1642.71 L2658.52 1642.71 L2658.52 1633.67 L2664.83 1633.67 L2664.83 1625.88 L2671.14 1625.88 L2671.14 1617.96 L2677.58 1617.96 L2677.58 1609.42 L2683.89 1609.42 L2683.89 1600.76 L2690.20 1600.76 L2690.20 1591.23 L2696.51 1591.23 L2696.51 1583.55 L2702.82 1583.55 L2702.82 1573.53 L2709.26 1573.53 L2709.26 1565.49 L2715.57 1565.49 L2715.57 1557.19 L2721.88 1557.19 L2721.88 1548.16 L2728.19 1548.16 L2728.19 1539.62 L2734.50 1539.62 L2734.50 1531.83 L2740.82 1531.83 L2740.82 1524.77 L2747.25 1524.77 L2747.25 1517.10 L2753.56 1517.10 L2753.56 1509.55 L2759.87 1509.55 L2759.87 1502.25 L2766.18 1502.25 L2766.18 1493.59 L2772.49 1493.59 L2772.49 1485.05 L2778.93 1485.05 L2778.93 1475.89 L2785.24 1475.89 L2785.24 1467.23 L2791.55 1467.23 L2791.55 1458.32 L2797.86 1458.32 L2797.86 1447.55 L2804.18 1447.55 L2804.18 1437.28 L2810.49 1437.28 L2810.49 1429.36 L2816.92 1429.36 L2816.92 1420.45 L2823.23 1420.45 L2823.23 1412.65 L2829.54 1412.65 L2829.54 1403.86 L2835.86 1403.86 L2835.86 1395.32 L2842.17 1395.32 L2842.17 1385.42 L2848.60 1385.42 L2848.60 1376.39 L2854.91 1376.39 L2854.91 1368.84 L2861.22 1368.84 L2861.22 1358.94 L2867.53 1358.94 L2867.53 1351.39 L2873.85 1351.39 L2873.85 1341.99 L2880.28 1341.99 L2880.28 1332.83 L2886.59 1332.83 L2886.59 1322.81 L2892.90 1322.81 L2892.90 1312.78 L2899.22 1312.78 L2899.22 1303.38 L2905.53 1303.38 L2905.53 1291.50 L2911.84 1291.50 L2911.84 1281.22 L2918.27 1281.22 L2918.27 1272.07 L2924.58 1272.07 L2924.58 1261.79 L2930.89 1261.79 L2930.89 1253.75 L2937.21 1253.75 L2937.21 1243.73 L2943.52 1243.73 L2943.52 1233.33 L2949.95 1233.33 L2949.95 1224.54 L2956.26 1224.54 L2956.26 1215.26 L2962.57 1215.26 L2962.57 1207.59 L2968.89 1207.59 L2968.89 1197.94 L2975.20 1197.94 L2975.20 1188.78 L2981.51 1188.78 L2981.51 1179.87 L2987.94 1179.87 L2987.94 1171.95 L2994.26 1171.95 L2994.26 1163.66 L3000.57 1163.66 L3000.57 1154.99 L3006.88 1154.99 L3006.88 1145.96 L3013.19 1145.96 L3013.19 1138.04 L3019.62 1138.04 L3019.62 1129.63 L3025.93 1129.63 L3025.93 1122.57 L3032.25 1122.57 L3032.25 1114.65 L3038.56 1114.65 L3038.56 1106.36 L3044.87 1106.36 L3044.87 1097.94 L3051.30 1097.94 L3051.30 1089.90 L3057.61 1089.90 L3057.61 1082.48 L3063.93 1082.48 L3063.93 1074.68 L3070.24 1074.68 L3070.24 1067.01 L3076.55 1067.01 L3076.55 1060.32 L3082.86 1060.32 L3082.86 1052.03 L3089.30 1052.03 L3089.30 1044.48 L3095.61 1044.48 L3095.61 1037.55 L3101.92 1037.55 L3101.92 1030.62 L3108.23 1030.62 L3108.23 1021.96 L3114.54 1021.96 L3114.54 1014.53 L3120.97 1014.53 L3120.97 1007.23 L3127.29 1007.23 L3127.29 998.82 L3133.60 998.82 L3133.60 990.53 L3139.91 990.53 L3139.91 984.71 L3146.22 984.71 L3146.22 976.17 L3152.53 976.17 L3152.53 969.61 L3158.97 969.61 L3158.97 962.31 L3165.28 962.31 L3165.28 955.13 L3171.59 955.13 L3171.59 947.95 L3177.90 947.95 L3177.90 941.40 L3184.21 941.40 L3184.21 933.60 L3190.65 933.60 L3190.65 926.67 L3196.96 926.67 L3196.96 920.36 L3203.27 920.36 L3203.27 913.67 L3209.58 913.67 L3209.58 907.86 L3215.89 907.86 L3215.89 900.80 L3222.33 900.80 L3222.33 895.73 L3228.64 895.73 L3228.64 889.42 L3234.95 889.42 L3234.95 881.87 L3241.26 881.87 L3241.26 874.69 L3247.57 874.69 L3247.57 868.75 L3253.88 868.75 L3253.88 863.18 L3260.32 863.18 L3260.32 855.76 L3266.63 855.76 L3266.63 849.45 L3272.94 849.45 L3272.94 843.01 L3279.25 843.01 L3279.25 836.08 L3285.56 836.08 L3285.56 829.15 L3292.00 829.15 L3292.00 823.09 L3298.31 823.09 L3298.31 816.90 L3304.62 816.90 L3304.62 810.34 L3310.93 810.34 L3310.93 803.16 L3317.24 803.16 L3317.24 797.10 L3323.55 797.10 L3323.55 790.17 L3329.99 790.17 L3329.99 784.10 L3336.30 784.10 L3336.30 777.55 L3342.61 777.55 L3342.61 770.37 L3348.92 770.37 L3348.92 764.43 L3355.23 764.43 L3355.23 758.86 L3361.67 758.86 L3361.67 751.19 L3367.98 751.19 L3367.98 744.50 L3374.29 744.50 L3374.29 738.19 L3380.60 738.19 L3380.60 731.51 L3386.91 731.51 L3386.91 725.57 L3393.35 725.57 L3393.35 719.13 L3399.66 719.13 L3399.66 711.46 L3405.97 711.46 L3405.97 705.40 L3412.28 705.40 L3412.28 697.60 L3418.59 697.60 L3418.59 691.17 L3424.91 691.17 L3424.91 684.48 L3431.34 684.48 L3431.34 676.56 L3437.65 676.56 L3437.65 668.89 L3443.96 668.89 L3443.96 662.08 L3450.27 662.08 L3450.27 656.02 L3456.59 656.02 L3456.59 649.09 L3463.02 649.09 L3463.02 642.78 L3469.33 642.78 L3469.33 635.60 L3475.64 635.60 L3475.64 629.78 L3481.95 629.78 L3481.95 623.72 L3488.26 623.72 L3488.26 617.66 L3494.58 617.66 L3494.58 611.84 L3501.01 611.84 L3501.01 606.77 L3507.32 606.77 L3507.32 599.59 L3513.63 599.59 L3513.63 592.66 L3519.95 592.66 L3519.95 585.85 L3526.26 585.85 L3526.26 580.03 L3532.69 580.03 L3532.69 574.47 L3539.00 574.47 L3539.00 569.02 L3545.31 569.02 L3545.31 564.19 L3551.63 564.19 L3551.63 558.13 L3557.94 558.13 L3557.94 549.34 L3564.37 549.34 L3564.37 542.66 L3570.68 542.66 L3570.68 534.37 L3576.99 534.37 L3576.99 527.93 L3583.30 527.93 L3583.30 521.62 L3589.62 521.62 L3589.62 515.81 L3595.93 515.81 L3595.93 508.75 L3602.36 508.75 L3602.36 501.33 L3608.67 501.33 L3608.67 495.02 L3614.99 495.02 L3614.99 487.71 L3621.30 487.71 L3621.30 481.03 L3627.61 481.03 L3627.61 475.34 L3634.04 475.34 L3634.04 469.89 L3640.35 469.89 L3640.35 466.18 L3646.66 466.18 L3646.66 463.46 L3652.98 463.46 L3652.98 462.47 L3659.29 462.47 L3659.29 461.97 L3672.03 461.97 L3672.03 461.97" stroke-linejoin="round" style="fill:none;stroke:#55752F;stroke-width:6.48"/>
	<line x1="2459.04" y1="1873.51" x2="2459.04" y2="414.45" style="stroke:#000000;stroke-width:4.32"/>
	<line x1="2459.04" y1="1825.99" x2="2429.09" y2="1825.99" style="stroke:#000000;stroke-width:4.32"/>
	<text x="2413.99" y="1852.27" style="font-family:'Helvetica';font-size:74.99px;fill:#000000" text-anchor="end">0.000</text>
	<line x1="2459.04" y1="1790.35" x2="2429.09" y2="1790.35" style="stroke:#000000;stroke-width:4.32"/>
	<text x="2413.99" y="1816.63" style="font-family:'Helvetica';font-size:74.99px;fill:#000000" text-anchor="end">0.001</text>
	<line x1="2459.04" y1="1754.58" x2="2429.09" y2="1754.58" style="stroke:#000000;stroke-width:4.32"/>
	<text x="2413.99" y="1780.86" style="font-family:'Helvetica';font-size:74.99px;fill:#000000" text-anchor="end">0.002</text>
	<line x1="2459.04" y1="1718.94" x2="2429.09" y2="1718.94" style="stroke:#000000;stroke-width:4.32"/>
	<text x="2413.99" y="1745.22" style="font-family:'Helvetica';font-size:74.99px;fill:#000000" text-anchor="end">0.003</text>
	<line x1="2459.04" y1="1683.30" x2="2429.09" y2="1683.30" style="stroke:#000000;stroke-width:4.32"/>
	<text x="2413.99" y="1709.58" style="font-family:'Helvetica';font-size:74.99px;fill:#000000" text-anchor="end">0.004</text>
	<line x1="2459.04" y1="1647.54" x2="2429.09" y2="1647.54" style="stroke:#000000;stroke-width:4.32"/>
	<text x="2413.99" y="1673.81" style="font-family:'Helvetica';font-size:74.99px;fill:#000000" text-anchor="end">0.005</text>
	<line x1="2459.04" y1="1873.51" x2="3820.91" y2="1873.51" style="stroke:#000000;stroke-width:4.32"/>
	<line x1="2506.56" y1="1873.51" x2="2506.56" y2="1903.46" style="stroke:#000000;stroke-width:4.32"/>
	<text x="2506.56" y="1970.87" style="font-family:'Helvetica';font-size:74.99px;fill:#000000" text-anchor="middle">1 Feb 20</text>
	<line x1="2690.20" y1="1873.51" x2="2690.20" y2="1903.46" style="stroke:#000000;stroke-width:4.32"/>
	<text x="2690.20" y="1970.87" style="font-family:'Helvetica';font-size:74.99px;fill:#000000" text-anchor="middle">1 Mar 20</text>
	<line x1="2886.59" y1="1873.51" x2="2886.59" y2="1903.46" style="stroke:#000000;stroke-width:4.32"/>
	<text x="2886.59" y="1970.87" style="font-family:'Helvetica';font-size:74.99px;fill:#000000" text-anchor="middle">1 Apr 20</text>
	<line x1="3082.98" y1="1873.51" x2="3082.98" y2="1903.46" style="stroke:#000000;stroke-width:4.32"/>
	<text x="3082.98" y="1970.87" style="font-family:'Helvetica';font-size:74.99px;fill:#000000" text-anchor="middle">1 May 20</text>
	<line x1="3272.94" y1="1873.51" x2="3272.94" y2="1903.46" style="stroke:#000000;stroke-width:4.32"/>
	<text x="3272.94" y="1970.87" style="font-family:'Helvetica';font-size:74.99px;fill:#000000" text-anchor="middle">1 June 20</text>
	<line x1="3463.02" y1="1873.51" x2="3463.02" y2="1903.46" style="stroke:#000000;stroke-width:4.32"/>
	<text x="3463.02" y="1970.87" style="font-family:'Helvetica';font-size:74.99px;fill:#000000" text-anchor="middle">1 July 20</text>
	<line x1="3659.41" y1="1873.51" x2="3659.41" y2="1903.46" style="stroke:#000000;stroke-width:4.32"/>
	<text x="3659.41" y="1970.87" style="font-family:'Helvetica';font-size:74.99px;fill:#000000" text-anchor="middle">1 Aug 20</text>
	<text x="3140.03" y="2053.41" style="font-family:'Helvetica';font-size:74.99px;fill:#000000" text-anchor="middle">Days since 1 Feb 2020</text>
	<text x="3140.03" y="369.91" style="font-family:'Helvetica';font-size:104.94px;fill:#1E2D53" text-anchor="middle">Male</text>
	<text x="150.62" y="1187.29" style="font-family:'Helvetica';font-size:99.99px;fill:#000000" transform="rotate(-90 150.62,1187.29)" text-anchor="middle">Cumulative probability</text>
	<text x="250.61" y="1187.29" style="font-family:'Helvetica';font-size:99.99px;fill:#000000" transform="rotate(-90 250.61,1187.29)" text-anchor="middle">Non covid death</text>
	<text x="2097.19" y="157.51" style="font-family:'Helvetica';font-size:110.01px;fill:#000000" text-anchor="middle"> </text>
	<rect x="1302.10" y="2201.21" width="1590.19" height="580.90" style="fill:#FFFFFF"/>
	<rect x="1304.98" y="2204.09" width="1584.43" height="575.14" style="fill:none;stroke:#000000;stroke-width:5.76"/>
	<line x1="1345.29" y1="2408.87" x2="1719.63" y2="2408.87" style="stroke:#1A476F;stroke-width:8.64"/>
	<line x1="1345.29" y1="2548.83" x2="1719.63" y2="2548.83" style="stroke:#90353B;stroke-width:8.64"/>
	<line x1="1345.29" y1="2688.92" x2="1719.63" y2="2688.92" style="stroke:#55752F;stroke-width:8.64"/>
	<text x="1779.65" y="2436.88" style="font-family:'Helvetica';font-size:79.94px;fill:#000000">18-&lt;30</text>
	<text x="1779.65" y="2576.85" style="font-family:'Helvetica';font-size:79.94px;fill:#000000">30-&lt;40</text>
	<text x="1779.65" y="2716.94" style="font-family:'Helvetica';font-size:79.94px;fill:#000000">40-&lt;50</text>
	<text x="2243.22" y="2436.88" style="font-family:'Helvetica';font-size:79.94px;fill:#000000">50-&lt;60</text>
	<text x="2243.22" y="2576.85" style="font-family:'Helvetica';font-size:79.94px;fill:#000000">60-&lt;70</text>
	<text x="2243.22" y="2716.94" style="font-family:'Helvetica';font-size:79.94px;fill:#000000">70-&lt;80</text>
	<text x="2706.78" y="2436.88" style="font-family:'Helvetica';font-size:79.94px;fill:#000000">80+</text>
	<text x="2097.19" y="2308.96" style="font-family:'Helvetica';font-size:79.94px;fill:#000000" text-anchor="middle">Age group</text>
</svg>
