<?xml version="1.0" encoding="UTF-8" standalone="no"?>
<!-- This is a Stata 16.1 generated SVG file (http://www.stata.com) -->

<svg version="1.1" width="5.50in" height="8.00in" viewBox="0 0 3960 5760" xmlns="http://www.w3.org/2000/svg" xmlns:xlink="http://www.w3.org/1999/xlink">
	<desc>Stata Graph - Graph</desc>
	<rect x="0" y="0" width="3960" height="5760" style="fill:#EAF2F3;stroke:none"/>
	<rect x="0.00" y="0.00" width="3960.00" height="5760.00" style="fill:#EAF2F3"/>
	<rect x="3.96" y="3.96" width="3952.08" height="5752.08" style="fill:none;stroke:#EAF2F3;stroke-width:7.92"/>
	<rect x="179.82" y="138.60" width="3641.58" height="5084.10" style="fill:#FFFFFF"/>
	<rect x="183.78" y="142.56" width="3633.66" height="5076.18" style="fill:none;stroke:#FFFFFF;stroke-width:7.92"/>
	<line x1="2125.26" y1="5222.70" x2="2125.26" y2="5143.50" style="stroke:#C10534;stroke-width:11.88"/>
	<line x1="2125.26" y1="5103.90" x2="2125.26" y2="5024.70" style="stroke:#C10534;stroke-width:11.88"/>
	<line x1="2125.26" y1="4985.10" x2="2125.26" y2="4905.90" style="stroke:#C10534;stroke-width:11.88"/>
	<line x1="2125.26" y1="4866.30" x2="2125.26" y2="4786.92" style="stroke:#C10534;stroke-width:11.88"/>
	<line x1="2125.26" y1="4747.32" x2="2125.26" y2="4668.12" style="stroke:#C10534;stroke-width:11.88"/>
	<line x1="2125.26" y1="4628.52" x2="2125.26" y2="4549.32" style="stroke:#C10534;stroke-width:11.88"/>
	<line x1="2125.26" y1="4509.72" x2="2125.26" y2="4430.52" style="stroke:#C10534;stroke-width:11.88"/>
	<line x1="2125.26" y1="4390.92" x2="2125.26" y2="4311.72" style="stroke:#C10534;stroke-width:11.88"/>
	<line x1="2125.26" y1="4272.12" x2="2125.26" y2="4192.92" style="stroke:#C10534;stroke-width:11.88"/>
	<line x1="2125.26" y1="4153.14" x2="2125.26" y2="4073.94" style="stroke:#C10534;stroke-width:11.88"/>
	<line x1="2125.26" y1="4034.34" x2="2125.26" y2="3955.14" style="stroke:#C10534;stroke-width:11.88"/>
	<line x1="2125.26" y1="3915.54" x2="2125.26" y2="3836.34" style="stroke:#C10534;stroke-width:11.88"/>
	<line x1="2125.26" y1="3796.74" x2="2125.26" y2="3717.54" style="stroke:#C10534;stroke-width:11.88"/>
	<line x1="2125.26" y1="3677.94" x2="2125.26" y2="3598.74" style="stroke:#C10534;stroke-width:11.88"/>
	<line x1="2125.26" y1="3559.14" x2="2125.26" y2="3479.76" style="stroke:#C10534;stroke-width:11.88"/>
	<line x1="2125.26" y1="3440.16" x2="2125.26" y2="3360.96" style="stroke:#C10534;stroke-width:11.88"/>
	<line x1="2125.26" y1="3321.36" x2="2125.26" y2="3242.16" style="stroke:#C10534;stroke-width:11.88"/>
	<line x1="2125.26" y1="3202.56" x2="2125.26" y2="3123.36" style="stroke:#C10534;stroke-width:11.88"/>
	<line x1="2125.26" y1="3083.76" x2="2125.26" y2="3004.56" style="stroke:#C10534;stroke-width:11.88"/>
	<line x1="2125.26" y1="2964.96" x2="2125.26" y2="2885.76" style="stroke:#C10534;stroke-width:11.88"/>
	<line x1="2125.26" y1="2845.98" x2="2125.26" y2="2766.78" style="stroke:#C10534;stroke-width:11.88"/>
	<line x1="2125.26" y1="2727.18" x2="2125.26" y2="2647.98" style="stroke:#C10534;stroke-width:11.88"/>
	<line x1="2125.26" y1="2608.38" x2="2125.26" y2="2529.18" style="stroke:#C10534;stroke-width:11.88"/>
	<line x1="2125.26" y1="2489.58" x2="2125.26" y2="2410.38" style="stroke:#C10534;stroke-width:11.88"/>
	<line x1="2125.26" y1="2370.78" x2="2125.26" y2="2291.58" style="stroke:#C10534;stroke-width:11.88"/>
	<line x1="2125.26" y1="2251.98" x2="2125.26" y2="2172.60" style="stroke:#C10534;stroke-width:11.88"/>
	<line x1="2125.26" y1="2133.00" x2="2125.26" y2="2053.80" style="stroke:#C10534;stroke-width:11.88"/>
	<line x1="2125.26" y1="2014.20" x2="2125.26" y2="1935.00" style="stroke:#C10534;stroke-width:11.88"/>
	<line x1="2125.26" y1="1895.40" x2="2125.26" y2="1816.20" style="stroke:#C10534;stroke-width:11.88"/>
	<line x1="2125.26" y1="1776.60" x2="2125.26" y2="1697.40" style="stroke:#C10534;stroke-width:11.88"/>
	<line x1="2125.26" y1="1657.80" x2="2125.26" y2="1578.42" style="stroke:#C10534;stroke-width:11.88"/>
	<line x1="2125.26" y1="1538.82" x2="2125.26" y2="1459.62" style="stroke:#C10534;stroke-width:11.88"/>
	<line x1="2125.26" y1="1420.02" x2="2125.26" y2="1340.82" style="stroke:#C10534;stroke-width:11.88"/>
	<line x1="2125.26" y1="1301.22" x2="2125.26" y2="1222.02" style="stroke:#C10534;stroke-width:11.88"/>
	<line x1="2125.26" y1="1182.42" x2="2125.26" y2="1103.22" style="stroke:#C10534;stroke-width:11.88"/>
	<line x1="2125.26" y1="1063.62" x2="2125.26" y2="984.42" style="stroke:#C10534;stroke-width:11.88"/>
	<line x1="2125.26" y1="944.64" x2="2125.26" y2="865.44" style="stroke:#C10534;stroke-width:11.88"/>
	<line x1="2125.26" y1="825.84" x2="2125.26" y2="746.64" style="stroke:#C10534;stroke-width:11.88"/>
	<line x1="2125.26" y1="707.04" x2="2125.26" y2="627.84" style="stroke:#C10534;stroke-width:11.88"/>
	<line x1="2125.26" y1="588.24" x2="2125.26" y2="509.04" style="stroke:#C10534;stroke-width:11.88"/>
	<line x1="2125.26" y1="469.44" x2="2125.26" y2="390.24" style="stroke:#C10534;stroke-width:11.88"/>
	<line x1="2125.26" y1="350.64" x2="2125.26" y2="271.26" style="stroke:#C10534;stroke-width:11.88"/>
	<line x1="2125.26" y1="231.66" x2="2125.26" y2="152.46" style="stroke:#C10534;stroke-width:11.88"/>
	<circle cx="2179.80" cy="5135.58" r="26.64" style="fill:#000000"/>
	<circle cx="2179.80" cy="5135.58" r="20.70" style="fill:none;stroke:#000000;stroke-width:11.88"/>
	<circle cx="2115.00" cy="4953.78" r="26.64" style="fill:#000000"/>
	<circle cx="2115.00" cy="4953.78" r="20.70" style="fill:none;stroke:#000000;stroke-width:11.88"/>
	<circle cx="2185.92" cy="4408.20" r="26.64" style="fill:#000000"/>
	<circle cx="2185.92" cy="4408.20" r="20.70" style="fill:none;stroke:#000000;stroke-width:11.88"/>
	<circle cx="2132.64" cy="4226.40" r="26.64" style="fill:#000000"/>
	<circle cx="2132.64" cy="4226.40" r="20.70" style="fill:none;stroke:#000000;stroke-width:11.88"/>
	<circle cx="2118.60" cy="3680.82" r="26.64" style="fill:#000000"/>
	<circle cx="2118.60" cy="3680.82" r="20.70" style="fill:none;stroke:#000000;stroke-width:11.88"/>
	<circle cx="2118.60" cy="3499.02" r="26.64" style="fill:#000000"/>
	<circle cx="2118.60" cy="3499.02" r="20.70" style="fill:none;stroke:#000000;stroke-width:11.88"/>
	<circle cx="2176.38" cy="2953.44" r="26.64" style="fill:#000000"/>
	<circle cx="2176.38" cy="2953.44" r="20.70" style="fill:none;stroke:#000000;stroke-width:11.88"/>
	<circle cx="2108.34" cy="2771.64" r="26.64" style="fill:#000000"/>
	<circle cx="2108.34" cy="2771.64" r="20.70" style="fill:none;stroke:#000000;stroke-width:11.88"/>
	<circle cx="2156.04" cy="2226.06" r="26.64" style="fill:#000000"/>
	<circle cx="2156.04" cy="2226.06" r="20.70" style="fill:none;stroke:#000000;stroke-width:11.88"/>
	<circle cx="2117.88" cy="2044.26" r="26.64" style="fill:#000000"/>
	<circle cx="2117.88" cy="2044.26" r="20.70" style="fill:none;stroke:#000000;stroke-width:11.88"/>
	<circle cx="2080.98" cy="1498.68" r="26.64" style="fill:#000000"/>
	<circle cx="2080.98" cy="1498.68" r="20.70" style="fill:none;stroke:#000000;stroke-width:11.88"/>
	<circle cx="2016.00" cy="1316.88" r="26.64" style="fill:#000000"/>
	<circle cx="2016.00" cy="1316.88" r="20.70" style="fill:none;stroke:#000000;stroke-width:11.88"/>
	<circle cx="2177.46" cy="771.30" r="26.64" style="fill:#000000"/>
	<circle cx="2177.46" cy="771.30" r="20.70" style="fill:none;stroke:#000000;stroke-width:11.88"/>
	<circle cx="2115.36" cy="589.50" r="26.64" style="fill:#000000"/>
	<circle cx="2115.36" cy="589.50" r="20.70" style="fill:none;stroke:#000000;stroke-width:11.88"/>
	<line x1="2081.16" y1="5135.58" x2="2278.62" y2="5135.58" style="stroke:#000000;stroke-width:11.88"/>
	<line x1="2278.62" y1="5165.82" x2="2278.62" y2="5105.34" stroke-linecap="round" style="stroke:#000000;stroke-width:11.88"/>
	<line x1="2081.16" y1="5165.82" x2="2081.16" y2="5105.34" stroke-linecap="round" style="stroke:#000000;stroke-width:11.88"/>
	<line x1="2029.86" y1="4953.78" x2="2200.50" y2="4953.78" style="stroke:#000000;stroke-width:11.88"/>
	<line x1="2200.50" y1="4984.02" x2="2200.50" y2="4923.54" stroke-linecap="round" style="stroke:#000000;stroke-width:11.88"/>
	<line x1="2029.86" y1="4984.02" x2="2029.86" y2="4923.54" stroke-linecap="round" style="stroke:#000000;stroke-width:11.88"/>
	<line x1="2084.94" y1="4408.20" x2="2287.08" y2="4408.20" style="stroke:#000000;stroke-width:11.88"/>
	<line x1="2287.08" y1="4438.44" x2="2287.08" y2="4377.96" stroke-linecap="round" style="stroke:#000000;stroke-width:11.88"/>
	<line x1="2084.94" y1="4438.44" x2="2084.94" y2="4377.96" stroke-linecap="round" style="stroke:#000000;stroke-width:11.88"/>
	<line x1="2045.52" y1="4226.40" x2="2219.76" y2="4226.40" style="stroke:#000000;stroke-width:11.88"/>
	<line x1="2219.76" y1="4256.64" x2="2219.76" y2="4196.16" stroke-linecap="round" style="stroke:#000000;stroke-width:11.88"/>
	<line x1="2045.52" y1="4256.64" x2="2045.52" y2="4196.16" stroke-linecap="round" style="stroke:#000000;stroke-width:11.88"/>
	<line x1="2035.62" y1="3680.82" x2="2201.94" y2="3680.82" style="stroke:#000000;stroke-width:11.88"/>
	<line x1="2201.94" y1="3711.06" x2="2201.94" y2="3650.58" stroke-linecap="round" style="stroke:#000000;stroke-width:11.88"/>
	<line x1="2035.62" y1="3711.06" x2="2035.62" y2="3650.58" stroke-linecap="round" style="stroke:#000000;stroke-width:11.88"/>
	<line x1="2035.62" y1="3499.02" x2="2201.94" y2="3499.02" style="stroke:#000000;stroke-width:11.88"/>
	<line x1="2201.94" y1="3529.26" x2="2201.94" y2="3468.78" stroke-linecap="round" style="stroke:#000000;stroke-width:11.88"/>
	<line x1="2035.62" y1="3529.26" x2="2035.62" y2="3468.78" stroke-linecap="round" style="stroke:#000000;stroke-width:11.88"/>
	<line x1="2076.30" y1="2953.44" x2="2276.82" y2="2953.44" style="stroke:#000000;stroke-width:11.88"/>
	<line x1="2276.82" y1="2983.68" x2="2276.82" y2="2923.20" stroke-linecap="round" style="stroke:#000000;stroke-width:11.88"/>
	<line x1="2076.30" y1="2983.68" x2="2076.30" y2="2923.20" stroke-linecap="round" style="stroke:#000000;stroke-width:11.88"/>
	<line x1="2022.12" y1="2771.64" x2="2194.92" y2="2771.64" style="stroke:#000000;stroke-width:11.88"/>
	<line x1="2194.92" y1="2801.88" x2="2194.92" y2="2741.40" stroke-linecap="round" style="stroke:#000000;stroke-width:11.88"/>
	<line x1="2022.12" y1="2801.88" x2="2022.12" y2="2741.40" stroke-linecap="round" style="stroke:#000000;stroke-width:11.88"/>
	<line x1="2047.86" y1="2226.06" x2="2264.58" y2="2226.06" style="stroke:#000000;stroke-width:11.88"/>
	<line x1="2264.58" y1="2256.30" x2="2264.58" y2="2195.82" stroke-linecap="round" style="stroke:#000000;stroke-width:11.88"/>
	<line x1="2047.86" y1="2256.30" x2="2047.86" y2="2195.82" stroke-linecap="round" style="stroke:#000000;stroke-width:11.88"/>
	<line x1="2025.54" y1="2044.26" x2="2210.22" y2="2044.26" style="stroke:#000000;stroke-width:11.88"/>
	<line x1="2210.22" y1="2074.50" x2="2210.22" y2="2014.02" stroke-linecap="round" style="stroke:#000000;stroke-width:11.88"/>
	<line x1="2025.54" y1="2074.50" x2="2025.54" y2="2014.02" stroke-linecap="round" style="stroke:#000000;stroke-width:11.88"/>
	<line x1="1961.64" y1="1498.68" x2="2200.68" y2="1498.68" style="stroke:#000000;stroke-width:11.88"/>
	<line x1="2200.68" y1="1528.92" x2="2200.68" y2="1468.44" stroke-linecap="round" style="stroke:#000000;stroke-width:11.88"/>
	<line x1="1961.64" y1="1528.92" x2="1961.64" y2="1468.44" stroke-linecap="round" style="stroke:#000000;stroke-width:11.88"/>
	<line x1="1916.46" y1="1316.88" x2="2115.72" y2="1316.88" style="stroke:#000000;stroke-width:11.88"/>
	<line x1="2115.72" y1="1347.12" x2="2115.72" y2="1286.64" stroke-linecap="round" style="stroke:#000000;stroke-width:11.88"/>
	<line x1="1916.46" y1="1347.12" x2="1916.46" y2="1286.64" stroke-linecap="round" style="stroke:#000000;stroke-width:11.88"/>
	<line x1="2078.46" y1="771.30" x2="2276.82" y2="771.30" style="stroke:#000000;stroke-width:11.88"/>
	<line x1="2276.82" y1="801.54" x2="2276.82" y2="741.06" stroke-linecap="round" style="stroke:#000000;stroke-width:11.88"/>
	<line x1="2078.46" y1="801.54" x2="2078.46" y2="741.06" stroke-linecap="round" style="stroke:#000000;stroke-width:11.88"/>
	<line x1="2030.58" y1="589.50" x2="2200.32" y2="589.50" style="stroke:#000000;stroke-width:11.88"/>
	<line x1="2200.32" y1="619.74" x2="2200.32" y2="559.26" stroke-linecap="round" style="stroke:#000000;stroke-width:11.88"/>
	<line x1="2030.58" y1="619.74" x2="2030.58" y2="559.26" stroke-linecap="round" style="stroke:#000000;stroke-width:11.88"/>
	<text x="324.72" y="4791.12" style="font-family:'Helvetica';font-size:55.08px;fill:#000000">Non-PH fitted</text>
	<text x="324.72" y="4063.74" style="font-family:'Helvetica';font-size:55.08px;fill:#000000">Participants with at least 12 months registration at GP (N=)</text>
	<text x="324.72" y="3336.36" style="font-family:'Helvetica';font-size:55.08px;fill:#000000">Using multiple imputation to handle missing ethnicity data (N=)</text>
	<text x="324.72" y="2608.98" style="font-family:'Helvetica';font-size:55.08px;fill:#000000">Age, instead of time in study, used as the underlying timescale in the cox model (N=)</text>
	<text x="324.72" y="1881.60" style="font-family:'Helvetica';font-size:55.08px;fill:#000000">Participants with complete data on BMI and smoking (N=)</text>
	<text x="324.72" y="1154.22" style="font-family:'Helvetica';font-size:55.08px;fill:#000000">Participants with complete data on ethnicity, BMI and smoking (N=)</text>
	<text x="324.72" y="426.84" style="font-family:'Helvetica';font-size:55.08px;fill:#000000">Participants with complete data on ethnicity (N=)</text>
	<text x="354.06" y="5154.90" style="font-family:'Helvetica';font-size:55.08px;fill:#808080">Children/young people aged 11-&lt;18 years</text>
	<text x="354.06" y="4973.10" style="font-family:'Helvetica';font-size:55.08px;fill:#808080">Children under 12 years</text>
	<text x="354.06" y="4427.52" style="font-family:'Helvetica';font-size:55.08px;fill:#808080">Children/young people aged 11-&lt;18 years</text>
	<text x="354.06" y="4245.72" style="font-family:'Helvetica';font-size:55.08px;fill:#808080">Children under 12 years</text>
	<text x="354.06" y="3700.14" style="font-family:'Helvetica';font-size:55.08px;fill:#808080">Children/young people aged 11-&lt;18 years</text>
	<text x="354.06" y="3518.34" style="font-family:'Helvetica';font-size:55.08px;fill:#808080">Children under 12 years</text>
	<text x="354.06" y="2972.76" style="font-family:'Helvetica';font-size:55.08px;fill:#808080">Children/young people aged 11-&lt;18 years</text>
	<text x="354.06" y="2790.96" style="font-family:'Helvetica';font-size:55.08px;fill:#808080">Children under 12 years</text>
	<text x="354.06" y="2245.38" style="font-family:'Helvetica';font-size:55.08px;fill:#808080">Children/young people aged 11-&lt;18 years</text>
	<text x="354.06" y="2063.58" style="font-family:'Helvetica';font-size:55.08px;fill:#808080">Children under 12 years</text>
	<text x="354.06" y="1518.00" style="font-family:'Helvetica';font-size:55.08px;fill:#808080">Children/young people aged 11-&lt;18 years</text>
	<text x="354.06" y="1336.20" style="font-family:'Helvetica';font-size:55.08px;fill:#808080">Children under 12 years</text>
	<text x="354.06" y="790.62" style="font-family:'Helvetica';font-size:55.08px;fill:#808080">Children/young people aged 11-&lt;18 years</text>
	<text x="354.06" y="608.82" style="font-family:'Helvetica';font-size:55.08px;fill:#808080">Children under 12 years</text>
	<line x1="179.82" y1="5222.70" x2="179.82" y2="138.60" style="stroke:#000000;stroke-width:7.92"/>
	<line x1="179.82" y1="5222.70" x2="3821.40" y2="5222.70" style="stroke:#000000;stroke-width:7.92"/>
	<line x1="1156.50" y1="5222.70" x2="1156.50" y2="5277.60" style="stroke:#000000;stroke-width:7.92"/>
	<text x="1156.50" y="5401.31" style="font-family:'Helvetica';font-size:137.52px;fill:#000000" text-anchor="middle">.25</text>
	<line x1="1640.88" y1="5222.70" x2="1640.88" y2="5277.60" style="stroke:#000000;stroke-width:7.92"/>
	<text x="1640.88" y="5401.31" style="font-family:'Helvetica';font-size:137.52px;fill:#000000" text-anchor="middle">.5</text>
	<line x1="2125.26" y1="5222.70" x2="2125.26" y2="5277.60" style="stroke:#000000;stroke-width:7.92"/>
	<text x="2125.26" y="5401.31" style="font-family:'Helvetica';font-size:137.52px;fill:#000000" text-anchor="middle">1</text>
	<line x1="2609.64" y1="5222.70" x2="2609.64" y2="5277.60" style="stroke:#000000;stroke-width:7.92"/>
	<text x="2609.64" y="5401.31" style="font-family:'Helvetica';font-size:137.52px;fill:#000000" text-anchor="middle">2</text>
	<line x1="3249.90" y1="5222.70" x2="3249.90" y2="5277.60" style="stroke:#000000;stroke-width:7.92"/>
	<text x="3249.90" y="5401.31" style="font-family:'Helvetica';font-size:137.52px;fill:#000000" text-anchor="middle">5</text>
	<line x1="3734.28" y1="5222.70" x2="3734.28" y2="5277.60" style="stroke:#000000;stroke-width:7.92"/>
	<text x="3734.28" y="5401.31" style="font-family:'Helvetica';font-size:137.52px;fill:#000000" text-anchor="middle">10</text>
	<text x="2000.70" y="5552.51" style="font-family:'Helvetica';font-size:137.52px;fill:#000000" text-anchor="middle">Hazard Ratio &amp; 95% CI</text>
</svg>
