<?xml version="1.0" encoding="UTF-8" standalone="no"?>
<!-- This is a Stata 16.1 generated SVG file (http://www.stata.com) -->

<svg version="1.1" width="5.50in" height="4.00in" viewBox="0 0 3960 2880" xmlns="http://www.w3.org/2000/svg" xmlns:xlink="http://www.w3.org/1999/xlink">
	<desc>Stata Graph - Graph</desc>
	<rect x="0" y="0" width="3960" height="2880" style="fill:#EAF2F3;stroke:none"/>
	<rect x="0.00" y="0.00" width="3959.88" height="2880.00" style="fill:#EAF2F3"/>
	<rect x="2.88" y="2.88" width="3954.12" height="2874.24" style="fill:none;stroke:#EAF2F3;stroke-width:5.76"/>
	<rect x="390.80" y="100.86" width="3468.22" height="2388.33" style="fill:#FFFFFF"/>
	<rect x="393.68" y="103.74" width="3462.46" height="2382.57" style="fill:none;stroke:#FFFFFF;stroke-width:5.76"/>
	<line x1="390.80" y1="2938.78" x2="3859.02" y2="2938.78" style="stroke:#EAF2F3;stroke-width:8.64"/>
	<line x1="390.80" y1="2245.14" x2="3859.02" y2="2245.14" style="stroke:#EAF2F3;stroke-width:8.64"/>
	<line x1="390.80" y1="1551.50" x2="3859.02" y2="1551.50" style="stroke:#EAF2F3;stroke-width:8.64"/>
	<line x1="390.80" y1="857.86" x2="3859.02" y2="857.86" style="stroke:#EAF2F3;stroke-width:8.64"/>
	<line x1="390.80" y1="164.22" x2="3859.02" y2="164.22" style="stroke:#EAF2F3;stroke-width:8.64"/>
	<line x1="390.80" y1="648.97" x2="3859.02" y2="648.97" style="stroke:#EAF2F3;stroke-width:8.64"/>
	<line x1="390.80" y1="250.11" x2="448.35" y2="250.11" style="stroke:#C10534;stroke-width:8.64"/>
	<line x1="477.18" y1="250.11" x2="534.72" y2="250.11" style="stroke:#C10534;stroke-width:8.64"/>
	<line x1="563.56" y1="250.11" x2="621.23" y2="250.11" style="stroke:#C10534;stroke-width:8.64"/>
	<line x1="649.93" y1="250.11" x2="707.60" y2="250.11" style="stroke:#C10534;stroke-width:8.64"/>
	<line x1="736.44" y1="250.11" x2="793.98" y2="250.11" style="stroke:#C10534;stroke-width:8.64"/>
	<line x1="822.81" y1="250.11" x2="880.36" y2="250.11" style="stroke:#C10534;stroke-width:8.64"/>
	<line x1="909.19" y1="250.11" x2="966.74" y2="250.11" style="stroke:#C10534;stroke-width:8.64"/>
	<line x1="995.57" y1="250.11" x2="1053.11" y2="250.11" style="stroke:#C10534;stroke-width:8.64"/>
	<line x1="1081.95" y1="250.11" x2="1139.49" y2="250.11" style="stroke:#C10534;stroke-width:8.64"/>
	<line x1="1168.32" y1="250.11" x2="1225.87" y2="250.11" style="stroke:#C10534;stroke-width:8.64"/>
	<line x1="1254.70" y1="250.11" x2="1312.24" y2="250.11" style="stroke:#C10534;stroke-width:8.64"/>
	<line x1="1341.08" y1="250.11" x2="1398.62" y2="250.11" style="stroke:#C10534;stroke-width:8.64"/>
	<line x1="1427.46" y1="250.11" x2="1485.00" y2="250.11" style="stroke:#C10534;stroke-width:8.64"/>
	<line x1="1513.83" y1="250.11" x2="1571.50" y2="250.11" style="stroke:#C10534;stroke-width:8.64"/>
	<line x1="1600.21" y1="250.11" x2="1657.88" y2="250.11" style="stroke:#C10534;stroke-width:8.64"/>
	<line x1="1686.71" y1="250.11" x2="1744.26" y2="250.11" style="stroke:#C10534;stroke-width:8.64"/>
	<line x1="1773.09" y1="250.11" x2="1830.63" y2="250.11" style="stroke:#C10534;stroke-width:8.64"/>
	<line x1="1859.47" y1="250.11" x2="1917.01" y2="250.11" style="stroke:#C10534;stroke-width:8.64"/>
	<line x1="1945.85" y1="250.11" x2="2003.39" y2="250.11" style="stroke:#C10534;stroke-width:8.64"/>
	<line x1="2032.22" y1="250.11" x2="2089.77" y2="250.11" style="stroke:#C10534;stroke-width:8.64"/>
	<line x1="2118.60" y1="250.11" x2="2176.14" y2="250.11" style="stroke:#C10534;stroke-width:8.64"/>
	<line x1="2204.98" y1="250.11" x2="2262.52" y2="250.11" style="stroke:#C10534;stroke-width:8.64"/>
	<line x1="2291.36" y1="250.11" x2="2348.90" y2="250.11" style="stroke:#C10534;stroke-width:8.64"/>
	<line x1="2377.73" y1="250.11" x2="2435.40" y2="250.11" style="stroke:#C10534;stroke-width:8.64"/>
	<line x1="2464.11" y1="250.11" x2="2521.78" y2="250.11" style="stroke:#C10534;stroke-width:8.64"/>
	<line x1="2550.49" y1="250.11" x2="2608.16" y2="250.11" style="stroke:#C10534;stroke-width:8.64"/>
	<line x1="2636.99" y1="250.11" x2="2694.53" y2="250.11" style="stroke:#C10534;stroke-width:8.64"/>
	<line x1="2723.37" y1="250.11" x2="2780.91" y2="250.11" style="stroke:#C10534;stroke-width:8.64"/>
	<line x1="2809.74" y1="250.11" x2="2867.29" y2="250.11" style="stroke:#C10534;stroke-width:8.64"/>
	<line x1="2896.12" y1="250.11" x2="2953.66" y2="250.11" style="stroke:#C10534;stroke-width:8.64"/>
	<line x1="2982.50" y1="250.11" x2="3040.04" y2="250.11" style="stroke:#C10534;stroke-width:8.64"/>
	<line x1="3068.88" y1="250.11" x2="3126.42" y2="250.11" style="stroke:#C10534;stroke-width:8.64"/>
	<line x1="3155.25" y1="250.11" x2="3212.80" y2="250.11" style="stroke:#C10534;stroke-width:8.64"/>
	<line x1="3241.63" y1="250.11" x2="3299.18" y2="250.11" style="stroke:#C10534;stroke-width:8.64"/>
	<line x1="3328.01" y1="250.11" x2="3385.68" y2="250.11" style="stroke:#C10534;stroke-width:8.64"/>
	<line x1="3414.39" y1="250.11" x2="3472.05" y2="250.11" style="stroke:#C10534;stroke-width:8.64"/>
	<line x1="3500.76" y1="250.11" x2="3558.43" y2="250.11" style="stroke:#C10534;stroke-width:8.64"/>
	<line x1="3587.26" y1="250.11" x2="3644.81" y2="250.11" style="stroke:#C10534;stroke-width:8.64"/>
	<line x1="3673.64" y1="250.11" x2="3731.19" y2="250.11" style="stroke:#C10534;stroke-width:8.64"/>
	<line x1="3760.02" y1="250.11" x2="3817.56" y2="250.11" style="stroke:#C10534;stroke-width:8.64"/>
	<line x1="3846.40" y1="250.11" x2="3859.02" y2="250.11" style="stroke:#C10534;stroke-width:8.64"/>
	<path d=" M454.04 2425.95 L518.39 2386.35 L582.62 2350.95 L646.84 2284.74 L711.07 2267.79 L775.42 2228.56 L839.64 2189.45 L903.87 2150.72 L968.22 2112.35 L1032.45 2074.61 L1096.67 2037.24 L1160.90 2000.61 L1225.25 1968.92 L1289.47 1933.78 L1353.70 1899.62 L1418.05 1866.33 L1482.28 1834.03 L1546.50 1798.76 L1610.73 1768.81 L1675.08 1739.86 L1739.31 1716.34 L1803.53 1689.61 L1867.88 1663.99 L1932.11 1635.16 L1996.34 1615.85 L2060.56 1589.12 L2124.91 1545.19 L2189.14 1551.50 L2253.36 1527.99 L2317.59 1509.55 L2381.94 1492.10 L2446.17 1475.76 L2510.39 1464.50 L2574.74 1423.05 L2638.97 1431.71 L2703.20 1418.59 L2767.42 1406.09 L2831.77 1394.21 L2896.00 1382.95 L2960.22 1371.94 L3024.57 1361.54 L3088.80 1328.75 L3153.03 1318.84 L3217.25 1331.72 L3281.60 1322.06 L3345.83 1312.53 L3410.05 1303.13 L3474.41 1293.60" stroke-linejoin="round" style="fill:none;stroke:#1A476F;stroke-width:8.64"/>
	<line x1="390.80" y1="2489.19" x2="390.80" y2="100.86" style="stroke:#000000;stroke-width:5.76"/>
	<line x1="390.80" y1="2938.78" x2="350.83" y2="2938.78" style="stroke:#000000;stroke-width:5.76"/>
	<text x="300.72" y="2938.78" style="font-family:'Helvetica';font-size:99.99px;fill:#000000" transform="rotate(-90 300.72,2938.78)" text-anchor="middle">.01</text>
	<line x1="390.80" y1="2245.14" x2="350.83" y2="2245.14" style="stroke:#000000;stroke-width:5.76"/>
	<text x="300.72" y="2245.14" style="font-family:'Helvetica';font-size:99.99px;fill:#000000" transform="rotate(-90 300.72,2245.14)" text-anchor="middle">.1</text>
	<line x1="390.80" y1="1551.50" x2="350.83" y2="1551.50" style="stroke:#000000;stroke-width:5.76"/>
	<text x="300.72" y="1551.50" style="font-family:'Helvetica';font-size:99.99px;fill:#000000" transform="rotate(-90 300.72,1551.50)" text-anchor="middle">1</text>
	<line x1="390.80" y1="857.86" x2="350.83" y2="857.86" style="stroke:#000000;stroke-width:5.76"/>
	<text x="300.72" y="857.86" style="font-family:'Helvetica';font-size:99.99px;fill:#000000" transform="rotate(-90 300.72,857.86)" text-anchor="middle">10</text>
	<line x1="390.80" y1="164.22" x2="350.83" y2="164.22" style="stroke:#000000;stroke-width:5.76"/>
	<text x="300.72" y="164.22" style="font-family:'Helvetica';font-size:99.99px;fill:#000000" transform="rotate(-90 300.72,164.22)" text-anchor="middle">100</text>
	<line x1="390.80" y1="648.97" x2="350.83" y2="648.97" style="stroke:#000000;stroke-width:5.76"/>
	<text x="300.72" y="648.97" style="font-family:'Helvetica';font-size:99.99px;fill:#000000" transform="rotate(-90 300.72,648.97)" text-anchor="middle">20</text>
	<text x="190.71" y="1294.96" style="font-family:'Helvetica';font-size:99.99px;fill:#000000" transform="rotate(-90 190.71,1294.96)" text-anchor="middle">Hazard ratio compared to age 45 years (log scale)</text>
	<line x1="390.80" y1="2489.19" x2="3859.02" y2="2489.19" style="stroke:#000000;stroke-width:5.76"/>
	<line x1="582.62" y1="2489.19" x2="582.62" y2="2529.16" style="stroke:#000000;stroke-width:5.76"/>
	<text x="582.62" y="2619.14" style="font-family:'Helvetica';font-size:99.99px;fill:#000000" text-anchor="middle">20</text>
	<line x1="1225.25" y1="2489.19" x2="1225.25" y2="2529.16" style="stroke:#000000;stroke-width:5.76"/>
	<text x="1225.25" y="2619.14" style="font-family:'Helvetica';font-size:99.99px;fill:#000000" text-anchor="middle">30</text>
	<line x1="1867.88" y1="2489.19" x2="1867.88" y2="2529.16" style="stroke:#000000;stroke-width:5.76"/>
	<text x="1867.88" y="2619.14" style="font-family:'Helvetica';font-size:99.99px;fill:#000000" text-anchor="middle">40</text>
	<line x1="2510.52" y1="2489.19" x2="2510.52" y2="2529.16" style="stroke:#000000;stroke-width:5.76"/>
	<text x="2510.52" y="2619.14" style="font-family:'Helvetica';font-size:99.99px;fill:#000000" text-anchor="middle">50</text>
	<line x1="3153.15" y1="2489.19" x2="3153.15" y2="2529.16" style="stroke:#000000;stroke-width:5.76"/>
	<text x="3153.15" y="2619.14" style="font-family:'Helvetica';font-size:99.99px;fill:#000000" text-anchor="middle">60</text>
	<line x1="3795.66" y1="2489.19" x2="3795.66" y2="2529.16" style="stroke:#000000;stroke-width:5.76"/>
	<text x="3795.66" y="2619.14" style="font-family:'Helvetica';font-size:99.99px;fill:#000000" text-anchor="middle">70</text>
	<text x="2124.91" y="2729.16" style="font-family:'Helvetica';font-size:99.99px;fill:#000000" text-anchor="middle">Age in years</text>
</svg>
