<?xml version="1.0" encoding="UTF-8" standalone="no"?>
<!-- This is a Stata 16.1 generated SVG file (http://www.stata.com) -->

<svg version="1.1" width="5.50in" height="4.00in" viewBox="0 0 3960 2880" xmlns="http://www.w3.org/2000/svg" xmlns:xlink="http://www.w3.org/1999/xlink">
	<desc>Stata Graph - Graph</desc>
	<rect x="0" y="0" width="3960" height="2880" style="fill:#EAF2F3;stroke:none"/>
	<rect x="0.00" y="0.00" width="3959.88" height="2880.00" style="fill:#EAF2F3"/>
	<rect x="2.88" y="2.88" width="3954.12" height="2874.24" style="fill:none;stroke:#EAF2F3;stroke-width:5.76"/>
	<rect x="297.87" y="207.91" width="1799.32" height="1958.65" style="fill:#EAF2F3"/>
	<rect x="300.03" y="210.07" width="1795.01" height="1954.33" style="fill:none;stroke:#EAF2F3;stroke-width:4.32"/>
	<rect x="659.71" y="414.45" width="1361.87" height="1459.06" style="fill:#FFFFFF"/>
	<rect x="661.87" y="416.61" width="1357.55" height="1454.74" style="fill:none;stroke:#FFFFFF;stroke-width:4.32"/>
	<line x1="659.71" y1="1825.99" x2="2021.58" y2="1825.99" style="stroke:#EAF2F3;stroke-width:6.48"/>
	<line x1="659.71" y1="1782.06" x2="2021.58" y2="1782.06" style="stroke:#EAF2F3;stroke-width:6.48"/>
	<line x1="659.71" y1="1738.00" x2="2021.58" y2="1738.00" style="stroke:#EAF2F3;stroke-width:6.48"/>
	<line x1="659.71" y1="1694.07" x2="2021.58" y2="1694.07" style="stroke:#EAF2F3;stroke-width:6.48"/>
	<line x1="659.71" y1="1650.01" x2="2021.58" y2="1650.01" style="stroke:#EAF2F3;stroke-width:6.48"/>
	<line x1="659.71" y1="1606.08" x2="2021.58" y2="1606.08" style="stroke:#EAF2F3;stroke-width:6.48"/>
	<path d=" M713.54 1825.00 L719.85 1825.00 L719.85 1824.01 L726.16 1824.01 L726.16 1822.89 L732.48 1822.89 L732.48 1821.66 L738.91 1821.66 L738.91 1820.91 L745.22 1820.91 L745.22 1820.54 L751.53 1820.54 L751.53 1820.05 L757.85 1820.05 L757.85 1818.93 L764.16 1818.93 L764.16 1818.07 L770.59 1818.07 L770.59 1816.83 L776.90 1816.83 L776.90 1815.59 L783.21 1815.59 L783.21 1814.23 L789.52 1814.23 L789.52 1813.24 L795.84 1813.24 L795.84 1811.88 L802.27 1811.88 L802.27 1811.14 L808.58 1811.14 L808.58 1810.02 L814.89 1810.02 L814.89 1808.91 L821.21 1808.91 L821.21 1808.04 L827.52 1808.04 L827.52 1807.30 L833.83 1807.30 L833.83 1806.68 L840.26 1806.68 L840.26 1806.19 L846.57 1806.19 L846.57 1805.32 L852.88 1805.32 L852.88 1804.70 L859.20 1804.70 L859.20 1803.71 L865.51 1803.71 L865.51 1802.60 L871.94 1802.60 L871.94 1800.50 L878.25 1800.50 L878.25 1799.88 L884.57 1799.88 L884.57 1798.89 L890.88 1798.89 L890.88 1798.14 L897.19 1798.14 L897.19 1797.15 L903.50 1797.15 L903.50 1796.41 L909.93 1796.41 L909.93 1795.79 L916.25 1795.79 L916.25 1794.18 L922.56 1794.18 L922.56 1793.19 L928.87 1793.19 L928.87 1792.33 L935.18 1792.33 L935.18 1791.96 L941.61 1791.96 L941.61 1791.09 L947.92 1791.09 L947.92 1790.47 L954.24 1790.47 L954.24 1789.85 L960.55 1789.85 L960.55 1788.86 L966.86 1788.86 L966.86 1788.24 L973.29 1788.24 L973.29 1787.38 L979.61 1787.38 L979.61 1787.25 L985.92 1787.25 L985.92 1786.02 L992.23 1786.02 L992.23 1785.03 L998.54 1785.03 L998.54 1783.66 L1004.85 1783.66 L1004.85 1782.67 L1011.28 1782.67 L1011.28 1782.06 L1017.60 1782.06 L1017.60 1781.19 L1023.91 1781.19 L1023.91 1779.46 L1030.22 1779.46 L1030.22 1778.47 L1036.53 1778.47 L1036.53 1776.86 L1042.96 1776.86 L1042.96 1775.62 L1049.28 1775.62 L1049.28 1775.00 L1055.59 1775.00 L1055.59 1773.76 L1061.90 1773.76 L1061.90 1772.28 L1068.21 1772.28 L1068.21 1770.92 L1074.52 1770.92 L1074.52 1769.68 L1080.96 1769.68 L1080.96 1768.94 L1087.27 1768.94 L1087.27 1768.07 L1093.58 1768.07 L1093.58 1766.71 L1099.89 1766.71 L1099.89 1765.84 L1106.20 1765.84 L1106.20 1765.72 L1112.64 1765.72 L1112.64 1764.61 L1118.95 1764.61 L1118.95 1762.75 L1125.26 1762.75 L1125.26 1761.76 L1131.57 1761.76 L1131.57 1760.89 L1137.88 1760.89 L1137.88 1759.28 L1144.32 1759.28 L1144.32 1758.79 L1150.63 1758.79 L1150.63 1757.30 L1156.94 1757.30 L1156.94 1756.07 L1163.25 1756.07 L1163.25 1755.08 L1169.56 1755.08 L1169.56 1754.21 L1175.87 1754.21 L1175.87 1753.84 L1182.31 1753.84 L1182.31 1752.60 L1188.62 1752.60 L1188.62 1751.61 L1194.93 1751.61 L1194.93 1750.87 L1201.24 1750.87 L1201.24 1749.76 L1207.55 1749.76 L1207.55 1748.52 L1213.99 1748.52 L1213.99 1746.91 L1220.30 1746.91 L1220.30 1746.04 L1226.61 1746.04 L1226.61 1745.05 L1232.92 1745.05 L1232.92 1744.31 L1239.23 1744.31 L1239.23 1742.95 L1245.54 1742.95 L1245.54 1741.96 L1251.98 1741.96 L1251.98 1741.09 L1258.29 1741.09 L1258.29 1740.60 L1264.60 1740.60 L1264.60 1739.48 L1270.91 1739.48 L1270.91 1738.12 L1277.22 1738.12 L1277.22 1737.38 L1283.66 1737.38 L1283.66 1736.64 L1289.97 1736.64 L1289.97 1735.28 L1296.28 1735.28 L1296.28 1733.92 L1302.59 1733.92 L1302.59 1732.68 L1308.90 1732.68 L1308.90 1731.44 L1315.34 1731.44 L1315.34 1730.57 L1321.65 1730.57 L1321.65 1729.46 L1327.96 1729.46 L1327.96 1728.84 L1334.27 1728.84 L1334.27 1728.22 L1340.58 1728.22 L1340.58 1726.74 L1346.89 1726.74 L1346.89 1726.12 L1353.33 1726.12 L1353.33 1724.51 L1359.64 1724.51 L1359.64 1724.02 L1365.95 1724.02 L1365.95 1723.03 L1372.26 1723.03 L1372.26 1722.16 L1378.58 1722.16 L1378.58 1720.80 L1385.01 1720.80 L1385.01 1720.43 L1391.32 1720.43 L1391.32 1719.06 L1397.63 1719.06 L1397.63 1718.94 L1403.94 1718.94 L1403.94 1718.07 L1410.26 1718.07 L1410.26 1716.96 L1416.57 1716.96 L1416.57 1716.22 L1423.00 1716.22 L1423.00 1715.60 L1429.31 1715.60 L1429.31 1714.61 L1435.62 1714.61 L1435.62 1713.37 L1441.93 1713.37 L1441.93 1712.63 L1448.25 1712.63 L1448.25 1711.14 L1454.68 1711.14 L1454.68 1710.15 L1460.99 1710.15 L1460.99 1709.91 L1467.30 1709.91 L1467.30 1709.04 L1473.62 1709.04 L1473.62 1708.30 L1479.93 1708.30 L1479.93 1707.43 L1486.36 1707.43 L1486.36 1706.94 L1492.67 1706.94 L1492.67 1705.20 L1498.98 1705.20 L1498.98 1704.21 L1505.30 1704.21 L1505.30 1703.47 L1511.61 1703.47 L1511.61 1702.73 L1517.92 1702.73 L1517.92 1701.62 L1524.35 1701.62 L1524.35 1700.50 L1530.66 1700.50 L1530.66 1699.26 L1536.97 1699.26 L1536.97 1698.27 L1543.29 1698.27 L1543.29 1697.41 L1549.60 1697.41 L1549.60 1696.42 L1556.03 1696.42 L1556.03 1695.80 L1562.34 1695.80 L1562.34 1695.43 L1568.65 1695.43 L1568.65 1693.94 L1574.97 1693.94 L1574.97 1693.32 L1581.28 1693.32 L1581.28 1692.58 L1587.59 1692.58 L1587.59 1692.21 L1594.02 1692.21 L1594.02 1690.97 L1600.34 1690.97 L1600.34 1690.60 L1606.65 1690.60 L1606.65 1689.61 L1612.96 1689.61 L1612.96 1688.62 L1619.27 1688.62 L1619.27 1687.51 L1625.70 1687.51 L1625.70 1686.39 L1632.02 1686.39 L1632.02 1685.53 L1638.33 1685.53 L1638.33 1684.41 L1644.64 1684.41 L1644.64 1683.42 L1650.95 1683.42 L1650.95 1682.56 L1657.38 1682.56 L1657.38 1681.32 L1663.69 1681.32 L1663.69 1680.58 L1670.01 1680.58 L1670.01 1679.34 L1676.32 1679.34 L1676.32 1678.23 L1682.63 1678.23 L1682.63 1676.99 L1688.94 1676.99 L1688.94 1676.37 L1695.38 1676.37 L1695.38 1675.38 L1701.69 1675.38 L1701.69 1674.76 L1708.00 1674.76 L1708.00 1673.89 L1714.31 1673.89 L1714.31 1673.15 L1720.62 1673.15 L1720.62 1671.91 L1727.06 1671.91 L1727.06 1671.05 L1733.37 1671.05 L1733.37 1670.18 L1739.68 1670.18 L1739.68 1669.32 L1745.99 1669.32 L1745.99 1667.95 L1752.30 1667.95 L1752.30 1667.09 L1758.73 1667.09 L1758.73 1666.47 L1765.05 1666.47 L1765.05 1665.23 L1771.36 1665.23 L1771.36 1664.49 L1777.67 1664.49 L1777.67 1663.50 L1783.98 1663.50 L1783.98 1662.76 L1790.29 1662.76 L1790.29 1661.77 L1796.73 1661.77 L1796.73 1660.90 L1803.04 1660.90 L1803.04 1660.16 L1809.35 1660.16 L1809.35 1659.17 L1815.66 1659.17 L1815.66 1658.67 L1821.97 1658.67 L1821.97 1657.81 L1828.41 1657.81 L1828.41 1657.68 L1834.72 1657.68 L1834.72 1657.06 L1841.03 1657.06 L1841.03 1656.82 L1847.34 1656.82 L1847.34 1656.57 L1872.71 1656.57 L1872.71 1656.57" stroke-linejoin="round" style="fill:none;stroke:#1A476F;stroke-width:6.48"/>
	<path d=" M713.54 1823.51 L719.85 1823.51 L719.85 1821.66 L726.16 1821.66 L726.16 1820.05 L732.48 1820.05 L732.48 1818.19 L738.91 1818.19 L738.91 1816.09 L745.22 1816.09 L745.22 1814.11 L751.53 1814.11 L751.53 1812.00 L757.85 1812.00 L757.85 1810.02 L764.16 1810.02 L764.16 1807.92 L770.59 1807.92 L770.59 1806.19 L776.90 1806.19 L776.90 1804.21 L783.21 1804.21 L783.21 1802.48 L789.52 1802.48 L789.52 1800.62 L795.84 1800.62 L795.84 1798.14 L802.27 1798.14 L802.27 1796.29 L808.58 1796.29 L808.58 1794.68 L814.89 1794.68 L814.89 1792.45 L821.21 1792.45 L821.21 1790.59 L827.52 1790.59 L827.52 1788.99 L833.83 1788.99 L833.83 1787.13 L840.26 1787.13 L840.26 1784.90 L846.57 1784.90 L846.57 1782.92 L852.88 1782.92 L852.88 1781.19 L859.20 1781.19 L859.20 1779.33 L865.51 1779.33 L865.51 1777.85 L871.94 1777.85 L871.94 1775.99 L878.25 1775.99 L878.25 1774.01 L884.57 1774.01 L884.57 1771.78 L890.88 1771.78 L890.88 1769.80 L897.19 1769.80 L897.19 1767.70 L903.50 1767.70 L903.50 1765.35 L909.93 1765.35 L909.93 1763.74 L916.25 1763.74 L916.25 1762.26 L922.56 1762.26 L922.56 1760.03 L928.87 1760.03 L928.87 1757.68 L935.18 1757.68 L935.18 1755.57 L941.61 1755.57 L941.61 1753.72 L947.92 1753.72 L947.92 1751.86 L954.24 1751.86 L954.24 1749.76 L960.55 1749.76 L960.55 1747.78 L966.86 1747.78 L966.86 1745.92 L973.29 1745.92 L973.29 1743.57 L979.61 1743.57 L979.61 1741.34 L985.92 1741.34 L985.92 1738.87 L992.23 1738.87 L992.23 1736.64 L998.54 1736.64 L998.54 1734.16 L1004.85 1734.16 L1004.85 1732.06 L1011.28 1732.06 L1011.28 1729.21 L1017.60 1729.21 L1017.60 1726.99 L1023.91 1726.99 L1023.91 1724.88 L1030.22 1724.88 L1030.22 1722.90 L1036.53 1722.90 L1036.53 1721.05 L1042.96 1721.05 L1042.96 1718.57 L1049.28 1718.57 L1049.28 1715.97 L1055.59 1715.97 L1055.59 1714.24 L1061.90 1714.24 L1061.90 1712.26 L1068.21 1712.26 L1068.21 1709.78 L1074.52 1709.78 L1074.52 1707.56 L1080.96 1707.56 L1080.96 1705.58 L1087.27 1705.58 L1087.27 1703.10 L1093.58 1703.10 L1093.58 1700.38 L1099.89 1700.38 L1099.89 1698.27 L1106.20 1698.27 L1106.20 1696.42 L1112.64 1696.42 L1112.64 1693.70 L1118.95 1693.70 L1118.95 1691.72 L1125.26 1691.72 L1125.26 1689.49 L1131.57 1689.49 L1131.57 1687.51 L1137.88 1687.51 L1137.88 1685.16 L1144.32 1685.16 L1144.32 1682.68 L1150.63 1682.68 L1150.63 1679.59 L1156.94 1679.59 L1156.94 1677.11 L1163.25 1677.11 L1163.25 1675.01 L1169.56 1675.01 L1169.56 1673.03 L1175.87 1673.03 L1175.87 1670.43 L1182.31 1670.43 L1182.31 1668.45 L1188.62 1668.45 L1188.62 1667.09 L1194.93 1667.09 L1194.93 1665.23 L1201.24 1665.23 L1201.24 1663.25 L1207.55 1663.25 L1207.55 1661.40 L1213.99 1661.40 L1213.99 1659.79 L1220.30 1659.79 L1220.30 1657.44 L1226.61 1657.44 L1226.61 1655.21 L1232.92 1655.21 L1232.92 1653.48 L1239.23 1653.48 L1239.23 1651.74 L1245.54 1651.74 L1245.54 1649.89 L1251.98 1649.89 L1251.98 1648.03 L1258.29 1648.03 L1258.29 1646.30 L1264.60 1646.30 L1264.60 1644.57 L1270.91 1644.57 L1270.91 1642.71 L1277.22 1642.71 L1277.22 1640.73 L1283.66 1640.73 L1283.66 1638.75 L1289.97 1638.75 L1289.97 1636.77 L1296.28 1636.77 L1296.28 1634.91 L1302.59 1634.91 L1302.59 1632.56 L1308.90 1632.56 L1308.90 1630.83 L1315.34 1630.83 L1315.34 1629.10 L1321.65 1629.10 L1321.65 1627.61 L1327.96 1627.61 L1327.96 1626.00 L1334.27 1626.00 L1334.27 1624.27 L1340.58 1624.27 L1340.58 1622.17 L1346.89 1622.17 L1346.89 1620.19 L1353.33 1620.19 L1353.33 1618.33 L1359.64 1618.33 L1359.64 1616.72 L1365.95 1616.72 L1365.95 1614.62 L1372.26 1614.62 L1372.26 1613.01 L1378.58 1613.01 L1378.58 1610.90 L1385.01 1610.90 L1385.01 1609.54 L1391.32 1609.54 L1391.32 1608.06 L1397.63 1608.06 L1397.63 1605.95 L1403.94 1605.95 L1403.94 1604.72 L1410.26 1604.72 L1410.26 1602.86 L1416.57 1602.86 L1416.57 1601.00 L1423.00 1601.00 L1423.00 1599.77 L1429.31 1599.77 L1429.31 1598.16 L1435.62 1598.16 L1435.62 1596.55 L1441.93 1596.55 L1441.93 1594.57 L1448.25 1594.57 L1448.25 1592.84 L1454.68 1592.84 L1454.68 1590.73 L1460.99 1590.73 L1460.99 1589.00 L1467.30 1589.00 L1467.30 1587.02 L1473.62 1587.02 L1473.62 1585.29 L1479.93 1585.29 L1479.93 1583.31 L1486.36 1583.31 L1486.36 1580.83 L1492.67 1580.83 L1492.67 1578.85 L1498.98 1578.85 L1498.98 1577.00 L1505.30 1577.00 L1505.30 1575.51 L1511.61 1575.51 L1511.61 1573.16 L1517.92 1573.16 L1517.92 1571.43 L1524.35 1571.43 L1524.35 1569.57 L1530.66 1569.57 L1530.66 1567.96 L1536.97 1567.96 L1536.97 1566.11 L1543.29 1566.11 L1543.29 1564.25 L1549.60 1564.25 L1549.60 1562.39 L1556.03 1562.39 L1556.03 1560.54 L1562.34 1560.54 L1562.34 1558.56 L1568.65 1558.56 L1568.65 1556.70 L1574.97 1556.70 L1574.97 1555.09 L1581.28 1555.09 L1581.28 1552.99 L1587.59 1552.99 L1587.59 1550.64 L1594.02 1550.64 L1594.02 1548.90 L1600.34 1548.90 L1600.34 1547.29 L1606.65 1547.29 L1606.65 1545.69 L1612.96 1545.69 L1612.96 1543.09 L1619.27 1543.09 L1619.27 1541.35 L1625.70 1541.35 L1625.70 1538.38 L1632.02 1538.38 L1632.02 1536.16 L1638.33 1536.16 L1638.33 1534.42 L1644.64 1534.42 L1644.64 1532.82 L1650.95 1532.82 L1650.95 1530.59 L1657.38 1530.59 L1657.38 1528.61 L1663.69 1528.61 L1663.69 1526.75 L1670.01 1526.75 L1670.01 1524.90 L1676.32 1524.90 L1676.32 1523.29 L1682.63 1523.29 L1682.63 1521.80 L1688.94 1521.80 L1688.94 1519.70 L1695.38 1519.70 L1695.38 1518.09 L1701.69 1518.09 L1701.69 1516.60 L1708.00 1516.60 L1708.00 1514.99 L1714.31 1514.99 L1714.31 1512.89 L1720.62 1512.89 L1720.62 1511.03 L1727.06 1511.03 L1727.06 1509.30 L1733.37 1509.30 L1733.37 1507.32 L1739.68 1507.32 L1739.68 1505.09 L1745.99 1505.09 L1745.99 1502.99 L1752.30 1502.99 L1752.30 1501.13 L1758.73 1501.13 L1758.73 1499.65 L1765.05 1499.65 L1765.05 1497.55 L1771.36 1497.55 L1771.36 1495.94 L1777.67 1495.94 L1777.67 1494.08 L1783.98 1494.08 L1783.98 1492.35 L1790.29 1492.35 L1790.29 1490.37 L1796.73 1490.37 L1796.73 1488.76 L1803.04 1488.76 L1803.04 1487.03 L1809.35 1487.03 L1809.35 1485.79 L1815.66 1485.79 L1815.66 1484.43 L1821.97 1484.43 L1821.97 1483.07 L1828.41 1483.07 L1828.41 1481.58 L1834.72 1481.58 L1834.72 1480.72 L1841.03 1480.72 L1841.03 1479.85 L1847.34 1479.85 L1847.34 1479.23 L1853.65 1479.23 L1853.65 1479.11 L1866.40 1479.11 L1866.40 1478.98 L1872.71 1478.98 L1872.71 1478.98" stroke-linejoin="round" style="fill:none;stroke:#90353B;stroke-width:6.48"/>
	<path d=" M713.54 1818.32 L719.85 1818.32 L719.85 1811.51 L726.16 1811.51 L726.16 1803.96 L732.48 1803.96 L732.48 1795.92 L738.91 1795.92 L738.91 1788.61 L745.22 1788.61 L745.22 1779.70 L751.53 1779.70 L751.53 1772.03 L757.85 1772.03 L757.85 1764.73 L764.16 1764.73 L764.16 1756.31 L770.59 1756.31 L770.59 1749.26 L776.90 1749.26 L776.90 1742.08 L783.21 1742.08 L783.21 1733.17 L789.52 1733.17 L789.52 1724.26 L795.84 1724.26 L795.84 1716.84 L802.27 1716.84 L802.27 1708.05 L808.58 1708.05 L808.58 1700.63 L814.89 1700.63 L814.89 1692.21 L821.21 1692.21 L821.21 1683.80 L827.52 1683.80 L827.52 1676.12 L833.83 1676.12 L833.83 1667.46 L840.26 1667.46 L840.26 1658.30 L846.57 1658.30 L846.57 1651.74 L852.88 1651.74 L852.88 1644.32 L859.20 1644.32 L859.20 1635.28 L865.51 1635.28 L865.51 1626.99 L871.94 1626.99 L871.94 1620.06 L878.25 1620.06 L878.25 1612.14 L884.57 1612.14 L884.57 1603.85 L890.88 1603.85 L890.88 1596.18 L897.19 1596.18 L897.19 1586.90 L903.50 1586.90 L903.50 1577.99 L909.93 1577.99 L909.93 1570.07 L916.25 1570.07 L916.25 1562.39 L922.56 1562.39 L922.56 1552.00 L928.87 1552.00 L928.87 1545.56 L935.18 1545.56 L935.18 1537.89 L941.61 1537.89 L941.61 1529.97 L947.92 1529.97 L947.92 1520.32 L954.24 1520.32 L954.24 1511.53 L960.55 1511.53 L960.55 1503.11 L966.86 1503.11 L966.86 1495.57 L973.29 1495.57 L973.29 1486.41 L979.61 1486.41 L979.61 1479.11 L985.92 1479.11 L985.92 1470.20 L992.23 1470.20 L992.23 1462.28 L998.54 1462.28 L998.54 1453.49 L1004.85 1453.49 L1004.85 1445.32 L1011.28 1445.32 L1011.28 1436.41 L1017.60 1436.41 L1017.60 1427.87 L1023.91 1427.87 L1023.91 1420.08 L1030.22 1420.08 L1030.22 1411.91 L1036.53 1411.91 L1036.53 1403.37 L1042.96 1403.37 L1042.96 1394.46 L1049.28 1394.46 L1049.28 1386.29 L1055.59 1386.29 L1055.59 1376.64 L1061.90 1376.64 L1061.90 1368.47 L1068.21 1368.47 L1068.21 1361.29 L1074.52 1361.29 L1074.52 1351.64 L1080.96 1351.64 L1080.96 1343.47 L1087.27 1343.47 L1087.27 1332.58 L1093.58 1332.58 L1093.58 1324.04 L1099.89 1324.04 L1099.89 1315.50 L1106.20 1315.50 L1106.20 1304.12 L1112.64 1304.12 L1112.64 1295.46 L1118.95 1295.46 L1118.95 1284.44 L1125.26 1284.44 L1125.26 1275.78 L1131.57 1275.78 L1131.57 1266.50 L1137.88 1266.50 L1137.88 1256.72 L1144.32 1256.72 L1144.32 1246.57 L1150.63 1246.57 L1150.63 1237.41 L1156.94 1237.41 L1156.94 1226.65 L1163.25 1226.65 L1163.25 1218.36 L1169.56 1218.36 L1169.56 1209.82 L1175.87 1209.82 L1175.87 1200.91 L1182.31 1200.91 L1182.31 1193.36 L1188.62 1193.36 L1188.62 1184.32 L1194.93 1184.32 L1194.93 1175.79 L1201.24 1175.79 L1201.24 1167.25 L1207.55 1167.25 L1207.55 1159.70 L1213.99 1159.70 L1213.99 1150.91 L1220.30 1150.91 L1220.30 1143.61 L1226.61 1143.61 L1226.61 1134.70 L1232.92 1134.70 L1232.92 1126.53 L1239.23 1126.53 L1239.23 1118.61 L1245.54 1118.61 L1245.54 1110.81 L1251.98 1110.81 L1251.98 1102.28 L1258.29 1102.28 L1258.29 1094.23 L1264.60 1094.23 L1264.60 1086.31 L1270.91 1086.31 L1270.91 1079.50 L1277.22 1079.50 L1277.22 1071.83 L1283.66 1071.83 L1283.66 1063.91 L1289.97 1063.91 L1289.97 1055.37 L1296.28 1055.37 L1296.28 1048.81 L1302.59 1048.81 L1302.59 1042.13 L1308.90 1042.13 L1308.90 1034.09 L1315.34 1034.09 L1315.34 1025.92 L1321.65 1025.92 L1321.65 1017.01 L1327.96 1017.01 L1327.96 1009.96 L1334.27 1009.96 L1334.27 1002.28 L1340.58 1002.28 L1340.58 996.71 L1346.89 996.71 L1346.89 990.15 L1353.33 990.15 L1353.33 982.85 L1359.64 982.85 L1359.64 975.06 L1365.95 975.06 L1365.95 967.26 L1372.26 967.26 L1372.26 961.07 L1378.58 961.07 L1378.58 954.51 L1385.01 954.51 L1385.01 946.22 L1391.32 946.22 L1391.32 938.55 L1397.63 938.55 L1397.63 931.25 L1403.94 931.25 L1403.94 923.70 L1410.26 923.70 L1410.26 917.63 L1416.57 917.63 L1416.57 912.19 L1423.00 912.19 L1423.00 906.37 L1429.31 906.37 L1429.31 899.44 L1435.62 899.44 L1435.62 892.39 L1441.93 892.39 L1441.93 885.58 L1448.25 885.58 L1448.25 879.02 L1454.68 879.02 L1454.68 873.21 L1460.99 873.21 L1460.99 866.40 L1467.30 866.40 L1467.30 860.96 L1473.62 860.96 L1473.62 852.79 L1479.93 852.79 L1479.93 845.73 L1486.36 845.73 L1486.36 838.68 L1492.67 838.68 L1492.67 832.62 L1498.98 832.62 L1498.98 825.81 L1505.30 825.81 L1505.30 819.13 L1511.61 819.13 L1511.61 812.44 L1517.92 812.44 L1517.92 804.65 L1524.35 804.65 L1524.35 797.72 L1530.66 797.72 L1530.66 792.02 L1536.97 792.02 L1536.97 785.34 L1543.29 785.34 L1543.29 778.04 L1549.60 778.04 L1549.60 771.73 L1556.03 771.73 L1556.03 766.16 L1562.34 766.16 L1562.34 758.98 L1568.65 758.98 L1568.65 753.17 L1574.97 753.17 L1574.97 743.88 L1581.28 743.88 L1581.28 735.84 L1587.59 735.84 L1587.59 730.15 L1594.02 730.15 L1594.02 722.10 L1600.34 722.10 L1600.34 715.92 L1606.65 715.92 L1606.65 708.37 L1612.96 708.37 L1612.96 701.44 L1619.27 701.44 L1619.27 694.75 L1625.70 694.75 L1625.70 686.83 L1632.02 686.83 L1632.02 679.04 L1638.33 679.04 L1638.33 671.61 L1644.64 671.61 L1644.64 665.67 L1650.95 665.67 L1650.95 659.86 L1657.38 659.86 L1657.38 654.91 L1663.69 654.91 L1663.69 647.85 L1670.01 647.85 L1670.01 641.05 L1676.32 641.05 L1676.32 634.49 L1682.63 634.49 L1682.63 626.19 L1688.94 626.19 L1688.94 619.14 L1695.38 619.14 L1695.38 612.46 L1701.69 612.46 L1701.69 607.14 L1708.00 607.14 L1708.00 599.96 L1714.31 599.96 L1714.31 593.52 L1720.62 593.52 L1720.62 587.34 L1727.06 587.34 L1727.06 578.92 L1733.37 578.92 L1733.37 572.86 L1739.68 572.86 L1739.68 565.93 L1745.99 565.93 L1745.99 559.12 L1752.30 559.12 L1752.30 553.43 L1758.73 553.43 L1758.73 547.36 L1765.05 547.36 L1765.05 541.18 L1771.36 541.18 L1771.36 534.62 L1777.67 534.62 L1777.67 527.07 L1783.98 527.07 L1783.98 520.39 L1790.29 520.39 L1790.29 512.96 L1796.73 512.96 L1796.73 505.78 L1803.04 505.78 L1803.04 498.48 L1809.35 498.48 L1809.35 491.18 L1815.66 491.18 L1815.66 485.73 L1821.97 485.73 L1821.97 478.80 L1828.41 478.80 L1828.41 473.23 L1834.72 473.23 L1834.72 468.90 L1841.03 468.90 L1841.03 466.55 L1847.34 466.55 L1847.34 463.58 L1853.65 463.58 L1853.65 462.72 L1859.96 462.72 L1859.96 462.22 L1866.40 462.22 L1866.40 461.97 L1872.71 461.97 L1872.71 461.97" stroke-linejoin="round" style="fill:none;stroke:#55752F;stroke-width:6.48"/>
	<line x1="659.71" y1="1873.51" x2="659.71" y2="414.45" style="stroke:#000000;stroke-width:4.32"/>
	<line x1="659.71" y1="1825.99" x2="629.76" y2="1825.99" style="stroke:#000000;stroke-width:4.32"/>
	<text x="614.79" y="1852.27" style="font-family:'Helvetica';font-size:74.99px;fill:#000000" text-anchor="end">0.000</text>
	<line x1="659.71" y1="1782.06" x2="629.76" y2="1782.06" style="stroke:#000000;stroke-width:4.32"/>
	<text x="614.79" y="1808.33" style="font-family:'Helvetica';font-size:74.99px;fill:#000000" text-anchor="end">0.001</text>
	<line x1="659.71" y1="1738.00" x2="629.76" y2="1738.00" style="stroke:#000000;stroke-width:4.32"/>
	<text x="614.79" y="1764.28" style="font-family:'Helvetica';font-size:74.99px;fill:#000000" text-anchor="end">0.002</text>
	<line x1="659.71" y1="1694.07" x2="629.76" y2="1694.07" style="stroke:#000000;stroke-width:4.32"/>
	<text x="614.79" y="1720.35" style="font-family:'Helvetica';font-size:74.99px;fill:#000000" text-anchor="end">0.003</text>
	<line x1="659.71" y1="1650.01" x2="629.76" y2="1650.01" style="stroke:#000000;stroke-width:4.32"/>
	<text x="614.79" y="1676.29" style="font-family:'Helvetica';font-size:74.99px;fill:#000000" text-anchor="end">0.004</text>
	<line x1="659.71" y1="1606.08" x2="629.76" y2="1606.08" style="stroke:#000000;stroke-width:4.32"/>
	<text x="614.79" y="1632.36" style="font-family:'Helvetica';font-size:74.99px;fill:#000000" text-anchor="end">0.005</text>
	<line x1="659.71" y1="1873.51" x2="2021.58" y2="1873.51" style="stroke:#000000;stroke-width:4.32"/>
	<line x1="707.23" y1="1873.51" x2="707.23" y2="1903.46" style="stroke:#000000;stroke-width:4.32"/>
	<text x="707.23" y="1970.87" style="font-family:'Helvetica';font-size:74.99px;fill:#000000" text-anchor="middle">1 Feb 20</text>
	<line x1="891.00" y1="1873.51" x2="891.00" y2="1903.46" style="stroke:#000000;stroke-width:4.32"/>
	<text x="891.00" y="1970.87" style="font-family:'Helvetica';font-size:74.99px;fill:#000000" text-anchor="middle">1 Mar 20</text>
	<line x1="1087.27" y1="1873.51" x2="1087.27" y2="1903.46" style="stroke:#000000;stroke-width:4.32"/>
	<text x="1087.27" y="1970.87" style="font-family:'Helvetica';font-size:74.99px;fill:#000000" text-anchor="middle">1 Apr 20</text>
	<line x1="1283.66" y1="1873.51" x2="1283.66" y2="1903.46" style="stroke:#000000;stroke-width:4.32"/>
	<text x="1283.66" y="1970.87" style="font-family:'Helvetica';font-size:74.99px;fill:#000000" text-anchor="middle">1 May 20</text>
	<line x1="1473.74" y1="1873.51" x2="1473.74" y2="1903.46" style="stroke:#000000;stroke-width:4.32"/>
	<text x="1473.74" y="1970.87" style="font-family:'Helvetica';font-size:74.99px;fill:#000000" text-anchor="middle">1 June 20</text>
	<line x1="1663.69" y1="1873.51" x2="1663.69" y2="1903.46" style="stroke:#000000;stroke-width:4.32"/>
	<text x="1663.69" y="1970.87" style="font-family:'Helvetica';font-size:74.99px;fill:#000000" text-anchor="middle">1 July 20</text>
	<line x1="1860.09" y1="1873.51" x2="1860.09" y2="1903.46" style="stroke:#000000;stroke-width:4.32"/>
	<text x="1860.09" y="1970.87" style="font-family:'Helvetica';font-size:74.99px;fill:#000000" text-anchor="middle">1 Aug 20</text>
	<text x="1340.71" y="2053.41" style="font-family:'Helvetica';font-size:74.99px;fill:#000000" text-anchor="middle"> </text>
	<text x="1340.71" y="369.91" style="font-family:'Helvetica';font-size:104.94px;fill:#1E2D53" text-anchor="middle">Female</text>
	<rect x="2097.19" y="207.91" width="1799.33" height="1958.65" style="fill:#EAF2F3"/>
	<rect x="2099.35" y="210.07" width="1795.01" height="1954.33" style="fill:none;stroke:#EAF2F3;stroke-width:4.32"/>
	<rect x="2459.04" y="414.45" width="1361.87" height="1459.06" style="fill:#FFFFFF"/>
	<rect x="2461.20" y="416.61" width="1357.55" height="1454.74" style="fill:none;stroke:#FFFFFF;stroke-width:4.32"/>
	<line x1="2459.04" y1="1825.99" x2="3820.91" y2="1825.99" style="stroke:#EAF2F3;stroke-width:6.48"/>
	<line x1="2459.04" y1="1790.72" x2="3820.91" y2="1790.72" style="stroke:#EAF2F3;stroke-width:6.48"/>
	<line x1="2459.04" y1="1755.57" x2="3820.91" y2="1755.57" style="stroke:#EAF2F3;stroke-width:6.48"/>
	<line x1="2459.04" y1="1720.30" x2="3820.91" y2="1720.30" style="stroke:#EAF2F3;stroke-width:6.48"/>
	<line x1="2459.04" y1="1685.03" x2="3820.91" y2="1685.03" style="stroke:#EAF2F3;stroke-width:6.48"/>
	<line x1="2459.04" y1="1649.89" x2="3820.91" y2="1649.89" style="stroke:#EAF2F3;stroke-width:6.48"/>
	<path d=" M2512.87 1824.50 L2519.18 1824.50 L2519.18 1823.64 L2525.49 1823.64 L2525.49 1822.65 L2531.80 1822.65 L2531.80 1821.29 L2538.11 1821.29 L2538.11 1819.80 L2544.55 1819.80 L2544.55 1819.18 L2550.86 1819.18 L2550.86 1817.33 L2557.17 1817.33 L2557.17 1816.34 L2563.48 1816.34 L2563.48 1814.85 L2569.79 1814.85 L2569.79 1813.74 L2576.23 1813.74 L2576.23 1811.51 L2582.54 1811.51 L2582.54 1810.02 L2588.85 1810.02 L2588.85 1808.42 L2595.16 1808.42 L2595.16 1806.68 L2601.47 1806.68 L2601.47 1805.32 L2607.91 1805.32 L2607.91 1803.84 L2614.22 1803.84 L2614.22 1802.48 L2620.53 1802.48 L2620.53 1800.87 L2626.84 1800.87 L2626.84 1799.01 L2633.15 1799.01 L2633.15 1797.03 L2639.46 1797.03 L2639.46 1795.42 L2645.90 1795.42 L2645.90 1794.31 L2652.21 1794.31 L2652.21 1793.07 L2658.52 1793.07 L2658.52 1792.45 L2664.83 1792.45 L2664.83 1791.46 L2671.14 1791.46 L2671.14 1790.47 L2677.58 1790.47 L2677.58 1789.23 L2683.89 1789.23 L2683.89 1788.24 L2690.20 1788.24 L2690.20 1786.63 L2696.51 1786.63 L2696.51 1784.65 L2702.82 1784.65 L2702.82 1783.42 L2709.26 1783.42 L2709.26 1782.06 L2715.57 1782.06 L2715.57 1781.19 L2721.88 1781.19 L2721.88 1780.08 L2728.19 1780.08 L2728.19 1779.21 L2734.50 1779.21 L2734.50 1778.22 L2740.82 1778.22 L2740.82 1776.86 L2747.25 1776.86 L2747.25 1775.87 L2753.56 1775.87 L2753.56 1773.76 L2759.87 1773.76 L2759.87 1772.53 L2766.18 1772.53 L2766.18 1771.29 L2772.49 1771.29 L2772.49 1770.30 L2778.93 1770.30 L2778.93 1768.94 L2785.24 1768.94 L2785.24 1767.45 L2791.55 1767.45 L2791.55 1765.97 L2797.86 1765.97 L2797.86 1764.11 L2804.18 1764.11 L2804.18 1762.26 L2810.49 1762.26 L2810.49 1760.77 L2816.92 1760.77 L2816.92 1759.53 L2823.23 1759.53 L2823.23 1758.17 L2829.54 1758.17 L2829.54 1757.18 L2835.86 1757.18 L2835.86 1755.82 L2842.17 1755.82 L2842.17 1754.71 L2848.60 1754.71 L2848.60 1753.47 L2854.91 1753.47 L2854.91 1752.23 L2861.22 1752.23 L2861.22 1751.36 L2867.53 1751.36 L2867.53 1750.25 L2873.85 1750.25 L2873.85 1749.01 L2880.28 1749.01 L2880.28 1747.65 L2886.59 1747.65 L2886.59 1746.79 L2892.90 1746.79 L2892.90 1745.05 L2899.22 1745.05 L2899.22 1743.57 L2905.53 1743.57 L2905.53 1741.59 L2911.84 1741.59 L2911.84 1739.98 L2918.27 1739.98 L2918.27 1738.62 L2924.58 1738.62 L2924.58 1737.13 L2930.89 1737.13 L2930.89 1735.65 L2937.21 1735.65 L2937.21 1734.29 L2943.52 1734.29 L2943.52 1733.54 L2949.95 1733.54 L2949.95 1732.43 L2956.26 1732.43 L2956.26 1731.32 L2962.57 1731.32 L2962.57 1729.96 L2968.89 1729.96 L2968.89 1728.97 L2975.20 1728.97 L2975.20 1727.36 L2981.51 1727.36 L2981.51 1725.75 L2987.94 1725.75 L2987.94 1724.14 L2994.26 1724.14 L2994.26 1722.65 L3000.57 1722.65 L3000.57 1721.54 L3006.88 1721.54 L3006.88 1720.43 L3013.19 1720.43 L3013.19 1719.44 L3019.62 1719.44 L3019.62 1718.20 L3025.93 1718.20 L3025.93 1716.71 L3032.25 1716.71 L3032.25 1715.35 L3038.56 1715.35 L3038.56 1714.11 L3044.87 1714.11 L3044.87 1713.25 L3051.30 1713.25 L3051.30 1711.27 L3057.61 1711.27 L3057.61 1710.28 L3063.93 1710.28 L3063.93 1708.55 L3070.24 1708.55 L3070.24 1707.43 L3076.55 1707.43 L3076.55 1706.57 L3082.86 1706.57 L3082.86 1704.96 L3089.30 1704.96 L3089.30 1703.84 L3095.61 1703.84 L3095.61 1703.22 L3101.92 1703.22 L3101.92 1701.86 L3108.23 1701.86 L3108.23 1700.75 L3114.54 1700.75 L3114.54 1699.76 L3120.97 1699.76 L3120.97 1698.65 L3127.29 1698.65 L3127.29 1697.66 L3133.60 1697.66 L3133.60 1696.42 L3139.91 1696.42 L3139.91 1695.06 L3146.22 1695.06 L3146.22 1693.57 L3152.53 1693.57 L3152.53 1692.71 L3158.97 1692.71 L3158.97 1691.34 L3165.28 1691.34 L3165.28 1690.60 L3171.59 1690.60 L3171.59 1689.86 L3177.90 1689.86 L3177.90 1688.87 L3184.21 1688.87 L3184.21 1687.88 L3190.65 1687.88 L3190.65 1686.89 L3196.96 1686.89 L3196.96 1686.39 L3203.27 1686.39 L3203.27 1685.16 L3209.58 1685.16 L3209.58 1684.04 L3215.89 1684.04 L3215.89 1683.42 L3222.33 1683.42 L3222.33 1681.94 L3228.64 1681.94 L3228.64 1681.20 L3234.95 1681.20 L3234.95 1679.96 L3241.26 1679.96 L3241.26 1678.47 L3247.57 1678.47 L3247.57 1676.99 L3253.88 1676.99 L3253.88 1675.87 L3260.32 1675.87 L3260.32 1674.88 L3266.63 1674.88 L3266.63 1674.27 L3272.94 1674.27 L3272.94 1673.15 L3279.25 1673.15 L3279.25 1672.16 L3285.56 1672.16 L3285.56 1671.17 L3292.00 1671.17 L3292.00 1669.81 L3298.31 1669.81 L3298.31 1668.20 L3304.62 1668.20 L3304.62 1667.46 L3310.93 1667.46 L3310.93 1666.35 L3317.24 1666.35 L3317.24 1665.48 L3323.55 1665.48 L3323.55 1664.61 L3329.99 1664.61 L3329.99 1663.50 L3336.30 1663.50 L3336.30 1662.26 L3342.61 1662.26 L3342.61 1661.27 L3348.92 1661.27 L3348.92 1659.66 L3355.23 1659.66 L3355.23 1658.80 L3361.67 1658.80 L3361.67 1657.31 L3367.98 1657.31 L3367.98 1656.32 L3374.29 1656.32 L3374.29 1655.21 L3380.60 1655.21 L3380.60 1654.22 L3386.91 1654.22 L3386.91 1652.49 L3393.35 1652.49 L3393.35 1651.37 L3399.66 1651.37 L3399.66 1649.89 L3405.97 1649.89 L3405.97 1648.77 L3412.28 1648.77 L3412.28 1646.92 L3418.59 1646.92 L3418.59 1645.68 L3424.91 1645.68 L3424.91 1644.69 L3431.34 1644.69 L3431.34 1643.33 L3437.65 1643.33 L3437.65 1642.09 L3443.96 1642.09 L3443.96 1640.73 L3450.27 1640.73 L3450.27 1639.74 L3456.59 1639.74 L3456.59 1638.38 L3463.02 1638.38 L3463.02 1636.52 L3469.33 1636.52 L3469.33 1635.41 L3475.64 1635.41 L3475.64 1634.66 L3481.95 1634.66 L3481.95 1633.67 L3488.26 1633.67 L3488.26 1632.07 L3494.58 1632.07 L3494.58 1630.46 L3501.01 1630.46 L3501.01 1629.22 L3507.32 1629.22 L3507.32 1627.98 L3513.63 1627.98 L3513.63 1626.87 L3519.95 1626.87 L3519.95 1625.88 L3526.26 1625.88 L3526.26 1624.27 L3532.69 1624.27 L3532.69 1623.16 L3539.00 1623.16 L3539.00 1622.17 L3545.31 1622.17 L3545.31 1621.42 L3551.63 1621.42 L3551.63 1620.68 L3557.94 1620.68 L3557.94 1620.06 L3564.37 1620.06 L3564.37 1619.57 L3570.68 1619.57 L3570.68 1618.08 L3576.99 1618.08 L3576.99 1617.46 L3583.30 1617.46 L3583.30 1616.47 L3589.62 1616.47 L3589.62 1615.61 L3595.93 1615.61 L3595.93 1614.62 L3602.36 1614.62 L3602.36 1614.00 L3608.67 1614.00 L3608.67 1613.01 L3614.99 1613.01 L3614.99 1612.27 L3621.30 1612.27 L3621.30 1611.40 L3627.61 1611.40 L3627.61 1610.53 L3634.04 1610.53 L3634.04 1609.91 L3640.35 1609.91 L3640.35 1609.67 L3646.66 1609.67 L3646.66 1609.54 L3672.03 1609.54 L3672.03 1609.54" stroke-linejoin="round" style="fill:none;stroke:#1A476F;stroke-width:6.48"/>
	<path d=" M2512.87 1823.88 L2519.18 1823.88 L2519.18 1822.03 L2525.49 1822.03 L2525.49 1819.80 L2531.80 1819.80 L2531.80 1818.07 L2538.11 1818.07 L2538.11 1815.84 L2544.55 1815.84 L2544.55 1813.74 L2550.86 1813.74 L2550.86 1810.77 L2557.17 1810.77 L2557.17 1807.92 L2563.48 1807.92 L2563.48 1805.20 L2569.79 1805.20 L2569.79 1802.85 L2576.23 1802.85 L2576.23 1800.62 L2582.54 1800.62 L2582.54 1798.51 L2588.85 1798.51 L2588.85 1795.54 L2595.16 1795.54 L2595.16 1793.32 L2601.47 1793.32 L2601.47 1790.97 L2607.91 1790.97 L2607.91 1788.74 L2614.22 1788.74 L2614.22 1787.01 L2620.53 1787.01 L2620.53 1785.03 L2626.84 1785.03 L2626.84 1782.55 L2633.15 1782.55 L2633.15 1780.08 L2639.46 1780.08 L2639.46 1777.85 L2645.90 1777.85 L2645.90 1775.25 L2652.21 1775.25 L2652.21 1772.90 L2658.52 1772.90 L2658.52 1770.18 L2664.83 1770.18 L2664.83 1767.95 L2671.14 1767.95 L2671.14 1765.23 L2677.58 1765.23 L2677.58 1762.63 L2683.89 1762.63 L2683.89 1760.77 L2690.20 1760.77 L2690.20 1757.92 L2696.51 1757.92 L2696.51 1755.45 L2702.82 1755.45 L2702.82 1752.73 L2709.26 1752.73 L2709.26 1750.87 L2715.57 1750.87 L2715.57 1748.77 L2721.88 1748.77 L2721.88 1746.66 L2728.19 1746.66 L2728.19 1744.43 L2734.50 1744.43 L2734.50 1741.71 L2740.82 1741.71 L2740.82 1739.11 L2747.25 1739.11 L2747.25 1736.27 L2753.56 1736.27 L2753.56 1733.92 L2759.87 1733.92 L2759.87 1730.95 L2766.18 1730.95 L2766.18 1728.97 L2772.49 1728.97 L2772.49 1726.49 L2778.93 1726.49 L2778.93 1724.14 L2785.24 1724.14 L2785.24 1721.17 L2791.55 1721.17 L2791.55 1719.31 L2797.86 1719.31 L2797.86 1717.08 L2804.18 1717.08 L2804.18 1714.49 L2810.49 1714.49 L2810.49 1711.76 L2816.92 1711.76 L2816.92 1709.66 L2823.23 1709.66 L2823.23 1706.81 L2829.54 1706.81 L2829.54 1704.09 L2835.86 1704.09 L2835.86 1701.37 L2842.17 1701.37 L2842.17 1698.65 L2848.60 1698.65 L2848.60 1696.29 L2854.91 1696.29 L2854.91 1693.94 L2861.22 1693.94 L2861.22 1691.34 L2867.53 1691.34 L2867.53 1688.99 L2873.85 1688.99 L2873.85 1686.39 L2880.28 1686.39 L2880.28 1684.04 L2886.59 1684.04 L2886.59 1680.70 L2892.90 1680.70 L2892.90 1677.85 L2899.22 1677.85 L2899.22 1675.26 L2905.53 1675.26 L2905.53 1672.41 L2911.84 1672.41 L2911.84 1669.56 L2918.27 1669.56 L2918.27 1666.96 L2924.58 1666.96 L2924.58 1664.74 L2930.89 1664.74 L2930.89 1661.64 L2937.21 1661.64 L2937.21 1658.92 L2943.52 1658.92 L2943.52 1656.20 L2949.95 1656.20 L2949.95 1654.22 L2956.26 1654.22 L2956.26 1651.99 L2962.57 1651.99 L2962.57 1649.52 L2968.89 1649.52 L2968.89 1647.29 L2975.20 1647.29 L2975.20 1645.43 L2981.51 1645.43 L2981.51 1642.96 L2987.94 1642.96 L2987.94 1640.61 L2994.26 1640.61 L2994.26 1638.50 L3000.57 1638.50 L3000.57 1635.65 L3006.88 1635.65 L3006.88 1633.43 L3013.19 1633.43 L3013.19 1631.45 L3019.62 1631.45 L3019.62 1629.59 L3025.93 1629.59 L3025.93 1627.49 L3032.25 1627.49 L3032.25 1625.14 L3038.56 1625.14 L3038.56 1623.16 L3044.87 1623.16 L3044.87 1620.80 L3051.30 1620.80 L3051.30 1618.33 L3057.61 1618.33 L3057.61 1616.47 L3063.93 1616.47 L3063.93 1614.62 L3070.24 1614.62 L3070.24 1612.27 L3076.55 1612.27 L3076.55 1610.04 L3082.86 1610.04 L3082.86 1607.93 L3089.30 1607.93 L3089.30 1605.34 L3095.61 1605.34 L3095.61 1603.11 L3101.92 1603.11 L3101.92 1601.00 L3108.23 1601.00 L3108.23 1598.53 L3114.54 1598.53 L3114.54 1596.18 L3120.97 1596.18 L3120.97 1594.57 L3127.29 1594.57 L3127.29 1592.09 L3133.60 1592.09 L3133.60 1589.74 L3139.91 1589.74 L3139.91 1587.89 L3146.22 1587.89 L3146.22 1586.28 L3152.53 1586.28 L3152.53 1583.80 L3158.97 1583.80 L3158.97 1581.45 L3165.28 1581.45 L3165.28 1579.35 L3171.59 1579.35 L3171.59 1577.24 L3177.90 1577.24 L3177.90 1574.89 L3184.21 1574.89 L3184.21 1572.91 L3190.65 1572.91 L3190.65 1570.81 L3196.96 1570.81 L3196.96 1568.21 L3203.27 1568.21 L3203.27 1565.98 L3209.58 1565.98 L3209.58 1563.88 L3215.89 1563.88 L3215.89 1562.27 L3222.33 1562.27 L3222.33 1560.66 L3228.64 1560.66 L3228.64 1558.18 L3234.95 1558.18 L3234.95 1556.08 L3241.26 1556.08 L3241.26 1553.73 L3247.57 1553.73 L3247.57 1551.75 L3253.88 1551.75 L3253.88 1549.40 L3260.32 1549.40 L3260.32 1547.54 L3266.63 1547.54 L3266.63 1546.06 L3272.94 1546.06 L3272.94 1543.83 L3279.25 1543.83 L3279.25 1541.35 L3285.56 1541.35 L3285.56 1539.13 L3292.00 1539.13 L3292.00 1536.78 L3298.31 1536.78 L3298.31 1534.55 L3304.62 1534.55 L3304.62 1532.94 L3310.93 1532.94 L3310.93 1530.96 L3317.24 1530.96 L3317.24 1529.35 L3323.55 1529.35 L3323.55 1527.62 L3329.99 1527.62 L3329.99 1525.39 L3336.30 1525.39 L3336.30 1523.16 L3342.61 1523.16 L3342.61 1521.31 L3348.92 1521.31 L3348.92 1519.45 L3355.23 1519.45 L3355.23 1517.47 L3361.67 1517.47 L3361.67 1515.61 L3367.98 1515.61 L3367.98 1513.63 L3374.29 1513.63 L3374.29 1511.41 L3380.60 1511.41 L3380.60 1510.04 L3386.91 1510.04 L3386.91 1508.19 L3393.35 1508.19 L3393.35 1506.21 L3399.66 1506.21 L3399.66 1504.48 L3405.97 1504.48 L3405.97 1502.25 L3412.28 1502.25 L3412.28 1500.02 L3418.59 1500.02 L3418.59 1497.30 L3424.91 1497.30 L3424.91 1495.57 L3431.34 1495.57 L3431.34 1492.97 L3437.65 1492.97 L3437.65 1491.23 L3443.96 1491.23 L3443.96 1489.50 L3450.27 1489.50 L3450.27 1487.03 L3456.59 1487.03 L3456.59 1484.80 L3463.02 1484.80 L3463.02 1482.70 L3469.33 1482.70 L3469.33 1480.84 L3475.64 1480.84 L3475.64 1478.49 L3481.95 1478.49 L3481.95 1476.88 L3488.26 1476.88 L3488.26 1474.40 L3494.58 1474.40 L3494.58 1472.55 L3501.01 1472.55 L3501.01 1470.57 L3507.32 1470.57 L3507.32 1468.96 L3513.63 1468.96 L3513.63 1466.85 L3519.95 1466.85 L3519.95 1465.00 L3526.26 1465.00 L3526.26 1462.89 L3532.69 1462.89 L3532.69 1461.04 L3539.00 1461.04 L3539.00 1459.18 L3545.31 1459.18 L3545.31 1457.45 L3551.63 1457.45 L3551.63 1455.96 L3557.94 1455.96 L3557.94 1454.11 L3564.37 1454.11 L3564.37 1452.13 L3570.68 1452.13 L3570.68 1449.78 L3576.99 1449.78 L3576.99 1447.67 L3583.30 1447.67 L3583.30 1445.69 L3589.62 1445.69 L3589.62 1443.84 L3595.93 1443.84 L3595.93 1442.60 L3602.36 1442.60 L3602.36 1440.99 L3608.67 1440.99 L3608.67 1439.13 L3614.99 1439.13 L3614.99 1437.65 L3621.30 1437.65 L3621.30 1436.29 L3627.61 1436.29 L3627.61 1434.55 L3634.04 1434.55 L3634.04 1433.56 L3640.35 1433.56 L3640.35 1432.45 L3646.66 1432.45 L3646.66 1431.71 L3652.98 1431.71 L3652.98 1431.58 L3659.29 1431.58 L3659.29 1431.46 L3672.03 1431.46 L3672.03 1431.46" stroke-linejoin="round" style="fill:none;stroke:#90353B;stroke-width:6.48"/>
	<path d=" M2512.87 1816.71 L2519.18 1816.71 L2519.18 1808.79 L2525.49 1808.79 L2525.49 1801.24 L2531.80 1801.24 L2531.80 1793.32 L2538.11 1793.32 L2538.11 1785.89 L2544.55 1785.89 L2544.55 1776.61 L2550.86 1776.61 L2550.86 1769.06 L2557.17 1769.06 L2557.17 1761.14 L2563.48 1761.14 L2563.48 1752.60 L2569.79 1752.60 L2569.79 1745.92 L2576.23 1745.92 L2576.23 1739.36 L2582.54 1739.36 L2582.54 1732.31 L2588.85 1732.31 L2588.85 1724.26 L2595.16 1724.26 L2595.16 1716.47 L2601.47 1716.47 L2601.47 1707.56 L2607.91 1707.56 L2607.91 1699.39 L2614.22 1699.39 L2614.22 1691.34 L2620.53 1691.34 L2620.53 1684.54 L2626.84 1684.54 L2626.84 1675.63 L2633.15 1675.63 L2633.15 1665.97 L2639.46 1665.97 L2639.46 1658.05 L2645.90 1658.05 L2645.90 1651.12 L2652.21 1651.12 L2652.21 1642.34 L2658.52 1642.34 L2658.52 1633.43 L2664.83 1633.43 L2664.83 1625.63 L2671.14 1625.63 L2671.14 1617.59 L2677.58 1617.59 L2677.58 1609.17 L2683.89 1609.17 L2683.89 1600.51 L2690.20 1600.51 L2690.20 1590.98 L2696.51 1590.98 L2696.51 1583.31 L2702.82 1583.31 L2702.82 1573.41 L2709.26 1573.41 L2709.26 1565.36 L2715.57 1565.36 L2715.57 1557.07 L2721.88 1557.07 L2721.88 1548.04 L2728.19 1548.04 L2728.19 1539.50 L2734.50 1539.50 L2734.50 1531.70 L2740.82 1531.70 L2740.82 1524.77 L2747.25 1524.77 L2747.25 1517.10 L2753.56 1517.10 L2753.56 1509.55 L2759.87 1509.55 L2759.87 1502.25 L2766.18 1502.25 L2766.18 1493.46 L2772.49 1493.46 L2772.49 1485.05 L2778.93 1485.05 L2778.93 1475.89 L2785.24 1475.89 L2785.24 1467.23 L2791.55 1467.23 L2791.55 1458.19 L2797.86 1458.19 L2797.86 1447.43 L2804.18 1447.43 L2804.18 1437.15 L2810.49 1437.15 L2810.49 1429.23 L2816.92 1429.23 L2816.92 1420.45 L2823.23 1420.45 L2823.23 1412.65 L2829.54 1412.65 L2829.54 1403.86 L2835.86 1403.86 L2835.86 1395.32 L2842.17 1395.32 L2842.17 1385.55 L2848.60 1385.55 L2848.60 1376.39 L2854.91 1376.39 L2854.91 1368.84 L2861.22 1368.84 L2861.22 1359.06 L2867.53 1359.06 L2867.53 1351.52 L2873.85 1351.52 L2873.85 1342.23 L2880.28 1342.23 L2880.28 1332.95 L2886.59 1332.95 L2886.59 1322.93 L2892.90 1322.93 L2892.90 1312.90 L2899.22 1312.90 L2899.22 1303.50 L2905.53 1303.50 L2905.53 1291.74 L2911.84 1291.74 L2911.84 1281.47 L2918.27 1281.47 L2918.27 1272.31 L2924.58 1272.31 L2924.58 1262.04 L2930.89 1262.04 L2930.89 1254.00 L2937.21 1254.00 L2937.21 1243.97 L2943.52 1243.97 L2943.52 1233.70 L2949.95 1233.70 L2949.95 1224.92 L2956.26 1224.92 L2956.26 1215.63 L2962.57 1215.63 L2962.57 1207.84 L2968.89 1207.84 L2968.89 1198.18 L2975.20 1198.18 L2975.20 1189.27 L2981.51 1189.27 L2981.51 1180.36 L2987.94 1180.36 L2987.94 1172.32 L2994.26 1172.32 L2994.26 1164.03 L3000.57 1164.03 L3000.57 1155.49 L3006.88 1155.49 L3006.88 1146.33 L3013.19 1146.33 L3013.19 1138.41 L3019.62 1138.41 L3019.62 1130.12 L3025.93 1130.12 L3025.93 1123.07 L3032.25 1123.07 L3032.25 1115.15 L3038.56 1115.15 L3038.56 1106.85 L3044.87 1106.85 L3044.87 1098.56 L3051.30 1098.56 L3051.30 1090.40 L3057.61 1090.40 L3057.61 1082.97 L3063.93 1082.97 L3063.93 1075.05 L3070.24 1075.05 L3070.24 1067.38 L3076.55 1067.38 L3076.55 1060.69 L3082.86 1060.69 L3082.86 1052.40 L3089.30 1052.40 L3089.30 1044.98 L3095.61 1044.98 L3095.61 1037.92 L3101.92 1037.92 L3101.92 1031.12 L3108.23 1031.12 L3108.23 1022.45 L3114.54 1022.45 L3114.54 1015.03 L3120.97 1015.03 L3120.97 1007.73 L3127.29 1007.73 L3127.29 999.44 L3133.60 999.44 L3133.60 991.14 L3139.91 991.14 L3139.91 985.33 L3146.22 985.33 L3146.22 976.79 L3152.53 976.79 L3152.53 970.23 L3158.97 970.23 L3158.97 962.93 L3165.28 962.93 L3165.28 955.75 L3171.59 955.75 L3171.59 948.57 L3177.90 948.57 L3177.90 942.01 L3184.21 942.01 L3184.21 934.22 L3190.65 934.22 L3190.65 927.29 L3196.96 927.29 L3196.96 921.10 L3203.27 921.10 L3203.27 914.29 L3209.58 914.29 L3209.58 908.48 L3215.89 908.48 L3215.89 901.55 L3222.33 901.55 L3222.33 896.35 L3228.64 896.35 L3228.64 890.29 L3234.95 890.29 L3234.95 882.61 L3241.26 882.61 L3241.26 875.43 L3247.57 875.43 L3247.57 869.37 L3253.88 869.37 L3253.88 863.68 L3260.32 863.68 L3260.32 856.38 L3266.63 856.38 L3266.63 850.07 L3272.94 850.07 L3272.94 843.63 L3279.25 843.63 L3279.25 836.82 L3285.56 836.82 L3285.56 829.77 L3292.00 829.77 L3292.00 823.71 L3298.31 823.71 L3298.31 817.39 L3304.62 817.39 L3304.62 810.96 L3310.93 810.96 L3310.93 803.66 L3317.24 803.66 L3317.24 797.72 L3323.55 797.72 L3323.55 790.66 L3329.99 790.66 L3329.99 784.72 L3336.30 784.72 L3336.30 778.04 L3342.61 778.04 L3342.61 770.86 L3348.92 770.86 L3348.92 764.92 L3355.23 764.92 L3355.23 759.35 L3361.67 759.35 L3361.67 751.56 L3367.98 751.56 L3367.98 744.87 L3374.29 744.87 L3374.29 738.69 L3380.60 738.69 L3380.60 731.88 L3386.91 731.88 L3386.91 726.06 L3393.35 726.06 L3393.35 719.63 L3399.66 719.63 L3399.66 711.96 L3405.97 711.96 L3405.97 705.89 L3412.28 705.89 L3412.28 697.97 L3418.59 697.97 L3418.59 691.41 L3424.91 691.41 L3424.91 684.85 L3431.34 684.85 L3431.34 677.06 L3437.65 677.06 L3437.65 669.26 L3443.96 669.26 L3443.96 662.58 L3450.27 662.58 L3450.27 656.39 L3456.59 656.39 L3456.59 649.46 L3463.02 649.46 L3463.02 643.27 L3469.33 643.27 L3469.33 636.09 L3475.64 636.09 L3475.64 630.15 L3481.95 630.15 L3481.95 624.09 L3488.26 624.09 L3488.26 618.15 L3494.58 618.15 L3494.58 612.33 L3501.01 612.33 L3501.01 607.26 L3507.32 607.26 L3507.32 600.08 L3513.63 600.08 L3513.63 593.03 L3519.95 593.03 L3519.95 586.22 L3526.26 586.22 L3526.26 580.28 L3532.69 580.28 L3532.69 574.71 L3539.00 574.71 L3539.00 569.27 L3545.31 569.27 L3545.31 564.44 L3551.63 564.44 L3551.63 558.50 L3557.94 558.50 L3557.94 549.71 L3564.37 549.71 L3564.37 543.03 L3570.68 543.03 L3570.68 534.62 L3576.99 534.62 L3576.99 528.18 L3583.30 528.18 L3583.30 521.87 L3589.62 521.87 L3589.62 516.05 L3595.93 516.05 L3595.93 509.00 L3602.36 509.00 L3602.36 501.57 L3608.67 501.57 L3608.67 495.26 L3614.99 495.26 L3614.99 487.96 L3621.30 487.96 L3621.30 481.40 L3627.61 481.40 L3627.61 475.59 L3634.04 475.59 L3634.04 470.26 L3640.35 470.26 L3640.35 466.55 L3646.66 466.55 L3646.66 463.83 L3652.98 463.83 L3652.98 462.84 L3659.29 462.84 L3659.29 462.34 L3665.60 462.34 L3665.60 461.97 L3672.03 461.97 L3672.03 461.97" stroke-linejoin="round" style="fill:none;stroke:#55752F;stroke-width:6.48"/>
	<line x1="2459.04" y1="1873.51" x2="2459.04" y2="414.45" style="stroke:#000000;stroke-width:4.32"/>
	<line x1="2459.04" y1="1825.99" x2="2429.09" y2="1825.99" style="stroke:#000000;stroke-width:4.32"/>
	<text x="2413.99" y="1852.27" style="font-family:'Helvetica';font-size:74.99px;fill:#000000" text-anchor="end">0.000</text>
	<line x1="2459.04" y1="1790.72" x2="2429.09" y2="1790.72" style="stroke:#000000;stroke-width:4.32"/>
	<text x="2413.99" y="1817.00" style="font-family:'Helvetica';font-size:74.99px;fill:#000000" text-anchor="end">0.001</text>
	<line x1="2459.04" y1="1755.57" x2="2429.09" y2="1755.57" style="stroke:#000000;stroke-width:4.32"/>
	<text x="2413.99" y="1781.85" style="font-family:'Helvetica';font-size:74.99px;fill:#000000" text-anchor="end">0.002</text>
	<line x1="2459.04" y1="1720.30" x2="2429.09" y2="1720.30" style="stroke:#000000;stroke-width:4.32"/>
	<text x="2413.99" y="1746.58" style="font-family:'Helvetica';font-size:74.99px;fill:#000000" text-anchor="end">0.003</text>
	<line x1="2459.04" y1="1685.03" x2="2429.09" y2="1685.03" style="stroke:#000000;stroke-width:4.32"/>
	<text x="2413.99" y="1711.31" style="font-family:'Helvetica';font-size:74.99px;fill:#000000" text-anchor="end">0.004</text>
	<line x1="2459.04" y1="1649.89" x2="2429.09" y2="1649.89" style="stroke:#000000;stroke-width:4.32"/>
	<text x="2413.99" y="1676.17" style="font-family:'Helvetica';font-size:74.99px;fill:#000000" text-anchor="end">0.005</text>
	<line x1="2459.04" y1="1873.51" x2="3820.91" y2="1873.51" style="stroke:#000000;stroke-width:4.32"/>
	<line x1="2506.56" y1="1873.51" x2="2506.56" y2="1903.46" style="stroke:#000000;stroke-width:4.32"/>
	<text x="2506.56" y="1970.87" style="font-family:'Helvetica';font-size:74.99px;fill:#000000" text-anchor="middle">1 Feb 20</text>
	<line x1="2690.20" y1="1873.51" x2="2690.20" y2="1903.46" style="stroke:#000000;stroke-width:4.32"/>
	<text x="2690.20" y="1970.87" style="font-family:'Helvetica';font-size:74.99px;fill:#000000" text-anchor="middle">1 Mar 20</text>
	<line x1="2886.59" y1="1873.51" x2="2886.59" y2="1903.46" style="stroke:#000000;stroke-width:4.32"/>
	<text x="2886.59" y="1970.87" style="font-family:'Helvetica';font-size:74.99px;fill:#000000" text-anchor="middle">1 Apr 20</text>
	<line x1="3082.98" y1="1873.51" x2="3082.98" y2="1903.46" style="stroke:#000000;stroke-width:4.32"/>
	<text x="3082.98" y="1970.87" style="font-family:'Helvetica';font-size:74.99px;fill:#000000" text-anchor="middle">1 May 20</text>
	<line x1="3272.94" y1="1873.51" x2="3272.94" y2="1903.46" style="stroke:#000000;stroke-width:4.32"/>
	<text x="3272.94" y="1970.87" style="font-family:'Helvetica';font-size:74.99px;fill:#000000" text-anchor="middle">1 June 20</text>
	<line x1="3463.02" y1="1873.51" x2="3463.02" y2="1903.46" style="stroke:#000000;stroke-width:4.32"/>
	<text x="3463.02" y="1970.87" style="font-family:'Helvetica';font-size:74.99px;fill:#000000" text-anchor="middle">1 July 20</text>
	<line x1="3659.41" y1="1873.51" x2="3659.41" y2="1903.46" style="stroke:#000000;stroke-width:4.32"/>
	<text x="3659.41" y="1970.87" style="font-family:'Helvetica';font-size:74.99px;fill:#000000" text-anchor="middle">1 Aug 20</text>
	<text x="3140.03" y="2053.41" style="font-family:'Helvetica';font-size:74.99px;fill:#000000" text-anchor="middle">Days since 1 Feb 2020</text>
	<text x="3140.03" y="369.91" style="font-family:'Helvetica';font-size:104.94px;fill:#1E2D53" text-anchor="middle">Male</text>
	<text x="150.62" y="1187.29" style="font-family:'Helvetica';font-size:99.99px;fill:#000000" transform="rotate(-90 150.62,1187.29)" text-anchor="middle">Cumulative probability</text>
	<text x="250.61" y="1187.29" style="font-family:'Helvetica';font-size:99.99px;fill:#000000" transform="rotate(-90 250.61,1187.29)" text-anchor="middle">Non covid death</text>
	<text x="2097.19" y="157.51" style="font-family:'Helvetica';font-size:110.01px;fill:#000000" text-anchor="middle"> </text>
	<rect x="1302.10" y="2201.21" width="1590.19" height="580.90" style="fill:#FFFFFF"/>
	<rect x="1304.98" y="2204.09" width="1584.43" height="575.14" style="fill:none;stroke:#000000;stroke-width:5.76"/>
	<line x1="1345.29" y1="2408.87" x2="1719.63" y2="2408.87" style="stroke:#1A476F;stroke-width:8.64"/>
	<line x1="1345.29" y1="2548.83" x2="1719.63" y2="2548.83" style="stroke:#90353B;stroke-width:8.64"/>
	<line x1="1345.29" y1="2688.92" x2="1719.63" y2="2688.92" style="stroke:#55752F;stroke-width:8.64"/>
	<text x="1779.65" y="2436.88" style="font-family:'Helvetica';font-size:79.94px;fill:#000000">18-&lt;30</text>
	<text x="1779.65" y="2576.85" style="font-family:'Helvetica';font-size:79.94px;fill:#000000">30-&lt;40</text>
	<text x="1779.65" y="2716.94" style="font-family:'Helvetica';font-size:79.94px;fill:#000000">40-&lt;50</text>
	<text x="2243.22" y="2436.88" style="font-family:'Helvetica';font-size:79.94px;fill:#000000">50-&lt;60</text>
	<text x="2243.22" y="2576.85" style="font-family:'Helvetica';font-size:79.94px;fill:#000000">60-&lt;70</text>
	<text x="2243.22" y="2716.94" style="font-family:'Helvetica';font-size:79.94px;fill:#000000">70-&lt;80</text>
	<text x="2706.78" y="2436.88" style="font-family:'Helvetica';font-size:79.94px;fill:#000000">80+</text>
	<text x="2097.19" y="2308.96" style="font-family:'Helvetica';font-size:79.94px;fill:#000000" text-anchor="middle">Age group</text>
</svg>
