<?xml version="1.0" encoding="UTF-8" standalone="no"?>
<!-- This is a Stata 16.1 generated SVG file (http://www.stata.com) -->

<svg version="1.1" width="5.50in" height="4.00in" viewBox="0 0 3960 2880" xmlns="http://www.w3.org/2000/svg" xmlns:xlink="http://www.w3.org/1999/xlink">
	<desc>Stata Graph - Graph</desc>
	<rect x="0" y="0" width="3960" height="2880" style="fill:#EAF2F3;stroke:none"/>
	<rect x="0.00" y="0.00" width="3959.88" height="2880.00" style="fill:#EAF2F3"/>
	<rect x="2.88" y="2.88" width="3954.12" height="2874.24" style="fill:none;stroke:#EAF2F3;stroke-width:5.76"/>
	<rect x="297.87" y="207.91" width="1799.32" height="1958.65" style="fill:#EAF2F3"/>
	<rect x="300.03" y="210.07" width="1795.01" height="1954.33" style="fill:none;stroke:#EAF2F3;stroke-width:4.32"/>
	<rect x="659.71" y="414.45" width="1361.87" height="1459.06" style="fill:#FFFFFF"/>
	<rect x="661.87" y="416.61" width="1357.55" height="1454.74" style="fill:none;stroke:#FFFFFF;stroke-width:4.32"/>
	<line x1="659.71" y1="1825.99" x2="2021.58" y2="1825.99" style="stroke:#EAF2F3;stroke-width:6.48"/>
	<line x1="659.71" y1="1553.11" x2="2021.58" y2="1553.11" style="stroke:#EAF2F3;stroke-width:6.48"/>
	<line x1="659.71" y1="1280.36" x2="2021.58" y2="1280.36" style="stroke:#EAF2F3;stroke-width:6.48"/>
	<line x1="659.71" y1="1007.60" x2="2021.58" y2="1007.60" style="stroke:#EAF2F3;stroke-width:6.48"/>
	<line x1="659.71" y1="734.73" x2="2021.58" y2="734.73" style="stroke:#EAF2F3;stroke-width:6.48"/>
	<line x1="659.71" y1="461.97" x2="2021.58" y2="461.97" style="stroke:#EAF2F3;stroke-width:6.48"/>
	<path d=" M795.84 1825.62 L802.27 1825.62 L802.27 1825.49 L833.83 1825.49 L833.83 1825.25 L852.88 1825.25 L852.88 1825.12 L871.94 1825.12 L871.94 1824.87 L897.19 1824.87 L897.19 1824.75 L909.93 1824.75 L909.93 1824.50 L916.25 1824.50 L916.25 1824.38 L935.18 1824.38 L935.18 1824.13 L954.24 1824.13 L954.24 1824.01 L992.23 1824.01 L992.23 1823.76 L1055.59 1823.76 L1055.59 1823.51 L1061.90 1823.51 L1061.90 1823.51 L1087.27 1823.51 L1087.27 1823.51 L1099.89 1823.51 L1099.89 1823.14 L1112.64 1823.14 L1112.64 1823.02 L1125.26 1823.02 L1125.26 1822.77 L1137.88 1822.77 L1137.88 1822.65 L1163.25 1822.65 L1163.25 1822.28 L1182.31 1822.28 L1182.31 1822.03 L1188.62 1822.03 L1188.62 1821.90 L1201.24 1821.90 L1201.24 1821.66 L1207.55 1821.66 L1207.55 1821.66 L1226.61 1821.66 L1226.61 1821.53 L1232.92 1821.53 L1232.92 1821.04 L1245.54 1821.04 L1245.54 1820.91 L1270.91 1820.91 L1270.91 1820.30 L1289.97 1820.30 L1289.97 1820.17 L1296.28 1820.17 L1296.28 1819.92 L1302.59 1819.92 L1302.59 1819.55 L1327.96 1819.55 L1327.96 1819.43 L1372.26 1819.43 L1372.26 1819.06 L1385.01 1819.06 L1385.01 1818.81 L1416.57 1818.81 L1416.57 1818.44 L1429.31 1818.44 L1429.31 1818.19 L1441.93 1818.19 L1441.93 1817.82 L1448.25 1817.82 L1448.25 1817.70 L1454.68 1817.70 L1454.68 1817.45 L1467.30 1817.45 L1467.30 1817.33 L1473.62 1817.33 L1473.62 1817.08 L1498.98 1817.08 L1498.98 1816.95 L1505.30 1816.95 L1505.30 1816.71 L1530.66 1816.71 L1530.66 1816.71 L1574.97 1816.71 L1574.97 1816.58 L1644.64 1816.58 L1644.64 1816.34 L1657.38 1816.34 L1657.38 1816.21 L1663.69 1816.21 L1663.69 1815.96 L1682.63 1815.96 L1682.63 1815.84 L1708.00 1815.84 L1708.00 1815.59 L1720.62 1815.59 L1720.62 1815.35 L1727.06 1815.35 L1727.06 1815.22 L1733.37 1815.22 L1733.37 1814.85 L1745.99 1814.85 L1745.99 1814.60 L1777.67 1814.60 L1777.67 1814.48 L1790.29 1814.48 L1790.29 1814.23 L1803.04 1814.23 L1803.04 1814.11 L1872.71 1814.11 L1872.71 1814.11" stroke-linejoin="round" style="fill:none;stroke:#1A476F;stroke-width:6.48"/>
	<path d=" M713.54 1825.62 L719.85 1825.62 L719.85 1825.49 L726.16 1825.49 L726.16 1825.00 L732.48 1825.00 L732.48 1824.87 L745.22 1824.87 L745.22 1824.50 L751.53 1824.50 L751.53 1824.26 L757.85 1824.26 L757.85 1824.13 L764.16 1824.13 L764.16 1823.88 L770.59 1823.88 L770.59 1823.51 L776.90 1823.51 L776.90 1823.27 L783.21 1823.27 L783.21 1822.65 L789.52 1822.65 L789.52 1822.15 L795.84 1822.15 L795.84 1821.90 L802.27 1821.90 L802.27 1821.53 L814.89 1821.53 L814.89 1821.16 L821.21 1821.16 L821.21 1820.91 L840.26 1820.91 L840.26 1820.54 L846.57 1820.54 L846.57 1820.30 L852.88 1820.30 L852.88 1820.17 L859.20 1820.17 L859.20 1819.80 L871.94 1819.80 L871.94 1819.55 L890.88 1819.55 L890.88 1819.31 L897.19 1819.31 L897.19 1818.32 L903.50 1818.32 L903.50 1818.19 L916.25 1818.19 L916.25 1817.82 L922.56 1817.82 L922.56 1817.20 L928.87 1817.20 L928.87 1816.83 L935.18 1816.83 L935.18 1816.58 L947.92 1816.58 L947.92 1816.46 L960.55 1816.46 L960.55 1816.21 L966.86 1816.21 L966.86 1815.84 L973.29 1815.84 L973.29 1815.59 L979.61 1815.59 L979.61 1815.47 L985.92 1815.47 L985.92 1815.10 L992.23 1815.10 L992.23 1814.48 L998.54 1814.48 L998.54 1813.86 L1004.85 1813.86 L1004.85 1813.49 L1011.28 1813.49 L1011.28 1813.24 L1017.60 1813.24 L1017.60 1812.87 L1023.91 1812.87 L1023.91 1812.62 L1030.22 1812.62 L1030.22 1812.62 L1036.53 1812.62 L1036.53 1812.13 L1042.96 1812.13 L1042.96 1811.76 L1049.28 1811.76 L1049.28 1811.51 L1055.59 1811.51 L1055.59 1811.26 L1061.90 1811.26 L1061.90 1811.14 L1068.21 1811.14 L1068.21 1810.89 L1074.52 1810.89 L1074.52 1810.77 L1080.96 1810.77 L1080.96 1810.52 L1087.27 1810.52 L1087.27 1810.27 L1093.58 1810.27 L1093.58 1810.15 L1099.89 1810.15 L1099.89 1809.78 L1106.20 1809.78 L1106.20 1809.28 L1112.64 1809.28 L1112.64 1809.16 L1118.95 1809.16 L1118.95 1808.54 L1125.26 1808.54 L1125.26 1808.42 L1131.57 1808.42 L1131.57 1808.17 L1137.88 1808.17 L1137.88 1807.55 L1144.32 1807.55 L1144.32 1807.43 L1150.63 1807.43 L1150.63 1807.18 L1156.94 1807.18 L1156.94 1806.93 L1163.25 1806.93 L1163.25 1806.81 L1169.56 1806.81 L1169.56 1806.56 L1175.87 1806.56 L1175.87 1806.44 L1182.31 1806.44 L1182.31 1806.06 L1188.62 1806.06 L1188.62 1805.45 L1194.93 1805.45 L1194.93 1804.58 L1201.24 1804.58 L1201.24 1804.58 L1207.55 1804.58 L1207.55 1804.46 L1213.99 1804.46 L1213.99 1804.21 L1220.30 1804.21 L1220.30 1803.84 L1226.61 1803.84 L1226.61 1803.22 L1232.92 1803.22 L1232.92 1803.22 L1239.23 1803.22 L1239.23 1803.09 L1245.54 1803.09 L1245.54 1802.85 L1251.98 1802.85 L1251.98 1802.72 L1258.29 1802.72 L1258.29 1802.23 L1270.91 1802.23 L1270.91 1802.10 L1277.22 1802.10 L1277.22 1801.86 L1289.97 1801.86 L1289.97 1801.73 L1315.34 1801.73 L1315.34 1801.49 L1327.96 1801.49 L1327.96 1801.24 L1334.27 1801.24 L1334.27 1801.11 L1340.58 1801.11 L1340.58 1800.87 L1346.89 1800.87 L1346.89 1800.12 L1359.64 1800.12 L1359.64 1799.88 L1378.58 1799.88 L1378.58 1799.50 L1391.32 1799.50 L1391.32 1799.13 L1397.63 1799.13 L1397.63 1798.76 L1410.26 1798.76 L1410.26 1798.51 L1416.57 1798.51 L1416.57 1798.14 L1423.00 1798.14 L1423.00 1797.77 L1429.31 1797.77 L1429.31 1797.40 L1435.62 1797.40 L1435.62 1796.91 L1441.93 1796.91 L1441.93 1796.78 L1448.25 1796.78 L1448.25 1796.53 L1454.68 1796.53 L1454.68 1796.16 L1473.62 1796.16 L1473.62 1796.16 L1479.93 1796.16 L1479.93 1795.54 L1492.67 1795.54 L1492.67 1795.42 L1505.30 1795.42 L1505.30 1795.17 L1511.61 1795.17 L1511.61 1794.55 L1517.92 1794.55 L1517.92 1794.06 L1524.35 1794.06 L1524.35 1793.69 L1530.66 1793.69 L1530.66 1793.44 L1536.97 1793.44 L1536.97 1792.82 L1543.29 1792.82 L1543.29 1792.70 L1556.03 1792.70 L1556.03 1792.20 L1581.28 1792.20 L1581.28 1792.08 L1587.59 1792.08 L1587.59 1791.46 L1606.65 1791.46 L1606.65 1791.21 L1612.96 1791.21 L1612.96 1791.09 L1619.27 1791.09 L1619.27 1790.84 L1625.70 1790.84 L1625.70 1790.47 L1632.02 1790.47 L1632.02 1790.35 L1638.33 1790.35 L1638.33 1790.10 L1657.38 1790.10 L1657.38 1789.73 L1663.69 1789.73 L1663.69 1789.48 L1670.01 1789.48 L1670.01 1789.11 L1682.63 1789.11 L1682.63 1788.86 L1701.69 1788.86 L1701.69 1788.74 L1708.00 1788.74 L1708.00 1788.49 L1714.31 1788.49 L1714.31 1788.37 L1720.62 1788.37 L1720.62 1788.12 L1727.06 1788.12 L1727.06 1787.87 L1739.68 1787.87 L1739.68 1787.50 L1752.30 1787.50 L1752.30 1787.13 L1758.73 1787.13 L1758.73 1786.76 L1765.05 1786.76 L1765.05 1786.51 L1783.98 1786.51 L1783.98 1786.39 L1790.29 1786.39 L1790.29 1786.14 L1796.73 1786.14 L1796.73 1786.02 L1803.04 1786.02 L1803.04 1785.77 L1815.66 1785.77 L1815.66 1785.52 L1828.41 1785.52 L1828.41 1785.40 L1834.72 1785.40 L1834.72 1785.15 L1841.03 1785.15 L1841.03 1785.03 L1872.71 1785.03 L1872.71 1785.03" stroke-linejoin="round" style="fill:none;stroke:#90353B;stroke-width:6.48"/>
	<path d=" M713.54 1825.37 L719.85 1825.37 L719.85 1824.87 L726.16 1824.87 L726.16 1823.76 L732.48 1823.76 L732.48 1822.65 L738.91 1822.65 L738.91 1822.03 L745.22 1822.03 L745.22 1820.67 L751.53 1820.67 L751.53 1819.55 L757.85 1819.55 L757.85 1819.06 L764.16 1819.06 L764.16 1818.44 L770.59 1818.44 L770.59 1817.08 L776.90 1817.08 L776.90 1816.21 L783.21 1816.21 L783.21 1815.47 L789.52 1815.47 L789.52 1815.10 L795.84 1815.10 L795.84 1813.49 L802.27 1813.49 L802.27 1812.87 L808.58 1812.87 L808.58 1811.88 L814.89 1811.88 L814.89 1811.51 L821.21 1811.51 L821.21 1810.52 L827.52 1810.52 L827.52 1810.15 L833.83 1810.15 L833.83 1809.90 L840.26 1809.90 L840.26 1809.41 L846.57 1809.41 L846.57 1808.29 L852.88 1808.29 L852.88 1806.81 L859.20 1806.81 L859.20 1805.69 L865.51 1805.69 L865.51 1804.33 L871.94 1804.33 L871.94 1803.59 L878.25 1803.59 L878.25 1802.10 L884.57 1802.10 L884.57 1801.36 L890.88 1801.36 L890.88 1800.50 L897.19 1800.50 L897.19 1799.13 L903.50 1799.13 L903.50 1798.76 L909.93 1798.76 L909.93 1798.27 L916.25 1798.27 L916.25 1798.02 L922.56 1798.02 L922.56 1796.41 L928.87 1796.41 L928.87 1796.04 L935.18 1796.04 L935.18 1795.30 L941.61 1795.30 L941.61 1794.06 L947.92 1794.06 L947.92 1792.82 L954.24 1792.82 L954.24 1791.58 L960.55 1791.58 L960.55 1791.09 L966.86 1791.09 L966.86 1790.47 L973.29 1790.47 L973.29 1789.11 L979.61 1789.11 L979.61 1788.00 L985.92 1788.00 L985.92 1786.39 L992.23 1786.39 L992.23 1784.78 L998.54 1784.78 L998.54 1783.42 L1004.85 1783.42 L1004.85 1783.29 L1011.28 1783.29 L1011.28 1781.44 L1017.60 1781.44 L1017.60 1781.07 L1023.91 1781.07 L1023.91 1780.82 L1030.22 1780.82 L1030.22 1779.70 L1036.53 1779.70 L1036.53 1778.34 L1042.96 1778.34 L1042.96 1777.23 L1049.28 1777.23 L1049.28 1776.49 L1055.59 1776.49 L1055.59 1776.12 L1061.90 1776.12 L1061.90 1775.62 L1068.21 1775.62 L1068.21 1775.13 L1074.52 1775.13 L1074.52 1774.51 L1080.96 1774.51 L1080.96 1774.01 L1087.27 1774.01 L1087.27 1772.90 L1093.58 1772.90 L1093.58 1772.28 L1099.89 1772.28 L1099.89 1771.41 L1106.20 1771.41 L1106.20 1768.69 L1112.64 1768.69 L1112.64 1768.07 L1118.95 1768.07 L1118.95 1767.33 L1125.26 1767.33 L1125.26 1765.35 L1131.57 1765.35 L1131.57 1764.61 L1137.88 1764.61 L1137.88 1763.99 L1144.32 1763.99 L1144.32 1762.87 L1150.63 1762.87 L1150.63 1761.02 L1156.94 1761.02 L1156.94 1760.89 L1163.25 1760.89 L1163.25 1759.53 L1169.56 1759.53 L1169.56 1759.04 L1175.87 1759.04 L1175.87 1758.17 L1182.31 1758.17 L1182.31 1757.43 L1188.62 1757.43 L1188.62 1756.56 L1194.93 1756.56 L1194.93 1756.19 L1201.24 1756.19 L1201.24 1754.58 L1207.55 1754.58 L1207.55 1754.33 L1213.99 1754.33 L1213.99 1754.09 L1220.30 1754.09 L1220.30 1752.97 L1226.61 1752.97 L1226.61 1752.60 L1232.92 1752.60 L1232.92 1752.11 L1239.23 1752.11 L1239.23 1750.99 L1245.54 1750.99 L1245.54 1750.37 L1251.98 1750.37 L1251.98 1749.88 L1258.29 1749.88 L1258.29 1749.63 L1264.60 1749.63 L1264.60 1748.77 L1270.91 1748.77 L1270.91 1747.65 L1277.22 1747.65 L1277.22 1746.91 L1283.66 1746.91 L1283.66 1746.29 L1289.97 1746.29 L1289.97 1746.04 L1296.28 1746.04 L1296.28 1745.67 L1302.59 1745.67 L1302.59 1744.93 L1308.90 1744.93 L1308.90 1744.43 L1315.34 1744.43 L1315.34 1742.45 L1321.65 1742.45 L1321.65 1741.59 L1327.96 1741.59 L1327.96 1741.09 L1334.27 1741.09 L1334.27 1739.61 L1340.58 1739.61 L1340.58 1738.62 L1346.89 1738.62 L1346.89 1738.00 L1353.33 1738.00 L1353.33 1737.13 L1359.64 1737.13 L1359.64 1736.64 L1365.95 1736.64 L1365.95 1736.02 L1372.26 1736.02 L1372.26 1734.91 L1378.58 1734.91 L1378.58 1734.41 L1385.01 1734.41 L1385.01 1733.54 L1391.32 1733.54 L1391.32 1732.68 L1397.63 1732.68 L1397.63 1732.43 L1403.94 1732.43 L1403.94 1731.69 L1410.26 1731.69 L1410.26 1731.32 L1416.57 1731.32 L1416.57 1730.57 L1423.00 1730.57 L1423.00 1729.96 L1429.31 1729.96 L1429.31 1729.46 L1435.62 1729.46 L1435.62 1729.09 L1441.93 1729.09 L1441.93 1728.35 L1448.25 1728.35 L1448.25 1727.98 L1454.68 1727.98 L1454.68 1727.23 L1460.99 1727.23 L1460.99 1726.99 L1467.30 1726.99 L1467.30 1726.74 L1473.62 1726.74 L1473.62 1725.25 L1479.93 1725.25 L1479.93 1724.51 L1486.36 1724.51 L1486.36 1723.64 L1492.67 1723.64 L1492.67 1723.40 L1498.98 1723.40 L1498.98 1721.42 L1505.30 1721.42 L1505.30 1720.55 L1511.61 1720.55 L1511.61 1720.06 L1517.92 1720.06 L1517.92 1719.44 L1524.35 1719.44 L1524.35 1717.58 L1536.97 1717.58 L1536.97 1716.22 L1543.29 1716.22 L1543.29 1716.09 L1549.60 1716.09 L1549.60 1715.60 L1556.03 1715.60 L1556.03 1715.10 L1568.65 1715.10 L1568.65 1713.62 L1574.97 1713.62 L1574.97 1712.63 L1587.59 1712.63 L1587.59 1711.76 L1594.02 1711.76 L1594.02 1710.90 L1600.34 1710.90 L1600.34 1709.78 L1606.65 1709.78 L1606.65 1709.29 L1612.96 1709.29 L1612.96 1708.42 L1619.27 1708.42 L1619.27 1707.93 L1625.70 1707.93 L1625.70 1707.06 L1632.02 1707.06 L1632.02 1706.44 L1638.33 1706.44 L1638.33 1705.08 L1644.64 1705.08 L1644.64 1703.97 L1650.95 1703.97 L1650.95 1702.85 L1657.38 1702.85 L1657.38 1702.36 L1663.69 1702.36 L1663.69 1702.11 L1670.01 1702.11 L1670.01 1701.49 L1676.32 1701.49 L1676.32 1700.38 L1682.63 1700.38 L1682.63 1699.02 L1688.94 1699.02 L1688.94 1698.15 L1695.38 1698.15 L1695.38 1697.16 L1708.00 1697.16 L1708.00 1696.79 L1714.31 1696.79 L1714.31 1695.68 L1720.62 1695.68 L1720.62 1694.93 L1727.06 1694.93 L1727.06 1692.95 L1733.37 1692.95 L1733.37 1692.46 L1739.68 1692.46 L1739.68 1691.84 L1745.99 1691.84 L1745.99 1691.22 L1752.30 1691.22 L1752.30 1690.23 L1758.73 1690.23 L1758.73 1688.99 L1765.05 1688.99 L1765.05 1688.00 L1771.36 1688.00 L1771.36 1687.76 L1777.67 1687.76 L1777.67 1687.38 L1790.29 1687.38 L1790.29 1685.78 L1796.73 1685.78 L1796.73 1685.16 L1803.04 1685.16 L1803.04 1683.80 L1809.35 1683.80 L1809.35 1683.30 L1815.66 1683.30 L1815.66 1682.93 L1821.97 1682.93 L1821.97 1682.93 L1828.41 1682.93 L1828.41 1682.68 L1834.72 1682.68 L1834.72 1682.19 L1841.03 1682.19 L1841.03 1681.82 L1847.34 1681.82 L1847.34 1681.57 L1872.71 1681.57 L1872.71 1681.57" stroke-linejoin="round" style="fill:none;stroke:#55752F;stroke-width:6.48"/>
	<path d=" M713.54 1825.00 L719.85 1825.00 L719.85 1822.52 L726.16 1822.52 L726.16 1819.92 L732.48 1819.92 L732.48 1816.83 L738.91 1816.83 L738.91 1813.86 L745.22 1813.86 L745.22 1811.39 L751.53 1811.39 L751.53 1809.65 L757.85 1809.65 L757.85 1807.80 L764.16 1807.80 L764.16 1805.94 L770.59 1805.94 L770.59 1804.58 L776.90 1804.58 L776.90 1802.35 L783.21 1802.35 L783.21 1800.00 L789.52 1800.00 L789.52 1797.52 L795.84 1797.52 L795.84 1796.04 L802.27 1796.04 L802.27 1794.55 L808.58 1794.55 L808.58 1792.45 L814.89 1792.45 L814.89 1791.21 L821.21 1791.21 L821.21 1788.86 L827.52 1788.86 L827.52 1786.76 L833.83 1786.76 L833.83 1785.27 L840.26 1785.27 L840.26 1781.93 L846.57 1781.93 L846.57 1780.45 L852.88 1780.45 L852.88 1778.84 L859.20 1778.84 L859.20 1776.73 L865.51 1776.73 L865.51 1775.50 L871.94 1775.50 L871.94 1773.39 L878.25 1773.39 L878.25 1770.79 L884.57 1770.79 L884.57 1769.80 L890.88 1769.80 L890.88 1767.45 L897.19 1767.45 L897.19 1763.25 L903.50 1763.25 L903.50 1761.14 L909.93 1761.14 L909.93 1758.91 L916.25 1758.91 L916.25 1756.93 L922.56 1756.93 L922.56 1755.32 L928.87 1755.32 L928.87 1753.84 L935.18 1753.84 L935.18 1752.97 L941.61 1752.97 L941.61 1749.63 L947.92 1749.63 L947.92 1747.16 L954.24 1747.16 L954.24 1745.67 L960.55 1745.67 L960.55 1742.95 L966.86 1742.95 L966.86 1741.84 L973.29 1741.84 L973.29 1739.61 L979.61 1739.61 L979.61 1737.01 L985.92 1737.01 L985.92 1735.15 L992.23 1735.15 L992.23 1733.42 L998.54 1733.42 L998.54 1732.06 L1004.85 1732.06 L1004.85 1730.08 L1011.28 1730.08 L1011.28 1729.09 L1017.60 1729.09 L1017.60 1725.87 L1023.91 1725.87 L1023.91 1723.64 L1030.22 1723.64 L1030.22 1721.29 L1036.53 1721.29 L1036.53 1718.82 L1042.96 1718.82 L1042.96 1716.71 L1049.28 1716.71 L1049.28 1714.11 L1055.59 1714.11 L1055.59 1711.27 L1061.90 1711.27 L1061.90 1709.78 L1068.21 1709.78 L1068.21 1707.43 L1074.52 1707.43 L1074.52 1705.08 L1080.96 1705.08 L1080.96 1702.23 L1087.27 1702.23 L1087.27 1700.50 L1093.58 1700.50 L1093.58 1698.89 L1099.89 1698.89 L1099.89 1696.79 L1106.20 1696.79 L1106.20 1693.57 L1112.64 1693.57 L1112.64 1690.60 L1118.95 1690.60 L1118.95 1688.13 L1125.26 1688.13 L1125.26 1687.51 L1131.57 1687.51 L1131.57 1683.92 L1137.88 1683.92 L1137.88 1680.95 L1144.32 1680.95 L1144.32 1677.24 L1150.63 1677.24 L1150.63 1673.89 L1156.94 1673.89 L1156.94 1671.30 L1163.25 1671.30 L1163.25 1669.07 L1169.56 1669.07 L1169.56 1666.72 L1175.87 1666.72 L1175.87 1664.37 L1182.31 1664.37 L1182.31 1662.26 L1188.62 1662.26 L1188.62 1660.28 L1194.93 1660.28 L1194.93 1658.55 L1201.24 1658.55 L1201.24 1656.45 L1207.55 1656.45 L1207.55 1653.10 L1213.99 1653.10 L1213.99 1651.87 L1220.30 1651.87 L1220.30 1649.89 L1226.61 1649.89 L1226.61 1647.16 L1232.92 1647.16 L1232.92 1646.17 L1239.23 1646.17 L1239.23 1644.07 L1245.54 1644.07 L1245.54 1641.60 L1251.98 1641.60 L1251.98 1640.11 L1258.29 1640.11 L1258.29 1639.49 L1264.60 1639.49 L1264.60 1636.03 L1270.91 1636.03 L1270.91 1633.55 L1277.22 1633.55 L1277.22 1632.68 L1283.66 1632.68 L1283.66 1631.20 L1289.97 1631.20 L1289.97 1629.59 L1296.28 1629.59 L1296.28 1627.12 L1302.59 1627.12 L1302.59 1624.52 L1308.90 1624.52 L1308.90 1623.53 L1315.34 1623.53 L1315.34 1621.42 L1321.65 1621.42 L1321.65 1620.19 L1327.96 1620.19 L1327.96 1618.08 L1334.27 1618.08 L1334.27 1616.35 L1340.58 1616.35 L1340.58 1613.63 L1346.89 1613.63 L1346.89 1611.77 L1353.33 1611.77 L1353.33 1609.79 L1359.64 1609.79 L1359.64 1607.69 L1365.95 1607.69 L1365.95 1606.45 L1372.26 1606.45 L1372.26 1604.35 L1378.58 1604.35 L1378.58 1600.14 L1385.01 1600.14 L1385.01 1597.41 L1391.32 1597.41 L1391.32 1596.67 L1397.63 1596.67 L1397.63 1594.69 L1403.94 1594.69 L1403.94 1593.08 L1410.26 1593.08 L1410.26 1591.60 L1416.57 1591.60 L1416.57 1589.74 L1423.00 1589.74 L1423.00 1588.88 L1429.31 1588.88 L1429.31 1586.52 L1435.62 1586.52 L1435.62 1584.67 L1441.93 1584.67 L1441.93 1583.55 L1448.25 1583.55 L1448.25 1581.95 L1454.68 1581.95 L1454.68 1580.09 L1460.99 1580.09 L1460.99 1578.98 L1467.30 1578.98 L1467.30 1577.49 L1473.62 1577.49 L1473.62 1576.01 L1479.93 1576.01 L1479.93 1575.26 L1486.36 1575.26 L1486.36 1572.42 L1492.67 1572.42 L1492.67 1571.18 L1498.98 1571.18 L1498.98 1568.95 L1505.30 1568.95 L1505.30 1568.09 L1511.61 1568.09 L1511.61 1565.61 L1517.92 1565.61 L1517.92 1564.74 L1524.35 1564.74 L1524.35 1563.88 L1530.66 1563.88 L1530.66 1561.77 L1536.97 1561.77 L1536.97 1559.67 L1543.29 1559.67 L1543.29 1557.94 L1549.60 1557.94 L1549.60 1556.58 L1556.03 1556.58 L1556.03 1555.46 L1562.34 1555.46 L1562.34 1553.98 L1568.65 1553.98 L1568.65 1552.37 L1574.97 1552.37 L1574.97 1550.88 L1581.28 1550.88 L1581.28 1549.65 L1587.59 1549.65 L1587.59 1548.16 L1594.02 1548.16 L1594.02 1546.06 L1600.34 1546.06 L1600.34 1544.08 L1606.65 1544.08 L1606.65 1542.72 L1612.96 1542.72 L1612.96 1539.99 L1619.27 1539.99 L1619.27 1538.51 L1625.70 1538.51 L1625.70 1536.53 L1632.02 1536.53 L1632.02 1535.54 L1638.33 1535.54 L1638.33 1533.81 L1644.64 1533.81 L1644.64 1532.57 L1650.95 1532.57 L1650.95 1531.95 L1657.38 1531.95 L1657.38 1530.71 L1663.69 1530.71 L1663.69 1528.86 L1670.01 1528.86 L1670.01 1526.75 L1676.32 1526.75 L1676.32 1524.65 L1682.63 1524.65 L1682.63 1522.92 L1688.94 1522.92 L1688.94 1522.30 L1695.38 1522.30 L1695.38 1521.68 L1701.69 1521.68 L1701.69 1519.82 L1708.00 1519.82 L1708.00 1518.09 L1714.31 1518.09 L1714.31 1516.23 L1720.62 1516.23 L1720.62 1514.50 L1727.06 1514.50 L1727.06 1511.65 L1733.37 1511.65 L1733.37 1510.79 L1739.68 1510.79 L1739.68 1508.44 L1745.99 1508.44 L1745.99 1507.20 L1752.30 1507.20 L1752.30 1505.09 L1758.73 1505.09 L1758.73 1503.24 L1765.05 1503.24 L1765.05 1501.75 L1771.36 1501.75 L1771.36 1499.40 L1777.67 1499.40 L1777.67 1497.79 L1783.98 1497.79 L1783.98 1496.31 L1790.29 1496.31 L1790.29 1495.81 L1796.73 1495.81 L1796.73 1493.71 L1803.04 1493.71 L1803.04 1492.72 L1809.35 1492.72 L1809.35 1491.61 L1815.66 1491.61 L1815.66 1490.24 L1821.97 1490.24 L1821.97 1489.38 L1828.41 1489.38 L1828.41 1488.51 L1834.72 1488.51 L1834.72 1487.65 L1841.03 1487.65 L1841.03 1487.27 L1847.34 1487.27 L1847.34 1487.03 L1872.71 1487.03 L1872.71 1487.03" stroke-linejoin="round" style="fill:none;stroke:#E37E00;stroke-width:6.48"/>
	<path d=" M713.54 1821.90 L719.85 1821.90 L719.85 1820.30 L726.16 1820.30 L726.16 1817.82 L732.48 1817.82 L732.48 1814.97 L738.91 1814.97 L738.91 1810.89 L745.22 1810.89 L745.22 1807.55 L751.53 1807.55 L751.53 1804.33 L757.85 1804.33 L757.85 1799.88 L764.16 1799.88 L764.16 1795.30 L770.59 1795.30 L770.59 1792.82 L776.90 1792.82 L776.90 1790.84 L783.21 1790.84 L783.21 1788.00 L789.52 1788.00 L789.52 1781.44 L795.84 1781.44 L795.84 1776.86 L802.27 1776.86 L802.27 1772.40 L808.58 1772.40 L808.58 1769.06 L814.89 1769.06 L814.89 1764.61 L821.21 1764.61 L821.21 1759.28 L827.52 1759.28 L827.52 1754.83 L833.83 1754.83 L833.83 1752.35 L840.26 1752.35 L840.26 1747.03 L846.57 1747.03 L846.57 1743.69 L852.88 1743.69 L852.88 1741.22 L859.20 1741.22 L859.20 1735.52 L865.51 1735.52 L865.51 1732.68 L871.94 1732.68 L871.94 1729.46 L878.25 1729.46 L878.25 1723.27 L884.57 1723.27 L884.57 1718.69 L890.88 1718.69 L890.88 1713.87 L897.19 1713.87 L897.19 1709.29 L903.50 1709.29 L903.50 1703.60 L909.93 1703.60 L909.93 1699.14 L916.25 1699.14 L916.25 1695.43 L922.56 1695.43 L922.56 1690.48 L928.87 1690.48 L928.87 1686.02 L935.18 1686.02 L935.18 1680.21 L941.61 1680.21 L941.61 1674.14 L947.92 1674.14 L947.92 1668.82 L954.24 1668.82 L954.24 1663.13 L960.55 1663.13 L960.55 1657.31 L966.86 1657.31 L966.86 1652.36 L973.29 1652.36 L973.29 1646.67 L979.61 1646.67 L979.61 1642.59 L985.92 1642.59 L985.92 1638.13 L992.23 1638.13 L992.23 1632.81 L998.54 1632.81 L998.54 1628.72 L1004.85 1628.72 L1004.85 1623.77 L1011.28 1623.77 L1011.28 1620.43 L1017.60 1620.43 L1017.60 1618.08 L1023.91 1618.08 L1023.91 1613.87 L1030.22 1613.87 L1030.22 1608.55 L1036.53 1608.55 L1036.53 1603.23 L1042.96 1603.23 L1042.96 1600.01 L1049.28 1600.01 L1049.28 1593.45 L1055.59 1593.45 L1055.59 1587.76 L1061.90 1587.76 L1061.90 1583.18 L1068.21 1583.18 L1068.21 1580.71 L1074.52 1580.71 L1074.52 1575.88 L1080.96 1575.88 L1080.96 1571.30 L1087.27 1571.30 L1087.27 1568.46 L1093.58 1568.46 L1093.58 1561.90 L1099.89 1561.90 L1099.89 1559.92 L1106.20 1559.92 L1106.20 1554.97 L1112.64 1554.97 L1112.64 1550.02 L1118.95 1550.02 L1118.95 1544.70 L1125.26 1544.70 L1125.26 1542.72 L1131.57 1542.72 L1131.57 1538.14 L1137.88 1538.14 L1137.88 1535.29 L1144.32 1535.29 L1144.32 1530.84 L1150.63 1530.84 L1150.63 1526.75 L1156.94 1526.75 L1156.94 1517.72 L1163.25 1517.72 L1163.25 1514.38 L1169.56 1514.38 L1169.56 1511.16 L1175.87 1511.16 L1175.87 1508.31 L1182.31 1508.31 L1182.31 1502.12 L1188.62 1502.12 L1188.62 1498.04 L1194.93 1498.04 L1194.93 1493.96 L1201.24 1493.96 L1201.24 1491.11 L1207.55 1491.11 L1207.55 1487.40 L1213.99 1487.40 L1213.99 1483.31 L1220.30 1483.31 L1220.30 1480.47 L1226.61 1480.47 L1226.61 1477.99 L1232.92 1477.99 L1232.92 1473.04 L1239.23 1473.04 L1239.23 1468.96 L1245.54 1468.96 L1245.54 1462.40 L1251.98 1462.40 L1251.98 1458.69 L1258.29 1458.69 L1258.29 1452.99 L1264.60 1452.99 L1264.60 1449.28 L1270.91 1449.28 L1270.91 1446.81 L1277.22 1446.81 L1277.22 1440.25 L1283.66 1440.25 L1283.66 1437.40 L1289.97 1437.40 L1289.97 1431.71 L1296.28 1431.71 L1296.28 1429.23 L1302.59 1429.23 L1302.59 1424.28 L1308.90 1424.28 L1308.90 1421.81 L1315.34 1421.81 L1315.34 1417.72 L1321.65 1417.72 L1321.65 1413.27 L1327.96 1413.27 L1327.96 1408.81 L1334.27 1408.81 L1334.27 1403.86 L1340.58 1403.86 L1340.58 1400.52 L1346.89 1400.52 L1346.89 1396.93 L1353.33 1396.93 L1353.33 1389.88 L1359.64 1389.88 L1359.64 1385.42 L1365.95 1385.42 L1365.95 1380.47 L1372.26 1380.47 L1372.26 1378.87 L1378.58 1378.87 L1378.58 1376.02 L1385.01 1376.02 L1385.01 1372.31 L1391.32 1372.31 L1391.32 1367.85 L1397.63 1367.85 L1397.63 1361.66 L1403.94 1361.66 L1403.94 1356.71 L1410.26 1356.71 L1410.26 1351.39 L1416.57 1351.39 L1416.57 1348.92 L1423.00 1348.92 L1423.00 1346.07 L1429.31 1346.07 L1429.31 1340.75 L1435.62 1340.75 L1435.62 1337.04 L1441.93 1337.04 L1441.93 1333.82 L1448.25 1333.82 L1448.25 1331.34 L1454.68 1331.34 L1454.68 1329.24 L1460.99 1329.24 L1460.99 1325.16 L1467.30 1325.16 L1467.30 1322.31 L1473.62 1322.31 L1473.62 1317.85 L1479.93 1317.85 L1479.93 1315.38 L1486.36 1315.38 L1486.36 1311.67 L1492.67 1311.67 L1492.67 1308.82 L1498.98 1308.82 L1498.98 1304.37 L1505.30 1304.37 L1505.30 1300.16 L1511.61 1300.16 L1511.61 1297.81 L1517.92 1297.81 L1517.92 1292.86 L1524.35 1292.86 L1524.35 1288.77 L1530.66 1288.77 L1530.66 1283.45 L1536.97 1283.45 L1536.97 1279.37 L1543.29 1279.37 L1543.29 1275.65 L1549.60 1275.65 L1549.60 1271.57 L1556.03 1271.57 L1556.03 1268.23 L1562.34 1268.23 L1562.34 1265.75 L1568.65 1265.75 L1568.65 1262.54 L1574.97 1262.54 L1574.97 1258.08 L1581.28 1258.08 L1581.28 1253.50 L1587.59 1253.50 L1587.59 1250.29 L1594.02 1250.29 L1594.02 1247.44 L1600.34 1247.44 L1600.34 1243.23 L1606.65 1243.23 L1606.65 1240.01 L1612.96 1240.01 L1612.96 1236.67 L1619.27 1236.67 L1619.27 1234.69 L1625.70 1234.69 L1625.70 1229.37 L1632.02 1229.37 L1632.02 1225.66 L1638.33 1225.66 L1638.33 1221.57 L1644.64 1221.57 L1644.64 1218.36 L1650.95 1218.36 L1650.95 1215.39 L1657.38 1215.39 L1657.38 1212.91 L1663.69 1212.91 L1663.69 1210.56 L1670.01 1210.56 L1670.01 1205.61 L1676.32 1205.61 L1676.32 1199.42 L1682.63 1199.42 L1682.63 1196.58 L1688.94 1196.58 L1688.94 1192.86 L1695.38 1192.86 L1695.38 1189.27 L1701.69 1189.27 L1701.69 1186.30 L1708.00 1186.30 L1708.00 1182.72 L1714.31 1182.72 L1714.31 1176.90 L1720.62 1176.90 L1720.62 1173.19 L1727.06 1173.19 L1727.06 1168.73 L1733.37 1168.73 L1733.37 1164.28 L1739.68 1164.28 L1739.68 1160.19 L1745.99 1160.19 L1745.99 1157.22 L1752.30 1157.22 L1752.30 1153.63 L1758.73 1153.63 L1758.73 1150.29 L1765.05 1150.29 L1765.05 1145.84 L1771.36 1145.84 L1771.36 1141.75 L1777.67 1141.75 L1777.67 1137.55 L1783.98 1137.55 L1783.98 1135.19 L1790.29 1135.19 L1790.29 1131.11 L1796.73 1131.11 L1796.73 1127.40 L1803.04 1127.40 L1803.04 1125.29 L1809.35 1125.29 L1809.35 1122.45 L1815.66 1122.45 L1815.66 1120.34 L1821.97 1120.34 L1821.97 1117.50 L1828.41 1117.50 L1828.41 1115.89 L1834.72 1115.89 L1834.72 1113.04 L1841.03 1113.04 L1841.03 1112.67 L1853.65 1112.67 L1853.65 1112.18 L1872.71 1112.18 L1872.71 1112.18" stroke-linejoin="round" style="fill:none;stroke:#6E8E84;stroke-width:6.48"/>
	<line x1="659.71" y1="1873.51" x2="659.71" y2="414.45" style="stroke:#000000;stroke-width:4.32"/>
	<line x1="659.71" y1="1825.99" x2="629.76" y2="1825.99" style="stroke:#000000;stroke-width:4.32"/>
	<text x="614.79" y="1852.27" style="font-family:'Helvetica';font-size:74.99px;fill:#000000" text-anchor="end">0.000</text>
	<line x1="659.71" y1="1553.11" x2="629.76" y2="1553.11" style="stroke:#000000;stroke-width:4.32"/>
	<text x="614.79" y="1579.39" style="font-family:'Helvetica';font-size:74.99px;fill:#000000" text-anchor="end">0.001</text>
	<line x1="659.71" y1="1280.36" x2="629.76" y2="1280.36" style="stroke:#000000;stroke-width:4.32"/>
	<text x="614.79" y="1306.64" style="font-family:'Helvetica';font-size:74.99px;fill:#000000" text-anchor="end">0.002</text>
	<line x1="659.71" y1="1007.60" x2="629.76" y2="1007.60" style="stroke:#000000;stroke-width:4.32"/>
	<text x="614.79" y="1033.88" style="font-family:'Helvetica';font-size:74.99px;fill:#000000" text-anchor="end">0.003</text>
	<line x1="659.71" y1="734.73" x2="629.76" y2="734.73" style="stroke:#000000;stroke-width:4.32"/>
	<text x="614.79" y="761.01" style="font-family:'Helvetica';font-size:74.99px;fill:#000000" text-anchor="end">0.004</text>
	<line x1="659.71" y1="461.97" x2="629.76" y2="461.97" style="stroke:#000000;stroke-width:4.32"/>
	<text x="614.79" y="488.25" style="font-family:'Helvetica';font-size:74.99px;fill:#000000" text-anchor="end">0.005</text>
	<line x1="659.71" y1="1873.51" x2="2021.58" y2="1873.51" style="stroke:#000000;stroke-width:4.32"/>
	<line x1="707.23" y1="1873.51" x2="707.23" y2="1903.46" style="stroke:#000000;stroke-width:4.32"/>
	<text x="707.23" y="1970.87" style="font-family:'Helvetica';font-size:74.99px;fill:#000000" text-anchor="middle">1 Feb 20</text>
	<line x1="891.00" y1="1873.51" x2="891.00" y2="1903.46" style="stroke:#000000;stroke-width:4.32"/>
	<text x="891.00" y="1970.87" style="font-family:'Helvetica';font-size:74.99px;fill:#000000" text-anchor="middle">1 Mar 20</text>
	<line x1="1087.27" y1="1873.51" x2="1087.27" y2="1903.46" style="stroke:#000000;stroke-width:4.32"/>
	<text x="1087.27" y="1970.87" style="font-family:'Helvetica';font-size:74.99px;fill:#000000" text-anchor="middle">1 Apr 20</text>
	<line x1="1283.66" y1="1873.51" x2="1283.66" y2="1903.46" style="stroke:#000000;stroke-width:4.32"/>
	<text x="1283.66" y="1970.87" style="font-family:'Helvetica';font-size:74.99px;fill:#000000" text-anchor="middle">1 May 20</text>
	<line x1="1473.74" y1="1873.51" x2="1473.74" y2="1903.46" style="stroke:#000000;stroke-width:4.32"/>
	<text x="1473.74" y="1970.87" style="font-family:'Helvetica';font-size:74.99px;fill:#000000" text-anchor="middle">1 June 20</text>
	<line x1="1663.69" y1="1873.51" x2="1663.69" y2="1903.46" style="stroke:#000000;stroke-width:4.32"/>
	<text x="1663.69" y="1970.87" style="font-family:'Helvetica';font-size:74.99px;fill:#000000" text-anchor="middle">1 July 20</text>
	<line x1="1860.09" y1="1873.51" x2="1860.09" y2="1903.46" style="stroke:#000000;stroke-width:4.32"/>
	<text x="1860.09" y="1970.87" style="font-family:'Helvetica';font-size:74.99px;fill:#000000" text-anchor="middle">1 Aug 20</text>
	<text x="1340.71" y="2053.41" style="font-family:'Helvetica';font-size:74.99px;fill:#000000" text-anchor="middle"> </text>
	<text x="1340.71" y="369.91" style="font-family:'Helvetica';font-size:104.94px;fill:#1E2D53" text-anchor="middle">Female</text>
	<rect x="2097.19" y="207.91" width="1799.33" height="1958.65" style="fill:#EAF2F3"/>
	<rect x="2099.35" y="210.07" width="1795.01" height="1954.33" style="fill:none;stroke:#EAF2F3;stroke-width:4.32"/>
	<rect x="2459.04" y="414.45" width="1361.87" height="1459.06" style="fill:#FFFFFF"/>
	<rect x="2461.20" y="416.61" width="1357.55" height="1454.74" style="fill:none;stroke:#FFFFFF;stroke-width:4.32"/>
	<line x1="2459.04" y1="1825.99" x2="3820.91" y2="1825.99" style="stroke:#EAF2F3;stroke-width:6.48"/>
	<line x1="2459.04" y1="1553.11" x2="3820.91" y2="1553.11" style="stroke:#EAF2F3;stroke-width:6.48"/>
	<line x1="2459.04" y1="1280.36" x2="3820.91" y2="1280.36" style="stroke:#EAF2F3;stroke-width:6.48"/>
	<line x1="2459.04" y1="1007.60" x2="3820.91" y2="1007.60" style="stroke:#EAF2F3;stroke-width:6.48"/>
	<line x1="2459.04" y1="734.73" x2="3820.91" y2="734.73" style="stroke:#EAF2F3;stroke-width:6.48"/>
	<line x1="2459.04" y1="461.97" x2="3820.91" y2="461.97" style="stroke:#EAF2F3;stroke-width:6.48"/>
	<path d=" M2512.87 1825.86 L2525.49 1825.86 L2525.49 1825.62 L2544.55 1825.62 L2544.55 1825.49 L2569.79 1825.49 L2569.79 1825.25 L2588.85 1825.25 L2588.85 1824.63 L2601.47 1824.63 L2601.47 1824.13 L2607.91 1824.13 L2607.91 1823.51 L2614.22 1823.51 L2614.22 1823.27 L2626.84 1823.27 L2626.84 1822.77 L2639.46 1822.77 L2639.46 1822.52 L2645.90 1822.52 L2645.90 1821.78 L2658.52 1821.78 L2658.52 1821.41 L2671.14 1821.41 L2671.14 1821.16 L2677.58 1821.16 L2677.58 1820.17 L2683.89 1820.17 L2683.89 1820.05 L2690.20 1820.05 L2690.20 1819.80 L2696.51 1819.80 L2696.51 1819.68 L2721.88 1819.68 L2721.88 1819.31 L2728.19 1819.31 L2728.19 1818.81 L2740.82 1818.81 L2740.82 1818.69 L2747.25 1818.69 L2747.25 1818.44 L2753.56 1818.44 L2753.56 1818.07 L2759.87 1818.07 L2759.87 1817.94 L2766.18 1817.94 L2766.18 1817.70 L2772.49 1817.70 L2772.49 1817.57 L2778.93 1817.57 L2778.93 1816.95 L2785.24 1816.95 L2785.24 1816.71 L2791.55 1816.71 L2791.55 1816.58 L2804.18 1816.58 L2804.18 1816.21 L2823.23 1816.21 L2823.23 1815.96 L2829.54 1815.96 L2829.54 1815.72 L2835.86 1815.72 L2835.86 1815.59 L2842.17 1815.59 L2842.17 1815.22 L2848.60 1815.22 L2848.60 1814.85 L2854.91 1814.85 L2854.91 1814.85 L2861.22 1814.85 L2861.22 1814.60 L2867.53 1814.60 L2867.53 1814.36 L2873.85 1814.36 L2873.85 1814.36 L2886.59 1814.36 L2886.59 1814.23 L2899.22 1814.23 L2899.22 1814.23 L2905.53 1814.23 L2905.53 1813.86 L2918.27 1813.86 L2918.27 1813.61 L2924.58 1813.61 L2924.58 1813.49 L2930.89 1813.49 L2930.89 1812.62 L2937.21 1812.62 L2937.21 1812.25 L2943.52 1812.25 L2943.52 1812.25 L2949.95 1812.25 L2949.95 1812.13 L2956.26 1812.13 L2956.26 1811.76 L2962.57 1811.76 L2962.57 1811.51 L2968.89 1811.51 L2968.89 1811.26 L2987.94 1811.26 L2987.94 1811.14 L3000.57 1811.14 L3000.57 1810.89 L3006.88 1810.89 L3006.88 1810.89 L3044.87 1810.89 L3044.87 1810.77 L3051.30 1810.77 L3051.30 1810.15 L3057.61 1810.15 L3057.61 1810.02 L3082.86 1810.02 L3082.86 1809.78 L3101.92 1809.78 L3101.92 1809.41 L3114.54 1809.41 L3114.54 1809.41 L3120.97 1809.41 L3120.97 1809.16 L3133.60 1809.16 L3133.60 1808.79 L3139.91 1808.79 L3139.91 1808.66 L3152.53 1808.66 L3152.53 1808.42 L3171.59 1808.42 L3171.59 1808.04 L3177.90 1808.04 L3177.90 1807.80 L3209.58 1807.80 L3209.58 1807.67 L3215.89 1807.67 L3215.89 1807.43 L3222.33 1807.43 L3222.33 1807.30 L3234.95 1807.30 L3234.95 1807.05 L3247.57 1807.05 L3247.57 1806.68 L3253.88 1806.68 L3253.88 1806.44 L3266.63 1806.44 L3266.63 1806.31 L3285.56 1806.31 L3285.56 1805.94 L3304.62 1805.94 L3304.62 1805.69 L3317.24 1805.69 L3317.24 1805.32 L3329.99 1805.32 L3329.99 1804.95 L3336.30 1804.95 L3336.30 1804.58 L3348.92 1804.58 L3348.92 1804.21 L3355.23 1804.21 L3355.23 1803.96 L3374.29 1803.96 L3374.29 1803.71 L3386.91 1803.71 L3386.91 1803.59 L3393.35 1803.59 L3393.35 1803.34 L3399.66 1803.34 L3399.66 1803.22 L3418.59 1803.22 L3418.59 1802.97 L3431.34 1802.97 L3431.34 1802.85 L3443.96 1802.85 L3443.96 1802.60 L3488.26 1802.60 L3488.26 1802.35 L3494.58 1802.35 L3494.58 1802.23 L3501.01 1802.23 L3501.01 1801.98 L3513.63 1801.98 L3513.63 1801.86 L3557.94 1801.86 L3557.94 1801.61 L3589.62 1801.61 L3589.62 1801.49 L3602.36 1801.49 L3602.36 1801.24 L3621.30 1801.24 L3621.30 1801.11 L3627.61 1801.11 L3627.61 1800.87 L3672.03 1800.87 L3672.03 1800.87" stroke-linejoin="round" style="fill:none;stroke:#1A476F;stroke-width:6.48"/>
	<path d=" M2525.49 1825.86 L2531.80 1825.86 L2531.80 1825.62 L2538.11 1825.62 L2538.11 1825.49 L2550.86 1825.49 L2550.86 1824.87 L2557.17 1824.87 L2557.17 1824.63 L2576.23 1824.63 L2576.23 1824.26 L2595.16 1824.26 L2595.16 1823.88 L2601.47 1823.88 L2601.47 1823.64 L2607.91 1823.64 L2607.91 1823.51 L2614.22 1823.51 L2614.22 1822.65 L2620.53 1822.65 L2620.53 1822.52 L2626.84 1822.52 L2626.84 1822.03 L2633.15 1822.03 L2633.15 1821.66 L2639.46 1821.66 L2639.46 1821.29 L2645.90 1821.29 L2645.90 1820.54 L2664.83 1820.54 L2664.83 1820.05 L2671.14 1820.05 L2671.14 1819.55 L2677.58 1819.55 L2677.58 1819.31 L2683.89 1819.31 L2683.89 1818.56 L2690.20 1818.56 L2690.20 1818.32 L2702.82 1818.32 L2702.82 1816.95 L2709.26 1816.95 L2709.26 1816.71 L2715.57 1816.71 L2715.57 1816.34 L2728.19 1816.34 L2728.19 1815.59 L2734.50 1815.59 L2734.50 1814.97 L2747.25 1814.97 L2747.25 1814.73 L2753.56 1814.73 L2753.56 1814.11 L2759.87 1814.11 L2759.87 1813.98 L2766.18 1813.98 L2766.18 1813.98 L2772.49 1813.98 L2772.49 1813.37 L2778.93 1813.37 L2778.93 1812.99 L2785.24 1812.99 L2785.24 1812.38 L2791.55 1812.38 L2791.55 1812.00 L2797.86 1812.00 L2797.86 1811.76 L2804.18 1811.76 L2804.18 1811.39 L2810.49 1811.39 L2810.49 1811.26 L2816.92 1811.26 L2816.92 1810.77 L2823.23 1810.77 L2823.23 1810.40 L2842.17 1810.40 L2842.17 1810.27 L2848.60 1810.27 L2848.60 1810.27 L2854.91 1810.27 L2854.91 1809.41 L2861.22 1809.41 L2861.22 1809.03 L2873.85 1809.03 L2873.85 1808.42 L2880.28 1808.42 L2880.28 1807.80 L2886.59 1807.80 L2886.59 1807.67 L2892.90 1807.67 L2892.90 1807.05 L2899.22 1807.05 L2899.22 1806.81 L2911.84 1806.81 L2911.84 1806.44 L2924.58 1806.44 L2924.58 1805.07 L2930.89 1805.07 L2930.89 1804.70 L2937.21 1804.70 L2937.21 1804.46 L2943.52 1804.46 L2943.52 1804.08 L2956.26 1804.08 L2956.26 1803.71 L2962.57 1803.71 L2962.57 1803.47 L2968.89 1803.47 L2968.89 1802.85 L2975.20 1802.85 L2975.20 1802.48 L2981.51 1802.48 L2981.51 1801.11 L2987.94 1801.11 L2987.94 1800.50 L2994.26 1800.50 L2994.26 1800.12 L3000.57 1800.12 L3000.57 1799.75 L3006.88 1799.75 L3006.88 1799.75 L3013.19 1799.75 L3013.19 1798.89 L3019.62 1798.89 L3019.62 1798.51 L3025.93 1798.51 L3025.93 1797.77 L3032.25 1797.77 L3032.25 1797.52 L3038.56 1797.52 L3038.56 1797.40 L3044.87 1797.40 L3044.87 1797.15 L3051.30 1797.15 L3051.30 1796.91 L3057.61 1796.91 L3057.61 1796.41 L3076.55 1796.41 L3076.55 1796.16 L3082.86 1796.16 L3082.86 1796.16 L3095.61 1796.16 L3095.61 1795.92 L3101.92 1795.92 L3101.92 1795.54 L3108.23 1795.54 L3108.23 1795.17 L3114.54 1795.17 L3114.54 1794.80 L3120.97 1794.80 L3120.97 1794.43 L3127.29 1794.43 L3127.29 1793.94 L3152.53 1793.94 L3152.53 1793.44 L3158.97 1793.44 L3158.97 1793.19 L3165.28 1793.19 L3165.28 1792.95 L3171.59 1792.95 L3171.59 1792.45 L3177.90 1792.45 L3177.90 1791.83 L3190.65 1791.83 L3190.65 1791.46 L3203.27 1791.46 L3203.27 1790.97 L3209.58 1790.97 L3209.58 1790.84 L3215.89 1790.84 L3215.89 1790.47 L3222.33 1790.47 L3222.33 1788.99 L3228.64 1788.99 L3228.64 1788.86 L3234.95 1788.86 L3234.95 1788.61 L3241.26 1788.61 L3241.26 1787.50 L3253.88 1787.50 L3253.88 1787.13 L3260.32 1787.13 L3260.32 1786.63 L3266.63 1786.63 L3266.63 1786.51 L3279.25 1786.51 L3279.25 1785.64 L3285.56 1785.64 L3285.56 1785.52 L3298.31 1785.52 L3298.31 1785.27 L3310.93 1785.27 L3310.93 1784.90 L3317.24 1784.90 L3317.24 1784.65 L3323.55 1784.65 L3323.55 1783.91 L3329.99 1783.91 L3329.99 1783.54 L3348.92 1783.54 L3348.92 1783.29 L3355.23 1783.29 L3355.23 1783.29 L3367.98 1783.29 L3367.98 1782.92 L3374.29 1782.92 L3374.29 1782.67 L3386.91 1782.67 L3386.91 1782.30 L3393.35 1782.30 L3393.35 1782.18 L3405.97 1782.18 L3405.97 1781.68 L3412.28 1781.68 L3412.28 1781.56 L3418.59 1781.56 L3418.59 1781.19 L3431.34 1781.19 L3431.34 1780.94 L3437.65 1780.94 L3437.65 1780.57 L3450.27 1780.57 L3450.27 1780.32 L3456.59 1780.32 L3456.59 1780.20 L3463.02 1780.20 L3463.02 1779.70 L3469.33 1779.70 L3469.33 1779.33 L3494.58 1779.33 L3494.58 1779.21 L3513.63 1779.21 L3513.63 1778.71 L3519.95 1778.71 L3519.95 1778.59 L3526.26 1778.59 L3526.26 1778.34 L3532.69 1778.34 L3532.69 1778.22 L3539.00 1778.22 L3539.00 1777.72 L3545.31 1777.72 L3545.31 1777.35 L3564.37 1777.35 L3564.37 1777.23 L3570.68 1777.23 L3570.68 1776.98 L3576.99 1776.98 L3576.99 1776.73 L3621.30 1776.73 L3621.30 1776.61 L3627.61 1776.61 L3627.61 1776.36 L3640.35 1776.36 L3640.35 1775.99 L3672.03 1775.99 L3672.03 1775.99" stroke-linejoin="round" style="fill:none;stroke:#90353B;stroke-width:6.48"/>
	<path d=" M2512.87 1825.62 L2519.18 1825.62 L2519.18 1825.00 L2525.49 1825.00 L2525.49 1823.88 L2531.80 1823.88 L2531.80 1822.40 L2538.11 1822.40 L2538.11 1821.16 L2544.55 1821.16 L2544.55 1820.67 L2550.86 1820.67 L2550.86 1818.56 L2557.17 1818.56 L2557.17 1817.45 L2563.48 1817.45 L2563.48 1815.96 L2569.79 1815.96 L2569.79 1815.35 L2576.23 1815.35 L2576.23 1814.11 L2582.54 1814.11 L2582.54 1812.99 L2588.85 1812.99 L2588.85 1812.62 L2595.16 1812.62 L2595.16 1811.76 L2601.47 1811.76 L2601.47 1810.89 L2607.91 1810.89 L2607.91 1810.27 L2614.22 1810.27 L2614.22 1808.54 L2620.53 1808.54 L2620.53 1807.92 L2626.84 1807.92 L2626.84 1805.94 L2633.15 1805.94 L2633.15 1805.07 L2639.46 1805.07 L2639.46 1804.21 L2645.90 1804.21 L2645.90 1802.97 L2652.21 1802.97 L2652.21 1801.86 L2658.52 1801.86 L2658.52 1800.62 L2664.83 1800.62 L2664.83 1799.13 L2671.14 1799.13 L2671.14 1798.27 L2677.58 1798.27 L2677.58 1797.03 L2683.89 1797.03 L2683.89 1796.16 L2690.20 1796.16 L2690.20 1795.54 L2696.51 1795.54 L2696.51 1793.81 L2702.82 1793.81 L2702.82 1792.95 L2709.26 1792.95 L2709.26 1792.33 L2715.57 1792.33 L2715.57 1791.71 L2721.88 1791.71 L2721.88 1790.59 L2728.19 1790.59 L2728.19 1789.73 L2734.50 1789.73 L2734.50 1788.61 L2740.82 1788.61 L2740.82 1787.38 L2747.25 1787.38 L2747.25 1786.14 L2753.56 1786.14 L2753.56 1784.78 L2759.87 1784.78 L2759.87 1784.04 L2766.18 1784.04 L2766.18 1783.17 L2772.49 1783.17 L2772.49 1782.43 L2778.93 1782.43 L2778.93 1781.81 L2785.24 1781.81 L2785.24 1780.57 L2791.55 1780.57 L2791.55 1779.09 L2797.86 1779.09 L2797.86 1777.60 L2804.18 1777.60 L2804.18 1776.24 L2810.49 1776.24 L2810.49 1774.63 L2816.92 1774.63 L2816.92 1773.27 L2823.23 1773.27 L2823.23 1771.78 L2829.54 1771.78 L2829.54 1769.93 L2835.86 1769.93 L2835.86 1769.43 L2842.17 1769.43 L2842.17 1768.44 L2848.60 1768.44 L2848.60 1767.08 L2854.91 1767.08 L2854.91 1765.84 L2861.22 1765.84 L2861.22 1763.74 L2867.53 1763.74 L2867.53 1762.38 L2873.85 1762.38 L2873.85 1762.01 L2880.28 1762.01 L2880.28 1761.14 L2886.59 1761.14 L2886.59 1759.41 L2892.90 1759.41 L2892.90 1758.54 L2899.22 1758.54 L2899.22 1757.30 L2905.53 1757.30 L2905.53 1756.07 L2911.84 1756.07 L2911.84 1755.57 L2918.27 1755.57 L2918.27 1754.95 L2924.58 1754.95 L2924.58 1754.46 L2930.89 1754.46 L2930.89 1753.22 L2937.21 1753.22 L2937.21 1751.98 L2943.52 1751.98 L2943.52 1751.36 L2949.95 1751.36 L2949.95 1750.62 L2956.26 1750.62 L2956.26 1749.14 L2962.57 1749.14 L2962.57 1747.53 L2968.89 1747.53 L2968.89 1746.41 L2975.20 1746.41 L2975.20 1744.68 L2981.51 1744.68 L2981.51 1744.06 L2987.94 1744.06 L2987.94 1743.57 L2994.26 1743.57 L2994.26 1742.95 L3000.57 1742.95 L3000.57 1742.83 L3006.88 1742.83 L3006.88 1740.60 L3013.19 1740.60 L3013.19 1739.73 L3019.62 1739.73 L3019.62 1738.87 L3025.93 1738.87 L3025.93 1737.63 L3032.25 1737.63 L3032.25 1737.26 L3038.56 1737.26 L3038.56 1736.39 L3044.87 1736.39 L3044.87 1735.90 L3051.30 1735.90 L3051.30 1734.29 L3057.61 1734.29 L3057.61 1732.93 L3063.93 1732.93 L3063.93 1731.94 L3070.24 1731.94 L3070.24 1730.20 L3076.55 1730.20 L3076.55 1729.71 L3082.86 1729.71 L3082.86 1729.58 L3089.30 1729.58 L3089.30 1728.47 L3095.61 1728.47 L3095.61 1727.36 L3101.92 1727.36 L3101.92 1726.99 L3108.23 1726.99 L3108.23 1726.37 L3114.54 1726.37 L3114.54 1725.25 L3120.97 1725.25 L3120.97 1723.40 L3127.29 1723.40 L3127.29 1722.53 L3133.60 1722.53 L3133.60 1721.42 L3139.91 1721.42 L3139.91 1720.30 L3146.22 1720.30 L3146.22 1719.31 L3152.53 1719.31 L3152.53 1719.06 L3158.97 1719.06 L3158.97 1717.58 L3165.28 1717.58 L3165.28 1716.34 L3171.59 1716.34 L3171.59 1714.98 L3177.90 1714.98 L3177.90 1713.74 L3184.21 1713.74 L3184.21 1712.88 L3190.65 1712.88 L3190.65 1712.63 L3196.96 1712.63 L3196.96 1712.26 L3203.27 1712.26 L3203.27 1711.39 L3209.58 1711.39 L3209.58 1710.28 L3215.89 1710.28 L3215.89 1709.04 L3222.33 1709.04 L3222.33 1708.17 L3228.64 1708.17 L3228.64 1706.94 L3234.95 1706.94 L3234.95 1706.07 L3241.26 1706.07 L3241.26 1705.82 L3247.57 1705.82 L3247.57 1705.45 L3253.88 1705.45 L3253.88 1704.34 L3260.32 1704.34 L3260.32 1702.61 L3266.63 1702.61 L3266.63 1701.74 L3272.94 1701.74 L3272.94 1700.87 L3279.25 1700.87 L3279.25 1699.02 L3285.56 1699.02 L3285.56 1698.77 L3292.00 1698.77 L3292.00 1697.90 L3298.31 1697.90 L3298.31 1696.67 L3304.62 1696.67 L3304.62 1696.05 L3310.93 1696.05 L3310.93 1695.80 L3317.24 1695.80 L3317.24 1694.93 L3323.55 1694.93 L3323.55 1692.33 L3329.99 1692.33 L3329.99 1691.72 L3336.30 1691.72 L3336.30 1690.73 L3342.61 1690.73 L3342.61 1689.86 L3348.92 1689.86 L3348.92 1688.99 L3355.23 1688.99 L3355.23 1688.13 L3361.67 1688.13 L3361.67 1687.63 L3367.98 1687.63 L3367.98 1686.39 L3374.29 1686.39 L3374.29 1685.28 L3380.60 1685.28 L3380.60 1684.54 L3386.91 1684.54 L3386.91 1683.80 L3393.35 1683.80 L3393.35 1682.81 L3399.66 1682.81 L3399.66 1681.94 L3405.97 1681.94 L3405.97 1680.83 L3412.28 1680.83 L3412.28 1679.34 L3418.59 1679.34 L3418.59 1678.47 L3424.91 1678.47 L3424.91 1677.48 L3431.34 1677.48 L3431.34 1676.99 L3437.65 1676.99 L3437.65 1676.37 L3443.96 1676.37 L3443.96 1674.88 L3450.27 1674.88 L3450.27 1673.40 L3456.59 1673.40 L3456.59 1672.29 L3463.02 1672.29 L3463.02 1671.42 L3469.33 1671.42 L3469.33 1670.18 L3475.64 1670.18 L3475.64 1669.69 L3481.95 1669.69 L3481.95 1669.32 L3488.26 1669.32 L3488.26 1668.94 L3494.58 1668.94 L3494.58 1668.20 L3501.01 1668.20 L3501.01 1668.08 L3507.32 1668.08 L3507.32 1667.58 L3513.63 1667.58 L3513.63 1666.96 L3519.95 1666.96 L3519.95 1666.10 L3526.26 1666.10 L3526.26 1665.11 L3532.69 1665.11 L3532.69 1663.99 L3539.00 1663.99 L3539.00 1663.13 L3545.31 1663.13 L3545.31 1661.40 L3551.63 1661.40 L3551.63 1660.53 L3557.94 1660.53 L3557.94 1659.66 L3564.37 1659.66 L3564.37 1659.04 L3570.68 1659.04 L3570.68 1658.18 L3576.99 1658.18 L3576.99 1657.31 L3583.30 1657.31 L3583.30 1656.69 L3589.62 1656.69 L3589.62 1656.07 L3595.93 1656.07 L3595.93 1655.70 L3602.36 1655.70 L3602.36 1655.46 L3608.67 1655.46 L3608.67 1654.59 L3614.99 1654.59 L3614.99 1653.48 L3621.30 1653.48 L3621.30 1653.10 L3627.61 1653.10 L3627.61 1652.49 L3634.04 1652.49 L3634.04 1651.99 L3640.35 1651.99 L3640.35 1651.37 L3646.66 1651.37 L3646.66 1651.00 L3672.03 1651.00 L3672.03 1651.00" stroke-linejoin="round" style="fill:none;stroke:#55752F;stroke-width:6.48"/>
	<path d=" M2512.87 1823.39 L2519.18 1823.39 L2519.18 1820.42 L2525.49 1820.42 L2525.49 1817.45 L2531.80 1817.45 L2531.80 1814.73 L2538.11 1814.73 L2538.11 1811.01 L2544.55 1811.01 L2544.55 1808.91 L2550.86 1808.91 L2550.86 1806.93 L2557.17 1806.93 L2557.17 1803.34 L2563.48 1803.34 L2563.48 1801.49 L2569.79 1801.49 L2569.79 1799.01 L2576.23 1799.01 L2576.23 1795.54 L2582.54 1795.54 L2582.54 1793.69 L2588.85 1793.69 L2588.85 1792.45 L2595.16 1792.45 L2595.16 1790.59 L2601.47 1790.59 L2601.47 1788.74 L2607.91 1788.74 L2607.91 1784.65 L2614.22 1784.65 L2614.22 1782.80 L2620.53 1782.80 L2620.53 1780.32 L2626.84 1780.32 L2626.84 1777.60 L2633.15 1777.60 L2633.15 1774.63 L2639.46 1774.63 L2639.46 1772.16 L2645.90 1772.16 L2645.90 1769.06 L2652.21 1769.06 L2652.21 1766.96 L2658.52 1766.96 L2658.52 1764.85 L2664.83 1764.85 L2664.83 1761.64 L2671.14 1761.64 L2671.14 1758.29 L2677.58 1758.29 L2677.58 1754.83 L2683.89 1754.83 L2683.89 1751.12 L2690.20 1751.12 L2690.20 1747.78 L2696.51 1747.78 L2696.51 1744.68 L2702.82 1744.68 L2702.82 1741.59 L2709.26 1741.59 L2709.26 1737.26 L2715.57 1737.26 L2715.57 1733.79 L2721.88 1733.79 L2721.88 1731.32 L2728.19 1731.32 L2728.19 1727.85 L2734.50 1727.85 L2734.50 1725.38 L2740.82 1725.38 L2740.82 1722.90 L2747.25 1722.90 L2747.25 1719.81 L2753.56 1719.81 L2753.56 1717.58 L2759.87 1717.58 L2759.87 1713.87 L2766.18 1713.87 L2766.18 1710.53 L2772.49 1710.53 L2772.49 1708.67 L2778.93 1708.67 L2778.93 1706.07 L2785.24 1706.07 L2785.24 1702.36 L2791.55 1702.36 L2791.55 1699.64 L2797.86 1699.64 L2797.86 1696.54 L2804.18 1696.54 L2804.18 1691.96 L2810.49 1691.96 L2810.49 1687.76 L2816.92 1687.76 L2816.92 1684.04 L2823.23 1684.04 L2823.23 1679.83 L2829.54 1679.83 L2829.54 1677.24 L2835.86 1677.24 L2835.86 1672.66 L2842.17 1672.66 L2842.17 1669.56 L2848.60 1669.56 L2848.60 1667.34 L2854.91 1667.34 L2854.91 1662.76 L2861.22 1662.76 L2861.22 1659.29 L2867.53 1659.29 L2867.53 1656.45 L2873.85 1656.45 L2873.85 1652.73 L2880.28 1652.73 L2880.28 1647.91 L2886.59 1647.91 L2886.59 1643.82 L2892.90 1643.82 L2892.90 1641.84 L2899.22 1641.84 L2899.22 1639.74 L2905.53 1639.74 L2905.53 1635.65 L2911.84 1635.65 L2911.84 1631.32 L2918.27 1631.32 L2918.27 1627.36 L2924.58 1627.36 L2924.58 1624.52 L2930.89 1624.52 L2930.89 1621.18 L2937.21 1621.18 L2937.21 1618.95 L2943.52 1618.95 L2943.52 1615.48 L2949.95 1615.48 L2949.95 1612.14 L2956.26 1612.14 L2956.26 1610.29 L2962.57 1610.29 L2962.57 1607.44 L2968.89 1607.44 L2968.89 1605.34 L2975.20 1605.34 L2975.20 1602.24 L2981.51 1602.24 L2981.51 1599.39 L2987.94 1599.39 L2987.94 1595.43 L2994.26 1595.43 L2994.26 1593.83 L3000.57 1593.83 L3000.57 1590.98 L3006.88 1590.98 L3006.88 1588.50 L3013.19 1588.50 L3013.19 1586.15 L3019.62 1586.15 L3019.62 1582.94 L3025.93 1582.94 L3025.93 1580.58 L3032.25 1580.58 L3032.25 1578.23 L3038.56 1578.23 L3038.56 1575.88 L3044.87 1575.88 L3044.87 1573.90 L3051.30 1573.90 L3051.30 1571.55 L3057.61 1571.55 L3057.61 1569.08 L3063.93 1569.08 L3063.93 1566.48 L3070.24 1566.48 L3070.24 1563.38 L3076.55 1563.38 L3076.55 1560.29 L3082.86 1560.29 L3082.86 1556.58 L3089.30 1556.58 L3089.30 1553.73 L3095.61 1553.73 L3095.61 1550.39 L3101.92 1550.39 L3101.92 1548.78 L3108.23 1548.78 L3108.23 1547.29 L3114.54 1547.29 L3114.54 1544.45 L3120.97 1544.45 L3120.97 1540.24 L3127.29 1540.24 L3127.29 1537.77 L3133.60 1537.77 L3133.60 1535.79 L3139.91 1535.79 L3139.91 1532.20 L3146.22 1532.20 L3146.22 1529.23 L3152.53 1529.23 L3152.53 1526.50 L3158.97 1526.50 L3158.97 1522.79 L3165.28 1522.79 L3165.28 1518.83 L3171.59 1518.83 L3171.59 1515.37 L3177.90 1515.37 L3177.90 1512.64 L3184.21 1512.64 L3184.21 1510.42 L3190.65 1510.42 L3190.65 1506.33 L3196.96 1506.33 L3196.96 1504.10 L3203.27 1504.10 L3203.27 1502.00 L3209.58 1502.00 L3209.58 1499.77 L3215.89 1499.77 L3215.89 1499.15 L3222.33 1499.15 L3222.33 1496.18 L3228.64 1496.18 L3228.64 1494.58 L3234.95 1494.58 L3234.95 1492.47 L3241.26 1492.47 L3241.26 1490.24 L3247.57 1490.24 L3247.57 1487.52 L3253.88 1487.52 L3253.88 1485.05 L3260.32 1485.05 L3260.32 1482.82 L3266.63 1482.82 L3266.63 1480.59 L3272.94 1480.59 L3272.94 1477.87 L3279.25 1477.87 L3279.25 1474.65 L3285.56 1474.65 L3285.56 1470.94 L3292.00 1470.94 L3292.00 1468.59 L3298.31 1468.59 L3298.31 1465.99 L3304.62 1465.99 L3304.62 1463.02 L3310.93 1463.02 L3310.93 1460.79 L3317.24 1460.79 L3317.24 1458.69 L3323.55 1458.69 L3323.55 1455.84 L3329.99 1455.84 L3329.99 1454.60 L3336.30 1454.60 L3336.30 1452.75 L3342.61 1452.75 L3342.61 1450.52 L3348.92 1450.52 L3348.92 1447.05 L3355.23 1447.05 L3355.23 1445.20 L3361.67 1445.20 L3361.67 1443.47 L3367.98 1443.47 L3367.98 1440.87 L3374.29 1440.87 L3374.29 1437.52 L3380.60 1437.52 L3380.60 1435.42 L3386.91 1435.42 L3386.91 1432.33 L3393.35 1432.33 L3393.35 1429.73 L3399.66 1429.73 L3399.66 1427.87 L3405.97 1427.87 L3405.97 1424.78 L3412.28 1424.78 L3412.28 1422.30 L3418.59 1422.30 L3418.59 1420.08 L3424.91 1420.08 L3424.91 1418.22 L3431.34 1418.22 L3431.34 1416.36 L3437.65 1416.36 L3437.65 1414.63 L3443.96 1414.63 L3443.96 1411.78 L3450.27 1411.78 L3450.27 1409.31 L3456.59 1409.31 L3456.59 1408.07 L3463.02 1408.07 L3463.02 1406.09 L3469.33 1406.09 L3469.33 1403.62 L3475.64 1403.62 L3475.64 1401.27 L3481.95 1401.27 L3481.95 1399.66 L3488.26 1399.66 L3488.26 1398.05 L3494.58 1398.05 L3494.58 1395.70 L3501.01 1395.70 L3501.01 1392.85 L3507.32 1392.85 L3507.32 1390.99 L3513.63 1390.99 L3513.63 1387.65 L3519.95 1387.65 L3519.95 1384.56 L3526.26 1384.56 L3526.26 1381.46 L3532.69 1381.46 L3532.69 1379.11 L3539.00 1379.11 L3539.00 1377.26 L3545.31 1377.26 L3545.31 1374.16 L3551.63 1374.16 L3551.63 1371.44 L3557.94 1371.44 L3557.94 1369.21 L3564.37 1369.21 L3564.37 1367.11 L3570.68 1367.11 L3570.68 1364.63 L3576.99 1364.63 L3576.99 1363.03 L3583.30 1363.03 L3583.30 1360.06 L3589.62 1360.06 L3589.62 1357.46 L3595.93 1357.46 L3595.93 1355.85 L3602.36 1355.85 L3602.36 1354.98 L3608.67 1354.98 L3608.67 1351.52 L3614.99 1351.52 L3614.99 1348.55 L3621.30 1348.55 L3621.30 1347.80 L3627.61 1347.80 L3627.61 1347.18 L3634.04 1347.18 L3634.04 1345.70 L3640.35 1345.70 L3640.35 1344.83 L3646.66 1344.83 L3646.66 1344.71 L3652.98 1344.71 L3652.98 1344.46 L3672.03 1344.46 L3672.03 1344.46" stroke-linejoin="round" style="fill:none;stroke:#E37E00;stroke-width:6.48"/>
	<path d=" M2512.87 1822.65 L2519.18 1822.65 L2519.18 1815.59 L2525.49 1815.59 L2525.49 1808.17 L2531.80 1808.17 L2531.80 1802.72 L2538.11 1802.72 L2538.11 1797.65 L2544.55 1797.65 L2544.55 1790.59 L2550.86 1790.59 L2550.86 1784.78 L2557.17 1784.78 L2557.17 1778.59 L2563.48 1778.59 L2563.48 1772.28 L2569.79 1772.28 L2569.79 1765.60 L2576.23 1765.60 L2576.23 1758.17 L2582.54 1758.17 L2582.54 1753.10 L2588.85 1753.10 L2588.85 1744.43 L2595.16 1744.43 L2595.16 1737.26 L2601.47 1737.26 L2601.47 1730.20 L2607.91 1730.20 L2607.91 1726.49 L2614.22 1726.49 L2614.22 1720.18 L2620.53 1720.18 L2620.53 1711.89 L2626.84 1711.89 L2626.84 1704.83 L2633.15 1704.83 L2633.15 1703.60 L2639.46 1703.60 L2639.46 1696.05 L2645.90 1696.05 L2645.90 1686.89 L2652.21 1686.89 L2652.21 1679.34 L2658.52 1679.34 L2658.52 1671.91 L2664.83 1671.91 L2664.83 1665.60 L2671.14 1665.60 L2671.14 1660.65 L2677.58 1660.65 L2677.58 1656.45 L2683.89 1656.45 L2683.89 1651.87 L2690.20 1651.87 L2690.20 1642.34 L2696.51 1642.34 L2696.51 1634.79 L2702.82 1634.79 L2702.82 1627.73 L2709.26 1627.73 L2709.26 1624.02 L2715.57 1624.02 L2715.57 1619.44 L2721.88 1619.44 L2721.88 1614.86 L2728.19 1614.86 L2728.19 1607.32 L2734.50 1607.32 L2734.50 1600.26 L2740.82 1600.26 L2740.82 1594.82 L2747.25 1594.82 L2747.25 1588.13 L2753.56 1588.13 L2753.56 1583.18 L2759.87 1583.18 L2759.87 1576.50 L2766.18 1576.50 L2766.18 1569.45 L2772.49 1569.45 L2772.49 1562.76 L2778.93 1562.76 L2778.93 1556.08 L2785.24 1556.08 L2785.24 1548.53 L2791.55 1548.53 L2791.55 1540.24 L2797.86 1540.24 L2797.86 1534.05 L2804.18 1534.05 L2804.18 1528.61 L2810.49 1528.61 L2810.49 1521.55 L2816.92 1521.55 L2816.92 1514.87 L2823.23 1514.87 L2823.23 1511.53 L2829.54 1511.53 L2829.54 1501.88 L2835.86 1501.88 L2835.86 1493.21 L2842.17 1493.21 L2842.17 1489.87 L2848.60 1489.87 L2848.60 1483.56 L2854.91 1483.56 L2854.91 1474.90 L2861.22 1474.90 L2861.22 1466.98 L2867.53 1466.98 L2867.53 1458.56 L2873.85 1458.56 L2873.85 1452.75 L2880.28 1452.75 L2880.28 1444.83 L2886.59 1444.83 L2886.59 1438.64 L2892.90 1438.64 L2892.90 1434.06 L2899.22 1434.06 L2899.22 1425.27 L2905.53 1425.27 L2905.53 1416.98 L2911.84 1416.98 L2911.84 1409.80 L2918.27 1409.80 L2918.27 1398.67 L2924.58 1398.67 L2924.58 1389.01 L2930.89 1389.01 L2930.89 1383.20 L2937.21 1383.20 L2937.21 1377.38 L2943.52 1377.38 L2943.52 1371.56 L2949.95 1371.56 L2949.95 1366.12 L2956.26 1366.12 L2956.26 1360.67 L2962.57 1360.67 L2962.57 1355.23 L2968.89 1355.23 L2968.89 1350.28 L2975.20 1350.28 L2975.20 1346.57 L2981.51 1346.57 L2981.51 1340.63 L2987.94 1340.63 L2987.94 1334.07 L2994.26 1334.07 L2994.26 1328.62 L3000.57 1328.62 L3000.57 1324.04 L3006.88 1324.04 L3006.88 1316.99 L3013.19 1316.99 L3013.19 1309.07 L3019.62 1309.07 L3019.62 1301.89 L3025.93 1301.89 L3025.93 1298.55 L3032.25 1298.55 L3032.25 1291.50 L3038.56 1291.50 L3038.56 1285.68 L3044.87 1285.68 L3044.87 1277.76 L3051.30 1277.76 L3051.30 1271.45 L3057.61 1271.45 L3057.61 1266.13 L3063.93 1266.13 L3063.93 1261.55 L3070.24 1261.55 L3070.24 1255.61 L3076.55 1255.61 L3076.55 1250.66 L3082.86 1250.66 L3082.86 1246.08 L3089.30 1246.08 L3089.30 1240.26 L3095.61 1240.26 L3095.61 1234.44 L3101.92 1234.44 L3101.92 1228.13 L3108.23 1228.13 L3108.23 1222.69 L3114.54 1222.69 L3114.54 1214.77 L3120.97 1214.77 L3120.97 1210.19 L3127.29 1210.19 L3127.29 1204.87 L3133.60 1204.87 L3133.60 1199.42 L3139.91 1199.42 L3139.91 1193.98 L3146.22 1193.98 L3146.22 1190.26 L3152.53 1190.26 L3152.53 1184.82 L3158.97 1184.82 L3158.97 1176.90 L3165.28 1176.90 L3165.28 1169.85 L3171.59 1169.85 L3171.59 1166.01 L3177.90 1166.01 L3177.90 1159.82 L3184.21 1159.82 L3184.21 1154.75 L3190.65 1154.75 L3190.65 1147.69 L3196.96 1147.69 L3196.96 1138.91 L3203.27 1138.91 L3203.27 1130.62 L3209.58 1130.62 L3209.58 1124.80 L3215.89 1124.80 L3215.89 1119.72 L3222.33 1119.72 L3222.33 1115.15 L3228.64 1115.15 L3228.64 1109.82 L3234.95 1109.82 L3234.95 1103.51 L3241.26 1103.51 L3241.26 1098.93 L3247.57 1098.93 L3247.57 1094.36 L3253.88 1094.36 L3253.88 1089.78 L3260.32 1089.78 L3260.32 1086.06 L3266.63 1086.06 L3266.63 1079.38 L3272.94 1079.38 L3272.94 1071.46 L3279.25 1071.46 L3279.25 1068.12 L3285.56 1068.12 L3285.56 1063.54 L3292.00 1063.54 L3292.00 1060.57 L3298.31 1060.57 L3298.31 1055.13 L3304.62 1055.13 L3304.62 1049.31 L3310.93 1049.31 L3310.93 1045.23 L3317.24 1045.23 L3317.24 1039.28 L3323.55 1039.28 L3323.55 1035.57 L3329.99 1035.57 L3329.99 1031.86 L3336.30 1031.86 L3336.30 1023.44 L3342.61 1023.44 L3342.61 1017.26 L3348.92 1017.26 L3348.92 1011.44 L3355.23 1011.44 L3355.23 1004.76 L3361.67 1004.76 L3361.67 999.68 L3367.98 999.68 L3367.98 994.73 L3374.29 994.73 L3374.29 991.02 L3380.60 991.02 L3380.60 986.44 L3386.91 986.44 L3386.91 981.00 L3393.35 981.00 L3393.35 977.66 L3399.66 977.66 L3399.66 971.34 L3405.97 971.34 L3405.97 966.39 L3412.28 966.39 L3412.28 964.29 L3418.59 964.29 L3418.59 957.24 L3424.91 957.24 L3424.91 948.82 L3431.34 948.82 L3431.34 943.87 L3437.65 943.87 L3437.65 939.29 L3443.96 939.29 L3443.96 935.08 L3450.27 935.08 L3450.27 932.61 L3456.59 932.61 L3456.59 925.06 L3463.02 925.06 L3463.02 920.48 L3469.33 920.48 L3469.33 915.53 L3475.64 915.53 L3475.64 908.48 L3481.95 908.48 L3481.95 902.66 L3488.26 902.66 L3488.26 898.45 L3494.58 898.45 L3494.58 895.98 L3501.01 895.98 L3501.01 890.16 L3507.32 890.16 L3507.32 881.75 L3513.63 881.75 L3513.63 878.03 L3519.95 878.03 L3519.95 872.59 L3526.26 872.59 L3526.26 865.53 L3532.69 865.53 L3532.69 860.96 L3539.00 860.96 L3539.00 857.12 L3545.31 857.12 L3545.31 854.64 L3551.63 854.64 L3551.63 847.22 L3557.94 847.22 L3557.94 843.38 L3564.37 843.38 L3564.37 837.94 L3570.68 837.94 L3570.68 831.75 L3576.99 831.75 L3576.99 825.93 L3583.30 825.93 L3583.30 821.73 L3589.62 821.73 L3589.62 818.38 L3595.93 818.38 L3595.93 813.81 L3602.36 813.81 L3602.36 812.20 L3608.67 812.20 L3608.67 808.86 L3614.99 808.86 L3614.99 806.75 L3621.30 806.75 L3621.30 803.78 L3627.61 803.78 L3627.61 800.07 L3634.04 800.07 L3634.04 797.59 L3640.35 797.59 L3640.35 797.10 L3646.66 797.10 L3646.66 795.86 L3659.29 795.86 L3659.29 795.49 L3672.03 795.49 L3672.03 795.49" stroke-linejoin="round" style="fill:none;stroke:#6E8E84;stroke-width:6.48"/>
	<line x1="2459.04" y1="1873.51" x2="2459.04" y2="414.45" style="stroke:#000000;stroke-width:4.32"/>
	<line x1="2459.04" y1="1825.99" x2="2429.09" y2="1825.99" style="stroke:#000000;stroke-width:4.32"/>
	<text x="2413.99" y="1852.27" style="font-family:'Helvetica';font-size:74.99px;fill:#000000" text-anchor="end">0.000</text>
	<line x1="2459.04" y1="1553.11" x2="2429.09" y2="1553.11" style="stroke:#000000;stroke-width:4.32"/>
	<text x="2413.99" y="1579.39" style="font-family:'Helvetica';font-size:74.99px;fill:#000000" text-anchor="end">0.001</text>
	<line x1="2459.04" y1="1280.36" x2="2429.09" y2="1280.36" style="stroke:#000000;stroke-width:4.32"/>
	<text x="2413.99" y="1306.64" style="font-family:'Helvetica';font-size:74.99px;fill:#000000" text-anchor="end">0.002</text>
	<line x1="2459.04" y1="1007.60" x2="2429.09" y2="1007.60" style="stroke:#000000;stroke-width:4.32"/>
	<text x="2413.99" y="1033.88" style="font-family:'Helvetica';font-size:74.99px;fill:#000000" text-anchor="end">0.003</text>
	<line x1="2459.04" y1="734.73" x2="2429.09" y2="734.73" style="stroke:#000000;stroke-width:4.32"/>
	<text x="2413.99" y="761.01" style="font-family:'Helvetica';font-size:74.99px;fill:#000000" text-anchor="end">0.004</text>
	<line x1="2459.04" y1="461.97" x2="2429.09" y2="461.97" style="stroke:#000000;stroke-width:4.32"/>
	<text x="2413.99" y="488.25" style="font-family:'Helvetica';font-size:74.99px;fill:#000000" text-anchor="end">0.005</text>
	<line x1="2459.04" y1="1873.51" x2="3820.91" y2="1873.51" style="stroke:#000000;stroke-width:4.32"/>
	<line x1="2506.56" y1="1873.51" x2="2506.56" y2="1903.46" style="stroke:#000000;stroke-width:4.32"/>
	<text x="2506.56" y="1970.87" style="font-family:'Helvetica';font-size:74.99px;fill:#000000" text-anchor="middle">1 Feb 20</text>
	<line x1="2690.20" y1="1873.51" x2="2690.20" y2="1903.46" style="stroke:#000000;stroke-width:4.32"/>
	<text x="2690.20" y="1970.87" style="font-family:'Helvetica';font-size:74.99px;fill:#000000" text-anchor="middle">1 Mar 20</text>
	<line x1="2886.59" y1="1873.51" x2="2886.59" y2="1903.46" style="stroke:#000000;stroke-width:4.32"/>
	<text x="2886.59" y="1970.87" style="font-family:'Helvetica';font-size:74.99px;fill:#000000" text-anchor="middle">1 Apr 20</text>
	<line x1="3082.98" y1="1873.51" x2="3082.98" y2="1903.46" style="stroke:#000000;stroke-width:4.32"/>
	<text x="3082.98" y="1970.87" style="font-family:'Helvetica';font-size:74.99px;fill:#000000" text-anchor="middle">1 May 20</text>
	<line x1="3272.94" y1="1873.51" x2="3272.94" y2="1903.46" style="stroke:#000000;stroke-width:4.32"/>
	<text x="3272.94" y="1970.87" style="font-family:'Helvetica';font-size:74.99px;fill:#000000" text-anchor="middle">1 June 20</text>
	<line x1="3463.02" y1="1873.51" x2="3463.02" y2="1903.46" style="stroke:#000000;stroke-width:4.32"/>
	<text x="3463.02" y="1970.87" style="font-family:'Helvetica';font-size:74.99px;fill:#000000" text-anchor="middle">1 July 20</text>
	<line x1="3659.41" y1="1873.51" x2="3659.41" y2="1903.46" style="stroke:#000000;stroke-width:4.32"/>
	<text x="3659.41" y="1970.87" style="font-family:'Helvetica';font-size:74.99px;fill:#000000" text-anchor="middle">1 Aug 20</text>
	<text x="3140.03" y="2053.41" style="font-family:'Helvetica';font-size:74.99px;fill:#000000" text-anchor="middle">Days since 1 Feb 2020</text>
	<text x="3140.03" y="369.91" style="font-family:'Helvetica';font-size:104.94px;fill:#1E2D53" text-anchor="middle">Male</text>
	<text x="150.62" y="1187.29" style="font-family:'Helvetica';font-size:99.99px;fill:#000000" transform="rotate(-90 150.62,1187.29)" text-anchor="middle">Cumulative probability</text>
	<text x="250.61" y="1187.29" style="font-family:'Helvetica';font-size:99.99px;fill:#000000" transform="rotate(-90 250.61,1187.29)" text-anchor="middle">Non covid death</text>
	<text x="2097.19" y="157.51" style="font-family:'Helvetica';font-size:110.01px;fill:#000000" text-anchor="middle"> </text>
	<rect x="1114.86" y="2201.21" width="1964.66" height="580.90" style="fill:#FFFFFF"/>
	<rect x="1117.74" y="2204.09" width="1958.90" height="575.14" style="fill:none;stroke:#000000;stroke-width:5.76"/>
	<line x1="1158.05" y1="2408.87" x2="1532.52" y2="2408.87" style="stroke:#1A476F;stroke-width:8.64"/>
	<line x1="1158.05" y1="2548.83" x2="1532.52" y2="2548.83" style="stroke:#90353B;stroke-width:8.64"/>
	<line x1="1158.05" y1="2688.92" x2="1532.52" y2="2688.92" style="stroke:#55752F;stroke-width:8.64"/>
	<line x1="1996.09" y1="2408.87" x2="2370.43" y2="2408.87" style="stroke:#E37E00;stroke-width:8.64"/>
	<line x1="1996.09" y1="2548.83" x2="2370.43" y2="2548.83" style="stroke:#6E8E84;stroke-width:8.64"/>
	<text x="1592.54" y="2436.88" style="font-family:'Helvetica';font-size:79.94px;fill:#000000">18-&lt;30</text>
	<text x="1592.54" y="2576.85" style="font-family:'Helvetica';font-size:79.94px;fill:#000000">30-&lt;40</text>
	<text x="1592.54" y="2716.94" style="font-family:'Helvetica';font-size:79.94px;fill:#000000">40-&lt;50</text>
	<text x="2430.45" y="2436.88" style="font-family:'Helvetica';font-size:79.94px;fill:#000000">50-&lt;60</text>
	<text x="2430.45" y="2576.85" style="font-family:'Helvetica';font-size:79.94px;fill:#000000">60-&lt;70</text>
	<text x="2430.45" y="2716.94" style="font-family:'Helvetica';font-size:79.94px;fill:#000000">70-&lt;80</text>
	<text x="2894.02" y="2436.88" style="font-family:'Helvetica';font-size:79.94px;fill:#000000">80+</text>
	<text x="2097.19" y="2308.96" style="font-family:'Helvetica';font-size:79.94px;fill:#000000" text-anchor="middle">Age group</text>
</svg>
