<?xml version="1.0" encoding="UTF-8" standalone="no"?>
<!-- This is a Stata 16.1 generated SVG file (http://www.stata.com) -->

<svg version="1.1" width="5.50in" height="4.00in" viewBox="0 0 3960 2880" xmlns="http://www.w3.org/2000/svg" xmlns:xlink="http://www.w3.org/1999/xlink">
	<desc>Stata Graph - Graph</desc>
	<rect x="0" y="0" width="3960" height="2880" style="fill:#EAF2F3;stroke:none"/>
	<rect x="0.00" y="0.00" width="3959.88" height="2880.00" style="fill:#EAF2F3"/>
	<rect x="2.88" y="2.88" width="3954.12" height="2874.24" style="fill:none;stroke:#EAF2F3;stroke-width:5.76"/>
	<rect x="297.87" y="207.91" width="1799.32" height="1958.65" style="fill:#EAF2F3"/>
	<rect x="300.03" y="210.07" width="1795.01" height="1954.33" style="fill:none;stroke:#EAF2F3;stroke-width:4.32"/>
	<rect x="659.71" y="414.45" width="1361.87" height="1459.06" style="fill:#FFFFFF"/>
	<rect x="661.87" y="416.61" width="1357.55" height="1454.74" style="fill:none;stroke:#FFFFFF;stroke-width:4.32"/>
	<line x1="659.71" y1="1825.99" x2="2021.58" y2="1825.99" style="stroke:#EAF2F3;stroke-width:6.48"/>
	<line x1="659.71" y1="1553.11" x2="2021.58" y2="1553.11" style="stroke:#EAF2F3;stroke-width:6.48"/>
	<line x1="659.71" y1="1280.36" x2="2021.58" y2="1280.36" style="stroke:#EAF2F3;stroke-width:6.48"/>
	<line x1="659.71" y1="1007.60" x2="2021.58" y2="1007.60" style="stroke:#EAF2F3;stroke-width:6.48"/>
	<line x1="659.71" y1="734.73" x2="2021.58" y2="734.73" style="stroke:#EAF2F3;stroke-width:6.48"/>
	<line x1="659.71" y1="461.97" x2="2021.58" y2="461.97" style="stroke:#EAF2F3;stroke-width:6.48"/>
	<path d=" M795.84 1825.49 L833.83 1825.49 L833.83 1825.49 L852.88 1825.49 L852.88 1825.49 L897.19 1825.49 L897.19 1825.49 L909.93 1825.49 L909.93 1825.49 L916.25 1825.49 L916.25 1825.49 L935.18 1825.49 L935.18 1825.49 L954.24 1825.49 L954.24 1825.49 L979.61 1825.49 L979.61 1791.09 L1087.27 1791.09 L1087.27 1791.09 L1099.89 1791.09 L1099.89 1791.09 L1112.64 1791.09 L1112.64 1790.84 L1125.26 1790.84 L1125.26 1790.84 L1137.88 1790.84 L1137.88 1790.84 L1163.25 1790.84 L1163.25 1790.84 L1175.87 1790.84 L1175.87 1638.87 L1226.61 1638.87 L1226.61 1638.87 L1232.92 1638.87 L1232.92 1638.87 L1245.54 1638.87 L1245.54 1638.87 L1270.91 1638.87 L1270.91 1638.87 L1289.97 1638.87 L1289.97 1638.87 L1296.28 1638.87 L1296.28 1638.87 L1302.59 1638.87 L1302.59 1638.87 L1327.96 1638.87 L1327.96 1638.87 L1365.95 1638.87 L1365.95 1399.53 L1372.26 1399.53 L1372.26 1399.53 L1441.93 1399.53 L1441.93 1399.53 L1448.25 1399.53 L1448.25 1399.53 L1454.68 1399.53 L1454.68 1399.53 L1467.30 1399.53 L1467.30 1399.53 L1473.62 1399.53 L1473.62 1399.53 L1498.98 1399.53 L1498.98 1399.53 L1505.30 1399.53 L1505.30 1399.53 L1530.66 1399.53 L1530.66 1399.53 L1562.34 1399.53 L1562.34 1230.86 L1644.64 1230.86 L1644.64 1230.86 L1663.69 1230.86 L1663.69 1230.86 L1682.63 1230.86 L1682.63 1230.86 L1708.00 1230.86 L1708.00 1230.86 L1720.62 1230.86 L1720.62 1230.86 L1727.06 1230.86 L1727.06 1230.86 L1733.37 1230.86 L1733.37 1230.86 L1745.99 1230.86 L1745.99 1230.86 L1752.30 1230.86 L1752.30 1099.55 L1872.71 1099.55 L1872.71 1099.55" stroke-linejoin="round" style="fill:none;stroke:#1A476F;stroke-width:6.48"/>
	<path d=" M713.54 1825.99 L719.85 1825.99 L719.85 1825.99 L726.16 1825.99 L726.16 1825.99 L732.48 1825.99 L732.48 1825.99 L745.22 1825.99 L745.22 1825.99 L751.53 1825.99 L751.53 1825.99 L757.85 1825.99 L757.85 1825.99 L764.16 1825.99 L764.16 1825.99 L770.59 1825.99 L770.59 1825.99 L776.90 1825.99 L776.90 1825.99 L783.21 1825.99 L783.21 1825.99 L789.52 1825.99 L789.52 1825.99 L795.84 1825.99 L795.84 1825.86 L802.27 1825.86 L802.27 1825.86 L814.89 1825.86 L814.89 1825.86 L840.26 1825.86 L840.26 1825.86 L846.57 1825.86 L846.57 1825.86 L859.20 1825.86 L859.20 1825.86 L871.94 1825.86 L871.94 1825.86 L890.88 1825.86 L890.88 1825.86 L897.19 1825.86 L897.19 1825.86 L903.50 1825.86 L903.50 1825.86 L916.25 1825.86 L916.25 1825.86 L922.56 1825.86 L922.56 1825.86 L928.87 1825.86 L928.87 1825.86 L935.18 1825.86 L935.18 1825.86 L947.92 1825.86 L947.92 1825.86 L960.55 1825.86 L960.55 1825.86 L966.86 1825.86 L966.86 1825.86 L979.61 1825.86 L979.61 1775.74 L998.54 1775.74 L998.54 1775.74 L1017.60 1775.74 L1017.60 1775.74 L1036.53 1775.74 L1036.53 1775.74 L1042.96 1775.74 L1042.96 1775.74 L1049.28 1775.74 L1049.28 1775.74 L1061.90 1775.74 L1061.90 1775.74 L1068.21 1775.74 L1068.21 1775.74 L1080.96 1775.74 L1080.96 1775.74 L1087.27 1775.74 L1087.27 1775.74 L1093.58 1775.74 L1093.58 1775.74 L1099.89 1775.74 L1099.89 1775.74 L1106.20 1775.74 L1106.20 1775.74 L1112.64 1775.74 L1112.64 1775.74 L1118.95 1775.74 L1118.95 1775.74 L1125.26 1775.74 L1125.26 1775.74 L1131.57 1775.74 L1131.57 1775.74 L1137.88 1775.74 L1137.88 1775.74 L1144.32 1775.74 L1144.32 1775.74 L1150.63 1775.74 L1150.63 1775.74 L1156.94 1775.74 L1156.94 1775.74 L1163.25 1775.74 L1163.25 1775.74 L1169.56 1775.74 L1169.56 1775.74 L1175.87 1775.74 L1175.87 1539.50 L1188.62 1539.50 L1188.62 1539.50 L1194.93 1539.50 L1194.93 1539.50 L1226.61 1539.50 L1226.61 1539.50 L1251.98 1539.50 L1251.98 1539.50 L1258.29 1539.50 L1258.29 1539.50 L1270.91 1539.50 L1270.91 1539.50 L1277.22 1539.50 L1277.22 1539.50 L1289.97 1539.50 L1289.97 1539.50 L1315.34 1539.50 L1315.34 1539.50 L1327.96 1539.50 L1327.96 1539.50 L1334.27 1539.50 L1334.27 1539.50 L1340.58 1539.50 L1340.58 1539.50 L1346.89 1539.50 L1346.89 1539.50 L1359.64 1539.50 L1359.64 1539.50 L1365.95 1539.50 L1365.95 1293.60 L1391.32 1293.60 L1391.32 1293.60 L1410.26 1293.60 L1410.26 1293.60 L1416.57 1293.60 L1416.57 1293.60 L1423.00 1293.60 L1423.00 1293.60 L1429.31 1293.60 L1429.31 1293.60 L1435.62 1293.60 L1435.62 1293.60 L1454.68 1293.60 L1454.68 1293.60 L1473.62 1293.60 L1473.62 1293.60 L1479.93 1293.60 L1479.93 1293.60 L1505.30 1293.60 L1505.30 1293.60 L1511.61 1293.60 L1511.61 1293.60 L1517.92 1293.60 L1517.92 1293.60 L1524.35 1293.60 L1524.35 1293.60 L1530.66 1293.60 L1530.66 1293.60 L1536.97 1293.60 L1536.97 1293.60 L1543.29 1293.60 L1543.29 1293.60 L1556.03 1293.60 L1556.03 1293.60 L1562.34 1293.60 L1562.34 1122.70 L1581.28 1122.70 L1581.28 1122.70 L1612.96 1122.70 L1612.96 1122.70 L1619.27 1122.70 L1619.27 1122.70 L1625.70 1122.70 L1625.70 1122.70 L1657.38 1122.70 L1657.38 1122.70 L1663.69 1122.70 L1663.69 1122.70 L1670.01 1122.70 L1670.01 1122.70 L1682.63 1122.70 L1682.63 1122.70 L1701.69 1122.70 L1701.69 1122.70 L1708.00 1122.70 L1708.00 1122.70 L1714.31 1122.70 L1714.31 1122.70 L1720.62 1122.70 L1720.62 1122.70 L1727.06 1122.70 L1727.06 1122.70 L1739.68 1122.70 L1739.68 1122.70 L1752.30 1122.70 L1752.30 993.50 L1803.04 993.50 L1803.04 993.50 L1815.66 993.50 L1815.66 993.50 L1834.72 993.50 L1834.72 993.50 L1841.03 993.50 L1841.03 993.50 L1872.71 993.50 L1872.71 993.50" stroke-linejoin="round" style="fill:none;stroke:#90353B;stroke-width:6.48"/>
	<path d=" M713.54 1825.99 L719.85 1825.99 L719.85 1825.99 L726.16 1825.99 L726.16 1825.99 L732.48 1825.99 L732.48 1825.99 L738.91 1825.99 L738.91 1825.99 L745.22 1825.99 L745.22 1825.99 L751.53 1825.99 L751.53 1825.99 L757.85 1825.99 L757.85 1825.99 L764.16 1825.99 L764.16 1825.99 L770.59 1825.99 L770.59 1825.99 L776.90 1825.99 L776.90 1825.99 L783.21 1825.99 L783.21 1825.99 L789.52 1825.99 L789.52 1825.99 L795.84 1825.99 L795.84 1824.87 L814.89 1824.87 L814.89 1824.87 L827.52 1824.87 L827.52 1824.87 L840.26 1824.87 L840.26 1824.87 L846.57 1824.87 L846.57 1824.87 L852.88 1824.87 L852.88 1824.87 L859.20 1824.87 L859.20 1824.87 L865.51 1824.87 L865.51 1824.87 L871.94 1824.87 L871.94 1824.87 L878.25 1824.87 L878.25 1824.87 L884.57 1824.87 L884.57 1824.87 L890.88 1824.87 L890.88 1824.87 L897.19 1824.87 L897.19 1824.87 L903.50 1824.87 L903.50 1824.87 L909.93 1824.87 L909.93 1824.87 L916.25 1824.87 L916.25 1824.87 L922.56 1824.87 L922.56 1824.87 L928.87 1824.87 L928.87 1824.87 L935.18 1824.87 L935.18 1824.87 L941.61 1824.87 L941.61 1824.87 L947.92 1824.87 L947.92 1824.87 L954.24 1824.87 L954.24 1824.87 L960.55 1824.87 L960.55 1824.87 L966.86 1824.87 L966.86 1824.87 L973.29 1824.87 L973.29 1824.87 L979.61 1824.87 L979.61 1764.98 L985.92 1764.98 L985.92 1764.98 L992.23 1764.98 L992.23 1764.98 L998.54 1764.98 L998.54 1764.98 L1011.28 1764.98 L1011.28 1764.98 L1017.60 1764.98 L1017.60 1764.98 L1030.22 1764.98 L1030.22 1764.98 L1036.53 1764.98 L1036.53 1764.98 L1042.96 1764.98 L1042.96 1764.98 L1049.28 1764.98 L1049.28 1764.98 L1055.59 1764.98 L1055.59 1764.98 L1068.21 1764.98 L1068.21 1764.98 L1074.52 1764.98 L1074.52 1764.98 L1080.96 1764.98 L1080.96 1764.98 L1087.27 1764.98 L1087.27 1764.98 L1093.58 1764.98 L1093.58 1764.73 L1099.89 1764.73 L1099.89 1764.73 L1106.20 1764.73 L1106.20 1764.73 L1112.64 1764.73 L1112.64 1764.61 L1118.95 1764.61 L1118.95 1764.61 L1125.26 1764.61 L1125.26 1764.61 L1131.57 1764.61 L1131.57 1764.61 L1137.88 1764.61 L1137.88 1764.61 L1144.32 1764.61 L1144.32 1764.61 L1150.63 1764.61 L1150.63 1764.36 L1156.94 1764.36 L1156.94 1764.11 L1163.25 1764.11 L1163.25 1764.11 L1169.56 1764.11 L1169.56 1763.86 L1175.87 1763.86 L1175.87 1429.23 L1188.62 1429.23 L1188.62 1429.23 L1201.24 1429.23 L1201.24 1429.23 L1207.55 1429.23 L1207.55 1429.23 L1220.30 1429.23 L1220.30 1429.23 L1226.61 1429.23 L1226.61 1429.23 L1239.23 1429.23 L1239.23 1429.23 L1245.54 1429.23 L1245.54 1429.23 L1258.29 1429.23 L1258.29 1429.23 L1264.60 1429.23 L1264.60 1429.23 L1270.91 1429.23 L1270.91 1429.23 L1277.22 1429.23 L1277.22 1428.99 L1283.66 1428.99 L1283.66 1428.99 L1289.97 1428.99 L1289.97 1428.99 L1296.28 1428.99 L1296.28 1428.99 L1302.59 1428.99 L1302.59 1428.74 L1308.90 1428.74 L1308.90 1428.74 L1315.34 1428.74 L1315.34 1428.74 L1321.65 1428.74 L1321.65 1428.74 L1327.96 1428.74 L1327.96 1428.74 L1334.27 1428.74 L1334.27 1428.74 L1340.58 1428.74 L1340.58 1428.74 L1346.89 1428.74 L1346.89 1428.49 L1353.33 1428.49 L1353.33 1428.49 L1359.64 1428.49 L1359.64 1428.49 L1365.95 1428.49 L1365.95 1110.20 L1372.26 1110.20 L1372.26 1110.20 L1391.32 1110.20 L1391.32 1110.20 L1416.57 1110.20 L1416.57 1110.20 L1423.00 1110.20 L1423.00 1110.20 L1429.31 1110.20 L1429.31 1110.20 L1435.62 1110.20 L1435.62 1110.20 L1441.93 1110.20 L1441.93 1110.20 L1448.25 1110.20 L1448.25 1110.20 L1454.68 1110.20 L1454.68 1110.20 L1460.99 1110.20 L1460.99 1110.20 L1467.30 1110.20 L1467.30 1110.20 L1473.62 1110.20 L1473.62 1110.20 L1479.93 1110.20 L1479.93 1110.20 L1486.36 1110.20 L1486.36 1110.20 L1492.67 1110.20 L1492.67 1110.20 L1498.98 1110.20 L1498.98 1110.20 L1505.30 1110.20 L1505.30 1110.20 L1511.61 1110.20 L1511.61 1110.20 L1517.92 1110.20 L1517.92 1110.20 L1524.35 1110.20 L1524.35 1110.20 L1536.97 1110.20 L1536.97 1110.20 L1543.29 1110.20 L1543.29 1110.20 L1549.60 1110.20 L1549.60 1110.20 L1556.03 1110.20 L1556.03 1110.20 L1562.34 1110.20 L1562.34 932.86 L1568.65 932.86 L1568.65 932.86 L1594.02 932.86 L1594.02 932.86 L1600.34 932.86 L1600.34 932.86 L1606.65 932.86 L1606.65 932.86 L1612.96 932.86 L1612.96 932.86 L1619.27 932.86 L1619.27 932.86 L1625.70 932.86 L1625.70 932.86 L1632.02 932.86 L1632.02 932.86 L1638.33 932.86 L1638.33 932.86 L1644.64 932.86 L1644.64 932.86 L1650.95 932.86 L1650.95 932.86 L1657.38 932.86 L1657.38 932.86 L1663.69 932.86 L1663.69 932.86 L1670.01 932.86 L1670.01 932.86 L1676.32 932.86 L1676.32 932.86 L1682.63 932.86 L1682.63 932.86 L1688.94 932.86 L1688.94 932.86 L1695.38 932.86 L1695.38 932.86 L1708.00 932.86 L1708.00 932.86 L1714.31 932.86 L1714.31 932.86 L1720.62 932.86 L1720.62 932.86 L1727.06 932.86 L1727.06 932.86 L1733.37 932.86 L1733.37 932.86 L1739.68 932.86 L1739.68 932.86 L1745.99 932.86 L1745.99 932.86 L1752.30 932.86 L1752.30 814.05 L1803.04 814.05 L1803.04 814.05 L1809.35 814.05 L1809.35 814.05 L1828.41 814.05 L1828.41 814.05 L1834.72 814.05 L1834.72 814.05 L1841.03 814.05 L1841.03 814.05 L1847.34 814.05 L1847.34 814.05 L1872.71 814.05 L1872.71 814.05" stroke-linejoin="round" style="fill:none;stroke:#55752F;stroke-width:6.48"/>
	<path d=" M713.54 1825.99 L719.85 1825.99 L719.85 1825.99 L726.16 1825.99 L726.16 1825.99 L732.48 1825.99 L732.48 1825.99 L738.91 1825.99 L738.91 1825.99 L745.22 1825.99 L745.22 1825.99 L751.53 1825.99 L751.53 1825.99 L757.85 1825.99 L757.85 1825.99 L764.16 1825.99 L764.16 1825.99 L770.59 1825.99 L770.59 1825.99 L776.90 1825.99 L776.90 1825.99 L783.21 1825.99 L783.21 1825.99 L789.52 1825.99 L789.52 1825.99 L795.84 1825.99 L795.84 1824.63 L802.27 1824.63 L802.27 1824.63 L821.21 1824.63 L821.21 1824.63 L827.52 1824.63 L827.52 1824.63 L833.83 1824.63 L833.83 1824.63 L840.26 1824.63 L840.26 1824.63 L846.57 1824.63 L846.57 1824.63 L852.88 1824.63 L852.88 1824.63 L859.20 1824.63 L859.20 1824.63 L865.51 1824.63 L865.51 1824.63 L871.94 1824.63 L871.94 1824.63 L878.25 1824.63 L878.25 1824.63 L884.57 1824.63 L884.57 1824.63 L890.88 1824.63 L890.88 1824.63 L897.19 1824.63 L897.19 1824.63 L903.50 1824.63 L903.50 1824.63 L909.93 1824.63 L909.93 1824.63 L916.25 1824.63 L916.25 1824.63 L922.56 1824.63 L922.56 1824.63 L928.87 1824.63 L928.87 1824.63 L935.18 1824.63 L935.18 1824.63 L941.61 1824.63 L941.61 1824.63 L947.92 1824.63 L947.92 1824.63 L954.24 1824.63 L954.24 1824.63 L960.55 1824.63 L960.55 1824.63 L966.86 1824.63 L966.86 1824.63 L973.29 1824.63 L973.29 1824.63 L979.61 1824.63 L979.61 1751.86 L985.92 1751.86 L985.92 1751.86 L998.54 1751.86 L998.54 1751.86 L1004.85 1751.86 L1004.85 1751.86 L1011.28 1751.86 L1011.28 1751.86 L1017.60 1751.86 L1017.60 1751.86 L1023.91 1751.86 L1023.91 1751.86 L1030.22 1751.86 L1030.22 1751.86 L1036.53 1751.86 L1036.53 1751.86 L1042.96 1751.86 L1042.96 1751.86 L1049.28 1751.86 L1049.28 1751.86 L1055.59 1751.86 L1055.59 1751.86 L1061.90 1751.86 L1061.90 1751.86 L1068.21 1751.86 L1068.21 1751.61 L1074.52 1751.61 L1074.52 1751.61 L1080.96 1751.61 L1080.96 1751.61 L1087.27 1751.61 L1087.27 1751.36 L1093.58 1751.36 L1093.58 1751.24 L1099.89 1751.24 L1099.89 1750.75 L1106.20 1750.75 L1106.20 1750.62 L1112.64 1750.62 L1112.64 1750.13 L1118.95 1750.13 L1118.95 1750.00 L1125.26 1750.00 L1125.26 1749.26 L1131.57 1749.26 L1131.57 1749.14 L1137.88 1749.14 L1137.88 1749.14 L1144.32 1749.14 L1144.32 1748.89 L1150.63 1748.89 L1150.63 1748.64 L1156.94 1748.64 L1156.94 1748.52 L1163.25 1748.52 L1163.25 1748.27 L1169.56 1748.27 L1169.56 1748.27 L1175.87 1748.27 L1175.87 1353.00 L1188.62 1353.00 L1188.62 1353.00 L1201.24 1353.00 L1201.24 1353.00 L1207.55 1353.00 L1207.55 1353.00 L1213.99 1353.00 L1213.99 1353.00 L1226.61 1353.00 L1226.61 1353.00 L1232.92 1353.00 L1232.92 1353.00 L1239.23 1353.00 L1239.23 1353.00 L1245.54 1353.00 L1245.54 1353.00 L1251.98 1353.00 L1251.98 1353.00 L1258.29 1353.00 L1258.29 1353.00 L1264.60 1353.00 L1264.60 1353.00 L1270.91 1353.00 L1270.91 1352.88 L1277.22 1352.88 L1277.22 1352.88 L1283.66 1352.88 L1283.66 1352.88 L1289.97 1352.88 L1289.97 1352.88 L1296.28 1352.88 L1296.28 1352.88 L1302.59 1352.88 L1302.59 1352.63 L1308.90 1352.63 L1308.90 1352.63 L1315.34 1352.63 L1315.34 1352.63 L1321.65 1352.63 L1321.65 1352.38 L1327.96 1352.38 L1327.96 1352.38 L1334.27 1352.38 L1334.27 1352.38 L1340.58 1352.38 L1340.58 1352.38 L1346.89 1352.38 L1346.89 1352.38 L1353.33 1352.38 L1353.33 1352.13 L1359.64 1352.13 L1359.64 1352.13 L1365.95 1352.13 L1365.95 1017.50 L1378.58 1017.50 L1378.58 1017.50 L1385.01 1017.50 L1385.01 1017.50 L1391.32 1017.50 L1391.32 1017.50 L1397.63 1017.50 L1397.63 1017.50 L1403.94 1017.50 L1403.94 1017.50 L1410.26 1017.50 L1410.26 1017.50 L1416.57 1017.50 L1416.57 1017.50 L1423.00 1017.50 L1423.00 1017.50 L1429.31 1017.50 L1429.31 1017.50 L1435.62 1017.50 L1435.62 1017.50 L1441.93 1017.50 L1441.93 1017.50 L1448.25 1017.50 L1448.25 1017.50 L1454.68 1017.50 L1454.68 1017.50 L1460.99 1017.50 L1460.99 1017.50 L1467.30 1017.50 L1467.30 1017.50 L1473.62 1017.50 L1473.62 1017.50 L1479.93 1017.50 L1479.93 1017.50 L1486.36 1017.50 L1486.36 1017.50 L1492.67 1017.50 L1492.67 1017.50 L1498.98 1017.50 L1498.98 1017.50 L1505.30 1017.50 L1505.30 1017.50 L1511.61 1017.50 L1511.61 1017.50 L1517.92 1017.50 L1517.92 1017.50 L1524.35 1017.50 L1524.35 1017.50 L1530.66 1017.50 L1530.66 1017.50 L1536.97 1017.50 L1536.97 1017.50 L1543.29 1017.50 L1543.29 1017.50 L1549.60 1017.50 L1549.60 1017.50 L1556.03 1017.50 L1556.03 1017.26 L1562.34 1017.26 L1562.34 859.22 L1568.65 859.22 L1568.65 859.22 L1574.97 859.22 L1574.97 859.22 L1581.28 859.22 L1581.28 859.22 L1594.02 859.22 L1594.02 859.22 L1600.34 859.22 L1600.34 859.22 L1606.65 859.22 L1606.65 859.22 L1612.96 859.22 L1612.96 859.22 L1619.27 859.22 L1619.27 859.22 L1625.70 859.22 L1625.70 859.22 L1632.02 859.22 L1632.02 859.22 L1638.33 859.22 L1638.33 859.22 L1644.64 859.22 L1644.64 859.22 L1650.95 859.22 L1650.95 859.22 L1657.38 859.22 L1657.38 859.22 L1663.69 859.22 L1663.69 859.22 L1670.01 859.22 L1670.01 859.22 L1676.32 859.22 L1676.32 859.22 L1682.63 859.22 L1682.63 859.22 L1688.94 859.22 L1688.94 859.22 L1695.38 859.22 L1695.38 859.22 L1701.69 859.22 L1701.69 859.22 L1708.00 859.22 L1708.00 859.22 L1714.31 859.22 L1714.31 859.22 L1720.62 859.22 L1720.62 859.22 L1727.06 859.22 L1727.06 859.22 L1733.37 859.22 L1733.37 859.22 L1739.68 859.22 L1739.68 859.22 L1745.99 859.22 L1745.99 859.22 L1752.30 859.22 L1752.30 759.35 L1771.36 759.35 L1771.36 759.35 L1796.73 759.35 L1796.73 759.35 L1803.04 759.35 L1803.04 759.35 L1815.66 759.35 L1815.66 759.35 L1821.97 759.35 L1821.97 759.35 L1828.41 759.35 L1828.41 759.35 L1834.72 759.35 L1834.72 759.35 L1841.03 759.35 L1841.03 759.35 L1872.71 759.35 L1872.71 759.35" stroke-linejoin="round" style="fill:none;stroke:#E37E00;stroke-width:6.48"/>
	<path d=" M713.54 1825.99 L719.85 1825.99 L719.85 1825.99 L726.16 1825.99 L726.16 1825.99 L732.48 1825.99 L732.48 1825.99 L738.91 1825.99 L738.91 1825.99 L745.22 1825.99 L745.22 1825.99 L751.53 1825.99 L751.53 1825.99 L757.85 1825.99 L757.85 1825.99 L764.16 1825.99 L764.16 1825.99 L770.59 1825.99 L770.59 1825.99 L776.90 1825.99 L776.90 1825.99 L783.21 1825.99 L783.21 1825.99 L789.52 1825.99 L789.52 1825.99 L795.84 1825.99 L795.84 1825.62 L802.27 1825.62 L802.27 1825.62 L808.58 1825.62 L808.58 1825.62 L814.89 1825.62 L814.89 1825.62 L821.21 1825.62 L821.21 1825.62 L827.52 1825.62 L827.52 1825.62 L840.26 1825.62 L840.26 1825.62 L846.57 1825.62 L846.57 1825.62 L852.88 1825.62 L852.88 1825.62 L859.20 1825.62 L859.20 1825.62 L865.51 1825.62 L865.51 1825.62 L871.94 1825.62 L871.94 1825.62 L878.25 1825.62 L878.25 1825.62 L884.57 1825.62 L884.57 1825.62 L890.88 1825.62 L890.88 1825.62 L897.19 1825.62 L897.19 1825.62 L903.50 1825.62 L903.50 1825.62 L909.93 1825.62 L909.93 1825.62 L916.25 1825.62 L916.25 1825.62 L922.56 1825.62 L922.56 1825.62 L928.87 1825.62 L928.87 1825.62 L935.18 1825.62 L935.18 1825.62 L941.61 1825.62 L941.61 1825.62 L947.92 1825.62 L947.92 1825.62 L954.24 1825.62 L954.24 1825.62 L960.55 1825.62 L960.55 1825.62 L966.86 1825.62 L966.86 1825.62 L973.29 1825.62 L973.29 1825.62 L979.61 1825.62 L979.61 1762.50 L985.92 1762.50 L985.92 1762.50 L992.23 1762.50 L992.23 1762.50 L998.54 1762.50 L998.54 1762.50 L1004.85 1762.50 L1004.85 1762.50 L1011.28 1762.50 L1011.28 1762.50 L1017.60 1762.50 L1017.60 1762.50 L1023.91 1762.50 L1023.91 1762.50 L1030.22 1762.50 L1030.22 1762.50 L1036.53 1762.50 L1036.53 1762.50 L1042.96 1762.50 L1042.96 1762.50 L1049.28 1762.50 L1049.28 1762.50 L1055.59 1762.50 L1055.59 1762.01 L1061.90 1762.01 L1061.90 1762.01 L1068.21 1762.01 L1068.21 1762.01 L1074.52 1762.01 L1074.52 1762.01 L1080.96 1762.01 L1080.96 1762.01 L1087.27 1762.01 L1087.27 1762.01 L1093.58 1762.01 L1093.58 1761.64 L1099.89 1761.64 L1099.89 1761.27 L1106.20 1761.27 L1106.20 1760.77 L1112.64 1760.77 L1112.64 1759.66 L1118.95 1759.66 L1118.95 1758.79 L1125.26 1758.79 L1125.26 1758.42 L1131.57 1758.42 L1131.57 1758.42 L1137.88 1758.42 L1137.88 1757.18 L1144.32 1757.18 L1144.32 1755.94 L1150.63 1755.94 L1150.63 1755.94 L1156.94 1755.94 L1156.94 1755.08 L1163.25 1755.08 L1163.25 1755.08 L1169.56 1755.08 L1169.56 1753.47 L1175.87 1753.47 L1175.87 1419.09 L1188.62 1419.09 L1188.62 1419.09 L1201.24 1419.09 L1201.24 1419.09 L1207.55 1419.09 L1207.55 1419.09 L1213.99 1419.09 L1213.99 1419.09 L1226.61 1419.09 L1226.61 1419.09 L1232.92 1419.09 L1232.92 1419.09 L1239.23 1419.09 L1239.23 1419.09 L1245.54 1419.09 L1245.54 1419.09 L1251.98 1419.09 L1251.98 1419.09 L1258.29 1419.09 L1258.29 1418.71 L1264.60 1418.71 L1264.60 1418.71 L1270.91 1418.71 L1270.91 1418.71 L1277.22 1418.71 L1277.22 1418.71 L1283.66 1418.71 L1283.66 1418.71 L1289.97 1418.71 L1289.97 1418.71 L1296.28 1418.71 L1296.28 1418.71 L1302.59 1418.71 L1302.59 1418.34 L1308.90 1418.34 L1308.90 1418.34 L1315.34 1418.34 L1315.34 1417.85 L1321.65 1417.85 L1321.65 1417.85 L1327.96 1417.85 L1327.96 1417.85 L1334.27 1417.85 L1334.27 1417.11 L1340.58 1417.11 L1340.58 1417.11 L1346.89 1417.11 L1346.89 1417.11 L1353.33 1417.11 L1353.33 1417.11 L1359.64 1417.11 L1359.64 1417.11 L1365.95 1417.11 L1365.95 1170.34 L1378.58 1170.34 L1378.58 1170.34 L1403.94 1170.34 L1403.94 1170.34 L1410.26 1170.34 L1410.26 1170.34 L1416.57 1170.34 L1416.57 1169.97 L1423.00 1169.97 L1423.00 1169.97 L1429.31 1169.97 L1429.31 1169.97 L1435.62 1169.97 L1435.62 1169.97 L1441.93 1169.97 L1441.93 1169.97 L1448.25 1169.97 L1448.25 1169.97 L1454.68 1169.97 L1454.68 1169.97 L1460.99 1169.97 L1460.99 1169.97 L1467.30 1169.97 L1467.30 1169.97 L1473.62 1169.97 L1473.62 1169.97 L1479.93 1169.97 L1479.93 1169.97 L1486.36 1169.97 L1486.36 1169.97 L1492.67 1169.97 L1492.67 1169.97 L1498.98 1169.97 L1498.98 1169.97 L1505.30 1169.97 L1505.30 1169.97 L1511.61 1169.97 L1511.61 1169.47 L1517.92 1169.47 L1517.92 1169.47 L1524.35 1169.47 L1524.35 1169.47 L1530.66 1169.47 L1530.66 1169.10 L1536.97 1169.10 L1536.97 1169.10 L1543.29 1169.10 L1543.29 1169.10 L1549.60 1169.10 L1549.60 1168.73 L1556.03 1168.73 L1556.03 1168.73 L1562.34 1168.73 L1562.34 1046.83 L1574.97 1046.83 L1574.97 1046.83 L1581.28 1046.83 L1581.28 1046.83 L1594.02 1046.83 L1594.02 1046.83 L1600.34 1046.83 L1600.34 1046.83 L1606.65 1046.83 L1606.65 1046.83 L1612.96 1046.83 L1612.96 1046.83 L1619.27 1046.83 L1619.27 1046.83 L1625.70 1046.83 L1625.70 1046.83 L1632.02 1046.83 L1632.02 1046.83 L1638.33 1046.83 L1638.33 1046.83 L1644.64 1046.83 L1644.64 1046.83 L1650.95 1046.83 L1650.95 1046.83 L1657.38 1046.83 L1657.38 1046.83 L1663.69 1046.83 L1663.69 1046.83 L1670.01 1046.83 L1670.01 1046.83 L1676.32 1046.83 L1676.32 1046.83 L1682.63 1046.83 L1682.63 1046.83 L1688.94 1046.83 L1688.94 1046.83 L1695.38 1046.83 L1695.38 1046.83 L1701.69 1046.83 L1701.69 1046.83 L1708.00 1046.83 L1708.00 1046.83 L1714.31 1046.83 L1714.31 1046.83 L1720.62 1046.83 L1720.62 1046.83 L1727.06 1046.83 L1727.06 1046.83 L1733.37 1046.83 L1733.37 1046.83 L1739.68 1046.83 L1739.68 1046.83 L1745.99 1046.83 L1745.99 1046.83 L1752.30 1046.83 L1752.30 971.84 L1783.98 971.84 L1783.98 971.84 L1796.73 971.84 L1796.73 971.84 L1803.04 971.84 L1803.04 971.84 L1809.35 971.84 L1809.35 971.84 L1821.97 971.84 L1821.97 971.84 L1834.72 971.84 L1834.72 971.84 L1841.03 971.84 L1841.03 971.84 L1853.65 971.84 L1853.65 971.84 L1872.71 971.84 L1872.71 971.84" stroke-linejoin="round" style="fill:none;stroke:#6E8E84;stroke-width:6.48"/>
	<line x1="659.71" y1="1873.51" x2="659.71" y2="414.45" style="stroke:#000000;stroke-width:4.32"/>
	<line x1="659.71" y1="1825.99" x2="629.76" y2="1825.99" style="stroke:#000000;stroke-width:4.32"/>
	<text x="614.79" y="1852.27" style="font-family:'Helvetica';font-size:74.99px;fill:#000000" text-anchor="end">0.000</text>
	<line x1="659.71" y1="1553.11" x2="629.76" y2="1553.11" style="stroke:#000000;stroke-width:4.32"/>
	<text x="614.79" y="1579.39" style="font-family:'Helvetica';font-size:74.99px;fill:#000000" text-anchor="end">0.001</text>
	<line x1="659.71" y1="1280.36" x2="629.76" y2="1280.36" style="stroke:#000000;stroke-width:4.32"/>
	<text x="614.79" y="1306.64" style="font-family:'Helvetica';font-size:74.99px;fill:#000000" text-anchor="end">0.002</text>
	<line x1="659.71" y1="1007.60" x2="629.76" y2="1007.60" style="stroke:#000000;stroke-width:4.32"/>
	<text x="614.79" y="1033.88" style="font-family:'Helvetica';font-size:74.99px;fill:#000000" text-anchor="end">0.003</text>
	<line x1="659.71" y1="734.73" x2="629.76" y2="734.73" style="stroke:#000000;stroke-width:4.32"/>
	<text x="614.79" y="761.01" style="font-family:'Helvetica';font-size:74.99px;fill:#000000" text-anchor="end">0.004</text>
	<line x1="659.71" y1="461.97" x2="629.76" y2="461.97" style="stroke:#000000;stroke-width:4.32"/>
	<text x="614.79" y="488.25" style="font-family:'Helvetica';font-size:74.99px;fill:#000000" text-anchor="end">0.005</text>
	<line x1="659.71" y1="1873.51" x2="2021.58" y2="1873.51" style="stroke:#000000;stroke-width:4.32"/>
	<line x1="707.23" y1="1873.51" x2="707.23" y2="1903.46" style="stroke:#000000;stroke-width:4.32"/>
	<text x="707.23" y="1970.87" style="font-family:'Helvetica';font-size:74.99px;fill:#000000" text-anchor="middle">1 Feb 20</text>
	<line x1="891.00" y1="1873.51" x2="891.00" y2="1903.46" style="stroke:#000000;stroke-width:4.32"/>
	<text x="891.00" y="1970.87" style="font-family:'Helvetica';font-size:74.99px;fill:#000000" text-anchor="middle">1 Mar 20</text>
	<line x1="1087.27" y1="1873.51" x2="1087.27" y2="1903.46" style="stroke:#000000;stroke-width:4.32"/>
	<text x="1087.27" y="1970.87" style="font-family:'Helvetica';font-size:74.99px;fill:#000000" text-anchor="middle">1 Apr 20</text>
	<line x1="1283.66" y1="1873.51" x2="1283.66" y2="1903.46" style="stroke:#000000;stroke-width:4.32"/>
	<text x="1283.66" y="1970.87" style="font-family:'Helvetica';font-size:74.99px;fill:#000000" text-anchor="middle">1 May 20</text>
	<line x1="1473.74" y1="1873.51" x2="1473.74" y2="1903.46" style="stroke:#000000;stroke-width:4.32"/>
	<text x="1473.74" y="1970.87" style="font-family:'Helvetica';font-size:74.99px;fill:#000000" text-anchor="middle">1 June 20</text>
	<line x1="1663.69" y1="1873.51" x2="1663.69" y2="1903.46" style="stroke:#000000;stroke-width:4.32"/>
	<text x="1663.69" y="1970.87" style="font-family:'Helvetica';font-size:74.99px;fill:#000000" text-anchor="middle">1 July 20</text>
	<line x1="1860.09" y1="1873.51" x2="1860.09" y2="1903.46" style="stroke:#000000;stroke-width:4.32"/>
	<text x="1860.09" y="1970.87" style="font-family:'Helvetica';font-size:74.99px;fill:#000000" text-anchor="middle">1 Aug 20</text>
	<text x="1340.71" y="2053.41" style="font-family:'Helvetica';font-size:74.99px;fill:#000000" text-anchor="middle"> </text>
	<text x="1340.71" y="369.91" style="font-family:'Helvetica';font-size:104.94px;fill:#1E2D53" text-anchor="middle">Female</text>
	<rect x="2097.19" y="207.91" width="1799.33" height="1958.65" style="fill:#EAF2F3"/>
	<rect x="2099.35" y="210.07" width="1795.01" height="1954.33" style="fill:none;stroke:#EAF2F3;stroke-width:4.32"/>
	<rect x="2459.04" y="414.45" width="1361.87" height="1459.06" style="fill:#FFFFFF"/>
	<rect x="2461.20" y="416.61" width="1357.55" height="1454.74" style="fill:none;stroke:#FFFFFF;stroke-width:4.32"/>
	<line x1="2459.04" y1="1825.99" x2="3820.91" y2="1825.99" style="stroke:#EAF2F3;stroke-width:6.48"/>
	<line x1="2459.04" y1="1553.11" x2="3820.91" y2="1553.11" style="stroke:#EAF2F3;stroke-width:6.48"/>
	<line x1="2459.04" y1="1280.36" x2="3820.91" y2="1280.36" style="stroke:#EAF2F3;stroke-width:6.48"/>
	<line x1="2459.04" y1="1007.60" x2="3820.91" y2="1007.60" style="stroke:#EAF2F3;stroke-width:6.48"/>
	<line x1="2459.04" y1="734.73" x2="3820.91" y2="734.73" style="stroke:#EAF2F3;stroke-width:6.48"/>
	<line x1="2459.04" y1="461.97" x2="3820.91" y2="461.97" style="stroke:#EAF2F3;stroke-width:6.48"/>
	<path d=" M2512.87 1825.99 L2525.49 1825.99 L2525.49 1825.99 L2544.55 1825.99 L2544.55 1825.99 L2569.79 1825.99 L2569.79 1825.99 L2588.85 1825.99 L2588.85 1825.99 L2595.16 1825.99 L2595.16 1824.63 L2601.47 1824.63 L2601.47 1824.63 L2626.84 1824.63 L2626.84 1824.63 L2639.46 1824.63 L2639.46 1824.63 L2645.90 1824.63 L2645.90 1824.63 L2658.52 1824.63 L2658.52 1824.63 L2671.14 1824.63 L2671.14 1824.63 L2677.58 1824.63 L2677.58 1824.63 L2683.89 1824.63 L2683.89 1824.63 L2690.20 1824.63 L2690.20 1824.63 L2696.51 1824.63 L2696.51 1824.63 L2721.88 1824.63 L2721.88 1824.63 L2728.19 1824.63 L2728.19 1824.63 L2740.82 1824.63 L2740.82 1824.63 L2747.25 1824.63 L2747.25 1824.63 L2753.56 1824.63 L2753.56 1824.63 L2759.87 1824.63 L2759.87 1824.63 L2766.18 1824.63 L2766.18 1824.63 L2772.49 1824.63 L2772.49 1824.63 L2778.93 1824.63 L2778.93 1801.11 L2791.55 1801.11 L2791.55 1801.11 L2804.18 1801.11 L2804.18 1801.11 L2829.54 1801.11 L2829.54 1801.11 L2835.86 1801.11 L2835.86 1801.11 L2848.60 1801.11 L2848.60 1801.11 L2861.22 1801.11 L2861.22 1801.11 L2867.53 1801.11 L2867.53 1801.11 L2886.59 1801.11 L2886.59 1801.11 L2899.22 1801.11 L2899.22 1801.11 L2905.53 1801.11 L2905.53 1801.11 L2918.27 1801.11 L2918.27 1801.11 L2924.58 1801.11 L2924.58 1801.11 L2930.89 1801.11 L2930.89 1800.99 L2937.21 1800.99 L2937.21 1800.74 L2943.52 1800.74 L2943.52 1800.74 L2949.95 1800.74 L2949.95 1800.62 L2956.26 1800.62 L2956.26 1800.62 L2962.57 1800.62 L2962.57 1800.62 L2968.89 1800.62 L2968.89 1800.62 L2975.20 1800.62 L2975.20 1734.66 L3006.88 1734.66 L3006.88 1734.66 L3051.30 1734.66 L3051.30 1734.66 L3082.86 1734.66 L3082.86 1734.66 L3101.92 1734.66 L3101.92 1734.66 L3114.54 1734.66 L3114.54 1734.66 L3120.97 1734.66 L3120.97 1734.66 L3133.60 1734.66 L3133.60 1734.66 L3139.91 1734.66 L3139.91 1734.66 L3152.53 1734.66 L3152.53 1734.66 L3165.28 1734.66 L3165.28 1619.69 L3209.58 1619.69 L3209.58 1619.69 L3222.33 1619.69 L3222.33 1619.69 L3234.95 1619.69 L3234.95 1619.69 L3247.57 1619.69 L3247.57 1619.69 L3253.88 1619.69 L3253.88 1619.69 L3266.63 1619.69 L3266.63 1619.69 L3285.56 1619.69 L3285.56 1619.69 L3304.62 1619.69 L3304.62 1619.69 L3317.24 1619.69 L3317.24 1619.69 L3329.99 1619.69 L3329.99 1619.69 L3336.30 1619.69 L3336.30 1619.69 L3348.92 1619.69 L3348.92 1619.69 L3355.23 1619.69 L3355.23 1619.69 L3361.67 1619.69 L3361.67 1509.55 L3418.59 1509.55 L3418.59 1509.55 L3431.34 1509.55 L3431.34 1509.55 L3488.26 1509.55 L3488.26 1509.43 L3494.58 1509.43 L3494.58 1509.43 L3501.01 1509.43 L3501.01 1509.43 L3513.63 1509.43 L3513.63 1509.43 L3551.63 1509.43 L3551.63 1410.42 L3672.03 1410.42 L3672.03 1410.42" stroke-linejoin="round" style="fill:none;stroke:#1A476F;stroke-width:6.48"/>
	<path d=" M2525.49 1825.99 L2531.80 1825.99 L2531.80 1825.99 L2538.11 1825.99 L2538.11 1825.99 L2550.86 1825.99 L2550.86 1825.99 L2557.17 1825.99 L2557.17 1825.99 L2576.23 1825.99 L2576.23 1825.99 L2595.16 1825.99 L2595.16 1825.25 L2607.91 1825.25 L2607.91 1825.25 L2614.22 1825.25 L2614.22 1825.25 L2620.53 1825.25 L2620.53 1825.25 L2633.15 1825.25 L2633.15 1825.25 L2645.90 1825.25 L2645.90 1825.25 L2664.83 1825.25 L2664.83 1825.25 L2671.14 1825.25 L2671.14 1825.25 L2677.58 1825.25 L2677.58 1825.25 L2683.89 1825.25 L2683.89 1825.25 L2690.20 1825.25 L2690.20 1825.25 L2702.82 1825.25 L2702.82 1825.25 L2709.26 1825.25 L2709.26 1825.25 L2715.57 1825.25 L2715.57 1825.25 L2728.19 1825.25 L2728.19 1825.25 L2734.50 1825.25 L2734.50 1825.25 L2747.25 1825.25 L2747.25 1825.25 L2753.56 1825.25 L2753.56 1825.25 L2759.87 1825.25 L2759.87 1825.25 L2766.18 1825.25 L2766.18 1825.00 L2772.49 1825.00 L2772.49 1825.00 L2778.93 1825.00 L2778.93 1783.42 L2797.86 1783.42 L2797.86 1783.42 L2804.18 1783.42 L2804.18 1783.42 L2810.49 1783.42 L2810.49 1783.42 L2823.23 1783.42 L2823.23 1783.42 L2848.60 1783.42 L2848.60 1783.42 L2854.91 1783.42 L2854.91 1783.42 L2861.22 1783.42 L2861.22 1783.42 L2873.85 1783.42 L2873.85 1783.42 L2880.28 1783.42 L2880.28 1783.42 L2886.59 1783.42 L2886.59 1783.42 L2892.90 1783.42 L2892.90 1783.42 L2899.22 1783.42 L2899.22 1783.42 L2911.84 1783.42 L2911.84 1783.17 L2924.58 1783.17 L2924.58 1783.05 L2930.89 1783.05 L2930.89 1783.05 L2937.21 1783.05 L2937.21 1783.05 L2943.52 1783.05 L2943.52 1783.05 L2956.26 1783.05 L2956.26 1782.80 L2962.57 1782.80 L2962.57 1782.80 L2968.89 1782.80 L2968.89 1782.80 L2975.20 1782.80 L2975.20 1655.08 L2981.51 1655.08 L2981.51 1655.08 L2987.94 1655.08 L2987.94 1655.08 L3006.88 1655.08 L3006.88 1655.08 L3013.19 1655.08 L3013.19 1655.08 L3019.62 1655.08 L3019.62 1655.08 L3025.93 1655.08 L3025.93 1655.08 L3032.25 1655.08 L3032.25 1655.08 L3044.87 1655.08 L3044.87 1655.08 L3057.61 1655.08 L3057.61 1655.08 L3076.55 1655.08 L3076.55 1655.08 L3082.86 1655.08 L3082.86 1655.08 L3095.61 1655.08 L3095.61 1655.08 L3101.92 1655.08 L3101.92 1655.08 L3108.23 1655.08 L3108.23 1654.96 L3114.54 1654.96 L3114.54 1654.96 L3120.97 1654.96 L3120.97 1654.96 L3127.29 1654.96 L3127.29 1654.96 L3152.53 1654.96 L3152.53 1654.96 L3158.97 1654.96 L3158.97 1654.96 L3165.28 1654.96 L3165.28 1502.25 L3171.59 1502.25 L3171.59 1502.25 L3190.65 1502.25 L3190.65 1502.25 L3203.27 1502.25 L3203.27 1502.25 L3222.33 1502.25 L3222.33 1502.25 L3234.95 1502.25 L3234.95 1502.25 L3241.26 1502.25 L3241.26 1502.25 L3253.88 1502.25 L3253.88 1502.25 L3260.32 1502.25 L3260.32 1502.25 L3266.63 1502.25 L3266.63 1502.25 L3279.25 1502.25 L3279.25 1502.25 L3285.56 1502.25 L3285.56 1502.25 L3298.31 1502.25 L3298.31 1502.25 L3310.93 1502.25 L3310.93 1502.25 L3317.24 1502.25 L3317.24 1502.25 L3323.55 1502.25 L3323.55 1502.25 L3329.99 1502.25 L3329.99 1502.25 L3348.92 1502.25 L3348.92 1502.25 L3361.67 1502.25 L3361.67 1365.25 L3431.34 1365.25 L3431.34 1365.25 L3437.65 1365.25 L3437.65 1365.25 L3456.59 1365.25 L3456.59 1365.25 L3463.02 1365.25 L3463.02 1365.25 L3469.33 1365.25 L3469.33 1365.25 L3494.58 1365.25 L3494.58 1365.25 L3513.63 1365.25 L3513.63 1365.25 L3519.95 1365.25 L3519.95 1365.25 L3526.26 1365.25 L3526.26 1365.25 L3532.69 1365.25 L3532.69 1365.25 L3539.00 1365.25 L3539.00 1365.25 L3545.31 1365.25 L3545.31 1365.25 L3551.63 1365.25 L3551.63 1259.44 L3621.30 1259.44 L3621.30 1259.44 L3640.35 1259.44 L3640.35 1259.44 L3672.03 1259.44 L3672.03 1259.44" stroke-linejoin="round" style="fill:none;stroke:#90353B;stroke-width:6.48"/>
	<path d=" M2512.87 1825.99 L2519.18 1825.99 L2519.18 1825.99 L2525.49 1825.99 L2525.49 1825.99 L2531.80 1825.99 L2531.80 1825.99 L2538.11 1825.99 L2538.11 1825.99 L2544.55 1825.99 L2544.55 1825.99 L2550.86 1825.99 L2550.86 1825.99 L2557.17 1825.99 L2557.17 1825.99 L2563.48 1825.99 L2563.48 1825.99 L2569.79 1825.99 L2569.79 1825.99 L2576.23 1825.99 L2576.23 1825.99 L2582.54 1825.99 L2582.54 1825.99 L2588.85 1825.99 L2588.85 1825.99 L2595.16 1825.99 L2595.16 1825.62 L2601.47 1825.62 L2601.47 1825.62 L2614.22 1825.62 L2614.22 1825.62 L2626.84 1825.62 L2626.84 1825.62 L2639.46 1825.62 L2639.46 1825.62 L2645.90 1825.62 L2645.90 1825.62 L2652.21 1825.62 L2652.21 1825.62 L2658.52 1825.62 L2658.52 1825.62 L2664.83 1825.62 L2664.83 1825.62 L2671.14 1825.62 L2671.14 1825.62 L2677.58 1825.62 L2677.58 1825.62 L2683.89 1825.62 L2683.89 1825.62 L2690.20 1825.62 L2690.20 1825.62 L2696.51 1825.62 L2696.51 1825.62 L2702.82 1825.62 L2702.82 1825.62 L2709.26 1825.62 L2709.26 1825.62 L2715.57 1825.62 L2715.57 1825.62 L2721.88 1825.62 L2721.88 1825.62 L2728.19 1825.62 L2728.19 1825.62 L2734.50 1825.62 L2734.50 1825.62 L2740.82 1825.62 L2740.82 1825.62 L2747.25 1825.62 L2747.25 1825.62 L2753.56 1825.62 L2753.56 1825.62 L2759.87 1825.62 L2759.87 1825.62 L2766.18 1825.62 L2766.18 1825.62 L2772.49 1825.62 L2772.49 1825.62 L2778.93 1825.62 L2778.93 1776.24 L2785.24 1776.24 L2785.24 1776.24 L2791.55 1776.24 L2791.55 1776.24 L2797.86 1776.24 L2797.86 1776.24 L2804.18 1776.24 L2804.18 1776.24 L2810.49 1776.24 L2810.49 1776.24 L2816.92 1776.24 L2816.92 1776.24 L2823.23 1776.24 L2823.23 1776.24 L2829.54 1776.24 L2829.54 1776.24 L2835.86 1776.24 L2835.86 1776.24 L2842.17 1776.24 L2842.17 1776.24 L2848.60 1776.24 L2848.60 1776.24 L2854.91 1776.24 L2854.91 1776.24 L2861.22 1776.24 L2861.22 1776.24 L2867.53 1776.24 L2867.53 1776.24 L2873.85 1776.24 L2873.85 1775.99 L2880.28 1775.99 L2880.28 1775.99 L2886.59 1775.99 L2886.59 1775.99 L2892.90 1775.99 L2892.90 1775.99 L2899.22 1775.99 L2899.22 1775.74 L2905.53 1775.74 L2905.53 1775.74 L2911.84 1775.74 L2911.84 1775.74 L2918.27 1775.74 L2918.27 1775.50 L2924.58 1775.50 L2924.58 1775.37 L2930.89 1775.37 L2930.89 1775.13 L2937.21 1775.13 L2937.21 1775.13 L2943.52 1775.13 L2943.52 1774.88 L2949.95 1774.88 L2949.95 1774.63 L2956.26 1774.63 L2956.26 1774.51 L2962.57 1774.51 L2962.57 1774.01 L2968.89 1774.01 L2968.89 1774.01 L2975.20 1774.01 L2975.20 1566.97 L2987.94 1566.97 L2987.94 1566.97 L2994.26 1566.97 L2994.26 1566.97 L3013.19 1566.97 L3013.19 1566.97 L3019.62 1566.97 L3019.62 1566.97 L3025.93 1566.97 L3025.93 1566.97 L3032.25 1566.97 L3032.25 1566.97 L3038.56 1566.97 L3038.56 1566.97 L3044.87 1566.97 L3044.87 1566.97 L3051.30 1566.97 L3051.30 1566.97 L3057.61 1566.97 L3057.61 1566.97 L3063.93 1566.97 L3063.93 1566.97 L3070.24 1566.97 L3070.24 1566.97 L3076.55 1566.97 L3076.55 1566.97 L3082.86 1566.97 L3082.86 1566.97 L3089.30 1566.97 L3089.30 1566.97 L3095.61 1566.97 L3095.61 1566.97 L3101.92 1566.97 L3101.92 1566.97 L3108.23 1566.97 L3108.23 1566.97 L3114.54 1566.97 L3114.54 1566.72 L3120.97 1566.72 L3120.97 1566.72 L3127.29 1566.72 L3127.29 1566.72 L3133.60 1566.72 L3133.60 1566.72 L3139.91 1566.72 L3139.91 1566.72 L3146.22 1566.72 L3146.22 1566.72 L3152.53 1566.72 L3152.53 1566.72 L3158.97 1566.72 L3158.97 1566.72 L3165.28 1566.72 L3165.28 1384.06 L3171.59 1384.06 L3171.59 1384.06 L3184.21 1384.06 L3184.21 1384.06 L3190.65 1384.06 L3190.65 1384.06 L3196.96 1384.06 L3196.96 1384.06 L3203.27 1384.06 L3203.27 1384.06 L3209.58 1384.06 L3209.58 1384.06 L3215.89 1384.06 L3215.89 1384.06 L3228.64 1384.06 L3228.64 1384.06 L3234.95 1384.06 L3234.95 1384.06 L3241.26 1384.06 L3241.26 1384.06 L3247.57 1384.06 L3247.57 1384.06 L3253.88 1384.06 L3253.88 1384.06 L3260.32 1384.06 L3260.32 1384.06 L3266.63 1384.06 L3266.63 1384.06 L3272.94 1384.06 L3272.94 1384.06 L3279.25 1384.06 L3279.25 1384.06 L3285.56 1384.06 L3285.56 1384.06 L3292.00 1384.06 L3292.00 1384.06 L3298.31 1384.06 L3298.31 1384.06 L3304.62 1384.06 L3304.62 1384.06 L3310.93 1384.06 L3310.93 1384.06 L3317.24 1384.06 L3317.24 1384.06 L3323.55 1384.06 L3323.55 1384.06 L3329.99 1384.06 L3329.99 1384.06 L3336.30 1384.06 L3336.30 1384.06 L3342.61 1384.06 L3342.61 1384.06 L3348.92 1384.06 L3348.92 1384.06 L3355.23 1384.06 L3355.23 1384.06 L3361.67 1384.06 L3361.67 1249.17 L3367.98 1249.17 L3367.98 1249.17 L3374.29 1249.17 L3374.29 1249.17 L3380.60 1249.17 L3380.60 1249.17 L3393.35 1249.17 L3393.35 1249.17 L3399.66 1249.17 L3399.66 1249.17 L3405.97 1249.17 L3405.97 1249.17 L3412.28 1249.17 L3412.28 1249.17 L3418.59 1249.17 L3418.59 1249.17 L3424.91 1249.17 L3424.91 1249.17 L3431.34 1249.17 L3431.34 1249.17 L3437.65 1249.17 L3437.65 1249.17 L3443.96 1249.17 L3443.96 1249.17 L3450.27 1249.17 L3450.27 1249.17 L3456.59 1249.17 L3456.59 1249.17 L3463.02 1249.17 L3463.02 1249.17 L3469.33 1249.17 L3469.33 1249.17 L3475.64 1249.17 L3475.64 1249.17 L3481.95 1249.17 L3481.95 1249.17 L3488.26 1249.17 L3488.26 1249.17 L3494.58 1249.17 L3494.58 1249.17 L3501.01 1249.17 L3501.01 1249.17 L3507.32 1249.17 L3507.32 1249.17 L3513.63 1249.17 L3513.63 1249.17 L3519.95 1249.17 L3519.95 1249.17 L3526.26 1249.17 L3526.26 1249.17 L3532.69 1249.17 L3532.69 1249.17 L3539.00 1249.17 L3539.00 1249.17 L3545.31 1249.17 L3545.31 1248.92 L3551.63 1248.92 L3551.63 1147.32 L3589.62 1147.32 L3589.62 1147.32 L3608.67 1147.32 L3608.67 1147.32 L3621.30 1147.32 L3621.30 1147.32 L3627.61 1147.32 L3627.61 1147.32 L3634.04 1147.32 L3634.04 1147.32 L3640.35 1147.32 L3640.35 1147.32 L3672.03 1147.32 L3672.03 1147.32" stroke-linejoin="round" style="fill:none;stroke:#55752F;stroke-width:6.48"/>
	<path d=" M2512.87 1825.99 L2519.18 1825.99 L2519.18 1825.99 L2525.49 1825.99 L2525.49 1825.99 L2531.80 1825.99 L2531.80 1825.99 L2538.11 1825.99 L2538.11 1825.99 L2544.55 1825.99 L2544.55 1825.99 L2550.86 1825.99 L2550.86 1825.99 L2557.17 1825.99 L2557.17 1825.99 L2563.48 1825.99 L2563.48 1825.99 L2569.79 1825.99 L2569.79 1825.99 L2576.23 1825.99 L2576.23 1825.99 L2582.54 1825.99 L2582.54 1825.99 L2588.85 1825.99 L2588.85 1825.99 L2595.16 1825.99 L2595.16 1824.01 L2601.47 1824.01 L2601.47 1824.01 L2607.91 1824.01 L2607.91 1824.01 L2614.22 1824.01 L2614.22 1824.01 L2620.53 1824.01 L2620.53 1824.01 L2626.84 1824.01 L2626.84 1824.01 L2633.15 1824.01 L2633.15 1824.01 L2639.46 1824.01 L2639.46 1824.01 L2645.90 1824.01 L2645.90 1824.01 L2652.21 1824.01 L2652.21 1824.01 L2658.52 1824.01 L2658.52 1824.01 L2664.83 1824.01 L2664.83 1824.01 L2671.14 1824.01 L2671.14 1824.01 L2677.58 1824.01 L2677.58 1824.01 L2683.89 1824.01 L2683.89 1824.01 L2690.20 1824.01 L2690.20 1824.01 L2696.51 1824.01 L2696.51 1824.01 L2702.82 1824.01 L2702.82 1824.01 L2709.26 1824.01 L2709.26 1824.01 L2715.57 1824.01 L2715.57 1824.01 L2721.88 1824.01 L2721.88 1824.01 L2728.19 1824.01 L2728.19 1824.01 L2734.50 1824.01 L2734.50 1824.01 L2740.82 1824.01 L2740.82 1824.01 L2747.25 1824.01 L2747.25 1824.01 L2753.56 1824.01 L2753.56 1824.01 L2759.87 1824.01 L2759.87 1824.01 L2766.18 1824.01 L2766.18 1824.01 L2772.49 1824.01 L2772.49 1824.01 L2778.93 1824.01 L2778.93 1747.65 L2785.24 1747.65 L2785.24 1747.65 L2791.55 1747.65 L2791.55 1747.65 L2797.86 1747.65 L2797.86 1747.65 L2804.18 1747.65 L2804.18 1747.65 L2810.49 1747.65 L2810.49 1747.65 L2816.92 1747.65 L2816.92 1747.65 L2823.23 1747.65 L2823.23 1747.65 L2829.54 1747.65 L2829.54 1747.65 L2835.86 1747.65 L2835.86 1747.65 L2842.17 1747.65 L2842.17 1747.65 L2848.60 1747.65 L2848.60 1747.65 L2854.91 1747.65 L2854.91 1747.53 L2861.22 1747.53 L2861.22 1747.53 L2867.53 1747.53 L2867.53 1747.53 L2873.85 1747.53 L2873.85 1747.53 L2880.28 1747.53 L2880.28 1747.53 L2886.59 1747.53 L2886.59 1747.28 L2892.90 1747.28 L2892.90 1746.66 L2899.22 1746.66 L2899.22 1746.04 L2905.53 1746.04 L2905.53 1745.67 L2911.84 1745.67 L2911.84 1744.93 L2918.27 1744.93 L2918.27 1744.56 L2924.58 1744.56 L2924.58 1744.31 L2930.89 1744.31 L2930.89 1743.32 L2937.21 1743.32 L2937.21 1742.33 L2943.52 1742.33 L2943.52 1741.84 L2949.95 1741.84 L2949.95 1740.85 L2956.26 1740.85 L2956.26 1739.86 L2962.57 1739.86 L2962.57 1738.99 L2968.89 1738.99 L2968.89 1738.00 L2975.20 1738.00 L2975.20 1418.59 L2981.51 1418.59 L2981.51 1418.59 L2987.94 1418.59 L2987.94 1418.59 L2994.26 1418.59 L2994.26 1418.59 L3006.88 1418.59 L3006.88 1418.59 L3013.19 1418.59 L3013.19 1418.59 L3019.62 1418.59 L3019.62 1418.59 L3025.93 1418.59 L3025.93 1418.59 L3032.25 1418.59 L3032.25 1418.59 L3038.56 1418.59 L3038.56 1418.59 L3044.87 1418.59 L3044.87 1418.59 L3051.30 1418.59 L3051.30 1418.59 L3057.61 1418.59 L3057.61 1418.47 L3063.93 1418.47 L3063.93 1418.47 L3070.24 1418.47 L3070.24 1418.22 L3076.55 1418.22 L3076.55 1418.22 L3082.86 1418.22 L3082.86 1418.22 L3089.30 1418.22 L3089.30 1418.22 L3095.61 1418.22 L3095.61 1418.22 L3101.92 1418.22 L3101.92 1418.22 L3108.23 1418.22 L3108.23 1418.22 L3114.54 1418.22 L3114.54 1418.22 L3120.97 1418.22 L3120.97 1417.97 L3127.29 1417.97 L3127.29 1417.97 L3133.60 1417.97 L3133.60 1417.85 L3139.91 1417.85 L3139.91 1417.60 L3146.22 1417.60 L3146.22 1417.35 L3152.53 1417.35 L3152.53 1417.23 L3158.97 1417.23 L3158.97 1416.73 L3165.28 1416.73 L3165.28 1190.26 L3184.21 1190.26 L3184.21 1190.26 L3190.65 1190.26 L3190.65 1190.26 L3196.96 1190.26 L3196.96 1190.26 L3203.27 1190.26 L3203.27 1190.26 L3209.58 1190.26 L3209.58 1190.26 L3222.33 1190.26 L3222.33 1190.26 L3228.64 1190.26 L3228.64 1190.26 L3234.95 1190.26 L3234.95 1190.26 L3241.26 1190.26 L3241.26 1190.26 L3247.57 1190.26 L3247.57 1190.26 L3253.88 1190.26 L3253.88 1190.14 L3260.32 1190.14 L3260.32 1189.89 L3266.63 1189.89 L3266.63 1189.89 L3272.94 1189.89 L3272.94 1189.89 L3279.25 1189.89 L3279.25 1189.89 L3285.56 1189.89 L3285.56 1189.89 L3292.00 1189.89 L3292.00 1189.89 L3298.31 1189.89 L3298.31 1189.89 L3304.62 1189.89 L3304.62 1189.89 L3310.93 1189.89 L3310.93 1189.89 L3317.24 1189.89 L3317.24 1189.89 L3323.55 1189.89 L3323.55 1189.65 L3329.99 1189.65 L3329.99 1189.65 L3336.30 1189.65 L3336.30 1189.65 L3342.61 1189.65 L3342.61 1189.65 L3348.92 1189.65 L3348.92 1189.65 L3355.23 1189.65 L3355.23 1189.65 L3361.67 1189.65 L3361.67 1066.26 L3367.98 1066.26 L3367.98 1066.26 L3374.29 1066.26 L3374.29 1066.26 L3386.91 1066.26 L3386.91 1066.26 L3393.35 1066.26 L3393.35 1066.26 L3399.66 1066.26 L3399.66 1066.26 L3405.97 1066.26 L3405.97 1066.26 L3412.28 1066.26 L3412.28 1066.26 L3418.59 1066.26 L3418.59 1066.26 L3424.91 1066.26 L3424.91 1066.26 L3431.34 1066.26 L3431.34 1066.26 L3437.65 1066.26 L3437.65 1066.26 L3443.96 1066.26 L3443.96 1066.26 L3450.27 1066.26 L3450.27 1066.14 L3456.59 1066.14 L3456.59 1066.14 L3463.02 1066.14 L3463.02 1066.14 L3469.33 1066.14 L3469.33 1066.14 L3475.64 1066.14 L3475.64 1066.14 L3481.95 1066.14 L3481.95 1066.14 L3488.26 1066.14 L3488.26 1066.14 L3494.58 1066.14 L3494.58 1066.14 L3501.01 1066.14 L3501.01 1066.14 L3507.32 1066.14 L3507.32 1066.14 L3513.63 1066.14 L3513.63 1066.14 L3519.95 1066.14 L3519.95 1066.14 L3526.26 1066.14 L3526.26 1066.14 L3532.69 1066.14 L3532.69 1066.14 L3539.00 1066.14 L3539.00 1066.14 L3545.31 1066.14 L3545.31 1066.14 L3551.63 1066.14 L3551.63 981.99 L3564.37 981.99 L3564.37 981.99 L3570.68 981.99 L3570.68 981.99 L3583.30 981.99 L3583.30 981.99 L3589.62 981.99 L3589.62 981.99 L3602.36 981.99 L3602.36 981.99 L3608.67 981.99 L3608.67 981.99 L3614.99 981.99 L3614.99 981.99 L3621.30 981.99 L3621.30 981.99 L3627.61 981.99 L3627.61 981.99 L3634.04 981.99 L3634.04 981.99 L3640.35 981.99 L3640.35 981.99 L3646.66 981.99 L3646.66 981.99 L3652.98 981.99 L3652.98 981.99 L3672.03 981.99 L3672.03 981.99" stroke-linejoin="round" style="fill:none;stroke:#E37E00;stroke-width:6.48"/>
	<path d=" M2512.87 1825.99 L2519.18 1825.99 L2519.18 1825.99 L2525.49 1825.99 L2525.49 1825.99 L2531.80 1825.99 L2531.80 1825.99 L2538.11 1825.99 L2538.11 1825.99 L2544.55 1825.99 L2544.55 1825.99 L2550.86 1825.99 L2550.86 1825.99 L2557.17 1825.99 L2557.17 1825.99 L2563.48 1825.99 L2563.48 1825.99 L2569.79 1825.99 L2569.79 1825.99 L2576.23 1825.99 L2576.23 1825.99 L2582.54 1825.99 L2582.54 1825.99 L2588.85 1825.99 L2588.85 1825.99 L2595.16 1825.99 L2595.16 1825.62 L2601.47 1825.62 L2601.47 1825.62 L2607.91 1825.62 L2607.91 1825.62 L2614.22 1825.62 L2614.22 1825.62 L2620.53 1825.62 L2620.53 1825.62 L2626.84 1825.62 L2626.84 1825.62 L2633.15 1825.62 L2633.15 1825.62 L2639.46 1825.62 L2639.46 1825.62 L2645.90 1825.62 L2645.90 1825.62 L2652.21 1825.62 L2652.21 1825.62 L2658.52 1825.62 L2658.52 1825.62 L2664.83 1825.62 L2664.83 1825.62 L2671.14 1825.62 L2671.14 1825.62 L2677.58 1825.62 L2677.58 1825.62 L2683.89 1825.62 L2683.89 1825.62 L2690.20 1825.62 L2690.20 1825.62 L2696.51 1825.62 L2696.51 1825.62 L2702.82 1825.62 L2702.82 1825.62 L2709.26 1825.62 L2709.26 1825.62 L2715.57 1825.62 L2715.57 1825.62 L2721.88 1825.62 L2721.88 1825.62 L2728.19 1825.62 L2728.19 1825.62 L2734.50 1825.62 L2734.50 1825.62 L2740.82 1825.62 L2740.82 1825.62 L2747.25 1825.62 L2747.25 1825.62 L2753.56 1825.62 L2753.56 1825.62 L2759.87 1825.62 L2759.87 1825.62 L2766.18 1825.62 L2766.18 1825.62 L2772.49 1825.62 L2772.49 1825.62 L2778.93 1825.62 L2778.93 1735.90 L2785.24 1735.90 L2785.24 1735.90 L2791.55 1735.90 L2791.55 1735.90 L2797.86 1735.90 L2797.86 1735.90 L2804.18 1735.90 L2804.18 1735.90 L2810.49 1735.90 L2810.49 1735.90 L2816.92 1735.90 L2816.92 1735.90 L2823.23 1735.90 L2823.23 1735.90 L2829.54 1735.90 L2829.54 1735.90 L2835.86 1735.90 L2835.86 1735.90 L2842.17 1735.90 L2842.17 1735.90 L2848.60 1735.90 L2848.60 1735.40 L2854.91 1735.40 L2854.91 1735.40 L2861.22 1735.40 L2861.22 1735.40 L2867.53 1735.40 L2867.53 1735.40 L2873.85 1735.40 L2873.85 1735.40 L2880.28 1735.40 L2880.28 1735.03 L2886.59 1735.03 L2886.59 1734.16 L2892.90 1734.16 L2892.90 1733.42 L2899.22 1733.42 L2899.22 1731.69 L2905.53 1731.69 L2905.53 1730.45 L2911.84 1730.45 L2911.84 1729.21 L2918.27 1729.21 L2918.27 1728.35 L2924.58 1728.35 L2924.58 1727.11 L2930.89 1727.11 L2930.89 1724.63 L2937.21 1724.63 L2937.21 1721.66 L2943.52 1721.66 L2943.52 1720.80 L2949.95 1720.80 L2949.95 1719.93 L2956.26 1719.93 L2956.26 1717.46 L2962.57 1717.46 L2962.57 1715.85 L2968.89 1715.85 L2968.89 1713.74 L2975.20 1713.74 L2975.20 1353.50 L2981.51 1353.50 L2981.51 1353.50 L2987.94 1353.50 L2987.94 1353.50 L2994.26 1353.50 L2994.26 1353.50 L3000.57 1353.50 L3000.57 1353.50 L3006.88 1353.50 L3006.88 1353.50 L3013.19 1353.50 L3013.19 1353.50 L3019.62 1353.50 L3019.62 1353.50 L3025.93 1353.50 L3025.93 1353.50 L3032.25 1353.50 L3032.25 1353.50 L3038.56 1353.50 L3038.56 1353.50 L3044.87 1353.50 L3044.87 1353.50 L3051.30 1353.50 L3051.30 1353.50 L3057.61 1353.50 L3057.61 1353.50 L3063.93 1353.50 L3063.93 1353.12 L3070.24 1353.12 L3070.24 1352.63 L3076.55 1352.63 L3076.55 1351.39 L3082.86 1351.39 L3082.86 1351.02 L3089.30 1351.02 L3089.30 1351.02 L3095.61 1351.02 L3095.61 1350.15 L3101.92 1350.15 L3101.92 1350.15 L3108.23 1350.15 L3108.23 1349.29 L3114.54 1349.29 L3114.54 1348.92 L3120.97 1348.92 L3120.97 1348.05 L3127.29 1348.05 L3127.29 1347.68 L3133.60 1347.68 L3133.60 1347.68 L3139.91 1347.68 L3139.91 1347.68 L3146.22 1347.68 L3146.22 1346.44 L3152.53 1346.44 L3152.53 1346.44 L3158.97 1346.44 L3158.97 1346.44 L3165.28 1346.44 L3165.28 1104.26 L3177.90 1104.26 L3177.90 1104.26 L3184.21 1104.26 L3184.21 1104.26 L3190.65 1104.26 L3190.65 1104.26 L3196.96 1104.26 L3196.96 1104.26 L3203.27 1104.26 L3203.27 1104.26 L3209.58 1104.26 L3209.58 1104.26 L3215.89 1104.26 L3215.89 1104.26 L3222.33 1104.26 L3222.33 1104.26 L3228.64 1104.26 L3228.64 1104.26 L3234.95 1104.26 L3234.95 1104.26 L3241.26 1104.26 L3241.26 1104.26 L3247.57 1104.26 L3247.57 1104.26 L3253.88 1104.26 L3253.88 1104.26 L3260.32 1104.26 L3260.32 1104.26 L3266.63 1104.26 L3266.63 1104.26 L3272.94 1104.26 L3272.94 1104.26 L3279.25 1104.26 L3279.25 1104.26 L3285.56 1104.26 L3285.56 1104.26 L3292.00 1104.26 L3292.00 1104.26 L3298.31 1104.26 L3298.31 1103.76 L3304.62 1103.76 L3304.62 1103.76 L3310.93 1103.76 L3310.93 1103.02 L3317.24 1103.02 L3317.24 1103.02 L3323.55 1103.02 L3323.55 1103.02 L3329.99 1103.02 L3329.99 1103.02 L3336.30 1103.02 L3336.30 1103.02 L3342.61 1103.02 L3342.61 1103.02 L3348.92 1103.02 L3348.92 1103.02 L3355.23 1103.02 L3355.23 1103.02 L3361.67 1103.02 L3361.67 991.39 L3367.98 991.39 L3367.98 991.39 L3380.60 991.39 L3380.60 991.39 L3386.91 991.39 L3386.91 991.39 L3393.35 991.39 L3393.35 991.39 L3399.66 991.39 L3399.66 991.39 L3405.97 991.39 L3405.97 991.39 L3412.28 991.39 L3412.28 991.39 L3418.59 991.39 L3418.59 991.39 L3424.91 991.39 L3424.91 991.39 L3431.34 991.39 L3431.34 991.39 L3437.65 991.39 L3437.65 991.39 L3443.96 991.39 L3443.96 991.39 L3450.27 991.39 L3450.27 991.39 L3456.59 991.39 L3456.59 991.39 L3463.02 991.39 L3463.02 991.39 L3469.33 991.39 L3469.33 991.39 L3475.64 991.39 L3475.64 991.39 L3481.95 991.39 L3481.95 991.39 L3488.26 991.39 L3488.26 991.39 L3494.58 991.39 L3494.58 991.39 L3501.01 991.39 L3501.01 991.39 L3507.32 991.39 L3507.32 991.39 L3513.63 991.39 L3513.63 991.39 L3519.95 991.39 L3519.95 991.39 L3526.26 991.39 L3526.26 991.39 L3532.69 991.39 L3532.69 991.39 L3539.00 991.39 L3539.00 991.39 L3545.31 991.39 L3545.31 991.39 L3551.63 991.39 L3551.63 905.63 L3589.62 905.63 L3589.62 905.63 L3602.36 905.63 L3602.36 905.63 L3608.67 905.63 L3608.67 905.63 L3614.99 905.63 L3614.99 905.63 L3621.30 905.63 L3621.30 905.63 L3627.61 905.63 L3627.61 905.63 L3634.04 905.63 L3634.04 905.63 L3646.66 905.63 L3646.66 905.63 L3659.29 905.63 L3659.29 905.63 L3672.03 905.63 L3672.03 905.63" stroke-linejoin="round" style="fill:none;stroke:#6E8E84;stroke-width:6.48"/>
	<line x1="2459.04" y1="1873.51" x2="2459.04" y2="414.45" style="stroke:#000000;stroke-width:4.32"/>
	<line x1="2459.04" y1="1825.99" x2="2429.09" y2="1825.99" style="stroke:#000000;stroke-width:4.32"/>
	<text x="2413.99" y="1852.27" style="font-family:'Helvetica';font-size:74.99px;fill:#000000" text-anchor="end">0.000</text>
	<line x1="2459.04" y1="1553.11" x2="2429.09" y2="1553.11" style="stroke:#000000;stroke-width:4.32"/>
	<text x="2413.99" y="1579.39" style="font-family:'Helvetica';font-size:74.99px;fill:#000000" text-anchor="end">0.001</text>
	<line x1="2459.04" y1="1280.36" x2="2429.09" y2="1280.36" style="stroke:#000000;stroke-width:4.32"/>
	<text x="2413.99" y="1306.64" style="font-family:'Helvetica';font-size:74.99px;fill:#000000" text-anchor="end">0.002</text>
	<line x1="2459.04" y1="1007.60" x2="2429.09" y2="1007.60" style="stroke:#000000;stroke-width:4.32"/>
	<text x="2413.99" y="1033.88" style="font-family:'Helvetica';font-size:74.99px;fill:#000000" text-anchor="end">0.003</text>
	<line x1="2459.04" y1="734.73" x2="2429.09" y2="734.73" style="stroke:#000000;stroke-width:4.32"/>
	<text x="2413.99" y="761.01" style="font-family:'Helvetica';font-size:74.99px;fill:#000000" text-anchor="end">0.004</text>
	<line x1="2459.04" y1="461.97" x2="2429.09" y2="461.97" style="stroke:#000000;stroke-width:4.32"/>
	<text x="2413.99" y="488.25" style="font-family:'Helvetica';font-size:74.99px;fill:#000000" text-anchor="end">0.005</text>
	<line x1="2459.04" y1="1873.51" x2="3820.91" y2="1873.51" style="stroke:#000000;stroke-width:4.32"/>
	<line x1="2506.56" y1="1873.51" x2="2506.56" y2="1903.46" style="stroke:#000000;stroke-width:4.32"/>
	<text x="2506.56" y="1970.87" style="font-family:'Helvetica';font-size:74.99px;fill:#000000" text-anchor="middle">1 Feb 20</text>
	<line x1="2690.20" y1="1873.51" x2="2690.20" y2="1903.46" style="stroke:#000000;stroke-width:4.32"/>
	<text x="2690.20" y="1970.87" style="font-family:'Helvetica';font-size:74.99px;fill:#000000" text-anchor="middle">1 Mar 20</text>
	<line x1="2886.59" y1="1873.51" x2="2886.59" y2="1903.46" style="stroke:#000000;stroke-width:4.32"/>
	<text x="2886.59" y="1970.87" style="font-family:'Helvetica';font-size:74.99px;fill:#000000" text-anchor="middle">1 Apr 20</text>
	<line x1="3082.98" y1="1873.51" x2="3082.98" y2="1903.46" style="stroke:#000000;stroke-width:4.32"/>
	<text x="3082.98" y="1970.87" style="font-family:'Helvetica';font-size:74.99px;fill:#000000" text-anchor="middle">1 May 20</text>
	<line x1="3272.94" y1="1873.51" x2="3272.94" y2="1903.46" style="stroke:#000000;stroke-width:4.32"/>
	<text x="3272.94" y="1970.87" style="font-family:'Helvetica';font-size:74.99px;fill:#000000" text-anchor="middle">1 June 20</text>
	<line x1="3463.02" y1="1873.51" x2="3463.02" y2="1903.46" style="stroke:#000000;stroke-width:4.32"/>
	<text x="3463.02" y="1970.87" style="font-family:'Helvetica';font-size:74.99px;fill:#000000" text-anchor="middle">1 July 20</text>
	<line x1="3659.41" y1="1873.51" x2="3659.41" y2="1903.46" style="stroke:#000000;stroke-width:4.32"/>
	<text x="3659.41" y="1970.87" style="font-family:'Helvetica';font-size:74.99px;fill:#000000" text-anchor="middle">1 Aug 20</text>
	<text x="3140.03" y="2053.41" style="font-family:'Helvetica';font-size:74.99px;fill:#000000" text-anchor="middle">Days since 1 Feb 2020</text>
	<text x="3140.03" y="369.91" style="font-family:'Helvetica';font-size:104.94px;fill:#1E2D53" text-anchor="middle">Male</text>
	<text x="150.62" y="1187.29" style="font-family:'Helvetica';font-size:99.99px;fill:#000000" transform="rotate(-90 150.62,1187.29)" text-anchor="middle">Cumulative probability</text>
	<text x="250.61" y="1187.29" style="font-family:'Helvetica';font-size:99.99px;fill:#000000" transform="rotate(-90 250.61,1187.29)" text-anchor="middle">TPP Covid-19 case</text>
	<text x="2097.19" y="157.51" style="font-family:'Helvetica';font-size:110.01px;fill:#000000" text-anchor="middle"> </text>
	<rect x="1114.86" y="2201.21" width="1964.66" height="580.90" style="fill:#FFFFFF"/>
	<rect x="1117.74" y="2204.09" width="1958.90" height="575.14" style="fill:none;stroke:#000000;stroke-width:5.76"/>
	<line x1="1158.05" y1="2408.87" x2="1532.52" y2="2408.87" style="stroke:#1A476F;stroke-width:8.64"/>
	<line x1="1158.05" y1="2548.83" x2="1532.52" y2="2548.83" style="stroke:#90353B;stroke-width:8.64"/>
	<line x1="1158.05" y1="2688.92" x2="1532.52" y2="2688.92" style="stroke:#55752F;stroke-width:8.64"/>
	<line x1="1996.09" y1="2408.87" x2="2370.43" y2="2408.87" style="stroke:#E37E00;stroke-width:8.64"/>
	<line x1="1996.09" y1="2548.83" x2="2370.43" y2="2548.83" style="stroke:#6E8E84;stroke-width:8.64"/>
	<text x="1592.54" y="2436.88" style="font-family:'Helvetica';font-size:79.94px;fill:#000000">18-&lt;30</text>
	<text x="1592.54" y="2576.85" style="font-family:'Helvetica';font-size:79.94px;fill:#000000">30-&lt;40</text>
	<text x="1592.54" y="2716.94" style="font-family:'Helvetica';font-size:79.94px;fill:#000000">40-&lt;50</text>
	<text x="2430.45" y="2436.88" style="font-family:'Helvetica';font-size:79.94px;fill:#000000">50-&lt;60</text>
	<text x="2430.45" y="2576.85" style="font-family:'Helvetica';font-size:79.94px;fill:#000000">60-&lt;70</text>
	<text x="2430.45" y="2716.94" style="font-family:'Helvetica';font-size:79.94px;fill:#000000">70-&lt;80</text>
	<text x="2894.02" y="2436.88" style="font-family:'Helvetica';font-size:79.94px;fill:#000000">80+</text>
	<text x="2097.19" y="2308.96" style="font-family:'Helvetica';font-size:79.94px;fill:#000000" text-anchor="middle">Age group</text>
</svg>
