<?xml version="1.0" encoding="UTF-8" standalone="no"?>
<!-- This is a Stata 16.1 generated SVG file (http://www.stata.com) -->

<svg version="1.1" width="5.50in" height="4.00in" viewBox="0 0 3960 2880" xmlns="http://www.w3.org/2000/svg" xmlns:xlink="http://www.w3.org/1999/xlink">
	<desc>Stata Graph - Graph</desc>
	<rect x="0" y="0" width="3960" height="2880" style="fill:#EAF2F3;stroke:none"/>
	<rect x="0.00" y="0.00" width="3959.88" height="2880.00" style="fill:#EAF2F3"/>
	<rect x="2.88" y="2.88" width="3954.12" height="2874.24" style="fill:none;stroke:#EAF2F3;stroke-width:5.76"/>
	<rect x="297.87" y="207.91" width="1799.32" height="1958.65" style="fill:#EAF2F3"/>
	<rect x="300.03" y="210.07" width="1795.01" height="1954.33" style="fill:none;stroke:#EAF2F3;stroke-width:4.32"/>
	<rect x="659.71" y="414.45" width="1361.87" height="1459.06" style="fill:#FFFFFF"/>
	<rect x="661.87" y="416.61" width="1357.55" height="1454.74" style="fill:none;stroke:#FFFFFF;stroke-width:4.32"/>
	<line x1="659.71" y1="1825.99" x2="2021.58" y2="1825.99" style="stroke:#EAF2F3;stroke-width:6.48"/>
	<line x1="659.71" y1="1280.36" x2="2021.58" y2="1280.36" style="stroke:#EAF2F3;stroke-width:6.48"/>
	<line x1="659.71" y1="734.73" x2="2021.58" y2="734.73" style="stroke:#EAF2F3;stroke-width:6.48"/>
	<path d=" M795.84 1825.99 L802.27 1825.99 L802.27 1825.99 L833.83 1825.99 L833.83 1825.99 L852.88 1825.99 L852.88 1825.99 L871.94 1825.99 L871.94 1825.99 L897.19 1825.99 L897.19 1825.99 L909.93 1825.99 L909.93 1825.99 L916.25 1825.99 L916.25 1825.99 L935.18 1825.99 L935.18 1825.99 L954.24 1825.99 L954.24 1825.99 L992.23 1825.99 L992.23 1825.99 L1017.60 1825.99 L1017.60 1825.86 L1042.96 1825.86 L1042.96 1825.62 L1055.59 1825.62 L1055.59 1825.62 L1061.90 1825.62 L1061.90 1825.49 L1087.27 1825.49 L1087.27 1825.25 L1099.89 1825.25 L1099.89 1825.12 L1112.64 1825.12 L1112.64 1824.87 L1125.26 1824.87 L1125.26 1824.87 L1131.57 1824.87 L1131.57 1824.75 L1137.88 1824.75 L1137.88 1824.75 L1150.63 1824.75 L1150.63 1824.50 L1163.25 1824.50 L1163.25 1824.38 L1182.31 1824.38 L1182.31 1824.38 L1188.62 1824.38 L1188.62 1824.13 L1194.93 1824.13 L1194.93 1824.01 L1201.24 1824.01 L1201.24 1823.76 L1207.55 1823.76 L1207.55 1823.51 L1226.61 1823.51 L1226.61 1823.51 L1232.92 1823.51 L1232.92 1823.39 L1245.54 1823.39 L1245.54 1823.14 L1270.91 1823.14 L1270.91 1823.14 L1277.22 1823.14 L1277.22 1823.02 L1289.97 1823.02 L1289.97 1823.02 L1296.28 1823.02 L1296.28 1823.02 L1302.59 1823.02 L1302.59 1823.02 L1327.96 1823.02 L1327.96 1823.02 L1372.26 1823.02 L1372.26 1823.02 L1385.01 1823.02 L1385.01 1823.02 L1416.57 1823.02 L1416.57 1823.02 L1429.31 1823.02 L1429.31 1823.02 L1441.93 1823.02 L1441.93 1823.02 L1448.25 1823.02 L1448.25 1823.02 L1454.68 1823.02 L1454.68 1823.02 L1467.30 1823.02 L1467.30 1823.02 L1473.62 1823.02 L1473.62 1823.02 L1492.67 1823.02 L1492.67 1822.77 L1498.98 1822.77 L1498.98 1822.77 L1505.30 1822.77 L1505.30 1822.77 L1530.66 1822.77 L1530.66 1822.65 L1574.97 1822.65 L1574.97 1822.65 L1581.28 1822.65 L1581.28 1822.40 L1644.64 1822.40 L1644.64 1822.40 L1657.38 1822.40 L1657.38 1822.40 L1663.69 1822.40 L1663.69 1822.40 L1682.63 1822.40 L1682.63 1822.40 L1708.00 1822.40 L1708.00 1822.40 L1720.62 1822.40 L1720.62 1822.40 L1727.06 1822.40 L1727.06 1822.40 L1733.37 1822.40 L1733.37 1822.40 L1745.99 1822.40 L1745.99 1822.40 L1777.67 1822.40 L1777.67 1822.40 L1790.29 1822.40 L1790.29 1822.40 L1803.04 1822.40 L1803.04 1822.40 L1872.71 1822.40 L1872.71 1822.40" stroke-linejoin="round" style="fill:none;stroke:#1A476F;stroke-width:6.48"/>
	<path d=" M713.54 1825.99 L719.85 1825.99 L719.85 1825.99 L726.16 1825.99 L726.16 1825.99 L732.48 1825.99 L732.48 1825.99 L745.22 1825.99 L745.22 1825.99 L751.53 1825.99 L751.53 1825.99 L757.85 1825.99 L757.85 1825.99 L764.16 1825.99 L764.16 1825.99 L770.59 1825.99 L770.59 1825.99 L776.90 1825.99 L776.90 1825.99 L783.21 1825.99 L783.21 1825.99 L789.52 1825.99 L789.52 1825.99 L795.84 1825.99 L795.84 1825.99 L802.27 1825.99 L802.27 1825.99 L814.89 1825.99 L814.89 1825.99 L821.21 1825.99 L821.21 1825.99 L840.26 1825.99 L840.26 1825.99 L846.57 1825.99 L846.57 1825.99 L852.88 1825.99 L852.88 1825.99 L859.20 1825.99 L859.20 1825.99 L871.94 1825.99 L871.94 1825.99 L890.88 1825.99 L890.88 1825.99 L897.19 1825.99 L897.19 1825.99 L903.50 1825.99 L903.50 1825.99 L916.25 1825.99 L916.25 1825.99 L922.56 1825.99 L922.56 1825.99 L928.87 1825.99 L928.87 1825.99 L935.18 1825.99 L935.18 1825.99 L947.92 1825.99 L947.92 1825.99 L960.55 1825.99 L960.55 1825.99 L966.86 1825.99 L966.86 1825.99 L973.29 1825.99 L973.29 1825.99 L979.61 1825.99 L979.61 1825.99 L985.92 1825.99 L985.92 1825.99 L992.23 1825.99 L992.23 1825.86 L998.54 1825.86 L998.54 1825.86 L1004.85 1825.86 L1004.85 1825.86 L1011.28 1825.86 L1011.28 1825.62 L1017.60 1825.62 L1017.60 1825.49 L1023.91 1825.49 L1023.91 1825.49 L1030.22 1825.49 L1030.22 1825.00 L1036.53 1825.00 L1036.53 1824.87 L1042.96 1824.87 L1042.96 1824.63 L1049.28 1824.63 L1049.28 1824.50 L1055.59 1824.50 L1055.59 1824.26 L1061.90 1824.26 L1061.90 1823.51 L1068.21 1823.51 L1068.21 1823.27 L1074.52 1823.27 L1074.52 1822.89 L1080.96 1822.89 L1080.96 1822.89 L1087.27 1822.89 L1087.27 1822.65 L1093.58 1822.65 L1093.58 1822.52 L1099.89 1822.52 L1099.89 1822.28 L1106.20 1822.28 L1106.20 1821.66 L1112.64 1821.66 L1112.64 1820.54 L1118.95 1820.54 L1118.95 1820.30 L1125.26 1820.30 L1125.26 1819.55 L1131.57 1819.55 L1131.57 1819.18 L1137.88 1819.18 L1137.88 1818.81 L1144.32 1818.81 L1144.32 1818.56 L1150.63 1818.56 L1150.63 1818.32 L1156.94 1818.32 L1156.94 1818.19 L1163.25 1818.19 L1163.25 1817.82 L1169.56 1817.82 L1169.56 1817.82 L1175.87 1817.82 L1175.87 1817.57 L1182.31 1817.57 L1182.31 1817.45 L1188.62 1817.45 L1188.62 1817.45 L1194.93 1817.45 L1194.93 1817.20 L1201.24 1817.20 L1201.24 1816.83 L1207.55 1816.83 L1207.55 1816.83 L1213.99 1816.83 L1213.99 1816.46 L1220.30 1816.46 L1220.30 1816.21 L1226.61 1816.21 L1226.61 1816.21 L1239.23 1816.21 L1239.23 1816.21 L1245.54 1816.21 L1245.54 1816.21 L1251.98 1816.21 L1251.98 1816.21 L1258.29 1816.21 L1258.29 1816.21 L1270.91 1816.21 L1270.91 1815.96 L1277.22 1815.96 L1277.22 1815.84 L1289.97 1815.84 L1289.97 1815.84 L1296.28 1815.84 L1296.28 1815.59 L1308.90 1815.59 L1308.90 1815.47 L1315.34 1815.47 L1315.34 1815.47 L1327.96 1815.47 L1327.96 1815.47 L1334.27 1815.47 L1334.27 1815.47 L1340.58 1815.47 L1340.58 1815.47 L1346.89 1815.47 L1346.89 1815.47 L1359.64 1815.47 L1359.64 1815.47 L1372.26 1815.47 L1372.26 1815.10 L1378.58 1815.10 L1378.58 1815.10 L1391.32 1815.10 L1391.32 1814.85 L1397.63 1814.85 L1397.63 1814.85 L1410.26 1814.85 L1410.26 1814.85 L1416.57 1814.85 L1416.57 1814.85 L1423.00 1814.85 L1423.00 1814.85 L1429.31 1814.85 L1429.31 1814.60 L1435.62 1814.60 L1435.62 1814.60 L1441.93 1814.60 L1441.93 1814.60 L1448.25 1814.60 L1448.25 1814.48 L1454.68 1814.48 L1454.68 1814.48 L1473.62 1814.48 L1473.62 1814.11 L1479.93 1814.11 L1479.93 1814.11 L1492.67 1814.11 L1492.67 1813.86 L1505.30 1813.86 L1505.30 1813.86 L1511.61 1813.86 L1511.61 1813.86 L1517.92 1813.86 L1517.92 1813.86 L1524.35 1813.86 L1524.35 1813.86 L1530.66 1813.86 L1530.66 1813.86 L1536.97 1813.86 L1536.97 1813.86 L1543.29 1813.86 L1543.29 1813.86 L1556.03 1813.86 L1556.03 1813.86 L1581.28 1813.86 L1581.28 1813.86 L1587.59 1813.86 L1587.59 1813.86 L1600.34 1813.86 L1600.34 1813.61 L1606.65 1813.61 L1606.65 1813.61 L1612.96 1813.61 L1612.96 1813.61 L1619.27 1813.61 L1619.27 1813.61 L1625.70 1813.61 L1625.70 1813.61 L1632.02 1813.61 L1632.02 1813.61 L1638.33 1813.61 L1638.33 1813.61 L1657.38 1813.61 L1657.38 1813.61 L1663.69 1813.61 L1663.69 1813.61 L1670.01 1813.61 L1670.01 1813.49 L1682.63 1813.49 L1682.63 1813.49 L1701.69 1813.49 L1701.69 1813.49 L1708.00 1813.49 L1708.00 1813.24 L1714.31 1813.24 L1714.31 1813.24 L1720.62 1813.24 L1720.62 1813.24 L1727.06 1813.24 L1727.06 1813.24 L1739.68 1813.24 L1739.68 1813.24 L1752.30 1813.24 L1752.30 1813.24 L1758.73 1813.24 L1758.73 1813.24 L1765.05 1813.24 L1765.05 1813.24 L1783.98 1813.24 L1783.98 1813.24 L1790.29 1813.24 L1790.29 1813.24 L1796.73 1813.24 L1796.73 1813.24 L1803.04 1813.24 L1803.04 1813.24 L1815.66 1813.24 L1815.66 1813.24 L1828.41 1813.24 L1828.41 1813.24 L1834.72 1813.24 L1834.72 1813.24 L1841.03 1813.24 L1841.03 1813.24 L1872.71 1813.24 L1872.71 1813.24" stroke-linejoin="round" style="fill:none;stroke:#90353B;stroke-width:6.48"/>
	<path d=" M713.54 1825.99 L719.85 1825.99 L719.85 1825.99 L726.16 1825.99 L726.16 1825.99 L732.48 1825.99 L732.48 1825.99 L738.91 1825.99 L738.91 1825.99 L745.22 1825.99 L745.22 1825.99 L751.53 1825.99 L751.53 1825.99 L757.85 1825.99 L757.85 1825.99 L764.16 1825.99 L764.16 1825.99 L770.59 1825.99 L770.59 1825.99 L776.90 1825.99 L776.90 1825.99 L783.21 1825.99 L783.21 1825.99 L789.52 1825.99 L789.52 1825.99 L795.84 1825.99 L795.84 1825.99 L802.27 1825.99 L802.27 1825.99 L808.58 1825.99 L808.58 1825.99 L814.89 1825.99 L814.89 1825.99 L821.21 1825.99 L821.21 1825.99 L827.52 1825.99 L827.52 1825.99 L833.83 1825.99 L833.83 1825.99 L840.26 1825.99 L840.26 1825.99 L846.57 1825.99 L846.57 1825.99 L852.88 1825.99 L852.88 1825.99 L859.20 1825.99 L859.20 1825.99 L865.51 1825.99 L865.51 1825.99 L871.94 1825.99 L871.94 1825.99 L878.25 1825.99 L878.25 1825.99 L884.57 1825.99 L884.57 1825.99 L890.88 1825.99 L890.88 1825.99 L897.19 1825.99 L897.19 1825.99 L903.50 1825.99 L903.50 1825.99 L909.93 1825.99 L909.93 1825.99 L916.25 1825.99 L916.25 1825.99 L922.56 1825.99 L922.56 1825.99 L928.87 1825.99 L928.87 1825.99 L935.18 1825.99 L935.18 1825.99 L941.61 1825.99 L941.61 1825.99 L947.92 1825.99 L947.92 1825.99 L954.24 1825.99 L954.24 1825.99 L960.55 1825.99 L960.55 1825.99 L966.86 1825.99 L966.86 1825.99 L973.29 1825.99 L973.29 1825.86 L979.61 1825.86 L979.61 1825.86 L985.92 1825.86 L985.92 1825.62 L992.23 1825.62 L992.23 1825.62 L998.54 1825.62 L998.54 1825.62 L1004.85 1825.62 L1004.85 1825.62 L1011.28 1825.62 L1011.28 1825.37 L1017.60 1825.37 L1017.60 1825.12 L1023.91 1825.12 L1023.91 1824.87 L1030.22 1824.87 L1030.22 1824.75 L1036.53 1824.75 L1036.53 1824.75 L1042.96 1824.75 L1042.96 1824.26 L1049.28 1824.26 L1049.28 1824.01 L1055.59 1824.01 L1055.59 1823.39 L1061.90 1823.39 L1061.90 1822.89 L1068.21 1822.89 L1068.21 1822.28 L1074.52 1822.28 L1074.52 1821.16 L1080.96 1821.16 L1080.96 1819.80 L1087.27 1819.80 L1087.27 1819.06 L1093.58 1819.06 L1093.58 1817.70 L1099.89 1817.70 L1099.89 1816.83 L1106.20 1816.83 L1106.20 1816.58 L1112.64 1816.58 L1112.64 1815.22 L1118.95 1815.22 L1118.95 1813.49 L1125.26 1813.49 L1125.26 1812.87 L1131.57 1812.87 L1131.57 1811.51 L1137.88 1811.51 L1137.88 1810.40 L1144.32 1810.40 L1144.32 1809.65 L1150.63 1809.65 L1150.63 1809.03 L1156.94 1809.03 L1156.94 1808.79 L1163.25 1808.79 L1163.25 1808.54 L1169.56 1808.54 L1169.56 1806.93 L1175.87 1806.93 L1175.87 1806.56 L1182.31 1806.56 L1182.31 1805.69 L1188.62 1805.69 L1188.62 1805.20 L1194.93 1805.20 L1194.93 1804.95 L1201.24 1804.95 L1201.24 1804.08 L1207.55 1804.08 L1207.55 1803.84 L1213.99 1803.84 L1213.99 1803.59 L1220.30 1803.59 L1220.30 1802.97 L1226.61 1802.97 L1226.61 1802.23 L1232.92 1802.23 L1232.92 1801.61 L1239.23 1801.61 L1239.23 1801.36 L1245.54 1801.36 L1245.54 1800.25 L1251.98 1800.25 L1251.98 1799.13 L1258.29 1799.13 L1258.29 1798.64 L1264.60 1798.64 L1264.60 1798.27 L1270.91 1798.27 L1270.91 1797.77 L1277.22 1797.77 L1277.22 1797.52 L1283.66 1797.52 L1283.66 1797.15 L1289.97 1797.15 L1289.97 1796.91 L1296.28 1796.91 L1296.28 1796.91 L1302.59 1796.91 L1302.59 1796.91 L1308.90 1796.91 L1308.90 1796.66 L1315.34 1796.66 L1315.34 1795.79 L1321.65 1795.79 L1321.65 1795.30 L1327.96 1795.30 L1327.96 1795.30 L1334.27 1795.30 L1334.27 1795.17 L1340.58 1795.17 L1340.58 1794.43 L1346.89 1794.43 L1346.89 1794.18 L1353.33 1794.18 L1353.33 1794.18 L1359.64 1794.18 L1359.64 1794.18 L1365.95 1794.18 L1365.95 1794.18 L1372.26 1794.18 L1372.26 1794.18 L1378.58 1794.18 L1378.58 1793.94 L1385.01 1793.94 L1385.01 1793.81 L1391.32 1793.81 L1391.32 1793.81 L1397.63 1793.81 L1397.63 1793.81 L1403.94 1793.81 L1403.94 1793.07 L1410.26 1793.07 L1410.26 1793.07 L1416.57 1793.07 L1416.57 1792.82 L1423.00 1792.82 L1423.00 1792.70 L1429.31 1792.70 L1429.31 1792.45 L1435.62 1792.45 L1435.62 1792.45 L1441.93 1792.45 L1441.93 1792.45 L1448.25 1792.45 L1448.25 1792.20 L1454.68 1792.20 L1454.68 1791.96 L1460.99 1791.96 L1460.99 1791.58 L1467.30 1791.58 L1467.30 1791.58 L1473.62 1791.58 L1473.62 1791.58 L1479.93 1791.58 L1479.93 1791.09 L1486.36 1791.09 L1486.36 1791.09 L1492.67 1791.09 L1492.67 1791.09 L1498.98 1791.09 L1498.98 1790.84 L1505.30 1790.84 L1505.30 1790.84 L1511.61 1790.84 L1511.61 1790.84 L1517.92 1790.84 L1517.92 1790.84 L1524.35 1790.84 L1524.35 1790.59 L1536.97 1790.59 L1536.97 1790.35 L1543.29 1790.35 L1543.29 1790.35 L1549.60 1790.35 L1549.60 1790.35 L1556.03 1790.35 L1556.03 1790.35 L1568.65 1790.35 L1568.65 1790.35 L1574.97 1790.35 L1574.97 1790.35 L1581.28 1790.35 L1581.28 1790.22 L1587.59 1790.22 L1587.59 1790.22 L1594.02 1790.22 L1594.02 1790.22 L1600.34 1790.22 L1600.34 1789.98 L1606.65 1789.98 L1606.65 1789.73 L1612.96 1789.73 L1612.96 1789.48 L1619.27 1789.48 L1619.27 1789.48 L1625.70 1789.48 L1625.70 1789.48 L1632.02 1789.48 L1632.02 1789.48 L1638.33 1789.48 L1638.33 1789.11 L1644.64 1789.11 L1644.64 1789.11 L1650.95 1789.11 L1650.95 1789.11 L1657.38 1789.11 L1657.38 1789.11 L1663.69 1789.11 L1663.69 1789.11 L1670.01 1789.11 L1670.01 1789.11 L1676.32 1789.11 L1676.32 1789.11 L1682.63 1789.11 L1682.63 1789.11 L1688.94 1789.11 L1688.94 1789.11 L1695.38 1789.11 L1695.38 1789.11 L1708.00 1789.11 L1708.00 1789.11 L1714.31 1789.11 L1714.31 1789.11 L1720.62 1789.11 L1720.62 1788.86 L1727.06 1788.86 L1727.06 1788.86 L1733.37 1788.86 L1733.37 1788.86 L1739.68 1788.86 L1739.68 1788.61 L1745.99 1788.61 L1745.99 1788.61 L1752.30 1788.61 L1752.30 1788.61 L1758.73 1788.61 L1758.73 1788.61 L1765.05 1788.61 L1765.05 1788.61 L1771.36 1788.61 L1771.36 1788.61 L1777.67 1788.61 L1777.67 1788.61 L1790.29 1788.61 L1790.29 1788.61 L1796.73 1788.61 L1796.73 1788.61 L1803.04 1788.61 L1803.04 1788.61 L1809.35 1788.61 L1809.35 1788.61 L1815.66 1788.61 L1815.66 1788.61 L1828.41 1788.61 L1828.41 1788.61 L1834.72 1788.61 L1834.72 1788.61 L1841.03 1788.61 L1841.03 1788.61 L1847.34 1788.61 L1847.34 1788.61 L1872.71 1788.61 L1872.71 1788.61" stroke-linejoin="round" style="fill:none;stroke:#55752F;stroke-width:6.48"/>
	<path d=" M713.54 1825.99 L719.85 1825.99 L719.85 1825.99 L726.16 1825.99 L726.16 1825.99 L732.48 1825.99 L732.48 1825.99 L738.91 1825.99 L738.91 1825.99 L745.22 1825.99 L745.22 1825.99 L751.53 1825.99 L751.53 1825.99 L757.85 1825.99 L757.85 1825.99 L764.16 1825.99 L764.16 1825.99 L770.59 1825.99 L770.59 1825.99 L776.90 1825.99 L776.90 1825.99 L783.21 1825.99 L783.21 1825.99 L789.52 1825.99 L789.52 1825.99 L795.84 1825.99 L795.84 1825.99 L802.27 1825.99 L802.27 1825.99 L808.58 1825.99 L808.58 1825.99 L814.89 1825.99 L814.89 1825.99 L821.21 1825.99 L821.21 1825.99 L827.52 1825.99 L827.52 1825.99 L833.83 1825.99 L833.83 1825.99 L840.26 1825.99 L840.26 1825.99 L846.57 1825.99 L846.57 1825.99 L852.88 1825.99 L852.88 1825.99 L859.20 1825.99 L859.20 1825.99 L865.51 1825.99 L865.51 1825.99 L871.94 1825.99 L871.94 1825.99 L878.25 1825.99 L878.25 1825.99 L884.57 1825.99 L884.57 1825.99 L890.88 1825.99 L890.88 1825.99 L897.19 1825.99 L897.19 1825.86 L903.50 1825.86 L903.50 1825.86 L909.93 1825.86 L909.93 1825.86 L916.25 1825.86 L916.25 1825.86 L922.56 1825.86 L922.56 1825.86 L928.87 1825.86 L928.87 1825.86 L935.18 1825.86 L935.18 1825.86 L941.61 1825.86 L941.61 1825.86 L947.92 1825.86 L947.92 1825.86 L954.24 1825.86 L954.24 1825.62 L960.55 1825.62 L960.55 1825.62 L966.86 1825.62 L966.86 1825.62 L973.29 1825.62 L973.29 1825.62 L979.61 1825.62 L979.61 1825.62 L985.92 1825.62 L985.92 1825.25 L992.23 1825.25 L992.23 1825.25 L998.54 1825.25 L998.54 1824.75 L1004.85 1824.75 L1004.85 1824.13 L1011.28 1824.13 L1011.28 1823.51 L1017.60 1823.51 L1017.60 1823.14 L1023.91 1823.14 L1023.91 1822.52 L1030.22 1822.52 L1030.22 1821.41 L1036.53 1821.41 L1036.53 1820.54 L1042.96 1820.54 L1042.96 1820.17 L1049.28 1820.17 L1049.28 1819.31 L1055.59 1819.31 L1055.59 1817.82 L1061.90 1817.82 L1061.90 1816.95 L1068.21 1816.95 L1068.21 1814.85 L1074.52 1814.85 L1074.52 1812.62 L1080.96 1812.62 L1080.96 1810.27 L1087.27 1810.27 L1087.27 1809.03 L1093.58 1809.03 L1093.58 1806.93 L1099.89 1806.93 L1099.89 1804.83 L1106.20 1804.83 L1106.20 1802.35 L1112.64 1802.35 L1112.64 1800.25 L1118.95 1800.25 L1118.95 1797.65 L1125.26 1797.65 L1125.26 1794.80 L1131.57 1794.80 L1131.57 1791.34 L1137.88 1791.34 L1137.88 1788.49 L1144.32 1788.49 L1144.32 1787.13 L1150.63 1787.13 L1150.63 1785.15 L1156.94 1785.15 L1156.94 1783.66 L1163.25 1783.66 L1163.25 1782.18 L1169.56 1782.18 L1169.56 1780.69 L1175.87 1780.69 L1175.87 1779.46 L1182.31 1779.46 L1182.31 1778.96 L1188.62 1778.96 L1188.62 1777.11 L1194.93 1777.11 L1194.93 1775.87 L1201.24 1775.87 L1201.24 1774.75 L1207.55 1774.75 L1207.55 1774.38 L1213.99 1774.38 L1213.99 1772.90 L1220.30 1772.90 L1220.30 1772.53 L1226.61 1772.53 L1226.61 1771.29 L1232.92 1771.29 L1232.92 1770.42 L1239.23 1770.42 L1239.23 1769.56 L1245.54 1769.56 L1245.54 1768.69 L1251.98 1768.69 L1251.98 1767.82 L1258.29 1767.82 L1258.29 1767.45 L1264.60 1767.45 L1264.60 1766.83 L1270.91 1766.83 L1270.91 1766.34 L1277.22 1766.34 L1277.22 1766.22 L1283.66 1766.22 L1283.66 1765.72 L1289.97 1765.72 L1289.97 1765.35 L1296.28 1765.35 L1296.28 1764.73 L1302.59 1764.73 L1302.59 1764.24 L1308.90 1764.24 L1308.90 1763.86 L1315.34 1763.86 L1315.34 1763.62 L1321.65 1763.62 L1321.65 1763.25 L1327.96 1763.25 L1327.96 1763.00 L1334.27 1763.00 L1334.27 1762.87 L1340.58 1762.87 L1340.58 1762.63 L1346.89 1762.63 L1346.89 1762.26 L1353.33 1762.26 L1353.33 1762.01 L1359.64 1762.01 L1359.64 1761.76 L1365.95 1761.76 L1365.95 1761.39 L1372.26 1761.39 L1372.26 1761.14 L1378.58 1761.14 L1378.58 1760.77 L1385.01 1760.77 L1385.01 1760.28 L1391.32 1760.28 L1391.32 1760.28 L1397.63 1760.28 L1397.63 1759.66 L1403.94 1759.66 L1403.94 1759.28 L1410.26 1759.28 L1410.26 1758.79 L1416.57 1758.79 L1416.57 1758.67 L1423.00 1758.67 L1423.00 1758.67 L1429.31 1758.67 L1429.31 1758.05 L1435.62 1758.05 L1435.62 1757.80 L1441.93 1757.80 L1441.93 1757.80 L1448.25 1757.80 L1448.25 1757.80 L1454.68 1757.80 L1454.68 1756.69 L1460.99 1756.69 L1460.99 1756.69 L1467.30 1756.69 L1467.30 1756.69 L1473.62 1756.69 L1473.62 1756.56 L1479.93 1756.56 L1479.93 1755.70 L1486.36 1755.70 L1486.36 1755.70 L1492.67 1755.70 L1492.67 1755.32 L1498.98 1755.32 L1498.98 1755.08 L1505.30 1755.08 L1505.30 1754.83 L1511.61 1754.83 L1511.61 1754.46 L1517.92 1754.46 L1517.92 1753.96 L1524.35 1753.96 L1524.35 1753.96 L1530.66 1753.96 L1530.66 1753.84 L1536.97 1753.84 L1536.97 1753.84 L1543.29 1753.84 L1543.29 1753.84 L1549.60 1753.84 L1549.60 1753.34 L1556.03 1753.34 L1556.03 1753.22 L1562.34 1753.22 L1562.34 1753.22 L1568.65 1753.22 L1568.65 1752.97 L1574.97 1752.97 L1574.97 1752.73 L1581.28 1752.73 L1581.28 1752.35 L1587.59 1752.35 L1587.59 1752.35 L1594.02 1752.35 L1594.02 1752.35 L1600.34 1752.35 L1600.34 1752.35 L1606.65 1752.35 L1606.65 1752.35 L1612.96 1752.35 L1612.96 1752.11 L1619.27 1752.11 L1619.27 1751.74 L1625.70 1751.74 L1625.70 1751.49 L1632.02 1751.49 L1632.02 1751.24 L1638.33 1751.24 L1638.33 1751.24 L1644.64 1751.24 L1644.64 1751.24 L1650.95 1751.24 L1650.95 1751.24 L1657.38 1751.24 L1657.38 1751.24 L1663.69 1751.24 L1663.69 1751.24 L1670.01 1751.24 L1670.01 1751.12 L1676.32 1751.12 L1676.32 1751.12 L1682.63 1751.12 L1682.63 1751.12 L1688.94 1751.12 L1688.94 1750.87 L1695.38 1750.87 L1695.38 1750.87 L1701.69 1750.87 L1701.69 1750.87 L1708.00 1750.87 L1708.00 1750.87 L1714.31 1750.87 L1714.31 1750.87 L1720.62 1750.87 L1720.62 1750.62 L1727.06 1750.62 L1727.06 1750.62 L1733.37 1750.62 L1733.37 1750.62 L1739.68 1750.62 L1739.68 1750.62 L1745.99 1750.62 L1745.99 1750.62 L1752.30 1750.62 L1752.30 1750.37 L1758.73 1750.37 L1758.73 1750.25 L1765.05 1750.25 L1765.05 1750.00 L1771.36 1750.00 L1771.36 1750.00 L1777.67 1750.00 L1777.67 1749.76 L1783.98 1749.76 L1783.98 1749.63 L1790.29 1749.63 L1790.29 1749.63 L1796.73 1749.63 L1796.73 1749.38 L1803.04 1749.38 L1803.04 1749.38 L1809.35 1749.38 L1809.35 1749.38 L1815.66 1749.38 L1815.66 1749.38 L1821.97 1749.38 L1821.97 1749.38 L1828.41 1749.38 L1828.41 1749.38 L1834.72 1749.38 L1834.72 1749.38 L1841.03 1749.38 L1841.03 1749.38 L1847.34 1749.38 L1847.34 1749.38 L1872.71 1749.38 L1872.71 1749.38" stroke-linejoin="round" style="fill:none;stroke:#E37E00;stroke-width:6.48"/>
	<path d=" M713.54 1825.99 L719.85 1825.99 L719.85 1825.99 L726.16 1825.99 L726.16 1825.99 L732.48 1825.99 L732.48 1825.99 L738.91 1825.99 L738.91 1825.99 L745.22 1825.99 L745.22 1825.99 L751.53 1825.99 L751.53 1825.99 L757.85 1825.99 L757.85 1825.99 L764.16 1825.99 L764.16 1825.99 L770.59 1825.99 L770.59 1825.99 L776.90 1825.99 L776.90 1825.99 L783.21 1825.99 L783.21 1825.99 L789.52 1825.99 L789.52 1825.99 L795.84 1825.99 L795.84 1825.99 L802.27 1825.99 L802.27 1825.99 L808.58 1825.99 L808.58 1825.99 L814.89 1825.99 L814.89 1825.99 L821.21 1825.99 L821.21 1825.99 L827.52 1825.99 L827.52 1825.99 L833.83 1825.99 L833.83 1825.99 L840.26 1825.99 L840.26 1825.99 L846.57 1825.99 L846.57 1825.99 L852.88 1825.99 L852.88 1825.99 L859.20 1825.99 L859.20 1825.99 L865.51 1825.99 L865.51 1825.99 L871.94 1825.99 L871.94 1825.99 L878.25 1825.99 L878.25 1825.99 L884.57 1825.99 L884.57 1825.99 L890.88 1825.99 L890.88 1825.99 L897.19 1825.99 L897.19 1825.99 L903.50 1825.99 L903.50 1825.99 L909.93 1825.99 L909.93 1825.99 L916.25 1825.99 L916.25 1825.99 L922.56 1825.99 L922.56 1825.99 L928.87 1825.99 L928.87 1825.99 L935.18 1825.99 L935.18 1825.99 L941.61 1825.99 L941.61 1825.99 L947.92 1825.99 L947.92 1825.99 L954.24 1825.99 L954.24 1825.99 L960.55 1825.99 L960.55 1825.25 L966.86 1825.25 L966.86 1825.25 L973.29 1825.25 L973.29 1825.25 L979.61 1825.25 L979.61 1825.25 L985.92 1825.25 L985.92 1824.75 L992.23 1824.75 L992.23 1824.75 L998.54 1824.75 L998.54 1824.38 L1004.85 1824.38 L1004.85 1823.64 L1011.28 1823.64 L1011.28 1823.64 L1017.60 1823.64 L1017.60 1823.14 L1023.91 1823.14 L1023.91 1822.40 L1030.22 1822.40 L1030.22 1822.40 L1036.53 1822.40 L1036.53 1820.67 L1042.96 1820.67 L1042.96 1819.06 L1049.28 1819.06 L1049.28 1816.21 L1055.59 1816.21 L1055.59 1812.87 L1061.90 1812.87 L1061.90 1811.26 L1068.21 1811.26 L1068.21 1808.79 L1074.52 1808.79 L1074.52 1805.57 L1080.96 1805.57 L1080.96 1803.47 L1087.27 1803.47 L1087.27 1798.64 L1093.58 1798.64 L1093.58 1795.30 L1099.89 1795.30 L1099.89 1792.08 L1106.20 1792.08 L1106.20 1786.63 L1112.64 1786.63 L1112.64 1783.05 L1118.95 1783.05 L1118.95 1780.08 L1125.26 1780.08 L1125.26 1777.23 L1131.57 1777.23 L1131.57 1775.25 L1137.88 1775.25 L1137.88 1771.91 L1144.32 1771.91 L1144.32 1768.69 L1150.63 1768.69 L1150.63 1765.84 L1156.94 1765.84 L1156.94 1762.87 L1163.25 1762.87 L1163.25 1760.89 L1169.56 1760.89 L1169.56 1758.42 L1175.87 1758.42 L1175.87 1755.57 L1182.31 1755.57 L1182.31 1753.84 L1188.62 1753.84 L1188.62 1750.99 L1194.93 1750.99 L1194.93 1749.01 L1201.24 1749.01 L1201.24 1748.52 L1207.55 1748.52 L1207.55 1746.91 L1213.99 1746.91 L1213.99 1744.93 L1220.30 1744.93 L1220.30 1743.20 L1226.61 1743.20 L1226.61 1741.59 L1232.92 1741.59 L1232.92 1739.11 L1239.23 1739.11 L1239.23 1736.27 L1245.54 1736.27 L1245.54 1734.66 L1251.98 1734.66 L1251.98 1733.05 L1258.29 1733.05 L1258.29 1730.95 L1264.60 1730.95 L1264.60 1729.71 L1270.91 1729.71 L1270.91 1728.84 L1277.22 1728.84 L1277.22 1728.84 L1283.66 1728.84 L1283.66 1728.10 L1289.97 1728.10 L1289.97 1727.60 L1296.28 1727.60 L1296.28 1726.86 L1302.59 1726.86 L1302.59 1725.62 L1308.90 1725.62 L1308.90 1724.76 L1315.34 1724.76 L1315.34 1724.02 L1321.65 1724.02 L1321.65 1723.15 L1327.96 1723.15 L1327.96 1721.91 L1334.27 1721.91 L1334.27 1721.05 L1340.58 1721.05 L1340.58 1721.05 L1346.89 1721.05 L1346.89 1719.44 L1353.33 1719.44 L1353.33 1718.69 L1359.64 1718.69 L1359.64 1718.20 L1365.95 1718.20 L1365.95 1718.20 L1372.26 1718.20 L1372.26 1717.83 L1378.58 1717.83 L1378.58 1717.46 L1385.01 1717.46 L1385.01 1716.22 L1391.32 1716.22 L1391.32 1715.72 L1397.63 1715.72 L1397.63 1714.98 L1403.94 1714.98 L1403.94 1713.25 L1410.26 1713.25 L1410.26 1712.88 L1416.57 1712.88 L1416.57 1712.51 L1423.00 1712.51 L1423.00 1712.13 L1429.31 1712.13 L1429.31 1710.90 L1435.62 1710.90 L1435.62 1710.40 L1441.93 1710.40 L1441.93 1707.93 L1448.25 1707.93 L1448.25 1707.93 L1454.68 1707.93 L1454.68 1707.56 L1460.99 1707.56 L1460.99 1707.18 L1467.30 1707.18 L1467.30 1707.18 L1473.62 1707.18 L1473.62 1706.69 L1479.93 1706.69 L1479.93 1706.69 L1486.36 1706.69 L1486.36 1705.95 L1492.67 1705.95 L1492.67 1705.45 L1498.98 1705.45 L1498.98 1705.08 L1505.30 1705.08 L1505.30 1704.34 L1511.61 1704.34 L1511.61 1704.34 L1517.92 1704.34 L1517.92 1703.84 L1524.35 1703.84 L1524.35 1703.84 L1530.66 1703.84 L1530.66 1703.84 L1536.97 1703.84 L1536.97 1703.84 L1543.29 1703.84 L1543.29 1702.61 L1549.60 1702.61 L1549.60 1702.23 L1556.03 1702.23 L1556.03 1701.86 L1562.34 1701.86 L1562.34 1701.37 L1568.65 1701.37 L1568.65 1701.00 L1574.97 1701.00 L1574.97 1701.00 L1581.28 1701.00 L1581.28 1700.63 L1587.59 1700.63 L1587.59 1700.13 L1594.02 1700.13 L1594.02 1699.76 L1600.34 1699.76 L1600.34 1699.76 L1606.65 1699.76 L1606.65 1699.76 L1612.96 1699.76 L1612.96 1699.76 L1619.27 1699.76 L1619.27 1699.76 L1625.70 1699.76 L1625.70 1699.39 L1632.02 1699.39 L1632.02 1699.39 L1638.33 1699.39 L1638.33 1699.39 L1644.64 1699.39 L1644.64 1699.39 L1650.95 1699.39 L1650.95 1699.39 L1657.38 1699.39 L1657.38 1699.39 L1663.69 1699.39 L1663.69 1699.39 L1670.01 1699.39 L1670.01 1698.89 L1676.32 1698.89 L1676.32 1698.89 L1682.63 1698.89 L1682.63 1698.89 L1688.94 1698.89 L1688.94 1698.89 L1695.38 1698.89 L1695.38 1698.89 L1701.69 1698.89 L1701.69 1698.89 L1708.00 1698.89 L1708.00 1698.89 L1714.31 1698.89 L1714.31 1698.89 L1720.62 1698.89 L1720.62 1698.89 L1727.06 1698.89 L1727.06 1698.89 L1733.37 1698.89 L1733.37 1698.89 L1739.68 1698.89 L1739.68 1698.89 L1745.99 1698.89 L1745.99 1698.89 L1752.30 1698.89 L1752.30 1698.89 L1758.73 1698.89 L1758.73 1698.89 L1765.05 1698.89 L1765.05 1698.89 L1771.36 1698.89 L1771.36 1698.89 L1777.67 1698.89 L1777.67 1698.89 L1783.98 1698.89 L1783.98 1698.89 L1790.29 1698.89 L1790.29 1698.52 L1796.73 1698.52 L1796.73 1698.52 L1803.04 1698.52 L1803.04 1698.52 L1809.35 1698.52 L1809.35 1698.52 L1815.66 1698.52 L1815.66 1698.52 L1821.97 1698.52 L1821.97 1698.52 L1828.41 1698.52 L1828.41 1698.52 L1834.72 1698.52 L1834.72 1698.52 L1841.03 1698.52 L1841.03 1698.52 L1853.65 1698.52 L1853.65 1698.52 L1872.71 1698.52 L1872.71 1698.52" stroke-linejoin="round" style="fill:none;stroke:#6E8E84;stroke-width:6.48"/>
	<line x1="659.71" y1="1873.51" x2="659.71" y2="414.45" style="stroke:#000000;stroke-width:4.32"/>
	<line x1="659.71" y1="1825.99" x2="629.76" y2="1825.99" style="stroke:#000000;stroke-width:4.32"/>
	<text x="614.79" y="1852.27" style="font-family:'Helvetica';font-size:74.99px;fill:#000000" text-anchor="end">0.000</text>
	<line x1="659.71" y1="1280.36" x2="629.76" y2="1280.36" style="stroke:#000000;stroke-width:4.32"/>
	<text x="614.79" y="1306.64" style="font-family:'Helvetica';font-size:74.99px;fill:#000000" text-anchor="end">0.002</text>
	<line x1="659.71" y1="734.73" x2="629.76" y2="734.73" style="stroke:#000000;stroke-width:4.32"/>
	<text x="614.79" y="761.01" style="font-family:'Helvetica';font-size:74.99px;fill:#000000" text-anchor="end">0.004</text>
	<line x1="659.71" y1="1873.51" x2="2021.58" y2="1873.51" style="stroke:#000000;stroke-width:4.32"/>
	<line x1="707.23" y1="1873.51" x2="707.23" y2="1903.46" style="stroke:#000000;stroke-width:4.32"/>
	<text x="707.23" y="1970.87" style="font-family:'Helvetica';font-size:74.99px;fill:#000000" text-anchor="middle">1 Feb 20</text>
	<line x1="891.00" y1="1873.51" x2="891.00" y2="1903.46" style="stroke:#000000;stroke-width:4.32"/>
	<text x="891.00" y="1970.87" style="font-family:'Helvetica';font-size:74.99px;fill:#000000" text-anchor="middle">1 Mar 20</text>
	<line x1="1087.27" y1="1873.51" x2="1087.27" y2="1903.46" style="stroke:#000000;stroke-width:4.32"/>
	<text x="1087.27" y="1970.87" style="font-family:'Helvetica';font-size:74.99px;fill:#000000" text-anchor="middle">1 Apr 20</text>
	<line x1="1283.66" y1="1873.51" x2="1283.66" y2="1903.46" style="stroke:#000000;stroke-width:4.32"/>
	<text x="1283.66" y="1970.87" style="font-family:'Helvetica';font-size:74.99px;fill:#000000" text-anchor="middle">1 May 20</text>
	<line x1="1473.74" y1="1873.51" x2="1473.74" y2="1903.46" style="stroke:#000000;stroke-width:4.32"/>
	<text x="1473.74" y="1970.87" style="font-family:'Helvetica';font-size:74.99px;fill:#000000" text-anchor="middle">1 June 20</text>
	<line x1="1663.69" y1="1873.51" x2="1663.69" y2="1903.46" style="stroke:#000000;stroke-width:4.32"/>
	<text x="1663.69" y="1970.87" style="font-family:'Helvetica';font-size:74.99px;fill:#000000" text-anchor="middle">1 July 20</text>
	<line x1="1860.09" y1="1873.51" x2="1860.09" y2="1903.46" style="stroke:#000000;stroke-width:4.32"/>
	<text x="1860.09" y="1970.87" style="font-family:'Helvetica';font-size:74.99px;fill:#000000" text-anchor="middle">1 Aug 20</text>
	<text x="1340.71" y="2053.41" style="font-family:'Helvetica';font-size:74.99px;fill:#000000" text-anchor="middle"> </text>
	<text x="1340.71" y="369.91" style="font-family:'Helvetica';font-size:104.94px;fill:#1E2D53" text-anchor="middle">Female</text>
	<rect x="2097.19" y="207.91" width="1799.33" height="1958.65" style="fill:#EAF2F3"/>
	<rect x="2099.35" y="210.07" width="1795.01" height="1954.33" style="fill:none;stroke:#EAF2F3;stroke-width:4.32"/>
	<rect x="2459.04" y="414.45" width="1361.87" height="1459.06" style="fill:#FFFFFF"/>
	<rect x="2461.20" y="416.61" width="1357.55" height="1454.74" style="fill:none;stroke:#FFFFFF;stroke-width:4.32"/>
	<line x1="2459.04" y1="1825.99" x2="3820.91" y2="1825.99" style="stroke:#EAF2F3;stroke-width:6.48"/>
	<line x1="2459.04" y1="1280.36" x2="3820.91" y2="1280.36" style="stroke:#EAF2F3;stroke-width:6.48"/>
	<line x1="2459.04" y1="734.73" x2="3820.91" y2="734.73" style="stroke:#EAF2F3;stroke-width:6.48"/>
	<path d=" M2512.87 1825.99 L2525.49 1825.99 L2525.49 1825.99 L2544.55 1825.99 L2544.55 1825.99 L2569.79 1825.99 L2569.79 1825.99 L2588.85 1825.99 L2588.85 1825.99 L2601.47 1825.99 L2601.47 1825.99 L2607.91 1825.99 L2607.91 1825.99 L2614.22 1825.99 L2614.22 1825.99 L2626.84 1825.99 L2626.84 1825.99 L2639.46 1825.99 L2639.46 1825.99 L2645.90 1825.99 L2645.90 1825.99 L2658.52 1825.99 L2658.52 1825.99 L2671.14 1825.99 L2671.14 1825.99 L2677.58 1825.99 L2677.58 1825.99 L2683.89 1825.99 L2683.89 1825.99 L2690.20 1825.99 L2690.20 1825.99 L2696.51 1825.99 L2696.51 1825.99 L2721.88 1825.99 L2721.88 1825.99 L2728.19 1825.99 L2728.19 1825.99 L2740.82 1825.99 L2740.82 1825.99 L2747.25 1825.99 L2747.25 1825.99 L2753.56 1825.99 L2753.56 1825.99 L2759.87 1825.99 L2759.87 1825.99 L2766.18 1825.99 L2766.18 1825.99 L2772.49 1825.99 L2772.49 1825.99 L2778.93 1825.99 L2778.93 1825.99 L2785.24 1825.99 L2785.24 1825.86 L2791.55 1825.86 L2791.55 1825.86 L2804.18 1825.86 L2804.18 1825.86 L2823.23 1825.86 L2823.23 1825.86 L2829.54 1825.86 L2829.54 1825.62 L2835.86 1825.62 L2835.86 1825.12 L2842.17 1825.12 L2842.17 1824.87 L2848.60 1824.87 L2848.60 1824.87 L2854.91 1824.87 L2854.91 1824.26 L2861.22 1824.26 L2861.22 1824.26 L2867.53 1824.26 L2867.53 1823.76 L2873.85 1823.76 L2873.85 1823.14 L2880.28 1823.14 L2880.28 1822.89 L2886.59 1822.89 L2886.59 1822.77 L2899.22 1822.77 L2899.22 1822.52 L2905.53 1822.52 L2905.53 1822.52 L2911.84 1822.52 L2911.84 1822.15 L2918.27 1822.15 L2918.27 1822.15 L2924.58 1822.15 L2924.58 1822.03 L2930.89 1822.03 L2930.89 1822.03 L2937.21 1822.03 L2937.21 1822.03 L2943.52 1822.03 L2943.52 1821.41 L2949.95 1821.41 L2949.95 1821.16 L2956.26 1821.16 L2956.26 1821.04 L2962.57 1821.04 L2962.57 1821.04 L2968.89 1821.04 L2968.89 1821.04 L2987.94 1821.04 L2987.94 1821.04 L3000.57 1821.04 L3000.57 1820.79 L3006.88 1820.79 L3006.88 1820.67 L3044.87 1820.67 L3044.87 1820.67 L3051.30 1820.67 L3051.30 1820.42 L3057.61 1820.42 L3057.61 1820.42 L3082.86 1820.42 L3082.86 1820.42 L3101.92 1820.42 L3101.92 1820.42 L3114.54 1820.42 L3114.54 1820.17 L3120.97 1820.17 L3120.97 1820.17 L3133.60 1820.17 L3133.60 1820.17 L3139.91 1820.17 L3139.91 1820.17 L3152.53 1820.17 L3152.53 1820.17 L3165.28 1820.17 L3165.28 1820.05 L3171.59 1820.05 L3171.59 1820.05 L3177.90 1820.05 L3177.90 1820.05 L3184.21 1820.05 L3184.21 1819.80 L3209.58 1819.80 L3209.58 1819.80 L3215.89 1819.80 L3215.89 1819.80 L3222.33 1819.80 L3222.33 1819.80 L3234.95 1819.80 L3234.95 1819.80 L3247.57 1819.80 L3247.57 1819.80 L3253.88 1819.80 L3253.88 1819.80 L3266.63 1819.80 L3266.63 1819.80 L3272.94 1819.80 L3272.94 1819.68 L3285.56 1819.68 L3285.56 1819.68 L3304.62 1819.68 L3304.62 1819.68 L3317.24 1819.68 L3317.24 1819.68 L3329.99 1819.68 L3329.99 1819.68 L3336.30 1819.68 L3336.30 1819.68 L3348.92 1819.68 L3348.92 1819.68 L3355.23 1819.68 L3355.23 1819.68 L3374.29 1819.68 L3374.29 1819.68 L3386.91 1819.68 L3386.91 1819.68 L3393.35 1819.68 L3393.35 1819.68 L3399.66 1819.68 L3399.66 1819.68 L3418.59 1819.68 L3418.59 1819.68 L3431.34 1819.68 L3431.34 1819.68 L3443.96 1819.68 L3443.96 1819.43 L3488.26 1819.43 L3488.26 1819.43 L3494.58 1819.43 L3494.58 1819.31 L3501.01 1819.31 L3501.01 1819.31 L3513.63 1819.31 L3513.63 1819.31 L3557.94 1819.31 L3557.94 1819.31 L3589.62 1819.31 L3589.62 1819.31 L3602.36 1819.31 L3602.36 1819.31 L3621.30 1819.31 L3621.30 1819.31 L3627.61 1819.31 L3627.61 1819.31 L3672.03 1819.31 L3672.03 1819.31" stroke-linejoin="round" style="fill:none;stroke:#1A476F;stroke-width:6.48"/>
	<path d=" M2525.49 1825.99 L2531.80 1825.99 L2531.80 1825.99 L2538.11 1825.99 L2538.11 1825.99 L2550.86 1825.99 L2550.86 1825.99 L2557.17 1825.99 L2557.17 1825.99 L2576.23 1825.99 L2576.23 1825.99 L2595.16 1825.99 L2595.16 1825.99 L2601.47 1825.99 L2601.47 1825.99 L2607.91 1825.99 L2607.91 1825.99 L2614.22 1825.99 L2614.22 1825.99 L2620.53 1825.99 L2620.53 1825.99 L2626.84 1825.99 L2626.84 1825.99 L2633.15 1825.99 L2633.15 1825.99 L2639.46 1825.99 L2639.46 1825.99 L2645.90 1825.99 L2645.90 1825.99 L2664.83 1825.99 L2664.83 1825.99 L2671.14 1825.99 L2671.14 1825.99 L2677.58 1825.99 L2677.58 1825.99 L2683.89 1825.99 L2683.89 1825.99 L2690.20 1825.99 L2690.20 1825.99 L2702.82 1825.99 L2702.82 1825.99 L2709.26 1825.99 L2709.26 1825.99 L2715.57 1825.99 L2715.57 1825.99 L2728.19 1825.99 L2728.19 1825.99 L2734.50 1825.99 L2734.50 1825.99 L2747.25 1825.99 L2747.25 1825.86 L2753.56 1825.86 L2753.56 1825.86 L2759.87 1825.86 L2759.87 1825.86 L2766.18 1825.86 L2766.18 1825.62 L2772.49 1825.62 L2772.49 1825.49 L2778.93 1825.49 L2778.93 1825.49 L2785.24 1825.49 L2785.24 1825.00 L2791.55 1825.00 L2791.55 1824.87 L2797.86 1824.87 L2797.86 1824.87 L2804.18 1824.87 L2804.18 1824.63 L2810.49 1824.63 L2810.49 1824.50 L2816.92 1824.50 L2816.92 1824.26 L2823.23 1824.26 L2823.23 1823.64 L2829.54 1823.64 L2829.54 1823.51 L2835.86 1823.51 L2835.86 1822.65 L2842.17 1822.65 L2842.17 1821.66 L2848.60 1821.66 L2848.60 1820.54 L2854.91 1820.54 L2854.91 1819.92 L2861.22 1819.92 L2861.22 1819.31 L2867.53 1819.31 L2867.53 1819.06 L2873.85 1819.06 L2873.85 1819.06 L2880.28 1819.06 L2880.28 1818.93 L2886.59 1818.93 L2886.59 1818.07 L2892.90 1818.07 L2892.90 1817.08 L2899.22 1817.08 L2899.22 1816.58 L2905.53 1816.58 L2905.53 1816.34 L2911.84 1816.34 L2911.84 1815.35 L2918.27 1815.35 L2918.27 1814.60 L2924.58 1814.60 L2924.58 1813.74 L2930.89 1813.74 L2930.89 1812.99 L2937.21 1812.99 L2937.21 1812.38 L2943.52 1812.38 L2943.52 1811.76 L2949.95 1811.76 L2949.95 1811.63 L2956.26 1811.63 L2956.26 1810.77 L2962.57 1810.77 L2962.57 1810.64 L2968.89 1810.64 L2968.89 1810.40 L2975.20 1810.40 L2975.20 1810.40 L2981.51 1810.40 L2981.51 1810.27 L2987.94 1810.27 L2987.94 1809.78 L2994.26 1809.78 L2994.26 1809.65 L3000.57 1809.65 L3000.57 1809.03 L3006.88 1809.03 L3006.88 1808.66 L3013.19 1808.66 L3013.19 1808.42 L3019.62 1808.42 L3019.62 1808.29 L3025.93 1808.29 L3025.93 1807.67 L3032.25 1807.67 L3032.25 1807.67 L3038.56 1807.67 L3038.56 1807.43 L3044.87 1807.43 L3044.87 1807.43 L3051.30 1807.43 L3051.30 1807.30 L3057.61 1807.30 L3057.61 1806.81 L3076.55 1806.81 L3076.55 1806.81 L3082.86 1806.81 L3082.86 1806.68 L3089.30 1806.68 L3089.30 1806.44 L3095.61 1806.44 L3095.61 1806.44 L3101.92 1806.44 L3101.92 1806.44 L3108.23 1806.44 L3108.23 1806.31 L3114.54 1806.31 L3114.54 1806.06 L3120.97 1806.06 L3120.97 1805.82 L3127.29 1805.82 L3127.29 1805.45 L3152.53 1805.45 L3152.53 1805.45 L3158.97 1805.45 L3158.97 1805.32 L3165.28 1805.32 L3165.28 1805.32 L3171.59 1805.32 L3171.59 1805.32 L3177.90 1805.32 L3177.90 1805.07 L3184.21 1805.07 L3184.21 1804.83 L3190.65 1804.83 L3190.65 1804.83 L3203.27 1804.83 L3203.27 1804.83 L3209.58 1804.83 L3209.58 1804.83 L3215.89 1804.83 L3215.89 1804.83 L3222.33 1804.83 L3222.33 1804.83 L3228.64 1804.83 L3228.64 1804.83 L3234.95 1804.83 L3234.95 1804.70 L3241.26 1804.70 L3241.26 1804.70 L3253.88 1804.70 L3253.88 1804.70 L3260.32 1804.70 L3260.32 1804.70 L3266.63 1804.70 L3266.63 1804.46 L3272.94 1804.46 L3272.94 1804.33 L3279.25 1804.33 L3279.25 1804.33 L3285.56 1804.33 L3285.56 1804.33 L3298.31 1804.33 L3298.31 1804.08 L3304.62 1804.08 L3304.62 1803.84 L3310.93 1803.84 L3310.93 1803.84 L3317.24 1803.84 L3317.24 1803.84 L3323.55 1803.84 L3323.55 1803.84 L3329.99 1803.84 L3329.99 1803.84 L3348.92 1803.84 L3348.92 1803.84 L3355.23 1803.84 L3355.23 1803.47 L3367.98 1803.47 L3367.98 1803.47 L3374.29 1803.47 L3374.29 1803.34 L3386.91 1803.34 L3386.91 1803.34 L3393.35 1803.34 L3393.35 1803.34 L3399.66 1803.34 L3399.66 1803.09 L3405.97 1803.09 L3405.97 1803.09 L3412.28 1803.09 L3412.28 1803.09 L3418.59 1803.09 L3418.59 1803.09 L3431.34 1803.09 L3431.34 1802.85 L3437.65 1802.85 L3437.65 1802.72 L3450.27 1802.72 L3450.27 1802.72 L3456.59 1802.72 L3456.59 1802.72 L3463.02 1802.72 L3463.02 1802.72 L3469.33 1802.72 L3469.33 1802.72 L3475.64 1802.72 L3475.64 1802.48 L3494.58 1802.48 L3494.58 1802.48 L3513.63 1802.48 L3513.63 1802.48 L3519.95 1802.48 L3519.95 1802.48 L3526.26 1802.48 L3526.26 1802.48 L3532.69 1802.48 L3532.69 1802.48 L3539.00 1802.48 L3539.00 1802.48 L3545.31 1802.48 L3545.31 1802.48 L3564.37 1802.48 L3564.37 1802.48 L3570.68 1802.48 L3570.68 1802.48 L3576.99 1802.48 L3576.99 1802.48 L3621.30 1802.48 L3621.30 1802.48 L3627.61 1802.48 L3627.61 1802.48 L3640.35 1802.48 L3640.35 1802.48 L3672.03 1802.48 L3672.03 1802.48" stroke-linejoin="round" style="fill:none;stroke:#90353B;stroke-width:6.48"/>
	<path d=" M2512.87 1825.99 L2519.18 1825.99 L2519.18 1825.99 L2525.49 1825.99 L2525.49 1825.99 L2531.80 1825.99 L2531.80 1825.99 L2538.11 1825.99 L2538.11 1825.99 L2544.55 1825.99 L2544.55 1825.99 L2550.86 1825.99 L2550.86 1825.99 L2557.17 1825.99 L2557.17 1825.99 L2563.48 1825.99 L2563.48 1825.99 L2569.79 1825.99 L2569.79 1825.99 L2576.23 1825.99 L2576.23 1825.99 L2582.54 1825.99 L2582.54 1825.99 L2588.85 1825.99 L2588.85 1825.99 L2595.16 1825.99 L2595.16 1825.99 L2601.47 1825.99 L2601.47 1825.99 L2607.91 1825.99 L2607.91 1825.99 L2614.22 1825.99 L2614.22 1825.99 L2620.53 1825.99 L2620.53 1825.99 L2626.84 1825.99 L2626.84 1825.99 L2633.15 1825.99 L2633.15 1825.99 L2639.46 1825.99 L2639.46 1825.99 L2645.90 1825.99 L2645.90 1825.99 L2652.21 1825.99 L2652.21 1825.99 L2658.52 1825.99 L2658.52 1825.99 L2664.83 1825.99 L2664.83 1825.99 L2671.14 1825.99 L2671.14 1825.99 L2677.58 1825.99 L2677.58 1825.99 L2683.89 1825.99 L2683.89 1825.99 L2690.20 1825.99 L2690.20 1825.99 L2696.51 1825.99 L2696.51 1825.99 L2702.82 1825.99 L2702.82 1825.99 L2709.26 1825.99 L2709.26 1825.99 L2715.57 1825.99 L2715.57 1825.99 L2721.88 1825.99 L2721.88 1825.99 L2728.19 1825.99 L2728.19 1825.99 L2734.50 1825.99 L2734.50 1825.99 L2740.82 1825.99 L2740.82 1825.99 L2747.25 1825.99 L2747.25 1825.99 L2753.56 1825.99 L2753.56 1825.86 L2759.87 1825.86 L2759.87 1825.86 L2766.18 1825.86 L2766.18 1825.86 L2772.49 1825.86 L2772.49 1825.86 L2778.93 1825.86 L2778.93 1825.86 L2785.24 1825.86 L2785.24 1825.12 L2791.55 1825.12 L2791.55 1825.12 L2797.86 1825.12 L2797.86 1825.00 L2804.18 1825.00 L2804.18 1824.50 L2810.49 1824.50 L2810.49 1823.88 L2816.92 1823.88 L2816.92 1823.64 L2823.23 1823.64 L2823.23 1823.02 L2829.54 1823.02 L2829.54 1822.40 L2835.86 1822.40 L2835.86 1821.53 L2842.17 1821.53 L2842.17 1820.91 L2848.60 1820.91 L2848.60 1818.19 L2854.91 1818.19 L2854.91 1817.33 L2861.22 1817.33 L2861.22 1816.58 L2867.53 1816.58 L2867.53 1814.11 L2873.85 1814.11 L2873.85 1812.00 L2880.28 1812.00 L2880.28 1810.40 L2886.59 1810.40 L2886.59 1808.54 L2892.90 1808.54 L2892.90 1805.57 L2899.22 1805.57 L2899.22 1804.21 L2905.53 1804.21 L2905.53 1801.24 L2911.84 1801.24 L2911.84 1798.89 L2918.27 1798.89 L2918.27 1797.40 L2924.58 1797.40 L2924.58 1796.16 L2930.89 1796.16 L2930.89 1793.32 L2937.21 1793.32 L2937.21 1791.83 L2943.52 1791.83 L2943.52 1789.73 L2949.95 1789.73 L2949.95 1787.87 L2956.26 1787.87 L2956.26 1786.14 L2962.57 1786.14 L2962.57 1785.52 L2968.89 1785.52 L2968.89 1783.91 L2975.20 1783.91 L2975.20 1782.67 L2981.51 1782.67 L2981.51 1782.06 L2987.94 1782.06 L2987.94 1780.82 L2994.26 1780.82 L2994.26 1779.70 L3000.57 1779.70 L3000.57 1779.09 L3006.88 1779.09 L3006.88 1777.97 L3013.19 1777.97 L3013.19 1776.86 L3019.62 1776.86 L3019.62 1776.12 L3025.93 1776.12 L3025.93 1775.37 L3032.25 1775.37 L3032.25 1775.25 L3038.56 1775.25 L3038.56 1774.75 L3044.87 1774.75 L3044.87 1774.63 L3051.30 1774.63 L3051.30 1773.27 L3057.61 1773.27 L3057.61 1772.90 L3063.93 1772.90 L3063.93 1772.40 L3070.24 1772.40 L3070.24 1771.78 L3076.55 1771.78 L3076.55 1771.78 L3082.86 1771.78 L3082.86 1771.54 L3089.30 1771.54 L3089.30 1770.55 L3095.61 1770.55 L3095.61 1769.93 L3101.92 1769.93 L3101.92 1769.93 L3108.23 1769.93 L3108.23 1769.68 L3114.54 1769.68 L3114.54 1769.68 L3120.97 1769.68 L3120.97 1769.19 L3127.29 1769.19 L3127.29 1769.06 L3133.60 1769.06 L3133.60 1768.32 L3139.91 1768.32 L3139.91 1768.32 L3146.22 1768.32 L3146.22 1768.32 L3152.53 1768.32 L3152.53 1767.95 L3158.97 1767.95 L3158.97 1767.58 L3165.28 1767.58 L3165.28 1767.58 L3171.59 1767.58 L3171.59 1767.33 L3177.90 1767.33 L3177.90 1766.83 L3184.21 1766.83 L3184.21 1766.71 L3190.65 1766.71 L3190.65 1766.71 L3196.96 1766.71 L3196.96 1766.71 L3203.27 1766.71 L3203.27 1766.46 L3209.58 1766.46 L3209.58 1766.22 L3215.89 1766.22 L3215.89 1765.97 L3222.33 1765.97 L3222.33 1765.97 L3228.64 1765.97 L3228.64 1765.97 L3234.95 1765.97 L3234.95 1765.60 L3241.26 1765.60 L3241.26 1765.23 L3247.57 1765.23 L3247.57 1764.98 L3253.88 1764.98 L3253.88 1764.98 L3260.32 1764.98 L3260.32 1764.98 L3266.63 1764.98 L3266.63 1764.98 L3272.94 1764.98 L3272.94 1764.98 L3279.25 1764.98 L3279.25 1764.98 L3285.56 1764.98 L3285.56 1764.98 L3292.00 1764.98 L3292.00 1764.98 L3298.31 1764.98 L3298.31 1764.98 L3304.62 1764.98 L3304.62 1764.73 L3310.93 1764.73 L3310.93 1764.36 L3317.24 1764.36 L3317.24 1763.86 L3323.55 1763.86 L3323.55 1763.86 L3329.99 1763.86 L3329.99 1763.86 L3336.30 1763.86 L3336.30 1763.86 L3342.61 1763.86 L3342.61 1763.49 L3348.92 1763.49 L3348.92 1763.25 L3355.23 1763.25 L3355.23 1763.25 L3361.67 1763.25 L3361.67 1763.00 L3367.98 1763.00 L3367.98 1763.00 L3374.29 1763.00 L3374.29 1763.00 L3380.60 1763.00 L3380.60 1762.87 L3386.91 1762.87 L3386.91 1762.87 L3393.35 1762.87 L3393.35 1762.87 L3399.66 1762.87 L3399.66 1762.87 L3405.97 1762.87 L3405.97 1762.87 L3412.28 1762.87 L3412.28 1762.87 L3418.59 1762.87 L3418.59 1762.87 L3424.91 1762.87 L3424.91 1762.63 L3431.34 1762.63 L3431.34 1762.63 L3437.65 1762.63 L3437.65 1762.63 L3443.96 1762.63 L3443.96 1762.63 L3450.27 1762.63 L3450.27 1762.38 L3456.59 1762.38 L3456.59 1762.38 L3463.02 1762.38 L3463.02 1762.38 L3469.33 1762.38 L3469.33 1762.38 L3475.64 1762.38 L3475.64 1762.38 L3481.95 1762.38 L3481.95 1762.38 L3488.26 1762.38 L3488.26 1762.38 L3494.58 1762.38 L3494.58 1762.38 L3501.01 1762.38 L3501.01 1762.13 L3507.32 1762.13 L3507.32 1762.13 L3513.63 1762.13 L3513.63 1762.13 L3519.95 1762.13 L3519.95 1762.13 L3526.26 1762.13 L3526.26 1762.13 L3532.69 1762.13 L3532.69 1762.13 L3539.00 1762.13 L3539.00 1762.13 L3545.31 1762.13 L3545.31 1762.01 L3551.63 1762.01 L3551.63 1762.01 L3557.94 1762.01 L3557.94 1762.01 L3564.37 1762.01 L3564.37 1762.01 L3570.68 1762.01 L3570.68 1762.01 L3576.99 1762.01 L3576.99 1762.01 L3583.30 1762.01 L3583.30 1762.01 L3589.62 1762.01 L3589.62 1762.01 L3595.93 1762.01 L3595.93 1762.01 L3608.67 1762.01 L3608.67 1762.01 L3614.99 1762.01 L3614.99 1762.01 L3621.30 1762.01 L3621.30 1761.76 L3627.61 1761.76 L3627.61 1761.76 L3634.04 1761.76 L3634.04 1761.76 L3640.35 1761.76 L3640.35 1761.76 L3646.66 1761.76 L3646.66 1761.76 L3672.03 1761.76 L3672.03 1761.76" stroke-linejoin="round" style="fill:none;stroke:#55752F;stroke-width:6.48"/>
	<path d=" M2512.87 1825.99 L2519.18 1825.99 L2519.18 1825.99 L2525.49 1825.99 L2525.49 1825.99 L2531.80 1825.99 L2531.80 1825.99 L2538.11 1825.99 L2538.11 1825.99 L2544.55 1825.99 L2544.55 1825.99 L2550.86 1825.99 L2550.86 1825.99 L2557.17 1825.99 L2557.17 1825.99 L2563.48 1825.99 L2563.48 1825.99 L2569.79 1825.99 L2569.79 1825.99 L2576.23 1825.99 L2576.23 1825.99 L2582.54 1825.99 L2582.54 1825.99 L2588.85 1825.99 L2588.85 1825.99 L2595.16 1825.99 L2595.16 1825.99 L2601.47 1825.99 L2601.47 1825.99 L2607.91 1825.99 L2607.91 1825.99 L2614.22 1825.99 L2614.22 1825.99 L2620.53 1825.99 L2620.53 1825.99 L2626.84 1825.99 L2626.84 1825.99 L2633.15 1825.99 L2633.15 1825.99 L2639.46 1825.99 L2639.46 1825.99 L2645.90 1825.99 L2645.90 1825.99 L2652.21 1825.99 L2652.21 1825.99 L2658.52 1825.99 L2658.52 1825.99 L2664.83 1825.99 L2664.83 1825.99 L2671.14 1825.99 L2671.14 1825.99 L2677.58 1825.99 L2677.58 1825.99 L2683.89 1825.99 L2683.89 1825.99 L2690.20 1825.99 L2690.20 1825.99 L2696.51 1825.99 L2696.51 1825.99 L2702.82 1825.99 L2702.82 1825.99 L2709.26 1825.99 L2709.26 1825.99 L2715.57 1825.99 L2715.57 1825.99 L2721.88 1825.99 L2721.88 1825.99 L2728.19 1825.99 L2728.19 1825.99 L2734.50 1825.99 L2734.50 1825.99 L2740.82 1825.99 L2740.82 1825.99 L2747.25 1825.99 L2747.25 1825.86 L2753.56 1825.86 L2753.56 1825.25 L2759.87 1825.25 L2759.87 1825.25 L2766.18 1825.25 L2766.18 1825.25 L2772.49 1825.25 L2772.49 1825.25 L2778.93 1825.25 L2778.93 1825.00 L2785.24 1825.00 L2785.24 1824.75 L2791.55 1824.75 L2791.55 1824.63 L2797.86 1824.63 L2797.86 1823.76 L2804.18 1823.76 L2804.18 1822.15 L2810.49 1822.15 L2810.49 1820.91 L2816.92 1820.91 L2816.92 1819.80 L2823.23 1819.80 L2823.23 1819.06 L2829.54 1819.06 L2829.54 1818.19 L2835.86 1818.19 L2835.86 1815.59 L2842.17 1815.59 L2842.17 1812.00 L2848.60 1812.00 L2848.60 1807.67 L2854.91 1807.67 L2854.91 1802.35 L2861.22 1802.35 L2861.22 1798.39 L2867.53 1798.39 L2867.53 1795.17 L2873.85 1795.17 L2873.85 1791.21 L2880.28 1791.21 L2880.28 1785.52 L2886.59 1785.52 L2886.59 1779.95 L2892.90 1779.95 L2892.90 1775.62 L2899.22 1775.62 L2899.22 1771.29 L2905.53 1771.29 L2905.53 1767.33 L2911.84 1767.33 L2911.84 1762.75 L2918.27 1762.75 L2918.27 1758.05 L2924.58 1758.05 L2924.58 1753.47 L2930.89 1753.47 L2930.89 1748.15 L2937.21 1748.15 L2937.21 1744.68 L2943.52 1744.68 L2943.52 1741.34 L2949.95 1741.34 L2949.95 1738.74 L2956.26 1738.74 L2956.26 1735.77 L2962.57 1735.77 L2962.57 1733.17 L2968.89 1733.17 L2968.89 1730.20 L2975.20 1730.20 L2975.20 1726.99 L2981.51 1726.99 L2981.51 1724.88 L2987.94 1724.88 L2987.94 1723.40 L2994.26 1723.40 L2994.26 1721.54 L3000.57 1721.54 L3000.57 1719.93 L3006.88 1719.93 L3006.88 1717.70 L3013.19 1717.70 L3013.19 1715.60 L3019.62 1715.60 L3019.62 1713.62 L3025.93 1713.62 L3025.93 1712.75 L3032.25 1712.75 L3032.25 1710.53 L3038.56 1710.53 L3038.56 1708.42 L3044.87 1708.42 L3044.87 1707.18 L3051.30 1707.18 L3051.30 1706.32 L3057.61 1706.32 L3057.61 1705.58 L3063.93 1705.58 L3063.93 1704.46 L3070.24 1704.46 L3070.24 1703.10 L3076.55 1703.10 L3076.55 1702.23 L3082.86 1702.23 L3082.86 1701.62 L3089.30 1701.62 L3089.30 1701.00 L3095.61 1701.00 L3095.61 1700.01 L3101.92 1700.01 L3101.92 1699.39 L3108.23 1699.39 L3108.23 1698.89 L3114.54 1698.89 L3114.54 1698.27 L3120.97 1698.27 L3120.97 1696.29 L3127.29 1696.29 L3127.29 1696.05 L3133.60 1696.05 L3133.60 1695.68 L3139.91 1695.68 L3139.91 1695.18 L3146.22 1695.18 L3146.22 1694.56 L3152.53 1694.56 L3152.53 1693.82 L3158.97 1693.82 L3158.97 1693.32 L3165.28 1693.32 L3165.28 1692.33 L3171.59 1692.33 L3171.59 1692.33 L3177.90 1692.33 L3177.90 1691.47 L3184.21 1691.47 L3184.21 1690.48 L3190.65 1690.48 L3190.65 1690.23 L3196.96 1690.23 L3196.96 1689.86 L3203.27 1689.86 L3203.27 1689.61 L3209.58 1689.61 L3209.58 1689.49 L3215.89 1689.49 L3215.89 1688.25 L3222.33 1688.25 L3222.33 1688.00 L3228.64 1688.00 L3228.64 1688.00 L3234.95 1688.00 L3234.95 1687.63 L3241.26 1687.63 L3241.26 1686.77 L3247.57 1686.77 L3247.57 1686.39 L3253.88 1686.39 L3253.88 1685.90 L3260.32 1685.90 L3260.32 1685.53 L3266.63 1685.53 L3266.63 1685.16 L3272.94 1685.16 L3272.94 1684.91 L3279.25 1684.91 L3279.25 1684.54 L3285.56 1684.54 L3285.56 1684.54 L3292.00 1684.54 L3292.00 1684.29 L3298.31 1684.29 L3298.31 1684.04 L3304.62 1684.04 L3304.62 1683.67 L3310.93 1683.67 L3310.93 1683.42 L3317.24 1683.42 L3317.24 1683.42 L3323.55 1683.42 L3323.55 1682.68 L3329.99 1682.68 L3329.99 1682.68 L3336.30 1682.68 L3336.30 1682.06 L3342.61 1682.06 L3342.61 1682.06 L3348.92 1682.06 L3348.92 1681.44 L3355.23 1681.44 L3355.23 1681.44 L3361.67 1681.44 L3361.67 1681.44 L3367.98 1681.44 L3367.98 1680.95 L3374.29 1680.95 L3374.29 1680.95 L3380.60 1680.95 L3380.60 1680.95 L3386.91 1680.95 L3386.91 1680.83 L3393.35 1680.83 L3393.35 1680.58 L3399.66 1680.58 L3399.66 1680.33 L3405.97 1680.33 L3405.97 1680.21 L3412.28 1680.21 L3412.28 1679.96 L3418.59 1679.96 L3418.59 1679.96 L3424.91 1679.96 L3424.91 1679.96 L3431.34 1679.96 L3431.34 1679.59 L3437.65 1679.59 L3437.65 1679.59 L3443.96 1679.59 L3443.96 1679.59 L3450.27 1679.59 L3450.27 1679.09 L3456.59 1679.09 L3456.59 1679.09 L3463.02 1679.09 L3463.02 1679.09 L3469.33 1679.09 L3469.33 1679.09 L3475.64 1679.09 L3475.64 1678.97 L3481.95 1678.97 L3481.95 1678.97 L3488.26 1678.97 L3488.26 1678.72 L3494.58 1678.72 L3494.58 1678.72 L3501.01 1678.72 L3501.01 1678.47 L3507.32 1678.47 L3507.32 1678.47 L3513.63 1678.47 L3513.63 1678.35 L3519.95 1678.35 L3519.95 1678.35 L3526.26 1678.35 L3526.26 1678.35 L3532.69 1678.35 L3532.69 1678.35 L3539.00 1678.35 L3539.00 1678.35 L3545.31 1678.35 L3545.31 1677.85 L3551.63 1677.85 L3551.63 1677.85 L3557.94 1677.85 L3557.94 1677.85 L3564.37 1677.85 L3564.37 1677.73 L3570.68 1677.73 L3570.68 1677.73 L3576.99 1677.73 L3576.99 1677.48 L3583.30 1677.48 L3583.30 1677.24 L3589.62 1677.24 L3589.62 1677.24 L3595.93 1677.24 L3595.93 1677.24 L3602.36 1677.24 L3602.36 1677.11 L3608.67 1677.11 L3608.67 1677.11 L3614.99 1677.11 L3614.99 1677.11 L3621.30 1677.11 L3621.30 1677.11 L3627.61 1677.11 L3627.61 1676.86 L3634.04 1676.86 L3634.04 1676.86 L3640.35 1676.86 L3640.35 1676.62 L3646.66 1676.62 L3646.66 1676.49 L3652.98 1676.49 L3652.98 1676.49 L3672.03 1676.49 L3672.03 1676.49" stroke-linejoin="round" style="fill:none;stroke:#E37E00;stroke-width:6.48"/>
	<path d=" M2512.87 1825.99 L2519.18 1825.99 L2519.18 1825.99 L2525.49 1825.99 L2525.49 1825.99 L2531.80 1825.99 L2531.80 1825.99 L2538.11 1825.99 L2538.11 1825.99 L2544.55 1825.99 L2544.55 1825.99 L2550.86 1825.99 L2550.86 1825.99 L2557.17 1825.99 L2557.17 1825.99 L2563.48 1825.99 L2563.48 1825.99 L2569.79 1825.99 L2569.79 1825.99 L2576.23 1825.99 L2576.23 1825.99 L2582.54 1825.99 L2582.54 1825.99 L2588.85 1825.99 L2588.85 1825.99 L2595.16 1825.99 L2595.16 1825.99 L2601.47 1825.99 L2601.47 1825.99 L2607.91 1825.99 L2607.91 1825.99 L2614.22 1825.99 L2614.22 1825.99 L2620.53 1825.99 L2620.53 1825.99 L2626.84 1825.99 L2626.84 1825.99 L2633.15 1825.99 L2633.15 1825.99 L2639.46 1825.99 L2639.46 1825.99 L2645.90 1825.99 L2645.90 1825.99 L2652.21 1825.99 L2652.21 1825.99 L2658.52 1825.99 L2658.52 1825.99 L2664.83 1825.99 L2664.83 1825.99 L2671.14 1825.99 L2671.14 1825.99 L2677.58 1825.99 L2677.58 1825.99 L2683.89 1825.99 L2683.89 1825.99 L2690.20 1825.99 L2690.20 1825.99 L2696.51 1825.99 L2696.51 1825.62 L2702.82 1825.62 L2702.82 1825.62 L2709.26 1825.62 L2709.26 1825.62 L2715.57 1825.62 L2715.57 1825.62 L2721.88 1825.62 L2721.88 1825.62 L2728.19 1825.62 L2728.19 1825.25 L2734.50 1825.25 L2734.50 1825.25 L2740.82 1825.25 L2740.82 1825.25 L2747.25 1825.25 L2747.25 1825.25 L2753.56 1825.25 L2753.56 1824.01 L2759.87 1824.01 L2759.87 1824.01 L2766.18 1824.01 L2766.18 1823.14 L2772.49 1823.14 L2772.49 1823.14 L2778.93 1823.14 L2778.93 1822.65 L2785.24 1822.65 L2785.24 1821.90 L2791.55 1821.90 L2791.55 1819.80 L2797.86 1819.80 L2797.86 1818.07 L2804.18 1818.07 L2804.18 1817.70 L2810.49 1817.70 L2810.49 1815.59 L2816.92 1815.59 L2816.92 1813.49 L2823.23 1813.49 L2823.23 1811.39 L2829.54 1811.39 L2829.54 1806.81 L2835.86 1806.81 L2835.86 1803.47 L2842.17 1803.47 L2842.17 1801.49 L2848.60 1801.49 L2848.60 1799.38 L2854.91 1799.38 L2854.91 1793.94 L2861.22 1793.94 L2861.22 1787.62 L2867.53 1787.62 L2867.53 1780.20 L2873.85 1780.20 L2873.85 1774.26 L2880.28 1774.26 L2880.28 1764.36 L2886.59 1764.36 L2886.59 1757.68 L2892.90 1757.68 L2892.90 1752.60 L2899.22 1752.60 L2899.22 1747.65 L2905.53 1747.65 L2905.53 1738.87 L2911.84 1738.87 L2911.84 1730.57 L2918.27 1730.57 L2918.27 1723.40 L2924.58 1723.40 L2924.58 1715.85 L2930.89 1715.85 L2930.89 1705.95 L2937.21 1705.95 L2937.21 1696.29 L2943.52 1696.29 L2943.52 1691.72 L2949.95 1691.72 L2949.95 1685.90 L2956.26 1685.90 L2956.26 1679.59 L2962.57 1679.59 L2962.57 1674.64 L2968.89 1674.64 L2968.89 1670.80 L2975.20 1670.80 L2975.20 1666.22 L2981.51 1666.22 L2981.51 1664.12 L2987.94 1664.12 L2987.94 1659.17 L2994.26 1659.17 L2994.26 1656.20 L3000.57 1656.20 L3000.57 1652.86 L3006.88 1652.86 L3006.88 1650.01 L3013.19 1650.01 L3013.19 1645.80 L3019.62 1645.80 L3019.62 1644.57 L3025.93 1644.57 L3025.93 1642.46 L3032.25 1642.46 L3032.25 1637.88 L3038.56 1637.88 L3038.56 1635.41 L3044.87 1635.41 L3044.87 1633.67 L3051.30 1633.67 L3051.30 1631.20 L3057.61 1631.20 L3057.61 1628.72 L3063.93 1628.72 L3063.93 1626.13 L3070.24 1626.13 L3070.24 1623.28 L3076.55 1623.28 L3076.55 1621.55 L3082.86 1621.55 L3082.86 1620.31 L3089.30 1620.31 L3089.30 1619.07 L3095.61 1619.07 L3095.61 1617.83 L3101.92 1617.83 L3101.92 1616.97 L3108.23 1616.97 L3108.23 1613.63 L3114.54 1613.63 L3114.54 1611.15 L3120.97 1611.15 L3120.97 1608.18 L3127.29 1608.18 L3127.29 1606.94 L3133.60 1606.94 L3133.60 1605.71 L3139.91 1605.71 L3139.91 1605.34 L3146.22 1605.34 L3146.22 1602.86 L3152.53 1602.86 L3152.53 1601.13 L3158.97 1601.13 L3158.97 1599.52 L3165.28 1599.52 L3165.28 1599.52 L3171.59 1599.52 L3171.59 1598.16 L3177.90 1598.16 L3177.90 1597.79 L3184.21 1597.79 L3184.21 1596.92 L3190.65 1596.92 L3190.65 1595.68 L3196.96 1595.68 L3196.96 1594.44 L3203.27 1594.44 L3203.27 1594.07 L3209.58 1594.07 L3209.58 1592.84 L3215.89 1592.84 L3215.89 1592.34 L3222.33 1592.34 L3222.33 1592.34 L3228.64 1592.34 L3228.64 1592.34 L3234.95 1592.34 L3234.95 1592.34 L3241.26 1592.34 L3241.26 1591.97 L3247.57 1591.97 L3247.57 1590.73 L3253.88 1590.73 L3253.88 1589.00 L3260.32 1589.00 L3260.32 1588.63 L3266.63 1588.63 L3266.63 1586.52 L3272.94 1586.52 L3272.94 1586.52 L3279.25 1586.52 L3279.25 1585.29 L3285.56 1585.29 L3285.56 1584.79 L3292.00 1584.79 L3292.00 1583.55 L3298.31 1583.55 L3298.31 1583.18 L3304.62 1583.18 L3304.62 1582.32 L3310.93 1582.32 L3310.93 1581.08 L3317.24 1581.08 L3317.24 1581.08 L3323.55 1581.08 L3323.55 1580.21 L3329.99 1580.21 L3329.99 1579.84 L3336.30 1579.84 L3336.30 1579.47 L3342.61 1579.47 L3342.61 1578.98 L3348.92 1578.98 L3348.92 1578.98 L3355.23 1578.98 L3355.23 1578.11 L3361.67 1578.11 L3361.67 1578.11 L3367.98 1578.11 L3367.98 1578.11 L3374.29 1578.11 L3374.29 1576.87 L3380.60 1576.87 L3380.60 1576.87 L3386.91 1576.87 L3386.91 1576.87 L3393.35 1576.87 L3393.35 1576.87 L3399.66 1576.87 L3399.66 1576.87 L3405.97 1576.87 L3405.97 1576.87 L3412.28 1576.87 L3412.28 1576.13 L3418.59 1576.13 L3418.59 1575.63 L3424.91 1575.63 L3424.91 1574.77 L3431.34 1574.77 L3431.34 1574.40 L3437.65 1574.40 L3437.65 1574.40 L3443.96 1574.40 L3443.96 1574.40 L3450.27 1574.40 L3450.27 1573.53 L3456.59 1573.53 L3456.59 1573.53 L3463.02 1573.53 L3463.02 1573.16 L3469.33 1573.16 L3469.33 1573.16 L3475.64 1573.16 L3475.64 1573.16 L3481.95 1573.16 L3481.95 1573.16 L3488.26 1573.16 L3488.26 1573.16 L3494.58 1573.16 L3494.58 1573.16 L3501.01 1573.16 L3501.01 1573.16 L3507.32 1573.16 L3507.32 1573.16 L3513.63 1573.16 L3513.63 1572.79 L3519.95 1572.79 L3519.95 1571.92 L3526.26 1571.92 L3526.26 1571.92 L3532.69 1571.92 L3532.69 1571.92 L3539.00 1571.92 L3539.00 1571.92 L3545.31 1571.92 L3545.31 1571.92 L3551.63 1571.92 L3551.63 1571.92 L3557.94 1571.92 L3557.94 1571.92 L3564.37 1571.92 L3564.37 1571.92 L3570.68 1571.92 L3570.68 1571.92 L3576.99 1571.92 L3576.99 1571.92 L3583.30 1571.92 L3583.30 1571.92 L3589.62 1571.92 L3589.62 1571.92 L3595.93 1571.92 L3595.93 1571.92 L3602.36 1571.92 L3602.36 1571.43 L3608.67 1571.43 L3608.67 1571.43 L3614.99 1571.43 L3614.99 1571.43 L3621.30 1571.43 L3621.30 1571.43 L3627.61 1571.43 L3627.61 1571.43 L3634.04 1571.43 L3634.04 1571.43 L3640.35 1571.43 L3640.35 1571.43 L3646.66 1571.43 L3646.66 1571.43 L3659.29 1571.43 L3659.29 1571.43 L3672.03 1571.43 L3672.03 1571.43" stroke-linejoin="round" style="fill:none;stroke:#6E8E84;stroke-width:6.48"/>
	<line x1="2459.04" y1="1873.51" x2="2459.04" y2="414.45" style="stroke:#000000;stroke-width:4.32"/>
	<line x1="2459.04" y1="1825.99" x2="2429.09" y2="1825.99" style="stroke:#000000;stroke-width:4.32"/>
	<text x="2413.99" y="1852.27" style="font-family:'Helvetica';font-size:74.99px;fill:#000000" text-anchor="end">0.000</text>
	<line x1="2459.04" y1="1280.36" x2="2429.09" y2="1280.36" style="stroke:#000000;stroke-width:4.32"/>
	<text x="2413.99" y="1306.64" style="font-family:'Helvetica';font-size:74.99px;fill:#000000" text-anchor="end">0.002</text>
	<line x1="2459.04" y1="734.73" x2="2429.09" y2="734.73" style="stroke:#000000;stroke-width:4.32"/>
	<text x="2413.99" y="761.01" style="font-family:'Helvetica';font-size:74.99px;fill:#000000" text-anchor="end">0.004</text>
	<line x1="2459.04" y1="1873.51" x2="3820.91" y2="1873.51" style="stroke:#000000;stroke-width:4.32"/>
	<line x1="2506.56" y1="1873.51" x2="2506.56" y2="1903.46" style="stroke:#000000;stroke-width:4.32"/>
	<text x="2506.56" y="1970.87" style="font-family:'Helvetica';font-size:74.99px;fill:#000000" text-anchor="middle">1 Feb 20</text>
	<line x1="2690.20" y1="1873.51" x2="2690.20" y2="1903.46" style="stroke:#000000;stroke-width:4.32"/>
	<text x="2690.20" y="1970.87" style="font-family:'Helvetica';font-size:74.99px;fill:#000000" text-anchor="middle">1 Mar 20</text>
	<line x1="2886.59" y1="1873.51" x2="2886.59" y2="1903.46" style="stroke:#000000;stroke-width:4.32"/>
	<text x="2886.59" y="1970.87" style="font-family:'Helvetica';font-size:74.99px;fill:#000000" text-anchor="middle">1 Apr 20</text>
	<line x1="3082.98" y1="1873.51" x2="3082.98" y2="1903.46" style="stroke:#000000;stroke-width:4.32"/>
	<text x="3082.98" y="1970.87" style="font-family:'Helvetica';font-size:74.99px;fill:#000000" text-anchor="middle">1 May 20</text>
	<line x1="3272.94" y1="1873.51" x2="3272.94" y2="1903.46" style="stroke:#000000;stroke-width:4.32"/>
	<text x="3272.94" y="1970.87" style="font-family:'Helvetica';font-size:74.99px;fill:#000000" text-anchor="middle">1 June 20</text>
	<line x1="3463.02" y1="1873.51" x2="3463.02" y2="1903.46" style="stroke:#000000;stroke-width:4.32"/>
	<text x="3463.02" y="1970.87" style="font-family:'Helvetica';font-size:74.99px;fill:#000000" text-anchor="middle">1 July 20</text>
	<line x1="3659.41" y1="1873.51" x2="3659.41" y2="1903.46" style="stroke:#000000;stroke-width:4.32"/>
	<text x="3659.41" y="1970.87" style="font-family:'Helvetica';font-size:74.99px;fill:#000000" text-anchor="middle">1 Aug 20</text>
	<text x="3140.03" y="2053.41" style="font-family:'Helvetica';font-size:74.99px;fill:#000000" text-anchor="middle"> </text>
	<text x="3140.03" y="369.91" style="font-family:'Helvetica';font-size:104.94px;fill:#1E2D53" text-anchor="middle">Male</text>
	<text x="150.62" y="1187.29" style="font-family:'Helvetica';font-size:99.99px;fill:#000000" transform="rotate(-90 150.62,1187.29)" text-anchor="middle">Cumulative probability</text>
	<text x="250.61" y="1187.29" style="font-family:'Helvetica';font-size:99.99px;fill:#000000" transform="rotate(-90 250.61,1187.29)" text-anchor="middle">of COVID-19 death</text>
	<text x="2097.19" y="157.51" style="font-family:'Helvetica';font-size:110.01px;fill:#000000" text-anchor="middle"> </text>
	<rect x="1114.86" y="2201.21" width="1964.66" height="580.90" style="fill:#FFFFFF"/>
	<rect x="1117.74" y="2204.09" width="1958.90" height="575.14" style="fill:none;stroke:#000000;stroke-width:5.76"/>
	<line x1="1158.05" y1="2408.87" x2="1532.52" y2="2408.87" style="stroke:#1A476F;stroke-width:8.64"/>
	<line x1="1158.05" y1="2548.83" x2="1532.52" y2="2548.83" style="stroke:#90353B;stroke-width:8.64"/>
	<line x1="1158.05" y1="2688.92" x2="1532.52" y2="2688.92" style="stroke:#55752F;stroke-width:8.64"/>
	<line x1="1996.09" y1="2408.87" x2="2370.43" y2="2408.87" style="stroke:#E37E00;stroke-width:8.64"/>
	<line x1="1996.09" y1="2548.83" x2="2370.43" y2="2548.83" style="stroke:#6E8E84;stroke-width:8.64"/>
	<text x="1592.54" y="2436.88" style="font-family:'Helvetica';font-size:79.94px;fill:#000000">18-&lt;30</text>
	<text x="1592.54" y="2576.85" style="font-family:'Helvetica';font-size:79.94px;fill:#000000">30-&lt;40</text>
	<text x="1592.54" y="2716.94" style="font-family:'Helvetica';font-size:79.94px;fill:#000000">40-&lt;50</text>
	<text x="2430.45" y="2436.88" style="font-family:'Helvetica';font-size:79.94px;fill:#000000">50-&lt;60</text>
	<text x="2430.45" y="2576.85" style="font-family:'Helvetica';font-size:79.94px;fill:#000000">60-&lt;70</text>
	<text x="2430.45" y="2716.94" style="font-family:'Helvetica';font-size:79.94px;fill:#000000">70-&lt;80</text>
	<text x="2894.02" y="2436.88" style="font-family:'Helvetica';font-size:79.94px;fill:#000000">80+</text>
	<text x="2097.19" y="2308.96" style="font-family:'Helvetica';font-size:79.94px;fill:#000000" text-anchor="middle">Age group</text>
</svg>
