<?xml version="1.0" encoding="UTF-8" standalone="no"?>
<!-- This is a Stata 16.1 generated SVG file (http://www.stata.com) -->

<svg version="1.1" width="5.50in" height="4.00in" viewBox="0 0 3960 2880" xmlns="http://www.w3.org/2000/svg" xmlns:xlink="http://www.w3.org/1999/xlink">
	<desc>Stata Graph - Graph</desc>
	<rect x="0" y="0" width="3960" height="2880" style="fill:#EAF2F3;stroke:none"/>
	<rect x="0.00" y="0.00" width="3959.88" height="2880.00" style="fill:#EAF2F3"/>
	<rect x="2.88" y="2.88" width="3954.12" height="2874.24" style="fill:none;stroke:#EAF2F3;stroke-width:5.76"/>
	<rect x="297.87" y="207.91" width="1799.32" height="1958.65" style="fill:#EAF2F3"/>
	<rect x="300.03" y="210.07" width="1795.01" height="1954.33" style="fill:none;stroke:#EAF2F3;stroke-width:4.32"/>
	<rect x="659.71" y="414.45" width="1361.87" height="1459.06" style="fill:#FFFFFF"/>
	<rect x="661.87" y="416.61" width="1357.55" height="1454.74" style="fill:none;stroke:#FFFFFF;stroke-width:4.32"/>
	<line x1="659.71" y1="1825.99" x2="2021.58" y2="1825.99" style="stroke:#EAF2F3;stroke-width:6.48"/>
	<line x1="659.71" y1="1280.36" x2="2021.58" y2="1280.36" style="stroke:#EAF2F3;stroke-width:6.48"/>
	<line x1="659.71" y1="734.73" x2="2021.58" y2="734.73" style="stroke:#EAF2F3;stroke-width:6.48"/>
	<path d=" M713.54 1825.99 L719.85 1825.99 L719.85 1825.99 L726.16 1825.99 L726.16 1825.99 L732.48 1825.99 L732.48 1825.99 L738.91 1825.99 L738.91 1825.99 L745.22 1825.99 L745.22 1825.99 L751.53 1825.99 L751.53 1825.99 L757.85 1825.99 L757.85 1825.99 L764.16 1825.99 L764.16 1825.99 L770.59 1825.99 L770.59 1825.99 L776.90 1825.99 L776.90 1825.99 L783.21 1825.99 L783.21 1825.99 L789.52 1825.99 L789.52 1825.99 L795.84 1825.99 L795.84 1825.99 L802.27 1825.99 L802.27 1825.99 L808.58 1825.99 L808.58 1825.99 L814.89 1825.99 L814.89 1825.99 L821.21 1825.99 L821.21 1825.99 L827.52 1825.99 L827.52 1825.99 L833.83 1825.99 L833.83 1825.99 L840.26 1825.99 L840.26 1825.99 L846.57 1825.99 L846.57 1825.99 L852.88 1825.99 L852.88 1825.99 L859.20 1825.99 L859.20 1825.99 L865.51 1825.99 L865.51 1825.99 L871.94 1825.99 L871.94 1825.99 L878.25 1825.99 L878.25 1825.99 L884.57 1825.99 L884.57 1825.99 L890.88 1825.99 L890.88 1825.99 L897.19 1825.99 L897.19 1825.99 L903.50 1825.99 L903.50 1825.99 L909.93 1825.99 L909.93 1825.99 L916.25 1825.99 L916.25 1825.99 L922.56 1825.99 L922.56 1825.99 L928.87 1825.99 L928.87 1825.37 L935.18 1825.37 L935.18 1824.75 L941.61 1824.75 L941.61 1824.01 L947.92 1824.01 L947.92 1824.01 L954.24 1824.01 L954.24 1824.01 L960.55 1824.01 L960.55 1823.39 L966.86 1823.39 L966.86 1823.39 L973.29 1823.39 L973.29 1823.39 L979.61 1823.39 L979.61 1822.65 L985.92 1822.65 L985.92 1822.03 L992.23 1822.03 L992.23 1821.41 L998.54 1821.41 L998.54 1820.67 L1004.85 1820.67 L1004.85 1820.05 L1011.28 1820.05 L1011.28 1819.31 L1017.60 1819.31 L1017.60 1819.31 L1023.91 1819.31 L1023.91 1817.33 L1030.22 1817.33 L1030.22 1817.33 L1036.53 1817.33 L1036.53 1814.73 L1042.96 1814.73 L1042.96 1812.75 L1049.28 1812.75 L1049.28 1810.02 L1055.59 1810.02 L1055.59 1805.32 L1061.90 1805.32 L1061.90 1802.72 L1068.21 1802.72 L1068.21 1801.36 L1074.52 1801.36 L1074.52 1800.00 L1080.96 1800.00 L1080.96 1796.04 L1087.27 1796.04 L1087.27 1794.06 L1093.58 1794.06 L1093.58 1790.72 L1099.89 1790.72 L1099.89 1786.02 L1106.20 1786.02 L1106.20 1782.06 L1112.64 1782.06 L1112.64 1777.35 L1118.95 1777.35 L1118.95 1773.27 L1125.26 1773.27 L1125.26 1768.69 L1131.57 1768.69 L1131.57 1765.35 L1137.88 1765.35 L1137.88 1762.01 L1144.32 1762.01 L1144.32 1756.69 L1150.63 1756.69 L1150.63 1749.26 L1156.94 1749.26 L1156.94 1745.30 L1163.25 1745.30 L1163.25 1743.32 L1169.56 1743.32 L1169.56 1740.60 L1175.87 1740.60 L1175.87 1739.98 L1182.31 1739.98 L1182.31 1736.64 L1188.62 1736.64 L1188.62 1733.92 L1194.93 1733.92 L1194.93 1731.94 L1201.24 1731.94 L1201.24 1727.23 L1207.55 1727.23 L1207.55 1726.61 L1213.99 1726.61 L1213.99 1723.27 L1220.30 1723.27 L1220.30 1721.91 L1226.61 1721.91 L1226.61 1719.93 L1232.92 1719.93 L1232.92 1717.95 L1239.23 1717.95 L1239.23 1715.23 L1245.54 1715.23 L1245.54 1713.87 L1251.98 1713.87 L1251.98 1712.63 L1258.29 1712.63 L1258.29 1711.89 L1264.60 1711.89 L1264.60 1709.91 L1270.91 1709.91 L1270.91 1707.18 L1277.22 1707.18 L1277.22 1704.59 L1283.66 1704.59 L1283.66 1703.22 L1289.97 1703.22 L1289.97 1703.22 L1296.28 1703.22 L1296.28 1701.86 L1302.59 1701.86 L1302.59 1699.88 L1308.90 1699.88 L1308.90 1697.90 L1315.34 1697.90 L1315.34 1697.28 L1321.65 1697.28 L1321.65 1695.92 L1327.96 1695.92 L1327.96 1693.20 L1334.27 1693.20 L1334.27 1692.58 L1340.58 1692.58 L1340.58 1690.60 L1346.89 1690.60 L1346.89 1687.26 L1353.33 1687.26 L1353.33 1685.90 L1359.64 1685.90 L1359.64 1685.16 L1365.95 1685.16 L1365.95 1683.18 L1372.26 1683.18 L1372.26 1683.18 L1378.58 1683.18 L1378.58 1682.56 L1385.01 1682.56 L1385.01 1682.56 L1391.32 1682.56 L1391.32 1682.56 L1397.63 1682.56 L1397.63 1681.20 L1403.94 1681.20 L1403.94 1681.20 L1410.26 1681.20 L1410.26 1680.58 L1416.57 1680.58 L1416.57 1680.58 L1423.00 1680.58 L1423.00 1679.22 L1429.31 1679.22 L1429.31 1679.22 L1435.62 1679.22 L1435.62 1679.22 L1441.93 1679.22 L1441.93 1679.22 L1448.25 1679.22 L1448.25 1678.47 L1454.68 1678.47 L1454.68 1677.24 L1460.99 1677.24 L1460.99 1677.24 L1467.30 1677.24 L1467.30 1676.49 L1473.62 1676.49 L1473.62 1676.49 L1479.93 1676.49 L1479.93 1673.89 L1486.36 1673.89 L1486.36 1673.15 L1492.67 1673.15 L1492.67 1672.53 L1498.98 1672.53 L1498.98 1672.53 L1505.30 1672.53 L1505.30 1672.53 L1511.61 1672.53 L1511.61 1672.53 L1517.92 1672.53 L1517.92 1671.17 L1524.35 1671.17 L1524.35 1671.17 L1530.66 1671.17 L1530.66 1671.17 L1536.97 1671.17 L1536.97 1671.17 L1543.29 1671.17 L1543.29 1670.55 L1549.60 1670.55 L1549.60 1670.55 L1556.03 1670.55 L1556.03 1670.55 L1562.34 1670.55 L1562.34 1669.19 L1568.65 1669.19 L1568.65 1668.45 L1574.97 1668.45 L1574.97 1668.45 L1581.28 1668.45 L1581.28 1668.45 L1587.59 1668.45 L1587.59 1668.45 L1594.02 1668.45 L1594.02 1668.45 L1600.34 1668.45 L1600.34 1667.83 L1606.65 1667.83 L1606.65 1666.47 L1612.96 1666.47 L1612.96 1665.85 L1619.27 1665.85 L1619.27 1665.11 L1625.70 1665.11 L1625.70 1665.11 L1632.02 1665.11 L1632.02 1663.87 L1638.33 1663.87 L1638.33 1663.13 L1644.64 1663.13 L1644.64 1663.13 L1650.95 1663.13 L1650.95 1663.13 L1657.38 1663.13 L1657.38 1662.51 L1663.69 1662.51 L1663.69 1662.51 L1670.01 1662.51 L1670.01 1661.77 L1676.32 1661.77 L1676.32 1661.77 L1682.63 1661.77 L1682.63 1661.77 L1688.94 1661.77 L1688.94 1661.15 L1695.38 1661.15 L1695.38 1661.15 L1701.69 1661.15 L1701.69 1661.15 L1708.00 1661.15 L1708.00 1661.15 L1714.31 1661.15 L1714.31 1661.15 L1720.62 1661.15 L1720.62 1660.53 L1727.06 1660.53 L1727.06 1660.53 L1733.37 1660.53 L1733.37 1660.53 L1739.68 1660.53 L1739.68 1660.53 L1745.99 1660.53 L1745.99 1659.79 L1752.30 1659.79 L1752.30 1659.79 L1758.73 1659.79 L1758.73 1659.79 L1765.05 1659.79 L1765.05 1659.17 L1771.36 1659.17 L1771.36 1659.17 L1777.67 1659.17 L1777.67 1659.17 L1783.98 1659.17 L1783.98 1659.17 L1790.29 1659.17 L1790.29 1659.17 L1796.73 1659.17 L1796.73 1659.17 L1803.04 1659.17 L1803.04 1658.43 L1809.35 1658.43 L1809.35 1658.43 L1815.66 1658.43 L1815.66 1657.81 L1821.97 1657.81 L1821.97 1657.81 L1828.41 1657.81 L1828.41 1657.81 L1834.72 1657.81 L1834.72 1657.81 L1841.03 1657.81 L1841.03 1657.81 L1847.34 1657.81 L1847.34 1657.81 L1872.71 1657.81 L1872.71 1657.81" stroke-linejoin="round" style="fill:none;stroke:#1A476F;stroke-width:6.48"/>
	<path d=" M713.54 1825.99 L719.85 1825.99 L719.85 1825.99 L726.16 1825.99 L726.16 1825.99 L732.48 1825.99 L732.48 1825.99 L738.91 1825.99 L738.91 1825.99 L745.22 1825.99 L745.22 1825.99 L751.53 1825.99 L751.53 1825.99 L757.85 1825.99 L757.85 1825.99 L764.16 1825.99 L764.16 1825.99 L770.59 1825.99 L770.59 1825.99 L776.90 1825.99 L776.90 1825.99 L783.21 1825.99 L783.21 1825.99 L789.52 1825.99 L789.52 1825.99 L795.84 1825.99 L795.84 1825.99 L802.27 1825.99 L802.27 1825.99 L808.58 1825.99 L808.58 1825.99 L814.89 1825.99 L814.89 1825.99 L821.21 1825.99 L821.21 1825.99 L827.52 1825.99 L827.52 1825.99 L833.83 1825.99 L833.83 1825.99 L840.26 1825.99 L840.26 1825.99 L846.57 1825.99 L846.57 1825.99 L852.88 1825.99 L852.88 1825.99 L859.20 1825.99 L859.20 1825.99 L865.51 1825.99 L865.51 1825.99 L871.94 1825.99 L871.94 1825.99 L878.25 1825.99 L878.25 1825.99 L884.57 1825.99 L884.57 1825.99 L890.88 1825.99 L890.88 1825.99 L897.19 1825.99 L897.19 1825.99 L903.50 1825.99 L903.50 1825.99 L909.93 1825.99 L909.93 1825.99 L916.25 1825.99 L916.25 1825.99 L922.56 1825.99 L922.56 1825.99 L928.87 1825.99 L928.87 1825.99 L935.18 1825.99 L935.18 1825.99 L941.61 1825.99 L941.61 1825.74 L947.92 1825.74 L947.92 1825.74 L954.24 1825.74 L954.24 1825.74 L960.55 1825.74 L960.55 1825.74 L966.86 1825.74 L966.86 1825.74 L973.29 1825.74 L973.29 1825.74 L979.61 1825.74 L979.61 1825.74 L985.92 1825.74 L985.92 1825.74 L992.23 1825.74 L992.23 1825.74 L998.54 1825.74 L998.54 1825.12 L1004.85 1825.12 L1004.85 1825.12 L1011.28 1825.12 L1011.28 1824.26 L1017.60 1824.26 L1017.60 1823.02 L1023.91 1823.02 L1023.91 1821.78 L1030.22 1821.78 L1030.22 1820.05 L1036.53 1820.05 L1036.53 1817.57 L1042.96 1817.57 L1042.96 1814.23 L1049.28 1814.23 L1049.28 1810.89 L1055.59 1810.89 L1055.59 1807.30 L1061.90 1807.30 L1061.90 1802.23 L1068.21 1802.23 L1068.21 1797.03 L1074.52 1797.03 L1074.52 1793.07 L1080.96 1793.07 L1080.96 1788.00 L1087.27 1788.00 L1087.27 1783.17 L1093.58 1783.17 L1093.58 1775.25 L1099.89 1775.25 L1099.89 1766.83 L1106.20 1766.83 L1106.20 1758.05 L1112.64 1758.05 L1112.64 1748.77 L1118.95 1748.77 L1118.95 1741.84 L1125.26 1741.84 L1125.26 1733.92 L1131.57 1733.92 L1131.57 1725.75 L1137.88 1725.75 L1137.88 1718.57 L1144.32 1718.57 L1144.32 1712.13 L1150.63 1712.13 L1150.63 1705.82 L1156.94 1705.82 L1156.94 1697.41 L1163.25 1697.41 L1163.25 1692.58 L1169.56 1692.58 L1169.56 1686.77 L1175.87 1686.77 L1175.87 1681.32 L1182.31 1681.32 L1182.31 1676.49 L1188.62 1676.49 L1188.62 1672.90 L1194.93 1672.90 L1194.93 1668.94 L1201.24 1668.94 L1201.24 1664.98 L1207.55 1664.98 L1207.55 1660.53 L1213.99 1660.53 L1213.99 1656.57 L1220.30 1656.57 L1220.30 1652.36 L1226.61 1652.36 L1226.61 1647.16 L1232.92 1647.16 L1232.92 1644.44 L1239.23 1644.44 L1239.23 1640.23 L1245.54 1640.23 L1245.54 1636.64 L1251.98 1636.64 L1251.98 1632.31 L1258.29 1632.31 L1258.29 1630.21 L1264.60 1630.21 L1264.60 1625.14 L1270.91 1625.14 L1270.91 1620.93 L1277.22 1620.93 L1277.22 1616.60 L1283.66 1616.60 L1283.66 1615.11 L1289.97 1615.11 L1289.97 1613.01 L1296.28 1613.01 L1296.28 1607.56 L1302.59 1607.56 L1302.59 1604.59 L1308.90 1604.59 L1308.90 1602.37 L1315.34 1602.37 L1315.34 1601.25 L1321.65 1601.25 L1321.65 1599.15 L1327.96 1599.15 L1327.96 1597.91 L1334.27 1597.91 L1334.27 1596.42 L1340.58 1596.42 L1340.58 1595.43 L1346.89 1595.43 L1346.89 1593.70 L1353.33 1593.70 L1353.33 1591.23 L1359.64 1591.23 L1359.64 1590.36 L1365.95 1590.36 L1365.95 1588.26 L1372.26 1588.26 L1372.26 1587.89 L1378.58 1587.89 L1378.58 1586.03 L1385.01 1586.03 L1385.01 1583.93 L1391.32 1583.93 L1391.32 1582.81 L1397.63 1582.81 L1397.63 1580.96 L1403.94 1580.96 L1403.94 1578.48 L1410.26 1578.48 L1410.26 1576.38 L1416.57 1576.38 L1416.57 1574.03 L1423.00 1574.03 L1423.00 1572.79 L1429.31 1572.79 L1429.31 1570.31 L1435.62 1570.31 L1435.62 1568.83 L1441.93 1568.83 L1441.93 1568.83 L1448.25 1568.83 L1448.25 1567.34 L1454.68 1567.34 L1454.68 1565.86 L1460.99 1565.86 L1460.99 1563.01 L1467.30 1563.01 L1467.30 1562.15 L1473.62 1562.15 L1473.62 1559.79 L1479.93 1559.79 L1479.93 1559.17 L1486.36 1559.17 L1486.36 1557.94 L1492.67 1557.94 L1492.67 1557.07 L1498.98 1557.07 L1498.98 1555.83 L1505.30 1555.83 L1505.30 1555.21 L1511.61 1555.21 L1511.61 1554.35 L1517.92 1554.35 L1517.92 1553.11 L1524.35 1553.11 L1524.35 1552.12 L1530.66 1552.12 L1530.66 1551.01 L1536.97 1551.01 L1536.97 1550.39 L1543.29 1550.39 L1543.29 1550.02 L1549.60 1550.02 L1549.60 1549.15 L1556.03 1549.15 L1556.03 1548.53 L1562.34 1548.53 L1562.34 1547.05 L1568.65 1547.05 L1568.65 1546.06 L1574.97 1546.06 L1574.97 1545.56 L1581.28 1545.56 L1581.28 1545.19 L1587.59 1545.19 L1587.59 1544.57 L1594.02 1544.57 L1594.02 1543.71 L1600.34 1543.71 L1600.34 1543.33 L1606.65 1543.33 L1606.65 1543.33 L1612.96 1543.33 L1612.96 1542.47 L1619.27 1542.47 L1619.27 1541.60 L1625.70 1541.60 L1625.70 1540.98 L1632.02 1540.98 L1632.02 1539.99 L1638.33 1539.99 L1638.33 1539.99 L1644.64 1539.99 L1644.64 1539.75 L1650.95 1539.75 L1650.95 1538.88 L1657.38 1538.88 L1657.38 1538.26 L1663.69 1538.26 L1663.69 1538.26 L1670.01 1538.26 L1670.01 1538.26 L1676.32 1538.26 L1676.32 1537.89 L1682.63 1537.89 L1682.63 1536.40 L1688.94 1536.40 L1688.94 1536.16 L1695.38 1536.16 L1695.38 1536.16 L1701.69 1536.16 L1701.69 1535.79 L1708.00 1535.79 L1708.00 1534.55 L1714.31 1534.55 L1714.31 1534.55 L1720.62 1534.55 L1720.62 1534.55 L1727.06 1534.55 L1727.06 1534.55 L1733.37 1534.55 L1733.37 1533.93 L1739.68 1533.93 L1739.68 1533.43 L1745.99 1533.43 L1745.99 1533.06 L1752.30 1533.06 L1752.30 1532.20 L1758.73 1532.20 L1758.73 1531.83 L1765.05 1531.83 L1765.05 1531.21 L1771.36 1531.21 L1771.36 1530.59 L1777.67 1530.59 L1777.67 1530.59 L1783.98 1530.59 L1783.98 1530.09 L1790.29 1530.09 L1790.29 1530.09 L1796.73 1530.09 L1796.73 1529.72 L1803.04 1529.72 L1803.04 1529.47 L1809.35 1529.47 L1809.35 1529.47 L1815.66 1529.47 L1815.66 1529.47 L1821.97 1529.47 L1821.97 1528.86 L1828.41 1528.86 L1828.41 1528.86 L1834.72 1528.86 L1834.72 1528.86 L1841.03 1528.86 L1841.03 1528.86 L1847.34 1528.86 L1847.34 1528.86 L1853.65 1528.86 L1853.65 1528.86 L1866.40 1528.86 L1866.40 1528.48 L1872.71 1528.48 L1872.71 1528.48" stroke-linejoin="round" style="fill:none;stroke:#90353B;stroke-width:6.48"/>
	<path d=" M713.54 1825.99 L719.85 1825.99 L719.85 1825.99 L726.16 1825.99 L726.16 1825.99 L732.48 1825.99 L732.48 1825.99 L738.91 1825.99 L738.91 1825.99 L745.22 1825.99 L745.22 1825.99 L751.53 1825.99 L751.53 1825.99 L757.85 1825.99 L757.85 1825.99 L764.16 1825.99 L764.16 1825.99 L770.59 1825.99 L770.59 1825.99 L776.90 1825.99 L776.90 1825.99 L783.21 1825.99 L783.21 1825.99 L789.52 1825.99 L789.52 1825.99 L795.84 1825.99 L795.84 1825.99 L802.27 1825.99 L802.27 1825.99 L808.58 1825.99 L808.58 1825.99 L814.89 1825.99 L814.89 1825.99 L821.21 1825.99 L821.21 1825.99 L827.52 1825.99 L827.52 1825.99 L833.83 1825.99 L833.83 1825.99 L840.26 1825.99 L840.26 1825.99 L846.57 1825.99 L846.57 1825.99 L852.88 1825.99 L852.88 1825.99 L859.20 1825.99 L859.20 1825.99 L865.51 1825.99 L865.51 1825.99 L871.94 1825.99 L871.94 1825.99 L878.25 1825.99 L878.25 1825.99 L884.57 1825.99 L884.57 1825.99 L890.88 1825.99 L890.88 1825.99 L897.19 1825.99 L897.19 1825.99 L903.50 1825.99 L903.50 1825.99 L909.93 1825.99 L909.93 1825.99 L916.25 1825.99 L916.25 1825.99 L922.56 1825.99 L922.56 1825.99 L928.87 1825.99 L928.87 1825.99 L935.18 1825.99 L935.18 1825.99 L941.61 1825.99 L941.61 1825.99 L947.92 1825.99 L947.92 1825.49 L954.24 1825.49 L954.24 1825.49 L960.55 1825.49 L960.55 1825.49 L966.86 1825.49 L966.86 1825.49 L973.29 1825.49 L973.29 1825.49 L979.61 1825.49 L979.61 1825.49 L985.92 1825.49 L985.92 1823.51 L992.23 1823.51 L992.23 1822.52 L998.54 1822.52 L998.54 1822.03 L1004.85 1822.03 L1004.85 1821.04 L1011.28 1821.04 L1011.28 1820.05 L1017.60 1820.05 L1017.60 1817.70 L1023.91 1817.70 L1023.91 1815.72 L1030.22 1815.72 L1030.22 1811.26 L1036.53 1811.26 L1036.53 1805.82 L1042.96 1805.82 L1042.96 1803.34 L1049.28 1803.34 L1049.28 1797.90 L1055.59 1797.90 L1055.59 1788.00 L1061.90 1788.00 L1061.90 1779.58 L1068.21 1779.58 L1068.21 1773.15 L1074.52 1773.15 L1074.52 1757.80 L1080.96 1757.80 L1080.96 1743.82 L1087.27 1743.82 L1087.27 1730.45 L1093.58 1730.45 L1093.58 1716.09 L1099.89 1716.09 L1099.89 1699.26 L1106.20 1699.26 L1106.20 1675.50 L1112.64 1675.50 L1112.64 1658.18 L1118.95 1658.18 L1118.95 1642.21 L1125.26 1642.21 L1125.26 1619.94 L1131.57 1619.94 L1131.57 1589.12 L1137.88 1589.12 L1137.88 1561.40 L1144.32 1561.40 L1144.32 1530.09 L1150.63 1530.09 L1150.63 1509.30 L1156.94 1509.30 L1156.94 1479.97 L1163.25 1479.97 L1163.25 1455.59 L1169.56 1455.59 L1169.56 1432.70 L1175.87 1432.70 L1175.87 1400.89 L1182.31 1400.89 L1182.31 1374.04 L1188.62 1374.04 L1188.62 1348.30 L1194.93 1348.30 L1194.93 1321.44 L1201.24 1321.44 L1201.24 1297.06 L1207.55 1297.06 L1207.55 1275.16 L1213.99 1275.16 L1213.99 1254.74 L1220.30 1254.74 L1220.30 1235.81 L1226.61 1235.81 L1226.61 1218.85 L1232.92 1218.85 L1232.92 1197.94 L1239.23 1197.94 L1239.23 1183.09 L1245.54 1183.09 L1245.54 1166.63 L1251.98 1166.63 L1251.98 1147.20 L1258.29 1147.20 L1258.29 1129.25 L1264.60 1129.25 L1264.60 1110.81 L1270.91 1110.81 L1270.91 1097.82 L1277.22 1097.82 L1277.22 1078.89 L1283.66 1078.89 L1283.66 1066.02 L1289.97 1066.02 L1289.97 1055.99 L1296.28 1055.99 L1296.28 1036.56 L1302.59 1036.56 L1302.59 1023.07 L1308.90 1023.07 L1308.90 1010.57 L1315.34 1010.57 L1315.34 998.57 L1321.65 998.57 L1321.65 986.69 L1327.96 986.69 L1327.96 970.73 L1334.27 970.73 L1334.27 955.75 L1340.58 955.75 L1340.58 946.22 L1346.89 946.22 L1346.89 937.68 L1353.33 937.68 L1353.33 927.78 L1359.64 927.78 L1359.64 914.29 L1365.95 914.29 L1365.95 903.28 L1372.26 903.28 L1372.26 895.73 L1378.58 895.73 L1378.58 883.23 L1385.01 883.23 L1385.01 872.71 L1391.32 872.71 L1391.32 861.20 L1397.63 861.20 L1397.63 850.31 L1403.94 850.31 L1403.94 841.28 L1410.26 841.28 L1410.26 832.24 L1416.57 832.24 L1416.57 827.79 L1423.00 827.79 L1423.00 822.72 L1429.31 822.72 L1429.31 812.20 L1435.62 812.20 L1435.62 804.28 L1441.93 804.28 L1441.93 796.73 L1448.25 796.73 L1448.25 789.18 L1454.68 789.18 L1454.68 782.74 L1460.99 782.74 L1460.99 775.69 L1467.30 775.69 L1467.30 766.66 L1473.62 766.66 L1473.62 760.72 L1479.93 760.72 L1479.93 755.15 L1486.36 755.15 L1486.36 749.58 L1492.67 749.58 L1492.67 743.14 L1498.98 743.14 L1498.98 736.09 L1505.30 736.09 L1505.30 731.63 L1511.61 731.63 L1511.61 728.04 L1517.92 728.04 L1517.92 723.09 L1524.35 723.09 L1524.35 719.01 L1530.66 719.01 L1530.66 715.05 L1536.97 715.05 L1536.97 712.57 L1543.29 712.57 L1543.29 707.01 L1549.60 707.01 L1549.60 703.05 L1556.03 703.05 L1556.03 697.97 L1562.34 697.97 L1562.34 696.49 L1568.65 696.49 L1568.65 693.89 L1574.97 693.89 L1574.97 691.91 L1581.28 691.91 L1581.28 687.95 L1587.59 687.95 L1587.59 684.85 L1594.02 684.85 L1594.02 682.38 L1600.34 682.38 L1600.34 681.39 L1606.65 681.39 L1606.65 680.40 L1612.96 680.40 L1612.96 678.42 L1619.27 678.42 L1619.27 675.32 L1625.70 675.32 L1625.70 673.84 L1632.02 673.84 L1632.02 670.87 L1638.33 670.87 L1638.33 667.78 L1644.64 667.78 L1644.64 665.30 L1650.95 665.30 L1650.95 664.31 L1657.38 664.31 L1657.38 661.71 L1663.69 661.71 L1663.69 660.23 L1670.01 660.23 L1670.01 658.74 L1676.32 658.74 L1676.32 655.77 L1682.63 655.77 L1682.63 654.16 L1688.94 654.16 L1688.94 653.17 L1695.38 653.17 L1695.38 651.69 L1701.69 651.69 L1701.69 650.20 L1708.00 650.20 L1708.00 648.72 L1714.31 648.72 L1714.31 647.11 L1720.62 647.11 L1720.62 645.62 L1727.06 645.62 L1727.06 645.62 L1733.37 645.62 L1733.37 645.13 L1739.68 645.13 L1739.68 643.64 L1745.99 643.64 L1745.99 642.65 L1752.30 642.65 L1752.30 642.16 L1758.73 642.16 L1758.73 641.66 L1765.05 641.66 L1765.05 641.17 L1771.36 641.17 L1771.36 640.55 L1777.67 640.55 L1777.67 640.06 L1783.98 640.06 L1783.98 640.06 L1790.29 640.06 L1790.29 639.06 L1796.73 639.06 L1796.73 638.57 L1803.04 638.57 L1803.04 636.59 L1809.35 636.59 L1809.35 635.60 L1815.66 635.60 L1815.66 635.60 L1821.97 635.60 L1821.97 635.10 L1828.41 635.10 L1828.41 635.10 L1834.72 635.10 L1834.72 635.10 L1841.03 635.10 L1841.03 635.10 L1847.34 635.10 L1847.34 634.49 L1853.65 634.49 L1853.65 633.99 L1859.96 633.99 L1859.96 633.99 L1866.40 633.99 L1866.40 633.99 L1872.71 633.99 L1872.71 633.99" stroke-linejoin="round" style="fill:none;stroke:#55752F;stroke-width:6.48"/>
	<line x1="659.71" y1="1873.51" x2="659.71" y2="414.45" style="stroke:#000000;stroke-width:4.32"/>
	<line x1="659.71" y1="1825.99" x2="629.76" y2="1825.99" style="stroke:#000000;stroke-width:4.32"/>
	<text x="614.79" y="1852.27" style="font-family:'Helvetica';font-size:74.99px;fill:#000000" text-anchor="end">0.000</text>
	<line x1="659.71" y1="1280.36" x2="629.76" y2="1280.36" style="stroke:#000000;stroke-width:4.32"/>
	<text x="614.79" y="1306.64" style="font-family:'Helvetica';font-size:74.99px;fill:#000000" text-anchor="end">0.002</text>
	<line x1="659.71" y1="734.73" x2="629.76" y2="734.73" style="stroke:#000000;stroke-width:4.32"/>
	<text x="614.79" y="761.01" style="font-family:'Helvetica';font-size:74.99px;fill:#000000" text-anchor="end">0.004</text>
	<line x1="659.71" y1="1873.51" x2="2021.58" y2="1873.51" style="stroke:#000000;stroke-width:4.32"/>
	<line x1="707.23" y1="1873.51" x2="707.23" y2="1903.46" style="stroke:#000000;stroke-width:4.32"/>
	<text x="707.23" y="1970.87" style="font-family:'Helvetica';font-size:74.99px;fill:#000000" text-anchor="middle">1 Feb 20</text>
	<line x1="891.00" y1="1873.51" x2="891.00" y2="1903.46" style="stroke:#000000;stroke-width:4.32"/>
	<text x="891.00" y="1970.87" style="font-family:'Helvetica';font-size:74.99px;fill:#000000" text-anchor="middle">1 Mar 20</text>
	<line x1="1087.27" y1="1873.51" x2="1087.27" y2="1903.46" style="stroke:#000000;stroke-width:4.32"/>
	<text x="1087.27" y="1970.87" style="font-family:'Helvetica';font-size:74.99px;fill:#000000" text-anchor="middle">1 Apr 20</text>
	<line x1="1283.66" y1="1873.51" x2="1283.66" y2="1903.46" style="stroke:#000000;stroke-width:4.32"/>
	<text x="1283.66" y="1970.87" style="font-family:'Helvetica';font-size:74.99px;fill:#000000" text-anchor="middle">1 May 20</text>
	<line x1="1473.74" y1="1873.51" x2="1473.74" y2="1903.46" style="stroke:#000000;stroke-width:4.32"/>
	<text x="1473.74" y="1970.87" style="font-family:'Helvetica';font-size:74.99px;fill:#000000" text-anchor="middle">1 June 20</text>
	<line x1="1663.69" y1="1873.51" x2="1663.69" y2="1903.46" style="stroke:#000000;stroke-width:4.32"/>
	<text x="1663.69" y="1970.87" style="font-family:'Helvetica';font-size:74.99px;fill:#000000" text-anchor="middle">1 July 20</text>
	<line x1="1860.09" y1="1873.51" x2="1860.09" y2="1903.46" style="stroke:#000000;stroke-width:4.32"/>
	<text x="1860.09" y="1970.87" style="font-family:'Helvetica';font-size:74.99px;fill:#000000" text-anchor="middle">1 Aug 20</text>
	<text x="1340.71" y="2053.41" style="font-family:'Helvetica';font-size:74.99px;fill:#000000" text-anchor="middle"> </text>
	<text x="1340.71" y="369.91" style="font-family:'Helvetica';font-size:104.94px;fill:#1E2D53" text-anchor="middle">Female</text>
	<rect x="2097.19" y="207.91" width="1799.33" height="1958.65" style="fill:#EAF2F3"/>
	<rect x="2099.35" y="210.07" width="1795.01" height="1954.33" style="fill:none;stroke:#EAF2F3;stroke-width:4.32"/>
	<rect x="2459.04" y="414.45" width="1361.87" height="1459.06" style="fill:#FFFFFF"/>
	<rect x="2461.20" y="416.61" width="1357.55" height="1454.74" style="fill:none;stroke:#FFFFFF;stroke-width:4.32"/>
	<line x1="2459.04" y1="1825.99" x2="3820.91" y2="1825.99" style="stroke:#EAF2F3;stroke-width:6.48"/>
	<line x1="2459.04" y1="1472.05" x2="3820.91" y2="1472.05" style="stroke:#EAF2F3;stroke-width:6.48"/>
	<line x1="2459.04" y1="1118.12" x2="3820.91" y2="1118.12" style="stroke:#EAF2F3;stroke-width:6.48"/>
	<path d=" M2512.87 1825.99 L2519.18 1825.99 L2519.18 1825.99 L2525.49 1825.99 L2525.49 1825.99 L2531.80 1825.99 L2531.80 1825.99 L2538.11 1825.99 L2538.11 1825.99 L2544.55 1825.99 L2544.55 1825.99 L2550.86 1825.99 L2550.86 1825.99 L2557.17 1825.99 L2557.17 1825.99 L2563.48 1825.99 L2563.48 1825.99 L2569.79 1825.99 L2569.79 1825.99 L2576.23 1825.99 L2576.23 1825.99 L2582.54 1825.99 L2582.54 1825.99 L2588.85 1825.99 L2588.85 1825.99 L2595.16 1825.99 L2595.16 1825.99 L2601.47 1825.99 L2601.47 1825.99 L2607.91 1825.99 L2607.91 1825.99 L2614.22 1825.99 L2614.22 1825.99 L2620.53 1825.99 L2620.53 1825.99 L2626.84 1825.99 L2626.84 1825.99 L2633.15 1825.99 L2633.15 1825.99 L2639.46 1825.99 L2639.46 1825.99 L2645.90 1825.99 L2645.90 1825.99 L2652.21 1825.99 L2652.21 1825.99 L2658.52 1825.99 L2658.52 1825.99 L2664.83 1825.99 L2664.83 1825.99 L2671.14 1825.99 L2671.14 1825.99 L2677.58 1825.99 L2677.58 1825.99 L2683.89 1825.99 L2683.89 1825.99 L2690.20 1825.99 L2690.20 1825.99 L2696.51 1825.99 L2696.51 1825.99 L2702.82 1825.99 L2702.82 1825.99 L2709.26 1825.99 L2709.26 1825.99 L2715.57 1825.99 L2715.57 1825.99 L2721.88 1825.99 L2721.88 1825.99 L2728.19 1825.99 L2728.19 1825.62 L2734.50 1825.62 L2734.50 1825.12 L2740.82 1825.12 L2740.82 1825.12 L2747.25 1825.12 L2747.25 1825.12 L2753.56 1825.12 L2753.56 1825.12 L2759.87 1825.12 L2759.87 1825.12 L2766.18 1825.12 L2766.18 1824.63 L2772.49 1824.63 L2772.49 1824.26 L2778.93 1824.26 L2778.93 1823.76 L2785.24 1823.76 L2785.24 1823.76 L2791.55 1823.76 L2791.55 1823.27 L2797.86 1823.27 L2797.86 1821.90 L2804.18 1821.90 L2804.18 1819.18 L2810.49 1819.18 L2810.49 1817.33 L2816.92 1817.33 L2816.92 1816.46 L2823.23 1816.46 L2823.23 1814.23 L2829.54 1814.23 L2829.54 1813.24 L2835.86 1813.24 L2835.86 1811.01 L2842.17 1811.01 L2842.17 1808.29 L2848.60 1808.29 L2848.60 1806.44 L2854.91 1806.44 L2854.91 1803.22 L2861.22 1803.22 L2861.22 1798.64 L2867.53 1798.64 L2867.53 1793.69 L2873.85 1793.69 L2873.85 1789.48 L2880.28 1789.48 L2880.28 1783.54 L2886.59 1783.54 L2886.59 1776.24 L2892.90 1776.24 L2892.90 1767.21 L2899.22 1767.21 L2899.22 1759.90 L2905.53 1759.90 L2905.53 1753.96 L2911.84 1753.96 L2911.84 1746.66 L2918.27 1746.66 L2918.27 1740.72 L2924.58 1740.72 L2924.58 1736.14 L2930.89 1736.14 L2930.89 1730.57 L2937.21 1730.57 L2937.21 1727.48 L2943.52 1727.48 L2943.52 1721.91 L2949.95 1721.91 L2949.95 1717.33 L2956.26 1717.33 L2956.26 1715.10 L2962.57 1715.10 L2962.57 1706.94 L2968.89 1706.94 L2968.89 1704.09 L2975.20 1704.09 L2975.20 1699.51 L2981.51 1699.51 L2981.51 1695.92 L2987.94 1695.92 L2987.94 1694.07 L2994.26 1694.07 L2994.26 1692.71 L3000.57 1692.71 L3000.57 1689.12 L3006.88 1689.12 L3006.88 1686.77 L3013.19 1686.77 L3013.19 1682.68 L3019.62 1682.68 L3019.62 1679.96 L3025.93 1679.96 L3025.93 1677.61 L3032.25 1677.61 L3032.25 1676.74 L3038.56 1676.74 L3038.56 1674.88 L3044.87 1674.88 L3044.87 1672.16 L3051.30 1672.16 L3051.30 1668.45 L3057.61 1668.45 L3057.61 1665.73 L3063.93 1665.73 L3063.93 1663.99 L3070.24 1663.99 L3070.24 1662.51 L3076.55 1662.51 L3076.55 1661.15 L3082.86 1661.15 L3082.86 1661.15 L3089.30 1661.15 L3089.30 1659.79 L3095.61 1659.79 L3095.61 1658.43 L3101.92 1658.43 L3101.92 1657.56 L3108.23 1657.56 L3108.23 1653.85 L3114.54 1653.85 L3114.54 1652.49 L3120.97 1652.49 L3120.97 1650.26 L3127.29 1650.26 L3127.29 1649.76 L3133.60 1649.76 L3133.60 1648.90 L3139.91 1648.90 L3139.91 1647.54 L3146.22 1647.54 L3146.22 1646.55 L3152.53 1646.55 L3152.53 1646.05 L3158.97 1646.05 L3158.97 1645.18 L3165.28 1645.18 L3165.28 1644.32 L3171.59 1644.32 L3171.59 1643.82 L3177.90 1643.82 L3177.90 1643.82 L3184.21 1643.82 L3184.21 1641.60 L3190.65 1641.60 L3190.65 1639.74 L3196.96 1639.74 L3196.96 1638.38 L3203.27 1638.38 L3203.27 1637.88 L3209.58 1637.88 L3209.58 1637.02 L3215.89 1637.02 L3215.89 1636.03 L3222.33 1636.03 L3222.33 1636.03 L3228.64 1636.03 L3228.64 1635.53 L3234.95 1635.53 L3234.95 1635.53 L3241.26 1635.53 L3241.26 1635.16 L3247.57 1635.16 L3247.57 1634.17 L3253.88 1634.17 L3253.88 1633.30 L3260.32 1633.30 L3260.32 1632.81 L3266.63 1632.81 L3266.63 1631.45 L3272.94 1631.45 L3272.94 1631.08 L3279.25 1631.08 L3279.25 1630.09 L3285.56 1630.09 L3285.56 1630.09 L3292.00 1630.09 L3292.00 1629.59 L3298.31 1629.59 L3298.31 1628.72 L3304.62 1628.72 L3304.62 1627.86 L3310.93 1627.86 L3310.93 1627.36 L3317.24 1627.36 L3317.24 1626.87 L3323.55 1626.87 L3323.55 1626.00 L3329.99 1626.00 L3329.99 1625.51 L3336.30 1625.51 L3336.30 1625.51 L3342.61 1625.51 L3342.61 1625.51 L3348.92 1625.51 L3348.92 1625.51 L3355.23 1625.51 L3355.23 1624.64 L3361.67 1624.64 L3361.67 1623.65 L3367.98 1623.65 L3367.98 1623.28 L3374.29 1623.28 L3374.29 1622.78 L3380.60 1622.78 L3380.60 1621.92 L3386.91 1621.92 L3386.91 1620.93 L3393.35 1620.93 L3393.35 1620.43 L3399.66 1620.43 L3399.66 1620.43 L3405.97 1620.43 L3405.97 1620.06 L3412.28 1620.06 L3412.28 1619.07 L3418.59 1619.07 L3418.59 1618.70 L3424.91 1618.70 L3424.91 1618.70 L3431.34 1618.70 L3431.34 1618.70 L3437.65 1618.70 L3437.65 1617.71 L3443.96 1617.71 L3443.96 1617.34 L3450.27 1617.34 L3450.27 1617.34 L3456.59 1617.34 L3456.59 1616.84 L3463.02 1616.84 L3463.02 1616.35 L3469.33 1616.35 L3469.33 1616.35 L3475.64 1616.35 L3475.64 1616.35 L3481.95 1616.35 L3481.95 1616.35 L3488.26 1616.35 L3488.26 1616.35 L3494.58 1616.35 L3494.58 1616.35 L3501.01 1616.35 L3501.01 1616.35 L3507.32 1616.35 L3507.32 1616.35 L3513.63 1616.35 L3513.63 1615.85 L3519.95 1615.85 L3519.95 1615.85 L3526.26 1615.85 L3526.26 1615.48 L3532.69 1615.48 L3532.69 1614.99 L3539.00 1614.99 L3539.00 1614.99 L3545.31 1614.99 L3545.31 1614.99 L3551.63 1614.99 L3551.63 1614.99 L3557.94 1614.99 L3557.94 1614.99 L3564.37 1614.99 L3564.37 1614.99 L3570.68 1614.99 L3570.68 1614.49 L3576.99 1614.49 L3576.99 1614.49 L3583.30 1614.49 L3583.30 1614.49 L3589.62 1614.49 L3589.62 1614.12 L3595.93 1614.12 L3595.93 1614.12 L3602.36 1614.12 L3602.36 1614.12 L3608.67 1614.12 L3608.67 1614.12 L3614.99 1614.12 L3614.99 1613.63 L3621.30 1613.63 L3621.30 1613.13 L3627.61 1613.13 L3627.61 1613.13 L3634.04 1613.13 L3634.04 1613.13 L3640.35 1613.13 L3640.35 1613.13 L3646.66 1613.13 L3646.66 1613.13 L3672.03 1613.13 L3672.03 1613.13" stroke-linejoin="round" style="fill:none;stroke:#1A476F;stroke-width:6.48"/>
	<path d=" M2512.87 1825.99 L2519.18 1825.99 L2519.18 1825.99 L2525.49 1825.99 L2525.49 1825.99 L2531.80 1825.99 L2531.80 1825.99 L2538.11 1825.99 L2538.11 1825.99 L2544.55 1825.99 L2544.55 1825.99 L2550.86 1825.99 L2550.86 1825.99 L2557.17 1825.99 L2557.17 1825.99 L2563.48 1825.99 L2563.48 1825.99 L2569.79 1825.99 L2569.79 1825.99 L2576.23 1825.99 L2576.23 1825.99 L2582.54 1825.99 L2582.54 1825.99 L2588.85 1825.99 L2588.85 1825.99 L2595.16 1825.99 L2595.16 1825.99 L2601.47 1825.99 L2601.47 1825.99 L2607.91 1825.99 L2607.91 1825.99 L2614.22 1825.99 L2614.22 1825.99 L2620.53 1825.99 L2620.53 1825.99 L2626.84 1825.99 L2626.84 1825.99 L2633.15 1825.99 L2633.15 1825.99 L2639.46 1825.99 L2639.46 1825.99 L2645.90 1825.99 L2645.90 1825.99 L2652.21 1825.99 L2652.21 1825.99 L2658.52 1825.99 L2658.52 1825.99 L2664.83 1825.99 L2664.83 1825.99 L2671.14 1825.99 L2671.14 1825.99 L2677.58 1825.99 L2677.58 1825.99 L2683.89 1825.99 L2683.89 1825.99 L2690.20 1825.99 L2690.20 1825.86 L2696.51 1825.86 L2696.51 1825.86 L2702.82 1825.86 L2702.82 1825.86 L2709.26 1825.86 L2709.26 1825.86 L2715.57 1825.86 L2715.57 1825.86 L2721.88 1825.86 L2721.88 1825.62 L2728.19 1825.62 L2728.19 1825.62 L2734.50 1825.62 L2734.50 1825.62 L2740.82 1825.62 L2740.82 1825.62 L2747.25 1825.62 L2747.25 1825.12 L2753.56 1825.12 L2753.56 1825.12 L2759.87 1825.12 L2759.87 1825.00 L2766.18 1825.00 L2766.18 1824.75 L2772.49 1824.75 L2772.49 1824.50 L2778.93 1824.50 L2778.93 1823.64 L2785.24 1823.64 L2785.24 1822.40 L2791.55 1822.40 L2791.55 1821.04 L2797.86 1821.04 L2797.86 1820.42 L2804.18 1820.42 L2804.18 1818.69 L2810.49 1818.69 L2810.49 1816.83 L2816.92 1816.83 L2816.92 1815.96 L2823.23 1815.96 L2823.23 1813.98 L2829.54 1813.98 L2829.54 1811.14 L2835.86 1811.14 L2835.86 1808.17 L2842.17 1808.17 L2842.17 1803.22 L2848.60 1803.22 L2848.60 1799.75 L2854.91 1799.75 L2854.91 1794.80 L2861.22 1794.80 L2861.22 1788.49 L2867.53 1788.49 L2867.53 1782.30 L2873.85 1782.30 L2873.85 1773.64 L2880.28 1773.64 L2880.28 1762.63 L2886.59 1762.63 L2886.59 1750.87 L2892.90 1750.87 L2892.90 1740.85 L2899.22 1740.85 L2899.22 1731.19 L2905.53 1731.19 L2905.53 1721.91 L2911.84 1721.91 L2911.84 1712.26 L2918.27 1712.26 L2918.27 1701.00 L2924.58 1701.00 L2924.58 1688.75 L2930.89 1688.75 L2930.89 1677.24 L2937.21 1677.24 L2937.21 1669.32 L2943.52 1669.32 L2943.52 1662.01 L2949.95 1662.01 L2949.95 1652.24 L2956.26 1652.24 L2956.26 1645.31 L2962.57 1645.31 L2962.57 1637.76 L2968.89 1637.76 L2968.89 1628.35 L2975.20 1628.35 L2975.20 1619.44 L2981.51 1619.44 L2981.51 1613.38 L2987.94 1613.38 L2987.94 1605.71 L2994.26 1605.71 L2994.26 1599.77 L3000.57 1599.77 L3000.57 1593.33 L3006.88 1593.33 L3006.88 1587.76 L3013.19 1587.76 L3013.19 1582.81 L3019.62 1582.81 L3019.62 1579.10 L3025.93 1579.10 L3025.93 1573.04 L3032.25 1573.04 L3032.25 1565.98 L3038.56 1565.98 L3038.56 1561.65 L3044.87 1561.65 L3044.87 1556.70 L3051.30 1556.70 L3051.30 1552.74 L3057.61 1552.74 L3057.61 1548.04 L3063.93 1548.04 L3063.93 1544.82 L3070.24 1544.82 L3070.24 1540.86 L3076.55 1540.86 L3076.55 1537.89 L3082.86 1537.89 L3082.86 1533.06 L3089.30 1533.06 L3089.30 1530.96 L3095.61 1530.96 L3095.61 1527.74 L3101.92 1527.74 L3101.92 1525.76 L3108.23 1525.76 L3108.23 1522.92 L3114.54 1522.92 L3114.54 1519.94 L3120.97 1519.94 L3120.97 1517.35 L3127.29 1517.35 L3127.29 1514.75 L3133.60 1514.75 L3133.60 1512.77 L3139.91 1512.77 L3139.91 1511.28 L3146.22 1511.28 L3146.22 1507.82 L3152.53 1507.82 L3152.53 1504.97 L3158.97 1504.97 L3158.97 1503.49 L3165.28 1503.49 L3165.28 1502.37 L3171.59 1502.37 L3171.59 1499.65 L3177.90 1499.65 L3177.90 1497.92 L3184.21 1497.92 L3184.21 1495.69 L3190.65 1495.69 L3190.65 1493.96 L3196.96 1493.96 L3196.96 1491.61 L3203.27 1491.61 L3203.27 1489.87 L3209.58 1489.87 L3209.58 1489.01 L3215.89 1489.01 L3215.89 1488.39 L3222.33 1488.39 L3222.33 1486.41 L3228.64 1486.41 L3228.64 1484.92 L3234.95 1484.92 L3234.95 1482.70 L3241.26 1482.70 L3241.26 1480.34 L3247.57 1480.34 L3247.57 1479.48 L3253.88 1479.48 L3253.88 1477.50 L3260.32 1477.50 L3260.32 1475.76 L3266.63 1475.76 L3266.63 1475.15 L3272.94 1475.15 L3272.94 1474.77 L3279.25 1474.77 L3279.25 1474.03 L3285.56 1474.03 L3285.56 1472.18 L3292.00 1472.18 L3292.00 1469.95 L3298.31 1469.95 L3298.31 1468.71 L3304.62 1468.71 L3304.62 1468.46 L3310.93 1468.46 L3310.93 1467.60 L3317.24 1467.60 L3317.24 1466.24 L3323.55 1466.24 L3323.55 1465.37 L3329.99 1465.37 L3329.99 1465.00 L3336.30 1465.00 L3336.30 1464.50 L3342.61 1464.50 L3342.61 1464.13 L3348.92 1464.13 L3348.92 1462.65 L3355.23 1462.65 L3355.23 1462.40 L3361.67 1462.40 L3361.67 1461.53 L3367.98 1461.53 L3367.98 1460.42 L3374.29 1460.42 L3374.29 1459.31 L3380.60 1459.31 L3380.60 1458.93 L3386.91 1458.93 L3386.91 1458.44 L3393.35 1458.44 L3393.35 1458.32 L3399.66 1458.32 L3399.66 1457.20 L3405.97 1457.20 L3405.97 1456.71 L3412.28 1456.71 L3412.28 1456.58 L3418.59 1456.58 L3418.59 1456.58 L3424.91 1456.58 L3424.91 1455.22 L3431.34 1455.22 L3431.34 1454.85 L3437.65 1454.85 L3437.65 1454.36 L3443.96 1454.36 L3443.96 1453.49 L3450.27 1453.49 L3450.27 1452.87 L3456.59 1452.87 L3456.59 1451.76 L3463.02 1451.76 L3463.02 1451.26 L3469.33 1451.26 L3469.33 1450.89 L3475.64 1450.89 L3475.64 1450.40 L3481.95 1450.40 L3481.95 1449.78 L3488.26 1449.78 L3488.26 1448.04 L3494.58 1448.04 L3494.58 1447.80 L3501.01 1447.80 L3501.01 1447.67 L3507.32 1447.67 L3507.32 1447.67 L3513.63 1447.67 L3513.63 1447.43 L3519.95 1447.43 L3519.95 1447.18 L3526.26 1447.18 L3526.26 1446.56 L3532.69 1446.56 L3532.69 1446.31 L3539.00 1446.31 L3539.00 1446.31 L3545.31 1446.31 L3545.31 1445.94 L3551.63 1445.94 L3551.63 1445.45 L3557.94 1445.45 L3557.94 1445.20 L3564.37 1445.20 L3564.37 1444.83 L3570.68 1444.83 L3570.68 1444.83 L3576.99 1444.83 L3576.99 1444.33 L3583.30 1444.33 L3583.30 1444.33 L3589.62 1444.33 L3589.62 1444.21 L3595.93 1444.21 L3595.93 1444.21 L3602.36 1444.21 L3602.36 1444.21 L3608.67 1444.21 L3608.67 1444.21 L3614.99 1444.21 L3614.99 1443.96 L3621.30 1443.96 L3621.30 1443.71 L3627.61 1443.71 L3627.61 1443.47 L3634.04 1443.47 L3634.04 1443.34 L3640.35 1443.34 L3640.35 1443.34 L3646.66 1443.34 L3646.66 1443.34 L3652.98 1443.34 L3652.98 1443.34 L3659.29 1443.34 L3659.29 1443.34 L3672.03 1443.34 L3672.03 1443.34" stroke-linejoin="round" style="fill:none;stroke:#90353B;stroke-width:6.48"/>
	<path d=" M2512.87 1825.99 L2519.18 1825.99 L2519.18 1825.99 L2525.49 1825.99 L2525.49 1825.99 L2531.80 1825.99 L2531.80 1825.99 L2538.11 1825.99 L2538.11 1825.99 L2544.55 1825.99 L2544.55 1825.99 L2550.86 1825.99 L2550.86 1825.99 L2557.17 1825.99 L2557.17 1825.99 L2563.48 1825.99 L2563.48 1825.99 L2569.79 1825.99 L2569.79 1825.99 L2576.23 1825.99 L2576.23 1825.99 L2582.54 1825.99 L2582.54 1825.99 L2588.85 1825.99 L2588.85 1825.99 L2595.16 1825.99 L2595.16 1825.99 L2601.47 1825.99 L2601.47 1825.99 L2607.91 1825.99 L2607.91 1825.99 L2614.22 1825.99 L2614.22 1825.99 L2620.53 1825.99 L2620.53 1825.99 L2626.84 1825.99 L2626.84 1825.99 L2633.15 1825.99 L2633.15 1825.99 L2639.46 1825.99 L2639.46 1825.99 L2645.90 1825.99 L2645.90 1825.99 L2652.21 1825.99 L2652.21 1825.99 L2658.52 1825.99 L2658.52 1825.99 L2664.83 1825.99 L2664.83 1825.99 L2671.14 1825.99 L2671.14 1825.99 L2677.58 1825.99 L2677.58 1825.99 L2683.89 1825.99 L2683.89 1825.99 L2690.20 1825.99 L2690.20 1825.99 L2696.51 1825.99 L2696.51 1825.99 L2702.82 1825.99 L2702.82 1825.99 L2709.26 1825.99 L2709.26 1825.99 L2715.57 1825.99 L2715.57 1825.62 L2721.88 1825.62 L2721.88 1825.62 L2728.19 1825.62 L2728.19 1825.62 L2734.50 1825.62 L2734.50 1825.12 L2740.82 1825.12 L2740.82 1824.75 L2747.25 1824.75 L2747.25 1824.26 L2753.56 1824.26 L2753.56 1824.26 L2759.87 1824.26 L2759.87 1824.26 L2766.18 1824.26 L2766.18 1823.88 L2772.49 1823.88 L2772.49 1822.52 L2778.93 1822.52 L2778.93 1821.16 L2785.24 1821.16 L2785.24 1820.30 L2791.55 1820.30 L2791.55 1818.93 L2797.86 1818.93 L2797.86 1817.20 L2804.18 1817.20 L2804.18 1814.97 L2810.49 1814.97 L2810.49 1812.75 L2816.92 1812.75 L2816.92 1807.92 L2823.23 1807.92 L2823.23 1802.23 L2829.54 1802.23 L2829.54 1799.13 L2835.86 1799.13 L2835.86 1791.21 L2842.17 1791.21 L2842.17 1781.93 L2848.60 1781.93 L2848.60 1766.46 L2854.91 1766.46 L2854.91 1759.78 L2861.22 1759.78 L2861.22 1745.18 L2867.53 1745.18 L2867.53 1728.84 L2873.85 1728.84 L2873.85 1709.78 L2880.28 1709.78 L2880.28 1688.13 L2886.59 1688.13 L2886.59 1664.12 L2892.90 1664.12 L2892.90 1641.60 L2899.22 1641.60 L2899.22 1614.99 L2905.53 1614.99 L2905.53 1584.42 L2911.84 1584.42 L2911.84 1552.00 L2918.27 1552.00 L2918.27 1516.97 L2924.58 1516.97 L2924.58 1493.09 L2930.89 1493.09 L2930.89 1453.98 L2937.21 1453.98 L2937.21 1422.06 L2943.52 1422.06 L2943.52 1386.54 L2949.95 1386.54 L2949.95 1349.29 L2956.26 1349.29 L2956.26 1325.28 L2962.57 1325.28 L2962.57 1296.45 L2968.89 1296.45 L2968.89 1271.08 L2975.20 1271.08 L2975.20 1245.34 L2981.51 1245.34 L2981.51 1219.10 L2987.94 1219.10 L2987.94 1187.42 L2994.26 1187.42 L2994.26 1160.81 L3000.57 1160.81 L3000.57 1138.54 L3006.88 1138.54 L3006.88 1117.99 L3013.19 1117.99 L3013.19 1088.66 L3019.62 1088.66 L3019.62 1066.88 L3025.93 1066.88 L3025.93 1046.83 L3032.25 1046.83 L3032.25 1026.29 L3038.56 1026.29 L3038.56 1008.47 L3044.87 1008.47 L3044.87 989.78 L3051.30 989.78 L3051.30 971.47 L3057.61 971.47 L3057.61 950.55 L3063.93 950.55 L3063.93 933.10 L3070.24 933.10 L3070.24 908.60 L3076.55 908.60 L3076.55 890.78 L3082.86 890.78 L3082.86 876.05 L3089.30 876.05 L3089.30 860.83 L3095.61 860.83 L3095.61 847.96 L3101.92 847.96 L3101.92 835.83 L3108.23 835.83 L3108.23 821.97 L3114.54 821.97 L3114.54 804.15 L3120.97 804.15 L3120.97 793.88 L3127.29 793.88 L3127.29 778.66 L3133.60 778.66 L3133.60 766.53 L3139.91 766.53 L3139.91 756.26 L3146.22 756.26 L3146.22 749.58 L3152.53 749.58 L3152.53 740.17 L3158.97 740.17 L3158.97 730.77 L3165.28 730.77 L3165.28 725.45 L3171.59 725.45 L3171.59 715.54 L3177.90 715.54 L3177.90 707.50 L3184.21 707.50 L3184.21 697.60 L3190.65 697.60 L3190.65 687.33 L3196.96 687.33 L3196.96 679.28 L3203.27 679.28 L3203.27 671.24 L3209.58 671.24 L3209.58 664.56 L3215.89 664.56 L3215.89 656.39 L3222.33 656.39 L3222.33 646.61 L3228.64 646.61 L3228.64 639.81 L3234.95 639.81 L3234.95 631.27 L3241.26 631.27 L3241.26 627.68 L3247.57 627.68 L3247.57 618.27 L3253.88 618.27 L3253.88 610.73 L3260.32 610.73 L3260.32 606.64 L3266.63 606.64 L3266.63 601.20 L3272.94 601.20 L3272.94 595.87 L3279.25 595.87 L3279.25 589.56 L3285.56 589.56 L3285.56 583.75 L3292.00 583.75 L3292.00 577.93 L3298.31 577.93 L3298.31 572.11 L3304.62 572.11 L3304.62 564.81 L3310.93 564.81 L3310.93 559.49 L3317.24 559.49 L3317.24 554.91 L3323.55 554.91 L3323.55 551.82 L3329.99 551.82 L3329.99 546.00 L3336.30 546.00 L3336.30 544.15 L3342.61 544.15 L3342.61 540.19 L3348.92 540.19 L3348.92 539.20 L3355.23 539.20 L3355.23 534.25 L3361.67 534.25 L3361.67 530.16 L3367.98 530.16 L3367.98 528.43 L3374.29 528.43 L3374.29 526.20 L3380.60 526.20 L3380.60 524.84 L3386.91 524.84 L3386.91 521.62 L3393.35 521.62 L3393.35 519.89 L3399.66 519.89 L3399.66 517.66 L3405.97 517.66 L3405.97 514.44 L3412.28 514.44 L3412.28 510.86 L3418.59 510.86 L3418.59 506.28 L3424.91 506.28 L3424.91 502.69 L3431.34 502.69 L3431.34 500.46 L3437.65 500.46 L3437.65 497.37 L3443.96 497.37 L3443.96 495.02 L3450.27 495.02 L3450.27 492.79 L3456.59 492.79 L3456.59 490.56 L3463.02 490.56 L3463.02 489.20 L3469.33 489.20 L3469.33 489.20 L3475.64 489.20 L3475.64 487.84 L3481.95 487.84 L3481.95 486.48 L3488.26 486.48 L3488.26 485.61 L3494.58 485.61 L3494.58 484.25 L3501.01 484.25 L3501.01 482.39 L3507.32 482.39 L3507.32 481.90 L3513.63 481.90 L3513.63 479.17 L3519.95 479.17 L3519.95 477.44 L3526.26 477.44 L3526.26 476.08 L3532.69 476.08 L3532.69 474.22 L3539.00 474.22 L3539.00 472.49 L3545.31 472.49 L3545.31 471.13 L3551.63 471.13 L3551.63 469.27 L3557.94 469.27 L3557.94 468.78 L3564.37 468.78 L3564.37 467.91 L3570.68 467.91 L3570.68 467.91 L3576.99 467.91 L3576.99 467.42 L3583.30 467.42 L3583.30 466.55 L3589.62 466.55 L3589.62 465.69 L3595.93 465.69 L3595.93 464.70 L3602.36 464.70 L3602.36 464.70 L3608.67 464.70 L3608.67 464.70 L3614.99 464.70 L3614.99 464.32 L3621.30 464.32 L3621.30 462.96 L3627.61 462.96 L3627.61 462.96 L3634.04 462.96 L3634.04 462.47 L3640.35 462.47 L3640.35 462.47 L3646.66 462.47 L3646.66 461.97 L3652.98 461.97 L3652.98 461.97 L3659.29 461.97 L3659.29 461.97 L3665.60 461.97 L3665.60 461.97 L3672.03 461.97 L3672.03 461.97" stroke-linejoin="round" style="fill:none;stroke:#55752F;stroke-width:6.48"/>
	<line x1="2459.04" y1="1873.51" x2="2459.04" y2="414.45" style="stroke:#000000;stroke-width:4.32"/>
	<line x1="2459.04" y1="1825.99" x2="2429.09" y2="1825.99" style="stroke:#000000;stroke-width:4.32"/>
	<text x="2413.99" y="1852.27" style="font-family:'Helvetica';font-size:74.99px;fill:#000000" text-anchor="end">0.000</text>
	<line x1="2459.04" y1="1472.05" x2="2429.09" y2="1472.05" style="stroke:#000000;stroke-width:4.32"/>
	<text x="2413.99" y="1498.33" style="font-family:'Helvetica';font-size:74.99px;fill:#000000" text-anchor="end">0.002</text>
	<line x1="2459.04" y1="1118.12" x2="2429.09" y2="1118.12" style="stroke:#000000;stroke-width:4.32"/>
	<text x="2413.99" y="1144.40" style="font-family:'Helvetica';font-size:74.99px;fill:#000000" text-anchor="end">0.004</text>
	<line x1="2459.04" y1="1873.51" x2="3820.91" y2="1873.51" style="stroke:#000000;stroke-width:4.32"/>
	<line x1="2506.56" y1="1873.51" x2="2506.56" y2="1903.46" style="stroke:#000000;stroke-width:4.32"/>
	<text x="2506.56" y="1970.87" style="font-family:'Helvetica';font-size:74.99px;fill:#000000" text-anchor="middle">1 Feb 20</text>
	<line x1="2690.20" y1="1873.51" x2="2690.20" y2="1903.46" style="stroke:#000000;stroke-width:4.32"/>
	<text x="2690.20" y="1970.87" style="font-family:'Helvetica';font-size:74.99px;fill:#000000" text-anchor="middle">1 Mar 20</text>
	<line x1="2886.59" y1="1873.51" x2="2886.59" y2="1903.46" style="stroke:#000000;stroke-width:4.32"/>
	<text x="2886.59" y="1970.87" style="font-family:'Helvetica';font-size:74.99px;fill:#000000" text-anchor="middle">1 Apr 20</text>
	<line x1="3082.98" y1="1873.51" x2="3082.98" y2="1903.46" style="stroke:#000000;stroke-width:4.32"/>
	<text x="3082.98" y="1970.87" style="font-family:'Helvetica';font-size:74.99px;fill:#000000" text-anchor="middle">1 May 20</text>
	<line x1="3272.94" y1="1873.51" x2="3272.94" y2="1903.46" style="stroke:#000000;stroke-width:4.32"/>
	<text x="3272.94" y="1970.87" style="font-family:'Helvetica';font-size:74.99px;fill:#000000" text-anchor="middle">1 June 20</text>
	<line x1="3463.02" y1="1873.51" x2="3463.02" y2="1903.46" style="stroke:#000000;stroke-width:4.32"/>
	<text x="3463.02" y="1970.87" style="font-family:'Helvetica';font-size:74.99px;fill:#000000" text-anchor="middle">1 July 20</text>
	<line x1="3659.41" y1="1873.51" x2="3659.41" y2="1903.46" style="stroke:#000000;stroke-width:4.32"/>
	<text x="3659.41" y="1970.87" style="font-family:'Helvetica';font-size:74.99px;fill:#000000" text-anchor="middle">1 Aug 20</text>
	<text x="3140.03" y="2053.41" style="font-family:'Helvetica';font-size:74.99px;fill:#000000" text-anchor="middle"> </text>
	<text x="3140.03" y="369.91" style="font-family:'Helvetica';font-size:104.94px;fill:#1E2D53" text-anchor="middle">Male</text>
	<text x="150.62" y="1187.29" style="font-family:'Helvetica';font-size:99.99px;fill:#000000" transform="rotate(-90 150.62,1187.29)" text-anchor="middle">Cumulative probability</text>
	<text x="250.61" y="1187.29" style="font-family:'Helvetica';font-size:99.99px;fill:#000000" transform="rotate(-90 250.61,1187.29)" text-anchor="middle">of COVID-19 death</text>
	<text x="2097.19" y="157.51" style="font-family:'Helvetica';font-size:110.01px;fill:#000000" text-anchor="middle"> </text>
	<rect x="1302.10" y="2201.21" width="1590.19" height="580.90" style="fill:#FFFFFF"/>
	<rect x="1304.98" y="2204.09" width="1584.43" height="575.14" style="fill:none;stroke:#000000;stroke-width:5.76"/>
	<line x1="1345.29" y1="2408.87" x2="1719.63" y2="2408.87" style="stroke:#1A476F;stroke-width:8.64"/>
	<line x1="1345.29" y1="2548.83" x2="1719.63" y2="2548.83" style="stroke:#90353B;stroke-width:8.64"/>
	<line x1="1345.29" y1="2688.92" x2="1719.63" y2="2688.92" style="stroke:#55752F;stroke-width:8.64"/>
	<text x="1779.65" y="2436.88" style="font-family:'Helvetica';font-size:79.94px;fill:#000000">18-&lt;30</text>
	<text x="1779.65" y="2576.85" style="font-family:'Helvetica';font-size:79.94px;fill:#000000">30-&lt;40</text>
	<text x="1779.65" y="2716.94" style="font-family:'Helvetica';font-size:79.94px;fill:#000000">40-&lt;50</text>
	<text x="2243.22" y="2436.88" style="font-family:'Helvetica';font-size:79.94px;fill:#000000">50-&lt;60</text>
	<text x="2243.22" y="2576.85" style="font-family:'Helvetica';font-size:79.94px;fill:#000000">60-&lt;70</text>
	<text x="2243.22" y="2716.94" style="font-family:'Helvetica';font-size:79.94px;fill:#000000">70-&lt;80</text>
	<text x="2706.78" y="2436.88" style="font-family:'Helvetica';font-size:79.94px;fill:#000000">80+</text>
	<text x="2097.19" y="2308.96" style="font-family:'Helvetica';font-size:79.94px;fill:#000000" text-anchor="middle">Age group</text>
</svg>
