<?xml version="1.0" encoding="UTF-8" standalone="no"?>
<!-- This is a Stata 16.1 generated SVG file (http://www.stata.com) -->

<svg version="1.1" width="5.50in" height="4.00in" viewBox="0 0 3960 2880" xmlns="http://www.w3.org/2000/svg" xmlns:xlink="http://www.w3.org/1999/xlink">
	<desc>Stata Graph - Graph</desc>
	<rect x="0" y="0" width="3960" height="2880" style="fill:#EAF2F3;stroke:none"/>
	<rect x="0.00" y="0.00" width="3959.88" height="2880.00" style="fill:#EAF2F3"/>
	<rect x="2.88" y="2.88" width="3954.12" height="2874.24" style="fill:none;stroke:#EAF2F3;stroke-width:5.76"/>
	<rect x="297.87" y="207.91" width="1799.32" height="1958.65" style="fill:#EAF2F3"/>
	<rect x="300.03" y="210.07" width="1795.01" height="1954.33" style="fill:none;stroke:#EAF2F3;stroke-width:4.32"/>
	<rect x="659.71" y="414.45" width="1361.87" height="1459.06" style="fill:#FFFFFF"/>
	<rect x="661.87" y="416.61" width="1357.55" height="1454.74" style="fill:none;stroke:#FFFFFF;stroke-width:4.32"/>
	<line x1="659.71" y1="1825.99" x2="2021.58" y2="1825.99" style="stroke:#EAF2F3;stroke-width:6.48"/>
	<line x1="659.71" y1="1632.44" x2="2021.58" y2="1632.44" style="stroke:#EAF2F3;stroke-width:6.48"/>
	<line x1="659.71" y1="1438.89" x2="2021.58" y2="1438.89" style="stroke:#EAF2F3;stroke-width:6.48"/>
	<line x1="659.71" y1="1245.34" x2="2021.58" y2="1245.34" style="stroke:#EAF2F3;stroke-width:6.48"/>
	<line x1="659.71" y1="1051.78" x2="2021.58" y2="1051.78" style="stroke:#EAF2F3;stroke-width:6.48"/>
	<line x1="659.71" y1="858.23" x2="2021.58" y2="858.23" style="stroke:#EAF2F3;stroke-width:6.48"/>
	<path d=" M713.54 1825.99 L719.85 1825.99 L719.85 1825.99 L726.16 1825.99 L726.16 1825.99 L732.48 1825.99 L732.48 1825.99 L738.91 1825.99 L738.91 1825.99 L745.22 1825.99 L745.22 1825.99 L751.53 1825.99 L751.53 1825.99 L757.85 1825.99 L757.85 1825.99 L764.16 1825.99 L764.16 1825.99 L770.59 1825.99 L770.59 1825.99 L776.90 1825.99 L776.90 1825.99 L783.21 1825.99 L783.21 1825.99 L789.52 1825.99 L789.52 1825.99 L795.84 1825.99 L795.84 1825.12 L808.58 1825.12 L808.58 1825.12 L814.89 1825.12 L814.89 1825.12 L821.21 1825.12 L821.21 1825.12 L827.52 1825.12 L827.52 1825.12 L833.83 1825.12 L833.83 1825.12 L840.26 1825.12 L840.26 1825.12 L846.57 1825.12 L846.57 1825.12 L852.88 1825.12 L852.88 1825.12 L859.20 1825.12 L859.20 1825.12 L865.51 1825.12 L865.51 1825.12 L871.94 1825.12 L871.94 1825.12 L878.25 1825.12 L878.25 1825.12 L884.57 1825.12 L884.57 1825.12 L890.88 1825.12 L890.88 1825.12 L897.19 1825.12 L897.19 1825.12 L903.50 1825.12 L903.50 1825.12 L909.93 1825.12 L909.93 1825.12 L916.25 1825.12 L916.25 1825.12 L922.56 1825.12 L922.56 1825.12 L928.87 1825.12 L928.87 1825.12 L935.18 1825.12 L935.18 1825.12 L941.61 1825.12 L941.61 1824.63 L947.92 1824.63 L947.92 1824.63 L954.24 1824.63 L954.24 1824.63 L960.55 1824.63 L960.55 1824.63 L966.86 1824.63 L966.86 1824.63 L973.29 1824.63 L973.29 1824.63 L979.61 1824.63 L979.61 1774.88 L985.92 1774.88 L985.92 1774.88 L998.54 1774.88 L998.54 1774.88 L1004.85 1774.88 L1004.85 1774.88 L1011.28 1774.88 L1011.28 1774.88 L1017.60 1774.88 L1017.60 1774.88 L1023.91 1774.88 L1023.91 1774.88 L1030.22 1774.88 L1030.22 1774.88 L1036.53 1774.88 L1036.53 1774.88 L1042.96 1774.88 L1042.96 1774.88 L1049.28 1774.88 L1049.28 1774.88 L1055.59 1774.88 L1055.59 1774.88 L1061.90 1774.88 L1061.90 1774.88 L1068.21 1774.88 L1068.21 1774.88 L1074.52 1774.88 L1074.52 1774.88 L1080.96 1774.88 L1080.96 1774.38 L1087.27 1774.38 L1087.27 1773.89 L1093.58 1773.89 L1093.58 1773.89 L1099.89 1773.89 L1099.89 1773.52 L1106.20 1773.52 L1106.20 1772.53 L1112.64 1772.53 L1112.64 1771.54 L1118.95 1771.54 L1118.95 1769.68 L1125.26 1769.68 L1125.26 1768.69 L1131.57 1768.69 L1131.57 1767.82 L1137.88 1767.82 L1137.88 1766.34 L1144.32 1766.34 L1144.32 1765.84 L1150.63 1765.84 L1150.63 1763.49 L1156.94 1763.49 L1156.94 1761.64 L1163.25 1761.64 L1163.25 1761.64 L1169.56 1761.64 L1169.56 1761.64 L1175.87 1761.64 L1175.87 1549.52 L1182.31 1549.52 L1182.31 1549.52 L1201.24 1549.52 L1201.24 1549.52 L1207.55 1549.52 L1207.55 1549.52 L1213.99 1549.52 L1213.99 1549.52 L1220.30 1549.52 L1220.30 1549.52 L1226.61 1549.52 L1226.61 1549.52 L1239.23 1549.52 L1239.23 1549.52 L1245.54 1549.52 L1245.54 1549.52 L1258.29 1549.52 L1258.29 1549.52 L1264.60 1549.52 L1264.60 1549.52 L1270.91 1549.52 L1270.91 1549.52 L1277.22 1549.52 L1277.22 1549.03 L1283.66 1549.03 L1283.66 1548.66 L1289.97 1548.66 L1289.97 1548.66 L1296.28 1548.66 L1296.28 1548.66 L1302.59 1548.66 L1302.59 1548.16 L1308.90 1548.16 L1308.90 1547.17 L1315.34 1547.17 L1315.34 1547.17 L1321.65 1547.17 L1321.65 1547.17 L1327.96 1547.17 L1327.96 1547.17 L1334.27 1547.17 L1334.27 1547.17 L1340.58 1547.17 L1340.58 1547.17 L1346.89 1547.17 L1346.89 1546.68 L1353.33 1546.68 L1353.33 1546.68 L1359.64 1546.68 L1359.64 1546.18 L1365.95 1546.18 L1365.95 1446.44 L1391.32 1446.44 L1391.32 1446.44 L1397.63 1446.44 L1397.63 1446.44 L1403.94 1446.44 L1403.94 1446.44 L1410.26 1446.44 L1410.26 1446.44 L1416.57 1446.44 L1416.57 1446.44 L1423.00 1446.44 L1423.00 1446.44 L1429.31 1446.44 L1429.31 1446.44 L1435.62 1446.44 L1435.62 1446.44 L1441.93 1446.44 L1441.93 1446.44 L1448.25 1446.44 L1448.25 1446.44 L1454.68 1446.44 L1454.68 1446.44 L1460.99 1446.44 L1460.99 1446.44 L1467.30 1446.44 L1467.30 1446.44 L1473.62 1446.44 L1473.62 1446.44 L1479.93 1446.44 L1479.93 1446.44 L1486.36 1446.44 L1486.36 1446.44 L1492.67 1446.44 L1492.67 1446.44 L1498.98 1446.44 L1498.98 1446.44 L1505.30 1446.44 L1505.30 1446.44 L1511.61 1446.44 L1511.61 1446.44 L1517.92 1446.44 L1517.92 1446.44 L1524.35 1446.44 L1524.35 1446.44 L1530.66 1446.44 L1530.66 1446.44 L1536.97 1446.44 L1536.97 1446.44 L1543.29 1446.44 L1543.29 1446.44 L1549.60 1446.44 L1549.60 1446.44 L1556.03 1446.44 L1556.03 1446.44 L1562.34 1446.44 L1562.34 1367.60 L1568.65 1367.60 L1568.65 1367.60 L1574.97 1367.60 L1574.97 1367.60 L1581.28 1367.60 L1581.28 1367.60 L1587.59 1367.60 L1587.59 1367.60 L1594.02 1367.60 L1594.02 1367.60 L1600.34 1367.60 L1600.34 1367.60 L1606.65 1367.60 L1606.65 1367.60 L1612.96 1367.60 L1612.96 1367.60 L1619.27 1367.60 L1619.27 1367.60 L1625.70 1367.60 L1625.70 1367.60 L1632.02 1367.60 L1632.02 1367.60 L1638.33 1367.60 L1638.33 1367.60 L1644.64 1367.60 L1644.64 1367.60 L1650.95 1367.60 L1650.95 1367.60 L1657.38 1367.60 L1657.38 1367.60 L1663.69 1367.60 L1663.69 1367.60 L1670.01 1367.60 L1670.01 1367.11 L1676.32 1367.11 L1676.32 1367.11 L1682.63 1367.11 L1682.63 1367.11 L1688.94 1367.11 L1688.94 1367.11 L1695.38 1367.11 L1695.38 1367.11 L1701.69 1367.11 L1701.69 1367.11 L1708.00 1367.11 L1708.00 1366.61 L1714.31 1366.61 L1714.31 1366.61 L1720.62 1366.61 L1720.62 1366.61 L1727.06 1366.61 L1727.06 1366.61 L1733.37 1366.61 L1733.37 1366.61 L1739.68 1366.61 L1739.68 1366.61 L1745.99 1366.61 L1745.99 1366.61 L1752.30 1366.61 L1752.30 1322.31 L1783.98 1322.31 L1783.98 1322.31 L1796.73 1322.31 L1796.73 1322.31 L1809.35 1322.31 L1809.35 1322.31 L1815.66 1322.31 L1815.66 1322.31 L1821.97 1322.31 L1821.97 1322.31 L1828.41 1322.31 L1828.41 1322.31 L1834.72 1322.31 L1834.72 1322.31 L1841.03 1322.31 L1841.03 1322.31 L1872.71 1322.31 L1872.71 1322.31" stroke-linejoin="round" style="fill:none;stroke:#1A476F;stroke-width:6.48"/>
	<path d=" M713.54 1825.99 L719.85 1825.99 L719.85 1825.99 L726.16 1825.99 L726.16 1825.99 L732.48 1825.99 L732.48 1825.99 L738.91 1825.99 L738.91 1825.99 L745.22 1825.99 L745.22 1825.99 L751.53 1825.99 L751.53 1825.99 L757.85 1825.99 L757.85 1825.99 L764.16 1825.99 L764.16 1825.99 L770.59 1825.99 L770.59 1825.99 L776.90 1825.99 L776.90 1825.99 L783.21 1825.99 L783.21 1825.99 L789.52 1825.99 L789.52 1825.99 L795.84 1825.99 L795.84 1825.37 L802.27 1825.37 L802.27 1825.37 L808.58 1825.37 L808.58 1825.37 L814.89 1825.37 L814.89 1825.37 L821.21 1825.37 L821.21 1825.37 L827.52 1825.37 L827.52 1825.37 L833.83 1825.37 L833.83 1825.37 L840.26 1825.37 L840.26 1825.37 L846.57 1825.37 L846.57 1825.37 L852.88 1825.37 L852.88 1825.37 L859.20 1825.37 L859.20 1825.37 L865.51 1825.37 L865.51 1825.37 L871.94 1825.37 L871.94 1825.37 L878.25 1825.37 L878.25 1825.37 L884.57 1825.37 L884.57 1825.37 L890.88 1825.37 L890.88 1825.37 L897.19 1825.37 L897.19 1825.37 L903.50 1825.37 L903.50 1825.37 L909.93 1825.37 L909.93 1825.37 L916.25 1825.37 L916.25 1825.37 L922.56 1825.37 L922.56 1825.37 L928.87 1825.37 L928.87 1825.37 L935.18 1825.37 L935.18 1825.37 L941.61 1825.37 L941.61 1825.37 L947.92 1825.37 L947.92 1825.37 L954.24 1825.37 L954.24 1825.37 L960.55 1825.37 L960.55 1825.37 L966.86 1825.37 L966.86 1825.37 L973.29 1825.37 L973.29 1825.12 L979.61 1825.12 L979.61 1761.39 L985.92 1761.39 L985.92 1761.39 L992.23 1761.39 L992.23 1761.39 L998.54 1761.39 L998.54 1761.39 L1004.85 1761.39 L1004.85 1761.39 L1011.28 1761.39 L1011.28 1761.39 L1017.60 1761.39 L1017.60 1761.39 L1023.91 1761.39 L1023.91 1761.39 L1030.22 1761.39 L1030.22 1761.39 L1036.53 1761.39 L1036.53 1761.39 L1042.96 1761.39 L1042.96 1761.14 L1049.28 1761.14 L1049.28 1761.14 L1055.59 1761.14 L1055.59 1760.52 L1061.90 1760.52 L1061.90 1760.28 L1068.21 1760.28 L1068.21 1759.78 L1074.52 1759.78 L1074.52 1759.66 L1080.96 1759.66 L1080.96 1758.91 L1087.27 1758.91 L1087.27 1757.92 L1093.58 1757.92 L1093.58 1757.68 L1099.89 1757.68 L1099.89 1756.19 L1106.20 1756.19 L1106.20 1754.95 L1112.64 1754.95 L1112.64 1753.59 L1118.95 1753.59 L1118.95 1751.74 L1125.26 1751.74 L1125.26 1750.13 L1131.57 1750.13 L1131.57 1748.89 L1137.88 1748.89 L1137.88 1747.78 L1144.32 1747.78 L1144.32 1746.29 L1150.63 1746.29 L1150.63 1745.18 L1156.94 1745.18 L1156.94 1743.07 L1163.25 1743.07 L1163.25 1742.45 L1169.56 1742.45 L1169.56 1741.84 L1175.87 1741.84 L1175.87 1487.40 L1188.62 1487.40 L1188.62 1487.40 L1194.93 1487.40 L1194.93 1487.40 L1201.24 1487.40 L1201.24 1487.40 L1207.55 1487.40 L1207.55 1487.40 L1213.99 1487.40 L1213.99 1487.40 L1220.30 1487.40 L1220.30 1487.40 L1226.61 1487.40 L1226.61 1487.40 L1232.92 1487.40 L1232.92 1487.40 L1239.23 1487.40 L1239.23 1487.40 L1245.54 1487.40 L1245.54 1487.40 L1251.98 1487.40 L1251.98 1487.40 L1258.29 1487.40 L1258.29 1487.27 L1264.60 1487.27 L1264.60 1487.27 L1270.91 1487.27 L1270.91 1487.27 L1277.22 1487.27 L1277.22 1486.78 L1283.66 1486.78 L1283.66 1486.41 L1289.97 1486.41 L1289.97 1485.79 L1296.28 1485.79 L1296.28 1485.29 L1302.59 1485.29 L1302.59 1484.92 L1308.90 1484.92 L1308.90 1484.43 L1315.34 1484.43 L1315.34 1484.18 L1321.65 1484.18 L1321.65 1483.81 L1327.96 1483.81 L1327.96 1483.56 L1334.27 1483.56 L1334.27 1483.31 L1340.58 1483.31 L1340.58 1482.94 L1346.89 1482.94 L1346.89 1482.70 L1353.33 1482.70 L1353.33 1482.70 L1359.64 1482.70 L1359.64 1482.45 L1365.95 1482.45 L1365.95 1350.15 L1378.58 1350.15 L1378.58 1350.15 L1385.01 1350.15 L1385.01 1350.15 L1391.32 1350.15 L1391.32 1350.15 L1397.63 1350.15 L1397.63 1350.15 L1403.94 1350.15 L1403.94 1350.15 L1410.26 1350.15 L1410.26 1350.15 L1416.57 1350.15 L1416.57 1350.15 L1423.00 1350.15 L1423.00 1350.15 L1429.31 1350.15 L1429.31 1350.15 L1435.62 1350.15 L1435.62 1350.15 L1441.93 1350.15 L1441.93 1350.15 L1448.25 1350.15 L1448.25 1349.91 L1454.68 1349.91 L1454.68 1349.91 L1460.99 1349.91 L1460.99 1349.91 L1467.30 1349.91 L1467.30 1349.91 L1473.62 1349.91 L1473.62 1349.66 L1479.93 1349.66 L1479.93 1349.66 L1486.36 1349.66 L1486.36 1349.66 L1492.67 1349.66 L1492.67 1349.54 L1498.98 1349.54 L1498.98 1349.54 L1505.30 1349.54 L1505.30 1349.29 L1511.61 1349.29 L1511.61 1349.04 L1517.92 1349.04 L1517.92 1348.79 L1524.35 1348.79 L1524.35 1348.79 L1530.66 1348.79 L1530.66 1348.67 L1536.97 1348.67 L1536.97 1348.42 L1543.29 1348.42 L1543.29 1348.42 L1549.60 1348.42 L1549.60 1348.17 L1556.03 1348.17 L1556.03 1347.93 L1562.34 1347.93 L1562.34 1274.42 L1568.65 1274.42 L1568.65 1274.42 L1574.97 1274.42 L1574.97 1274.42 L1581.28 1274.42 L1581.28 1274.42 L1587.59 1274.42 L1587.59 1274.42 L1594.02 1274.42 L1594.02 1274.42 L1600.34 1274.42 L1600.34 1274.42 L1606.65 1274.42 L1606.65 1274.42 L1612.96 1274.42 L1612.96 1274.42 L1619.27 1274.42 L1619.27 1274.42 L1625.70 1274.42 L1625.70 1274.42 L1632.02 1274.42 L1632.02 1274.42 L1638.33 1274.42 L1638.33 1274.42 L1644.64 1274.42 L1644.64 1274.42 L1650.95 1274.42 L1650.95 1274.42 L1657.38 1274.42 L1657.38 1274.42 L1663.69 1274.42 L1663.69 1274.42 L1670.01 1274.42 L1670.01 1274.42 L1676.32 1274.42 L1676.32 1274.42 L1682.63 1274.42 L1682.63 1274.42 L1688.94 1274.42 L1688.94 1274.42 L1695.38 1274.42 L1695.38 1274.42 L1701.69 1274.42 L1701.69 1274.42 L1708.00 1274.42 L1708.00 1274.42 L1714.31 1274.42 L1714.31 1274.42 L1720.62 1274.42 L1720.62 1274.42 L1727.06 1274.42 L1727.06 1274.42 L1733.37 1274.42 L1733.37 1274.42 L1739.68 1274.42 L1739.68 1274.42 L1745.99 1274.42 L1745.99 1274.42 L1752.30 1274.42 L1752.30 1231.47 L1765.05 1231.47 L1765.05 1231.47 L1777.67 1231.47 L1777.67 1231.47 L1783.98 1231.47 L1783.98 1231.47 L1790.29 1231.47 L1790.29 1231.47 L1796.73 1231.47 L1796.73 1231.47 L1803.04 1231.47 L1803.04 1231.47 L1809.35 1231.47 L1809.35 1231.47 L1815.66 1231.47 L1815.66 1231.47 L1821.97 1231.47 L1821.97 1231.47 L1828.41 1231.47 L1828.41 1231.47 L1834.72 1231.47 L1834.72 1231.47 L1841.03 1231.47 L1841.03 1231.47 L1847.34 1231.47 L1847.34 1231.47 L1853.65 1231.47 L1853.65 1231.47 L1866.40 1231.47 L1866.40 1231.47 L1872.71 1231.47 L1872.71 1231.47" stroke-linejoin="round" style="fill:none;stroke:#90353B;stroke-width:6.48"/>
	<path d=" M713.54 1825.99 L719.85 1825.99 L719.85 1825.99 L726.16 1825.99 L726.16 1825.99 L732.48 1825.99 L732.48 1825.99 L738.91 1825.99 L738.91 1825.99 L745.22 1825.99 L745.22 1825.99 L751.53 1825.99 L751.53 1825.99 L757.85 1825.99 L757.85 1825.99 L764.16 1825.99 L764.16 1825.99 L770.59 1825.99 L770.59 1825.99 L776.90 1825.99 L776.90 1825.99 L783.21 1825.99 L783.21 1825.99 L789.52 1825.99 L789.52 1825.99 L795.84 1825.99 L795.84 1825.00 L802.27 1825.00 L802.27 1825.00 L808.58 1825.00 L808.58 1825.00 L814.89 1825.00 L814.89 1825.00 L821.21 1825.00 L821.21 1825.00 L827.52 1825.00 L827.52 1825.00 L833.83 1825.00 L833.83 1825.00 L840.26 1825.00 L840.26 1825.00 L846.57 1825.00 L846.57 1825.00 L852.88 1825.00 L852.88 1825.00 L859.20 1825.00 L859.20 1825.00 L865.51 1825.00 L865.51 1825.00 L871.94 1825.00 L871.94 1825.00 L878.25 1825.00 L878.25 1825.00 L884.57 1825.00 L884.57 1825.00 L890.88 1825.00 L890.88 1825.00 L897.19 1825.00 L897.19 1825.00 L903.50 1825.00 L903.50 1825.00 L909.93 1825.00 L909.93 1825.00 L916.25 1825.00 L916.25 1825.00 L922.56 1825.00 L922.56 1825.00 L928.87 1825.00 L928.87 1825.00 L935.18 1825.00 L935.18 1825.00 L941.61 1825.00 L941.61 1825.00 L947.92 1825.00 L947.92 1825.00 L954.24 1825.00 L954.24 1825.00 L960.55 1825.00 L960.55 1825.00 L966.86 1825.00 L966.86 1825.00 L973.29 1825.00 L973.29 1825.00 L979.61 1825.00 L979.61 1701.86 L985.92 1701.86 L985.92 1701.86 L992.23 1701.86 L992.23 1701.86 L998.54 1701.86 L998.54 1701.86 L1004.85 1701.86 L1004.85 1701.86 L1011.28 1701.86 L1011.28 1701.86 L1017.60 1701.86 L1017.60 1701.86 L1023.91 1701.86 L1023.91 1701.86 L1030.22 1701.86 L1030.22 1701.49 L1036.53 1701.49 L1036.53 1701.49 L1042.96 1701.49 L1042.96 1701.49 L1049.28 1701.49 L1049.28 1701.49 L1055.59 1701.49 L1055.59 1701.12 L1061.90 1701.12 L1061.90 1701.12 L1068.21 1701.12 L1068.21 1700.13 L1074.52 1700.13 L1074.52 1699.39 L1080.96 1699.39 L1080.96 1698.03 L1087.27 1698.03 L1087.27 1696.17 L1093.58 1696.17 L1093.58 1693.08 L1099.89 1693.08 L1099.89 1689.49 L1106.20 1689.49 L1106.20 1683.92 L1112.64 1683.92 L1112.64 1679.96 L1118.95 1679.96 L1118.95 1676.12 L1125.26 1676.12 L1125.26 1670.80 L1131.57 1670.80 L1131.57 1664.74 L1137.88 1664.74 L1137.88 1659.54 L1144.32 1659.54 L1144.32 1653.48 L1150.63 1653.48 L1150.63 1649.27 L1156.94 1649.27 L1156.94 1641.10 L1163.25 1641.10 L1163.25 1635.41 L1169.56 1635.41 L1169.56 1632.31 L1175.87 1632.31 L1175.87 1068.12 L1182.31 1068.12 L1182.31 1068.12 L1188.62 1068.12 L1188.62 1068.12 L1194.93 1068.12 L1194.93 1068.12 L1201.24 1068.12 L1201.24 1068.12 L1207.55 1068.12 L1207.55 1068.12 L1213.99 1068.12 L1213.99 1068.12 L1220.30 1068.12 L1220.30 1068.12 L1226.61 1068.12 L1226.61 1068.12 L1232.92 1068.12 L1232.92 1068.12 L1239.23 1068.12 L1239.23 1068.12 L1245.54 1068.12 L1245.54 1068.12 L1251.98 1068.12 L1251.98 1068.12 L1258.29 1068.12 L1258.29 1067.38 L1264.60 1067.38 L1264.60 1067.13 L1270.91 1067.13 L1270.91 1066.39 L1277.22 1066.39 L1277.22 1062.80 L1283.66 1062.80 L1283.66 1061.81 L1289.97 1061.81 L1289.97 1061.07 L1296.28 1061.07 L1296.28 1056.73 L1302.59 1056.73 L1302.59 1054.63 L1308.90 1054.63 L1308.90 1053.89 L1315.34 1053.89 L1315.34 1052.53 L1321.65 1052.53 L1321.65 1051.04 L1327.96 1051.04 L1327.96 1047.82 L1334.27 1047.82 L1334.27 1044.98 L1340.58 1044.98 L1340.58 1044.36 L1346.89 1044.36 L1346.89 1042.50 L1353.33 1042.50 L1353.33 1040.77 L1359.64 1040.77 L1359.64 1037.18 L1365.95 1037.18 L1365.95 696.61 L1372.26 696.61 L1372.26 696.61 L1378.58 696.61 L1378.58 696.61 L1385.01 696.61 L1385.01 696.61 L1391.32 696.61 L1391.32 696.61 L1397.63 696.61 L1397.63 696.61 L1403.94 696.61 L1403.94 696.61 L1410.26 696.61 L1410.26 696.61 L1416.57 696.61 L1416.57 696.61 L1423.00 696.61 L1423.00 696.61 L1429.31 696.61 L1429.31 696.61 L1435.62 696.61 L1435.62 696.61 L1441.93 696.61 L1441.93 696.61 L1448.25 696.61 L1448.25 696.24 L1454.68 696.24 L1454.68 695.87 L1460.99 695.87 L1460.99 695.87 L1467.30 695.87 L1467.30 695.87 L1473.62 695.87 L1473.62 695.62 L1479.93 695.62 L1479.93 695.62 L1486.36 695.62 L1486.36 695.25 L1492.67 695.25 L1492.67 693.76 L1498.98 693.76 L1498.98 693.39 L1505.30 693.39 L1505.30 692.03 L1511.61 692.03 L1511.61 691.66 L1517.92 691.66 L1517.92 690.55 L1524.35 690.55 L1524.35 689.80 L1530.66 689.80 L1530.66 689.06 L1536.97 689.06 L1536.97 688.81 L1543.29 688.81 L1543.29 687.70 L1549.60 687.70 L1549.60 687.33 L1556.03 687.33 L1556.03 686.59 L1562.34 686.59 L1562.34 525.58 L1568.65 525.58 L1568.65 525.58 L1574.97 525.58 L1574.97 525.58 L1581.28 525.58 L1581.28 525.58 L1587.59 525.58 L1587.59 525.58 L1594.02 525.58 L1594.02 525.58 L1600.34 525.58 L1600.34 525.58 L1606.65 525.58 L1606.65 525.58 L1612.96 525.58 L1612.96 525.58 L1619.27 525.58 L1619.27 525.58 L1625.70 525.58 L1625.70 525.58 L1632.02 525.58 L1632.02 525.58 L1638.33 525.58 L1638.33 525.58 L1644.64 525.58 L1644.64 525.21 L1650.95 525.21 L1650.95 525.21 L1657.38 525.21 L1657.38 525.21 L1663.69 525.21 L1663.69 525.21 L1670.01 525.21 L1670.01 525.21 L1676.32 525.21 L1676.32 524.84 L1682.63 524.84 L1682.63 524.84 L1688.94 524.84 L1688.94 524.84 L1695.38 524.84 L1695.38 524.84 L1701.69 524.84 L1701.69 524.84 L1708.00 524.84 L1708.00 524.47 L1714.31 524.47 L1714.31 524.47 L1720.62 524.47 L1720.62 524.47 L1727.06 524.47 L1727.06 524.47 L1733.37 524.47 L1733.37 524.47 L1739.68 524.47 L1739.68 524.47 L1745.99 524.47 L1745.99 524.10 L1752.30 524.10 L1752.30 461.97 L1758.73 461.97 L1758.73 461.97 L1765.05 461.97 L1765.05 461.97 L1771.36 461.97 L1771.36 461.97 L1777.67 461.97 L1777.67 461.97 L1783.98 461.97 L1783.98 461.97 L1790.29 461.97 L1790.29 461.97 L1796.73 461.97 L1796.73 461.97 L1803.04 461.97 L1803.04 461.97 L1809.35 461.97 L1809.35 461.97 L1815.66 461.97 L1815.66 461.97 L1821.97 461.97 L1821.97 461.97 L1828.41 461.97 L1828.41 461.97 L1834.72 461.97 L1834.72 461.97 L1841.03 461.97 L1841.03 461.97 L1847.34 461.97 L1847.34 461.97 L1853.65 461.97 L1853.65 461.97 L1859.96 461.97 L1859.96 461.97 L1866.40 461.97 L1866.40 461.97 L1872.71 461.97 L1872.71 461.97" stroke-linejoin="round" style="fill:none;stroke:#55752F;stroke-width:6.48"/>
	<line x1="659.71" y1="1873.51" x2="659.71" y2="414.45" style="stroke:#000000;stroke-width:4.32"/>
	<line x1="659.71" y1="1825.99" x2="629.76" y2="1825.99" style="stroke:#000000;stroke-width:4.32"/>
	<text x="614.79" y="1852.27" style="font-family:'Helvetica';font-size:74.99px;fill:#000000" text-anchor="end">0.000</text>
	<line x1="659.71" y1="1632.44" x2="629.76" y2="1632.44" style="stroke:#000000;stroke-width:4.32"/>
	<text x="614.79" y="1658.72" style="font-family:'Helvetica';font-size:74.99px;fill:#000000" text-anchor="end">0.001</text>
	<line x1="659.71" y1="1438.89" x2="629.76" y2="1438.89" style="stroke:#000000;stroke-width:4.32"/>
	<text x="614.79" y="1465.17" style="font-family:'Helvetica';font-size:74.99px;fill:#000000" text-anchor="end">0.002</text>
	<line x1="659.71" y1="1245.34" x2="629.76" y2="1245.34" style="stroke:#000000;stroke-width:4.32"/>
	<text x="614.79" y="1271.61" style="font-family:'Helvetica';font-size:74.99px;fill:#000000" text-anchor="end">0.003</text>
	<line x1="659.71" y1="1051.78" x2="629.76" y2="1051.78" style="stroke:#000000;stroke-width:4.32"/>
	<text x="614.79" y="1078.06" style="font-family:'Helvetica';font-size:74.99px;fill:#000000" text-anchor="end">0.004</text>
	<line x1="659.71" y1="858.23" x2="629.76" y2="858.23" style="stroke:#000000;stroke-width:4.32"/>
	<text x="614.79" y="884.51" style="font-family:'Helvetica';font-size:74.99px;fill:#000000" text-anchor="end">0.005</text>
	<line x1="659.71" y1="1873.51" x2="2021.58" y2="1873.51" style="stroke:#000000;stroke-width:4.32"/>
	<line x1="707.23" y1="1873.51" x2="707.23" y2="1903.46" style="stroke:#000000;stroke-width:4.32"/>
	<text x="707.23" y="1970.87" style="font-family:'Helvetica';font-size:74.99px;fill:#000000" text-anchor="middle">1 Feb 20</text>
	<line x1="891.00" y1="1873.51" x2="891.00" y2="1903.46" style="stroke:#000000;stroke-width:4.32"/>
	<text x="891.00" y="1970.87" style="font-family:'Helvetica';font-size:74.99px;fill:#000000" text-anchor="middle">1 Mar 20</text>
	<line x1="1087.27" y1="1873.51" x2="1087.27" y2="1903.46" style="stroke:#000000;stroke-width:4.32"/>
	<text x="1087.27" y="1970.87" style="font-family:'Helvetica';font-size:74.99px;fill:#000000" text-anchor="middle">1 Apr 20</text>
	<line x1="1283.66" y1="1873.51" x2="1283.66" y2="1903.46" style="stroke:#000000;stroke-width:4.32"/>
	<text x="1283.66" y="1970.87" style="font-family:'Helvetica';font-size:74.99px;fill:#000000" text-anchor="middle">1 May 20</text>
	<line x1="1473.74" y1="1873.51" x2="1473.74" y2="1903.46" style="stroke:#000000;stroke-width:4.32"/>
	<text x="1473.74" y="1970.87" style="font-family:'Helvetica';font-size:74.99px;fill:#000000" text-anchor="middle">1 June 20</text>
	<line x1="1663.69" y1="1873.51" x2="1663.69" y2="1903.46" style="stroke:#000000;stroke-width:4.32"/>
	<text x="1663.69" y="1970.87" style="font-family:'Helvetica';font-size:74.99px;fill:#000000" text-anchor="middle">1 July 20</text>
	<line x1="1860.09" y1="1873.51" x2="1860.09" y2="1903.46" style="stroke:#000000;stroke-width:4.32"/>
	<text x="1860.09" y="1970.87" style="font-family:'Helvetica';font-size:74.99px;fill:#000000" text-anchor="middle">1 Aug 20</text>
	<text x="1340.71" y="2053.41" style="font-family:'Helvetica';font-size:74.99px;fill:#000000" text-anchor="middle"> </text>
	<text x="1340.71" y="369.91" style="font-family:'Helvetica';font-size:104.94px;fill:#1E2D53" text-anchor="middle">Female</text>
	<rect x="2097.19" y="207.91" width="1799.33" height="1958.65" style="fill:#EAF2F3"/>
	<rect x="2099.35" y="210.07" width="1795.01" height="1954.33" style="fill:none;stroke:#EAF2F3;stroke-width:4.32"/>
	<rect x="2459.04" y="414.45" width="1361.87" height="1459.06" style="fill:#FFFFFF"/>
	<rect x="2461.20" y="416.61" width="1357.55" height="1454.74" style="fill:none;stroke:#FFFFFF;stroke-width:4.32"/>
	<line x1="2459.04" y1="1825.99" x2="3820.91" y2="1825.99" style="stroke:#EAF2F3;stroke-width:6.48"/>
	<line x1="2459.04" y1="1672.16" x2="3820.91" y2="1672.16" style="stroke:#EAF2F3;stroke-width:6.48"/>
	<line x1="2459.04" y1="1518.34" x2="3820.91" y2="1518.34" style="stroke:#EAF2F3;stroke-width:6.48"/>
	<line x1="2459.04" y1="1364.51" x2="3820.91" y2="1364.51" style="stroke:#EAF2F3;stroke-width:6.48"/>
	<line x1="2459.04" y1="1210.81" x2="3820.91" y2="1210.81" style="stroke:#EAF2F3;stroke-width:6.48"/>
	<line x1="2459.04" y1="1056.98" x2="3820.91" y2="1056.98" style="stroke:#EAF2F3;stroke-width:6.48"/>
	<path d=" M2512.87 1825.99 L2519.18 1825.99 L2519.18 1825.99 L2525.49 1825.99 L2525.49 1825.99 L2531.80 1825.99 L2531.80 1825.99 L2538.11 1825.99 L2538.11 1825.99 L2544.55 1825.99 L2544.55 1825.99 L2550.86 1825.99 L2550.86 1825.99 L2557.17 1825.99 L2557.17 1825.99 L2563.48 1825.99 L2563.48 1825.99 L2569.79 1825.99 L2569.79 1825.99 L2576.23 1825.99 L2576.23 1825.99 L2582.54 1825.99 L2582.54 1825.99 L2588.85 1825.99 L2588.85 1825.99 L2595.16 1825.99 L2595.16 1824.87 L2601.47 1824.87 L2601.47 1824.87 L2607.91 1824.87 L2607.91 1824.87 L2614.22 1824.87 L2614.22 1824.87 L2620.53 1824.87 L2620.53 1824.87 L2626.84 1824.87 L2626.84 1824.87 L2633.15 1824.87 L2633.15 1824.87 L2639.46 1824.87 L2639.46 1824.87 L2645.90 1824.87 L2645.90 1824.87 L2652.21 1824.87 L2652.21 1824.87 L2658.52 1824.87 L2658.52 1824.87 L2664.83 1824.87 L2664.83 1824.87 L2671.14 1824.87 L2671.14 1824.87 L2677.58 1824.87 L2677.58 1824.87 L2683.89 1824.87 L2683.89 1824.87 L2690.20 1824.87 L2690.20 1824.87 L2696.51 1824.87 L2696.51 1824.87 L2702.82 1824.87 L2702.82 1824.87 L2709.26 1824.87 L2709.26 1824.87 L2715.57 1824.87 L2715.57 1824.87 L2721.88 1824.87 L2721.88 1824.87 L2728.19 1824.87 L2728.19 1824.87 L2734.50 1824.87 L2734.50 1824.87 L2740.82 1824.87 L2740.82 1824.87 L2747.25 1824.87 L2747.25 1824.87 L2753.56 1824.87 L2753.56 1824.87 L2759.87 1824.87 L2759.87 1824.87 L2766.18 1824.87 L2766.18 1824.87 L2772.49 1824.87 L2772.49 1824.87 L2778.93 1824.87 L2778.93 1768.44 L2785.24 1768.44 L2785.24 1768.44 L2791.55 1768.44 L2791.55 1768.44 L2797.86 1768.44 L2797.86 1768.44 L2804.18 1768.44 L2804.18 1768.44 L2810.49 1768.44 L2810.49 1768.44 L2816.92 1768.44 L2816.92 1768.44 L2823.23 1768.44 L2823.23 1768.44 L2829.54 1768.44 L2829.54 1768.44 L2835.86 1768.44 L2835.86 1768.44 L2842.17 1768.44 L2842.17 1768.44 L2848.60 1768.44 L2848.60 1768.44 L2854.91 1768.44 L2854.91 1768.07 L2861.22 1768.07 L2861.22 1768.07 L2867.53 1768.07 L2867.53 1767.70 L2873.85 1767.70 L2873.85 1767.70 L2880.28 1767.70 L2880.28 1767.70 L2886.59 1767.70 L2886.59 1767.33 L2892.90 1767.33 L2892.90 1766.09 L2899.22 1766.09 L2899.22 1764.48 L2905.53 1764.48 L2905.53 1764.11 L2911.84 1764.11 L2911.84 1763.37 L2918.27 1763.37 L2918.27 1761.76 L2924.58 1761.76 L2924.58 1761.39 L2930.89 1761.39 L2930.89 1760.15 L2937.21 1760.15 L2937.21 1758.91 L2943.52 1758.91 L2943.52 1756.19 L2949.95 1756.19 L2949.95 1755.32 L2956.26 1755.32 L2956.26 1754.95 L2962.57 1754.95 L2962.57 1753.84 L2968.89 1753.84 L2968.89 1752.97 L2975.20 1752.97 L2975.20 1551.63 L2981.51 1551.63 L2981.51 1551.63 L2987.94 1551.63 L2987.94 1551.63 L2994.26 1551.63 L2994.26 1551.63 L3000.57 1551.63 L3000.57 1551.63 L3006.88 1551.63 L3006.88 1551.63 L3013.19 1551.63 L3013.19 1551.63 L3019.62 1551.63 L3019.62 1551.63 L3025.93 1551.63 L3025.93 1551.63 L3032.25 1551.63 L3032.25 1551.63 L3038.56 1551.63 L3038.56 1551.63 L3044.87 1551.63 L3044.87 1551.25 L3051.30 1551.25 L3051.30 1551.25 L3057.61 1551.25 L3057.61 1551.25 L3063.93 1551.25 L3063.93 1551.25 L3070.24 1551.25 L3070.24 1550.88 L3076.55 1550.88 L3076.55 1550.14 L3082.86 1550.14 L3082.86 1550.14 L3089.30 1550.14 L3089.30 1549.65 L3095.61 1549.65 L3095.61 1549.65 L3101.92 1549.65 L3101.92 1549.27 L3108.23 1549.27 L3108.23 1549.27 L3114.54 1549.27 L3114.54 1549.27 L3120.97 1549.27 L3120.97 1549.27 L3127.29 1549.27 L3127.29 1548.90 L3133.60 1548.90 L3133.60 1548.53 L3139.91 1548.53 L3139.91 1548.04 L3146.22 1548.04 L3146.22 1547.67 L3152.53 1547.67 L3152.53 1547.67 L3158.97 1547.67 L3158.97 1547.29 L3165.28 1547.29 L3165.28 1442.10 L3171.59 1442.10 L3171.59 1442.10 L3177.90 1442.10 L3177.90 1442.10 L3190.65 1442.10 L3190.65 1442.10 L3196.96 1442.10 L3196.96 1442.10 L3203.27 1442.10 L3203.27 1442.10 L3209.58 1442.10 L3209.58 1442.10 L3215.89 1442.10 L3215.89 1442.10 L3222.33 1442.10 L3222.33 1442.10 L3228.64 1442.10 L3228.64 1442.10 L3234.95 1442.10 L3234.95 1442.10 L3241.26 1442.10 L3241.26 1442.10 L3247.57 1442.10 L3247.57 1442.10 L3253.88 1442.10 L3253.88 1442.10 L3260.32 1442.10 L3260.32 1442.10 L3266.63 1442.10 L3266.63 1442.10 L3272.94 1442.10 L3272.94 1442.10 L3279.25 1442.10 L3279.25 1442.10 L3285.56 1442.10 L3285.56 1442.10 L3292.00 1442.10 L3292.00 1442.10 L3298.31 1442.10 L3298.31 1441.61 L3304.62 1441.61 L3304.62 1441.61 L3310.93 1441.61 L3310.93 1441.61 L3317.24 1441.61 L3317.24 1441.61 L3323.55 1441.61 L3323.55 1441.61 L3329.99 1441.61 L3329.99 1441.61 L3336.30 1441.61 L3336.30 1441.61 L3342.61 1441.61 L3342.61 1441.61 L3348.92 1441.61 L3348.92 1441.61 L3355.23 1441.61 L3355.23 1441.24 L3361.67 1441.24 L3361.67 1384.56 L3380.60 1384.56 L3380.60 1384.56 L3386.91 1384.56 L3386.91 1384.56 L3393.35 1384.56 L3393.35 1384.56 L3399.66 1384.56 L3399.66 1384.56 L3405.97 1384.56 L3405.97 1384.56 L3412.28 1384.56 L3412.28 1384.56 L3418.59 1384.56 L3418.59 1384.56 L3424.91 1384.56 L3424.91 1384.56 L3431.34 1384.56 L3431.34 1384.56 L3437.65 1384.56 L3437.65 1384.56 L3443.96 1384.56 L3443.96 1384.56 L3450.27 1384.56 L3450.27 1384.56 L3456.59 1384.56 L3456.59 1384.56 L3463.02 1384.56 L3463.02 1384.56 L3469.33 1384.56 L3469.33 1384.56 L3475.64 1384.56 L3475.64 1384.56 L3481.95 1384.56 L3481.95 1384.56 L3488.26 1384.56 L3488.26 1384.56 L3494.58 1384.56 L3494.58 1384.56 L3501.01 1384.56 L3501.01 1384.56 L3507.32 1384.56 L3507.32 1384.56 L3513.63 1384.56 L3513.63 1384.56 L3519.95 1384.56 L3519.95 1384.56 L3526.26 1384.56 L3526.26 1384.56 L3532.69 1384.56 L3532.69 1384.56 L3539.00 1384.56 L3539.00 1384.19 L3545.31 1384.19 L3545.31 1384.19 L3551.63 1384.19 L3551.63 1343.72 L3570.68 1343.72 L3570.68 1343.72 L3576.99 1343.72 L3576.99 1343.72 L3589.62 1343.72 L3589.62 1343.72 L3602.36 1343.72 L3602.36 1343.72 L3608.67 1343.72 L3608.67 1343.72 L3621.30 1343.72 L3621.30 1343.72 L3627.61 1343.72 L3627.61 1343.72 L3634.04 1343.72 L3634.04 1343.72 L3640.35 1343.72 L3640.35 1343.72 L3672.03 1343.72 L3672.03 1343.72" stroke-linejoin="round" style="fill:none;stroke:#1A476F;stroke-width:6.48"/>
	<path d=" M2512.87 1825.99 L2519.18 1825.99 L2519.18 1825.99 L2525.49 1825.99 L2525.49 1825.99 L2531.80 1825.99 L2531.80 1825.99 L2538.11 1825.99 L2538.11 1825.99 L2544.55 1825.99 L2544.55 1825.99 L2550.86 1825.99 L2550.86 1825.99 L2557.17 1825.99 L2557.17 1825.99 L2563.48 1825.99 L2563.48 1825.99 L2569.79 1825.99 L2569.79 1825.99 L2576.23 1825.99 L2576.23 1825.99 L2582.54 1825.99 L2582.54 1825.99 L2588.85 1825.99 L2588.85 1825.99 L2595.16 1825.99 L2595.16 1824.87 L2601.47 1824.87 L2601.47 1824.87 L2607.91 1824.87 L2607.91 1824.87 L2614.22 1824.87 L2614.22 1824.87 L2620.53 1824.87 L2620.53 1824.87 L2626.84 1824.87 L2626.84 1824.87 L2633.15 1824.87 L2633.15 1824.87 L2639.46 1824.87 L2639.46 1824.87 L2645.90 1824.87 L2645.90 1824.87 L2652.21 1824.87 L2652.21 1824.87 L2658.52 1824.87 L2658.52 1824.87 L2664.83 1824.87 L2664.83 1824.87 L2671.14 1824.87 L2671.14 1824.87 L2677.58 1824.87 L2677.58 1824.87 L2683.89 1824.87 L2683.89 1824.87 L2690.20 1824.87 L2690.20 1824.87 L2696.51 1824.87 L2696.51 1824.87 L2702.82 1824.87 L2702.82 1824.87 L2709.26 1824.87 L2709.26 1824.87 L2715.57 1824.87 L2715.57 1824.87 L2721.88 1824.87 L2721.88 1824.87 L2728.19 1824.87 L2728.19 1824.87 L2734.50 1824.87 L2734.50 1824.87 L2740.82 1824.87 L2740.82 1824.87 L2747.25 1824.87 L2747.25 1824.75 L2753.56 1824.75 L2753.56 1824.75 L2759.87 1824.75 L2759.87 1824.75 L2766.18 1824.75 L2766.18 1824.75 L2772.49 1824.75 L2772.49 1824.75 L2778.93 1824.75 L2778.93 1752.11 L2785.24 1752.11 L2785.24 1752.11 L2791.55 1752.11 L2791.55 1752.11 L2797.86 1752.11 L2797.86 1752.11 L2804.18 1752.11 L2804.18 1752.11 L2810.49 1752.11 L2810.49 1751.86 L2816.92 1751.86 L2816.92 1751.86 L2823.23 1751.86 L2823.23 1751.86 L2829.54 1751.86 L2829.54 1751.86 L2835.86 1751.86 L2835.86 1751.86 L2842.17 1751.86 L2842.17 1751.86 L2848.60 1751.86 L2848.60 1751.86 L2854.91 1751.86 L2854.91 1751.49 L2861.22 1751.49 L2861.22 1750.50 L2867.53 1750.50 L2867.53 1750.37 L2873.85 1750.37 L2873.85 1750.00 L2880.28 1750.00 L2880.28 1748.89 L2886.59 1748.89 L2886.59 1746.29 L2892.90 1746.29 L2892.90 1743.07 L2899.22 1743.07 L2899.22 1741.59 L2905.53 1741.59 L2905.53 1740.10 L2911.84 1740.10 L2911.84 1738.00 L2918.27 1738.00 L2918.27 1735.77 L2924.58 1735.77 L2924.58 1732.68 L2930.89 1732.68 L2930.89 1729.71 L2937.21 1729.71 L2937.21 1727.11 L2943.52 1727.11 L2943.52 1724.14 L2949.95 1724.14 L2949.95 1722.04 L2956.26 1722.04 L2956.26 1720.18 L2962.57 1720.18 L2962.57 1718.20 L2968.89 1718.20 L2968.89 1715.60 L2975.20 1715.60 L2975.20 1451.26 L2981.51 1451.26 L2981.51 1451.26 L2987.94 1451.26 L2987.94 1451.26 L2994.26 1451.26 L2994.26 1451.26 L3000.57 1451.26 L3000.57 1451.26 L3006.88 1451.26 L3006.88 1451.26 L3013.19 1451.26 L3013.19 1451.26 L3019.62 1451.26 L3019.62 1451.26 L3025.93 1451.26 L3025.93 1451.26 L3032.25 1451.26 L3032.25 1451.14 L3038.56 1451.14 L3038.56 1451.14 L3044.87 1451.14 L3044.87 1451.14 L3051.30 1451.14 L3051.30 1451.14 L3057.61 1451.14 L3057.61 1450.89 L3063.93 1450.89 L3063.93 1450.77 L3070.24 1450.77 L3070.24 1450.15 L3076.55 1450.15 L3076.55 1449.78 L3082.86 1449.78 L3082.86 1449.41 L3089.30 1449.41 L3089.30 1449.28 L3095.61 1449.28 L3095.61 1448.91 L3101.92 1448.91 L3101.92 1448.29 L3108.23 1448.29 L3108.23 1448.17 L3114.54 1448.17 L3114.54 1448.17 L3120.97 1448.17 L3120.97 1447.92 L3127.29 1447.92 L3127.29 1447.55 L3133.60 1447.55 L3133.60 1446.93 L3139.91 1446.93 L3139.91 1446.81 L3146.22 1446.81 L3146.22 1446.19 L3152.53 1446.19 L3152.53 1445.82 L3158.97 1445.82 L3158.97 1445.07 L3165.28 1445.07 L3165.28 1321.44 L3171.59 1321.44 L3171.59 1321.44 L3177.90 1321.44 L3177.90 1321.44 L3184.21 1321.44 L3184.21 1321.44 L3190.65 1321.44 L3190.65 1321.44 L3196.96 1321.44 L3196.96 1321.44 L3203.27 1321.44 L3203.27 1321.44 L3209.58 1321.44 L3209.58 1321.44 L3215.89 1321.44 L3215.89 1321.44 L3222.33 1321.44 L3222.33 1321.44 L3228.64 1321.44 L3228.64 1321.44 L3234.95 1321.44 L3234.95 1321.44 L3241.26 1321.44 L3241.26 1321.44 L3247.57 1321.44 L3247.57 1321.44 L3253.88 1321.44 L3253.88 1321.44 L3260.32 1321.44 L3260.32 1321.20 L3266.63 1321.20 L3266.63 1321.20 L3272.94 1321.20 L3272.94 1321.20 L3279.25 1321.20 L3279.25 1321.20 L3285.56 1321.20 L3285.56 1321.20 L3292.00 1321.20 L3292.00 1320.83 L3298.31 1320.83 L3298.31 1320.45 L3304.62 1320.45 L3304.62 1320.45 L3310.93 1320.45 L3310.93 1320.33 L3317.24 1320.33 L3317.24 1320.33 L3323.55 1320.33 L3323.55 1319.83 L3329.99 1319.83 L3329.99 1319.83 L3336.30 1319.83 L3336.30 1319.83 L3342.61 1319.83 L3342.61 1319.71 L3348.92 1319.71 L3348.92 1319.46 L3355.23 1319.46 L3355.23 1319.34 L3361.67 1319.34 L3361.67 1250.78 L3367.98 1250.78 L3367.98 1250.78 L3374.29 1250.78 L3374.29 1250.78 L3380.60 1250.78 L3380.60 1250.78 L3386.91 1250.78 L3386.91 1250.78 L3393.35 1250.78 L3393.35 1250.78 L3399.66 1250.78 L3399.66 1250.78 L3405.97 1250.78 L3405.97 1250.78 L3412.28 1250.78 L3412.28 1250.78 L3418.59 1250.78 L3418.59 1250.78 L3424.91 1250.78 L3424.91 1250.78 L3431.34 1250.78 L3431.34 1250.78 L3437.65 1250.78 L3437.65 1250.78 L3443.96 1250.78 L3443.96 1250.78 L3450.27 1250.78 L3450.27 1250.78 L3456.59 1250.78 L3456.59 1250.41 L3463.02 1250.41 L3463.02 1250.41 L3469.33 1250.41 L3469.33 1250.16 L3475.64 1250.16 L3475.64 1250.16 L3481.95 1250.16 L3481.95 1250.16 L3488.26 1250.16 L3488.26 1249.91 L3494.58 1249.91 L3494.58 1249.79 L3501.01 1249.79 L3501.01 1249.54 L3507.32 1249.54 L3507.32 1249.54 L3513.63 1249.54 L3513.63 1249.54 L3519.95 1249.54 L3519.95 1249.54 L3526.26 1249.54 L3526.26 1249.42 L3532.69 1249.42 L3532.69 1249.05 L3539.00 1249.05 L3539.00 1249.05 L3545.31 1249.05 L3545.31 1249.05 L3551.63 1249.05 L3551.63 1214.15 L3557.94 1214.15 L3557.94 1214.15 L3564.37 1214.15 L3564.37 1214.15 L3570.68 1214.15 L3570.68 1214.15 L3576.99 1214.15 L3576.99 1214.15 L3583.30 1214.15 L3583.30 1214.15 L3589.62 1214.15 L3589.62 1214.15 L3595.93 1214.15 L3595.93 1214.15 L3602.36 1214.15 L3602.36 1214.15 L3608.67 1214.15 L3608.67 1214.15 L3614.99 1214.15 L3614.99 1214.15 L3621.30 1214.15 L3621.30 1214.15 L3627.61 1214.15 L3627.61 1214.15 L3634.04 1214.15 L3634.04 1214.15 L3640.35 1214.15 L3640.35 1214.15 L3646.66 1214.15 L3646.66 1214.15 L3652.98 1214.15 L3652.98 1214.15 L3659.29 1214.15 L3659.29 1214.15 L3672.03 1214.15 L3672.03 1214.15" stroke-linejoin="round" style="fill:none;stroke:#90353B;stroke-width:6.48"/>
	<path d=" M2512.87 1825.99 L2519.18 1825.99 L2519.18 1825.99 L2525.49 1825.99 L2525.49 1825.99 L2531.80 1825.99 L2531.80 1825.99 L2538.11 1825.99 L2538.11 1825.99 L2544.55 1825.99 L2544.55 1825.99 L2550.86 1825.99 L2550.86 1825.99 L2557.17 1825.99 L2557.17 1825.99 L2563.48 1825.99 L2563.48 1825.99 L2569.79 1825.99 L2569.79 1825.99 L2576.23 1825.99 L2576.23 1825.99 L2582.54 1825.99 L2582.54 1825.99 L2588.85 1825.99 L2588.85 1825.99 L2595.16 1825.99 L2595.16 1822.65 L2601.47 1822.65 L2601.47 1822.65 L2607.91 1822.65 L2607.91 1822.65 L2614.22 1822.65 L2614.22 1822.65 L2620.53 1822.65 L2620.53 1822.65 L2626.84 1822.65 L2626.84 1822.65 L2633.15 1822.65 L2633.15 1822.65 L2639.46 1822.65 L2639.46 1822.65 L2645.90 1822.65 L2645.90 1822.65 L2652.21 1822.65 L2652.21 1822.65 L2658.52 1822.65 L2658.52 1822.65 L2664.83 1822.65 L2664.83 1822.65 L2671.14 1822.65 L2671.14 1822.65 L2677.58 1822.65 L2677.58 1822.65 L2683.89 1822.65 L2683.89 1822.65 L2690.20 1822.65 L2690.20 1822.65 L2696.51 1822.65 L2696.51 1822.65 L2702.82 1822.65 L2702.82 1822.65 L2709.26 1822.65 L2709.26 1822.65 L2715.57 1822.65 L2715.57 1822.65 L2721.88 1822.65 L2721.88 1822.65 L2728.19 1822.65 L2728.19 1822.65 L2734.50 1822.65 L2734.50 1822.65 L2740.82 1822.65 L2740.82 1822.65 L2747.25 1822.65 L2747.25 1822.65 L2753.56 1822.65 L2753.56 1822.65 L2759.87 1822.65 L2759.87 1822.65 L2766.18 1822.65 L2766.18 1822.65 L2772.49 1822.65 L2772.49 1821.90 L2778.93 1821.90 L2778.93 1668.70 L2785.24 1668.70 L2785.24 1668.70 L2791.55 1668.70 L2791.55 1668.70 L2797.86 1668.70 L2797.86 1668.70 L2804.18 1668.70 L2804.18 1668.70 L2810.49 1668.70 L2810.49 1668.70 L2816.92 1668.70 L2816.92 1668.70 L2823.23 1668.70 L2823.23 1668.70 L2829.54 1668.70 L2829.54 1668.33 L2835.86 1668.33 L2835.86 1668.33 L2842.17 1668.33 L2842.17 1668.33 L2848.60 1668.33 L2848.60 1668.33 L2854.91 1668.33 L2854.91 1667.58 L2861.22 1667.58 L2861.22 1666.84 L2867.53 1666.84 L2867.53 1665.23 L2873.85 1665.23 L2873.85 1663.75 L2880.28 1663.75 L2880.28 1661.02 L2886.59 1661.02 L2886.59 1655.58 L2892.90 1655.58 L2892.90 1650.26 L2899.22 1650.26 L2899.22 1642.09 L2905.53 1642.09 L2905.53 1634.42 L2911.84 1634.42 L2911.84 1625.14 L2918.27 1625.14 L2918.27 1614.99 L2924.58 1614.99 L2924.58 1608.80 L2930.89 1608.80 L2930.89 1596.80 L2937.21 1596.80 L2937.21 1588.01 L2943.52 1588.01 L2943.52 1580.21 L2949.95 1580.21 L2949.95 1569.69 L2956.26 1569.69 L2956.26 1562.02 L2962.57 1562.02 L2962.57 1550.76 L2968.89 1550.76 L2968.89 1544.94 L2975.20 1544.94 L2975.20 991.89 L2981.51 991.89 L2981.51 991.89 L2987.94 991.89 L2987.94 991.89 L2994.26 991.89 L2994.26 991.89 L3000.57 991.89 L3000.57 991.89 L3006.88 991.89 L3006.88 991.89 L3013.19 991.89 L3013.19 991.89 L3019.62 991.89 L3019.62 991.89 L3025.93 991.89 L3025.93 991.89 L3032.25 991.89 L3032.25 991.89 L3038.56 991.89 L3038.56 991.89 L3044.87 991.89 L3044.87 991.52 L3051.30 991.52 L3051.30 991.14 L3057.61 991.14 L3057.61 990.65 L3063.93 990.65 L3063.93 990.28 L3070.24 990.28 L3070.24 989.91 L3076.55 989.91 L3076.55 986.81 L3082.86 986.81 L3082.86 983.72 L3089.30 983.72 L3089.30 981.74 L3095.61 981.74 L3095.61 979.02 L3101.92 979.02 L3101.92 976.29 L3108.23 976.29 L3108.23 972.33 L3114.54 972.33 L3114.54 969.24 L3120.97 969.24 L3120.97 966.89 L3127.29 966.89 L3127.29 962.56 L3133.60 962.56 L3133.60 959.83 L3139.91 959.83 L3139.91 959.46 L3146.22 959.46 L3146.22 957.11 L3152.53 957.11 L3152.53 955.50 L3158.97 955.50 L3158.97 952.41 L3165.28 952.41 L3165.28 666.79 L3171.59 666.79 L3171.59 666.79 L3177.90 666.79 L3177.90 666.79 L3184.21 666.79 L3184.21 666.79 L3190.65 666.79 L3190.65 666.79 L3196.96 666.79 L3196.96 666.79 L3203.27 666.79 L3203.27 666.79 L3209.58 666.79 L3209.58 666.79 L3215.89 666.79 L3215.89 666.41 L3222.33 666.41 L3222.33 666.41 L3228.64 666.41 L3228.64 666.41 L3234.95 666.41 L3234.95 666.04 L3241.26 666.04 L3241.26 666.04 L3247.57 666.04 L3247.57 665.55 L3253.88 665.55 L3253.88 664.43 L3260.32 664.43 L3260.32 664.06 L3266.63 664.06 L3266.63 663.57 L3272.94 663.57 L3272.94 662.83 L3279.25 662.83 L3279.25 661.71 L3285.56 661.71 L3285.56 660.85 L3292.00 660.85 L3292.00 659.24 L3298.31 659.24 L3298.31 658.49 L3304.62 658.49 L3304.62 657.75 L3310.93 657.75 L3310.93 656.14 L3317.24 656.14 L3317.24 655.77 L3323.55 655.77 L3323.55 654.53 L3329.99 654.53 L3329.99 653.79 L3336.30 653.79 L3336.30 653.42 L3342.61 653.42 L3342.61 653.05 L3348.92 653.05 L3348.92 652.55 L3355.23 652.55 L3355.23 651.44 L3361.67 651.44 L3361.67 516.80 L3367.98 516.80 L3367.98 516.80 L3374.29 516.80 L3374.29 516.80 L3380.60 516.80 L3380.60 516.80 L3386.91 516.80 L3386.91 516.80 L3393.35 516.80 L3393.35 516.80 L3399.66 516.80 L3399.66 516.80 L3405.97 516.80 L3405.97 516.80 L3412.28 516.80 L3412.28 516.80 L3418.59 516.80 L3418.59 516.80 L3424.91 516.80 L3424.91 516.80 L3431.34 516.80 L3431.34 516.80 L3437.65 516.80 L3437.65 516.80 L3443.96 516.80 L3443.96 516.80 L3450.27 516.80 L3450.27 516.80 L3456.59 516.80 L3456.59 516.80 L3463.02 516.80 L3463.02 516.80 L3469.33 516.80 L3469.33 516.80 L3475.64 516.80 L3475.64 516.80 L3481.95 516.80 L3481.95 516.80 L3488.26 516.80 L3488.26 516.42 L3494.58 516.42 L3494.58 516.42 L3501.01 516.42 L3501.01 516.05 L3507.32 516.05 L3507.32 515.68 L3513.63 515.68 L3513.63 515.68 L3519.95 515.68 L3519.95 515.68 L3526.26 515.68 L3526.26 515.68 L3532.69 515.68 L3532.69 515.31 L3539.00 515.31 L3539.00 514.82 L3545.31 514.82 L3545.31 514.82 L3551.63 514.82 L3551.63 461.97 L3557.94 461.97 L3557.94 461.97 L3570.68 461.97 L3570.68 461.97 L3576.99 461.97 L3576.99 461.97 L3583.30 461.97 L3583.30 461.97 L3589.62 461.97 L3589.62 461.97 L3595.93 461.97 L3595.93 461.97 L3602.36 461.97 L3602.36 461.97 L3608.67 461.97 L3608.67 461.97 L3614.99 461.97 L3614.99 461.97 L3621.30 461.97 L3621.30 461.97 L3627.61 461.97 L3627.61 461.97 L3634.04 461.97 L3634.04 461.97 L3640.35 461.97 L3640.35 461.97 L3646.66 461.97 L3646.66 461.97 L3652.98 461.97 L3652.98 461.97 L3659.29 461.97 L3659.29 461.97 L3665.60 461.97 L3665.60 461.97 L3672.03 461.97 L3672.03 461.97" stroke-linejoin="round" style="fill:none;stroke:#55752F;stroke-width:6.48"/>
	<line x1="2459.04" y1="1873.51" x2="2459.04" y2="414.45" style="stroke:#000000;stroke-width:4.32"/>
	<line x1="2459.04" y1="1825.99" x2="2429.09" y2="1825.99" style="stroke:#000000;stroke-width:4.32"/>
	<text x="2413.99" y="1852.27" style="font-family:'Helvetica';font-size:74.99px;fill:#000000" text-anchor="end">0.000</text>
	<line x1="2459.04" y1="1672.16" x2="2429.09" y2="1672.16" style="stroke:#000000;stroke-width:4.32"/>
	<text x="2413.99" y="1698.44" style="font-family:'Helvetica';font-size:74.99px;fill:#000000" text-anchor="end">0.001</text>
	<line x1="2459.04" y1="1518.34" x2="2429.09" y2="1518.34" style="stroke:#000000;stroke-width:4.32"/>
	<text x="2413.99" y="1544.62" style="font-family:'Helvetica';font-size:74.99px;fill:#000000" text-anchor="end">0.002</text>
	<line x1="2459.04" y1="1364.51" x2="2429.09" y2="1364.51" style="stroke:#000000;stroke-width:4.32"/>
	<text x="2413.99" y="1390.79" style="font-family:'Helvetica';font-size:74.99px;fill:#000000" text-anchor="end">0.003</text>
	<line x1="2459.04" y1="1210.81" x2="2429.09" y2="1210.81" style="stroke:#000000;stroke-width:4.32"/>
	<text x="2413.99" y="1237.09" style="font-family:'Helvetica';font-size:74.99px;fill:#000000" text-anchor="end">0.004</text>
	<line x1="2459.04" y1="1056.98" x2="2429.09" y2="1056.98" style="stroke:#000000;stroke-width:4.32"/>
	<text x="2413.99" y="1083.26" style="font-family:'Helvetica';font-size:74.99px;fill:#000000" text-anchor="end">0.005</text>
	<line x1="2459.04" y1="1873.51" x2="3820.91" y2="1873.51" style="stroke:#000000;stroke-width:4.32"/>
	<line x1="2506.56" y1="1873.51" x2="2506.56" y2="1903.46" style="stroke:#000000;stroke-width:4.32"/>
	<text x="2506.56" y="1970.87" style="font-family:'Helvetica';font-size:74.99px;fill:#000000" text-anchor="middle">1 Feb 20</text>
	<line x1="2690.20" y1="1873.51" x2="2690.20" y2="1903.46" style="stroke:#000000;stroke-width:4.32"/>
	<text x="2690.20" y="1970.87" style="font-family:'Helvetica';font-size:74.99px;fill:#000000" text-anchor="middle">1 Mar 20</text>
	<line x1="2886.59" y1="1873.51" x2="2886.59" y2="1903.46" style="stroke:#000000;stroke-width:4.32"/>
	<text x="2886.59" y="1970.87" style="font-family:'Helvetica';font-size:74.99px;fill:#000000" text-anchor="middle">1 Apr 20</text>
	<line x1="3082.98" y1="1873.51" x2="3082.98" y2="1903.46" style="stroke:#000000;stroke-width:4.32"/>
	<text x="3082.98" y="1970.87" style="font-family:'Helvetica';font-size:74.99px;fill:#000000" text-anchor="middle">1 May 20</text>
	<line x1="3272.94" y1="1873.51" x2="3272.94" y2="1903.46" style="stroke:#000000;stroke-width:4.32"/>
	<text x="3272.94" y="1970.87" style="font-family:'Helvetica';font-size:74.99px;fill:#000000" text-anchor="middle">1 June 20</text>
	<line x1="3463.02" y1="1873.51" x2="3463.02" y2="1903.46" style="stroke:#000000;stroke-width:4.32"/>
	<text x="3463.02" y="1970.87" style="font-family:'Helvetica';font-size:74.99px;fill:#000000" text-anchor="middle">1 July 20</text>
	<line x1="3659.41" y1="1873.51" x2="3659.41" y2="1903.46" style="stroke:#000000;stroke-width:4.32"/>
	<text x="3659.41" y="1970.87" style="font-family:'Helvetica';font-size:74.99px;fill:#000000" text-anchor="middle">1 Aug 20</text>
	<text x="3140.03" y="2053.41" style="font-family:'Helvetica';font-size:74.99px;fill:#000000" text-anchor="middle">Days since 1 Feb 2020</text>
	<text x="3140.03" y="369.91" style="font-family:'Helvetica';font-size:104.94px;fill:#1E2D53" text-anchor="middle">Male</text>
	<text x="150.62" y="1187.29" style="font-family:'Helvetica';font-size:99.99px;fill:#000000" transform="rotate(-90 150.62,1187.29)" text-anchor="middle">Cumulative probability</text>
	<text x="250.61" y="1187.29" style="font-family:'Helvetica';font-size:99.99px;fill:#000000" transform="rotate(-90 250.61,1187.29)" text-anchor="middle">TPP Covid-19 case</text>
	<text x="2097.19" y="157.51" style="font-family:'Helvetica';font-size:110.01px;fill:#000000" text-anchor="middle"> </text>
	<rect x="1302.10" y="2201.21" width="1590.19" height="580.90" style="fill:#FFFFFF"/>
	<rect x="1304.98" y="2204.09" width="1584.43" height="575.14" style="fill:none;stroke:#000000;stroke-width:5.76"/>
	<line x1="1345.29" y1="2408.87" x2="1719.63" y2="2408.87" style="stroke:#1A476F;stroke-width:8.64"/>
	<line x1="1345.29" y1="2548.83" x2="1719.63" y2="2548.83" style="stroke:#90353B;stroke-width:8.64"/>
	<line x1="1345.29" y1="2688.92" x2="1719.63" y2="2688.92" style="stroke:#55752F;stroke-width:8.64"/>
	<text x="1779.65" y="2436.88" style="font-family:'Helvetica';font-size:79.94px;fill:#000000">18-&lt;30</text>
	<text x="1779.65" y="2576.85" style="font-family:'Helvetica';font-size:79.94px;fill:#000000">30-&lt;40</text>
	<text x="1779.65" y="2716.94" style="font-family:'Helvetica';font-size:79.94px;fill:#000000">40-&lt;50</text>
	<text x="2243.22" y="2436.88" style="font-family:'Helvetica';font-size:79.94px;fill:#000000">50-&lt;60</text>
	<text x="2243.22" y="2576.85" style="font-family:'Helvetica';font-size:79.94px;fill:#000000">60-&lt;70</text>
	<text x="2243.22" y="2716.94" style="font-family:'Helvetica';font-size:79.94px;fill:#000000">70-&lt;80</text>
	<text x="2706.78" y="2436.88" style="font-family:'Helvetica';font-size:79.94px;fill:#000000">80+</text>
	<text x="2097.19" y="2308.96" style="font-family:'Helvetica';font-size:79.94px;fill:#000000" text-anchor="middle">Age group</text>
</svg>
